<?xml version="1.0" encoding="utf-8" ?>
<svg baseProfile="full" height="300mm" version="1.1" viewBox="0,0,200,300" width="200mm" xmlns="http://www.w3.org/2000/svg" xmlns:ev="http://www.w3.org/2001/xml-events" xmlns:xlink="http://www.w3.org/1999/xlink"><defs /><rect fill="#f5f5f5" height="300" rx="1" ry="1" width="200" x="0" y="0" /><text fill="#006cb8" style="font-size:12px; font-family:MGI-Regular; font-weight:bold;" x="10" y="20">超过5公里的活动</text><text fill="#006cb8" style="font-size:4px; font-family:MGI-Regular" x="10" y="280">Runner</text><text fill="#006cb8" style="font-size:9px; font-family:Arial" x="10" y="290">XHH</text><text fill="#006cb8" style="font-size:4px; font-family:MGI-Regular" x="65" y="280">特殊的活动</text><rect fill="yellow" height="2.6" rx="1" ry="1" width="2.6" x="65" y="283" /><text fill="#006cb8" style="font-size:3px; font-family:MGI-Regular" x="70" y="285.5">大于 20.0 km</text><rect fill="red" height="2.6" rx="1" ry="1" width="2.6" x="65" y="287" /><text fill="#006cb8" style="font-size:3px; font-family:MGI-Regular" x="70" y="289.5">大于 40.0 km</text><text fill="#006cb8" style="font-size:4px; font-family:MGI-Regular" x="120" y="280">数据</text><text fill="#006cb8" style="font-size:3px; font-family:MGI-Regular" x="120" y="285">次数: 2</text><text fill="#006cb8" style="font-size:3px; font-family:MGI-Regular" x="120" y="290">周均次: 2.0</text><text fill="#006cb8" style="font-size:3px; font-family:MGI-Regular" x="141" y="285">所有: 16.9 km</text><text fill="#006cb8" style="font-size:3px; font-family:MGI-Regular" x="141" y="290">平均: 8.4 km</text><text fill="#006cb8" style="font-size:3px; font-family:MGI-Regular" x="167" y="285">最少: 5.4 km</text><text fill="#006cb8" style="font-size:3px; font-family:MGI-Regular" x="167" y="290">最多: 11.5 km</text><polyline fill="none" points="119.21401284518652,46.385173608665355 118.74373980355449,47.349505130259786 119.28119470831007,46.385173608665355 118.67655794066377,47.2011465014657 118.47501235106029,49.64906077901833 118.07192117301747,51.42935792612843 118.27346676192246,52.3936840898823 118.13910303567536,54.39651208015857 118.20628489903174,55.13829910347704 118.13910303567536,55.7317282857839 118.47501235106029,57.21529954462312 118.27346676192246,57.88290582021 117.66882999427617,58.32797639770433 117.33292067865841,58.847225129196886 117.19855695241131,59.811543414136395 117.60164813091978,60.77586067491211 117.53446626779623,61.44346433249302 117.26573881530203,61.740176911465824 116.86264763702638,61.888533164630644 116.66110204765573,62.40777985978639 116.72828391077928,63.372094363032375 116.9298294999171,63.74298428389011 116.72828391077928,65.96832062728936 116.39237459539436,67.52605282241711 116.52673832140863,69.75137989391806 116.39237459539436,72.27341064845677 116.45955645828508,75.31467371160397 116.72828391077928,76.3531514488277 116.66110204765573,77.02074365282897 116.86264763702638,77.8366890133475 116.79546577367,78.2075730257202 116.99701136304066,78.57845688669477 116.9298294999171,79.09769403754035 117.19855695241131,80.65540370804956 117.13137508928776,81.17463967122603 116.66110204765573,81.69387533736881 109.80855201208033,86.1444545823033 108.46491475007497,87.10874387685908 107.92745984485373,87.62797614978626 107.52436866681091,87.77632817305857 106.9869137618225,87.85050417581806 106.65100444620475,87.998856162827 106.44945885729976,88.36973602452781 106.04636767855845,88.44391197874211 105.9791858154349,89.11149529332761 106.31509513105266,89.70490227232222 106.44945885729976,90.5950120135094 106.78536817268468,91.48512088239659 106.78536817268468,91.9301749895676 106.58382258331403,92.22687760635745 106.04636767855845,92.44940450560534 104.90427600569092,92.59775574121159 104.29963923804462,92.89445814013015 102.6200926604215,92.9686337247258 102.08263775589876,93.19116044195835 101.41081912489608,93.19116044195835 100.40309117827564,93.6362137129181 98.92509019072168,93.93291577266064 98.05172597011551,94.22961773507996 96.77527057146654,94.37796867999714 95.0285421309527,94.15544225339545 94.55826908908784,94.60049505194183 94.28954163682647,95.342249231413 94.42390536307357,97.49333292525262 94.75981467822567,98.0125592602999 95.43163330946118,98.30925988999661 95.70036076148972,98.90266085840994 95.23008772032335,99.42188638774678 95.16290585696697,99.79276158398716 95.49881517258473,100.83121132780798 95.70036076148972,100.83121132780798 94.75981467822567,101.12791103648487 94.6254509522114,101.49878553597955 95.09572399384342,104.6141253526439 95.09572399384342,105.50422048004111 94.96136026759632,106.02344223484397 95.09572399384342,106.69101262639742 94.96136026759632,107.2844081177609 95.09572399384342,109.06459226587322 94.75981467822567,111.14146936149336 94.82699654158205,112.40242813812802 94.55826908908784,112.84747199405683 94.49108722596429,113.21834170771763 94.6254509522114,114.10842840198893 94.42390536307357,114.99851422390202 94.6254509522114,115.66607801790815 94.49108722596429,116.63033596525202 94.6254509522114,117.89128712081583 94.6254509522114,118.92971616965951 94.82699654158205,120.4131841797498 94.6254509522114,121.30326382262865 94.75981467822567,122.63838165142806 94.82699654158205,126.34703198925126 94.49108722596429,127.45962413732195 94.6254509522114,128.94307821482653 94.55826908908784,130.0556671830127 94.75981467822567,130.94573737611063 94.6254509522114,132.28084103064612 94.82699654158205,133.61594272212824 94.89417840493843,135.32190313906176 94.35672349971719,138.3629550653277 94.6254509522114,138.7338143599336 94.69263281556778,139.47553249448538 95.09572399384342,139.77221957885195 94.89417840493843,141.8490264552529 92.27408574381843,141.8490264552529 89.38526563066989,142.81325660512084 88.44471954740584,142.81325660512084 88.31035582139157,142.81325660512084 88.51190141052939,142.7390850916272 88.31035582139157,142.66491357196355 87.90726464265026,142.88742811285192 87.50417346414179,143.25828555994667 86.5636273806449,143.6291428557015 84.01071658288129,144.0 83.74198913085274,143.77748573152348 83.54044354148209,142.5907420461299 83.20453422586434,142.071541196201 82.33117000572383,140.95896694686962 82.12962441635318,140.8847952816286 81.79371510096826,141.03313860599883 81.72653323761187,140.95896694686962 82.19680627970956,140.8847952816286 82.59989745821804,140.06890656624455 85.0856263928581,139.54970427474473 84.6825352141168,139.84639133466408 84.81689894013107,139.47553249448538 84.6825352141168,139.1788453134941 83.00298863695934,138.5854706603568 82.73426118423231,138.6596425132011 82.33117000572383,138.5112988014589 83.33889795234427,139.03050168656046 83.33889795234427,139.2530171177932 83.20453422586434,139.40136070817243 83.54044354148209,139.2530171177932 83.67480726749636,138.8821580351214 84.07789844623767,138.95632986386772 82.86862491024658,138.6596425132011 82.19680627970956,138.3629550653277 80.71880529168993,131.16825478809187 80.8531690177042,131.8358066971996 81.18907833308913,131.68746187066427 81.25626019621268,131.2424272467033 81.12189646973275,130.94573737611063 81.05471460707486,130.94573737611063 80.98753274371848,131.2424272467033 81.12189646973275,131.39077214570716 80.98753274371848,132.50335811520927 81.18907833308913,132.65170280827442 81.32344205933623,131.53911702043843 82.33117000572383,129.90732206596294 82.12962441635318,130.20401227584807 82.33117000572383,131.61328944860725 82.12962441635318,131.39077214570716 83.67480726749636,131.39077214570716 84.61535335076042,129.90732206596294 84.21226217248477,130.723219909647 84.48098962474614,130.5007023885264 84.61535335076042,130.649047408544 83.33889795234427,131.98415149905486 82.86862491024658,132.20666865678504 82.4655337317381,132.05832389107672 82.33117000572383,132.50335811520927 82.33117000572383,131.46494458598318 83.27171608922072,131.61328944860725 82.66707932134159,130.87156489345944 82.33117000572383,130.20401227584807 82.4655337317381,130.649047408544 82.33117000572383,130.35235734435264 82.4655337317381,130.5007023885264 82.33117000572383,130.5748749016784 82.26398814260028,130.42652986943722 82.33117000572383,130.87156489345944 82.86862491024658,130.723219909647 83.27171608922072,130.94573737611063 83.07017049961723,131.09408232354326 83.00298863695934,131.31659969931934 83.07017049961723,132.94839212158695 86.89953669602983,135.84110784722725 86.29489992838353,135.76693576434627 86.5636273806449,135.69276367517887 86.89953669602983,135.84110784722725 87.63853719015606,135.32190313906176 87.84008277952671,135.32190313906176 83.13735236297362,134.20932062197244 83.13735236297362,133.98680395487463 83.27171608922072,133.98680395487463 83.60762540460564,134.58018161234213 83.67480726749636,135.09938674455043 83.9435347202234,135.39607525826432 84.34662589873187,135.61859157995787 84.88408080348745,135.39607525826432 82.33117000572383,137.84375179861672 82.26398814260028,138.06626752088778 82.39835186884739,138.21461130533135 81.86089696409181,137.7695798794739 81.52498764870688,137.1762043054914 82.06244255369529,136.2861402182025 82.19680627970956,136.21196817141026 82.59989745821804,136.36031225865008 82.33117000572383,139.994734828535 82.66707932134159,139.994734828535 83.07017049961723,139.62387604883406 82.86862491024658,139.92056308465544 82.19680627970956,139.92056308465544 81.65935137472115,140.5881085609435 81.72653323761187,140.51393686566735 82.33117000572383,140.73645193350967 83.40607981523499,140.43976516416296 84.07789844623767,139.994734828535 85.48871757113375,139.54970427474473 85.55589943449013,139.40136070817243 85.48871757113375,138.95632986386772 85.69026316073723,138.7338143599336 86.4292636543978,138.5854706603568 87.23544601164758,138.06626752088778 87.50417346414179,137.39872019091854 87.57135532726534,135.5444194788579 87.36980973789468,134.65435379213886 87.30262787477113,130.79739240469644 87.30262787477113,130.5007023885264 86.89953669602983,129.90732206596294 86.96671855938621,129.31394135585288 87.30262787477113,128.94307821482653 87.90726464265026,128.72056025778875 88.84781072591431,128.79473291616887 89.45244749379344,128.6463875931804 89.58681122027338,128.49804224597756 89.6539930831641,128.0530060591409 89.45244749379344,125.90199474821566 89.45244749379344,124.12184360378888 89.6539930831641,122.26751578482799 89.58681122027338,121.97082298237365 89.6539930831641,121.22909055225318 89.45244749379344,119.15223652560962 89.6539930831641,117.00120413390687 89.58681122027338,111.51233977160882 89.45244749379344,110.10303140740143 89.6539930831641,109.06459226587322 89.58681122027338,108.10032628529007 89.78835680917837,106.61683816259028 89.78835680917837,102.68558291677618 89.72117494628765,101.12791103648487 89.31808376777917,100.23781161964871 88.84781072591431,99.79276158398716 88.7806288630236,99.49606143910205 88.98217445216142,99.19936119712656 89.45244749379344,98.82848575850949 89.78835680917837,98.30925988999661 89.78835680917837,96.15817812888417 89.98990239854902,95.49059999454767 89.6539930831641,94.45214414346265 88.84781072591431,93.41368710494135 88.84781072591431,93.11698487546528 88.98217445216142,92.9686337247258 89.31808376777917,92.9686337247258 89.519629356917,93.19116044195835 89.519629356917,93.33951155660907 89.31808376777917,93.41368710494135 88.98217445216142,92.9686337247258 89.04935631528497,92.52358012646437 88.10881023202091,92.15270196116762 88.17599209491163,92.22687760635745 88.10881023202091,91.85599932010518 88.37753768451512,91.48512088239659 88.44471954740584,91.11424229299882 88.24317395803519,90.81753931270214 87.84008277952671,90.52083623519866 87.57135532726534,90.22413306072121 88.10881023202091,90.5950120135094 88.17599209491163,90.74336355226114 88.10881023202091,90.96589081501588 87.63853719015606,91.48512088239659 87.63853719015606,91.78182364470558 87.84008277952671,91.9301749895676 88.31035582139157,91.9301749895676 88.9149925892707,92.37522887857631 89.18372004153207,92.37522887857631 89.72117494628765,92.00435065286001 89.519629356917,90.96589081501588 89.45244749379344,89.40819883131189 89.58681122027338,88.59226386900991 89.519629356917,87.25709598493995 89.6539930831641,84.80928309919545 89.58681122027338,82.65816935827024 89.78835680917837,80.43287391867489 89.6539930831641,78.13339623541106 89.78835680917837,77.2432742783567 89.58681122027338,74.79543439752888 89.78835680917837,73.31189186411211 89.45244749379344,72.27341064845677 89.45244749379344,70.56733178690774 89.78835680917837,69.23213739844505 89.72117494628765,65.59743161546066 89.85553867253475,64.9298310126178 90.0570842619054,64.70729736908106 90.59453916642815,64.63311947573675 90.99763034516945,64.48476367094554 92.47563133318909,64.63311947573675 94.35672349971719,64.41058575967327 94.55826908908784,64.0396961113438 94.28954163682647,62.85284821939422 94.22235977370292,61.51764248631662 94.69263281556778,60.62750423984835 94.28954163682647,60.03407825762406 94.28954163682647,58.105441136227455 94.22235977370292,57.734548912441824 94.35672349971719,57.141121039225254 94.35672349971719,55.50919238803908 94.22235977370292,55.13829910347704 94.22235977370292,51.577715864114 94.28954163682647,50.83592593157664 94.22235977370292,49.871598113153595 94.28954163682647,49.05562762089539 94.49108722596429,48.90726927056676 94.22235977370292,48.5363732893602 94.15517791057937,47.64622231555404 94.22235977370292,46.97860851249425 94.08799604768865,46.385173608665355 94.15517791057937,45.04994365724269 94.02081418433227,42.750376359326765 94.15517791057937,42.15693869162351 94.08799604768865,40.07990380033152 94.28954163682647,39.93154398322804 94.75981467822567,40.005723894864786 94.82699654158205,39.85736406594515 94.96136026759632,38.96720458229538 95.23008772032335,37.85450400062837 97.58145292825066,36.59344169247197 99.93281813664362,36.66762187657878 100.53745490452275,36.445081305806525 101.41081912489608,36.445081305806525 102.08263775589876,36.741802054981235 102.08263775589876,36.8901623931597 101.8810921665281,37.11270285496721 102.82163824979216,36.741802054981235 103.0903657025192,36.8901623931597 103.56063874391839,36.96434255311033 104.16527551179752,37.4094233859214 104.16527551179752,37.33524326240877 104.90427600569092,37.18688299669884 105.50891277380288,36.8901623931597 106.58382258331403,36.8901623931597 106.9869137618225,36.741802054981235 107.45718680345453,36.741802054981235 107.86027798219584,37.11270285496721 108.12900543445721,37.63196372042876 108.73364220256917,38.00286415684968 109.4726426966954,37.92868408176582 110.21164319035597,37.48360350349685 111.01782554760575,37.261063132609706 111.55528045259416,37.33524326240877 111.89118976797909,37.55778361490229 112.42864467250183,37.63196372042876 112.49582653585821,37.261063132609706 112.22709908336401,36.96434255311033 111.21937113674358,36.074180232943036 110.681916231988,36.074180232943036 110.41318877972662,36.22254068008624 110.0772794643417,36.0 109.27109710709192,36.445081305806525 108.33055102382787,36.445081305806525" stroke="#00AFAA" stroke-linecap="round" stroke-linejoin="round" stroke-width="1"><title>2025-09-13 5.4km</title><desc>15794483312</desc></polyline><polyline fill="none" points="119.17020320985466,162.7191622320388 119.1350285251392,162.91335625993088 119.76817285141442,164.77761489126715 120.01439564477187,164.93296944716712 115.3009878831217,163.7289703109418 114.70301824167836,163.10755020845681 114.91406635043677,162.68032341697835 119.76817285141442,165.166001185833 120.64753997104708,165.20483979777782 119.17020320985466,164.81645353493514 121.70278051472269,165.63206432035076 122.16005141707137,165.32135561472387 122.16005141707137,165.94277282289113 121.77312988427002,168.35075683073956 121.45655772124883,170.40918510212214 121.03446150373202,175.10858227929566 120.78823871037457,175.76882444153307 120.85858807980549,176.19603946970892 121.42138303641696,176.4290656868834 121.52690709079616,177.63303265586728 121.17516024305951,178.83699657564284 121.35103366686963,183.49747332528932 121.59725646034349,186.02187915533432 117.20042086171452,188.973475127219 116.35622842691373,189.32300501555437 115.82860815501772,190.1385737558885 115.82860815501772,190.87646807730198 115.19546382885892,190.87646807730198 113.33120553498156,192.0803984591912 111.53729661076795,192.7406170515751 110.37653201271314,192.7406170515751 109.74338768655434,193.0901441705355 109.77856237115338,194.33290517923888 110.34135732799768,194.9542844654061 110.09513453429099,195.49799067463027 109.95443579531275,199.22624507488217 109.98961047991179,201.0126899483439 109.74338768655434,202.44960812822683 109.70821300172247,203.49816730283783 109.88408642553259,206.33314904975123 109.84891174081713,210.33316304036998 109.88408642553259,212.62441803346155 109.91926111048087,214.83799288095906 109.88408642553259,217.94474721790175 109.98961047991179,216.58554469287628 110.3061826430494,217.67290702369064 106.71836479473859,218.1389186901797 106.54249137069564,218.255421535403 105.69829893577844,218.48842714031343 103.48229379404802,218.83793533357675 102.53257730475161,218.99327222580905 97.57294674951117,219.0321064410382 97.36189864075277,219.45928259851644 96.69357962987851,219.76995592645835 95.70868845575023,219.80879007824115 93.94995421625208,219.80879007824115 92.61331619438715,219.88645837223157 91.98017186811194,221.51748961518751 92.15604529203847,228.19689253746765 92.1208706072066,235.10919911862584 92.1208706072066,239.10897109017242 92.19121997687034,241.05059584320406 92.05052123765927,243.57469617348397 92.08569592249114,246.60359889047686 92.26156934641767,249.5548188847606 92.1208706072066,252.6225149980164 92.08569592249114,253.9427831856301 92.15604529203847,255.69019132919493 90.88975663972087,255.80668497720035 89.48276924807578,255.8843473934976 89.16619708493818,255.92317859680043 87.8647337477887,256.0785033783468 85.96530076919589,256.38915278951754 84.73418680147734,256.31149045575876 82.69405508378986,256.50564626650885 81.77951327944174,256.1949969313573 79.07106255053077,256.50564626650885 78.71931570256129,256.1949969313573 78.43791822437197,256.1949969313573 77.59372578933835,256.11733456587535 77.80477389821317,256.6609708579781 77.91029795247596,258.25304499667254 78.29721948504448,259.6509593598021 78.50826759380288,261.0488696154498 78.82483975694049,262.05846891223337 80.97049552924,262.44677576367394 83.186500670854,262.44677576367394 85.26180707337335,262.4079450927966 86.21152356290258,262.25262237753486 87.05571599758696,262.2914530611015 88.35717933485284,262.2914530611015 89.20137176988646,262.17496100100107 90.39731105254032,262.2914530611015 90.74905790039338,263.18455790821463 90.71388321556151,264.0 90.39731105254032,263.06806606668397 90.22143762861378,262.2914530611015 89.06067303055897,262.17496100100107 88.07578185654711,262.1361303079175 87.37228816072457,262.17496100100107 84.41761463845614,262.4079450927966 83.67894625780173,262.563267757243 82.48300697503146,262.5244370959408 80.05595372465905,262.4079450927966 79.10623723524623,261.86431536782766 78.47309290908743,259.6509593598021 77.80477389821317,256.1561657502607 78.15652074594982,255.76785376440967 79.1414119200781,256.11733456587535 81.53329048573505,256.0396721877041 82.27195886638947,255.92317859680043 83.25685004040133,256.0396721877041 85.47285518213175,255.80668497720035 87.61851095419843,255.8843473934976 88.84962492180057,255.76785376440967 89.62346798728686,255.57369765266776 90.32696168287657,255.57369765266776 90.46766042220406,255.34071021396085 90.39731105254032,254.29226532770554 90.67870853096247,253.90395182056818 92.05052123765927,253.70979494813946 92.40226808562875,253.47680659644539 91.87464781373274,251.57406412111595 92.0153465528274,247.5743969620089 92.0153465528274,244.4678361591068 91.98017186811194,241.94374056806555 91.94499718328007,237.82749441149645 91.94499718328007,230.68222781841177 91.87464781373274,226.0222135129734 91.87464781373274,225.20670631507528 91.94499718328007,222.37183708138764 91.94499718328007,219.9252925144683 93.14093646605033,219.76995592645835 94.4775744881481,220.00296078930842 95.74386314034928,219.76995592645835 97.39707332558464,219.6534534523671 97.39707332558464,218.954438007524 97.81916954310145,218.99327222580905 100.9497164892964,218.954438007524 102.53257730475161,218.954438007524 104.2561368594179,217.82824429668835 104.43201028334443,216.77971671996056 103.93956469628029,216.77971671996056 103.76369127223734,217.94474721790175 103.8340406420175,218.7602668683394 103.41194442450069,218.79910110257333 102.35670388070866,218.87676956149517 98.17091639095452,218.954438007524 98.06539233657531,219.0321064410382 101.12558991333935,218.99327222580905 101.5828608154552,218.954438007524 103.51746847887989,218.72143263096223 105.17067866399884,218.44959288070095 106.2610938922735,218.29425581084797 107.07011164259166,218.06125011079712 110.02478516486008,216.74088232096983 109.77856237115338,214.95449653480318 109.77856237115338,213.90596262199688 109.67303831700701,210.83801678367308 109.84891174081713,208.58558825144428 109.77856237115338,206.13897275697673 109.81373705610167,204.93507797204074 109.88408642553259,203.30398985251668 109.63786363217514,203.30398985251668 109.67303831700701,202.25543024970102 109.98961047991179,198.95439417962916 110.44688138237689,195.1096291600843 109.95443579531275,194.64359492377844 109.70821300172247,193.32316210714635 110.13030921923928,192.54643520782702 111.29107381717768,192.70178068912355 112.8739346327493,192.2357440928463 113.89400049147662,191.96388920058962 114.7733676112257,191.61436125362525 115.23063851357438,190.87646807730198 115.79343347030226,191.03181410446996 115.72308410063852,191.148323591362 116.18035500287078,190.60461240791483 116.49692716589198,189.59486141780508 118.22048672055826,188.74045505878166 118.8184563620016,188.11906765130698 119.6626487969188,187.65302656282438 119.83852222096175,187.5365162192611 121.13998555811122,186.5267587128037 121.91382862336468,186.09955296831322 121.66760583000723,183.65282176347682 121.49173240596429,182.5265444368124 121.38620835158508,179.6137458734156 121.66760583000723,177.0116307300632 121.98417799314484,176.0406885947741 121.52690709079616,175.92417540532188 121.38620835158508,173.86577101540752 121.56208177562803,171.10827192125726 121.70278051472269,170.05964130701614 122.08970204740763,167.84585796887404 122.44144889526069,165.3601942139794 122.12487673212308,165.20483979777782 119.83852222096175,165.5543871629925 119.20537789480295,165.86509571620263 119.02950447076,165.12716257062857 119.87369690579362,164.23387354577426 119.1350285251392,163.96200263977516 118.95915510132909,163.84548648953205 119.20537789480295,162.75800104392692 118.9239804163808,162.52496812466416 118.85363104694989,162.44729045961867 118.39636014448479,162.44729045961867 118.11496266617905,162.48612929377123 117.7632158184424,162.44729045961867 117.37629428587388,161.74819090217352 117.69286644901149,161.70935200777603 117.13007149216719,157.86428574752063 117.16524617711548,157.86428574752063 117.16524617711548,157.67008965657442 117.20042086171452,157.90312495612307 117.30594491621014,157.9419641615532 118.11496266617905,156.31071479900857 117.8687398728216,160.5441836984537 118.0797879814636,162.56380695253029 117.13007149216719,157.86428574752063 117.16524617711548,157.86428574752063 116.32105374196544,157.9808033638983 116.67280059005134,159.1071388500568 117.23559554654639,157.90312495612307 117.13007149216719,159.57320792568498 117.69286644901149,160.8937344912556 117.6576917640632,161.28212395936134" stroke="#00AFAA" stroke-linecap="round" stroke-linejoin="round" stroke-width="1"><title>2025-09-12 11.5km</title><desc>15784793735</desc></polyline></svg>