<?xml version="1.0" encoding="utf-8" ?>
<svg baseProfile="full" height="300mm" version="1.1" viewBox="0,0,200,300" width="200mm" xmlns="http://www.w3.org/2000/svg" xmlns:ev="http://www.w3.org/2001/xml-events" xmlns:xlink="http://www.w3.org/1999/xlink"><defs /><rect fill="#222222" height="300" width="200" x="0" y="0" /><text fill="#FFFFFF" style="font-size:12px; font-family:Arial; font-weight:bold;" x="10" y="20">超过10公里的活动</text><text fill="#FFFFFF" style="font-size:4px; font-family:Arial" x="10" y="280">ATHLETE</text><text fill="#FFFFFF" style="font-size:9px; font-family:Arial" x="10" y="290">Feng Siyuan</text><text fill="#FFFFFF" style="font-size:4px; font-family:Arial" x="120" y="280">STATISTICS</text><text fill="#FFFFFF" style="font-size:3px; font-family:Arial" x="120" y="285">Number: 24</text><text fill="#FFFFFF" style="font-size:3px; font-family:Arial" x="120" y="290">Weekly: 1.1</text><text fill="#FFFFFF" style="font-size:3px; font-family:Arial" x="141" y="285">Total: 317.3 km</text><text fill="#FFFFFF" style="font-size:3px; font-family:Arial" x="141" y="290">Avg: 13.2 km</text><text fill="#FFFFFF" style="font-size:3px; font-family:Arial" x="167" y="285">Min: 10.0 km</text><text fill="#FFFFFF" style="font-size:3px; font-family:Arial" x="167" y="290">Max: 21.3 km</text><polyline fill="none" points="44.54120187117951,51.614286694908515 43.33645196107682,53.45228968252195 43.29758906085044,54.448451935633784 47.97409139981028,56.5810637207469 48.0,57.030031624177354 47.08024469233351,58.09632621477067 45.072328175534494,59.86411744324141 44.865059373900294,59.779937275190605 44.54120187117951,59.97635761022684 38.543360921146814,65.41992747779295 35.81000359839527,67.11750425018545 35.0586541921366,67.04735674495168 34.46275638719089,66.20558469661046 33.89276718243491,62.866519464121666 33.439366678649094,61.85637071898964 32.48074847063981,60.52352749113925 31.22418136021588,59.42918618036492 30.278517452301458,58.88201320139342 26.48290752072353,57.464968286061776 24.500899604172446,56.28642796732311 22.544800287869293,54.77115128262085 21.132781576132402,53.29795422611642 19.43576826195931,50.4778028181463 18.606693055015057,48.10659888599184 15.044260525377467,43.67279037568369 13.023389708483592,41.83469435315055 12.349766102910507,40.29124143597437 12.0,36.89560160624387 13.489744512422476,35.89934884230024 13.826556315179914,35.98353941550886 13.891327815770637,35.63274511838972 17.013314141717274,33.44377431196335 18.114429650944658,32.88249574981455 21.003238575009163,36.72722121828701 20.990284274914302,37.007855116709834 22.713206189277116,36.83947482657095 23.25728679378517,37.078013527585426 23.464555595535785,38.06022860428493 24.267722202232108,39.35113225207897 25.44656351208687,40.41752441058634 25.887009715719614,40.515744444928714 26.21086721838219,41.091032214375446 29.242173443664797,44.03760124670225 31.76826196478214,45.27234062169737 33.12846347608138,45.45474463311257 34.100035984185524,45.88970734993927 34.79956819000654,45.7213348015066 35.265922993887216,46.08614180430595 36.54839870455908,46.310638078983175 39.67038503056392,47.5734247637738 39.968333933036774,47.53133200726006 40.44764303707052,47.98032093734946 43.38826916157268,49.08875789119338 43.699172364140395,49.411466188932536 45.370277078065556,50.0709119039675 45.40913997835014,50.6461712216842 44.100755667546764,52.59642787089979 42.13170205109054,51.979082571560866 41.898524649091996,51.82474593858933 41.93738754943479,51.60025607049465 43.11622885928955,49.53774320217781 43.51781216263771,49.53774320217781 45.26664267719025,50.3094342679251 45.42209427850321,50.618109831251786 44.28211586904945,52.35790832994098 43.99712126661325,52.51224453712348 43.1680460597272,52.371938899334054 42.041021950368304,51.83877654666139 42.041021950368304,51.54413356275472 43.23281756025972,49.495650873621344 45.20187117671594,50.449741403295775 45.34436847787583,50.67423260801297 45.18891687656287,50.95484624709934" stroke="#4dd2ff" stroke-linecap="round" stroke-linejoin="round" stroke-width="0.5"><title>2023-05-11 10.2km</title><desc>1683811970000</desc></polyline><polyline fill="none" points="86.30812324926956,52.43381268582016 85.89355742302723,52.894954921110184 85.60224089637632,53.610936396886245 86.14005602244288,54.10848103991884 89.81512605043827,55.686051822965965 89.42296918766806,56.52337180558243 87.42857142857974,58.41642761039839 86.87955182074802,58.57418129313737 81.96078431373462,63.02762768836692 79.45098039216828,64.71432437030307 79.02521008404437,64.84780323729501 78.6890756302164,64.75072770821862 78.14005602244288,64.01052494574105 77.85994397755712,61.644281018932816 77.52380952384556,60.722043547197245 76.28011204482755,58.950362551244325 75.43977591040311,58.197999188516405 74.44257703080075,57.62765696361021 71.40616246504942,56.55977692702436 69.29971988796024,55.285592957312474 67.69747899158392,53.98712882451946 66.54341736697825,52.785737138285185 65.19887955184095,50.48001173148805 64.5266106443014,48.404831667241524 61.43417366949143,44.58206409025297 59.63025210087653,42.91943629866 59.0812324929866,41.81505394948181 58.66666666668607,38.70818093234266 62.47619047621265,36.01389270853542 63.977591036469676,35.15219676270499 66.7226890756283,38.61109021955053 68.47058823530097,38.74458993507142 68.68347338936292,38.538272147925454 70.07282913167728,38.36836319071881 70.94677871151362,37.84649888447893 72.4593837535358,39.50917715977994 72.68347338936292,39.43635947961593 73.16526610642904,39.71549374789174 74.21848739497364,40.90484322907287 75.30532212887192,41.83932616749371 77.26610644260654,42.88302820570243 79.76470588234952,43.84177200727572 84.51540616247803,44.98254860407906 84.8515406162478,45.21313016148633 85.07563025207492,45.01895623955352 85.3781512605492,45.055363867097185 90.01680672273505,46.62088434751786 94.11764705879614,47.73737061404972 94.66666666668607,48.22279709893337 94.58823529415531,48.853849421284394 93.12044817931019,50.77126301180397 92.43697478994727,52.30032390654378 90.67787114845123,54.4118611930171 89.49019607843366,54.59388902052888 88.73949579830514,55.055025296416716 86.12885154061951,53.877911755334935 85.89355742302723,53.58666588856431 86.52100840338971,52.5673013584601 86.36414565826999,52.203241091032396" stroke="#4dd2ff" stroke-linecap="round" stroke-linejoin="round" stroke-width="0.5"><title>2023-04-13 10.3km</title><desc>1681388663000</desc></polyline><polyline fill="none" points="132.82939632539637,50.878587325903936 132.1944356955355,51.88559208140941 132.43254593177699,52.45049456322158 135.32388451439328,53.64169578696601 136.41238845139742,54.206592404079856 136.50309711281443,54.46447936297045 134.5982152230572,56.3679185663932 134.1786876639817,56.71176336442295 133.79317585297395,56.76088399279979 127.99916010495508,62.01670882701001 125.84482939628651,63.30608016702172 125.22120734903729,63.26924112222332 124.65427821519552,62.458780107539496 124.41616797895404,60.53084966885217 124.07601049862569,59.40109678306908 123.08955380570842,57.74329356531962 121.12797900260193,56.19599590532016 116.71727034117794,54.35395642874937 116.56986876635347,54.09606930136215 114.77837270341115,52.95399301122234 113.2249868765939,51.517176402921905 111.47884514433099,48.741752497749985 111.08199475059519,47.10840652164188 110.821207349014,46.666295123577584 107.68041994748637,42.79777108543203 105.92293963255361,41.21349284036842 105.33333333331393,39.985359955899185 105.33333333331393,39.53094852765207 108.83695538050961,36.69391983296373 108.82561679783976,36.853580720722675 109.08640419942094,36.718483056276455 109.25648293958511,36.829017517040484 110.58309711283073,38.487025755996 110.0048293962609,39.39585300262843 110.3563254592591,39.64148114962154 111.43349081359338,38.41333684620622 113.23632545926375,36.96411509311292 114.58561679784907,36.9027071173914 114.71034120733384,37.14833888657449 114.57427821517922,37.123775725704036 114.59695538051892,37.47994120886142 114.89175853010966,37.83610594164929 114.99380577425472,38.327366410871036 115.70813648292096,39.285320220093126 116.58120734902332,40.08361091493862 117.20482939633075,39.85026479397493 119.14372703409754,37.602756718726596 121.95569553802488,40.25554995588027 122.87412073486485,40.80820997468254 124.4955380577012,41.459118346800096 126.28703412070172,42.08546177313838 126.5704986876226,42.0363368823746 131.19664041994838,43.28901713869709 131.4460892388015,43.47323404074996 131.7975853017997,43.27673600475828 135.16514435689896,44.271504963879124 135.49396325455746,44.54168811503041 136.31034120731056,44.725903652448324 136.5371128608822,44.97152405678935 137.0700262466562,44.946962032379815 140.6643569553853,46.003125859293505 141.25396325456677,46.371553549397504 141.33333333331393,47.07156394931371 139.68923884513788,49.183858470307314 139.04293963249074,50.71893967995129 137.3988451443147,52.806627766927704 135.8794750656234,52.97855387275922 135.3919160104706,53.4452095648885 135.22183727030642,53.40836837288225 132.50057742773788,52.11892159607669 133.12419947504532,51.01367367788043" stroke="#4dd2ff" stroke-linecap="round" stroke-linejoin="round" stroke-width="0.5"><title>2023-04-11 10.4km</title><desc>1681217954000</desc></polyline><polyline fill="none" points="157.84340659342706,58.54918647737941 156.37225274725643,59.48180068831425 155.91071428572468,59.58889423864093 153.28983516484732,59.24083951881039 152.0,59.22745275950365 153.2939560439554,59.2453017712578 156.01785714285506,59.66028983533761 155.10714285714494,60.57950074625114 154.16346153846825,61.37375931405768 156.14560439559864,59.65136539028026 158.21428571428987,58.35284484277145 158.31318681318953,58.38854336838267 159.2321428571595,59.86555171454893 159.40934065934562,59.91017377163007 161.04120879121183,58.18773889248405 161.14423076924868,58.18773889248405 161.2060439560446,57.99585844781177 160.88049450548715,57.59870865011908 160.7733516483422,57.57639678768828 159.3969780219777,58.794612639820116 159.64010989012604,58.50010112745076 162.33104395605915,56.18412057014575 162.46703296703345,56.13057085575929 162.66071428573923,56.335844507837464 162.8049450549588,56.34476943370828 164.05357142857974,55.25145638187314 164.05769230770238,55.139892733215675 163.61675824175472,54.617772168792726 163.57967032966553,54.48389438725644 164.09890109889966,53.29236929651961 163.85164835164323,52.88180099771489 164.08241758242366,52.48908093029968 165.13324175824528,51.288591540527705 165.37225274727098,51.15470651314172 165.50000000001455,50.95387842559285 166.75686813188076,49.8336919511421 166.97527472526417,49.726581418661226 168.06318681320408,48.682243949515396 169.0315934065875,47.923526117316214 169.7939560439554,47.111241354894446 170.37912087912264,46.24092434281556 170.82829670330102,45.76782377210475 171.1291208791372,45.84816186150056 171.57417582419293,46.07578587799071 171.58241758242366,46.23199795065011 171.092032967048,46.7675791862348 170.35027472527872,47.3254713451679 170.32967032968008,47.508458870732284 170.64697802199225,47.88782151808846 170.3543956044159,47.508458870732284 170.35851648350945,47.32100822798384 171.11263736264664,46.76311602854912 172.29120879122638,45.68302234159273 172.53021978023753,45.366131750120985 172.63736263736791,45.38398478460658 173.0,45.94188949977979 173.5480769230926,46.49086279711628 175.22115384615608,44.69217590539847 175.7239010989142,44.826075005814346 177.01785714286962,44.8617813833298 177.43406593408145,44.835001602146804 177.8708791208919,44.69663921344181 178.28296703296655,44.71895574881637 178.7774725274794,45.00460668597225 179.76236263738247,45.20545420633789 180.29807692307804,45.63838996276172 180.7184065934125,45.709801753346255 181.6456043956132,46.008837725345074 182.06593406594766,46.053469835216674 182.67582417585072,46.53549455702523 182.8489010989142,46.52210503245078 183.06730769232672,46.31233543344206 183.4299450549588,46.249850733674975 183.95741758242366,46.44623100480021 184.40659340660204,46.47301008407885 184.67032967034902,46.58012628453071 184.86401098901115,46.76311602854912 185.68818681318953,46.856842271870846 185.80357142857974,46.70509494917496 185.7706043956132,46.2900194765316 185.83653846156085,46.00437451257676 185.54807692307804,45.76782377210475 185.3049450549588,45.263476701155014 184.9299450549588,44.951047236376326 184.8516483516578,44.11194309955681 184.94642857144936,43.629899372153886 185.4285714285652,43.076437096708105 185.4574175824382,42.83094820142651 184.70329670330102,41.978424603563326 184.41483516486187,41.38477553171106 184.31181318681047,40.737557602577 184.4189560439554,40.22424198351291 184.70329670330102,39.69753106429562 185.18956043958315,39.16635192001195 185.7706043956132,38.80479037965051 186.20741758242366,38.65302317307578 186.5,38.62624068594232 187.00274725274357,38.782471696325956 188.0,39.64843066375761 187.05219780220068,38.85835518657768 186.45879120880272,38.68426939331766 186.16208791210374,38.69766062569761 185.79532967033447,38.822645320487936 185.0494505494571,39.32704525491499 184.57967032968008,39.943032478302484 184.4189560439554,40.326905450416234 184.36538461540476,40.64382202697743 184.3818681318662,41.0455449155852 184.50961538462434,41.51868183830811 184.7321428571595,41.938253042771976 185.01236263738247,42.25962479377995" stroke="#ff0200" stroke-linecap="round" stroke-linejoin="round" stroke-width="0.5"><title>2023-03-26 21.2km</title><desc>1679787518000</desc></polyline><polyline fill="none" points="36.10322287582676,104.13813568559999 37.02737018823973,104.20588947845317 36.998490584723186,106.9472586283373 38.0862889837299,107.3902457367476 39.010436296171974,108.0 43.49640137524693,103.92966207640347 43.77075760861044,103.60652678763654 43.8766494881711,103.35635653443751 39.87682440158096,99.29096790513358 39.23665985700791,98.82186980638653 38.37989828613354,97.89408899528644 37.739733741560485,97.03926910745577 36.444964850728866,95.73617044543425 35.737414564646315,95.2201368434362 33.9083730088023,93.55733669223264 30.79418909663218,91.30545820836778 29.61493861983763,90.29417499373812 28.39718200499192,88.9492505141825 27.275690735230455,87.89623004739042 26.770297673734603,87.52610532474864 25.321504230814753,86.78585015616773 23.940096529433504,85.74843746557599 23.18922683809069,84.87262010812628 22.106241706351284,83.80389993087738 20.888485091534676,82.19818311980634 20.10392252940801,80.84267992935202 16.95123247918673,73.75715230197966 16.48434555574204,72.92290138347016 16.128163779096212,72.0 16.123350511828903,72.16163895323552 16.455465952225495,73.07411008241252 16.912726341193775,73.88228910288672 17.962018602178432,76.45797310010676 18.977617992379237,78.49134251867144 19.90657857208862,80.74362292320802 20.37346549553331,81.62470412496987 21.422757756517967,83.1365934101741 22.250639723904897,84.06977814459242 23.25179931236198,85.0446565036691 23.89677712417324,85.81620860147086 25.518848188163247,86.99437351093366 27.049467174394522,87.85973896232099 28.14689210790675,88.88148233515312 29.176931299851276,90.01789411342907 30.85676157087437,91.50354294367935 33.86505360354204,93.6720138002238 35.36197971898946,95.03248734203225 35.50637773654307,95.07939976332273 36.49791079049464,96.01242933558751 38.0862889837299,97.63347425323082 38.432844225899316,98.11821691759542 39.77574578925851,99.44212108476495 39.82387846178608,99.67666849283705 39.58802836644463,99.98939717971007 37.89857156088692,101.55302020656745 37.10919573152205,102.38172662173383 37.022556921001524,104.09122917623245 36.03102386702085,104.08601733996693" stroke="#ff0200" stroke-linecap="round" stroke-linejoin="round" stroke-width="0.5"><title>2023-03-19 21.2km</title><desc>1679182961000</desc></polyline><polyline fill="none" points="68.01818557555089,80.88121806483832 68.31948749744333,80.86913148597523 72.1471378384158,82.63376270879235 72.25873114285059,82.92383728390269 70.51787559420336,85.75203790262458 69.33498656749725,87.15403407221311 67.7057243232266,88.62853454731521 67.22587311430834,88.74939466295473 63.889233312685974,91.77086904257885 64.43604050425347,92.0730134650803 64.17937590414658,92.47184326332354 58.67782599711791,97.25772633965244 58.66666666668607,97.78948263634811 60.474478197982535,99.85606485120661 61.858235172578134,98.61128448274394 62.628228972957004,97.66862908162875 63.98966728668893,96.75013919991034 64.23517255630577,96.2667214380781 65.90907212236198,94.76811745898158 68.83281669765711,92.45975752589584 69.71440380247077,91.51706730396836 70.71874354209285,90.97320513294835 72.62698904733406,89.2570061906008 72.45959909079829,88.76148066969472 71.7119239512831,87.81876950948208 71.90163256874075,87.73416696483037 72.03554453403922,87.25072302803164 73.65364744781982,86.03002084013133 73.8768340566312,85.46196825552033 77.0795618930133,82.70628139993642 77.69332506717183,81.79979548961273 78.0615829717135,82.05361204210203 78.8650547634461,83.3952073903929 80.47199834679486,85.12355302847573 84.95804918376962,80.14393514880794 86.46455879317364,80.61531312737498 88.16077702009352,80.74826564919204 89.8569952470134,80.55488012780552 92.64682785701007,80.65157291658397 94.66666666668607,81.70310336783587 93.58421161398292,81.02625694259768 92.5129158917116,80.63948632107349 88.46207894198596,80.60322652921604 88.09382103744429,80.74826564919204 87.89295308949659,80.65157291658397 87.61396982846782,80.88121806483832 84.79065922717564,80.53070692182519 83.11675966111943,82.33160115551436 82.40256251295796,82.8271458150266 80.47199834679486,85.01477655940107 79.22215333749773,83.74571250175359 77.81607770203846,81.79979548961273 75.41682165744714,84.2654256188689 74.6579871874419,83.7094533865311 73.07336226495681,83.11722005318734 73.14031824760605,82.81505937744805 72.92829096922651,82.57333044199913 68.41992147144629,80.61531312737498 68.24137218436226,80.78452540944272 67.83963628852507,80.76035223684448 67.50485637533711,81.26798812470224" stroke="#4dd2ff" stroke-linecap="round" stroke-linejoin="round" stroke-width="0.5"><title>2023-02-28 10.2km</title><desc>1677590638000</desc></polyline><polyline fill="none" points="135.31268515536794,72.0 134.29085296724224,73.38929142733105 134.377817408822,73.8484614007175 137.54114896984538,75.15532267038361 138.37818171968684,75.80286264080496 137.58463119057706,76.6270006820414 137.1171973173041,77.46290784578014 136.59541066811653,77.78078690411348 136.10623568441952,77.65128069627099 136.0953651291784,77.82788004494796 134.50826407113345,79.39371919191035 133.4103379966691,80.33557004448085 132.46459969494026,80.90067793089838 131.7797547178343,81.79542805800156 129.87740755913546,83.3141373704857 128.29030650103232,84.32660234643845 127.59459096874343,84.46787602675613 127.37717986491043,84.83283246480278 126.13793657295173,85.18601533284527 125.75746714120032,85.89237876221887 125.86617269308772,86.70469290399342 125.6922438100446,87.29332379857078 123.07244000869105,90.54252790789178 123.28985111252405,90.86038133774127 122.44194780749967,91.47254174464615 122.52891224902123,91.73153199082299 121.93103171343682,92.61445017794904 121.9745139342267,92.95584392242017 121.69187949917978,93.22660396770516 121.52882117131958,93.7563505757862 120.55047120398376,94.33318380451237 119.26774569129338,95.87531971547287 118.45245405187597,96.45214541265159 117.25669298064895,97.77059645068948 116.68055355548859,98.1119793488615 115.40869859798113,99.87774149797042 114.1585847507813,100.72530050648493 112.74541257583769,101.21970788437466 111.49529872863786,102.00840225099819 108.28848494694103,105.51628002585494 109.85384489462012,108.0 110.07125599845313,107.95291561445629 113.74550365353934,104.46863319264958 119.0068523666705,100.03077331301756 119.03946403227746,99.43041690363316 117.83283240592573,98.51222045294708 117.4414924189914,97.99426118921838 117.52845686051296,97.77059645068948 118.81118237320334,96.32265410808031 121.44185672979802,93.89761604586965 122.09409004129702,93.05002138073905 122.7789350184612,91.71975971586653 122.90938168077264,91.74330426490633 123.82250831695274,90.41303188756865 126.43144156312337,87.34041417790286 127.26847431296483,87.03432646805595 127.44240319600794,86.44569463375956 132.80158690596,81.73656306976045 132.87768079224043,81.50110290305747 132.7037519091973,81.63060603702615 132.3232824774459,81.24209632488783 132.66026968840742,80.85358568224183 135.7801190286409,78.1693049070891 136.17145901557524,78.03979900949344 136.32364678825252,77.7101471672213 136.82369232713245,77.32162806432461 137.09545620693825,76.75650770775974 137.0084917654167,76.59168056619819 137.31286731077125,76.61522731096193 138.2042528365273,75.84995635600353 138.1499000606127,75.48497970569588 136.44322289538104,74.55487420562713 134.45391129510244,73.74249921456794 134.79089850612218,72.48272125209041" stroke="#4dd2ff" stroke-linecap="round" stroke-linejoin="round" stroke-width="0.5"><title>2022-12-21 10.1km</title><desc>1671615770000</desc></polyline><polyline fill="none" points="179.08969074505148,75.33054727125273 180.75752390932757,76.01922780662426 181.60186444874853,75.95148887281539 182.03967065433972,76.17728520411765 182.42535707360366,76.69661552188336 183.0299465956632,77.10304673473001 182.4670529026771,77.44173860071169 182.37323728716,77.8933266078966 181.96670295338845,78.19814777148713 181.71652797877323,78.01751307999075 181.5705925769289,77.4530283168715 181.83119150879793,76.88854150475527 182.60256434726762,77.29497221601196 182.72765183460433,77.59979455239954 182.48790081724292,78.02880275435746 180.997274926689,79.27066193109204 180.61158850748325,79.31582025974058 179.48580112162745,80.61411660154408 178.56849288131343,81.18987933652534 176.71302848606138,82.99617996744928 175.4100338264834,83.95576864598843 173.42948194395285,85.28789370447339 172.75192472100025,85.41207427272457 172.4913257890148,85.88621734871413 171.82419252331601,86.1119992579188 171.365538403159,86.05555381134036 171.0006998985191,86.76676494156709 171.16748321492923,87.57957368054485 171.0006998985191,88.06499909644481 170.13551144459052,89.29548929524026 168.48852619488025,91.16942815000948 169.46837817889173,91.90319323942822 169.29117090516957,92.35473926686973 168.35301475028973,92.81757258507423 167.79012105736183,92.79499538197706 167.83181688643526,93.11107592721237 167.0917159198434,93.65292679674167 166.77899720153073,94.34152622097463 165.58024211472366,95.21073753683595 164.77759740443435,96.30571111536119 163.64138606126653,97.36681218123704 163.62053814675892,97.66030694340589 163.47460274485638,97.52484789116716 163.06806841108482,97.73932466944098 162.9221330091823,98.08925983104564 161.2647238022182,99.77119527383184 160.9103092548321,100.39203933440149 157.05344506254187,102.40129950009577 154.3953359570587,105.40385343339585 154.33279221336124,105.92308621013945 155.70875457383227,108.0 156.32376805320382,107.67266216588905 156.56351907056523,107.30017344850057 158.51279908127617,105.79892200801987 159.14866047509713,105.05393471571733 159.81579374085413,104.74916615948314 159.909609356313,104.35409492076724 164.21470371150644,100.5613600120414 164.55869430163875,100.33559906759183 164.97565259266412,100.35817517677788 165.277947353723,100.80969667270256 165.53854628559202,100.80969667270256 168.61361368221696,98.22471839202626 168.6448855540366,97.99895405818825 167.61291378363967,96.77982099635119 167.73800127097638,96.47503623868397 167.66503357008332,96.09123236137384 167.96732833102578,95.35748702021374 167.80054501461564,95.19944910929189 168.71785325492965,93.25782739069837 168.29047100659227,92.97561291503371 168.11326373292832,92.36602790075995 171.52189776237356,88.34722247920581 171.73037690785713,88.16659957320371 172.31411851535086,88.13273275498068 172.62683723366354,87.31992690610059 178.83951577043626,81.78821874390997 182.0083987825201,79.21421400184045 182.55044456094038,78.98842207985581 182.9152830655803,77.94977501660469 183.30096948478604,77.81429880129872 183.75962360494304,76.84338247127016 184.41633291338803,76.23373423572048 185.66720778658055,74.40477518843545 185.41703281190712,73.72737748954387 183.30096948478604,72.7112754080008 182.38366124447202,72.4741839668568 181.62271236331435,72.0 181.17448220041115,72.1693515827501 180.75752390932757,72.91449635550089 180.69498016568832,72.8241759671946" stroke="#4dd2ff" stroke-linecap="round" stroke-linejoin="round" stroke-width="0.5"><title>2022-12-08 11.0km</title><desc>1670501705000</desc></polyline><polyline fill="none" points="31.085043642495293,112.39792181282246 25.36231346341083,112.77689440503309 26.219847955100704,114.7664915050409 26.027340212080162,120.77308807767986 26.23734865890583,127.08270817900484 26.464857809827663,127.51850214730075 26.18484654725762,129.14798620594956 26.42985640198458,136.91631720599253 26.272350066748913,139.17098472928046 25.18730642425362,143.03608386215637 25.99233880417887,143.77499337340123 28.617444391013123,144.87388058323995 32.31009291630471,145.78330099185405 34.53268231311813,145.63173114322126 34.81269357568817,143.56658320968563 34.51518160919659,139.79622522393765 34.655187240452506,134.92688855265442 34.42767808958888,134.60478915758722 34.77769216784509,131.9711380522931 34.550183016981464,130.45535561307042 34.830194279609714,127.53744969468971 34.53268231311813,123.08473833126482 34.725190056080464,122.04260345056537 34.42767808958888,115.50548085889022 34.58518442482455,113.21271220718336 34.32267386611784,112.07579467771575 25.379814167274162,112.30317857894988 26.16734584333608,114.27383077582635 26.132344435492996,123.53948679630412 26.49985921761254,125.07425702986075 26.25484936288558,126.76059912714118 26.622364145005122,127.82166274056362 26.25484936288558,129.6974611004407 26.464857809827663,137.7689248559618 26.307351474591997,139.45518513928982 25.34481275943108,142.3350652179506 25.11730360862566,144.13497417440522 25.239808535960037,144.76020280995 26.919876111554913,145.61278490592667 32.46759925154038,147.2421562972595 33.43013796664309,148.0 34.462679497373756,147.05269502870215 34.51518160919659,144.98755830715527 34.847694983531255,143.8886715746048 34.462679497373756,140.36462437732553 34.74269076006021,139.01941105107835 34.86519568739459,132.1037685979536 34.63768653658917,128.8448271494708 34.88269639131613,128.5795626869367 34.63768653658917,128.1058754777623 34.847694983531255,124.73319775611162 34.550183016981464,122.78157224869938 34.79519287182484,121.13310052567977 34.58518442482455,119.74989209912019 34.58518442482455,112.36002452338289 34.1301661230973,112.0 30.45501830172725,112.18948665300559" stroke="#4dd2ff" stroke-linecap="round" stroke-linejoin="round" stroke-width="0.5"><title>2021-04-24 10.1km</title><desc>1619264039000</desc></polyline><polyline fill="none" points="67.67249065218493,145.75899199062405 70.7568158917129,144.79964190796454 71.27441529970383,144.73824320742278 73.14628165197792,148.0 73.465349780221,147.84650780996162 75.00396719851415,146.46506811219297 75.11741364409681,146.28087479414535 75.11032324124244,146.04295795195503 75.7271882891655,144.99151261816587 76.41495736557408,143.91703217344912 76.79783911941922,143.67911003254994 76.7765679108852,143.28768857572868 77.98193639528472,141.23845856184926 78.30809492635308,140.96215485840366 75.52156660653418,138.52144089752983 74.47218698481447,137.4085180963084 74.45091577625135,137.2473352055531 78.72642869447009,132.70341199823451 80.83227834073477,130.83052213596238 81.20806969175464,130.22412857662857 81.51295701428899,129.3874532898044 81.6405842655513,128.60450346469588 81.69021708553191,126.79295033572271 81.77530191972619,126.9771774912806 82.04473722798866,127.13837598982354 83.74643391184509,127.79851966531714 84.6894574908365,127.967392968676 85.48358260997338,127.9136605831518 85.63248106982792,127.00788198607916 85.54739623560454,124.83551703946432 85.6112098612648,123.63801061788399 85.51903462418704,123.62265788362129 85.63957147265319,119.891877542781 85.56157704128418,116.85188535754423 85.40558817863348,116.70602495434287 85.41267858145875,114.96336145147507 85.27796092731296,114.57183399055793 85.38431697007036,113.08248101884965 84.72490950507927,112.16889847580751 84.38457016830216,112.00767720927979 82.35671495337738,112.09980367733078 80.86773035500664,113.30511758767534 77.23744409607025,116.64460998764844 77.0672744277108,116.65228686044429 76.8829239536426,116.89026964079676 77.02473201058456,118.87087979122589 76.93255677356501,120.03005693400337 77.05309362200205,121.3120460311402 77.05309362200205,123.77618512607296 77.40052336163353,124.16767858797539 79.01713521129568,125.46497011975589 79.21566649107262,125.49567505246523 79.8254411361122,126.12512421361316 80.47066779542365,126.50893284381164 81.69730748838629,127.52218095241551 83.05157443258213,128.14394204373093 84.5831014480791,128.52774336677976 85.02979682761361,128.86548738201236 85.4268593871675,128.56612342269364 85.61830026409007,127.184432658687 85.59702905555605,123.49215955274849 85.5048538185074,122.87804760368454 85.6608426811872,120.87448263310216 85.6112098612648,118.68663854794431 85.39849777575,118.49472024558781 85.29214173305081,117.48138584748813 85.34177455297322,114.93265346760745 85.25668971877894,114.4336474824886 85.40558817863348,113.09015814968734 84.7178191022249,112.16122127819108 84.37038936259341,112.0 82.39216696762014,112.06909486355289 79.1164008511696,114.86356047135632 77.24453449895373,116.63693311432144 77.07436483053607,116.65996373267262 76.90419516214752,116.86723907250416 77.02473201058456,118.91694005200407 76.8829239536426,119.99167378785205 76.9609183849825,121.10477938351687 77.0672744277108,121.37345829333208 77.0672744277108,123.72245061650756 77.33670973597327,124.09091527802957 79.05967762839282,125.45729388519976 79.17312407397549,125.41891270401538 80.25795570996706,126.4091427336025 81.71148829406593,127.5068287805916 82.56942703883396,127.94436480676814 84.60437265664223,128.5354193790772 85.09361045321566,128.8578113936237 85.46231140141026,128.4663352484422 85.61830026409007,127.13069987640483 85.53321542989579,122.86269475938752 85.63248106982792,120.61347904439026 85.57575784702203,116.83653164034331 85.34177455297322,116.69834808544692 85.28505133019644,116.30682703477942 85.24959931592457,114.28778375068214 81.75403071116307,114.37223119882401 82.0872796450858,114.48738670147577 84.75327111646766,114.4413245154501 85.23541851024493,114.59486505771201" stroke="#ff0000" stroke-linecap="round" stroke-linejoin="round" stroke-width="0.5"><title>2020-11-16 21.3km</title><desc>1605522700000</desc></polyline><polyline fill="none" points="131.89336693141377,116.8277907428128 132.09119881904917,114.32328410667833 130.5237615557271,112.2142044925422 128.9258886174648,112.0 125.74536057829391,112.18124996834376 121.65176228882046,115.55906385455455 113.96675434737699,122.47930635258672 114.33198244759114,130.04190202437167 114.22545758500928,135.5942359669425 114.51459649764001,137.65367256446916 124.23879466508515,145.2981382142898 126.04971732845297,146.23720356922422 131.63466369383968,148.0 132.25859503162792,147.3410122780915 132.31946638168301,145.44641194900032 132.59338745678542,144.45791855965217 132.54773394425865,141.344136319065 132.2433771940996,139.74604105832987 132.47164475679165,136.6816208131495 132.16728800657438,135.52833368805295 132.48686259426177,134.35856506098935 132.31946638168301,133.4029749587644 132.5172982692602,132.20024378047674 132.3042485441547,131.35997575991496 132.53251610678853,129.79476234879985 132.36511989415158,117.42095932735538 132.2433771940996,116.9925599492417 131.80205990641844,116.8277907428128 132.03032746899407,114.174990085623 130.75202911836095,112.42840878332208 130.1128799431026,112.03295455045009 125.63883571582846,112.14829543940141 113.92110083485022,122.47930635258672 114.19502191001084,126.86201770159823 113.96675434737699,131.27759637517738 114.17980407248251,131.92015478511166 114.3015467725345,137.35711484322383 116.7668364487472,139.51538720731332 118.54732343717478,140.84988125161908 119.03429423744092,140.93225717078894 119.97780016285833,142.00314140575938 124.26923034002539,145.31461307845893 126.23233137856005,146.28662795420678 131.63466369383968,147.96705065925198 132.22815935662948,147.30806284188293 132.25859503162792,145.52878620428964 132.53251610678853,144.57324300963955 132.19772368157282,139.21883191243978 132.48686259426177,134.09495439917373 132.28903070656816,131.59063787850027 132.53251610678853,130.9316026335 132.48686259426177,126.58192213377333 132.28903070656816,126.31830246074242 132.48686259426177,126.05468248220859 132.441209081735,123.138366085288 132.3042485441547,122.46282983476704 131.93902044405695,122.08386959631753 131.6498815313098,119.59589756789501 132.03032746899407,114.15851296622714 130.7215934433625,112.42840878332208 130.0520085929893,112.0 126.38450975366868,112.01647727579984 125.16708275303245,112.34602254150377 123.0061498269788,114.50453222327633 122.27569362655049,114.89998215806554 122.12351525150007,115.2460002868902 113.86022948479513,122.46282983476704 114.16458623495419,126.84554150127224 113.99719002237543,128.4931556268566 114.16458623495419,134.5397972138162 114.42328947258648,137.43949202676595 116.2342121360125,139.1035047489422 124.28444817761192,145.33108794146392 126.88669839140493,146.53374971840822 131.5737923437846,147.95057598706626 132.27381286915625,147.45633526715392 132.16728800657438,146.68202264812135 132.5781696193153,144.5073433311045 132.3042485441547,141.14643442089437 132.5172982692602,141.04758340746048 132.3042485441547,139.3671096081962 132.50208043173188,136.07202691822022 132.25859503162792,135.2811999721307 132.5172982692602,134.07847872267303 132.33468421921134,132.01900976402976 132.54773394425865,131.73892054554017 132.441209081735,131.34349988534814 132.68469448189717,131.19521696057927 132.47164475679165,122.66054796944081 131.83249558141688,121.5566195185529 131.7868420688901,116.97608303399466 132.3042485441547,116.860744593665 132.45642691920511,117.02551377624332 132.74556583189406,130.7009398467053 132.6999123193673,131.49178271349228 132.3042485441547,131.26112049462972 132.47164475679165,130.81627126933017 132.80643718189094,130.71741576783825 132.45642691920511,129.41581432477687 132.60860529431375,124.14342850103276 132.39555556920823,123.45141878935101 132.53251610678853,123.12188961524225 132.3042485441547,120.32087235944346 132.45642691920511,118.04708004368877 132.3803377316799,117.23971353512025 131.87814909394365,116.92665228102123" stroke="#ff0900" stroke-linecap="round" stroke-linejoin="round" stroke-width="0.5"><title>2020-11-05 20.9km</title><desc>1604579239000</desc></polyline><polyline fill="none" points="178.55089935060823,117.00319201716047 178.80496506940108,114.40704712783918 177.13765878940467,112.34386537039245 176.58189002942527,112.13754620797408 172.15161905664718,112.32667211370426 164.9266251765075,118.43019995896611 160.76629903010326,122.31574435737275 160.52811241860036,122.81432730774395 160.84569456719328,127.74852279298648 160.67102438549045,129.02073774850578 160.76629903010326,135.51924291234172 161.17915582325077,136.89456511281605 160.8774527820642,137.99481713691785 163.54514283017488,139.79990706960962 165.00602071359754,141.36430724417733 166.16519555595005,141.93161465099547 166.657447886304,142.58487604650145 169.3092588268919,144.7681313544599 169.83326937205857,144.7681313544599 170.23024705779972,142.567684980153 170.64310385100543,141.86285018900526 170.7066202806309,140.74542489087617 170.45255456177983,139.8170983363525 170.99244421441108,137.6853717705235 170.64310385100543,137.11805421787722 170.6113456360181,136.41320324894332 170.8812904623337,136.1381388885202 170.54782920639263,135.38171025413612 171.15123528864933,134.84877045087342 170.72249938809546,133.06083462959214 170.8812904623337,131.84021686323103 170.563708313799,120.18386061720958 169.99206044635503,117.91441494616447 170.3731590246898,117.62213627462916 170.4684336692444,117.12354241586581 169.1663468600018,114.99161203096446 172.2786519161309,112.10315966345661 176.0102421619231,112.0 176.97886771516642,112.18912601536431 177.42348272318486,112.60176407115068 178.757327747182,114.52739884327457 178.59853667288553,122.02347110641131 178.70969042484649,122.71117230050731 179.1701845403877,122.8487123001687 179.28133829234866,123.41606395643612 179.39249204436783,132.0465188983071 179.18606364779407,132.52788961617625 179.39249204436783,132.8717252456263 179.20194275520043,134.35021277767373 179.4083711517742,135.29575230229239 179.01139346609125,137.70256319032342 179.32897561462596,139.8686721290287 179.47188758145785,146.05744592791598 179.09078900318127,147.81090251407295 178.34447095403448,148.0 175.13689125329256,147.55304206340224 171.8181578006479,146.24654481001198 170.73837849550182,145.7136293927906 170.45255456177983,145.33543062921672 171.53233386698412,142.10352571877593 171.675245833816,140.47036554939405 171.53233386698412,132.18405348870147 171.24650993320392,130.77432015931117 171.50057565211318,130.1554101993679 171.34178457775852,127.14679712797806 171.53233386698412,123.31290921071195 171.2623890406685,122.9862522201729 171.32590547046857,120.09789716148225 170.78601581777912,117.84564352643793 172.19925637892447,117.58775052489364 176.55013181449613,117.48459324579744" stroke="#4dd2ff" stroke-linecap="round" stroke-linejoin="round" stroke-width="0.5"><title>2020-10-29 11.2km</title><desc>1603968579000</desc></polyline><polyline fill="none" points="32.32880455767736,153.72767238877714 32.32880455767736,166.24148549430538 31.42315834085457,172.9652250360814 32.458182588685304,178.10136771621183 30.388134093256667,179.12859134172322 30.90564621705562,183.14408617280424 30.25875606201589,183.23746947594918 29.870621969224885,184.59152585134143 31.035024247830734,186.83271636156132 32.07004849566147,186.41249373438768 32.501308599021286,186.9727905097534 30.21563005167991,188.0 29.611865907208994,186.92609913041815 27.58494342188351,186.87940774770686 29.611865907208994,186.08565372385783 30.086252020671964,185.10513269802323 32.15630051633343,183.93784381821752 31.983796475222334,182.21025239746086 30.646890155039728,181.74333500256762 30.086252020671964,179.78227825119393 32.07004849566147,177.35429496044526 32.28567854734138,173.80568754760316 30.862520206719637,170.91075650579296 31.725040413206443,169.79013454751112 31.336906320182607,167.82904143305495 32.19942652666941,163.72006508451886 32.07004849566147,154.14791632367996 30.69001616514288,152.56032668764237 28.921849742066115,152.60702055628644 27.067431298084557,153.58759101619944 30.388134093256667,152.0 32.15630051633343,154.10122256661998 32.15630051633343,165.68117070000153 31.466284351190552,172.45160851738183 32.32880455767736,174.132533783908 31.768166423542425,175.72007028892403 32.41505657834932,177.6344473453355 32.28567854734138,178.42821177456062 30.043126010568812,179.5955106303445 30.69001616514288,183.84446061664494 30.086252020671964,183.7043857887038 29.78436994855292,184.63821739982814 30.819394196150824,186.31911089108326 32.242552537005395,187.06617325835396 30.301882072351873,187.76654344133567 27.455565390875563,186.64595078327693 29.52561388653703,185.80550501152175 29.26685782475397,180.10912145732436 29.913747979560867,180.01573770097457 29.30998383485712,178.7550556671922 31.983796475222334,173.7589952146518 32.11317450599745,154.61485370766604 31.250654299510643,152.98057138361037 29.827495958656073,152.32685729360674 26.981179277179763,153.30742817994906 29.396235855761915,153.21404054074083 30.646890155039728,152.23346951243002 32.458182588685304,153.21404054074083 31.811292433645576,171.89129912102362 32.501308599021286,174.73953349754447 31.811292433645576,175.67337809462333 32.6306866297964,178.24144376150798 30.388134093256667,178.89513157051988 31.20752828917466,180.90288283961127 30.086252020671964,185.3852817148436 32.15630051633343,187.0194818857708 30.90564621705562,187.6264694656129 30.129378031240776,186.7393335791421 27.41243938053958,186.83271636156132 28.05932953534648,187.15955599327572 29.396235855761915,186.36580231436528 29.05122777284123,182.35032754996791 30.043126010568812,180.76280737255001 30.43126010335982,177.54106323042652 32.19942652666941,174.27261069166707 31.68191440263763,169.13643750565825 32.15630051633343,154.80162856652169 30.90564621705562,152.70040828344645 27.024305287748575,153.49420341767836 28.10245554568246,153.44750961329555 28.05932953534648,152.4202450614539 29.00810176273808,152.18677561660297 31.63878839253448,153.07395905663725 32.37193056824617,154.1946100772475 32.501308599021286,166.1480997290928 31.89754445431754,167.64227034908254 32.716938650701195,174.36599527992075 31.94067046465352,176.04691555479076 32.80319067114033,177.72783144650748 32.32880455767736,178.56828774890164 29.654991917544976,179.40874295542017 30.043126010568812,185.6187391356798 30.991898237727582,186.55256797390757 31.89754445431754,186.31911089108326 32.28567854734138,187.06617325835396 31.509410361526534,187.53308679827023 29.611865907208994,186.59925938025117 27.58494342188351,187.25293871480972 27.326187359867617,186.83271636156132 29.00810176273808,186.87940774770686 29.611865907208994,185.3385902204318 32.026922485558316,184.3113764897571 32.19942652666941,182.21025239746086 30.862520206719637,182.3036358358804 31.121276268735528,181.6499514830648 29.827495958656073,179.96904581785202 31.20752828917466,179.922353931237 32.28567854734138,178.00798366894014 32.28567854734138,172.63837820780464 31.42315834085457,167.78234866715502 32.28567854734138,162.59943062538514 31.811292433645576,157.13630973594263 32.501308599021286,156.66937417857116 31.466284351190552,152.65371442149626 30.043126010568812,154.05452880618395 29.52561388653703,154.05452880618395 29.611865907208994,152.37355117924744 28.447463628370315,152.8871836970793 29.611865907208994,152.1400817175745 30.862520206719637,153.1206528879702 31.63878839253448,152.70040828344645 32.76006466103718,154.24130382755538 32.07004849566147,168.48273980076192 32.716938650701195,174.17922608996741 32.15630051633343,175.7667624799651 33.01882072282024,177.6811393976095 32.37193056824617,178.56828774890164 30.4743861136958,178.66167171485722 29.698117927648127,177.40098703309195 32.026922485558316,176.28037635731744 32.458182588685304,174.64614896348212 31.768166423542425,170.39713835006114 32.11317450599745,154.94170967524406" stroke="#4dd2ff" stroke-linecap="round" stroke-linejoin="round" stroke-width="0.5"><title>2020-09-27 10.0km</title><desc>1601212800000</desc></polyline><polyline fill="none" points="72.60886319843121,172.2299974487978 58.79152215807699,176.2843361304549 58.87475915218238,177.00510192781803 59.457418111735024,177.20781700784573 68.03082851634827,174.189601066435 72.02620423899498,173.19853870847146 72.98342967242934,172.61290946954978 84.11637764936313,169.75232005637372 86.25973025057465,168.85134157305583 87.21695568400901,168.08550781331724 87.67475915222894,166.71150723079336 88.07013487478253,167.0493767884618 88.84007707121782,166.14839048698195 89.1105973025551,164.86448050447507 89.81811175344046,164.77438135963166 90.3591522158822,164.09863694233354 90.33834296721034,163.49046571337385 90.77533718687482,163.58056522961124 91.7741811175365,163.03996774108964 91.71175337187015,162.70209383426118 90.3175337187713,163.9634878829529 90.2342967245495,164.4139845194877 89.13140655111056,164.14368661574554 88.81926782277878,164.57165818833164 88.36146435444243,164.59418299165554 87.34181117534172,167.02685216270038 86.59267822734546,166.95927827557898 86.17649325623643,167.77016395318788 85.36493256269023,167.81521309560048 79.28863198449835,170.4280522087065 77.70712909440044,170.51814971826389 74.71059730253182,171.55426920528407 73.7325626204256,171.57679350365652 71.52678227354772,172.63543369137915 58.66666666662786,176.62219530556467 58.89556840073783,177.4330558310321 59.457418111735024,177.38800807940424 72.23429672443308,173.19853870847146 73.52447013487108,172.50028833581018 75.58458574186079,172.18494894483592 86.30134874756914,168.7612435814226 87.79961464356165,167.702590227389 87.98689788056072,166.8241304574185 88.84007707121782,165.78799523672205 89.04816955688875,164.61670779340784 90.60886319843121,164.03106241999194 91.83660886320285,162.90481822233414 92.12793834297918,163.44541594549082 92.35684007708915,163.26521680867882 92.64816955686547,164.59418299165554 94.6042389209615,168.3783268261177 94.06319845851976,169.30183114047395 93.18921001930721,169.75232005637372 91.8157996146474,171.2164045337995 91.06666666676756,171.41912338064867 90.40077071287669,172.320094437222 89.75568400777411,171.5317449052527 89.5892100193305,170.45057658851147 87.9452793833334,167.95036048375187 88.09094412333798,166.57635930515244 88.44470134878065,166.4412113208382 88.17418111755978,165.63032218356966 88.48631984577514,165.2474015793996 88.9857418112224,165.3825500817038 89.27707129099872,164.66175739184837 90.83776493254118,164.72933177737286 91.56608863198198,164.36893488516216 92.50250481697731,163.44541594549082 92.68978805397637,162.99491790804313 92.39845857420005,162.5669441689679 93.39730250486173,165.90061879722634 94.66666666662786,168.42337588057853 90.54643545276485,172.38766716144164 89.9221579961013,171.77951211598702 87.9452793833334,167.86026223155204 88.00770712899975,166.4637359889457 88.73603082855698,165.13477778271772 91.14990366087295,164.18873628269648 91.37880539509933,163.3327914972033 91.89903660886921,162.65704395234934 92.27360308286734,162.70209383426118 92.68978805397637,164.54913338340702 94.50019267830066,168.6035720332875 94.45857418107335,168.96396402601385 92.77302504819818,167.56744273169897 91.91984585742466,166.23848923441255 91.14990366087295,166.5538346451649 91.31637764931656,168.44590040537878 90.87938342965208,168.8738660668896 90.5672447013203,168.80629258044064 91.10828516376205,168.51347397000063 90.19267822732218,168.80629258044064 90.58805394999217,169.30183114047395 88.75684007711243,168.15308145608287 89.0273603083333,169.57212456822162 88.81926782277878,169.68474676049664 88.3406551060034,167.7476393795223 89.38111753365956,166.41868665112997 90.02620423887856,166.57635930515244 90.54643545276485,165.60779745518812 91.52447013487108,165.5627479935065 89.90134874754585,162.99491790804313" stroke="#4dd2ff" stroke-linecap="round" stroke-linejoin="round" stroke-width="0.5"><title>2020-07-09 10.4km</title><desc>1594290779000</desc></polyline><polyline fill="none" points="105.33333333332848,176.29965080964394 107.53889074879407,175.5517020042862 108.10936279431917,176.43880304946288 108.6597477960022,177.50852514238795 108.8566008258058,177.75638486370372 109.53152549937658,177.3998144160687 109.73641334671993,177.13455941924985 109.87702265373082,177.08237797069887 110.0859279098222,176.838863945537 110.2506416694523,176.4909850563854 110.87334002902207,175.61258190598892 110.95770561321115,175.39950198041697 111.73306550607958,175.87349507232284 112.17498047092522,175.02117453792744 112.29952014282753,174.62979881677893 112.58073875683476,174.30365043659185 112.88204441466951,173.81225020312195 113.33601160584658,173.40347172768452 114.24796339693421,172.89466910445117 114.3242941635981,172.73376481460946 114.87467916525202,172.09884098204566 115.01127106350032,172.0162134148377 115.45720343710855,171.42911953540533 115.9875013949204,170.95509140451395 116.13212811070844,170.9898825870987 116.24059814751672,170.82027538176771 116.69054792991665,170.4245233748734 116.67849570359976,170.37233610258045 116.83517464567558,170.31145089430356 117.3855596473586,169.58082358425236 118.00022318935953,168.9589135786009 118.06450172972109,168.75450818552417 118.53453855596308,168.27610986699074 118.74746122083161,167.7759620982688 118.98850574711105,166.7321620410039 119.07688874009182,166.56254281902147 119.5870996540616,166.56254281902147 120.06517129784334,166.47555841688154 120.17765874342876,166.4233677151533 120.18971096974565,166.29289076248824 120.65974779598764,166.14936578728884 120.84856600826606,166.18415975215612 120.77625265036477,165.87101334297768 120.99319272401044,165.74053519077643 121.47126436779217,165.59265960905395 121.70829148530902,165.59265960905395 121.74043075549707,165.52742026611304 121.79265706951264,165.63180318082232 122.06182345720299,165.570913169282 122.19841535542218,165.64920031563452 122.39526838522579,165.61875532639897 122.47159915187513,165.6752960084159 122.68452181674365,164.7271452280438 122.74880035710521,164.68800106683557 122.76486999218469,164.4879305111972 122.82513112375455,164.46618367153133 122.76486999218469,164.4052924785501 122.89744448164129,164.45313556394467 122.953688204434,164.3704974834218 123.11036714650982,164.53142416692936 123.1866979131737,164.55317098298838 123.27508090615447,164.47053304009023 123.49603838856274,164.61406202607395 124.70527842873707,164.8750229402067 124.7213480638311,164.5749177911748 124.86597477959003,164.601013950607 124.95435777255625,164.63580881220696 124.94632295503106,164.9489616597748 125.2235241602466,165.14468136055802 125.3882379198767,165.07509220666543 125.48867313914525,165.18817454080636 125.80203102331143,165.17512659003478 125.88237919873791,165.23166768956798 125.85827474610414,165.32735250601763 126.03905814081372,165.36649625063365 126.18368485660176,165.28385942652676 126.48900792321365,165.36214694693263 126.94699252313876,165.28385942652676 127.10367146522913,165.52742026611304 127.09161923891224,165.40998927029432 127.2884722687013,165.40998927029432 127.3848900792218,165.49262592090963 127.52951679498074,165.3882427644021 128.0839192054409,165.5361188492643 128.17631960718427,165.44478366336625 128.18837183350115,165.27081149653895 128.4977123088902,165.24471562805775 128.6624260685203,165.3490990339451 128.64233902464912,165.44913296107552 128.88740095972025,165.52742026611304 129.1163932596828,165.21427043384756 129.33333333332848,165.11423611564896 129.6306215824152,165.23601700271684 129.76721348063438,165.44478366336625 129.86363129114034,165.27081149653895 130.09664099988004,165.43608506698 130.26135475951014,165.33170181222886 130.34170293493662,165.05769490559396 130.3899118401896,165.1055374714124 130.76754826468823,164.81413216163128 130.81977457871835,164.8576255811895 130.87601830152562,164.72279587805315 130.8157571699412,164.45313556394467 130.86798348398588,164.36614810761603 130.97645352079417,164.3444012238615 131.11706282780506,164.3444012238615 131.31793326637126,164.66190494519105 131.40631625935202,164.6836517140182 131.53085593125434,164.49662924486984 131.68753487333015,164.49227987818813 131.75583082243975,164.3617987314974 132.13748465573008,164.3357024681536 132.25398951009265,164.54882162041395 132.35844213813834,164.59231523206108 132.29014618902875,164.70539847496184 132.36647695569263,164.75759066911633 132.47494699251547,164.6706036536707 132.53119071530818,164.49227987818813 132.64769556967076,164.46183430264864 132.84454859947436,164.58796587230609 133.09764535207069,164.52272543830986 133.1538890748634,164.56186970720228 133.5516125432332,164.41834059653047 133.82479633968615,164.74019327611677 133.96540564666793,164.63145945561337 133.96942305545963,164.47923177627672 134.22251980805595,164.71844652775326 134.37518134135462,164.49662924486984 134.66041736412444,164.7271452280438 134.889409664087,164.52707480277968 135.0139493360184,164.62711009870327 135.12643678160384,164.60536330940158 135.24695904474356,164.29655805186485 135.34337685524952,162.682916025562 135.2911505412194,162.52633389890616 135.34337685524952,162.3567028010366 135.46791652716638,162.24361513629265 138.33634638990043,162.604625013264 138.66979131792323,162.682916025562 138.73406985827023,162.76120693580378 138.8827139828063,162.68726552324006 139.07554960383277,162.796002863146 139.0474277424364,162.60027550957966 139.11170628276886,162.66986753059246 139.26436781608209,162.60897451661367 139.26436781608209,162.682916025562 139.48934270728205,162.77860490199237 139.7223524160072,163.009127478319 139.94330989843002,163.0830684946377 139.97143175984093,163.17875673358867 139.9553621247469,163.5658575990601 140.03169289141078,163.7572323862987 139.94732730720716,164.009498219737 140.0116058475396,164.32265433221983 139.93527508090483,164.77933740330627 139.9955362124747,165.00115364232988 139.8870661756373,165.17077727249125 140.03169289141078,165.3925920662041 140.0879366142035,166.36247850584186 140.13212811069388,166.34943081009988 140.10802365807467,166.3929231182119 140.20845887734322,166.46251074569955 140.67849570359976,166.45381229666964 140.70661756501067,166.4059708045097 140.831157236913,166.44946307169084 141.13246289474773,166.35812927423467 141.33333333332848,166.41032003263535" stroke="#4dd2ff" stroke-linecap="round" stroke-linejoin="round" stroke-width="0.5"><title>2020-06-16 14.5km</title><desc>1592305622000</desc></polyline><polyline fill="none" points="174.82530995993875,175.81855688907672 170.94308714591898,167.301004182038 166.49318080721423,156.09333715935645 164.69856837426778,152.77968748671992 165.99874676950276,154.57296117272926 167.8849210612243,159.73831038968638 169.02028811071068,161.9213751906791 175.35636874102056,177.20239320646215 175.5944295739755,181.19794186788204 174.935184190399,184.25791220182145 173.8547542563174,186.4797823424451 172.59120060456917,188.0 174.14775220456067,185.81712100368168 175.09999553626403,183.43932440536446 175.70430380455218,180.22342260781443 175.42961822811048,177.65067687050032 174.9534965622006,175.87702897262352 169.2583489435492,163.18832530606596 166.31005708954763,155.66451392733143 164.29569619544782,152.0 166.4199313200079,155.5475620325742 170.30215413414408,165.44933095299348 175.19155739503913,176.34480523916136 175.55780483037233,179.9505566596781 175.1366202798672,183.3028928933345 173.65331816696562,186.49927236011717 172.5545758610824,187.94153022950923 174.07450271758717,185.778140880313 174.9534965622006,183.38085376480012 175.48455534339882,180.76915377523983 175.46624297159724,177.7286391798989 173.8364418845158,173.08984724679613 170.7233386846492,166.6188100839936 166.93267772952095,157.22386825658032 170.35709124943241,165.6052617617097 174.97180893400218,175.9160103554459" stroke="#4dd2ff" stroke-linecap="round" stroke-linejoin="round" stroke-width="0.5"><title>2020-02-02 11.1km</title><desc>1580628896000</desc></polyline><polyline fill="none" points="29.654884309507906,200.84436054492835 26.318765964359045,211.18348487501498 18.84125932911411,221.5225469940342 26.778920218814164,221.8962468698155 35.176735363435,210.43608038278762 40.468509290367365,198.10385932819918 34.25642685452476,192.87198123161215 32.07069414574653,192.87198123161215 26.548843091353774,209.93781054089777 23.212724746670574,216.66444121592212 19.30141358356923,219.52947961853351 19.761567838024348,221.64711362833623 22.292416237294674,219.2803460340947 28.04434441914782,219.0312124133343 38.97300796257332,201.2180649176007 40.12339359940961,196.60903864051215 33.91131116356701,192.0 31.84061701828614,192.6228437818354 31.84061701828614,196.98274393437896 26.43380452785641,210.93435008020606 20.681876346468925,219.2803460340947 21.372107728384435,224.2630108613521 27.469151600729674,221.7716802537907 31.035347072873265,216.41530721622985 33.2210797816515,208.5675677304389 40.698586417362094,197.97929098736495 34.25642685452476,192.37370629631914 31.495501327328384,192.74741251103114 31.035347072873265,198.97583746211603 20.221722092013806,221.14884703722782 20.56683778297156,224.01387796283234 22.752570492215455,225.13497572066262 28.389460109639913,223.7647450285731 33.91131116356701,209.43954055418726 39.318123653531075,201.34263302385807 40.35347072640434,196.858175512054 33.681234036106616,192.1245687744813 31.61053989129141,192.6228437818354 30.805269945412874,199.72324693924747 20.56683778297156,222.1453800748568 21.602184855379164,225.25954209279735 24.133033256046474,222.6436463771388 26.778920218814164,223.39104555931408 28.619537237100303,221.8962468698155 40.35347072640434,198.22842766030226 33.681234036106616,192.1245687744813 31.495501327328384,193.24568733817432 30.575192818418145,201.84090535808355 19.876606401987374,224.5121437230846 27.239074473269284,223.01734600903 38.627892272081226,202.58831358887255 40.12339359940961,197.48101753299125 31.955655582249165,192.87198123161215 30.9203085093759,201.09349680237938 20.681876346468925,226.25607274647336 23.442801874130964,223.2664790515555 28.04434441914782,223.14191253471654 40.698586417362094,198.35299598332494 32.07069414574653,192.1245687744813 31.265424200333655,201.84090535808355 27.469151600729674,206.82362075522542 23.902956128120422,214.7959353365004 24.133033256046474,217.91011067363434 19.876606401987374,224.761276549194 28.159382982645184,223.01734600903 40.698586417362094,198.7267008976778 31.725578454788774,192.74741251103114 30.9203085093759,202.090041471296 24.82326463703066,213.5502636213787 24.017994692083448,218.90664558962453 18.726220765151083,226.25607274647336 22.062339110299945,223.2664790515555 25.858611709438264,222.89277947403025 31.38046276383102,217.03814214817248 40.58354785386473,198.10385932819918 31.84061701828614,192.87198123161215 31.495501327328384,200.09695155569352 24.36311038257554,214.42223391670268 24.36311038257554,218.78207875648513 20.221722092013806,225.88237381901126 21.02699203742668,227.50173525116406 29.884961436502635,221.14884703722782 39.66323934448883,202.9620175822638 41.04370210831985,197.8547226373339 32.76092552766204,192.37370629631914 31.38046276383102,200.84436054492835 20.33676065551117,226.5052053197287 22.292416237294674,227.3771690413123 24.59318750957027,224.1384444165742 28.504498673137277,223.5156120582251 39.20308509049937,202.9620175822638 40.928663544822484,197.60558591014706 32.53084840020165,192.6228437818354 31.725578454788774,199.72324693924747 19.30141358356923,225.38410845620092 30.00000000046566,219.6540463975398 39.66323934448883,201.5917692091316 40.58354785386473,197.35644914663862 33.2210797816515,192.1245687744813 32.07069414574653,192.74741251103114 31.495501327328384,199.9723833593307 19.646529274061322,227.25260282249656 22.292416237294674,223.14191253471654 28.27442154614255,222.2699466641061 41.158740672282875,197.60558591014706 31.955655582249165,192.6228437818354 31.265424200333655,199.72324693924747 23.902956128120422,213.79939803655725 23.902956128120422,219.6540463975398 19.531490710563958,228.0 23.32776331016794,223.7647450285731 28.84961436362937,222.89277947403025 41.27377923531458,197.73015427798964 33.681234036106616,192.0 31.495501327328384,192.99654994276352 31.035347072873265,201.34263302385807 20.10668352851644,227.62630145205185 24.59318750957027,224.2630108613521 28.734575800597668,223.5156120582251 40.58354785386473,199.1004057310056 40.238432162906975,197.10731234773993 33.91131116356701,192.24913753964938 31.955655582249165,193.24568733817432 31.955655582249165,198.22842766030226 24.133033256046474,214.67136820580345 24.017994692083448,219.4049128307961 20.79691491043195,227.128036594484 24.248071819078177,223.7647450285731 28.84961436362937,223.01734600903 40.698586417362094,198.35299598332494 34.25642685452476,192.99654994276352 31.84061701828614,192.99654994276352 30.9203085093759,200.96892867819406 24.017994692083448,214.42223391670268 24.36311038257554,219.90317992737982 21.25706916488707,227.87543382646982 28.964652927592397,223.7647450285731 33.79627259960398,210.6852152494248 41.04370210831985,198.477564296918 33.681234036106616,192.0 31.265424200333655,193.619393363595 30.9203085093759,201.09349680237938 27.008997346274555,210.43608038278762 33.10604121815413,209.3149730352452 39.548200780991465,201.46720112091862" stroke="#4dd2ff" stroke-linecap="round" stroke-linejoin="round" stroke-width="0.5"><title>2020-01-23 13.0km</title><desc>1579741427000</desc></polyline><polyline fill="none" points="75.50906949816272,199.5209687872557 72.54562074691057,207.94440528005362 70.9712885976769,219.0752962558763 74.02734512276947,218.27307287428994 77.91687160823494,220.47918605443556 79.39859598409384,213.45972281426657 81.34335922729224,212.25638268247712 86.52939454140142,202.72990302357357 84.39941575145349,198.61845469207037 79.02816488966346,194.50699413951952 74.21256066951901,208.54607735248283 71.98997410619631,210.45137052168138 70.9712885976769,218.17279491887894 71.24911191826686,217.27029299305286 73.00865961425006,218.27307287428994 73.28648293437436,216.16723428387195 76.15732391225174,219.27585202874616 80.32467371877283,212.7577745312592 82.63986805593595,212.35666106664576 84.12159243086353,208.14496266678907 82.1768291881308,202.83018209855072 78.00947938207537,197.81621944636572 78.10208715545014,200.22292378754355 70.6934652775526,211.7549906518543 70.50824973080307,220.3789082588628 72.4530129735358,217.37057101377286 77.17600942077115,218.5739066969836 78.28730270219967,214.36222722625826 78.1946949288249,216.2675123848021 81.15814367961138,214.16167074115947 80.32467371877283,207.5432904198533 77.17600942077115,199.82180668832734 77.45383274089545,201.52655355725437 73.74952180171385,206.5405027603265 73.47169848158956,209.2480277727591 71.24911191826686,210.15053493273444 70.13781863637269,217.67140503274277 74.86081508360803,214.36222722625826 75.41646172432229,215.3650092157768 77.82426383486018,214.16167074115947 79.9542426248081,215.6658436708385 82.91769137606025,212.7577745312592 82.1768291881308,207.84412657597568 77.36122496752068,198.21733712719288 72.9160518408753,209.2480277727591 71.06389637105167,210.25081346963998 71.61954301223159,218.87474045401905 72.4530129735358,221.08085267455317 81.80639809416607,212.55721781367902 83.38073024339974,199.72152739518788 78.00947938207537,193.8050362385111 76.89818610018119,202.22850753983948 70.32303418312222,212.65749617596157 71.4343274650164,219.27585202874616 71.80475855944678,216.2675123848021 74.58299176301807,217.97223898628727 82.63986805593595,203.6324144359678 76.80557832680643,196.61286570550874 75.97210836550221,204.23408838408068 70.13781863637269,213.25916619843338 71.4343274650164,220.2786304563051 76.06471613934264,209.5488635582151 78.10208715545014,211.95554748584982 76.62036277959123,211.45415534614585 76.80557832680643,210.15053493273444 79.86163485096768,208.94719192187767 82.82508360268548,203.73269344563596 82.54726028209552,201.32599521125667 77.26861719414592,195.0083924222272 76.4351472328417,202.128228421323 70.87868082430214,213.15888787945732 71.98997410619631,221.3816858867649 70.6934652775526,217.77168302447535 73.10126738762483,217.97223898628727 73.84212957555428,214.16167074115947 75.41646172432229,215.56556552648544 78.1946949288249,209.2480277727591 82.26943696150556,209.1477491633268 83.4733380167745,204.93604099261574 77.36122496752068,195.71034971263725 77.17600942077115,201.4262743879808 73.74952180171385,202.22850753983948 72.63822852028534,209.1477491633268 69.85999531578273,211.65471222391352 71.89736633282155,218.17279491887894 75.87950059166178,222.78557334444486 76.52775500621647,228.0 73.28648293437436,218.87474045401905 75.13863840419799,219.97779700427782 75.69428504491225,215.6658436708385 79.02816488966346,215.26473104953766 79.39859598409384,211.85526907257736 84.67723907204345,205.33715660905 86.15896344743669,206.0391086578602 85.78853235393763,203.93325144285336 77.45383274089545,195.50979052309413 77.82426383486018,199.82180668832734 76.24993168609217,204.93604099261574 73.00865961425006,211.35387689631898 69.67477976949885,213.86083595920354 70.78607305092737,220.8802971636178 76.80557832680643,225.3927891291678 76.06471613934264,215.26473104953766 78.93555711675435,213.56000111158937 79.9542426248081,209.7494207121199 82.54726028209552,210.85248453891836 82.1768291881308,205.6379932448035 76.712970552966,196.61286570550874 75.69428504491225,196.41230664681643 75.41646172432229,204.23408838408068 69.30434867506847,213.45972281426657 72.82344406750053,219.77724133315496 73.56430625496432,213.96111422707327 73.65691402880475,215.4652873746818 73.84212957555428,213.86083595920354 74.95342285744846,214.06139248760883 74.39777621626854,212.1561042907415 79.9542426248081,203.73269344563596 80.04685039818287,199.72152739518788 76.15732391225174,195.0083924222272 78.28730270219967,198.11705771810375 76.712970552966,204.23408838408068 69.76738754287362,211.95554748584982 71.34171969164163,220.07807482872158 73.47169848158956,221.58224132528994 69.95260308962315,214.66306189948227 75.04603063082322,213.86083595920354 73.84212957555428,210.75220604531933 80.13945817155764,205.6379932448035 76.24993168609217,194.80783313093707 76.99079387355596,200.6240407708101 72.9160518408753,206.64078155881725 72.54562074691057,211.85526907257736 70.23042641021311,213.86083595920354 72.36040520016104,219.77724133315496 72.26779742632061,218.87474045401905 76.06471613934264,219.0752962558763 74.58299176301807,212.35666106664576 76.34253945946693,211.0530415037647 77.17600942077115,206.5405027603265 79.86163485096768,204.534925259999 75.04603063082322,196.61286570550874 78.75034156953916,196.71314522391185 78.3799104760401,201.0251576374285 75.13863840419799,203.2312983253505 71.89736633282155,210.15053493273444 69.58217199565843,211.7549906518543 70.78607305092737,214.8636183120543 69.48956422228366,216.66862471529748 70.9712885976769,219.87751917226706 76.06471613934264,224.69084690127056 74.30516844242811,222.68529571627732 74.11995289614424,219.0752962558763 74.6755995368585,215.9666780604748 76.34253945946693,214.66306189948227 76.15732391225174,212.05582589190453 80.23206594539806,205.5377143736696 80.88032035948709,197.11426322476473 78.47251824941486,192.9025184136117 81.43596700020134,192.0 79.02816488966346,199.01957214041613 73.1938751609996,203.6324144359678 72.7308362936601,209.64914213877637 70.41564195696265,211.85526907257736 71.34171969164163,215.26473104953766 66.80393879162148,222.48474043782335 67.26697765896097,218.07251695613377 70.13781863637269,215.56556552648544 75.23124617757276,218.47362876334228 76.89818610018119,210.65192754473537 81.15814367961138,204.534925259999 80.60249703936279,203.03074022661895 83.10290692280978,201.22571602719836 83.84376911073923,197.41510164900683 78.56512602278963,194.10587538266554 73.56430625496432,207.94440528005362 70.50824973080307,210.75220604531933 72.17518965248019,213.05860955349635 70.04521086299792,219.77724133315496 72.17518965248019,222.18390746566 70.60085750371218,217.87196100887377 72.9160518408753,217.06973692937754 84.30680797807872,197.21454270661343 77.08340164739639,194.00559567520395 78.28730270219967,195.91090887296014 77.26861719414592,200.42348229372874" stroke="#4dd2ff" stroke-linecap="round" stroke-linejoin="round" stroke-width="0.5"><title>2020-01-13 11.8km</title><desc>1578915080000</desc></polyline><polyline fill="none" points="130.73203731840476,199.07521580473986 125.92768408125266,196.57808479783125 124.29420398036018,198.13879218616057 124.96681343344972,202.19662345340475 122.66072387993336,208.43941838445608 123.90985572198406,209.68797411210835 119.97028606757522,213.7457727259025 118.2407189020887,223.63010595564265 122.18028855649754,221.96538091544062 124.96681343344972,215.41050729970448 130.92421144759282,209.06369638396427 132.65377861261368,203.4451846119482 132.7498656772077,200.5318735522451 127.08072885824367,196.68213200976606 129.290731347166,194.91332837939262 125.0629004985094,199.28330985899083 124.96681343344972,203.75732473190874 122.75681094499305,207.2949080131948 111.80288556497544,212.70531263656449 116.7994129313156,214.3700484172441 118.14463183796033,220.40469943650533 117.18376119015738,224.25437734811567 118.62506716139615,226.54337013035547 117.6641965135932,227.89595505862962 119.39376367907971,228.0 115.16593283088878,224.98269362933934 111.89897262956947,224.56651294254698 120.354634326417,217.38737709831912 132.1733432887122,202.61281062697526 131.98116915952414,200.73996739566792 124.67855223966762,197.72260371525772 121.31550497375429,202.09257664124016 124.19811691576615,204.3816047682194 122.4685497507453,206.7746757247951 123.52550746267661,210.62439019524027 120.06637313216925,214.47409433952998 117.27984825521708,225.08673878200352 123.14115920383483,222.5896530316677 123.14115920383483,219.26019860664383 126.21594527550042,212.60126658610534 130.73203731840476,208.75155741826165 133.03812687145546,200.94806120847352 132.1733432887122,199.4914038834395 124.39029104541987,197.93069796590135 126.79246766399592,194.18499683879782 131.78899503033608,192.0 132.94203980686143,193.76880722132046 125.54333582241088,205.4220708917128 118.3368059671484,224.77460330084432 119.39376367907971,225.50291931827087 120.83506965031847,223.0058342916891 123.33333333302289,222.79774367704522 126.0237711458467,217.2833313876763 125.25507462816313,215.72264481743332 129.09855721797794,211.0405749246711 133.3263880657032,201.57234246679582 128.04159950558096,199.5954508841969 126.98464179364964,197.72260371525772 128.52203482948244,194.2890442244243 127.1768159228377,202.82090416864958 119.10550248483196,216.6590569630498 117.3759353198111,222.27751700743102 117.08767412556335,225.60696443344932 117.85637064371258,227.06359525362495 119.20158954989165,226.54337013035547 120.54680845607072,221.96538091544062 122.94898507418111,221.75729014968965 125.63942288700491,217.907605540473 125.83159701665863,215.30646144528873 128.90638308832422,211.87294402217958 133.13421393651515,202.7168574014213 133.3263880657032,199.38735687511507 127.1768159228377,196.16189587430563 125.63942288700491,197.41046228271443 124.96681343344972,204.06946478388272 117.27984825521708,225.2948290653294 119.77811193838716,222.17347165104002 123.33333333302289,221.86133553623222 133.4224751307629,200.73996739566792 127.94551244098693,195.95380136719905 126.0237711458467,196.89022641116753 125.54333582241088,203.65327803289983 120.06637313216925,214.57814025413245 118.52898009633645,224.46246775181498 123.90985572198406,221.96538091544062 133.23030100110918,201.88448299409356 133.61464925995097,200.3237796786707 127.94551244098693,195.95380136719905 126.50420646974817,196.57808479783125 126.21594527550042,201.78043615922797 118.2407189020887,221.1330176711781 118.62506716139615,223.83819645014592 120.25854726182297,222.0694262868492 123.23724626842886,222.0694262868492 133.23030100110918,201.98852982127573 133.4224751307629,199.69949787750375 127.36899005249143,195.64165955001954 125.63942288700491,203.4451846119482 119.87419900251552,214.9943238372216 117.95245770784095,225.08673878200352 120.45072139101103,222.69369835813995 122.85289800912142,222.79774367704522 133.23030100110918,201.67638931656256 132.65377861261368,199.69949787750375 126.31203234009445,196.68213200976606 126.40811940515414,200.11568577541038 120.16246019676328,214.9943238372216 118.14463183796033,225.71100954094436 120.64289552066475,223.0058342916891 123.23724626842886,222.5896530316677 133.3263880657032,201.46829560922924 126.98464179364964,196.0578486241866 126.0237711458467,203.75732473190874 119.4898507441394,215.51455314666964 117.47202238440514,224.46246775181498 118.2407189020887,225.91909973346628 120.45072139101103,223.10987958789337 123.23724626842886,222.69369835813995 130.2516019945033,207.2949080131948 134.57551990728825,202.19662345340475 128.137686570175,196.0578486241866 125.92768408125266,197.09832078241743 125.83159701665863,202.82090416864958 120.354634326417,214.8902779527707 120.54680845607072,218.11569686420262 117.56810944899917,225.08673878200352 120.83506965031847,222.69369835813995 123.81376865692437,222.48560769797768 131.21247264184058,205.1099311338039 133.13421393651515,202.09257664124016 134.863781101536,202.09257664124016 128.23377363523468,196.57808479783125 126.11985821090639,196.4740375779802 125.0629004985094,204.7977913080249 120.06637313216925,214.47409433952998 120.16246019676328,218.01165120617952 117.08767412556335,225.60696443344932 119.68202487332746,222.69369835813995 122.85289800912142,222.38156235648785 127.94551244098693,211.6648517929716 130.82812438253313,208.75155741826165 133.3263880657032,200.73996739566792 126.6002935343422,196.0578486241866 125.63942288700491,196.68213200976606 125.44724875735119,203.75732473190874 120.16246019676328,214.9943238372216 117.95245770784095,225.91909973346628 120.45072139101103,222.90178898815066 123.42942039761692,221.96538091544062 132.46160448295996,203.4451846119482 132.8459527422674,199.90759184141643 126.98464179364964,196.3699903509114 126.0237711458467,204.06946478388272" stroke="#4dd2ff" stroke-linecap="round" stroke-linejoin="round" stroke-width="0.5"><title>2020-01-07 11.1km</title><desc>1578400503000</desc></polyline><polyline fill="none" points="165.92580266681034,217.8690931389283 166.27402466104832,216.6121361584228 168.96694141696207,213.871954142116 169.2687338120304,211.05633170731016 171.79914697038475,206.25463711316115 172.1009393654531,204.49483709593187 173.21524974727072,202.30764461981016 172.72773895517457,201.1260521368531 171.1955621803645,200.07015757320914 171.0098437833367,198.31032615096774 172.17058376432396,195.2431700246234 173.6563309399644,194.86605879064882 174.00455293431878,194.38838397184736 173.5866865410935,192.07542290352285 172.05450976616703,192.35197340906598 171.3812805772759,193.03077825982473 171.17234738066327,194.63979185331846 169.1758746135747,195.01690333351144 168.8972970180912,196.32421995405457 167.59726823947858,197.53096938013914 167.6204830390634,198.888557461265 168.2704974283697,199.96959601840354 167.5508386400761,201.72941901447484 167.64369783864822,202.98642996893614 171.26520657923538,205.09819810846238 172.86702775291633,203.11213081356254 173.30810894572642,202.05624230127432 172.79738335404545,201.10091182746692 171.17234738066327,200.2209998507169 171.05627338262275,198.91369793110061 171.24199177953415,200.47240350060747 172.24022816331126,200.87464896115125 172.68130935600493,201.80483980034478 171.70628777192906,204.77137769045657 171.6366433731746,206.38033677250496 169.66338540555444,209.57309283383074 168.75800822034944,213.7462571997603 166.4365282583749,216.15963052969892 166.01866186526604,217.01436288806144 165.97223226597998,218.37187465492752 167.45797944173682,226.36600278841797 167.9919198330026,227.22070998270647 165.97223226597998,218.62326513946755 165.99544706568122,217.24061521844123 167.04011304851156,215.55628877243726 168.9901562165469,213.9473722857074 169.2687338120304,213.2937478297972 169.0830154150026,211.86079759403947 169.7330298043089,209.7490706591925 171.54378417460248,206.78257537583704 171.31163617840502,206.53117630342604 171.8455765696708,205.95295774488477 172.1241541650379,204.21829628077103 173.37775334448088,201.60371766827302 173.26167934644036,201.15119244440575 171.31163617840502,200.04501718725078 170.98662898375187,197.908077713917 172.1009393654531,194.89119955239585 172.8438129533315,194.91634031228023 173.95812333503272,194.13697590792435 174.07419733318966,193.08106004769797 173.79561973770615,192.4022552955139 173.30810894572642,192.17598674920737 173.88847893616185,193.35760975061567 173.86526413657703,194.11183509149123 171.77593217079993,195.34373295103433 171.79914697038475,196.67618897077045 170.89376978529617,198.10920199079555 171.31163617840502,200.29642096481984 172.58845015743282,200.95006993293646 173.14560534839984,201.52829683863092 173.1223905486986,202.15680325057474 171.98486536729615,204.16801610885886 171.54378417460248,206.58145613252418 170.66162178909872,207.5870511821995 169.80267420317978,209.52281343875802 169.0830154150026,213.52000258860062 167.01689824892674,215.35517462008283 166.04187666485086,217.06464119648444 166.4133134589065,220.81035466259345 167.8990606344305,227.14529472679715 166.13473586342297,218.69868224929087 166.2508098614635,216.83838875131914 169.05980061541777,213.77139659188106 169.05980061541777,211.6345417521079 169.68660020513926,209.5479531372257 171.1027029819088,206.933414731815 171.49735457543284,206.88313495382317 171.8455765696708,204.41941689545638 173.16882014798466,202.15680325057474 172.82059815363027,201.05063120328123 171.21877697994933,200.1707190987945 170.94019938458223,197.6566722036223 171.89200616895687,196.37450126410113 172.26344296277966,194.89119955239585 173.81883453740738,194.48894714631024 173.98133813461754,192.9050737581565 173.44739774335176,192.0 173.9349085354479,192.8547919446719 173.79561973770615,194.23753915535053 172.07772456586827,195.1174663255806 172.1009393654531,196.0476726187335 171.17234738066327,197.3047041828686 170.98662898375187,198.36060717276996 171.12591778149363,200.12043833965436 172.82059815363027,201.25175365631003 173.00631655065808,202.08138254127698 171.70628777192906,204.6959575501096 171.59021377388854,206.48089646711014 169.31516341131646,210.42784143422614 169.15265981387347,213.04235348006478 167.96870503330138,214.5255775078258 166.99368344934192,215.12892105904757 165.94901746639516,217.9696495004755 167.8990606344305,228.0 167.75977183668874,225.25990799730062 166.20438026229385,219.65396422013873 166.0650914645521,217.01436288806144 166.45974305807613,216.13449131077505 168.87408221838996,214.17362661790685 168.92051181779243,212.2881693369127 169.7330298043089,209.69879128961475 170.916984584881,207.26023311106837 171.77593217079993,206.22949717580923 171.822361770086,204.41941689545638 173.26167934644036,201.67913848144235 171.9384357681265,204.19315619577537 171.42771017656196,206.933414731815 170.84734018601011,207.23509324670886 171.31163617840502,206.9585546180606" stroke="#4dd2ff" stroke-linecap="round" stroke-linejoin="round" stroke-width="0.5"><title>2019-12-25 12.7km</title><desc>1577274001000</desc></polyline><polyline fill="none" points="23.090749315917492,236.52675326686585 24.122246200509835,236.430440171971 26.363084260257892,235.27468030551972 26.363084260257892,234.23449211964908 25.989611250231974,233.56029389427567 26.62985069595743,233.02093408007931 26.878832702583168,232.21189230204618 27.198952425387688,232.0 27.465718861029018,232.32746985001722 27.181167996372096,233.59881955337187 27.590209864429198,234.67753573460504 29.261946194630582,236.6615915409202 30.151167646923568,236.68085414593224 29.653203633613884,237.25873164502264 28.95961090089986,236.71937935169262 28.55056903284276,236.81569234163908 27.5546410062816,237.81734536406293 27.34122785780346,238.85751949914265 27.87476072908612,239.3005553920957 29.56428148841951,239.89768955520412 30.22230536310235,240.7452325110935 30.595778373011854,244.07759106016601 31.2360178186791,244.82881061575608 31.289371105784085,246.23493381022126 31.947394980466925,247.15950390415674 30.595778373011854,249.18198975134874 30.738053805427626,250.41473546699854 30.382365224533714,250.87701363369706 29.919970069313422,253.284699396856 30.720269376353826,254.01663153845584 30.898113666800782,254.67151648002618 30.04446107253898,256.0390651169728 29.902185640239622,257.09842893492896 30.240089792117942,257.52217327787366 31.965179409482516,258.4081819902931 32.889969719806686,258.2348326923675 33.227873871685006,258.5237481259974 32.818832003627904,258.90896821484785 31.680628544767387,258.5430091436865 29.777694637014065,258.5430091436865 29.6176347755827,258.2733547683747 29.86661678220844,259.3904925394745 29.43979048501933,261.06619037843484 28.28380259714322,262.3759238510247 28.87068875564728,262.5492704439239 29.955538927344605,261.12397287381464 30.062245501670986,260.565408224822 30.951466953905765,260.14166874132934 30.595778373011854,260.0261033101706 32.80104757461231,260.29575590448803 33.44128702027956,261.4899283857667 34.33050847257255,262.26035939285066 34.810688056692015,262.0484910889063 35.593202934775036,262.16405563926673 36.32236452563666,261.5669715871045 37.51392127160216,261.5669715871045 38.207514004432596,260.4305820988666 38.52763372717891,260.4113212181692 38.705478017625865,260.8735819696449 37.35386141017079,261.97144802728144 36.535777674173005,262.16405563926673 35.61098736379063,263.3774803805136 34.41943061776692,263.0307881634071 33.83254445932107,263.2426556832361 33.33458044601139,262.8189204744558 32.76547871658113,262.78039905834885 31.89404169336194,263.31969837576617 31.662844115751795,265.342061056057 32.552065567986574,266.2473041201447 31.467215396172833,267.5184912959521 31.37829325097846,268.0 32.889969719806686,267.03698171838187 33.15673615556443,266.49768995447084 33.281227158848196,265.93913661513943 32.71212542941794,264.8220264100819 33.72583788499469,264.78350528470764 34.4727839048719,265.80431321919605 34.98853234719718,266.0739599426015 36.07338251895271,265.3035400061053 36.500208816025406,265.322800531736 36.71362196461996,265.5346662218508 36.215657951368485,266.34360639203805 35.539849647611845,266.63251299817057 35.57541850564303,266.1895227401692 36.215657951368485,265.5346662218508 36.03781366086332,265.95839709469874 35.913322657579556,265.80431321919605 36.18008909316268,265.9969180495682 36.30458009656286,265.70801075156487 36.02002923190594,265.74653174282867 35.50428078958066,266.49768995447084 35.557634076685645,266.69029428160866 36.03781366086332,266.536210831051 36.69583753554616,265.6117082490382 36.535777674173005,265.2650189505366 34.828472485765815,265.95839709469874 33.81476003018906,264.84128697069536 33.17452058463823,264.7449841536727 32.56984999711858,265.18797682273726 33.138951726432424,265.93913661513943 32.961107436043676,266.63251299817057 31.48499982530484,267.98073966859374 31.253802247694694,267.78813627781346 32.303083561360836,266.2280436614965 31.41386210906785,265.4383636564162 31.805119548051152,263.60860827358556 32.303083561360836,262.83818118042836 32.99667629413307,262.70335620921105 33.796975601115264,263.1270916024805 35.78883165423758,263.31969837576617 36.58913096121978,262.2025771449553 37.26493926497642,262.06775185074366 38.474280440073926,261.2010161814105 38.74104687577346,260.73875600029714 38.438711581984535,260.31501679362555 38.11859185912181,260.4113212181692 37.60284341679653,261.4321459700441 36.30458009656286,261.54771078885824 35.593202934775036,262.0870126112859 34.33050847257255,262.1062733703584 33.24565830081701,261.25879864745366 32.78326314559672,260.19945143799123 30.613562802027445,259.9683205757465 30.080029930744786,260.3727994525543 29.777694637014065,261.31658110089484 28.62170674902154,262.5107489886286 28.24823373905383,262.29888088451116 29.368652768956963,261.08545121164934 29.315299481793772,260.3727994525543 29.74212577880826,259.12083902531595 29.51092820125632,258.3889209628105 32.99667629413307,258.8126632450003 33.316796016995795,258.5430091436865 33.08559843938565,258.15778852361836 31.876257264229935,258.2733547683747 29.86661678220844,257.15621229422686 30.951466953905765,254.53668735950487 30.862544808653183,253.9973701921699 29.973323356476612,253.20765379082877 30.43571851158049,252.3023662440828 30.77362266345881,250.18359608159517 30.613562802027445,249.39386832888704 31.911826122377533,246.98614725696098 31.271586676710285,246.15788615691417 31.2360178186791,244.67471447007847 30.560209514922462,243.96201863198075 30.22230536310235,242.189901762089 30.45350294059608,241.49646150351327 30.311227508296724,240.7644948195084 29.759910207882058,239.95547666096536 27.412365573865827,238.85751949914265 27.483503290102817,237.81734536406293 28.443862458574586,236.96979305284913 28.90625761373667,236.85421752784168 29.777694637014065,237.1816813845362 30.18673650501296,236.64232893455483 29.101886333199218,236.4497027937905 28.83511989749968,235.83329820311337 27.50128771911841,234.5041709299403 27.27009014156647,233.56029389427567 27.483503290102817,232.50083607748093 27.23452128347708,232.03852588566951 26.078533395484556,233.444716883605 26.3097309730947,235.33246841844812 23.553144471137784,236.4882280331367 22.13039014750393,236.29560178040992 21.667994992341846,235.9873994851223 22.237096721713897,235.31320571551623 21.490150701836683,236.00666213905788 21.258953124284744,236.71937935169262 21.561288418073673,237.27799420665542 21.383444127626717,237.50914483694942" stroke="#4dd2ff" stroke-linecap="round" stroke-linejoin="round" stroke-width="0.5"><title>2019-11-24 11.2km</title><desc>1574578532000</desc></polyline><polyline fill="none" points="83.71989049314288,267.6109083960546 82.88659822673071,267.4299351949012 82.7590534920455,265.50255633857887 82.52096998735215,265.03201857248496 80.3101945866656,263.60229813010665 79.65546494876617,263.41227091475594 78.7456458415254,263.4575155128405 76.3052899184695,264.1542805081481 76.39031974153477,263.11365620694414 77.19810306106228,260.38085009733913 77.41067761881277,259.0958701561103 77.48720445961226,255.39470115085714 77.82732375201886,254.2725673332243 78.42253251376678,253.33141602011892 78.7456458415254,252.54410196832032 79.21330986864632,250.6346210633419 79.12828004549374,250.51697448255436 78.53307128380402,250.5260242229706 76.81546885709395,250.70701891085628 78.76265180617338,250.56222317896027 78.84768162926775,250.3902780559947 78.71163391231676,250.27263127324113 77.01103745025466,250.40837755241955 76.90049868015922,249.62104733077285 76.60289429931436,249.24095531995408 76.54337342316285,248.77036380480422 77.01103745025466,247.0780314562653 75.87163782064454,244.8336238180782 75.48050063435221,243.62090495749726 75.57403343977057,243.20459609953105 75.13187835962162,242.67968319434294 74.45163977477932,240.7519691834168 74.54517258019769,240.57096183135582 75.6930751921027,239.76547632158326 74.79175906718592,237.72911620645755 77.09606727331993,235.9461458542064 78.65211303613614,234.02739136533637 80.16564388741972,232.66071553997608 80.39522440975998,232.63356290704542 80.4547452859697,232.83268209476228 80.66731984372018,234.33511788501346 80.57378703827271,235.40310475771548 80.89690036606044,236.00044984980195 81.08396597689716,236.07285514500109 81.83222842024406,235.73798034564243 84.45114697184181,234.14505158385145 84.64671556497342,234.95056892654247 85.17390046821674,235.61127075647528 85.0633616981795,235.88279116647755 84.79976924654329,236.0095005137191 84.54467977726017,235.48456105439982 84.69773345883004,235.12253271204827 84.54467977726017,234.1541023658574 84.62120661805966,233.9911882015731 85.5480316898902,233.4752921166437 85.59054660145193,233.30332633906073 85.13988853894989,232.58830850731465 84.41713504257496,232.17196735390462 81.30504351697164,232.2805782071082 81.10097194154514,232.244374598602 81.11797790613491,232.0 81.03294808306964,235.28544558017165 81.25402562314412,235.73798034564243 81.84923438483384,236.3443746736957 82.4869580581435,236.41677979378437 83.6433636523434,235.59316937738186 83.99198592710309,235.5841186869584 84.49366188337444,235.84658847510582 84.5956976711168,235.73798034564243 84.51066784802242,235.2763948701613 84.68923047653516,235.05917765737104 87.1040774526482,235.87374049448408 83.49030997074442,238.235946338129 83.35426225379342,238.43505768140312 82.56348489891388,238.84233001539542 81.7386956147966,239.51206420668314 80.9904331715079,239.8469301197547 78.05690427438822,241.9375616442194 74.3325980224181,243.31319852775778 72.13882858637953,244.41731850876386 70.9399080805888,244.60737108369358 70.3957172127266,244.86982422218716 66.22925588063663,245.98298215243994 66.39931552682538,246.80653241456457 66.314285703731,247.79297645455517 66.41632149147335,253.62100170232588 66.29727973908302,256.9964413567941 66.41632149147335,261.84679896826856 66.2462618452555,263.8647162487323 66.62039306687075,263.9280584807784 66.75644078387995,264.1633293817649 67.41117042177939,264.19047599917394 76.27127798920264,264.21762261140975 78.19295199136832,263.59324922082305 79.72348880727077,263.4575155128405 80.42923633899773,263.71993389826093 82.42743718193378,265.01392093506 82.64001173971337,265.3034828580203 82.70803559818887,267.3484971793878 82.92911313826335,267.5294704840053 83.61785470540053,267.58376243054227 83.6348606700194,267.9819027396443 83.98348294475,268.0" stroke="#4dd2ff" stroke-linecap="round" stroke-linejoin="round" stroke-width="0.5"><title>2014-08-29 17.5km</title><desc>1409303182000</desc></polyline><polyline fill="none" points="140.48407303742715,259.60521033748955 140.26815940291272,259.658823358317 140.25376516059623,259.360121938691 140.58483273355523,259.01546553490334 140.21777955483412,258.9158979459389 140.5776356124261,258.5865584120111 140.51286152206012,258.4180587676892 140.1242169798934,258.5329449143683 140.4552845528233,258.01212683931226 140.23937091827975,258.11169517465896 140.39770758364466,257.95851308618876 140.30414500867482,257.6061935440666 138.88631214181078,256.62582070354983 137.6915900306485,256.1969050786429 136.9071038251277,256.21988274010073 136.02905504463706,256.5951839238114 135.14380914301728,256.710071807669 134.94228975076112,256.9015513708 134.80554444890004,256.8479371237918 134.56803945088177,256.98580228223 131.57403705184697,256.80964121846046 129.66679994668812,256.9321880726711 126.88871118219686,256.6947534294959 126.71598027454456,256.2811564825606 126.64400906304945,255.44629906272166 126.8095428495435,253.59274173501763 126.67279754765332,252.9953080920095 126.74476875917753,252.68893071600905 126.6512061842077,251.86170791031327 126.69438891109894,250.13830882681214 126.78075436491054,249.77830679502222 126.58643209381262,247.2889016080153 126.81673997067264,244.4164470875694 126.73757163799019,241.85798991922638 126.21218179396237,241.86565005173907 124.1106224176765,242.42483840959903 122.72157803544542,243.15254539848684 120.20258563241805,243.55852738689282 119.81394109025132,243.38234669206577 119.43969079037197,242.98402417121542 118.19458883116022,242.53973980541923 117.10062641609693,242.34823741814762 116.79115020658355,242.1873751775347 116.40250566441682,242.22567573050765 115.1286152205721,241.87331018375698 114.52405704389093,241.98055198103975 114.2577635612397,241.78904870463884 109.62281753966818,240.12678747205064 109.60842329735169,240.24935129576625 107.25496468081838,239.92762099248648 106.83753165398957,240.01188377403014 106.08183393310173,239.87399919170275 105.59242969480692,239.9659222641494 105.33333333334303,239.85867867280467 105.62121817941079,239.88931970865087 105.49166999867884,239.75143498597026 106.66480074639549,240.31829339177057 109.15500466478989,240.35659453916742 112.35772357723908,241.52094360609044 119.26695988271968,243.21382578631892 120.33933093427913,243.76534787372657 121.51965880318312,243.69640775089647 123.80114620819222,242.62400075935147 126.37051845926908,242.01885259978735 126.52885512463399,245.86417272693507 126.38491270158556,250.827671417901 126.48567239771364,256.7024126188262 128.0258563241514,256.81730040050024 134.72637611621758,256.76368611599173 134.89910702384077,256.62582070354983 136.6983873117715,256.25817883279524 138.41130214580335,256.5109327393802 138.77835532452445,256.61816150933737 139.17419698787853,257.04707563536795 140.18899107023026,257.74405783534894 140.18899107023026,258.37976336113934 140.28975076638744,258.5176267678107 140.23937091827975,259.7200953529318 141.07423697187915,260.02645485894027 141.26136212178972,260.0034779229827 141.16779954684898,260.1030446138102 141.33333333334303,260.248565014037" stroke="#4dd2ff" stroke-linecap="round" stroke-linejoin="round" stroke-width="0.5"><title>2014-08-24 15.8km</title><desc>1408871927000</desc></polyline><polyline fill="none" points="185.47499260137556,256.4120738158672 183.86623261321802,255.24425744208565 183.06717963895062,254.8927772314346 181.6608464042656,254.80207254855486 181.4051494525047,254.2805197272537 181.46907369041583,253.94037576162373 181.10683634213638,254.70002972520888 179.5087303936598,255.16489100344188 178.52855874522356,255.21024325842154 178.34744007105473,254.83608681002806 178.36874815035844,254.2351672359364 175.88635691034142,251.23053900881496 175.92897306900704,250.05135033201077 175.76916247414192,249.54112204645935 175.6306599585805,249.50710677553434 175.79047055338742,249.31435345114733 176.03551346552558,247.89704319975863 174.95945546019357,247.9423973021767 174.7889908257057,246.1055469296698 174.26694288256112,245.6406620459602 173.70227878069272,245.57263001012325 172.59425865643425,243.95119214399892 171.7099733648938,243.12345943847322 170.44214264577022,241.5133382401109 168.24741047649877,242.18233402426995 163.25066587748006,242.4544671845506 162.8884285291424,242.36375617723388 161.89760284114163,242.53383927808318 160.5658478839905,242.47714492914383 160.0970701391343,242.2503673532774 159.3193252441706,242.49982267089945 157.35898194729816,242.26170623891812 156.3681562592974,241.74011675319343 155.3773305711802,241.6380664579774 154.48239124001702,241.6494053825736 153.406333234685,242.1936729142326 152.37289138801862,241.94421716837678 152.0,242.0235894890211 155.31340633326909,241.68342215195298 158.05149452504702,242.39777281037823 158.09411068365443,242.52250040973013 159.8413731873734,242.6699056419602 162.9843148860964,242.38643393341044 163.75140574137913,242.48848380037816 167.48031962121604,242.3410784182197 169.39804675942287,242.00091168672952 173.76620301866205,240.28872928641795 176.61083160695853,239.4723186454503 178.2622077537817,239.18884185425122 179.14649304532213,239.3135716979159 179.03995264868718,241.28655943868216 179.25303344184067,241.75145567127038 179.18910920387134,242.30706177427783 179.48742231429787,243.03274877145304 179.70050310745137,243.15747592672415 179.38088191772113,243.69040006220166 179.5726546315709,247.11468311751378 179.32761171949096,248.75876917445567 179.28499556082534,251.16250910471717 178.88014205388026,251.82013042467588 178.83752589527285,252.4323963712668 178.33678603137378,253.72495091467863 178.36874815035844,254.13312408840284 178.10239715891657,255.05151031553396 178.45398046763148,255.41432826322853 179.30630364012904,255.34629995423893 181.1281444214983,254.60932494433655 181.7354246818577,254.84742489576456 182.89671500446275,254.9494676348113 184.06865936674876,255.50503263491555 186.15685113944346,257.10368961848144 186.28469961532392,258.47557532838255 186.1035809411551,259.371263614099 186.2420834566583,259.8474504928163 187.05179047060665,260.15356995826005 187.42468185856706,260.13089446029335 187.61645457241684,260.3009606247506 187.5099141757819,260.4483511694707 187.69103285000892,260.81115814576333 188.0,260.69778104488796" stroke="#4dd2ff" stroke-linecap="round" stroke-linejoin="round" stroke-width="0.5"><title>2014-08-22 10.2km</title><desc>1408698189000</desc></polyline></svg>