<?xml version="1.0" encoding="utf-8" ?>
<svg baseProfile="full" height="300mm" version="1.1" viewBox="0,0,200,300" width="200mm" xmlns="http://www.w3.org/2000/svg" xmlns:ev="http://www.w3.org/2001/xml-events" xmlns:xlink="http://www.w3.org/1999/xlink"><defs /><rect fill="#f5f5f5" height="300" rx="1" ry="1" width="200" x="0" y="0" /><text fill="#006cb8" style="font-size:12px; font-family:MGI-Regular; font-weight:bold;" x="10" y="20">超过5公里的活动</text><text fill="#006cb8" style="font-size:4px; font-family:MGI-Regular" x="10" y="280">Runner</text><text fill="#006cb8" style="font-size:9px; font-family:Arial" x="10" y="290">XHH</text><text fill="#006cb8" style="font-size:4px; font-family:MGI-Regular" x="65" y="280">特殊的活动</text><rect fill="yellow" height="2.6" rx="1" ry="1" width="2.6" x="65" y="283" /><text fill="#006cb8" style="font-size:3px; font-family:MGI-Regular" x="70" y="285.5">大于 20.0 km</text><rect fill="red" height="2.6" rx="1" ry="1" width="2.6" x="65" y="287" /><text fill="#006cb8" style="font-size:3px; font-family:MGI-Regular" x="70" y="289.5">大于 40.0 km</text><text fill="#006cb8" style="font-size:4px; font-family:MGI-Regular" x="120" y="280">数据</text><text fill="#006cb8" style="font-size:3px; font-family:MGI-Regular" x="120" y="285">次数: 4</text><text fill="#006cb8" style="font-size:3px; font-family:MGI-Regular" x="120" y="290">周均次: 2.0</text><text fill="#006cb8" style="font-size:3px; font-family:MGI-Regular" x="141" y="285">所有: 32.2 km</text><text fill="#006cb8" style="font-size:3px; font-family:MGI-Regular" x="141" y="290">平均: 8.1 km</text><text fill="#006cb8" style="font-size:3px; font-family:MGI-Regular" x="167" y="285">最少: 5.0 km</text><text fill="#006cb8" style="font-size:3px; font-family:MGI-Regular" x="167" y="290">最多: 11.5 km</text><polyline fill="none" points="18.180664368439466,91.43925130623393 18.96756502671633,91.38319530160516 19.932152930065058,91.635447250359 19.957536822301336,90.8506628004834 19.83061736135278,88.97277843544725 21.93748041370418,88.27207268044003 22.952836101525463,88.15995962670422 25.05969915399328,87.85164854029426 25.973519272985868,87.9077051220811 26.633500470081344,86.02980464469874 27.44578502047807,83.19892031396739 28.029614540864713,81.48916697484674 28.283453462878242,80.84450366717647 29.070354120922275,79.19079659736599 29.425728611648083,77.48102327686502 29.552648072713055,75.71518286681385 30.669539329363033,74.79021521375398 31.456439987407066,74.70612712172442 33.46176747104619,74.4538627215079 33.334848009981215,74.25765694852453 33.84252585389186,74.14553931367118 35.51786273892503,73.75312730277074 37.599341899040155,73.24859691475285 38.690849263453856,73.22056742702262 39.45236602937803,73.19253793693497 40.62002507050056,73.13647894997848 43.81839548726566,74.06145106340409 45.0622062048642,74.4538627215079 48.057505484088324,75.46291920891963 49.682074584648944,75.71518286681385 50.646662488230504,75.1545967082784 54.4034785333788,70.92214163386961 57.27185835153796,69.21232708796742 58.23644625511952,68.65173029905418 59.58179254154675,68.09113259363221 60.41946098394692,67.92295310329064 61.79019116261043,67.64265376946423 65.29316828586161,68.03507277279277 67.04465684725437,67.95098302411498 67.8569413976511,67.83886332722614 70.16687558754347,67.8108333973214 72.47680977743585,67.67068371319328 73.21294265112374,67.69871365459403 74.55828893766738,67.55856392465648 77.60435600124765,67.39038417310803 78.77201504225377,67.72674359366647 80.82811031013262,67.72674359366647 83.72187402076088,67.92295310329064 84.48339078656863,68.06310268433299 84.86414916953072,68.11916250066133 85.14337198366411,67.36235420647427 85.01645252271555,66.52145414287224 85.19413976813667,65.11994945415063 85.54951425886247,62.59722657914972 85.57489815098234,61.4479800046538 86.10795988724567,59.73811821619165 86.3364149169065,59.14947529960773 86.71717329986859,58.84113813043223 87.04716389847454,58.9532607695146 87.3517706048442,59.00932207520236 87.60560952674132,59.09341401673737 88.18943904724438,59.14947529960773 89.58555311814416,59.65402643283596 90.04246317769866,59.40175095901941 89.737856471329,59.48584280422074 89.81400814792141,59.73811821619165 90.24553431535605,59.76614880611305 91.8447195236804,59.76614880611305 92.4031651520636,60.35479066395783 93.08853024127893,60.52297386631835 93.69774365401827,60.41085174056934 93.97696646815166,59.541904022946255 93.79927922284696,58.67295410315273 94.84001880290452,58.08430935780052 95.09385772491805,58.140370805660496 95.5,57.86006347468356 95.42384832340758,57.86006347468356 95.19539329363033,57.88809421812766 95.06847383268178,57.97218643457745 94.15465371357277,58.25249367381912 93.77389533061069,59.20553657322307 92.98699467256665,59.457812191481935 92.42854904418346,59.26159783784533 92.07317455345765,59.26159783784533 92.1239423379302,59.31765909312526 92.1239423379302,59.00932207520236 92.09855844557751,59.26159783784533 91.2862738952972,59.40175095901941 90.29630209959578,58.897199454542715 88.95095581316855,59.28962846664945 88.29097461607307,59.17750593755045 87.30100282037165,58.9532607695146 86.84409276093356,58.92523011312005 86.86947665305343,58.981291423522634 86.5394860545639,59.26159783784533 86.31103102478664,60.24266848320258 85.60028204321861,61.3919190975721 85.14337198366411,63.97071133501595 84.71184581634589,66.12903340745834 84.4072391098598,67.36235420647427 83.39188342203852,67.67068371319328 81.51347539946437,67.8949231802253 80.01582575996872,67.92295310329064 78.16280162951443,67.25023431718 74.86289564392064,67.3343242375995 71.38530241290573,67.50250401665107 69.45612660609186,67.72674359366647 69.2276715763146,67.61462382352329 68.16154810402077,68.03507277279277 67.37464744597673,68.11916250066133 66.63851457228884,67.75477353049791 64.98856157949194,67.78280346508836 64.1255092448555,67.50250401665107 64.17627702909522,68.00704285883694 63.973205891554244,68.09113259363221 63.110153556917794,67.92295310329064 61.63788780942559,68.03507277279277 61.3586649952922,67.83886332722614 60.140238169929944,68.25931200155173 59.22641805082094,68.70779001916526 58.033375117578544,69.15626745027839 57.65261673450004,69.32444633578416 57.09417110623326,69.54868472137605 55.875744280871004,70.30548819035175 55.46960200567264,70.61381505077588 55.11422751483042,71.03426032265997 53.9465684738243,72.0433268720808 53.23581949225627,72.68800672420184 51.86508931370918,74.0894804824784 50.44359135068953,75.46291920891963 49.301316201803274,75.82729998856666 47.82905045442749,75.5750364130945 47.11830147297587,75.21065536543028 45.69680350983981,74.81824457325274 44.52914446883369,74.50992149306694 44.02146662492305,74.39780394063564 43.640708241960965,75.09853804204613 42.879191476036794,77.87343102210434 42.59996866178699,79.16276759532047 42.29536195541732,80.00363666203339 41.88921968033537,81.2929652268358 41.45769351301715,81.76945499159046 41.02616734569892,81.9936852400424 40.72156063921284,82.13382907092455 40.11234722658992,82.18988658717717 39.88389219681267,81.2929652268358 39.78235662798397,79.75137615849962 39.63005327479914,80.36801261728397 37.70087746786885,80.50815711249015 35.390943277976476,80.39604152095853 33.89329363848083,80.39604152095853 32.39564399863593,80.70435930942767 30.466468191705644,81.2369075640454 30.263397054281086,81.40508052517544 29.857254778966308,81.79748378074146 29.324193042935804,82.07777154547512 28.35960513947066,83.98372227122309 27.826543403207324,85.30106437692302 27.471168912481517,87.65545043180464 26.78580382326618,88.66446807965985 26.506581009016372,88.07587481252267 25.643528674263507,88.24404442042578 24.06972735817544,88.27207268044003 22.927452209289186,88.41221394587774 21.35365089320112,88.80460918482277 20.18599185196217,88.80460918482277 19.8052334691165,89.00080663594417 19.88138514570892,91.07488711227779 19.652930115815252,91.83164308225969 18.713726104586385,91.99981084890896 17.74913820112124,92.28009027667576 17.342995925922878,92.22403440941707 17.596834847936407,91.69150321374764 18.05374490749091,91.13094316725619 17.926825446542352,90.87869084751583 17.444531494867988,90.8226347512682 17.495299279224128,90.14996088168118 17.6983704167651,90.14996088168118 17.495299279224128,89.58939831593307 17.342995925922878,89.33714486242388 17.216076465090737,89.56137016357388 16.86070197436493,89.70151090231957 16.5307113758754,89.95376408789889 16.276872453745455,89.58939831593307 16.5307113758754,89.42122936755186 16.226104669389315,89.92573596531292 16.09918520844076,86.61840142295114 16.12456910056062,86.31008895076229 16.149952992796898,86.33811736875214 16.149952992796898,86.39417419797974 16.35302413033787,86.9267136179551 16.276872453745455,87.09488378930837 16.09918520844076,86.39417419797974 16.12456910056062,86.31008895076229 16.09918520844076,86.33811736875214 16.200720777153037,86.28206053050235 16.12456910056062,86.42220260910108 16.809934189892374,87.9077051220811 16.12456910056062,86.33811736875214 16.02303353184834,87.06685543316416 16.12456910056062,86.98277035096544 15.819962394190952,87.51530885713873 16.09918520844076,86.36614578450099 16.048417423968203,86.28206053050235 16.07380131620448,86.31008895076229 16.09918520844076,86.28206053050235 16.07380131620448,86.31008895076229 15.769194609834813,86.61840142295114 16.12456910056062,86.2540321079141 16.07380131620448,86.42220260910108 16.149952992796898,86.33811736875214 16.149952992796898,86.11388996057212 16.17533688491676,86.5062878287572 16.09918520844076,86.31008895076229 16.12456910056062,86.33811736875214 16.09918520844076,86.33811736875214 16.12456910056062,86.22600368299754 16.09918520844076,86.28206053050235" stroke="#00AFAA" stroke-linecap="round" stroke-linejoin="round" stroke-width="1"><title>2025-09-17 10.4km</title><desc>15841686234</desc></polyline><polyline fill="none" points="110.75788900954649,71.64263445104007 110.44940152321942,72.37253523775144 110.09684439585544,73.1997550476226 110.36126224137843,73.83233412692789 110.18498367769644,75.43810877215583 110.14091403689235,75.29212943778839 110.09684439585544,75.92470629460877 109.83242655033246,77.38449647679226 109.56800870480947,78.26036886853399 109.70021762768738,79.81747216207441 109.74428726872429,80.7906596530811 110.05277475481853,81.958482543414 109.4357997821644,83.1263031437993 109.39173014112748,83.95350801682798 109.52393906400539,84.58607567416038 111.0223068553023,84.82937074801885 112.91730141430162,84.68339371553157 113.84276387351565,84.73205273039639 115.12078346009366,84.68339371553157 116.09031556011178,84.92668874975061 117.3242655058857,84.97534774465021 118.07344940141775,85.07266572245862 119.52774755144492,84.97534774465021 120.27693144697696,84.82937074801885 120.36507072881795,85.55925537319854 120.27693144697696,85.99718571914127 120.58541893330403,85.99718571914127 121.59902067459188,85.94852680765325 121.90750816068612,86.53243348217802 122.52448313357309,87.99219766416354 122.65669205645099,88.2841500712675 122.61262241541408,88.13817388558527 122.87704026093706,88.43012622103561 123.31773667014204,88.72207841341151 123.6262241564691,88.81939577910816 123.40587595198303,89.01403046271298 123.67029379750602,89.25732372776838 125.12459194753319,89.01403046271298 125.56528835673817,87.8462214069441 125.74156692042015,87.8462214069441 125.78563656122424,87.79756264662137 127.50435255677439,86.87304544477956 128.73830250254832,86.33779798768228 129.39934711623937,86.24048021651106 129.3552774754353,85.6565732556628 129.66376496176235,84.63473469688324 130.58922742097639,82.20177869079635 131.51468988019042,81.42323066963581 132.7927094665356,81.90982330212137 134.0707290531136,82.49373393633869 135.12840043497272,83.17496228584787 137.28781283972785,84.97534774465021 138.2132752991747,85.80255004961509 138.96245919470675,86.09450353001012 139.27094668103382,86.77572776097804 140.10826985840686,85.80255004961509 140.72524483129382,85.12132470548386 141.12187159946188,84.34278050082503 141.69477693131194,83.2722805577796 142.5321001089178,83.1263031437993 142.5321001089178,83.3209396879538 143.14907508157194,84.24546240369091 143.76605005422607,83.71021258522524 144.6033732315991,83.2236214238219 145.08813928160816,83.2722805577796 146.1458106637001,82.34775633132085 147.6001088139601,81.81250480742892 148.43743199133314,81.3259120953735 149.31882480951026,80.10942857631017 150.50870511401445,79.13623997196555 151.52230685506947,78.50366652646335 152.09521218715236,78.16304977732943 153.0206746463664,77.48181569494773 153.9020674645435,76.65460183296818 155.1360174100846,75.92470629460877 156.32589771482162,74.90285103803035 157.33949945564382,74.41625268064672 159.41077257879078,73.63769448176026 161.8346028290689,72.85913526505465 164.52285092510283,71.64263445104007 166.59412404778413,70.9127327700262 167.91621327516623,70.62077184708323 168.5331882480532,70.18283019441878 170.38411316648126,69.89086891361512 171.35364526649937,69.8422086861101 173.07236126228236,69.30694592260988 174.21817192574963,68.82034299266525 175.80467899888754,66.82526682328898 176.5097932536155,66.19268030073727 178.66920565837063,63.66232749068877 179.99129488575272,62.54312954877969 181.5337323176209,61.910538477415685 182.50326441787183,61.76455582707422 183.781284004217,61.521251330152154 184.3541893362999,60.83999821008183 185.36779107735492,60.83999821008183 185.5,61.32660766108893 185.2796517952811,62.64045119244838 184.97116430918686,62.883755232032854 184.92709466814995,62.64045119244838 184.88302502711304,62.7377728203428 185.05930359079503,62.59179037268041 184.39825897710398,62.299825370078906 184.75081610446796,62.00786022434477 184.31011969526298,61.95919935288839 184.0897714907769,62.05652109195944 183.781284004217,62.34848621377023 183.91349292709492,62.25116452248767 183.25244831340387,62.34848621377023 158.39717083773576,73.34573489479953 156.36996735585853,75.09749026980717 156.36996735585853,75.24346965178847 155.97334058769047,75.43810877215583 154.25462459167466,76.26532432384556 152.6681175190024,77.43315608781995 150.64091403689235,78.94160206039669 149.58324265503325,79.72015332547016 149.27475516847335,80.45004421210615 148.4815016319044,81.03395627753343 148.5255712729413,80.98529696057085 145.26441784529015,82.59105231956346 144.7796517952811,83.07764399790904 144.07453754055314,83.71021258522524 142.66430903156288,83.2236214238219 142.04733405844308,83.07764399790904 141.60663764947094,83.2722805577796 141.29815016314387,83.46691705437843 141.29815016314387,84.19680334918667 141.2540805223398,84.0508261618088 140.90152339474298,84.73205273039639 140.41675734473392,85.21864265936892 139.4472252447158,85.99718571914127 139.05059847631492,86.09450353001012 138.5217627857346,86.04584462649655 137.64036996732466,85.31596059747972 136.05386289418675,84.0508261618088 133.58596300310455,82.39641553693218 132.35201305733062,81.52054922800744 131.5587595209945,80.98529696057085 130.76550598465838,80.54736292961752 129.79597388440743,80.30406610638602 127.6365614796523,80.35272547887871 126.22633297066204,80.15808796486817 125.43307943409309,80.30406610638602 124.33133841119707,80.0121097874362 121.99564744252712,80.06076918391045 121.55495103355497,80.6933409756166 121.77529923804104,82.10446024383418 122.12785636540502,83.07764399790904 122.17192600644194,84.44009858218487 122.3482045698911,85.12132470548386 122.61262241541408,85.94852680765325 123.00924918358214,86.77572776097804 123.44994559301995,87.74890388222411 123.53808487462811,87.70024511398515 123.36180631094612,87.99219766416354 123.05331882461905,87.8948801633669 122.92110990197398,87.74890388222411 122.21599564724602,87.21365721238544 122.08378672460094,86.24048021651106 121.81936887907796,85.7538911223528 120.58541893330403,85.85120897274464 120.05658324249089,85.55925537319854 119.21926006511785,85.51059642602922 117.89717083773576,85.6565732556628 117.3242655058857,84.97534774465021 115.6496191509068,85.02400673541706 113.93090315535665,85.21864265936892 111.85963003244251,84.73205273039639 111.19858541875146,84.78071174124489 109.52393906400539,84.63473469688324 109.47986942320131,83.85618985624751 109.56800870480947,83.2722805577796 109.87649619136937,82.8343482085038 110.14091403689235,82.20177869079635 110.22905331873335,81.66652703564614 109.92056583217345,80.54736292961752 109.96463547321036,80.54736292961752 109.92056583217345,79.91479098278796 109.92056583217345,78.99026154418243 109.92056583217345,78.16304977732943 110.18498367769644,76.80058083322365 110.27312295953743,75.09749026980717 110.40533188218251,73.29707494971808 110.09684439585544,73.05377516464796 109.65614798665047,72.9077952458174 109.78835690929554,72.12923507485539 109.4357997821644,71.69129453145433 108.0255712729413,71.9345948730479 107.76115342718549,72.12923507485539 106.17464635451324,72.12923507485539 106.08650707267225,72.03191498189699 105.99836779106408,71.69129453145433 106.7475516863633,70.62077184708323 106.79162132716738,69.30694592260988 107.18824809556827,67.26321094523882 106.79162132716738,66.82526682328898 105.2932535361033,66.92258776718518 104.85255712713115,67.21455050312215 104.80848748609424,67.60383392852964 104.85255712713115,67.26321094523882" stroke="#00AFAA" stroke-linecap="round" stroke-linejoin="round" stroke-width="1"><title>2025-09-16 5.0km</title><desc>15826448404</desc></polyline><polyline fill="none" points="69.41050963383168,192.28888020652812 69.05780485272408,193.0121288477094 69.46089603123255,192.28888020652812 69.0074184553232,192.90085987612838 68.85625926312059,194.73679558426375 68.55394087964669,196.07201844459632 68.70510007138364,196.79526306741172 68.6043272765819,198.29738406010438 68.6547136742156,198.85372432757868 68.6043272765819,199.29879621433793 68.85625926312059,200.41147465846734 68.70510007138364,200.91217936517205 68.25162249570712,201.24598229827825 67.9996905089356,201.63541884691222 67.89891771413386,202.3586575606023 68.20123609807342,203.08189550618408 68.15084970067255,203.58259824936977 67.94930411153473,203.80513268359937 67.64698572759517,203.9163998735021 67.49582653562538,204.30583489488345 67.54621293302625,205.02907077228883 67.69737212499604,205.30723821290303 67.54621293302625,206.97624047048157 67.29428094648756,208.1445396168274 67.39505374105647,209.8135349204531 67.29428094648756,211.70505798637168 67.3446673436556,213.98600528371753 67.54621293302625,214.76486358663533 67.49582653562538,215.26555773959262 67.64698572759517,215.87751676002517 67.5965993301943,216.15567976929015 67.74775852216408,216.43384266505018 67.69737212499604,216.82327052816981 67.89891771413386,217.99155278108083 67.84853131696582,218.38097975339042 67.49582653562538,218.7704065029975 62.35641400888562,222.10834093671292 61.34868606249802,222.83155790762976 60.94559488375671,223.2209821123397 60.64327650004998,223.33224612980848 60.24018532130867,223.3878781318781 59.98825333476998,223.4991421221057 59.8370941428002,223.77730201836675 59.53477575886063,223.83293398405658 59.48438936145976,224.3336214700248 59.736321348231286,224.77867670427077 59.8370941428002,225.4462590101757 60.08902612933889,226.11384066182654 60.08902612933889,226.44763124216115 59.93786693736911,226.6701582047972 59.53477575886063,226.83705337916035 58.67820700420998,226.94831680587959 58.224729428533465,227.1708436050685 56.96506949537434,227.22647529357346 56.56197831686586,227.39337033143966 56.058114343555644,227.39337033143966 55.302318383706734,227.72716028470313 54.19381764298305,227.94968682952458 53.53879447747022,228.17221330129541 52.581452928483486,228.28347651002696 51.27140659815632,228.11658169003204 50.91870181658305,228.45037128892727 50.71715622767806,229.00668692355976 50.81792902224697,230.61999969393946 51.069861008785665,231.00941944523947 51.57372498209588,231.23194491746835 51.775270571233705,231.676995643822 51.4225657901261,232.0664147908101 51.37217939272523,232.34457118803402 51.62411137926392,233.12340849585598 51.775270571233705,233.12340849585598 51.069861008785665,233.34593327739276 50.969088214216754,233.6240891519701 51.32179299532436,235.96059401443927 51.32179299532436,236.62816536001628 51.22102020075545,237.01758167613298 51.32179299532436,237.51825946976896 51.22102020075545,237.96330608829157 51.32179299532436,239.29844419943402 51.069861008785665,240.85610202112002 51.120247406186536,241.80182110361056 50.91870181658305,242.13560399552807 50.86831541941501,242.41375628078822 50.969088214216754,243.0813213015208 50.81792902224697,243.74888566794107 50.969088214216754,244.24955851346022 50.86831541941501,244.97275197395356 50.969088214216754,245.91846534062643 50.969088214216754,246.69728712720098 51.120247406186536,247.8098881348269 50.969088214216754,248.47744786698604 51.069861008785665,249.4787862385856 51.120247406186536,252.26027399196755 50.86831541941501,253.09471810300602 50.969088214216754,254.20730866113445 50.91870181658305,255.04175038728863 51.069861008785665,255.70930303208297 50.969088214216754,256.7106307729846 51.120247406186536,257.71195704163983 51.17063380358741,258.99142735428177 50.76754262461327,261.27221629896667 50.969088214216754,261.55036076996475 51.019474611617625,262.10664937086403 51.32179299532436,262.32916468416806 51.17063380358741,263.8867698414251 49.20556430774741,263.8867698414251 47.03894922300242,264.6099424538552 46.33353966032155,264.6099424538552 46.23276686598547,264.6099424538552 46.38392605795525,264.5543138187495 46.23276686598547,264.4986851789872 45.930448482045904,264.6655710846535 45.62813009787351,264.94371416996 44.92272053542547,265.2218571417616 43.00803743721917,265.5 42.80649184808135,265.3331142986426 42.65533265611157,264.4430565345683 42.403400669340044,264.05365589715075 41.748377504292876,263.21922521013767 41.59721831209026,263.163596461236 41.3452863257844,263.2748539544991 41.2948999281507,263.21922521013767 41.647604709723964,263.163596461236 41.94992309366353,262.5516799247125 43.814219794468954,262.16227820608765 43.51190141052939,262.38479350099806 43.6126742050983,262.10664937086403 43.51190141052939,261.88413398509147 42.25224147760309,261.4391029952676 42.05069588823244,261.4947318849154 41.748377504292876,261.3834741010796 42.504173464141786,261.7728762649349 42.504173464141786,261.93976283835946 42.403400669340044,262.05102053115843 42.65533265611157,261.93976283835946 42.75610545068048,261.6616185263265 43.058423834620044,261.7172473979299 42.15146868256852,261.4947318849154 41.647604709723964,261.27221629896667 40.53910396876745,255.87619109108346 40.63987676310353,256.37685502291424 40.89180874964222,256.26559640298365 40.942195147275925,255.93182043504203 40.84142235224135,255.70930303208297 40.79103595530614,255.70930303208297 40.74064955767244,255.93182043504203 40.84142235224135,256.04307910928037 40.74064955767244,256.87751858640695 40.89180874964222,256.98877710622037 40.992581544443965,256.1543377652997 41.748377504292876,254.93049154948676 41.59721831209026,255.1530092068715 41.748377504292876,256.2099670864409 41.59721831209026,256.04307910928037 42.75610545068048,256.04307910928037 43.46151501312852,254.93049154948676 43.159196629421785,255.5424149322207 43.36074221855961,255.37552679138025 43.46151501312852,255.48678555642255 42.504173464141786,256.4881136242766 42.15146868256852,256.6550014925888 41.849150298628956,256.543742918293 41.748377504292876,256.87751858640695 41.748377504292876,256.09870843950193 42.453787066740915,256.2099670864409 42.00030949083157,255.65367367008002 41.748377504292876,255.1530092068715 41.849150298628956,255.48678555642255 41.748377504292876,255.26426800823538 41.849150298628956,255.37552679138025 41.748377504292876,255.4311561762588 41.697991106892005,255.3198974020779 41.748377504292876,255.65367367008002 42.15146868256852,255.5424149322207 42.453787066740915,255.70930303208297 42.30262787477113,255.8205617426429 42.25224147760309,255.9874497745186 42.30262787477113,257.2112940911902 45.17465252196416,259.380830885435 44.72117494628765,259.3252018232597 44.92272053542547,259.2695727563696 45.17465252196416,259.380830885435 45.72890289244242,258.99142735428177 45.88006208464503,258.99142735428177 42.353014272172004,258.1569904664648 42.353014272172004,257.9901029661414 42.453787066740915,257.9901029661414 42.70571905327961,258.43513620924205 42.75610545068048,258.8245400584419 42.95765104005113,259.04705644369824 43.2599694239907,259.2139436849393 43.66306060249917,259.04705644369824 41.748377504292876,260.88281384896254 41.697991106892005,261.04970064066583 41.79876390169375,261.16095847898396 41.39567272295244,260.8271849096054 41.14374073641375,260.38215322908945 41.54683191515505,259.7146051636664 41.647604709723964,259.6589761285577 41.94992309366353,259.7702341940021 41.748377504292876,262.4960511214449 42.00030949083157,262.4960511214449 42.30262787477113,262.21790703665465 42.15146868256852,262.4404223135207 41.647604709723964,262.4404223135207 41.24451353098266,262.9410814206931 41.2948999281507,262.88545264920685 41.748377504292876,263.05233895010315 42.554559861309826,262.8298238731222 43.058423834620044,262.4960511214449 44.11653817840852,262.16227820608765 44.16692457580939,262.05102053115843 44.11653817840852,261.7172473979299 44.2676973703783,261.55036076996475 44.82194774085656,261.4391029952676 45.42658450873569,261.04970064066583 45.62813009787351,260.54904014320346 45.67851649550721,259.1583146091434 45.52735730353743,258.4907653441187 45.47697090590373,255.59804430353688 45.47697090590373,255.37552679138025 45.17465252196416,254.93049154948676 45.22503891936503,254.4854560169042 45.47697090590373,254.20730866113445 45.930448482045904,254.04042019334156 46.63585804449394,254.09604968712665 47.08933562040329,253.98479069489986 47.19010841520503,253.87353168445406 47.24049481237307,253.53975454438478 47.08933562040329,251.9264960611472 47.08933562040329,250.59138270281255 47.24049481237307,249.200636838621 47.19010841520503,248.97811723675113 47.24049481237307,248.42181791417534 47.08933562040329,246.86417739419267 47.24049481237307,245.2509031004156 47.19010841520503,241.13425482873572 47.08933562040329,240.07727355556563 47.24049481237307,239.29844419943402 47.19010841520503,238.5752447139821 47.34126760694198,237.46262862195726 47.34126760694198,234.5141871875967 47.29088120954111,233.34593327739276 46.98856282583438,232.67835871473653 46.63585804449394,232.34457118803402 46.58547164709307,232.12204607931199 46.736630839062855,231.89952089783037 47.08933562040329,231.62136431888212 47.34126760694198,231.23194491746835 47.34126760694198,229.61863359669223 47.492426798911765,229.11794999591075 47.24049481237307,228.33910810761154 46.63585804449394,227.5602653286769 46.63585804449394,227.3377386566135 46.736630839062855,227.22647529357346 46.98856282583438,227.22647529357346 47.13972201757133,227.39337033143966 47.13972201757133,227.50463366747135 46.98856282583438,227.5602653286769 46.736630839062855,227.22647529357346 46.787017236463726,226.89268509484828 46.081607674015686,226.61452647083206 46.131994071183726,226.6701582047972 46.081607674015686,226.39199949009344 46.28315326338634,226.11384066182654 46.33353966032155,225.83568171970546 46.18238046835177,225.61315448448295 45.88006208464503,225.39062717638444 45.67851649550721,225.16809979558457 46.081607674015686,225.4462590101757 46.131994071183726,225.55752266419586 46.081607674015686,225.7244181112619 45.72890289244242,226.11384066182654 45.72890289244242,226.33636773354374 45.88006208464503,226.44763124216115 46.23276686598547,226.44763124216115 46.686244441894814,226.78142165893223 46.88779003103264,226.78142165893223 47.29088120954111,226.50326298963046 47.13972201757133,225.7244181112619 47.08933562040329,224.55614912352758 47.19010841520503,223.94419790175743 47.13972201757133,222.94282198871952 47.24049481237307,221.10696232441114 47.19010841520503,219.49362701870268 47.34126760694198,217.82465543900616 47.24049481237307,216.1000471765292 47.34126760694198,215.43245570879662 47.19010841520503,213.59657579811756 47.34126760694198,212.48391889809864 47.08933562040329,211.70505798637168 47.08933562040329,210.42549884016626 47.34126760694198,209.4241030488629 47.29088120954111,206.6980737115955 47.391654004342854,206.19737325946335 47.542813196312636,206.03047302679624 47.94590437482111,205.974839606788 48.248222758760676,205.86357275320916 49.35672349971719,205.974839606788 50.76754262461327,205.80793931975495 50.91870181658305,205.52977208350785 50.71715622767806,204.6396361645311 50.66676983027719,203.6382318647229 51.019474611617625,202.9706281799008 50.71715622767806,202.52555869321804 50.71715622767806,201.07908085215604 50.66676983027719,200.80091168434592 50.76754262461327,200.3558407794335 50.76754262461327,199.1318942910293 50.66676983027719,198.85372432757868 50.66676983027719,196.18328689807095 50.71715622767806,195.62694444868248 50.66676983027719,194.90369858487975 50.71715622767806,194.29172071570065 50.86831541941501,194.18045195291052 50.66676983027719,193.9022799670347 50.61638343287632,193.23466673668008 50.66676983027719,192.73395638441434 50.56599703570828,192.28888020652812 50.61638343287632,191.28745774290292 50.51561063807458,189.56278226949507 50.61638343287632,189.11770401871763 50.56599703570828,187.5599278502632 50.71715622767806,187.44865798740648 51.069861008785665,187.50429292116314 51.120247406186536,187.39302304945886 51.22102020075545,186.72540343675064 51.4225657901261,185.89087800047128 53.186089696129784,184.94508126936853 54.9496136023663,185.00071640743408 55.403091178508475,184.8338109793258 56.058114343555644,184.8338109793258 56.56197831686586,185.05635154125048 56.56197831686586,185.16762179491343 56.41081912489608,185.33452714123996 57.11622868734412,185.05635154125048 57.31777427671477,185.16762179491343 57.67047905782238,185.2232569148182 58.12395663373172,185.5570675394265 58.12395663373172,185.50143244682113 58.67820700420998,185.39016224752413 59.13168458011933,185.16762179491343 59.93786693736911,185.16762179491343 60.24018532130867,185.05635154125048 60.59289010264911,185.05635154125048 60.89520848658867,185.33452714123996 61.096754075726494,185.72397279029246 61.55023165186867,186.00214811763726 62.10448202257976,185.94651306129526 62.658732392825186,185.6127026276081 63.263369160704315,185.44579734944273 63.66646033944562,185.50143244682113 63.918392325984314,185.66833771119127 64.32148350449279,185.72397279029246 64.37186990189366,185.44579734944273 64.17032431252301,185.2232569148182 63.414528352441266,184.55563517467817 63.01143717393279,184.55563517467817 62.80989158479497,184.66690551006468 62.557959598256275,184.5 61.95332283037715,184.8338109793258 61.24791326792911,184.8338109793258" stroke="#00AFAA" stroke-linecap="round" stroke-linejoin="round" stroke-width="1"><title>2025-09-13 5.4km</title><desc>15794483312</desc></polyline><polyline fill="none" points="159.3776524075074,189.53937167400727 159.35127139394172,189.68501719494816 159.82612963870633,191.08321116844309 160.0107967336662,191.1997270853608 156.47574091237038,190.2967277331918 156.0272636814043,189.8306626563426 156.1855497629149,189.51024256271194 159.82612963870633,191.3745008893602 160.48565497843083,191.4036298483261 159.3776524075074,191.1123401512159 161.27708538621664,191.7240482402558 161.62003856291994,191.49101671102108 161.62003856291994,191.95707961716107 161.32984741334803,193.7630676230474 161.09241829102393,195.30688882659888 160.77584612788633,198.83143670947175 160.59117903292645,199.32661833116435 160.64394105994143,199.64702960225986 161.06603727734182,199.82179926516255 161.14518031815533,200.724774491915 160.88137018238194,201.62774743171758 161.01327525021043,205.12310499395244 161.19794234540313,207.01640936650801 157.900315646315,209.23010634540697 157.2671713202726,209.49225376165123 156.8714561163215,210.10393031692365 156.8714561163215,210.65735105797648 156.3965978716733,210.65735105797648 154.99840415129438,211.56029884438612 153.65297245816328,212.05546278867405 152.78239900968038,212.05546278867405 152.30754076503217,212.31760812789435 152.33392177848145,213.24967888442916 152.75601799611468,213.71571334905457 152.57135090080556,214.12349300598726 152.46582684665918,216.91968380616163 152.49220786010846,218.2595174612652 152.30754076503217,219.33720609618467 152.28115975135006,220.12362547710654 152.41306481929496,222.24986178730614 152.38668380572926,225.24987228028476 152.41306481929496,226.96831352511072 152.43944583297707,228.6284946607193 152.41306481929496,230.95856041341904 152.49220786010846,229.93915851967176 152.72963698243257,230.75468026776798 150.03877359617036,231.10418901764206 149.90686852810904,231.1915661515377 149.27372420195024,231.36632035524235 147.61172034556512,231.6284515001753 146.8994329785928,231.7449541693495 143.1797100622207,231.7740798307932 143.02142398059368,232.09446194887278 142.5201847224962,232.32746694484376 141.7815163419582,232.35659255867358 140.46246566227637,232.35659255867358 139.45998714584857,232.41484377917368 138.98512890120037,233.6381172114052 139.11703396914527,238.6476694031153 139.09065295557957,243.83189933898393 139.09065295557957,246.8317283176293 139.14341498271096,248.28794688242488 139.03789092833176,250.18102213009843 139.06427194201387,252.45269916785765 139.19617700984236,254.6661141635559 139.09065295557957,256.96688624852686 139.06427194201387,257.9570873892226 139.11703396914527,259.2676434968889 138.16731747984886,259.3550137329148 137.11207693617325,259.4132605451159 136.87464781384915,259.4423839476076 135.89855031098705,259.5588775337674 134.47397557704244,259.79186459214543 133.5506401011953,259.73361784181907 132.02054131298792,259.87923469988164 131.3346349595813,259.646247698518 129.30329691292718,259.87923469988164 129.03948677703738,259.646247698518 128.8284386683954,259.646247698518 128.19529434212018,259.5880009243847 128.3535804237472,259.99572814349085 128.43272346444428,261.1897837475117 128.72291461389977,262.2382195198734 128.8812006955268,263.2866522115946 129.1186298178509,264.04385168416775 130.7278716469882,264.33508182276273 132.38987550325692,264.33508182276273 133.94635530514643,264.3059588196047 134.65864267223515,264.1894667831366 135.29178699827753,264.21858979584067 136.26788450125605,264.21858979584067 136.90102882753126,264.1312207507435 137.79798328946345,264.21858979584067 138.06179342546966,264.88841843116097 138.03541241178755,265.5 137.79798328946345,264.8010495500057 137.66607822163496,264.21858979584067 136.79550477303565,264.1312207507435 136.05683639249764,264.1020977309381 135.52921612071805,264.1312207507435 133.31321097898763,264.3059588196047 132.75920969352592,264.4224508179177 131.8622552313609,264.39332782194833 130.0419652935816,264.3059588196047 129.32967792649288,263.8982365258562 128.8548196819611,262.2382195198734 128.3535804237472,259.6171243126737 128.61739055952057,259.3258903233218 129.356058940175,259.5880009243847 131.1499678643886,259.52975414076354 131.7039691498503,259.4423839476076 132.4426375303883,259.52975414076354 134.10464138677344,259.3550137329148 135.71388321567792,259.4132605451159 136.63721869152505,259.3258903233218 137.21760099055246,259.1802732395008 137.74522126221564,259.1802732395008 137.85074531671125,259.00553266046336 137.79798328946345,258.2191989957937 138.00903139833827,257.92796386542614 139.03789092833176,257.78234621108277 139.30170106433798,257.6076049473486 138.90598586038686,256.18054809083696 139.01150991476607,253.18079772152123 139.01150991476607,250.85087711931556 138.98512890120037,248.95780542606371 138.95874788751826,245.87062080862233 138.95874788751826,240.51167086380883 138.90598586038686,237.0166601347155 138.90598586038686,236.40502973631374 138.95874788751826,234.27887781104073 138.95874788751826,232.44396938584396 139.85570234956685,232.32746694484376 140.85818086622749,232.50222059199587 141.80789735540748,232.32746694484376 143.0478049942758,232.24009008926805 143.0478049942758,231.71582850563573 143.3643771574134,231.7449541693495 145.71228736708872,231.71582850563573 146.8994329785928,231.71582850563573 148.19210264470894,230.871183222509 148.32400771253742,230.08478753996314 147.95467352226842,230.08478753996314 147.82276845432352,230.95856041341904 147.87553048168775,231.5702001512691 147.55895831855014,231.59932582694455 146.7675279106479,231.65757717110682 143.6281872933032,231.71582850563573 143.5490442524897,231.7740798307932 145.84419243503362,231.7449541693495 146.1871456116205,231.71582850563573 147.63810135924723,231.54107447320712 148.87800899811555,231.337194660533 149.69582041935064,231.22069185815053 150.30258373206016,231.0459375831124 152.51858887367416,230.05566174071282 152.33392177848145,228.71587240110966 152.33392177848145,227.92947196649038 152.25477873778436,225.62851258774754 152.38668380572926,223.93919118857593 152.33392177848145,222.104229567718 152.36030279216357,221.20130847900873 152.41306481929496,219.97799238938023 152.22839772421867,219.97799238938023 152.25477873778436,219.1915726872685 152.49220786010846,216.71579563472187 152.83516103692818,213.83222187004867 152.46582684665918,213.48269619283383 152.28115975135006,212.49237158035976 152.59773191448767,211.90982640587026 153.46830536297057,212.0263355168281 154.65545097459108,211.67680806963472 155.42050036869477,211.47291690044221 156.0800257085357,211.2107709402335 156.422978885239,210.65735105797648 156.8450751027558,210.77386057836702 156.792313075508,210.86124269352877 157.1352662522113,210.45345930592157 157.3726953745354,209.69614606333198 158.6653650405351,209.05534129409352 159.1138422716176,208.58930073847296 159.7469865977764,208.23976992210373 159.87889166583773,208.15238716444583 160.85498916869983,207.3950690345955 161.43537146761082,207.0746647262422 161.25070437265094,205.23961632259306 161.11879930458963,204.3949083276093 161.03965626377612,202.21030940508354 161.25070437265094,200.25872304753284 161.48813349497505,199.5305164460733 161.14518031815533,199.44313155399868 161.03965626377612,197.89932826155564 161.17156133183744,195.83120394093567 161.27708538621664,195.04473098026938 161.56727653567214,193.38439347664826 161.83108667156193,191.52014566047 161.59365754923783,191.4036298483261 159.87889166583773,191.6657903722371 159.40403342118952,191.89882178715197 159.2721283531282,191.3453719279496 159.90527267951984,190.6754051593307 159.35127139394172,190.47150197983137 159.21936632599682,190.38411486713449 159.40403342118952,189.5685007829452 159.19298531243112,189.39372609349084 159.14022328529973,189.33546784470673 158.79727010848,189.33546784470673 158.5862219997216,189.36459697032114 158.32241186394822,189.33546784470673 158.03222071449272,188.81114317663014 158.26964983681682,188.78201400581747 157.8475536191836,185.89821431064047 157.8739346328657,185.89821431064047 157.8739346328657,185.75256724242354 157.900315646315,185.92734371707775 157.97945868724491,185.95647312115761 158.5862219997216,184.7330360992346 158.40155490476172,187.908137773833 158.5598409861559,189.42285521439044 157.8475536191836,185.89821431064047 157.8739346328657,185.89821431064047 157.2407903065905,185.98560252290918 157.5046004425967,186.83035413752077 157.9266966599971,185.92734371707775 157.8475536191836,187.1799059442419 158.26964983681682,188.17030086845625 158.2432688231347,188.46159296951373" stroke="#00AFAA" stroke-linecap="round" stroke-linejoin="round" stroke-width="1"><title>2025-09-12 11.5km</title><desc>15784793735</desc></polyline></svg>