<?xml version="1.0" encoding="utf-8" ?>
<svg baseProfile="full" height="300mm" version="1.1" viewBox="0,0,200,300" width="200mm" xmlns="http://www.w3.org/2000/svg" xmlns:ev="http://www.w3.org/2001/xml-events" xmlns:xlink="http://www.w3.org/1999/xlink"><defs /><rect fill="#f5f5f5" height="300" rx="1" ry="1" width="200" x="0" y="0" /><text fill="#006cb8" style="font-size:12px; font-family:MGI-Regular; font-weight:bold;" x="10" y="20">超过5公里的活动</text><text fill="#006cb8" style="font-size:4px; font-family:MGI-Regular" x="10" y="280">Runner</text><text fill="#006cb8" style="font-size:9px; font-family:Arial" x="10" y="290">XHH</text><text fill="#006cb8" style="font-size:4px; font-family:MGI-Regular" x="65" y="280">特殊的活动</text><rect fill="yellow" height="2.6" rx="1" ry="1" width="2.6" x="65" y="283" /><text fill="#006cb8" style="font-size:3px; font-family:MGI-Regular" x="70" y="285.5">大于 20.0 km</text><rect fill="red" height="2.6" rx="1" ry="1" width="2.6" x="65" y="287" /><text fill="#006cb8" style="font-size:3px; font-family:MGI-Regular" x="70" y="289.5">大于 40.0 km</text><text fill="#006cb8" style="font-size:4px; font-family:MGI-Regular" x="120" y="280">数据</text><text fill="#006cb8" style="font-size:3px; font-family:MGI-Regular" x="120" y="285">次数: 3</text><text fill="#006cb8" style="font-size:3px; font-family:MGI-Regular" x="120" y="290">周均次: 1.5</text><text fill="#006cb8" style="font-size:3px; font-family:MGI-Regular" x="141" y="285">所有: 21.9 km</text><text fill="#006cb8" style="font-size:3px; font-family:MGI-Regular" x="141" y="290">平均: 7.3 km</text><text fill="#006cb8" style="font-size:3px; font-family:MGI-Regular" x="167" y="285">最少: 5.0 km</text><text fill="#006cb8" style="font-size:3px; font-family:MGI-Regular" x="167" y="290">最多: 11.5 km</text><polyline fill="none" points="20.75788900954649,71.64263445104007 20.44940152321942,72.37253523775144 20.09684439585544,73.1997550476226 20.361262241378427,73.83233412692789 20.184983677696437,75.43810877215583 20.140914036892354,75.29212943778839 20.09684439585544,75.92470629460877 19.832426550332457,77.38449647679226 19.568008704809472,78.26036886853399 19.70021762768738,79.81747216207441 19.744287268724293,80.7906596530811 20.05277475481853,81.958482543414 19.435799782164395,83.1263031437993 19.391730141127482,83.95350801682798 19.52393906400539,84.58607567416038 21.022306855302304,84.82937074801885 22.91730141430162,84.68339371553157 23.84276387351565,84.73205273039639 25.120783460093662,84.68339371553157 26.090315560111776,84.92668874975061 27.324265505885705,84.97534774465021 28.073449401417747,85.07266572245862 29.527747551444918,84.97534774465021 30.27693144697696,84.82937074801885 30.365070728817955,85.55925537319854 30.27693144697696,85.99718571914127 30.585418933304027,85.99718571914127 31.599020674591884,85.94852680765325 31.90750816068612,86.53243348217802 32.524483133573085,87.99219766416354 32.65669205645099,88.2841500712675 32.61262241541408,88.13817388558527 32.877040260937065,88.43012622103561 33.31773667014204,88.72207841341151 33.62622415646911,88.81939577910816 33.405875951983035,89.01403046271298 33.67029379750602,89.25732372776838 35.12459194753319,89.01403046271298 35.565288356738165,87.8462214069441 35.741566920420155,87.8462214069441 35.78563656122424,87.79756264662137 37.50435255677439,86.87304544477956 38.73830250254832,86.33779798768228 39.39934711623937,86.24048021651106 39.35527747543529,85.6565732556628 39.663764961762354,84.63473469688324 40.589227420976385,82.20177869079635 41.51468988019042,81.42323066963581 42.7927094665356,81.90982330212137 44.07072905311361,82.49373393633869 45.12840043497272,83.17496228584787 47.28781283972785,84.97534774465021 48.21327529917471,85.80255004961509 48.96245919470675,86.09450353001012 49.27094668103382,86.77572776097804 50.10826985840686,85.80255004961509 50.72524483129382,85.12132470548386 51.12187159946188,84.34278050082503 51.694776931311935,83.2722805577796 52.5321001089178,83.1263031437993 52.5321001089178,83.3209396879538 53.14907508157194,84.24546240369091 53.76605005422607,83.71021258522524 54.60337323159911,83.2236214238219 55.088139281608164,83.2722805577796 56.145810663700104,82.34775633132085 57.600108813960105,81.81250480742892 58.43743199133314,81.3259120953735 59.31882480951026,80.10942857631017 60.50870511401445,79.13623997196555 61.52230685506947,78.50366652646335 62.095212187152356,78.16304977732943 63.02067464636639,77.48181569494773 63.90206746454351,76.65460183296818 65.1360174100846,75.92470629460877 66.32589771482162,74.90285103803035 67.33949945564382,74.41625268064672 69.41077257879078,73.63769448176026 71.8346028290689,72.85913526505465 74.52285092510283,71.64263445104007 76.59412404778413,70.9127327700262 77.91621327516623,70.62077184708323 78.5331882480532,70.18283019441878 80.38411316648126,69.89086891361512 81.35364526649937,69.8422086861101 83.07236126228236,69.30694592260988 84.21817192574963,68.82034299266525 85.80467899888754,66.82526682328898 86.5097932536155,66.19268030073727 88.66920565837063,63.66232749068877 89.99129488575272,62.54312954877969 91.53373231762089,61.910538477415685 92.50326441787183,61.76455582707422 93.78128400421701,61.521251330152154 94.3541893362999,60.83999821008183 95.36779107735492,60.83999821008183 95.5,61.32660766108893 95.2796517952811,62.64045119244838 94.97116430918686,62.883755232032854 94.92709466814995,62.64045119244838 94.88302502711304,62.7377728203428 95.05930359079503,62.59179037268041 94.39825897710398,62.299825370078906 94.75081610446796,62.00786022434477 94.31011969526298,61.95919935288839 94.08977149077691,62.05652109195944 93.78128400421701,62.34848621377023 93.91349292709492,62.25116452248767 93.25244831340387,62.34848621377023 68.39717083773576,73.34573489479953 66.36996735585853,75.09749026980717 66.36996735585853,75.24346965178847 65.97334058769047,75.43810877215583 64.25462459167466,76.26532432384556 62.66811751900241,77.43315608781995 60.640914036892354,78.94160206039669 59.583242655033246,79.72015332547016 59.27475516847335,80.45004421210615 58.48150163190439,81.03395627753343 58.525571272941306,80.98529696057085 55.264417845290154,82.59105231956346 54.7796517952811,83.07764399790904 54.07453754055314,83.71021258522524 52.66430903156288,83.2236214238219 52.047334058443084,83.07764399790904 51.60663764947094,83.2722805577796 51.29815016314387,83.46691705437843 51.29815016314387,84.19680334918667 51.25408052233979,84.0508261618088 50.90152339474298,84.73205273039639 50.416757344733924,85.21864265936892 49.44722524471581,85.99718571914127 49.05059847631492,86.09450353001012 48.52176278573461,86.04584462649655 47.64036996732466,85.31596059747972 46.05386289418675,84.0508261618088 43.58596300310455,82.39641553693218 42.35201305733062,81.52054922800744 41.5587595209945,80.98529696057085 40.765505984658375,80.54736292961752 39.79597388440743,80.30406610638602 37.6365614796523,80.35272547887871 36.22633297066204,80.15808796486817 35.43307943409309,80.30406610638602 34.331338411197066,80.0121097874362 31.995647442527115,80.06076918391045 31.55495103355497,80.6933409756166 31.775299238041043,82.10446024383418 32.12785636540502,83.07764399790904 32.171926006441936,84.44009858218487 32.348204569891095,85.12132470548386 32.61262241541408,85.94852680765325 33.00924918358214,86.77572776097804 33.44994559301995,87.74890388222411 33.53808487462811,87.70024511398515 33.36180631094612,87.99219766416354 33.053318824619055,87.8948801633669 32.92110990197398,87.74890388222411 32.21599564724602,87.21365721238544 32.08378672460094,86.24048021651106 31.819368879077956,85.7538911223528 30.585418933304027,85.85120897274464 30.056583242490888,85.55925537319854 29.21926006511785,85.51059642602922 27.897170837735757,85.6565732556628 27.324265505885705,84.97534774465021 25.6496191509068,85.02400673541706 23.930903155356646,85.21864265936892 21.85963003244251,84.73205273039639 21.198585418751463,84.78071174124489 19.52393906400539,84.63473469688324 19.479869423201308,83.85618985624751 19.568008704809472,83.2722805577796 19.87649619136937,82.8343482085038 20.140914036892354,82.20177869079635 20.22905331873335,81.66652703564614 19.920565832173452,80.54736292961752 19.964635473210365,80.54736292961752 19.920565832173452,79.91479098278796 19.920565832173452,78.99026154418243 19.920565832173452,78.16304977732943 20.184983677696437,76.80058083322365 20.27312295953743,75.09749026980717 20.40533188218251,73.29707494971808 20.09684439585544,73.05377516464796 19.656147986650467,72.9077952458174 19.788356909295544,72.12923507485539 19.435799782164395,71.69129453145433 18.025571272941306,71.9345948730479 17.76115342718549,72.12923507485539 16.174646354513243,72.12923507485539 16.086507072672248,72.03191498189699 15.998367791064084,71.69129453145433 16.747551686363295,70.62077184708323 16.791621327167377,69.30694592260988 17.18824809556827,67.26321094523882 16.791621327167377,66.82526682328898 15.293253536103293,66.92258776718518 14.85255712713115,67.21455050312215 14.808487486094236,67.60383392852964 14.85255712713115,67.26321094523882" stroke="#00AFAA" stroke-linecap="round" stroke-linejoin="round" stroke-width="1"><title>2025-09-16 5.0km</title><desc>15826448404</desc></polyline><polyline fill="none" points="159.41050963383168,42.28888020652812 159.05780485272408,43.01212884770939 159.46089603123255,42.28888020652812 159.0074184553232,42.90085987612838 158.8562592631206,44.736795584263746 158.5539408796467,46.072018444596324 158.70510007138364,46.795263067411724 158.6043272765819,48.29738406010438 158.6547136742156,48.853724327578675 158.6043272765819,49.298796214337926 158.8562592631206,50.41147465846734 158.70510007138364,50.91217936517205 158.25162249570712,51.24598229827825 157.9996905089356,51.635418846912216 157.89891771413386,52.358657560602296 158.20123609807342,53.08189550618408 158.15084970067255,53.58259824936977 157.94930411153473,53.80513268359937 157.64698572759517,53.91639987350209 157.49582653562538,54.305834894883446 157.54621293302625,55.02907077228883 157.69737212499604,55.30723821290303 157.54621293302625,56.97624047048157 157.29428094648756,58.14453961682739 157.39505374105647,59.813534920453094 157.29428094648756,61.705057986371685 157.3446673436556,63.98600528371753 157.54621293302625,64.76486358663533 157.49582653562538,65.26555773959262 157.64698572759517,65.87751676002517 157.5965993301943,66.15567976929015 157.74775852216408,66.43384266505018 157.69737212499604,66.82327052816981 157.89891771413386,67.99155278108083 157.84853131696582,68.38097975339042 157.49582653562538,68.7704065029975 152.35641400888562,72.10834093671292 151.34868606249802,72.83155790762976 150.9455948837567,73.2209821123397 150.64327650004998,73.33224612980848 150.24018532130867,73.3878781318781 149.98825333476998,73.4991421221057 149.8370941428002,73.77730201836675 149.53477575886063,73.83293398405658 149.48438936145976,74.33362147002481 149.7363213482313,74.77867670427077 149.8370941428002,75.44625901017571 150.0890261293389,76.11384066182654 150.0890261293389,76.44763124216115 149.9378669373691,76.67015820479719 149.53477575886063,76.83705337916035 148.67820700420998,76.94831680587959 148.22472942853346,77.17084360506851 146.96506949537434,77.22647529357346 146.56197831686586,77.39337033143966 146.05811434355564,77.39337033143966 145.30231838370673,77.72716028470313 144.19381764298305,77.94968682952458 143.53879447747022,78.17221330129541 142.5814529284835,78.28347651002696 141.27140659815632,78.11658169003204 140.91870181658305,78.45037128892727 140.71715622767806,79.00668692355976 140.81792902224697,80.61999969393946 141.06986100878567,81.00941944523947 141.57372498209588,81.23194491746835 141.7752705712337,81.67699564382201 141.4225657901261,82.06641479081009 141.37217939272523,82.34457118803402 141.62411137926392,83.12340849585598 141.7752705712337,83.12340849585598 141.06986100878567,83.34593327739276 140.96908821421675,83.62408915197011 141.32179299532436,85.96059401443927 141.32179299532436,86.62816536001628 141.22102020075545,87.01758167613298 141.32179299532436,87.51825946976896 141.22102020075545,87.96330608829157 141.32179299532436,89.29844419943402 141.06986100878567,90.85610202112002 141.12024740618654,91.80182110361056 140.91870181658305,92.13560399552807 140.868315419415,92.41375628078822 140.96908821421675,93.0813213015208 140.81792902224697,93.74888566794107 140.96908821421675,94.24955851346022 140.868315419415,94.97275197395356 140.96908821421675,95.91846534062643 140.96908821421675,96.69728712720098 141.12024740618654,97.8098881348269 140.96908821421675,98.47744786698604 141.06986100878567,99.4787862385856 141.12024740618654,102.26027399196755 140.868315419415,103.09471810300602 140.96908821421675,104.20730866113445 140.91870181658305,105.04175038728863 141.06986100878567,105.70930303208297 140.96908821421675,106.71063077298459 141.12024740618654,107.71195704163983 141.1706338035874,108.99142735428177 140.76754262461327,111.27221629896667 140.96908821421675,111.55036076996475 141.01947461161762,112.10664937086403 141.32179299532436,112.32916468416806 141.1706338035874,113.88676984142512 139.2055643077474,113.88676984142512 137.03894922300242,114.60994245385518 136.33353966032155,114.60994245385518 136.23276686598547,114.60994245385518 136.38392605795525,114.5543138187495 136.23276686598547,114.49868517898722 135.9304484820459,114.6655710846535 135.6281300978735,114.94371416996 134.92272053542547,115.22185714176157 133.00803743721917,115.5 132.80649184808135,115.33311429864261 132.65533265611157,114.44305653456831 132.40340066934004,114.05365589715075 131.74837750429288,113.21922521013767 131.59721831209026,113.16359646123601 131.3452863257844,113.27485395449912 131.2948999281507,113.21922521013767 131.64760470972396,113.16359646123601 131.94992309366353,112.55167992471252 133.81421979446895,112.16227820608765 133.5119014105294,112.38479350099806 133.6126742050983,112.10664937086403 133.5119014105294,111.88413398509147 132.2522414776031,111.4391029952676 132.05069588823244,111.49473188491538 131.74837750429288,111.38347410107963 132.5041734641418,111.7728762649349 132.5041734641418,111.93976283835946 132.40340066934004,112.05102053115843 132.65533265611157,111.93976283835946 132.75610545068048,111.66161852632649 133.05842383462004,111.7172473979299 132.15146868256852,111.49473188491538 131.64760470972396,111.27221629896667 130.53910396876745,105.87619109108346 130.63987676310353,106.37685502291424 130.89180874964222,106.26559640298365 130.94219514727592,105.93182043504203 130.84142235224135,105.70930303208297 130.79103595530614,105.70930303208297 130.74064955767244,105.93182043504203 130.84142235224135,106.04307910928037 130.74064955767244,106.87751858640695 130.89180874964222,106.98877710622037 130.99258154444396,106.15433776529972 131.74837750429288,104.93049154948676 131.59721831209026,105.1530092068715 131.74837750429288,106.20996708644088 131.59721831209026,106.04307910928037 132.75610545068048,106.04307910928037 133.46151501312852,104.93049154948676 133.15919662942179,105.54241493222071 133.3607422185596,105.37552679138025 133.46151501312852,105.48678555642255 132.5041734641418,106.4881136242766 132.15146868256852,106.65500149258878 131.84915029862896,106.54374291829299 131.74837750429288,106.87751858640695 131.74837750429288,106.09870843950193 132.45378706674092,106.20996708644088 132.00030949083157,105.65367367008002 131.74837750429288,105.1530092068715 131.84915029862896,105.48678555642255 131.74837750429288,105.26426800823538 131.84915029862896,105.37552679138025 131.74837750429288,105.43115617625881 131.697991106892,105.31989740207791 131.74837750429288,105.65367367008002 132.15146868256852,105.54241493222071 132.45378706674092,105.70930303208297 132.30262787477113,105.8205617426429 132.2522414776031,105.98744977451861 132.30262787477113,107.21129409119021 135.17465252196416,109.38083088543499 134.72117494628765,109.3252018232597 134.92272053542547,109.2695727563696 135.17465252196416,109.38083088543499 135.72890289244242,108.99142735428177 135.88006208464503,108.99142735428177 132.353014272172,108.15699046646478 132.353014272172,107.99010296614142 132.45378706674092,107.99010296614142 132.7057190532796,108.43513620924205 132.75610545068048,108.82454005844193 132.95765104005113,109.04705644369824 133.2599694239907,109.2139436849393 133.66306060249917,109.04705644369824 131.74837750429288,110.88281384896254 131.697991106892,111.04970064066583 131.79876390169375,111.16095847898396 131.39567272295244,110.82718490960542 131.14374073641375,110.38215322908945 131.54683191515505,109.71460516366642 131.64760470972396,109.6589761285577 131.94992309366353,109.77023419400211 131.74837750429288,112.4960511214449 132.00030949083157,112.4960511214449 132.30262787477113,112.21790703665465 132.15146868256852,112.44042231352068 131.64760470972396,112.44042231352068 131.24451353098266,112.94108142069308 131.2948999281507,112.88545264920685 131.74837750429288,113.05233895010315 132.55455986130983,112.82982387312222 133.05842383462004,112.4960511214449 134.11653817840852,112.16227820608765 134.1669245758094,112.05102053115843 134.11653817840852,111.7172473979299 134.2676973703783,111.55036076996475 134.82194774085656,111.4391029952676 135.4265845087357,111.04970064066583 135.6281300978735,110.54904014320346 135.6785164955072,109.15831460914342 135.52735730353743,108.4907653441187 135.47697090590373,105.59804430353688 135.47697090590373,105.37552679138025 135.17465252196416,104.93049154948676 135.22503891936503,104.48545601690421 135.47697090590373,104.20730866113445 135.9304484820459,104.04042019334156 136.63585804449394,104.09604968712665 137.0893356204033,103.98479069489986 137.19010841520503,103.87353168445406 137.24049481237307,103.53975454438478 137.0893356204033,101.92649606114719 137.0893356204033,100.59138270281255 137.24049481237307,99.200636838621 137.19010841520503,98.97811723675113 137.24049481237307,98.42181791417534 137.0893356204033,96.86417739419267 137.24049481237307,95.2509031004156 137.19010841520503,91.13425482873572 137.0893356204033,90.07727355556563 137.24049481237307,89.29844419943402 137.19010841520503,88.5752447139821 137.34126760694198,87.46262862195726 137.34126760694198,84.51418718759669 137.2908812095411,83.34593327739276 136.98856282583438,82.67835871473653 136.63585804449394,82.34457118803402 136.58547164709307,82.12204607931199 136.73663083906285,81.89952089783037 137.0893356204033,81.62136431888212 137.34126760694198,81.23194491746835 137.34126760694198,79.61863359669223 137.49242679891177,79.11794999591075 137.24049481237307,78.33910810761154 136.63585804449394,77.5602653286769 136.63585804449394,77.33773865661351 136.73663083906285,77.22647529357346 136.98856282583438,77.22647529357346 137.13972201757133,77.39337033143966 137.13972201757133,77.50463366747135 136.98856282583438,77.5602653286769 136.73663083906285,77.22647529357346 136.78701723646373,76.89268509484828 136.0816076740157,76.61452647083206 136.13199407118373,76.67015820479719 136.0816076740157,76.39199949009344 136.28315326338634,76.11384066182654 136.33353966032155,75.83568171970546 136.18238046835177,75.61315448448295 135.88006208464503,75.39062717638444 135.6785164955072,75.16809979558457 136.0816076740157,75.44625901017571 136.13199407118373,75.55752266419586 136.0816076740157,75.72441811126191 135.72890289244242,76.11384066182654 135.72890289244242,76.33636773354374 135.88006208464503,76.44763124216115 136.23276686598547,76.44763124216115 136.68624444189481,76.78142165893223 136.88779003103264,76.78142165893223 137.2908812095411,76.50326298963046 137.13972201757133,75.72441811126191 137.0893356204033,74.55614912352758 137.19010841520503,73.94419790175743 137.13972201757133,72.94282198871952 137.24049481237307,71.10696232441114 137.19010841520503,69.49362701870268 137.34126760694198,67.82465543900616 137.24049481237307,66.10004717652919 137.34126760694198,65.43245570879662 137.19010841520503,63.596575798117556 137.34126760694198,62.483918898098636 137.0893356204033,61.705057986371685 137.0893356204033,60.425498840166256 137.34126760694198,59.42410304886289 137.2908812095411,56.6980737115955 137.39165400434285,56.19737325946335 137.54281319631264,56.030473026796244 137.9459043748211,55.97483960678801 138.24822275876068,55.863572753209155 139.3567234997172,55.97483960678801 140.76754262461327,55.80793931975495 140.91870181658305,55.52977208350785 140.71715622767806,54.63963616453111 140.6667698302772,53.63823186472291 141.01947461161762,52.970628179900814 140.71715622767806,52.525558693218045 140.71715622767806,51.07908085215604 140.6667698302772,50.80091168434592 140.76754262461327,50.35584077943349 140.76754262461327,49.13189429102931 140.6667698302772,48.853724327578675 140.6667698302772,46.183286898070946 140.71715622767806,45.62694444868248 140.6667698302772,44.90369858487975 140.71715622767806,44.29172071570065 140.868315419415,44.180451952910516 140.6667698302772,43.9022799670347 140.61638343287632,43.23466673668008 140.6667698302772,42.73395638441434 140.56599703570828,42.28888020652812 140.61638343287632,41.287457742902916 140.51561063807458,39.562782269495074 140.61638343287632,39.11770401871763 140.56599703570828,37.55992785026319 140.71715622767806,37.44865798740648 141.06986100878567,37.50429292116314 141.12024740618654,37.39302304945886 141.22102020075545,36.72540343675064 141.4225657901261,35.890878000471275 143.18608969612978,34.94508126936853 144.9496136023663,35.00071640743408 145.40309117850848,34.83381097932579 146.05811434355564,34.83381097932579 146.56197831686586,35.05635154125048 146.56197831686586,35.16762179491343 146.41081912489608,35.33452714123996 147.11622868734412,35.05635154125048 147.31777427671477,35.16762179491343 147.67047905782238,35.223256914818194 148.12395663373172,35.5570675394265 148.12395663373172,35.50143244682113 148.67820700420998,35.39016224752413 149.13168458011933,35.16762179491343 149.9378669373691,35.16762179491343 150.24018532130867,35.05635154125048 150.5928901026491,35.05635154125048 150.89520848658867,35.33452714123996 151.0967540757265,35.723972790292464 151.55023165186867,36.00214811763726 152.10448202257976,35.94651306129526 152.6587323928252,35.61270262760809 153.26336916070431,35.44579734944273 153.66646033944562,35.50143244682113 153.9183923259843,35.66833771119127 154.3214835044928,35.723972790292464 154.37186990189366,35.44579734944273 154.170324312523,35.223256914818194 153.41452835244127,34.55563517467817 153.0114371739328,34.55563517467817 152.80989158479497,34.66690551006468 152.55795959825628,34.5 151.95332283037715,34.83381097932579 151.2479132679291,34.83381097932579" stroke="#00AFAA" stroke-linecap="round" stroke-linejoin="round" stroke-width="1"><title>2025-09-13 5.4km</title><desc>15794483312</desc></polyline><polyline fill="none" points="69.37765240750741,189.53937167400727 69.35127139394172,189.68501719494816 69.82612963870633,191.08321116844309 70.01079673366621,191.1997270853608 66.47574091237038,190.2967277331918 66.02726368140429,189.8306626563426 66.18554976291489,189.51024256271194 69.82612963870633,191.3745008893602 70.48565497843083,191.4036298483261 69.37765240750741,191.1123401512159 71.27708538621664,191.7240482402558 71.62003856291994,191.49101671102108 71.62003856291994,191.95707961716107 71.32984741334803,193.7630676230474 71.09241829102393,195.30688882659888 70.77584612788633,198.83143670947175 70.59117903292645,199.32661833116435 70.64394105994143,199.64702960225986 71.06603727734182,199.82179926516255 71.14518031815533,200.724774491915 70.88137018238194,201.62774743171758 71.01327525021043,205.12310499395244 71.19794234540313,207.01640936650801 67.900315646315,209.23010634540697 67.26717132027261,209.49225376165123 66.8714561163215,210.10393031692365 66.8714561163215,210.65735105797648 66.3965978716733,210.65735105797648 64.99840415129438,211.56029884438612 63.652972458163276,212.05546278867405 62.782399009680375,212.05546278867405 62.30754076503217,212.31760812789435 62.333921778481454,213.24967888442916 62.75601799611468,213.71571334905457 62.571350900805555,214.12349300598726 62.46582684665918,216.91968380616163 62.492207860108465,218.2595174612652 62.30754076503217,219.33720609618467 62.28115975135006,220.12362547710654 62.41306481929496,222.24986178730614 62.38668380572926,225.24987228028476 62.41306481929496,226.96831352511072 62.43944583297707,228.6284946607193 62.41306481929496,230.95856041341904 62.492207860108465,229.93915851967176 62.72963698243257,230.75468026776798 60.03877359617036,231.10418901764206 59.906868528109044,231.1915661515377 59.273724201950245,231.36632035524235 57.61172034556512,231.6284515001753 56.89943297859281,231.7449541693495 53.17971006222069,231.7740798307932 53.02142398059368,232.09446194887278 52.5201847224962,232.32746694484376 51.781516341958195,232.35659255867358 50.46246566227637,232.35659255867358 49.45998714584857,232.41484377917368 48.98512890120037,233.6381172114052 49.11703396914527,238.6476694031153 49.09065295557957,243.83189933898393 49.09065295557957,246.8317283176293 49.143414982710965,248.28794688242488 49.03789092833176,250.18102213009843 49.064271942013875,252.45269916785765 49.19617700984236,254.6661141635559 49.09065295557957,256.96688624852686 49.064271942013875,257.9570873892226 49.11703396914527,259.2676434968889 48.16731747984886,259.3550137329148 47.11207693617325,259.4132605451159 46.87464781384915,259.4423839476076 45.89855031098705,259.5588775337674 44.47397557704244,259.79186459214543 43.55064010119531,259.73361784181907 42.020541312987916,259.87923469988164 41.33463495958131,259.646247698518 39.30329691292718,259.87923469988164 39.03948677703738,259.646247698518 38.82843866839539,259.646247698518 38.19529434212018,259.5880009243847 38.35358042374719,259.99572814349085 38.43272346444428,261.1897837475117 38.722914613899775,262.2382195198734 38.881200695526786,263.2866522115946 39.11862981785089,264.04385168416775 40.727871646988206,264.33508182276273 42.38987550325692,264.33508182276273 43.946355305146426,264.3059588196047 44.658642672235146,264.1894667831366 45.29178699827753,264.21858979584067 46.26788450125605,264.21858979584067 46.90102882753126,264.1312207507435 47.797983289463446,264.21858979584067 48.06179342546966,264.88841843116097 48.03541241178755,265.5 47.797983289463446,264.8010495500057 47.66607822163496,264.21858979584067 46.795504773035645,264.1312207507435 46.056836392497644,264.1020977309381 45.52921612071805,264.1312207507435 43.31321097898763,264.3059588196047 42.75920969352592,264.4224508179177 41.862255231360905,264.39332782194833 40.0419652935816,264.3059588196047 39.32967792649288,263.8982365258562 38.85481968196109,262.2382195198734 38.35358042374719,259.6171243126737 38.61739055952057,259.3258903233218 39.35605894017499,259.5880009243847 41.1499678643886,259.52975414076354 41.70396914985031,259.4423839476076 42.44263753038831,259.52975414076354 44.10464138677344,259.3550137329148 45.713883215677924,259.4132605451159 46.63721869152505,259.3258903233218 47.217600990552455,259.1802732395008 47.74522126221564,259.1802732395008 47.850745316711254,259.00553266046336 47.797983289463446,258.2191989957937 48.009031398338266,257.92796386542614 49.03789092833176,257.78234621108277 49.301701064337976,257.6076049473486 48.90598586038686,256.18054809083696 49.011509914766066,253.18079772152123 49.011509914766066,250.85087711931556 48.98512890120037,248.95780542606371 48.95874788751826,245.87062080862233 48.95874788751826,240.51167086380883 48.90598586038686,237.0166601347155 48.90598586038686,236.40502973631374 48.95874788751826,234.27887781104073 48.95874788751826,232.44396938584396 49.855702349566855,232.32746694484376 50.858180866227485,232.50222059199587 51.807897355407476,232.32746694484376 53.04780499427579,232.24009008926805 53.04780499427579,231.71582850563573 53.3643771574134,231.7449541693495 55.71228736708872,231.71582850563573 56.89943297859281,231.71582850563573 58.19210264470894,230.871183222509 58.32400771253742,230.08478753996314 57.95467352226842,230.08478753996314 57.82276845432352,230.95856041341904 57.87553048168775,231.5702001512691 57.55895831855014,231.59932582694455 56.767527910647914,231.65757717110682 53.6281872933032,231.71582850563573 53.54904425248969,231.7740798307932 55.84419243503362,231.7449541693495 56.18714561162051,231.71582850563573 57.63810135924723,231.54107447320712 58.87800899811555,231.337194660533 59.69582041935064,231.22069185815053 60.30258373206016,231.0459375831124 62.51858887367416,230.05566174071282 62.333921778481454,228.71587240110966 62.333921778481454,227.92947196649038 62.25477873778436,225.62851258774754 62.38668380572926,223.93919118857593 62.333921778481454,222.104229567718 62.360302792163566,221.20130847900873 62.41306481929496,219.97799238938023 62.22839772421867,219.97799238938023 62.25477873778436,219.1915726872685 62.492207860108465,216.71579563472187 62.835161036928184,213.83222187004867 62.46582684665918,213.48269619283383 62.28115975135006,212.49237158035976 62.59773191448767,211.90982640587026 63.46830536297057,212.0263355168281 64.65545097459108,211.67680806963472 65.42050036869477,211.47291690044221 66.08002570853569,211.2107709402335 66.42297888523899,210.65735105797648 66.8450751027558,210.77386057836702 66.79231307550799,210.86124269352877 67.1352662522113,210.45345930592157 67.3726953745354,209.69614606333198 68.66536504053511,209.05534129409352 69.11384227161761,208.58930073847296 69.74698659777641,208.23976992210373 69.87889166583773,208.15238716444583 70.85498916869983,207.3950690345955 71.43537146761082,207.0746647262422 71.25070437265094,205.23961632259306 71.11879930458963,204.3949083276093 71.03965626377612,202.21030940508354 71.25070437265094,200.25872304753284 71.48813349497505,199.5305164460733 71.14518031815533,199.44313155399868 71.03965626377612,197.89932826155564 71.17156133183744,195.83120394093567 71.27708538621664,195.04473098026938 71.56727653567214,193.38439347664826 71.83108667156193,191.52014566047 71.59365754923783,191.4036298483261 69.87889166583773,191.6657903722371 69.40403342118952,191.89882178715197 69.27212835312821,191.3453719279496 69.90527267951984,190.6754051593307 69.35127139394172,190.47150197983137 69.21936632599682,190.38411486713449 69.40403342118952,189.5685007829452 69.19298531243112,189.39372609349084 69.14022328529973,189.33546784470673 68.79727010848,189.33546784470673 68.5862219997216,189.36459697032114 68.32241186394822,189.33546784470673 68.03222071449272,188.81114317663014 68.26964983681682,188.78201400581747 67.8475536191836,185.89821431064047 67.87393463286571,185.89821431064047 67.87393463286571,185.75256724242354 67.900315646315,185.92734371707775 67.97945868724491,185.95647312115761 68.5862219997216,184.7330360992346 68.40155490476172,187.908137773833 68.5598409861559,189.42285521439044 67.8475536191836,185.89821431064047 67.87393463286571,185.89821431064047 67.2407903065905,185.98560252290918 67.50460044259671,186.83035413752077 67.9266966599971,185.92734371707775 67.8475536191836,187.1799059442419 68.26964983681682,188.17030086845625 68.24326882313471,188.46159296951373" stroke="#00AFAA" stroke-linecap="round" stroke-linejoin="round" stroke-width="1"><title>2025-09-12 11.5km</title><desc>15784793735</desc></polyline></svg>