<?xml version="1.0" encoding="utf-8" ?>
<svg baseProfile="full" height="300mm" version="1.1" viewBox="0,0,200,300" width="200mm" xmlns="http://www.w3.org/2000/svg" xmlns:ev="http://www.w3.org/2001/xml-events" xmlns:xlink="http://www.w3.org/1999/xlink"><defs /><rect fill="#f5f5f5" height="300" rx="1" ry="1" width="200" x="0" y="0" /><text fill="#006cb8" style="font-size:12px; font-family:MGI-Regular; font-weight:bold;" x="10" y="20">超过5公里的活动</text><text fill="#006cb8" style="font-size:4px; font-family:MGI-Regular" x="10" y="280">Runner</text><text fill="#006cb8" style="font-size:9px; font-family:Arial" x="10" y="290">XHH</text><text fill="#006cb8" style="font-size:4px; font-family:MGI-Regular" x="65" y="280">特殊的活动</text><rect fill="yellow" height="2.6" rx="1" ry="1" width="2.6" x="65" y="283" /><text fill="#006cb8" style="font-size:3px; font-family:MGI-Regular" x="70" y="285.5">大于 20.0 km</text><rect fill="red" height="2.6" rx="1" ry="1" width="2.6" x="65" y="287" /><text fill="#006cb8" style="font-size:3px; font-family:MGI-Regular" x="70" y="289.5">大于 40.0 km</text><text fill="#006cb8" style="font-size:4px; font-family:MGI-Regular" x="120" y="280">数据</text><text fill="#006cb8" style="font-size:3px; font-family:MGI-Regular" x="120" y="285">次数: 8</text><text fill="#006cb8" style="font-size:3px; font-family:MGI-Regular" x="120" y="290">周均次: 2.7</text><text fill="#006cb8" style="font-size:3px; font-family:MGI-Regular" x="141" y="285">所有: 72.1 km</text><text fill="#006cb8" style="font-size:3px; font-family:MGI-Regular" x="141" y="290">平均: 9.0 km</text><text fill="#006cb8" style="font-size:3px; font-family:MGI-Regular" x="167" y="285">最少: 5.0 km</text><text fill="#006cb8" style="font-size:3px; font-family:MGI-Regular" x="167" y="290">最多: 16.6 km</text><polyline fill="none" points="35.414875300368294,40.816204517992446 35.86534369189758,40.63856506664888 36.31581208342686,40.851732399634784 36.8628094161395,40.531981360923965 37.44198306230828,40.247758018173045 37.66721725813113,40.38986971281702 37.12021992553491,41.5978172418545 37.47415937599726,41.953095288190525 37.21674886660185,42.770233693212504 37.08804361172952,44.33345071077929 36.798456788645126,44.972946961963316 36.76628047507256,45.39927727347822 36.798456788645126,46.1808817590354 36.73410416126717,47.24670379332383 37.05586729827337,47.957250364881475 36.60539890662767,48.6677957753418 36.4123410244938,49.378340024792124 36.63757522020023,50.12441023718566 38.5681540411897,50.19546447630273 39.85520658851601,50.230991591583006 41.882314350456,50.230991591583006 42.94413270195946,50.12441023718566 43.23371952504385,50.87047916947631 44.29553787666373,51.012587392440764 44.6173010134371,51.26127667078981 44.87471152283251,51.82970877291518 45.09994571877178,52.82446316399728 45.55041411030106,54.03237615106627 45.196474659838714,54.067902952840086 44.68165364069864,54.13895654765656 44.713829954504035,54.2100101308024 44.68165364069864,54.174483340699226 45.3251799143618,54.3876440381282 45.807824619696476,54.671858138783136 46.25829301122576,55.3468658834754 46.676585089066066,56.94556425733026 46.580056148115546,57.15872359651257 46.54787983442657,58.117939329647925 46.80529034382198,58.43767743706121 47.223582421662286,59.43241671286523 47.41664030379616,60.071890760038514 47.51316924486309,60.746890123118646 47.77057975437492,60.995573834865354 47.77057975437492,61.599519399926066 47.674050813307986,62.94951233637403 47.70622712688055,64.01529327360913 47.70622712688055,64.72581244737376 47.352287676534615,66.11132149765035 47.062700853450224,67.78103166789515 47.64187449961901,69.48626097035594 48.12451920483727,70.48097497608978 48.86457441956736,72.04409238885273 48.574987596366554,72.32829495117767 48.027990263770334,73.18090152423247 47.384463990223594,73.64272938671638 47.09487716702279,73.35852768327459 46.61223246168811,73.99798125511734 46.22611669753678,74.06903159394278 46.354821952292696,73.99798125511734 46.676585089066066,74.10455675894627 46.580056148115546,74.45980824998696 46.901819284888916,74.85058455518447 46.290469325031154,75.09926020292914 45.29300360090565,74.49533338320907 45.22865097341128,74.31770768846036 45.35735622816719,74.5308585135208 45.84000093350187,74.99268494275748 45.67911936494056,75.24136050924426 45.260827287100255,75.06373511903803 45.260827287100255,75.20583543693647 45.35735622816719,75.31241064498317 45.29300360090565,74.99268494275748 45.67911936494056,75.20583543693647 45.87217724707443,74.99268494275748 46.19394038396422,75.06373511903803 47.41664030379616,74.92163475471898 47.64187449961901,75.13478528379346 47.86710869532544,75.3479357084725 47.223582421662286,75.70318618410965 46.901819284888916,76.09396137204021 46.708761402755044,76.48473620900768 46.22611669753678,76.94656056369422 46.19394038396422,78.08335688622901 45.96870618802495,78.08335688622901 45.64694305125158,77.79915808408987 46.32264563860372,78.11888172349427 45.582590423873626,78.61622913973406 44.392066817730665,78.58070434318506 43.45895372098312,79.61092226635083 42.94413270195946,80.21484198336839 42.525840624119155,80.74771162573597 42.07537223258987,80.99638390209293 41.94666697783396,81.06743309769081 41.7536090958165,81.81344895204529 41.72143278201111,82.31079214406782 41.303140704287216,82.38184112519957 39.694325020187534,83.83834267867496 39.43691451055929,84.7264509886736 39.56561976543162,84.86854814991239 39.85520658851601,85.36588784909691 40.40220392111223,85.33036360368715 40.49873286217917,85.08169380491017 40.20914603897836,87.0 39.43691451055929,86.36056554154493 39.30820925591979,85.57903326035012 39.147327687591314,84.7264509886736 40.337851293734275,83.44757444786956 41.59272752737161,82.0265961039695 41.882314350456,81.77792441658676 42.30060642841272,80.88981008669361 42.68672219244763,80.60561311827041 44.102479994646274,79.07805123139406 45.13212203234434,78.43860512779793 45.71129567862954,78.54517954363837 46.32264563860372,78.08335688622901 46.483527207165025,76.37816128827399 45.96870618802495,75.84528629301349 46.00088250183035,75.56108602863969 47.480992931174114,75.59661107181455 47.995813950081356,75.20583543693647 47.77057975437492,75.06373511903803 47.60969818593003,74.85058455518447 47.51316924486309,73.85588054257096 47.73840344068594,73.35852768327459 47.64187449961901,73.60720418399433 47.64187449961901,73.46510334391496 47.60969818593003,73.39405290631112 47.32011136272922,74.28218254086096 46.86964297131635,74.77953434403753 46.354821952292696,74.95715985019342 45.51823779649567,75.24136050924426 45.196474659838714,74.99268494275748 45.13212203234434,75.24136050924426 45.3251799143618,75.27688557852525 45.45388516923413,75.52556098246714 45.614766737562604,75.45451088156551 45.743471992434934,75.27688557852525 45.64694305125158,75.20583543693647 45.90435356076341,75.13478528379346 46.676585089066066,74.95715985019342 47.384463990223594,74.06903159394278 47.54534555855207,73.85588054257096 47.480992931174114,73.35852768327459 47.54534555855207,73.32300245726947 47.54534555855207,73.35852768327459 47.64187449961901,73.28747722832486 47.09487716702279,73.25195199655718 46.86964297131635,73.18090152423247 46.96617191226687,72.50592145847622 47.062700853450224,72.43487086417736 47.255758735351264,72.47039616276743 47.255758735351264,72.50592145847622 47.352287676534615,72.61249732784927 47.44881661760155,72.68354789310251 47.70622712688055,72.7190731712908 47.674050813307986,72.75459844665602 47.77057975437492,72.57697204095894 47.03052453964483,72.15066837146878 46.80529034382198,72.22171901198453 47.127053480711766,73.28747722832486 46.77311403024942,73.46510334391496 46.580056148115546,73.53615376970265 46.676585089066066,73.64272938671638 47.09487716702279,73.28747722832486 46.77311403024942,72.79012371905264 46.93399559869431,72.36382025838248 47.062700853450224,72.07961771925329 47.255758735351264,72.39934556282242 47.384463990223594,72.47039616276743 47.255758735351264,72.36382025838248 47.384463990223594,72.36382025838248 47.352287676534615,72.32829495117767 47.44881661760155,72.25724432806601 47.44881661760155,72.39934556282242 47.44881661760155,72.39934556282242 47.44881661760155,72.54144675115822 47.352287676534615,72.47039616276743 47.352287676534615,72.47039616276743 47.223582421662286,72.7190731712908 47.32011136272922,72.15066837146878 47.352287676534615,72.68354789310251 47.19140610808972,72.57697204095894 47.223582421662286,72.50592145847622 47.54534555855207,72.39934556282242 47.32011136272922,71.04938195794239 46.580056148115546,70.51650043416885 46.22611669753678,69.98361825753818 45.55041411030106,70.23229668792919 44.90688783663791,70.0901947451639 43.20154321147129,70.05466925216024 42.46148799685761,69.52178650978021 42.04319591890089,68.27839090506313 41.206611763103865,66.00474403501721 40.305674980045296,64.05081925983541 39.82303027471062,63.76661128856358 37.924627767526545,64.37055300560314 37.40980674873572,64.54818276269361 37.248925180057995,64.47713086861768 37.08804361172952,63.588981212087674 37.73156988539267,62.98503840973717 37.602864630753174,62.06135956032085 37.377630434930325,61.49294083175482 36.92716204340104,60.00083813461242 36.57322259293869,58.117939329647925 36.34798839711584,56.30608561303234 36.283635769737884,54.52975111169508 36.4123410244938,52.50472092931159 36.73410416126717,49.52044873527484 36.798456788645126,48.45463227419532 37.08804361172952,48.06383225042373 36.894985729595646,47.211176434211666 37.023690984467976,45.75455221376615 37.12021992553491,44.3689783050213 37.31327780766878,42.34390080400044 36.76628047507256,41.31359459582018 36.60539890662767,40.60303716771887 35.96187263308093,40.63856506664888 35.76881475094706,40.247758018173045 34.513938517309725,40.35434179357253 34.22435169410892,40.105646277195774 34.35305694886483,39.71483874969999 34.70699639932718,39.18191882799147 34.513938517309725,37.93843647043104 33.999117498402484,37.902908350893995 32.969475460471585,37.97396458720323 32.71206495107617,37.68973957214621 33.291238597244956,37.44104253171827 32.29377287311945,35.73568756468012 33.06600440153852,37.192345348972594 32.45465444168076,33.56845597573556 32.422478127875365,33.39081356319366 32.39030181418639,33.42634205147624 32.48683075513691,33.49739901931025 32.45465444168076,33.675041388429236 32.39030181418639,33.14211406360846 31.875480795279145,33.675041388429236 32.422478127875365,33.319756577839144 32.71206495107617,33.675041388429236 32.32594918680843,33.746098315605195 32.35812550061382,33.46187053684844 32.39030181418639,33.355285071913386 31.939833422540687,33.42634205147624 31.135425580549054,34.27902490014094 32.35812550061382,33.24869958078489 32.32594918680843,33.284228080679895 32.776417578337714,34.10138277782244 33.00165177427698,33.85268368481775 32.776417578337714,34.03032590870862 32.71206495107617,34.13691120810108 33.19470965617802,33.63951292046113 33.38776753831189,33.85268368481775 33.291238597244956,33.60398444952443 33.516472793067805,33.710569853457855 33.291238597244956,33.9237405830645 33.03382808773313,34.03032590870862 32.64771232381463,35.025121020909864 33.291238597244956,34.10138277782244 32.87294651940465,34.669837313500466" stroke="#00AFAA" stroke-linecap="round" stroke-linejoin="round" stroke-width="1"><title>2025-09-23 6.8km</title><desc>15905416654</desc></polyline><polyline fill="none" points="186.77959183673374,55.94204884668579 186.97795918368502,56.47745535697322 186.57020408165408,59.17879521228315 186.51510204083752,59.58034154832421 186.59224489796907,61.08917264950287 186.6804081632872,62.670995295309694 185.07142857147846,63.76609344033932 185.03836734691868,64.3258071609016 183.52857142861467,64.82468066095316 183.0436734694522,64.84901591089147 182.4155102040968,64.87335115687165 182.06285714288242,64.80034540701308 181.39061224495526,65.00719493861834 179.0322448979714,65.01936254919565 178.73469387751538,64.86118353439088 177.86408163269516,64.92202163685579 177.62163265311392,64.93418925440346 177.25795918365475,65.03153015878343 174.5800000000163,65.189708992737 173.74244897958124,65.20187658838404 171.88000000000466,65.57907156067085 168.7391836734605,66.27262111396703 166.41387755109463,66.36996114376234 165.10244897956727,66.09010838672111 161.49877551023383,63.97294440814585 159.3718367347028,62.63449188515369 158.0163265306619,62.12344320359989 156.49551020405488,61.84358246829652 151.2718367347261,62.03826825287251 150.28000000002794,61.9287575303606 149.7179591836757,61.9287575303606 149.35428571427474,61.80707885537413 149.35428571427474,61.77057523347321 148.57183673471445,61.84358246829652 148.53877551021287,61.125676438372466 148.43959183676634,61.04050091706449 148.41755102039315,61.052668851669296 148.45061224495294,60.407766948163044 148.28530612250324,59.11795476388943 148.2081632653135,59.03277809440624 148.1861224489985,59.008441894169664 148.25224489800166,60.27391903336684 148.3514285715064,61.89225393832021 147.95469387754565,61.9895968305791 146.77551020414103,62.18428242429218 143.64571428572526,62.89001556839503 142.8302040816052,63.14553881328902 142.03673469391651,63.44973258096434 140.59306122444104,63.97294440814585 140.43877551023616,63.79042886319803 140.76938775513554,61.68540008095442 140.49387755105272,60.1400709982845 140.24040816328488,58.740743429152644 139.84367346938234,57.98631789347564 139.4359183674096,57.548262602911564 138.8408163265558,56.732989603769965 138.86285714287078,57.01285994233331 138.6755102041061,57.049364730351954 137.52938775514485,56.96418687776895 137.24285714287544,57.061532991050626 137.0114285714808,57.31706623561331 136.90122448978946,57.73078579723369 136.74693877552636,57.487421488403925 136.5265306122601,57.34140271220531 136.44938775512855,57.42658034907072 136.35020408168202,57.390075653544045 136.2510204082355,57.390075653544045 136.3612244898104,57.32923447441135 136.47142857150175,57.47525326254254 136.46040816325694,57.47525326254254 136.2399999999907,57.390075653544045 136.35020408168202,57.463085035662516 136.33918367349543,57.42658034907072 136.33918367349543,57.34140271220531 136.2399999999907,57.377907419679104 136.17387755104573,57.450916807792964 136.51551020413171,57.450916807792964 136.65877551020822,57.438748578948434 136.2179591837339,57.596935476583894 136.16285714285914,57.42658034907072 136.15183673473075,57.390075653544045 135.84326530614635,57.377907419679104 135.468571428617,57.30489799582574 135.1379591836594,57.280561513252906 134.67510204087012,57.377907419679104 134.67510204087012,57.32923447441135 134.67510204087012,57.25622502664919 135.09387755108764,57.36573918488284 135.1600000000326,57.073701250730664 135.3142857142957,57.17104729237326 135.35836734692566,57.41441211820347 135.27020408166572,57.280561513252906 135.17102040816098,57.26839327043854 135.3142857142957,57.280561513252906 135.35836734692566,57.134542534229695 135.42448979592882,57.25622502664919 135.3032653061673,57.377907419679104 135.07183673471445,57.36573918488284 135.41346938780043,57.08586950939207 135.49061224493198,57.25622502664919 135.83224489795975,57.41441211820347 136.0636734694126,57.52392616009456 136.2289795918623,57.463085035662516 136.1959183673025,57.57259904172679 136.46040816325694,57.65777654632984 136.78000000002794,57.58476725962828 136.65877551020822,57.35357094903884 136.70285714283818,57.450916807792964 136.47142857150175,57.207552041640156 136.372244897997,57.377907419679104 136.51551020413171,57.30489799582574 136.47142857150175,57.42658034907072 136.18489795923233,57.40224388636125 136.2179591837339,57.73078579723369 136.6808163265232,58.10799968999345 136.95632653060602,57.94981333514443 137.04448979592416,56.562633487948915 134.78530612250324,56.62347498026793 134.17918367352104,56.355772228198475 133.95877551025478,57.41441211820347 133.297551020456,58.13233603734989 133.36367346945917,57.99848607761669 133.3085714285844,57.98631789347564 133.14326530619292,57.80379501231073 133.25346938776784,57.146710787958 133.20938775513787,56.53829688405676 133.12122448976152,56.197584012144944 133.07714285718976,57.463085035662516 133.0,57.79162681232265 133.1542857143213,57.82813140937651 133.37469387752935,58.022822442886536 133.28653061226942,58.13233603734989 133.89265306125162,57.60910369253543 134.223265306151,57.31706623561331 134.7191836735583,56.80599930800963 137.20979591843206,56.87900897648069 138.42204081639647,56.757326175807975 138.9730612245039,57.35357094903884 140.0530612245202,58.886760833338485 140.40571428573458,61.11350850976305 140.47183673473774,62.245121620129794 140.6812244898174,61.90442180330865 140.64816326537402,62.76833767867356 140.372653061233,63.82693199008645 140.8355102041387,63.863435107981786 141.37551020411775,63.70525486567931 141.19918367348146,63.668751708988566 142.57673469389556,63.194209857902024 143.1277551020612,63.048196676463704 143.9102040816797,62.81700884648308 146.43387755105505,62.159946738989674 148.14204081631033,61.79491098236758 148.54979591839947,61.79491098236758 149.2440816326416,61.75840735754173 148.946530612302,61.91658966730756 148.90244897961384,61.89225393832021 148.6600000000326,61.89225393832021 149.2771428571432,61.66106431414664 150.87510204082355,61.84358246829652 152.46204081637552,61.80707885537413 153.06816326529952,61.78274310840061 156.14285714289872,61.673232198067126 157.77387755102245,61.89225393832021 161.48775510204723,63.924273618045845 167.350612244918,66.27262111396703 168.33142857142957,66.17528102059441 169.6648979592137,65.95626557790092 172.00122448982438,65.4208931401954 173.42285714286845,65.28704973011918 173.819591836771,65.10453579529712 174.05102040816564,65.05586537494673 176.96040816325694,64.88551877834834 177.46734693885082,64.90985401836224 177.86408163269516,64.89768639886461 178.76775510201696,64.84901591089147 179.08734693878796,64.97069210100744 180.36571428575553,64.89768639886461 181.60000000003492,64.66650143936567 182.19510204083053,64.59349558813847 182.77918367349776,64.77601014911488 183.23102040815866,64.62999851825589 184.17877551022684,64.43531612107472 184.66367346938932,64.30147182548535 185.0163265306619,64.03378287341911 185.71061224496225,63.4132293616276 186.5371428571525,62.82917663594708 186.8457142857369,62.4641425194568 186.7024489796604,61.40553852260928 186.75755102041876,59.896710626315325 186.8346938775503,59.519501263974234 186.73551020416198,59.470829018595396 186.79061224492034,58.75291155165178 186.79061224492034,57.80379501231073 186.9889795918716,56.80599930800963 186.91183673474006,56.307098948876956 186.17346938775154,56.307098948876956 186.14040816330817,56.07590065471595 186.31673469388625,56.08806899495539 186.0853061224916,56.07590065471595 186.18448979593813,55.7351867249381 185.89795918366872,55.248451187246246 185.96408163267188,55.1876091331942 185.9530612245435,55.19977754600404 185.7877551020938,55.04158810201625 185.68857142858906,54.81038784312841 185.54530612245435,55.005082821822725 185.42408163269283,54.00726836526883 185.38000000006286,53.76389797141019 185.41306122450624,54.32364928271272 185.4571428571362,53.8004035558406 185.42408163269283,53.78823502866726 185.41306122450624,54.652197985502426 185.42408163269283,53.77606650053349 185.42408163269283,53.751729441282805" stroke="#00AFAA" stroke-linecap="round" stroke-linejoin="round" stroke-width="1"><title>2025-09-22 16.6km</title><desc>15896554478</desc></polyline><polyline fill="none" points="38.17343173455447,117.06665036547929 38.63837638380937,115.81988172337878 39.50184501847252,117.3600074411952 42.22509225108661,117.94672130519757 44.74907749076374,118.6067739437567 44.616236162604764,119.85353871452389 44.81549815530889,120.29357292596251 44.94833948346786,121.24697964417282 44.549815498292446,123.08045125578064 44.48339483421296,124.5472258484806 43.88560885610059,126.30735219595954 43.686346863396466,127.26075252646115 43.752767527708784,128.80085861327825 43.8191881920211,132.174415093672 43.8191881920211,133.8611885792925 44.21771217742935,135.32794555544388 44.284132841508836,136.50134941091528 44.1512915128842,137.601414132223 46.94095940957777,137.3814012958319 49.53136531380005,137.16138840548228 49.53136531380005,138.04143964342074 49.92988929897547,138.9948275105562 52.38745387457311,138.77481501555303 55.177121771266684,139.7282021040446 56.43911439110525,139.2881774198613 59.49446494458243,139.21483995142626 60.75645756465383,139.36151488224277 63.413284132955596,138.18811476562405 64.07749077491462,137.2347260414972 63.61254612542689,135.40128334134351 63.34686346887611,134.00786438462092 62.94833948323503,132.98113324306905 63.147601476171985,131.2943581037107 63.34686346887611,129.97427100100322 63.87822878244333,130.047609224217 64.87453874549828,130.047609224217 65.47232472361065,129.75425629527308 66.60147601482458,129.9009327715612 66.93357933568768,129.75425629527308 65.80442804447375,129.9009327715612 64.07749077491462,129.9009327715612 62.94833948323503,129.75425629527308 62.48339483421296,129.60757979459595 62.35055350558832,127.77412151568569 62.68265682645142,126.08733659121208 62.35055350558832,124.91391912224935 62.48339483421296,123.52048388536787 62.549815498292446,120.29357292596251 62.549815498292446,118.09339971130248 62.35055350558832,116.1865785625996 62.41697416966781,114.86646924051456 62.48339483421296,113.91305574472062 62.35055350558832,112.66628272237722 62.284132841276005,110.6127704391256 62.74907749076374,110.17273148160893 62.81549815507606,108.11921349307522 62.08487084880471,107.53249320480973 61.28782287845388,107.53249320480973 61.28782287845388,106.28571131906938 60.75645756465383,105.25894846551819 56.17343173432164,106.50573177763727 55.177121771266684,106.65241205348866 52.98523985245265,106.57907191861887 51.39114391151816,106.7990923053585 49.464944649487734,107.09245273715351 47.671586715849116,107.6058332620305 44.284132841508836,107.75251335802022 43.487084871158004,108.19255350210005 42.889298893278465,108.19255350210005 42.15867158677429,107.67917331296485 40.43173431721516,108.04587347822962 39.50184501847252,108.11921349307522 38.37269372725859,108.11921349307522 37.04428044310771,108.70593339786865 35.64944649464451,108.3392335025128 35.18450184492394,107.82585339713842 32.39483394823037,107.53249320480973 30.800738007761538,107.6058332620305 30.601476014824584,106.57907191861887 30.933579335920513,105.99235062353546 30.933579335920513,104.30552476376761 30.800738007761538,103.79214235115796 30.46863468643278,103.13207881769631 29.738007380394265,101.22522588272113 29.937269372632727,100.27179789595539 20.040590406395495,107.23913291707868 22.830258302856237,105.478969175776 24.291512915166095,105.55230940046022 25.154981550062075,105.18560821650317 25.154981550062075,104.5988860107027 23.89298892999068,104.5255457079038 23.361623616423458,105.18560821650317 22.365313653135672,104.89224716165336 21.83394833956845,105.18560821650317 22.033210332272574,105.55230940046022 21.90036900364794,105.33228870813036 22.298892989289016,106.7990923053585 21.83394833956845,107.01911263813963 18.44649446522817,106.57907191861887 17.31734317354858,107.3124729981646 17.25092250923626,108.19255350210005 16.852398524060845,109.65935242478736 16.055350553942844,108.92595326318406 14.859778597950935,109.21931299980497 13.664206642191857,109.3659928322304 13.33210332132876,109.80603218544275 13.797047970583662,111.12614895036677 13.664206642191857,112.07956540642772 13.26568265678361,112.37292411236558 13.0,113.83971620316152 13.132841328624636,114.57311134960037 14.72693726955913,115.08648759580683 16.71955719566904,115.08648759580683 16.852398524060845,114.86646924051456 15.988929889397696,115.45318473450607 15.988929889397696,115.59986354812281 16.45387453888543,115.74654233752517 16.18819188210182,115.15982703550253 16.45387453888543,115.59986354812281 15.856088561238721,115.23316646931926 15.523985239909962,115.23316646931926 16.1217712177895,115.01314814999932 15.656826568301767,116.5532752518775 14.129151291912422,113.17966005892958 13.996309963287786,115.45318473450607 13.929889298975468,115.37984531873371 14.328413284383714,115.30650589679135 14.527675276622176,115.59986354812281 15.789667896926403,115.8932211031788 16.254612546181306,116.03989984490909 16.653136531589553,115.45318473450607 16.321033210493624,114.20641385152703 16.520295202964917,113.03298084979178 16.586715867510065,112.73962235992076 16.520295202964917,112.44626377371605 16.520295202964917,111.71286688937107 16.586715867510065,111.19948871375527 16.785977859981358,111.3461682224879 16.785977859981358,110.5394306279486 17.184501845156774,109.51267264044145 18.579335793387145,109.65935242478736 20.70479704812169,109.21931299980497 21.83394833956845,109.3659928322304 22.16605166043155,109.43933273933362 22.498154981760308,108.99929320625961 22.76383763854392,108.85261331417132 23.62730627320707,109.29265291907359 25.088560885749757,109.43933273933362 25.952029520180076,109.51267264044145 27.147601476171985,109.87937205651542 29.206642066594213,110.02605178102385 30.13653136533685,110.09939163416857 31.132841328624636,110.8327898370917 31.26568265678361,112.22624477162026 31.33210332132876,113.03298084979178 31.730627306504175,113.25299965462182 32.46125461277552,112.9596412362298 33.65682656830177,112.81296199129429 33.32472324743867,112.73962235992076 33.32472324743867,112.66628272237722 33.457564576063305,112.51960342930397 34.1217712177895,112.44626377371605 34.98523985245265,112.66628272237722 35.64944649464451,113.54635797673836 35.450184501940385,114.64645083143841 34.98523985245265,115.08648759580683 35.05166051653214,114.42643236822914 34.91881918837316,114.49977186205797 35.05166051653214,114.7931297767791 34.38745387480594,116.11323920678115 34.4538745386526,116.40659659431549 33.7896678969264,116.99331108137267 33.92250922508538,117.8000428751111 34.321033210493624,117.72670365101658 34.055350553710014,117.43334669515025 33.7896678969264,117.94672130519757 33.988929889397696,117.87338209303562 33.457564576063305,118.0200605111313 34.852398524060845,117.72670365101658 35.450184501940385,118.09339971130248 35.3837638378609,118.16673890524544 35.3837638378609,118.31341727543622 34.78597785998136,117.94672130519757 34.78597785998136,118.16673890524544 34.586715867277235,118.46009562152904 34.38745387480594,118.46009562152904 34.91881918837316,118.38675645156763 35.3837638378609,118.24007809325121 35.31734317354858,118.6067739437567 35.78228782280348,118.97346964426106 35.91512915142812,118.68011309573194 35.58302583033219,118.53343478572788 35.8487084871158,118.6067739437567 34.852398524060845,118.82679138198728 34.4538745386526,118.82679138198728 34.65313653135672,117.94672130519757 34.65313653135672,117.43334669515025 35.5166051662527,116.69995388569077 36.77859778609127,114.71979030722287 37.24354243534617,114.35309286869597 37.974169741850346,113.61969754251186 39.56826568278484,112.9596412362298 40.16605166043155,112.81296199129429 40.896678966935724,111.71286688937107 40.298892989056185,110.46609081048518 38.837638376280665,110.09939163416857 37.974169741850346,110.24607132270467 36.845018450403586,110.46609081048518 36.24723247252405,111.12614895036677 31.79704797035083,108.85261331417132 36.11439114413224,102.61869573377771 37.50922509212978,103.71880198240979 38.306273062713444,106.50573177763727 35.981549815740436,102.91205753199756 36.18081180821173,102.9853979665204 36.24723247252405,103.05873839516426 36.51291512930766,103.35210004937835 36.44649446522817,104.08550376567291 36.77859778609127,103.79214235115796 36.91143911425024,103.86548271385254 35.715867158956826,103.42544044804526 36.047970479819924,103.71880198240979 36.77859778609127,105.03892770106904 36.64575645769946,102.54535526933614 36.44649446522817,101.88529081863817 36.24723247252405,102.6920361922239 36.24723247252405,102.76537664467469 36.24723247252405,102.76537664467469 36.71217712224461,103.20541923417477 36.313653136603534,102.83871709136292 35.64944649464451,101.88529081863817 35.981549815740436,104.30552476376761 35.91512915142812,106.28571131906938 35.64944649464451,102.6920361922239 35.58302583033219,102.76537664467469 35.715867158956826,104.0121634210227 35.3837638378609,102.83871709136292 35.5166051662527,102.6920361922239 35.11808118107729,102.6920361922239 35.31734317354858,101.73860976373544 34.91881918837316,102.54535526933614 35.450184501940385,102.91205753199756 36.18081180821173,103.64546160784084 35.64944649464451,103.35210004937835 35.31734317354858,103.71880198240979 35.715867158956826,103.93882307049353 35.31734317354858,102.61869573377771 35.64944649464451,104.37886508461088 35.715867158956826,102.47201479866635 35.3837638378609,102.398674322234 35.58302583033219,102.10531235625967" stroke="#00AFAA" stroke-linecap="round" stroke-linejoin="round" stroke-width="1"><title>2025-09-19 5.2km</title><desc>15861009922</desc></polyline><polyline fill="none" points="163.03853294625878,110.57429190067342 162.17038067569956,115.28734372986946 160.9404982929118,115.686753857648 160.50642215786502,115.60687184508424 160.07234602235258,115.84651786281029 165.49829771229997,117.44415648031281 167.52398634282872,117.28439273603726 168.6815227032639,118.40273839753354 168.24744656821713,120.71930748422164 167.7410244103521,124.15421016386244 167.2346022524871,128.14826787210768 167.2346022524871,134.61860673234332 166.4387960047461,136.05645399732748 166.94521816261113,137.49429914774373 166.72818009462208,138.45286140678218 167.66867838753387,147.0 167.52398634282872,146.4408436844824 167.2346022524871,146.60060266434448 167.8133704327047,146.60060266434448 167.16225623013452,146.92012054601219 166.51114202756435,145.00301169068553 166.8728721397929,141.96758164907806 166.94521816261113,140.29010310943704 166.29410396004096,138.61262169171823 166.00471986969933,134.93812852958217 166.4387960047461,126.79029008210637 167.45164032001048,122.07729370688321 168.10275452304631,117.2045108541497 166.94521816261113,117.36427461140556 161.37457442795858,118.00332937965868 160.9404982929118,116.72521942557069 162.02568863052875,114.96781551017193 162.67680283309892,113.7695837568026 162.67680283309892,111.0535863447003 160.9404982929118,109.85534979356453 158.19134943699464,110.65417432418326 157.9743113690056,111.21335110720247 157.1785051212646,104.26355980191147 157.10615909891203,102.58601656730752 157.32319716643542,102.8256657771999 157.03381307655945,102.02683484938461 157.1785051212646,101.62741914059734 157.7572733014822,107.1393415069324 156.81677500903606,102.1067179714446 157.10615909891203,102.1067179714446 162.67680283309892,105.62156888347818 158.1190034141764,105.22215464367764 157.46788921160623,103.62449605204165 157.10615909891203,102.98543188424082 157.03381307655945,101.94695172080537 158.26369545934722,105.38192035921384 156.88912103138864,102.58601656730752 156.23800682881847,102.74578271369683 156.16566080600023,108.41746399359545 157.25085114408284,107.61863763531437 157.03381307655945,102.18660108715994 157.03381307655945,102.74578271369683 156.09331478364766,104.82274024066282 157.03381307655945,102.1067179714446 157.32319716643542,102.26648419635603 157.39554318925366,102.66589964367449 158.26369545934722,102.58601656730752 157.39554318925366,104.34344274143223 156.23800682881847,103.06531492812792 157.46788921160623,102.26648419635603 156.59973694151267,102.9055488340091 156.45504489634186,103.86414500733372 157.10615909891203,102.02683484938461 156.74442898621783,102.74578271369683 156.59973694151267,102.8256657771999 157.1785051212646,102.74578271369683 156.96146705374122,101.78718544379808 164.05137726152316,110.65417432418326 157.9743113690056,107.29910690896213 157.9743113690056,107.69852030050242 158.48073352733627,108.57722918689251 158.33604148216546,108.25769877410494 151.3184772967361,110.1748796843458 157.82961932430044,107.05945879610954 157.7572733014822,107.05945879610954 157.90196534665301,107.29910690896213 157.46788921160623,106.34051410411485 157.39554318925366,106.18074854521547 157.39554318925366,102.5061334844213 157.03381307655945,102.58601656730752 157.32319716643542,104.02391094475752 157.03381307655945,102.1067179714446 157.03381307655945,106.1008657560451 157.1785051212646,102.18660108715994 157.10615909891203,102.02683484938461 157.10615909891203,102.02683484938461 157.10615909891203,102.18660108715994 156.96146705374122,101.94695172080537 156.6720829633996,101.38776963739656 156.6720829633996,102.9055488340091 158.77011761674657,102.42625039501581 158.48073352733627,101.38776963739656 157.68492727959529,102.26648419635603 157.10615909891203,101.14812007488217 160.65111420257017,105.94110015797196 158.77011761674657,103.86414500733372 156.6720829633996,101.62741914059734 157.03381307655945,101.94695172080537 156.96146705374122,101.94695172080537 156.96146705374122,101.78718544379808 157.25085114408284,101.06823687447468 157.10615909891203,102.02683484938461 159.56592386495322,109.53581979859155 156.31035285117105,106.6600451435661 156.59973694151267,102.1067179714446 156.74442898621783,101.86706858570687 157.1785051212646,101.22800326894503 158.69777159485966,105.94110015797196 157.32319716643542,100.58893753454322 157.10615909891203,101.94695172080537 156.96146705374122,101.94695172080537 157.61258125677705,102.1067179714446 157.1785051212646,101.62741914059734 156.96146705374122,102.02683484938461 157.61258125677705,101.62741914059734 157.10615909891203,100.82858723390382 156.59973694151267,102.26648419635603 158.40838750451803,106.42039687390206 158.33604148216546,107.7784029590548 157.03381307655945,102.02683484938461 157.03381307655945,102.02683484938461 156.81677500903606,102.5061334844213 156.81677500903606,102.26648419635603 157.1785051212646,101.30788645631401 157.32319716643542,101.4676528116106 157.46788921160623,102.26648419635603 156.88912103138864,102.1067179714446 157.03381307655945,102.1067179714446 157.25085114408284,101.06823687447468 157.1785051212646,102.02683484938461 157.10615909891203,101.70730229566107 157.10615909891203,102.02683484938461 157.1785051212646,101.4676528116106 157.61258125677705,100.82858723390382 157.25085114408284,100.98835366743151 157.25085114408284,101.4676528116106 156.88912103138864,102.1067179714446 157.25085114408284,101.06823687447468 157.68492727959529,101.86706858570687 157.10615909891203,101.4676528116106 156.81677500903606,102.02683484938461 157.25085114408284,101.06823687447468 157.1785051212646,101.4676528116106 156.88912103138864,102.1067179714446 157.10615909891203,102.02683484938461 156.6720829633996,102.18660108715994 157.25085114408284,101.38776963739656 157.1785051212646,101.5475359793636 156.88912103138864,102.02683484938461 157.10615909891203,102.02683484938461 157.10615909891203,102.1067179714446 156.96146705374122,101.86706858570687 157.25085114408284,101.30788645631401 158.26369545934722,102.66589964367449 157.10615909891203,102.02683484938461 156.96146705374122,102.02683484938461 157.03381307655945,102.18660108715994 157.54023523442447,100.26940451079281 157.25085114408284,101.06823687447468 157.1785051212646,101.30788645631401 157.46788921160623,101.62741914059734 157.10615909891203,102.1067179714446 157.25085114408284,101.06823687447468 157.25085114408284,101.4676528116106 157.46788921160623,105.94110015797196 157.10615909891203,102.1067179714446 157.10615909891203,102.02683484938461 157.32319716643542,101.94695172080537 156.74442898621783,102.74578271369683 156.59973694151267,104.26355980191147 157.61258125677705,101.14812007488217 157.03381307655945,101.78718544379808 157.03381307655945,101.86706858570687 158.26369545934722,102.58601656730752 157.10615909891203,102.1067179714446 157.10615909891203,102.02683484938461 157.90196534665301,102.74578271369683 156.81677500903606,103.30496402055724 157.10615909891203,102.26648419635603 157.10615909891203,102.1067179714446 157.61258125677705,101.70730229566107 157.10615909891203,102.1067179714446 157.10615909891203,101.30788645631401 159.20419375225902,105.94110015797196 157.10615909891203,102.02683484938461 157.54023523442447,103.06531492812792 156.88912103138864,102.1067179714446 157.03381307655945,101.4676528116106 157.03381307655945,101.38776963739656 157.39554318925366,101.4676528116106 157.03381307655945,101.38776963739656 157.1785051212646,101.4676528116106 157.1785051212646,102.02683484938461 157.03381307655945,101.94695172080537 157.32319716643542,102.66589964367449 157.61258125677705,101.06823687447468 157.03381307655945,101.4676528116106 157.32319716643542,101.14812007488217 157.32319716643542,103.22508099622792 157.10615909891203,102.1067179714446 156.96146705374122,101.86706858570687 157.03381307655945,101.30788645631401 156.81677500903606,102.5061334844213 157.10615909891203,102.02683484938461 156.96146705374122,102.1067179714446 157.10615909891203,102.02683484938461 156.88912103138864,102.1067179714446 157.39554318925366,106.58016239356948 157.03381307655945,102.02683484938461 157.1785051212646,101.94695172080537 157.10615909891203,102.02683484938461 157.10615909891203,101.86706858570687 157.46788921160623,103.38484703819267 157.1785051212646,101.78718544379808 157.1785051212646,101.86706858570687 157.1785051212646,101.78718544379808 156.81677500903606,101.94695172080537 157.10615909891203,102.18660108715994 157.10615909891203,102.02683484938461 157.1785051212646,102.18660108715994 157.03381307655945,101.30788645631401 157.1785051212646,101.70730229566107 157.10615909891203,102.02683484938461 157.10615909891203,102.02683484938461 157.10615909891203,102.02683484938461 157.03381307655945,101.94695172080537 159.8553079548292,107.53875496349065 157.03381307655945,101.94695172080537 157.10615909891203,102.1067179714446 156.88912103138864,102.1067179714446 157.10615909891203,101.78718544379808 157.1785051212646,101.78718544379808 156.88912103138864,101.78718544379808 157.1785051212646,101.62741914059734 157.03381307655945,101.62741914059734 157.10615909891203,101.70730229566107 156.81677500903606,101.5475359793636 157.03381307655945,101.5475359793636 157.10615909891203,101.38776963739656 157.25085114408284,101.4676528116106 157.39554318925366,101.78718544379808 157.1785051212646,101.62741914059734 157.1785051212646,101.62741914059734 157.03381307655945,101.94695172080537 156.52739091869444,102.98543188424082 157.10615909891203,102.02683484938461 157.10615909891203,102.02683484938461" stroke="#00AFAA" stroke-linecap="round" stroke-linejoin="round" stroke-width="1"><title>2025-09-18 11.3km</title><desc>15852837758</desc></polyline><polyline fill="none" points="15.453776245645713,190.95950087082747 15.978376684419345,190.92213020105555 16.62143528665183,191.09029816689144 16.63835788151482,190.56710853365075 16.553744907549117,189.3151856236218 17.95832027582219,188.8480484536267 18.63522406766424,188.77330641778826 20.03979943593731,188.5677656935295 20.64901284861844,188.60513674805406 21.08900031336816,187.35320309645613 21.630523346946575,185.46594687597826 22.01974302722374,184.3261113165645 22.188968975213356,183.8963357781031 22.71356941392878,182.79386439824884 22.95048574107932,181.65401551791 23.03509871510323,180.47678857787105 23.77969288622262,179.8601434758457 24.304293324938044,179.80408474781143 25.641178313991986,179.63590848099557 25.556565339968074,179.50510463234968 25.895017235947307,179.43035954245715 27.011908492597286,179.1687515351805 28.399561266007368,178.83239794315887 29.127232842321973,178.81371161801508 29.634910686290823,178.79502529128513 30.41335004696157,178.75765263331414 32.54559699149104,179.3743007089215 33.37480413657613,179.63590848099557 35.37167032272555,180.30861280593672 36.45471638976596,180.47678857787105 37.09777499217307,180.1030644721759 39.60231902223313,177.28142775592278 41.51457223435864,176.14155139197828 42.15763083670754,175.7678201993549 43.05452836101176,175.3940883957548 43.612973989278544,175.28196873552224 44.526794108445756,175.09510251297615 46.86211219057441,175.35671518184245 48.02977123152232,175.30065534940513 48.57129426510073,175.22590888480772 50.11125039169565,175.20722226487123 51.651206518290564,175.11378914213856 52.14196176745463,175.13247576972935 53.038859291758854,175.03904261643765 55.06957066751784,174.92692278207687 55.848010028130375,175.1511623957631 57.21874020679388,175.1511623957631 59.14791601378238,175.28196873552224 59.65559385775123,175.37540178955533 59.90943277964834,175.41277500042634 60.09558132244274,174.9082361376495 60.010968348477036,174.34763609524816 60.129426512052305,173.41329963610042 60.366342839202844,171.7314843861095 60.383265434007626,170.96532000308798 60.73863992479164,169.82541214412777 60.89094327791827,169.43298353305727 61.1447821999318,169.227425420293 61.36477593233576,169.30217384632851 61.56784706993494,169.3395480501349 61.73707301780814,169.39560934448673 62.12629269820172,169.43298353305727 63.05703541211551,169.76935095523368 63.36164211842697,169.60116730601294 63.158570980886,169.65722853614716 63.20933876524214,169.82541214412777 63.49702287686523,169.84409920407052 64.56314634910086,169.84409920407052 64.93544343468966,170.23652710930037 65.39235349418595,170.34864924421709 65.79849576932611,170.27390116036986 65.98464431212051,169.69460268196417 65.86618614854524,169.1153027354303 66.56001253530849,168.72287290520035 66.7292384832399,168.7602472037688 67.0,168.5733756497939 66.94923221558565,168.5733756497939 66.79692886240082,168.59206281208026 66.71231588843511,168.64812428971345 66.10310247575399,168.83499578254123 65.84926355374046,169.47035771547235 65.32466311502503,169.6385414609831 64.95236602943623,169.50773189189204 64.7154497022857,169.50773189189204 64.74929489189526,169.5451060620835 64.74929489189526,169.3395480501349 64.73237229709048,169.50773189189204 64.19084926351206,169.60116730601294 63.53086806641659,169.2647996363521 62.633970542112365,169.52641897775175 62.193983077362645,169.45167062502878 61.53400188020896,169.30217384632851 61.22939517395571,169.28348674208974 61.24631776876049,169.3208609489957 61.02632403635653,169.50773189189204 60.87402068317169,170.16177898879687 60.40018802881241,170.92794606504322 60.09558132244274,172.64714089001063 59.807897210877854,174.08602227164374 59.60482607327867,174.9082361376495 58.927922281378414,175.11378914213856 57.67565026629018,175.26328212015505 56.677217173273675,175.28196873552224 55.44186775304843,174.83348954479152 53.24193042929983,174.8895494917233 50.92353494197596,175.00166934443405 49.63741773739457,175.1511623957631 49.48511438415153,175.076415882344 48.774365402699914,175.35671518184245 48.24976496398449,175.41277500042634 47.75900971482042,175.16984902034164 46.659041052975226,175.1885356433777 46.083672829845455,175.00166934443405 46.11751801939681,175.3380285725434 45.98213726107497,175.3940883957548 45.406769037945196,175.28196873552224 44.42525853961706,175.35671518184245 44.23910999688087,175.22590888480772 43.42682544660056,175.5062080010248 42.817612033861224,175.80519334611017 42.02225007832749,176.1041783001856 41.76841115637217,176.2162975571846 41.39611407084158,176.365789814241 40.58382952056127,176.87032546022965 40.31306800380116,177.07587670051726 40.07615167653421,177.35617354843998 39.29771231592167,178.0288845813775 38.82387966150418,178.45867114946304 37.91005954245338,179.39298698831408 36.96239423379302,180.30861280593672 36.20087746786885,180.55153332570626 35.21936696959892,180.3833576087345 34.745534315297846,180.140436910282 33.79786900652107,179.87882971551153 33.01942964585032,179.6732809953828 32.680977749987505,179.5985359604092 32.42713882797398,180.06569202803075 31.919460984005127,181.9156206813932 31.733312441210728,182.77517839688517 31.530241303611547,183.33575777467922 31.25947978690965,184.19531015121902 30.971795675344765,184.51296999439364 30.68411156377988,184.66245682668523 30.481040426180698,184.75588604727818 30.074898151040543,184.79325772478478 29.922594797913916,184.19531015121902 29.85490441863658,183.16758410565672 29.753368849866092,183.57867507818446 28.467251645226497,183.6721047416504 26.92729551863158,183.59736101396265 25.92886242561508,183.59736101396265 24.930429332482163,183.80290620628512 23.64431212778436,184.15793837601086 23.508931369520724,184.27005368344544 23.238169852644205,184.5316558538325 22.882795361918397,184.71851436364523 22.239736759627704,185.9891481808154 21.884362268843688,186.8673762512626 21.647445941634942,188.43696695454128 21.190535882196855,189.1096453864302 21.004387339344248,188.71724987500056 20.42901911615627,188.82936294695537 19.37981823872542,188.8480484536267 18.618301472859457,188.9414759639185 17.56910059542861,189.20307278988184 16.790661234641448,189.20307278988184 16.536822312686127,189.3338710906246 16.587590097100474,190.7165914081852 16.43528674391564,191.22109538815857 15.809150736371521,191.33320723261568 15.166092134080827,191.52006018445536 14.895330617320724,191.4826896062732 15.06455656531034,191.12766880916024 15.369163271621801,190.75396211148473 15.284550297656097,190.5857938983536 14.963020996539854,190.54842316750728 14.99686618609121,190.09997392112564 15.132246944471262,190.09997392112564 14.99686618609121,189.72626554395538 14.895330617320724,189.55809657493955 14.81071764335502,189.70758010903955 14.57380131620448,189.8010072682082 14.353807583858725,189.96917605859926 14.1845816358109,189.72626554395538 14.353807583858725,189.61415291170124 14.150736446201336,189.95049064353225 14.066123472235631,187.7456009486341 14.083046067040414,187.54005930050334 14.099968661903404,187.55874491248687 14.099968661903404,187.5961161319865 14.235349420225248,187.95114241195552 14.1845816358109,188.0632558595389 14.066123472235631,187.5961161319865 14.083046067040414,187.54005930050334 14.066123472235631,187.55874491248687 14.13381385145476,187.52137368699186 14.083046067040414,187.61480173940072 14.539956126594916,188.60513674805406 14.083046067040414,187.55874491248687 14.015355687879492,188.04457028878096 14.083046067040414,187.98851356729574 13.879974929441232,188.3435392380925 14.066123472235631,187.57743052300066 14.032278282626066,187.52137368699186 14.049200877489056,187.54005930050334 14.066123472235631,187.52137368699186 14.049200877489056,187.54005930050334 13.846129739889875,187.7456009486341 14.083046067040414,187.50268807195243 14.049200877489056,187.61480173940072 14.099968661903404,187.55874491248687 14.099968661903404,187.40925997370505 14.11689125659177,187.67085855249024 14.066123472235631,187.54005930050334 14.083046067040414,187.55874491248687 14.066123472235631,187.55874491248687 14.083046067040414,187.48400245532684 14.066123472235631,187.52137368699186" stroke="#00AFAA" stroke-linecap="round" stroke-linejoin="round" stroke-width="1"><title>2025-09-17 10.4km</title><desc>15841686234</desc></polyline><polyline fill="none" points="137.17192600644194,177.76175630069338 136.96626768214628,178.24835682517732 136.73122959735338,178.79983669839567 136.90750816103537,179.221556084638 136.7899891184643,180.29207251479966 136.76060935808346,180.194752958545 136.73122959735338,180.6164708630822 136.5549510336714,181.5896643178712 136.3786724699894,182.17357924568933 136.4668117518304,183.2116481080593 136.49619151256047,183.86043976873043 136.7018498366233,184.638988362276 136.2905331881484,185.41753542920924 136.26115342753474,185.969005344552 136.34929270937573,186.39071711612632 137.34820457024034,186.55291383201256 138.6115342762787,186.45559581037378 139.22850924904924,186.4880351535976 140.08052230684552,186.45559581037378 140.72687704011332,186.61779249983374 141.54951033729594,186.6502318297571 142.04896626761183,186.71511048165848 143.01849836762995,186.6502318297571 143.51795429817867,186.55291383201256 143.57671381928958,187.03950358214206 143.51795429817867,187.33145714609418 143.7236126222415,187.33145714609418 144.3993471164722,187.29901787175913 144.60500544053502,187.68828898813808 145.01632208912633,188.66146510947146 145.10446137096733,188.85610004753107 145.07508161035366,188.75878259039018 145.25136017403565,188.9534174806613 145.5451577800559,189.14805227561737 145.75081610435154,189.21293051939574 145.60391730139963,189.3426869751711 145.78019586508162,189.50488248519832 146.74972796509974,189.3426869751711 147.0435255712364,188.5641476046294 147.16104461369105,188.5641476046294 147.1904243743047,188.53170843111002 148.33623503800482,187.91536362984334 149.15886833507102,187.5585319917882 149.59956474415958,187.49365347769344 149.57018498366233,187.10438217045157 149.77584330784157,186.42315646455972 150.39281828072853,184.80118579385453 151.00979325349908,184.2821537797572 151.86180631117895,184.6065488680906 152.71381936885882,184.9958226242161 153.41893362347037,185.4499748572416 154.8585418931907,186.6502318297571 155.47551686607767,187.20170003309613 155.97497279650997,187.3963356866734 156.1806311206892,187.85048517398536 156.73884657234885,187.20170003309613 157.15016322082374,186.7475498036656 157.41458106634673,186.22852033388335 157.79651795420796,185.5148537052155 158.354733405984,185.41753542920924 158.354733405984,185.54729312530253 158.7660500544589,186.1636416024703 159.1773667029338,185.80680839015986 159.73558215447702,185.48241428256733 160.05875952111091,185.5148537052155 160.76387377583887,184.89850422090967 161.7334058759734,184.54166987162898 162.29162132763304,184.2172747302684 162.8792165396735,183.4062857175595 163.67247007612605,182.7574933146534 164.34820457012393,182.3357776843186 164.73014145810157,182.10869985155296 165.34711643098854,181.65454379664152 165.934711643029,181.10306788867456 166.7573449400952,180.6164708630822 167.55059847666416,179.93523402535357 168.22633297054563,179.61083512043115 169.60718171915505,179.0917963211832 171.2230685527902,178.57275684335036 173.01523395010736,177.76175630069338 174.39608269860037,177.27515518004657 175.2774755168939,177.08051456470275 175.6887921654852,176.78855346294586 176.9227421110263,176.59391260906705 177.56909684441052,176.56147245742613 178.71490750834346,176.20463061510236 179.4787812839495,175.88022866178653 180.53645266604144,174.55017788219266 181.00652883586008,174.12845353380544 182.44613710558042,172.44155166044948 183.32752992387395,171.69541969918646 184.3558215451194,171.27369231829653 185.00217627862003,171.1763705513731 185.85418933618348,171.01416755342507 186.23612622427754,170.55999880674062 186.91186071827542,170.55999880674062 187.0,170.88440510738292 186.85310119693168,171.7603007949656 186.64744287275244,171.9225034880219 186.61806311213877,171.7603007949656 186.5886833515251,171.82518188020913 186.70620239397977,171.7278602484439 186.2655059848912,171.53321691340534 186.5005440696841,171.3385734829062 186.20674646354746,171.3061329019256 186.05984766059555,171.3710140613257 185.85418933618348,171.56565747581772 185.94232861802448,171.5007763483154 185.50163220893592,171.56565747581772 168.9314472252736,178.89715659656213 167.57997823739424,180.06499351322418 167.57997823739424,180.16231310120202 167.31556039187126,180.29207251479966 166.16974972793832,180.84354954923037 165.11207834607922,181.62210405856604 163.76060935796704,182.62773470694083 163.0554951034719,183.14676888365648 162.84983677905984,183.63336280806107 162.32100108801387,184.02263751835562 162.35038084874395,183.9901979737042 160.176278563682,185.06070154637564 159.8531011970481,185.38509599861572 159.38302502711304,185.80680839015986 158.442872687825,185.48241428256733 158.03155603900086,185.38509599861572 157.73775843309704,185.5148537052155 157.5321001088014,185.64461136958562 157.5321001088014,186.1312022327911 157.50272034818772,186.03388410789194 157.2676822632784,186.4880351535976 156.9445048966445,186.81242843958898 156.2981501632603,187.33145714609418 156.0337323176209,187.3963356866734 155.68117519048974,187.36389641766436 155.09357997833285,186.87730706500588 154.03590859624092,186.03388410789194 152.3906420021085,184.93094369128812 151.5680087050423,184.34703281868133 151.03917301411275,183.9901979737042 150.5103373231832,183.69824195306865 149.86398258968256,183.5360440709337 148.4243743198458,183.5684836526052 147.48422198044136,183.43872530991212 146.9553862893954,183.5360440709337 146.22089227417018,183.34140652496717 144.66376496176235,183.37384612261667 144.36996735574212,183.79556065044017 144.51686615881044,184.7363068292034 144.75190424360335,185.38509599861572 144.78128400433343,186.29339905478992 144.89880304667167,186.7475498036656 145.07508161035366,187.29901787175913 145.33949945587665,187.85048517398536 145.6332970620133,188.49926925479667 145.69205658324063,188.4668300760095 145.57453754066955,188.66146510947146 145.3688792164903,188.59658677555854 145.28073993464932,188.49926925479667 144.8106637649471,188.1424381416 144.72252448322251,187.49365347769344 144.5462459194241,187.1692607482546 143.7236126222415,187.2341393151728 143.37105549499393,187.03950358214206 142.8128400434507,187.00706428402918 141.9314472252736,187.10438217045157 141.54951033729594,186.6502318297571 140.4330794340931,186.6826711569738 139.28726877027657,186.81242843958898 137.90642002166715,186.4880351535976 137.46572361246217,186.52047449417296 136.34929270937573,186.42315646455972 136.31991294887848,185.90412657085108 136.3786724699894,185.5148537052155 136.58433079440147,185.2228988056595 136.76060935808346,184.80118579385453 136.81936887919437,184.44435135708773 136.6137105547823,183.69824195306865 136.64309031551238,183.69824195306865 136.6137105547823,183.27652732186834 136.6137105547823,182.66017436276888 136.6137105547823,182.10869985155296 136.7899891184643,181.2003872221685 136.84874863969162,180.06499351322418 136.9368879214162,178.86471663313569 136.73122959735338,178.70251677642227 136.43743199121673,178.60519683055463 136.5255712729413,178.08615671657026 136.2905331881484,177.79419635428349 135.35038084874395,177.95639658204163 135.17410228494555,178.08615671657026 134.11643090308644,178.08615671657026 134.0576713818591,178.0212766545883 133.9989118607482,177.79419635428349 134.49836779094767,177.08051456470275 134.52774755156133,176.20463061510236 134.79216539708432,174.84214063017862 134.52774755156133,174.55017788219266 133.52883569081314,174.6150585114665 133.2350380847929,174.80970033540507 133.20565832417924,175.06922261902946 133.2350380847929,174.84214063017862" stroke="#00AFAA" stroke-linecap="round" stroke-linejoin="round" stroke-width="1"><title>2025-09-16 5.0km</title><desc>15826448404</desc></polyline><polyline fill="none" points="49.60700642259326,218.19258680433268 49.371869901777245,218.6747525651299 49.640597354155034,218.19258680433268 49.338278970331885,218.60057325073285 49.23750617553014,219.82453038950916 49.035960586508736,220.71467896306422 49.13673338096123,221.19684204494115 49.06955151783768,222.1982560400793 49.10314244951587,222.56914955173852 49.06955151783768,222.86586414289195 49.23750617553014,223.60764977231156 49.13673338096123,223.941452910105 48.83441499713808,224.16398819885217 48.666460339329205,224.42361256459844 48.599278476205654,224.9057717070682 48.80082406545989,225.38793033745605 48.76723313389812,225.7217321662465 48.632869407651015,225.8700884557329 48.43132381851319,225.94426658231532 48.330551023827866,226.2038899298932 48.36414195538964,226.6860471815162 48.46491474995855,226.87149214194505 48.36414195538964,227.98416031364468 48.19618729769718,228.76302641120856 48.263369160704315,229.87568994695903 48.19618729769718,231.1367053242284 48.22977822914254,232.657336855802 48.36414195538964,233.17657572441385 48.330551023827866,233.51037182641448 48.43132381851319,233.91834450667375 48.397732886835,234.1037865128601 48.49850568152033,234.28922844334738 48.46491474995855,234.54884701877018 48.599278476205654,235.32770185402478 48.56568754464388,235.58731983561302 48.330551023827866,235.8469376686844 44.90427600604016,238.07222729115165 44.232457375037484,238.55437193842954 43.963729922426865,238.81398807489313 43.76218433340546,238.8881640865293 43.49345688091125,238.92525208790903 43.325502223102376,238.9994280814135 43.22472942864988,239.1848680122639 43.02318383927923,239.22195598937105 42.98959290771745,239.5557476466638 43.15754756552633,239.8524511361611 43.22472942864988,240.2975060067547 43.39268408634234,240.7425604411983 43.39268408634234,240.9650874947838 43.291911291657016,241.11343880317872 43.02318383927923,241.22470225280267 42.45213800284546,241.2988778706058 42.14981961902231,241.44722907006508 41.31004633021075,241.4843168623629 41.04131887794938,241.59558022097917 40.70540956244804,241.59558022097917 40.20154558913782,241.81810685645905 39.46254509536084,241.96645788633032 39.025862985057756,242.11480886753998 38.38763528573327,242.18898433999857 37.51427106547635,242.07772112669772 37.27913454454392,242.30024752597092 37.144770818413235,242.6711246157065 37.211952681536786,243.7466664626263 37.37990733911283,244.00627963014995 37.71581665473059,244.1546299449983 37.85018038074486,244.45133042920497 37.61504386016168,244.7109431938734 37.581452928483486,244.89638079199358 37.749407586292364,245.415605663904 37.85018038074486,245.415605663904 37.37990733911283,245.56395551824244 37.3127254761057,245.74939276798978 37.54786199692171,247.30706267632195 37.54786199692171,247.75211024002056 37.48068013379816,248.01172111742198 37.54786199692171,248.3455063131987 37.48068013379816,248.64220405888045 37.54786199692171,249.5322961329366 37.37990733911283,250.57073468074668 37.413498270791024,251.201214069064 37.27913454454392,251.42373599702842 37.245543612982146,251.6091708538588 37.3127254761057,252.05421420099447 37.211952681536786,252.499257111951 37.3127254761057,252.83303900895407 37.245543612982146,253.315167982626 37.3127254761057,253.94564356040792 37.3127254761057,254.46485808482976 37.413498270791024,255.2065920898749 37.3127254761057,255.65163191131433 37.37990733911283,256.31919082571403 37.413498270791024,258.17351599462563 37.245543612982146,258.729812068661 37.3127254761057,259.47153910741326 37.27913454454392,260.02783359150635 37.37990733911283,260.4728686880553 37.3127254761057,261.14042051532306 37.413498270791024,261.8079713610641 37.447089202469215,262.6609515695309 37.178361749858595,264.18147753266385 37.3127254761057,264.3669071799668 37.34631640778389,264.7377662472427 37.54786199692171,264.886109789426 37.447089202469215,265.92451322762645 36.137042871909216,265.92451322762645 34.692632815334946,266.4066283025604 34.22235977370292,266.4066283025604 34.155177910695784,266.4066283025604 34.255950705264695,266.3695425458136 34.155177910695784,266.3324567859818 33.95363232132513,266.44371405642596 33.75208673207089,266.62914277997334 33.28181369032245,266.81457142785075 32.00535829144064,267.0 31.870994565426372,266.88874286576174 31.770221770741045,266.29537102306494 31.602267112932168,266.0357705981005 31.165585002861917,265.4794834734348 31.06481220817659,265.4423976408143 30.89685755048413,265.5165693029994 30.863266618805937,265.4794834734348 31.09840313985478,265.4423976408143 31.29994872910902,265.0344532831223 32.54281319642905,264.77485213737236 32.3412676070584,264.92319566733204 32.408449470065534,264.7377662472427 32.3412676070584,264.58942265674705 31.501494318479672,264.2927353301784 31.367130592116155,264.32982125660055 31.165585002861917,264.25564940072945 31.669448976172134,264.5152508432802 31.669448976172134,264.6265085588966 31.602267112932168,264.7006803540862 31.770221770741045,264.6265085588966 31.83740363374818,264.4410790175607 32.038949223118834,264.47816493193386 31.43431245512329,264.32982125660055 31.09840313985478,264.18147753266385 30.359402645844966,260.58412739404594 30.426584508852102,260.9179033485998 30.594539166544564,260.84373093533213 30.62813009810634,260.62121362335165 30.560948234866373,260.4728686880553 30.52735730353743,260.4728686880553 30.493766371859238,260.62121362335165 30.560948234866373,260.6953860728536 30.493766371859238,261.25167905760463 30.594539166544564,261.3258514041372 30.661721029668115,260.7695585102192 31.165585002861917,259.9536610329815 31.06481220817659,260.10200613792404 31.165585002861917,260.8066447243036 31.06481220817659,260.6953860728536 31.83740363374818,260.6953860728536 32.30767667538021,259.9536610329815 32.106131086242385,260.3616099548235 32.24049481237307,260.2503511942632 32.30767667538021,260.324523704272 31.669448976172134,260.99207574952743 31.43431245512329,261.1033343283925 31.232766865869053,261.02916194553836 31.165585002861917,261.25167905760463 31.165585002861917,260.7324722929916 31.63585804461036,260.8066447243036 31.333539660670795,260.4357824467297 31.165585002861917,260.10200613792404 31.232766865869053,260.324523704272 31.165585002861917,260.1761786721763 31.232766865869053,260.2503511942632 31.165585002861917,260.2874374508392 31.13199407130014,260.2132649347186 31.165585002861917,260.4357824467297 31.43431245512329,260.3616099548235 31.63585804461036,260.4728686880553 31.535085249808617,260.54704116177163 31.501494318479672,260.65829984965967 31.535085249808617,261.4741960607935 33.44976834801491,262.9205539236136 33.147449964191765,262.88346788217314 33.28181369032245,262.84638183758943 33.44976834801491,262.9205539236136 33.81926859507803,262.6609515695309 33.920041389763355,262.6609515695309 31.568676181486808,262.1046603109862 31.568676181486808,261.9934019774373 31.63585804461036,261.9934019774373 31.80381270230282,262.29009080617107 31.83740363374818,262.5496933722752 31.9717673601117,262.69803762913216 32.173312949365936,262.80929578997893 32.442040401743725,262.69803762913216 31.165585002861917,263.92187589930836 31.13199407130014,264.0331337604439 31.199175934423693,264.1073056526657 30.930448482045904,263.88478993973695 30.76249382435344,263.5881021527457 31.031221276847646,263.14307010910125 31.09840313985478,263.10598408570513 31.29994872910902,263.18015612932504 31.165585002861917,264.9973674142675 31.333539660670795,264.9973674142675 31.535085249808617,264.81193802441703 31.43431245512329,264.9602815423277 31.09840313985478,264.9602815423277 30.829675687360577,265.29405428047176 30.863266618805937,265.2569684328337 31.165585002861917,265.36822596675484 31.703039907617494,265.2198825820815 32.038949223118834,264.9973674142675 32.744358785566874,264.77485213737236 32.777949717245065,264.7006803540862 32.744358785566874,264.47816493193386 32.845131580368616,264.3669071799668 33.2146318271989,264.2927353301784 33.61772300582379,264.0331337604439 33.75208673207089,263.69936009545927 33.78567766363267,262.77220973942894 33.68490486894734,262.32717689606943 33.65131393738557,260.3986962023482 33.65131393738557,260.2503511942632 33.44976834801491,259.9536610329815 33.483359279693104,259.65697067792644 33.65131393738557,259.47153910741326 33.95363232132513,259.3602801288944 34.42390536295716,259.39736645808443 34.72622374689672,259.3231937965902 34.79340561013669,259.2490211229888 34.82699654158205,259.02650302957045 34.72622374689672,257.9509973741078 34.72622374689672,257.06092180189444 34.82699654158205,256.133757892414 34.79340561013669,255.98541149118682 34.82699654158205,255.6145452761266 34.72622374689672,254.5761182628048 34.82699654158205,253.50060206695343 34.79340561013669,250.7561698858044 34.72622374689672,250.05151570370072 34.82699654158205,249.5322961329366 34.79340561013669,249.05016314264503 34.894178404589184,248.30841908129514 34.894178404589184,246.3427914583881 34.86058747314382,245.56395551824244 34.659041883889586,245.11890580982435 34.42390536295716,244.89638079199358 34.3903144315118,244.74803071955102 34.49108722608071,244.59968059856328 34.72622374689672,244.41424287925474 34.894178404589184,244.1546299449983 34.894178404589184,243.0790890644421 34.99495119927451,242.74529999727383 34.82699654158205,242.22607207173132 34.42390536295716,241.70684355247067 34.42390536295716,241.55849243773264 34.49108722608071,241.4843168623629 34.659041883889586,241.4843168623629 34.7598146784585,241.59558022097917 34.7598146784585,241.66975577830453 34.659041883889586,241.70684355247067 34.49108722608071,241.4843168623629 34.524678157642484,241.26179006323218 34.05440511601046,241.0763509805838 34.08799604745582,241.11343880317872 34.05440511601046,240.9279996600526 34.18876884225756,240.7425604411983 34.22235977370292,240.5571211464994 34.12158697901759,240.40876965635107 33.920041389763355,240.26041811759933 33.78567766363267,240.1120665303606 34.05440511601046,240.2975060067547 34.08799604745582,240.37168177613057 34.05440511601046,240.48294540750794 33.81926859507803,240.7425604411983 33.81926859507803,240.8909118223528 33.920041389763355,240.9650874947838 34.155177910695784,240.9650874947838 34.45749629463535,241.18761443928815 34.591860020766035,241.18761443928815 34.86058747314382,241.00217532643 34.7598146784585,240.48294540750794 34.72622374689672,239.70409941565595 34.79340561013669,239.29613193450496 34.7598146784585,238.62854799246998 34.82699654158205,237.40464154959773 34.79340561013669,236.32908467913512 34.894178404589184,235.21643695933744 34.82699654158205,234.06669811770553 34.894178404589184,233.62163713917835 34.79340561013669,232.39771719876444 34.894178404589184,231.65594593205606 34.72622374689672,231.1367053242284 34.72622374689672,230.28366589345387 34.894178404589184,229.61606869922252 34.86058747314382,227.79871580773033 34.927769336267374,227.4649155063089 35.0285421309527,227.35364868454053 35.297269583214074,227.31655973786837 35.49881517258473,227.24238183547277 36.23781566659454,227.31655973786837 37.178361749858595,227.20529287983663 37.27913454454392,227.0198480556719 37.144770818413235,226.4264241096971 37.11117988685146,225.7588212431583 37.34631640778389,225.31375211992417 37.144770818413235,225.01703912881203 37.144770818413235,224.05272056811373 37.11117988685146,223.8672744562209 37.178361749858595,223.57056051961263 37.178361749858595,222.75459619401954 37.11117988685146,222.56914955173852 37.11117988685146,220.788857932057 37.144770818413235,220.41796296578832 37.11117988685146,219.9357990565768 37.144770818413235,219.5278138104477 37.245543612982146,219.45363463528338 37.11117988685146,219.2681866446801 37.077588955289684,218.82311115777702 37.11117988685146,218.48930425624712 37.043998023844324,218.19258680433268 37.077588955289684,217.52497182862135 37.01040709216613,216.37518817966338 37.077588955289684,216.07846934581175 37.043998023844324,215.03995190016576 37.144770818413235,214.96577199161402 37.37990733911283,215.0028619474324 37.413498270791024,214.92868203297257 37.48068013379816,214.4836022911477 37.61504386016168,213.92725200031418 38.79072646412533,213.29672084623598 39.96640906832181,213.3338109382894 40.26872745226137,213.22254065290326 40.70540956244804,213.22254065290326 41.04131887794938,213.37090102749062 41.04131887794938,213.44508119657985 40.94054608326405,213.5563514274836 41.41081912489608,213.37090102749062 41.5451828512596,213.44508119657985 41.780319371959195,213.48217127655516 42.08263775589876,213.7047116929607 42.08263775589876,213.66762163120438 42.45213800284546,213.59344149834942 42.75445638690144,213.44508119657985 43.291911291657016,213.44508119657985 43.49345688091125,213.37090102749062 43.72859340172727,213.37090102749062 43.93013899109792,213.5563514274836 44.064502717228606,213.81598186021438 44.366821101284586,214.00143207842484 44.7363213483477,213.9643420408829 45.105821595177986,213.74180175174843 45.50891277380288,213.63053156630485 45.77764022629708,213.66762163120438 45.94559488398954,213.77889180745115 46.214322336250916,213.81598186021438 46.24791326792911,213.63053156630485 46.113549541682005,213.48217127655516 45.60968556837179,213.03709011647152 45.340958115994,213.03709011647152 45.20659438986331,213.11127034004312 45.03863973217085,213.0 44.63554855354596,213.22254065290326 44.16527551191393,213.22254065290326" stroke="#00AFAA" stroke-linecap="round" stroke-linejoin="round" stroke-width="1"><title>2025-09-13 5.4km</title><desc>15794483312</desc></polyline><polyline fill="none" points="169.58510160492733,216.3595811160194 169.5675142625696,216.45667812996544 169.8840864257072,217.38880744563357 170.00719782238593,217.46648472358356 167.65049394156085,216.8644851554709 167.35150912083918,216.5537751042284 167.45703317521838,216.34016170848918 169.8840864257072,217.5830005929165 170.32376998552354,217.6024198988889 169.58510160492733,217.40822676746757 170.85139025736134,217.81603216017538 171.0800257085357,217.66067780736194 171.0800257085357,217.97138641144556 170.886564942135,219.17537841536978 170.7282788606244,220.20459255106107 170.517230751866,222.55429113964783 170.39411935518729,222.88441222076654 170.42929403990274,223.09801973485446 170.71069151820848,223.2145328434417 170.76345354539808,223.81651632793364 170.58758012152975,224.41849828782142 170.6755168334348,226.74873666264466 170.79862823017174,228.01093957766716 168.60021043085726,229.4867375636095 168.17811421345687,229.6615025077772 167.91430407750886,230.06928687794425 167.91430407750886,230.438234038651 167.59773191442946,230.438234038651 166.66560276749078,231.0401992295956 165.76864830538398,231.37030852578755 165.18826600635657,231.37030852578755 164.87169384327717,231.54507208526775 164.8892811855767,232.16645258961944 165.17067866399884,232.47714223270305 165.0475672671455,232.74899533731514 164.97721789765637,234.6131225374411 164.9948052399559,235.50634497417195 164.87169384327717,236.2248040641134 164.85410650086123,236.7490836514189 164.9420432127663,238.1665745248756 164.92445587040856,240.166581520185 164.9420432127663,241.31220901673078 164.95963055524044,242.41899644047953 164.9420432127663,243.97237360895087 164.9948052399559,243.29277234643814 165.1530913215247,243.83645351184532 163.3591823973693,244.06945934508985 163.27124568534782,244.1277107677015 162.84914946788922,244.24421357015672 161.741146897024,244.41896766678838 161.2662886523758,244.49663611290453 158.7864733747556,244.5160532205191 158.68094932037639,244.72964129925822 158.34678981493926,244.88497796322918 157.85434422787512,244.90439503912057 156.97497710812604,244.90439503912057 156.30665809719358,244.9432291861158 155.99008593405597,245.75874480759376 156.07802264601924,249.09844626873382 156.0604353036033,252.55459955931292 156.0604353036033,254.5544855450862 156.09560998843517,255.52529792160203 156.02526061882963,256.787348086742 156.04284796124557,258.30179944523843 156.13078467320884,259.7774094423803 156.0604353036033,261.3112574990082 156.04284796124557,261.97139159281505 156.07802264601924,262.84509566459747 155.44487831986044,262.9033424886002 154.7413846240379,262.9421736967488 154.5830985424691,262.9615892984002 153.93236687389435,263.0392516891734 152.98265038459795,263.19457639475877 152.36709340073867,263.1557452278794 151.34702754189493,263.2528231332544 150.88975663972087,263.09749846567865 149.53553127526538,263.2528231332544 149.35965785128064,263.09749846567865 149.21895911218598,263.09749846567865 148.79686289466918,263.0586672829377 148.90238694910659,263.33048542898905 148.95514897623798,264.12652249833627 149.14860974252224,264.82547967990104 149.25413379690144,265.5244348077249 149.41241987847025,266.0292344561167 150.48524776462,266.22338788183697 151.593250335427,266.22338788183697 152.63090353668667,266.2039725463983 153.1057617814513,266.12631118876743 153.52785799879348,266.14572653055075 154.17858966742642,266.14572653055075 154.60068588494323,266.08748050050053 155.19865552627016,266.14572653055075 155.3745289501967,266.5922789541073 155.35694160778075,267.0 155.19865552627016,266.534033033342 155.1107188143069,266.14572653055075 154.5303365152795,266.08748050050053 154.03789092827355,266.06806515395874 153.68614408036228,266.08748050050053 152.20880731922807,266.2039725463983 151.83947312890086,266.2816338786215 151.24150348751573,266.2622185479704 150.02797686232952,266.2039725463983 149.5531186176231,265.93215768391383 149.2365464545437,264.82547967990104 148.90238694910659,263.07808287513035 149.0782603729749,262.88392688220483 149.57070596003905,263.0586672829377 150.76664524286753,263.01983609385206 151.13597943319473,262.9615892984002 151.62842502020067,263.01983609385206 152.73642759106588,262.9033424886002 153.8092554770992,262.9421736967488 154.42481246090028,262.88392688220483 154.81173399364343,262.7868488263339 155.1634808414383,262.7868488263339 155.23383021110203,262.6703551069804 155.19865552627016,262.14613266385277 155.33935426548123,261.9519759102841 156.02526061882963,261.85489747406973 156.20113404281437,261.7384032982227 155.93732390686637,260.787032060558 156.0076732764137,258.78719848100445 156.0076732764137,257.2339180795534 155.99008593405597,255.97187028403278 155.97249859164003,253.91374720574822 155.97249859164003,250.3411139092059 155.93732390686637,248.0111067564867 155.93732390686637,247.60335315753764 155.97249859164003,246.18591854069382 155.97249859164003,244.96264625723416 156.57046823302517,244.88497796322918 157.23878724407405,245.0014803946542 157.87193157017464,244.88497796322918 158.69853666279232,244.82672672618355 158.69853666279232,244.477219003762 158.90958477155073,244.49663611290453 160.4748582446482,244.477219003762 161.2662886523758,244.477219003762 162.12806842970895,243.91412214834418 162.2160051416722,243.38985835998028 161.96978234814014,243.38985835998028 161.88184563611867,243.97237360895087 161.91702032100875,244.3801334341697 161.70597221225034,244.39955055128667 161.17835194035433,244.43838478074758 159.08545819547726,244.477219003762 159.03269616828766,244.5160532205191 160.56279495666968,244.49663611290453 160.7914304077276,244.477219003762 161.75873423943995,244.3607163154811 162.58533933199942,244.22479644035047 163.13054694613675,244.147127905424 163.53505582129583,244.03062505539856 165.01239258243004,243.37044116048492 164.8892811855767,242.4772482674016 164.8892811855767,241.95298131099844 164.8365191585035,240.41900839183654 164.92445587040856,239.29279412572214 164.8892811855767,238.06948637848836 164.90686852805084,237.46753898602037 164.9420432127663,236.65199492625834 164.81893181608757,236.65199492625834 164.8365191585035,236.1277151248505 164.9948052399559,234.47719708981458 165.22344069118844,232.55481458004215 164.97721789765637,232.32179746188922 164.85410650086123,231.66158105357317 165.06515460961964,231.2732176039135 165.64553690858884,231.35089034456178 166.43696731637465,231.11787204642314 166.9470002457383,230.9819446002948 167.38668380561285,230.80718062681262 167.6153192567872,230.438234038651 167.89671673515113,230.51590705223498 167.86154205031926,230.574161795681 168.0901775014354,230.30230620395741 168.248463582946,229.79743070890254 169.11024336027913,229.37022752939083 169.4092281810008,229.0595338256535 169.8313243984594,228.8265132814122 169.91926111048087,228.76825810963055 170.5699927790556,228.26337935640186 170.95691431168234,228.0497764841566 170.83380291500362,226.8264108817384 170.74586620298214,226.2632722184062 170.69310417579254,224.8068729367078 170.83380291500362,223.5058153650316 170.99208899657242,223.02034429738706 170.76345354539808,222.96208770266094 170.69310417579254,221.93288550770376 170.78104088781402,220.55413596062863 170.85139025736134,220.02982065350807 171.0448510237038,218.92292898443702 171.22072444763035,217.6800971069897 171.06243836606154,217.6024198988889 169.91926111048087,217.77719358149625 169.60268894740148,217.93254785810132 169.51475223538,217.56358128531429 169.9368484528968,217.11693677288713 169.5675142625696,216.98100131988758 169.47957755066454,216.92274324476602 169.60268894740148,216.37900052196346 169.4619902081904,216.26248406233208 169.42681552347494,216.22364522980934 169.1981800722424,216.22364522980934 169.05748133308953,216.2430646468856 168.8816079092212,216.22364522980934 168.68814714293694,215.87409545108676 168.84643322450574,215.85467600388802 168.5650357460836,213.9321428737603 168.58262308855774,213.9321428737603 168.58262308855774,213.8350448282872 168.60021043085726,213.95156247806153 168.65297245810507,213.9709820807766 169.05748133308953,213.15535739950428 168.9343699364108,215.27209184922685 169.0398939907318,216.28190347626514 168.5650357460836,213.9321428737603 168.58262308855774,213.9321428737603 168.16052687098272,213.99040168194915 168.33640029502567,214.5535694250284 168.6177977732732,213.95156247806153 168.5650357460836,214.7866039628425 168.84643322450574,215.4468672456278 168.8288458820316,215.64106197968067" stroke="#00AFAA" stroke-linecap="round" stroke-linejoin="round" stroke-width="1"><title>2025-09-12 11.5km</title><desc>15784793735</desc></polyline></svg>