<?xml version="1.0" encoding="utf-8" ?>
<svg baseProfile="full" height="300mm" version="1.1" viewBox="0,0,200,300" width="200mm" xmlns="http://www.w3.org/2000/svg" xmlns:ev="http://www.w3.org/2001/xml-events" xmlns:xlink="http://www.w3.org/1999/xlink"><defs /><rect fill="#f5f5f5" height="300" rx="1" ry="1" width="200" x="0" y="0" /><text fill="#006cb8" style="font-size:12px; font-family:MGI-Regular; font-weight:bold;" x="10" y="20">超过5公里的活动</text><text fill="#006cb8" style="font-size:4px; font-family:MGI-Regular" x="10" y="280">Runner</text><text fill="#006cb8" style="font-size:9px; font-family:Arial" x="10" y="290">XHH</text><text fill="#006cb8" style="font-size:4px; font-family:MGI-Regular" x="65" y="280">特殊的活动</text><rect fill="yellow" height="2.6" rx="1" ry="1" width="2.6" x="65" y="283" /><text fill="#006cb8" style="font-size:3px; font-family:MGI-Regular" x="70" y="285.5">大于 20.0 km</text><rect fill="red" height="2.6" rx="1" ry="1" width="2.6" x="65" y="287" /><text fill="#006cb8" style="font-size:3px; font-family:MGI-Regular" x="70" y="289.5">大于 40.0 km</text><text fill="#006cb8" style="font-size:4px; font-family:MGI-Regular" x="120" y="280">数据</text><text fill="#006cb8" style="font-size:3px; font-family:MGI-Regular" x="120" y="285">次数: 10</text><text fill="#006cb8" style="font-size:3px; font-family:MGI-Regular" x="120" y="290">周均次: 3.3</text><text fill="#006cb8" style="font-size:3px; font-family:MGI-Regular" x="141" y="285">所有: 85.4 km</text><text fill="#006cb8" style="font-size:3px; font-family:MGI-Regular" x="141" y="290">平均: 8.5 km</text><text fill="#006cb8" style="font-size:3px; font-family:MGI-Regular" x="167" y="285">最少: 5.0 km</text><text fill="#006cb8" style="font-size:3px; font-family:MGI-Regular" x="167" y="290">最多: 16.6 km</text><polyline fill="none" points="35.77353134157602,36.202999091357924 36.11663949827198,35.89303250113153 36.490939305746,35.89303250113153 36.83404746244196,35.858591754804365 37.14596396847628,36.134117646550294 37.395497173652984,36.78849091765005 37.301922221668065,36.85737225555931 37.5202637759503,36.96069424119196 37.208347269915976,37.58062562340638 37.27073057112284,38.13167497550603 36.8652391131036,40.12922283788794 36.709280859911814,41.36907537045772 36.740472510573454,42.6433644509234 36.92762241431046,43.29772761694039 36.89643076364882,43.91764967926429 36.740472510573454,44.124290164152626 36.55332260695286,44.365370601735776 36.709280859911814,45.29525099816965 36.615705908159725,45.74297045750427 37.05238901684061,45.70853051592712 38.393629993195646,45.84629026518087 39.32937951176427,46.01848988843267 39.454146114178,46.3284490328806 40.17155407834798,46.294009139208356 41.13849524734542,46.3284490328806 42.199011368560605,46.19068944119499 43.35310244129505,46.36288892378798 44.569576815352775,46.294009139208356 44.91268497204874,46.535088335949695 45.661284586880356,46.39732881181408 45.75485953874886,46.84504710062174 46.03558439412154,47.63716290821321 46.378692551050335,48.2570785889402 46.87775896093808,48.05044013005681 47.81350847927388,47.878241336817155 48.74925799795892,47.67160269210581 49.310707708937116,47.568283331842395 49.934540721355006,47.533843539480586 50.527182082878426,47.396084341802634 50.87029023980722,46.91392679515411 51.088631793973036,46.535088335949695 51.55650655331556,46.19068944119499 51.65008150518406,45.674090571614215 52.024381312541664,44.50313078990439 52.74178927682806,42.98776624389575 53.116089084069245,42.608924256201135 53.1472807348473,42.540043858316494 53.1472807348473,42.195641699509 53.30323898780625,41.747918472479796 53.86468869890086,40.680268858151976 53.77111374703236,40.37030556038371 53.646347144735046,40.163663235201966 53.39681393967476,40.57694778422592 53.33443063858431,40.921351265511476 53.1472807348473,41.127993219241034 52.92893918056507,41.575717104715295 52.67940597550478,41.85123925935477 52.27391451760195,41.95456002090941 52.21153121627867,42.12676123401616 51.86842305958271,42.29896237666253 50.24645722750574,42.5744840586849 49.34189935971517,42.26452215370955 48.218999937409535,42.02344051457476 46.81537565973122,41.8856795160973 45.94200944248587,41.85123925935477 45.69247623742558,42.23008192804991 45.630092936218716,42.5744840586849 45.69247623742558,43.02220640779706 45.661284586880356,43.642128875188064 45.75485953874886,44.02096993429586 45.817242839955725,44.778651031141635 45.75485953874886,44.88197107525775 46.1603509967681,45.811850332131144 46.0667760448996,46.50064845918678 46.00439274369273,46.39732881181408 45.00625992391724,46.569528209918644 44.91268497204874,46.36288892378798 45.19340982765425,46.81060724906274 45.13102652633097,47.67160269210581 45.16221817699261,48.91143304077559 45.44294303259812,49.70354496553773 45.817242839955725,50.56453449995024 45.53651798446663,50.56453449995024 45.97320109303109,50.495655401900876 45.84843449073378,50.56453449995024 46.09796769556124,50.2890180402901 46.09796769556124,50.185699321416905 46.00439274369273,50.39233673378476 46.03558439412154,50.42677629258833 46.12915934610646,50.42677629258833 46.253925948636606,50.39233673378476 46.19154264731333,50.185699321416905 46.09796769556124,50.254578470106935 45.97320109303109,50.3578971720126 46.03558439412154,50.220138897158904 46.09796769556124,50.70229266228853 46.09796769556124,51.39108279865468 46.34750090050511,52.320947697618976 46.253925948636606,52.562023447680986 46.34750090050511,52.975295841431944 46.78418400906958,54.00847505335696 46.75299235840794,54.421746029140195 46.87775896093808,55.248286765330704 47.626358575653285,56.48809483120567 47.595166924991645,57.55570441079908 47.43920867203269,58.58887239766773 47.06490886467509,60.00086455157725 46.7218007077463,61.1717812877032 46.472267502802424,63.30697402311489 46.971333912806585,64.5811967937916 47.34563372016419,65.33884094000678 48.218999937409535,66.78524871144327 48.09423333487939,67.16406897437992 47.96946673258208,67.4051362372702 47.96946673258208,68.0594609703985 47.56397527444642,68.43828008862329 47.37682537082583,68.7826608098112 47.28325041884091,69.47142140843789 47.501591973239556,69.95355315803317 47.75112517818343,70.12574293505168 47.06490886467509,70.60787393650389 46.90895061159972,71.0211286417325 46.441075852373615,71.26219369948376 46.316309249727055,71.74432340153726 46.1603509967681,72.91520752554061 45.84843449073378,73.3284599694598 45.44294303259812,73.36289765493711 44.81911002018023,73.22514689649688 44.444810212939046,73.36289765493711 44.039318754686974,74.32715170376468 43.69621059810743,75.08477833814686 43.25952748931013,75.49802865582751 42.79165273020044,76.15234083068208 42.51092787459493,76.60002752323635 42.38616127206478,76.87552679001237 41.91828651283868,76.84108939152793 41.48160340427421,77.11658850082313 40.982536994386464,77.83977280650288 39.92202087340411,79.45832366324612 39.89082922285888,80.11262969308882 40.04678747605067,80.38812666508602 40.60823718702886,80.56031218121643 41.2944535005372,80.5258750836656 41.38802845228929,80.49143798323348 41.044920295709744,80.5258750836656 40.51466223504394,80.69806054342189 40.51466223504394,80.62918636799441 40.17155407834798,80.69806054342189 40.20274572900962,80.62918636799441 40.233937379554845,80.56031218121643 40.10917077714112,80.5947492759733 39.92202087340411,80.62918636799441 39.766062620445155,81.18017945706379 39.703679319121875,81.7656088253425 40.01559582527261,82.17885259597097 39.89082922285888,82.07554169133073 38.76792980066966,82.55765903010615 37.80098863155581,82.86759131393046 36.5845142576145,83.00533892252133 35.64876473892946,83.21196025109384 34.58824861806352,83.59076575713698 34.15156550949905,83.86626045696903 32.77913288236596,84.65830671630101 30.93882549589034,85.48478818355943 28.6930266515119,86.48345112873358 26.946294217021205,87.0 26.50961110845674,86.65563415610814 26.416036156588234,84.21062857852667 26.35365285538137,83.59076575713698 26.32246120471973,82.10997866242542 26.291269554174505,80.66362345710513 26.26007790362928,79.97488113961299 26.135311301099136,77.25433798806625 26.26007790362928,74.60265245562186 26.26007790362928,72.29532810018281 26.135311301099136,70.98669076510123 26.26007790362928,70.02242907733307 26.384844505926594,68.95485106491833 26.44722780713346,67.4051362372702 26.4784194577951,65.2355259093456 26.44722780713346,63.65135893554543 26.91510256647598,62.99702736144536 26.883910915930755,62.75595757822157 26.291269554174505,62.41157193449908 26.603186060325243,60.68963949609315 27.10225247021299,60.8618330564932 28.443493446568027,60.41412965339259 29.285668013384566,60.104180865047965 30.56452568853274,59.79423184879124 30.876442194799893,59.41540496412199 30.814058893360198,59.139894288615324 31.687425110838376,58.79550569111598 31.781000062590465,58.24448334999033 33.37177424412221,57.28019252003287 34.3699070638977,56.625851057935506 35.08731502795126,56.040386783570284 37.08358066738583,54.93833417916903 36.8652391131036,53.90515724604484 36.45974765508436,52.35538709899993 36.490939305746,51.52884069093852 36.45974765508436,49.08363141186419 36.646897558821365,47.464963946229545 36.92762241431046,46.3284490328806 36.522130956174806,45.88073019546573 36.615705908159725,45.19193105539307 36.67808920936659,43.504368405701825 36.92762241431046,40.06034203467425 37.02119736606255,38.92380715708714 37.33311387221329,38.02835327689536 37.364305522991344,36.99513489738456 36.83404746244196,36.512965453614015 36.24140610068571,36.650728208129294 35.274464931571856,36.82293158795801 34.43229036498815,36.85737225555931 34.3699070638977,36.34076194718364 34.58824861806352,36.09967691995553 35.08731502795126,35.686387981055304 34.931356774875894,35.720828741410514 34.40109871432651,35.651947217818815 34.4634820157662,35.23865783988731 34.806590172462165,34.928690540458774 34.837781822890975,34.85980888738413 34.99374007608276,34.65316386069753 35.24327328102663,34.20543262196588 35.368039883556776,33.551055340707535 35.24327328102663,33.551055340707535 35.21208163036499,33.0344409798563 35.430423184647225,33.1033229312161" stroke="#00AFAA" stroke-linecap="round" stroke-linejoin="round" stroke-width="1"><title>2025-09-27 5.9km</title><desc>15951301478</desc></polyline><polyline fill="none" points="79.37533039646223,54.11660952831153 79.37533039646223,53.90647800127044 80.13656387687661,53.433681814407464 80.89779735682532,53.065951206488535 81.32599118957296,53.59128058195347 81.65903083700687,54.0115437732311 81.13568281917833,55.74512653390411 80.75506607932039,57.11097632575547 80.70748898689635,57.58376980846515 81.13568281917833,57.163508952071425 82.03964757733047,55.272331699263304 82.61057268735021,53.53874766378431 82.80088105727918,53.53874766378431 83.08634361228906,53.17101711593568 83.18149779736996,53.065951206488535 83.37180616753176,53.0134182452457 82.61057268735021,53.853945108887274 82.22995594725944,54.484339535352774 81.42114537465386,56.11285560944816 80.99295154190622,56.74324782117037 81.13568281917833,56.0077901808545 80.85022026463412,55.00966775184497 81.1832599118352,53.22355006419821 80.37444933922961,53.53874766378431 77.75770925125107,53.32861594785936 76.47312775347382,53.696346405602526 76.47312775347382,53.0134182452457 77.37709251092747,52.12035724881571 77.13920704857446,50.54436422861181 76.18766519823112,49.703833038394805 75.66431718063541,48.75823413551552 74.85550660802983,48.49556752684293 74.52246696036309,49.0209006369696 76.47312775347382,47.54996684688376 73.66607929510064,43.66248277242994 73.85638766526245,43.55741530895466 73.80881057283841,43.60994904272957 73.80881057283841,43.60994904272957 73.61850220267661,43.71501649770653 73.80881057283841,43.55741530895466 73.76123348018155,44.397954535495955 73.90396475791931,43.71501649770653 73.57092511001974,43.66248277242994 73.57092511001974,43.60994904272957 73.76123348018155,43.60994904272957 73.76123348018155,43.66248277242994 73.71365638775751,43.50488157093059 73.76123348018155,43.60994904272957 73.99911894276738,43.39981408172753 73.95154185034335,43.60994904272957 73.99911894276738,43.8726176477503 74.14185022027232,44.187819831771776 74.28458149777725,44.397954535495955 74.47488986793905,44.29288719216129 73.85638766526245,43.60994904272957 76.33039647596888,47.60250025463756 76.18766519823112,47.39236659841845 76.04493392072618,47.54996684688376 75.37885462562554,47.760100451589096 74.90308370022103,47.54996684688376 75.4740088104736,47.86516722809756 74.90308370022103,48.44303419213975 74.80792951537296,48.81076744443271 75.80704845837317,49.441166815930046 76.61585903097875,50.43929789005779 77.2819383260794,49.703833038394805 77.66255506617017,50.176631968060974 77.51982378866524,50.70196370460326 78.13832599110901,52.54062140180031 76.71101321582682,52.01529116771417 77.51982378866524,51.8051589539391 77.2819383260794,52.48808839765843 76.61585903097875,52.69822038820712 76.61585903097875,53.276083008095156 77.4246696033515,53.48621474119136 79.56563876662403,53.53874766378431 79.99383259913884,53.59128058195347 80.65991189423949,53.696346405602526 80.56475770939142,55.00966775184497 80.18414096930064,56.16538831742946 79.99383259913884,57.79390013363445 79.70837004412897,59.685069969447795 79.51806167396717,61.313572870683856 79.1374449338764,65.4636100018979 79.18502202653326,66.25158870988525 78.80440528644249,67.93260672595352 78.99471365637146,68.40539225115208 79.66079295170493,68.5629873489379 79.51806167396717,70.66425162868109 79.23259911919013,74.76169722381746 79.51806167396717,77.54584407625953 80.0414096917957,78.43886975845089 85.13215859048069,76.65281715372112 88.93832599138841,75.3920711518731 91.60264317202382,74.4990412381594 94.31453744485043,73.39588492666371 94.64757709275,72.97563440533122 94.2669603524264,72.24019533221144 95.64669603551738,71.60981831426034 98.21585903107189,70.34906242438592 100.97533039655536,69.40349388471805 101.40352422907017,68.45792395458557 102.16475770925172,66.56677992257755 102.68810572708026,65.41107805381762 103.49691629968584,64.04524589411449 104.35330396471545,63.62498926144326 106.58942731306888,65.09588627447374 109.01585903111845,66.56677992257755 109.53920704848133,66.98703463264974 111.06167400907725,64.51803427771665 111.29955947143026,61.523701976868324 111.39471365627833,60.367991043196525 110.63348017632961,59.94773200672353 108.11189427319914,60.42052340338705 106.30396475782618,60.105329177575186 106.20881057274528,59.15974557312438 106.58942731306888,57.58376980846515 107.44581497786567,54.852069331973325 108.92070484603755,53.32861594785936 110.53832599148154,53.22355006419821 112.44140969170257,53.38114888337441 113.29779735696502,53.22355006419821 114.86784140975215,53.74887931102421 115.48634361242875,54.0640766529832 115.53392070508562,54.43180668994319 115.29603524226695,54.32674098655116 115.62907488993369,54.0640766529832 115.39118942758068,54.0115437732311 115.81938326009549,52.90835231001256 115.62907488993369,52.54062140180031 115.91453744517639,51.17476190032903 116.81850220286287,51.01716254034545 117.19911894295365,51.01716254034545 117.38942731288262,50.49183106148848 117.67488986789249,48.44303419213975 118.34096916299313,48.39050085330382 119.05462555075064,48.23290081083542 120.19647577102296,48.18036745471181 120.14889867859893,48.23290081083542 120.29162995610386,48.07530072965892 121.19559471379034,48.337967510160524 121.0528634362854,48.70570082234917 121.52863436145708,49.54623331775656 122.00440528639592,49.86143272026675 122.52775330399163,50.386764714319725 123.90748898684978,50.49183106148848 125.09691629954614,50.28169834968867 125.04933920735493,50.12409877090249 124.00264317193069,50.54436422861181 123.47929515433498,50.43929789005779 123.81233480200171,50.49183106148848 123.66960352449678,50.807030000316445 123.85991189442575,50.28169834968867 124.28810572694056,50.33423153415788 125.09691629954614,49.86143272026675 125.00176211469807,49.96649915329181 124.85903083719313,49.96649915329181 124.8114537447691,49.96649915329181 125.57268722495064,49.28356703103054 126.38149779755622,47.39236659841845 127.0,45.23849266290199 126.61938326014206,42.61180736561073 126.09603524254635,42.03393515991047 125.23964757705107,41.876333559222985 125.00176211469807,41.92886743048439 125.52511013229378,42.03393515991047 124.76387665211223,41.61366413865471 124.4308370044455,41.61366413865471 124.47841409710236,41.61366413865471 125.144493392203,41.92886743048439 124.90660792985,41.771265803836286 124.38325991202146,41.561130241607316 124.19295154209249,41.61366413865471 123.62202643183991,41.98140129732201 121.81409691646695,42.29660440882435 121.14801762113348,43.294746575236786 120.8625550661236,44.29288719216129 120.67224669619463,44.92329099396011 120.71982378838584,45.86889553733636 120.71982378838584,46.07902969134739 120.67224669619463,46.2366302619339 120.95770925143734,47.7075670567574 120.7674008810427,48.12783409439726 119.86343612358905,47.86516722809756 119.43524229084142,48.39050085330382 119.10220264317468,48.12783409439726 118.57885462557897,48.337967510160524 117.62731277523562,49.54623331775656 117.53215859038755,51.27982811885886 117.05638766521588,51.22729501168942 116.24757709284313,51.22729501168942 115.96211453783326,52.43555538926739 115.81938326009549,53.0134182452457 115.53392070508562,53.22355006419821 114.39207048458047,53.38114888337441 110.63348017632961,53.065951206488535 109.3964757709764,52.85581933619687 108.54008810571395,53.32861594785936 107.5409691631794,55.00966775184497 104.87665198254399,61.10344369581435 103.82995594711974,62.36421771469759 102.02202643174678,62.36421771469759 97.59735682816245,62.311685513181146 95.97973568295129,62.15408888325328 94.2669603524264,62.04902444174513 93.26784140989184,61.94395998300752 92.88722466980107,61.20850829180563 92.8396475771442,56.21792102110339 93.02995594730601,48.96836734522367 93.26784140989184,46.44676429586252 93.17268722457811,46.184096742770635 92.45903083705343,46.70943174161948 91.74537444929592,46.97209908004152 91.22202643170021,46.76196521782549 89.74713656399399,46.97209908004152 88.70044052856974,47.1822328735725 87.65374449337833,47.28729974461021 85.56035242299549,47.812633841938805 84.22819383256137,47.97023398755118 82.65814977977425,47.86516722809756 81.61145374435,47.91770061006537 80.85022026463412,48.44303419213975 80.85022026463412,52.90835231001256 80.46960352407768,53.433681814407464 79.6132158592809,53.48621474119136 76.94889867841266,54.0640766529832 76.33039647596888,54.0115437732311 77.37709251092747,52.330489359621424 77.56740088108927,52.01529116771417 77.04405286349356,51.8051589539391 76.33039647596888,51.752625889726914 76.28281938331202,51.8051589539391 76.85374449333176,50.964629411755595 76.94889867841266,50.176631968060974 76.71101321582682,49.96649915329181 76.52070484566502,49.59876656217966 75.4740088104736,49.12596720736474 75.61674008821137,48.54810085706413 74.90308370022103,48.18036745471181 74.76035242318176,48.915834049344994 74.57004405301996,49.0209006369696 73.76123348018155,43.60994904272957 73.80881057283841,43.820083935395814 73.90396475791931,43.60994904272957 73.95154185034335,43.66248277242994 73.99911894276738,45.08089184772689 73.61850220267661,44.608089170302264 74.04669603542425,44.24035351420753 73.85638766526245,43.92515135573922 73.90396475791931,44.08275245432742 73.80881057283841,44.03021875908598 74.28458149777725,43.55741530895466 73.90396475791931,43.71501649770653 73.57092511001974,43.66248277242994 73.28546255500987,46.02649615932023 73.14273127750494,46.2366302619339" stroke="#00AFAA" stroke-linecap="round" stroke-linejoin="round" stroke-width="1"><title>2025-09-26 7.3km</title><desc>15940756881</desc></polyline><polyline fill="none" points="155.4148753003683,40.816204517992446 155.86534369189758,40.63856506664888 156.31581208342686,40.851732399634784 156.8628094161395,40.531981360923965 157.44198306230828,40.247758018173045 157.66721725813113,40.38986971281702 157.1202199255349,41.5978172418545 157.47415937599726,41.953095288190525 157.21674886660185,42.770233693212504 157.08804361172952,44.33345071077929 156.79845678864513,44.972946961963316 156.76628047507256,45.39927727347822 156.79845678864513,46.1808817590354 156.73410416126717,47.24670379332383 157.05586729827337,47.957250364881475 156.60539890662767,48.6677957753418 156.4123410244938,49.378340024792124 156.63757522020023,50.12441023718566 158.5681540411897,50.19546447630273 159.855206588516,50.230991591583006 161.882314350456,50.230991591583006 162.94413270195946,50.12441023718566 163.23371952504385,50.87047916947631 164.29553787666373,51.012587392440764 164.6173010134371,51.26127667078981 164.8747115228325,51.82970877291518 165.09994571877178,52.82446316399728 165.55041411030106,54.03237615106627 165.1964746598387,54.067902952840086 164.68165364069864,54.13895654765656 164.71382995450404,54.2100101308024 164.68165364069864,54.174483340699226 165.3251799143618,54.3876440381282 165.80782461969648,54.671858138783136 166.25829301122576,55.3468658834754 166.67658508906607,56.94556425733026 166.58005614811555,57.15872359651257 166.54787983442657,58.117939329647925 166.80529034382198,58.43767743706121 167.2235824216623,59.43241671286523 167.41664030379616,60.071890760038514 167.5131692448631,60.746890123118646 167.77057975437492,60.995573834865354 167.77057975437492,61.599519399926066 167.67405081330799,62.94951233637403 167.70622712688055,64.01529327360913 167.70622712688055,64.72581244737376 167.35228767653462,66.11132149765035 167.06270085345022,67.78103166789515 167.641874499619,69.48626097035594 168.12451920483727,70.48097497608978 168.86457441956736,72.04409238885273 168.57498759636655,72.32829495117767 168.02799026377033,73.18090152423247 167.3844639902236,73.64272938671638 167.0948771670228,73.35852768327459 166.6122324616881,73.99798125511734 166.22611669753678,74.06903159394278 166.3548219522927,73.99798125511734 166.67658508906607,74.10455675894627 166.58005614811555,74.45980824998696 166.90181928488892,74.85058455518447 166.29046932503115,75.09926020292914 165.29300360090565,74.49533338320907 165.22865097341128,74.31770768846036 165.3573562281672,74.5308585135208 165.84000093350187,74.99268494275748 165.67911936494056,75.24136050924426 165.26082728710026,75.06373511903803 165.26082728710026,75.20583543693647 165.3573562281672,75.31241064498317 165.29300360090565,74.99268494275748 165.67911936494056,75.20583543693647 165.87217724707443,74.99268494275748 166.19394038396422,75.06373511903803 167.41664030379616,74.92163475471898 167.641874499619,75.13478528379346 167.86710869532544,75.3479357084725 167.2235824216623,75.70318618410965 166.90181928488892,76.09396137204021 166.70876140275504,76.48473620900768 166.22611669753678,76.94656056369422 166.19394038396422,78.08335688622901 165.96870618802495,78.08335688622901 165.64694305125158,77.79915808408987 166.32264563860372,78.11888172349427 165.58259042387363,78.61622913973406 164.39206681773067,78.58070434318506 163.45895372098312,79.61092226635083 162.94413270195946,80.21484198336839 162.52584062411916,80.74771162573597 162.07537223258987,80.99638390209293 161.94666697783396,81.06743309769081 161.7536090958165,81.81344895204529 161.7214327820111,82.31079214406782 161.30314070428722,82.38184112519957 159.69432502018753,83.83834267867496 159.4369145105593,84.7264509886736 159.56561976543162,84.86854814991239 159.855206588516,85.36588784909691 160.40220392111223,85.33036360368715 160.49873286217917,85.08169380491017 160.20914603897836,87.0 159.4369145105593,86.36056554154493 159.3082092559198,85.57903326035012 159.14732768759131,84.7264509886736 160.33785129373427,83.44757444786956 161.5927275273716,82.0265961039695 161.882314350456,81.77792441658676 162.30060642841272,80.88981008669361 162.68672219244763,80.60561311827041 164.10247999464627,79.07805123139406 165.13212203234434,78.43860512779793 165.71129567862954,78.54517954363837 166.32264563860372,78.08335688622901 166.48352720716503,76.37816128827399 165.96870618802495,75.84528629301349 166.00088250183035,75.56108602863969 167.48099293117411,75.59661107181455 167.99581395008136,75.20583543693647 167.77057975437492,75.06373511903803 167.60969818593003,74.85058455518447 167.5131692448631,73.85588054257096 167.73840344068594,73.35852768327459 167.641874499619,73.60720418399433 167.641874499619,73.46510334391496 167.60969818593003,73.39405290631112 167.32011136272922,74.28218254086096 166.86964297131635,74.77953434403753 166.3548219522927,74.95715985019342 165.51823779649567,75.24136050924426 165.1964746598387,74.99268494275748 165.13212203234434,75.24136050924426 165.3251799143618,75.27688557852525 165.45388516923413,75.52556098246714 165.6147667375626,75.45451088156551 165.74347199243493,75.27688557852525 165.64694305125158,75.20583543693647 165.9043535607634,75.13478528379346 166.67658508906607,74.95715985019342 167.3844639902236,74.06903159394278 167.54534555855207,73.85588054257096 167.48099293117411,73.35852768327459 167.54534555855207,73.32300245726947 167.54534555855207,73.35852768327459 167.641874499619,73.28747722832486 167.0948771670228,73.25195199655718 166.86964297131635,73.18090152423247 166.96617191226687,72.50592145847622 167.06270085345022,72.43487086417736 167.25575873535126,72.47039616276743 167.25575873535126,72.50592145847622 167.35228767653462,72.61249732784927 167.44881661760155,72.68354789310251 167.70622712688055,72.7190731712908 167.67405081330799,72.75459844665602 167.77057975437492,72.57697204095894 167.03052453964483,72.15066837146878 166.80529034382198,72.22171901198453 167.12705348071177,73.28747722832486 166.77311403024942,73.46510334391496 166.58005614811555,73.53615376970265 166.67658508906607,73.64272938671638 167.0948771670228,73.28747722832486 166.77311403024942,72.79012371905264 166.9339955986943,72.36382025838248 167.06270085345022,72.07961771925329 167.25575873535126,72.39934556282242 167.3844639902236,72.47039616276743 167.25575873535126,72.36382025838248 167.3844639902236,72.36382025838248 167.35228767653462,72.32829495117767 167.44881661760155,72.25724432806601 167.44881661760155,72.39934556282242 167.44881661760155,72.39934556282242 167.44881661760155,72.54144675115822 167.35228767653462,72.47039616276743 167.35228767653462,72.47039616276743 167.2235824216623,72.7190731712908 167.32011136272922,72.15066837146878 167.35228767653462,72.68354789310251 167.19140610808972,72.57697204095894 167.2235824216623,72.50592145847622 167.54534555855207,72.39934556282242 167.32011136272922,71.04938195794239 166.58005614811555,70.51650043416885 166.22611669753678,69.98361825753818 165.55041411030106,70.23229668792919 164.9068878366379,70.0901947451639 163.2015432114713,70.05466925216024 162.4614879968576,69.52178650978021 162.0431959189009,68.27839090506313 161.20661176310387,66.00474403501721 160.3056749800453,64.05081925983541 159.82303027471062,63.76661128856358 157.92462776752654,64.37055300560314 157.40980674873572,64.54818276269361 157.248925180058,64.47713086861768 157.08804361172952,63.588981212087674 157.73156988539267,62.98503840973717 157.60286463075317,62.06135956032085 157.37763043493032,61.49294083175482 156.92716204340104,60.00083813461242 156.5732225929387,58.117939329647925 156.34798839711584,56.30608561303234 156.28363576973788,54.52975111169508 156.4123410244938,52.50472092931159 156.73410416126717,49.52044873527484 156.79845678864513,48.45463227419532 157.08804361172952,48.06383225042373 156.89498572959565,47.211176434211666 157.02369098446798,45.75455221376615 157.1202199255349,44.3689783050213 157.31327780766878,42.34390080400044 156.76628047507256,41.31359459582018 156.60539890662767,40.60303716771887 155.96187263308093,40.63856506664888 155.76881475094706,40.247758018173045 154.51393851730973,40.35434179357253 154.22435169410892,40.105646277195774 154.35305694886483,39.71483874969999 154.70699639932718,39.18191882799147 154.51393851730973,37.93843647043104 153.99911749840248,37.902908350893995 152.96947546047159,37.97396458720323 152.71206495107617,37.68973957214621 153.29123859724496,37.44104253171827 152.29377287311945,35.73568756468012 153.06600440153852,37.192345348972594 152.45465444168076,33.56845597573556 152.42247812787537,33.39081356319366 152.3903018141864,33.42634205147624 152.4868307551369,33.49739901931025 152.45465444168076,33.675041388429236 152.3903018141864,33.14211406360846 151.87548079527915,33.675041388429236 152.42247812787537,33.319756577839144 152.71206495107617,33.675041388429236 152.32594918680843,33.746098315605195 152.35812550061382,33.46187053684844 152.3903018141864,33.355285071913386 151.9398334225407,33.42634205147624 151.13542558054905,34.27902490014094 152.35812550061382,33.24869958078489 152.32594918680843,33.284228080679895 152.7764175783377,34.10138277782244 153.00165177427698,33.85268368481775 152.7764175783377,34.03032590870862 152.71206495107617,34.13691120810108 153.19470965617802,33.63951292046113 153.3877675383119,33.85268368481775 153.29123859724496,33.60398444952443 153.5164727930678,33.710569853457855 153.29123859724496,33.9237405830645 153.03382808773313,34.03032590870862 152.64771232381463,35.025121020909864 153.29123859724496,34.10138277782244 152.87294651940465,34.669837313500466" stroke="#00AFAA" stroke-linecap="round" stroke-linejoin="round" stroke-width="1"><title>2025-09-23 6.8km</title><desc>15905416654</desc></polyline><polyline fill="none" points="66.77959183673374,115.9420488466858 66.97795918368502,116.47745535697322 66.57020408165408,119.17879521228315 66.51510204083752,119.58034154832421 66.59224489796907,121.08917264950287 66.68040816328721,122.6709952953097 65.07142857147846,123.76609344033932 65.03836734691868,124.3258071609016 63.52857142861467,124.82468066095316 63.04367346945219,124.84901591089147 62.41551020409679,124.87335115687165 62.06285714288242,124.80034540701308 61.390612244955264,125.00719493861834 59.032244897971395,125.01936254919565 58.73469387751538,124.86118353439088 57.86408163269516,124.92202163685579 57.62163265311392,124.93418925440346 57.25795918365475,125.03153015878343 54.5800000000163,125.189708992737 53.74244897958124,125.20187658838404 51.88000000000466,125.57907156067085 48.7391836734605,126.27262111396703 46.41387755109463,126.36996114376234 45.10244897956727,126.09010838672111 41.49877551023383,123.97294440814585 39.37183673470281,122.6344918851537 38.0163265306619,122.12344320359989 36.49551020405488,121.84358246829652 31.271836734726094,122.03826825287251 30.28000000002794,121.9287575303606 29.717959183675703,121.9287575303606 29.354285714274738,121.80707885537413 29.354285714274738,121.77057523347321 28.571836734714452,121.84358246829652 28.538775510212872,121.12567643837247 28.43959183676634,121.04050091706449 28.417551020393148,121.0526688516693 28.450612244952936,120.40776694816304 28.285306122503243,119.11795476388943 28.208163265313487,119.03277809440624 28.186122448998503,119.00844189416966 28.252244898001663,120.27391903336684 28.351428571506403,121.89225393832021 27.95469387754565,121.9895968305791 26.77551020414103,122.18428242429218 23.645714285725262,122.89001556839503 22.83020408160519,123.14553881328902 22.036734693916515,123.44973258096434 20.593061224441044,123.97294440814585 20.438775510236155,123.79042886319803 20.76938775513554,121.68540008095442 20.49387755105272,120.1400709982845 20.240408163284883,118.74074342915264 19.84367346938234,117.98631789347564 19.435918367409613,117.54826260291156 18.840816326555796,116.73298960376997 18.86285714287078,117.01285994233331 18.675510204106104,117.04936473035195 17.529387755144853,116.96418687776895 17.242857142875437,117.06153299105063 17.011428571480792,117.31706623561331 16.901224489789456,117.7307857972337 16.74693877552636,117.48742148840392 16.526530612260103,117.34140271220531 16.449387755128555,117.42658034907072 16.350204081682023,117.39007565354405 16.25102040823549,117.39007565354405 16.36122448981041,117.32923447441135 16.471428571501747,117.47525326254254 16.460408163256943,117.47525326254254 16.239999999990687,117.39007565354405 16.350204081682023,117.46308503566252 16.339183673495427,117.42658034907072 16.339183673495427,117.34140271220531 16.239999999990687,117.3779074196791 16.173877551045734,117.45091680779296 16.515510204131715,117.45091680779296 16.658775510208216,117.43874857894843 16.21795918373391,117.5969354765839 16.16285714285914,117.42658034907072 16.15183673473075,117.39007565354405 15.84326530614635,117.3779074196791 15.468571428616997,117.30489799582574 15.137959183659405,117.2805615132529 14.675102040870115,117.3779074196791 14.675102040870115,117.32923447441135 14.675102040870115,117.25622502664919 15.093877551087644,117.36573918488284 15.160000000032596,117.07370125073066 15.314285714295693,117.17104729237326 15.358367346925661,117.41441211820347 15.270204081665725,117.2805615132529 15.171020408160985,117.26839327043854 15.314285714295693,117.2805615132529 15.358367346925661,117.1345425342297 15.424489795928821,117.25622502664919 15.303265306167305,117.3779074196791 15.071836734714452,117.36573918488284 15.413469387800433,117.08586950939207 15.490612244931981,117.25622502664919 15.832244897959754,117.41441211820347 16.063673469412606,117.52392616009456 16.2289795918623,117.46308503566252 16.19591836730251,117.57259904172679 16.460408163256943,117.65777654632984 16.78000000002794,117.58476725962828 16.658775510208216,117.35357094903884 16.702857142838184,117.45091680779296 16.471428571501747,117.20755204164016 16.372244897997007,117.3779074196791 16.515510204131715,117.30489799582574 16.471428571501747,117.42658034907072 16.18489795923233,117.40224388636125 16.21795918373391,117.7307857972337 16.6808163265232,118.10799968999345 16.95632653060602,117.94981333514443 17.044489795924164,116.56263348794891 14.785306122503243,116.62347498026793 14.179183673521038,116.35577222819848 13.958775510254782,117.41441211820347 13.297551020456012,118.13233603734989 13.363673469459172,117.99848607761669 13.3085714285844,117.98631789347564 13.143265306192916,117.80379501231073 13.253469387767836,117.146710787958 13.209387755137868,116.53829688405676 13.121224489761516,116.19758401214494 13.077142857189756,117.46308503566252 13.0,117.79162681232265 13.154285714321304,117.82813140937651 13.374693877529353,118.02282244288654 13.286530612269416,118.13233603734989 13.892653061251622,117.60910369253543 14.223265306151006,117.31706623561331 14.719183673558291,116.80599930800963 17.209795918432064,116.87900897648069 18.422040816396475,116.75732617580798 18.97306122450391,117.35357094903884 20.053061224520206,118.88676083333849 20.405714285734575,121.11350850976305 20.471836734737735,122.2451216201298 20.681224489817396,121.90442180330865 20.648163265374023,122.76833767867356 20.372653061232995,123.82693199008645 20.8355102041387,123.86343510798179 21.375510204117745,123.70525486567931 21.199183673481457,123.66875170898857 22.57673469389556,123.19420985790202 23.1277551020612,123.0481966764637 23.910204081679694,122.81700884648308 26.433877551055048,122.15994673898967 28.142040816310328,121.79491098236758 28.549795918399468,121.79491098236758 29.24408163264161,121.75840735754173 28.946530612302013,121.91658966730756 28.902448979613837,121.89225393832021 28.660000000032596,121.89225393832021 29.27714285714319,121.66106431414664 30.87510204082355,121.84358246829652 32.46204081637552,121.80707885537413 33.06816326529952,121.78274310840061 36.14285714289872,121.67323219806713 37.77387755102245,121.89225393832021 41.48775510204723,123.92427361804585 47.35061224491801,126.27262111396703 48.33142857142957,126.17528102059441 49.664897959213704,125.95626557790092 52.00122448982438,125.4208931401954 53.42285714286845,125.28704973011918 53.819591836771,125.10453579529712 54.05102040816564,125.05586537494673 56.96040816325694,124.88551877834834 57.467346938850824,124.90985401836224 57.86408163269516,124.89768639886461 58.76775510201696,124.84901591089147 59.08734693878796,124.97069210100744 60.36571428575553,124.89768639886461 61.600000000034925,124.66650143936567 62.195102040830534,124.59349558813847 62.779183673497755,124.77601014911488 63.231020408158656,124.62999851825589 64.17877551022684,124.43531612107472 64.66367346938932,124.30147182548535 65.0163265306619,124.03378287341911 65.71061224496225,123.4132293616276 66.5371428571525,122.82917663594708 66.8457142857369,122.4641425194568 66.7024489796604,121.40553852260928 66.75755102041876,119.89671062631533 66.83469387755031,119.51950126397423 66.73551020416198,119.4708290185954 66.79061224492034,118.75291155165178 66.79061224492034,117.80379501231073 66.98897959187161,116.80599930800963 66.91183673474006,116.30709894887696 66.17346938775154,116.30709894887696 66.14040816330817,116.07590065471595 66.31673469388625,116.08806899495539 66.0853061224916,116.07590065471595 66.18448979593813,115.7351867249381 65.89795918366872,115.24845118724625 65.96408163267188,115.1876091331942 65.95306122454349,115.19977754600404 65.7877551020938,115.04158810201625 65.68857142858906,114.81038784312841 65.54530612245435,115.00508282182273 65.42408163269283,114.00726836526883 65.38000000006286,113.76389797141019 65.41306122450624,114.32364928271272 65.4571428571362,113.8004035558406 65.42408163269283,113.78823502866726 65.41306122450624,114.65219798550243 65.42408163269283,113.77606650053349 65.42408163269283,113.7517294412828" stroke="#00AFAA" stroke-linecap="round" stroke-linejoin="round" stroke-width="1"><title>2025-09-22 16.6km</title><desc>15896554478</desc></polyline><polyline fill="none" points="98.17343173455447,117.06665036547929 98.63837638380937,115.81988172337878 99.50184501847252,117.3600074411952 102.22509225108661,117.94672130519757 104.74907749076374,118.6067739437567 104.61623616260476,119.85353871452389 104.81549815530889,120.29357292596251 104.94833948346786,121.24697964417282 104.54981549829245,123.08045125578064 104.48339483421296,124.5472258484806 103.88560885610059,126.30735219595954 103.68634686339647,127.26075252646115 103.75276752770878,128.80085861327825 103.8191881920211,132.174415093672 103.8191881920211,133.8611885792925 104.21771217742935,135.32794555544388 104.28413284150884,136.50134941091528 104.1512915128842,137.601414132223 106.94095940957777,137.3814012958319 109.53136531380005,137.16138840548228 109.53136531380005,138.04143964342074 109.92988929897547,138.9948275105562 112.38745387457311,138.77481501555303 115.17712177126668,139.7282021040446 116.43911439110525,139.2881774198613 119.49446494458243,139.21483995142626 120.75645756465383,139.36151488224277 123.4132841329556,138.18811476562405 124.07749077491462,137.2347260414972 123.61254612542689,135.40128334134351 123.34686346887611,134.00786438462092 122.94833948323503,132.98113324306905 123.14760147617199,131.2943581037107 123.34686346887611,129.97427100100322 123.87822878244333,130.047609224217 124.87453874549828,130.047609224217 125.47232472361065,129.75425629527308 126.60147601482458,129.9009327715612 126.93357933568768,129.75425629527308 125.80442804447375,129.9009327715612 124.07749077491462,129.9009327715612 122.94833948323503,129.75425629527308 122.48339483421296,129.60757979459595 122.35055350558832,127.77412151568569 122.68265682645142,126.08733659121208 122.35055350558832,124.91391912224935 122.48339483421296,123.52048388536787 122.54981549829245,120.29357292596251 122.54981549829245,118.09339971130248 122.35055350558832,116.1865785625996 122.41697416966781,114.86646924051456 122.48339483421296,113.91305574472062 122.35055350558832,112.66628272237722 122.284132841276,110.6127704391256 122.74907749076374,110.17273148160893 122.81549815507606,108.11921349307522 122.08487084880471,107.53249320480973 121.28782287845388,107.53249320480973 121.28782287845388,106.28571131906938 120.75645756465383,105.25894846551819 116.17343173432164,106.50573177763727 115.17712177126668,106.65241205348866 112.98523985245265,106.57907191861887 111.39114391151816,106.7990923053585 109.46494464948773,107.09245273715351 107.67158671584912,107.6058332620305 104.28413284150884,107.75251335802022 103.487084871158,108.19255350210005 102.88929889327846,108.19255350210005 102.15867158677429,107.67917331296485 100.43173431721516,108.04587347822962 99.50184501847252,108.11921349307522 98.37269372725859,108.11921349307522 97.04428044310771,108.70593339786865 95.64944649464451,108.3392335025128 95.18450184492394,107.82585339713842 92.39483394823037,107.53249320480973 90.80073800776154,107.6058332620305 90.60147601482458,106.57907191861887 90.93357933592051,105.99235062353546 90.93357933592051,104.30552476376761 90.80073800776154,103.79214235115796 90.46863468643278,103.13207881769631 89.73800738039427,101.22522588272113 89.93726937263273,100.27179789595539 80.0405904063955,107.23913291707868 82.83025830285624,105.478969175776 84.2915129151661,105.55230940046022 85.15498155006208,105.18560821650317 85.15498155006208,104.5988860107027 83.89298892999068,104.5255457079038 83.36162361642346,105.18560821650317 82.36531365313567,104.89224716165336 81.83394833956845,105.18560821650317 82.03321033227257,105.55230940046022 81.90036900364794,105.33228870813036 82.29889298928902,106.7990923053585 81.83394833956845,107.01911263813963 78.44649446522817,106.57907191861887 77.31734317354858,107.3124729981646 77.25092250923626,108.19255350210005 76.85239852406085,109.65935242478736 76.05535055394284,108.92595326318406 74.85977859795094,109.21931299980497 73.66420664219186,109.3659928322304 73.33210332132876,109.80603218544275 73.79704797058366,111.12614895036677 73.66420664219186,112.07956540642772 73.26568265678361,112.37292411236558 73.0,113.83971620316152 73.13284132862464,114.57311134960037 74.72693726955913,115.08648759580683 76.71955719566904,115.08648759580683 76.85239852406085,114.86646924051456 75.9889298893977,115.45318473450607 75.9889298893977,115.59986354812281 76.45387453888543,115.74654233752517 76.18819188210182,115.15982703550253 76.45387453888543,115.59986354812281 75.85608856123872,115.23316646931926 75.52398523990996,115.23316646931926 76.1217712177895,115.01314814999932 75.65682656830177,116.5532752518775 74.12915129191242,113.17966005892958 73.99630996328779,115.45318473450607 73.92988929897547,115.37984531873371 74.32841328438371,115.30650589679135 74.52767527662218,115.59986354812281 75.7896678969264,115.8932211031788 76.2546125461813,116.03989984490909 76.65313653158955,115.45318473450607 76.32103321049362,114.20641385152703 76.52029520296492,113.03298084979178 76.58671586751007,112.73962235992076 76.52029520296492,112.44626377371605 76.52029520296492,111.71286688937107 76.58671586751007,111.19948871375527 76.78597785998136,111.3461682224879 76.78597785998136,110.5394306279486 77.18450184515677,109.51267264044145 78.57933579338714,109.65935242478736 80.70479704812169,109.21931299980497 81.83394833956845,109.3659928322304 82.16605166043155,109.43933273933362 82.49815498176031,108.99929320625961 82.76383763854392,108.85261331417132 83.62730627320707,109.29265291907359 85.08856088574976,109.43933273933362 85.95202952018008,109.51267264044145 87.14760147617199,109.87937205651542 89.20664206659421,110.02605178102385 90.13653136533685,110.09939163416857 91.13284132862464,110.8327898370917 91.26568265678361,112.22624477162026 91.33210332132876,113.03298084979178 91.73062730650418,113.25299965462182 92.46125461277552,112.9596412362298 93.65682656830177,112.81296199129429 93.32472324743867,112.73962235992076 93.32472324743867,112.66628272237722 93.4575645760633,112.51960342930397 94.1217712177895,112.44626377371605 94.98523985245265,112.66628272237722 95.64944649464451,113.54635797673836 95.45018450194038,114.64645083143841 94.98523985245265,115.08648759580683 95.05166051653214,114.42643236822914 94.91881918837316,114.49977186205797 95.05166051653214,114.7931297767791 94.38745387480594,116.11323920678115 94.4538745386526,116.40659659431549 93.7896678969264,116.99331108137267 93.92250922508538,117.8000428751111 94.32103321049362,117.72670365101658 94.05535055371001,117.43334669515025 93.7896678969264,117.94672130519757 93.9889298893977,117.87338209303562 93.4575645760633,118.0200605111313 94.85239852406085,117.72670365101658 95.45018450194038,118.09339971130248 95.3837638378609,118.16673890524544 95.3837638378609,118.31341727543622 94.78597785998136,117.94672130519757 94.78597785998136,118.16673890524544 94.58671586727723,118.46009562152904 94.38745387480594,118.46009562152904 94.91881918837316,118.38675645156763 95.3837638378609,118.24007809325121 95.31734317354858,118.6067739437567 95.78228782280348,118.97346964426106 95.91512915142812,118.68011309573194 95.58302583033219,118.53343478572788 95.8487084871158,118.6067739437567 94.85239852406085,118.82679138198728 94.4538745386526,118.82679138198728 94.65313653135672,117.94672130519757 94.65313653135672,117.43334669515025 95.5166051662527,116.69995388569077 96.77859778609127,114.71979030722287 97.24354243534617,114.35309286869597 97.97416974185035,113.61969754251186 99.56826568278484,112.9596412362298 100.16605166043155,112.81296199129429 100.89667896693572,111.71286688937107 100.29889298905618,110.46609081048518 98.83763837628067,110.09939163416857 97.97416974185035,110.24607132270467 96.84501845040359,110.46609081048518 96.24723247252405,111.12614895036677 91.79704797035083,108.85261331417132 96.11439114413224,102.61869573377771 97.50922509212978,103.71880198240979 98.30627306271344,106.50573177763727 95.98154981574044,102.91205753199756 96.18081180821173,102.9853979665204 96.24723247252405,103.05873839516426 96.51291512930766,103.35210004937835 96.44649446522817,104.08550376567291 96.77859778609127,103.79214235115796 96.91143911425024,103.86548271385254 95.71586715895683,103.42544044804526 96.04797047981992,103.71880198240979 96.77859778609127,105.03892770106904 96.64575645769946,102.54535526933614 96.44649446522817,101.88529081863817 96.24723247252405,102.6920361922239 96.24723247252405,102.76537664467469 96.24723247252405,102.76537664467469 96.71217712224461,103.20541923417477 96.31365313660353,102.83871709136292 95.64944649464451,101.88529081863817 95.98154981574044,104.30552476376761 95.91512915142812,106.28571131906938 95.64944649464451,102.6920361922239 95.58302583033219,102.76537664467469 95.71586715895683,104.0121634210227 95.3837638378609,102.83871709136292 95.5166051662527,102.6920361922239 95.11808118107729,102.6920361922239 95.31734317354858,101.73860976373544 94.91881918837316,102.54535526933614 95.45018450194038,102.91205753199756 96.18081180821173,103.64546160784084 95.64944649464451,103.35210004937835 95.31734317354858,103.71880198240979 95.71586715895683,103.93882307049353 95.31734317354858,102.61869573377771 95.64944649464451,104.37886508461088 95.71586715895683,102.47201479866635 95.3837638378609,102.398674322234 95.58302583033219,102.10531235625967" stroke="#00AFAA" stroke-linecap="round" stroke-linejoin="round" stroke-width="1"><title>2025-09-19 5.2km</title><desc>15861009922</desc></polyline><polyline fill="none" points="163.03853294625878,110.57429190067342 162.17038067569956,115.28734372986946 160.9404982929118,115.686753857648 160.50642215786502,115.60687184508424 160.07234602235258,115.84651786281029 165.49829771229997,117.44415648031281 167.52398634282872,117.28439273603726 168.6815227032639,118.40273839753354 168.24744656821713,120.71930748422164 167.7410244103521,124.15421016386244 167.2346022524871,128.14826787210768 167.2346022524871,134.61860673234332 166.4387960047461,136.05645399732748 166.94521816261113,137.49429914774373 166.72818009462208,138.45286140678218 167.66867838753387,147.0 167.52398634282872,146.4408436844824 167.2346022524871,146.60060266434448 167.8133704327047,146.60060266434448 167.16225623013452,146.92012054601219 166.51114202756435,145.00301169068553 166.8728721397929,141.96758164907806 166.94521816261113,140.29010310943704 166.29410396004096,138.61262169171823 166.00471986969933,134.93812852958217 166.4387960047461,126.79029008210637 167.45164032001048,122.07729370688321 168.10275452304631,117.2045108541497 166.94521816261113,117.36427461140556 161.37457442795858,118.00332937965868 160.9404982929118,116.72521942557069 162.02568863052875,114.96781551017193 162.67680283309892,113.7695837568026 162.67680283309892,111.0535863447003 160.9404982929118,109.85534979356453 158.19134943699464,110.65417432418326 157.9743113690056,111.21335110720247 157.1785051212646,104.26355980191147 157.10615909891203,102.58601656730752 157.32319716643542,102.8256657771999 157.03381307655945,102.02683484938461 157.1785051212646,101.62741914059734 157.7572733014822,107.1393415069324 156.81677500903606,102.1067179714446 157.10615909891203,102.1067179714446 162.67680283309892,105.62156888347818 158.1190034141764,105.22215464367764 157.46788921160623,103.62449605204165 157.10615909891203,102.98543188424082 157.03381307655945,101.94695172080537 158.26369545934722,105.38192035921384 156.88912103138864,102.58601656730752 156.23800682881847,102.74578271369683 156.16566080600023,108.41746399359545 157.25085114408284,107.61863763531437 157.03381307655945,102.18660108715994 157.03381307655945,102.74578271369683 156.09331478364766,104.82274024066282 157.03381307655945,102.1067179714446 157.32319716643542,102.26648419635603 157.39554318925366,102.66589964367449 158.26369545934722,102.58601656730752 157.39554318925366,104.34344274143223 156.23800682881847,103.06531492812792 157.46788921160623,102.26648419635603 156.59973694151267,102.9055488340091 156.45504489634186,103.86414500733372 157.10615909891203,102.02683484938461 156.74442898621783,102.74578271369683 156.59973694151267,102.8256657771999 157.1785051212646,102.74578271369683 156.96146705374122,101.78718544379808 164.05137726152316,110.65417432418326 157.9743113690056,107.29910690896213 157.9743113690056,107.69852030050242 158.48073352733627,108.57722918689251 158.33604148216546,108.25769877410494 151.3184772967361,110.1748796843458 157.82961932430044,107.05945879610954 157.7572733014822,107.05945879610954 157.90196534665301,107.29910690896213 157.46788921160623,106.34051410411485 157.39554318925366,106.18074854521547 157.39554318925366,102.5061334844213 157.03381307655945,102.58601656730752 157.32319716643542,104.02391094475752 157.03381307655945,102.1067179714446 157.03381307655945,106.1008657560451 157.1785051212646,102.18660108715994 157.10615909891203,102.02683484938461 157.10615909891203,102.02683484938461 157.10615909891203,102.18660108715994 156.96146705374122,101.94695172080537 156.6720829633996,101.38776963739656 156.6720829633996,102.9055488340091 158.77011761674657,102.42625039501581 158.48073352733627,101.38776963739656 157.68492727959529,102.26648419635603 157.10615909891203,101.14812007488217 160.65111420257017,105.94110015797196 158.77011761674657,103.86414500733372 156.6720829633996,101.62741914059734 157.03381307655945,101.94695172080537 156.96146705374122,101.94695172080537 156.96146705374122,101.78718544379808 157.25085114408284,101.06823687447468 157.10615909891203,102.02683484938461 159.56592386495322,109.53581979859155 156.31035285117105,106.6600451435661 156.59973694151267,102.1067179714446 156.74442898621783,101.86706858570687 157.1785051212646,101.22800326894503 158.69777159485966,105.94110015797196 157.32319716643542,100.58893753454322 157.10615909891203,101.94695172080537 156.96146705374122,101.94695172080537 157.61258125677705,102.1067179714446 157.1785051212646,101.62741914059734 156.96146705374122,102.02683484938461 157.61258125677705,101.62741914059734 157.10615909891203,100.82858723390382 156.59973694151267,102.26648419635603 158.40838750451803,106.42039687390206 158.33604148216546,107.7784029590548 157.03381307655945,102.02683484938461 157.03381307655945,102.02683484938461 156.81677500903606,102.5061334844213 156.81677500903606,102.26648419635603 157.1785051212646,101.30788645631401 157.32319716643542,101.4676528116106 157.46788921160623,102.26648419635603 156.88912103138864,102.1067179714446 157.03381307655945,102.1067179714446 157.25085114408284,101.06823687447468 157.1785051212646,102.02683484938461 157.10615909891203,101.70730229566107 157.10615909891203,102.02683484938461 157.1785051212646,101.4676528116106 157.61258125677705,100.82858723390382 157.25085114408284,100.98835366743151 157.25085114408284,101.4676528116106 156.88912103138864,102.1067179714446 157.25085114408284,101.06823687447468 157.68492727959529,101.86706858570687 157.10615909891203,101.4676528116106 156.81677500903606,102.02683484938461 157.25085114408284,101.06823687447468 157.1785051212646,101.4676528116106 156.88912103138864,102.1067179714446 157.10615909891203,102.02683484938461 156.6720829633996,102.18660108715994 157.25085114408284,101.38776963739656 157.1785051212646,101.5475359793636 156.88912103138864,102.02683484938461 157.10615909891203,102.02683484938461 157.10615909891203,102.1067179714446 156.96146705374122,101.86706858570687 157.25085114408284,101.30788645631401 158.26369545934722,102.66589964367449 157.10615909891203,102.02683484938461 156.96146705374122,102.02683484938461 157.03381307655945,102.18660108715994 157.54023523442447,100.26940451079281 157.25085114408284,101.06823687447468 157.1785051212646,101.30788645631401 157.46788921160623,101.62741914059734 157.10615909891203,102.1067179714446 157.25085114408284,101.06823687447468 157.25085114408284,101.4676528116106 157.46788921160623,105.94110015797196 157.10615909891203,102.1067179714446 157.10615909891203,102.02683484938461 157.32319716643542,101.94695172080537 156.74442898621783,102.74578271369683 156.59973694151267,104.26355980191147 157.61258125677705,101.14812007488217 157.03381307655945,101.78718544379808 157.03381307655945,101.86706858570687 158.26369545934722,102.58601656730752 157.10615909891203,102.1067179714446 157.10615909891203,102.02683484938461 157.90196534665301,102.74578271369683 156.81677500903606,103.30496402055724 157.10615909891203,102.26648419635603 157.10615909891203,102.1067179714446 157.61258125677705,101.70730229566107 157.10615909891203,102.1067179714446 157.10615909891203,101.30788645631401 159.20419375225902,105.94110015797196 157.10615909891203,102.02683484938461 157.54023523442447,103.06531492812792 156.88912103138864,102.1067179714446 157.03381307655945,101.4676528116106 157.03381307655945,101.38776963739656 157.39554318925366,101.4676528116106 157.03381307655945,101.38776963739656 157.1785051212646,101.4676528116106 157.1785051212646,102.02683484938461 157.03381307655945,101.94695172080537 157.32319716643542,102.66589964367449 157.61258125677705,101.06823687447468 157.03381307655945,101.4676528116106 157.32319716643542,101.14812007488217 157.32319716643542,103.22508099622792 157.10615909891203,102.1067179714446 156.96146705374122,101.86706858570687 157.03381307655945,101.30788645631401 156.81677500903606,102.5061334844213 157.10615909891203,102.02683484938461 156.96146705374122,102.1067179714446 157.10615909891203,102.02683484938461 156.88912103138864,102.1067179714446 157.39554318925366,106.58016239356948 157.03381307655945,102.02683484938461 157.1785051212646,101.94695172080537 157.10615909891203,102.02683484938461 157.10615909891203,101.86706858570687 157.46788921160623,103.38484703819267 157.1785051212646,101.78718544379808 157.1785051212646,101.86706858570687 157.1785051212646,101.78718544379808 156.81677500903606,101.94695172080537 157.10615909891203,102.18660108715994 157.10615909891203,102.02683484938461 157.1785051212646,102.18660108715994 157.03381307655945,101.30788645631401 157.1785051212646,101.70730229566107 157.10615909891203,102.02683484938461 157.10615909891203,102.02683484938461 157.10615909891203,102.02683484938461 157.03381307655945,101.94695172080537 159.8553079548292,107.53875496349065 157.03381307655945,101.94695172080537 157.10615909891203,102.1067179714446 156.88912103138864,102.1067179714446 157.10615909891203,101.78718544379808 157.1785051212646,101.78718544379808 156.88912103138864,101.78718544379808 157.1785051212646,101.62741914059734 157.03381307655945,101.62741914059734 157.10615909891203,101.70730229566107 156.81677500903606,101.5475359793636 157.03381307655945,101.5475359793636 157.10615909891203,101.38776963739656 157.25085114408284,101.4676528116106 157.39554318925366,101.78718544379808 157.1785051212646,101.62741914059734 157.1785051212646,101.62741914059734 157.03381307655945,101.94695172080537 156.52739091869444,102.98543188424082 157.10615909891203,102.02683484938461 157.10615909891203,102.02683484938461" stroke="#00AFAA" stroke-linecap="round" stroke-linejoin="round" stroke-width="1"><title>2025-09-18 11.3km</title><desc>15852837758</desc></polyline><polyline fill="none" points="15.453776245645713,190.95950087082747 15.978376684419345,190.92213020105555 16.62143528665183,191.09029816689144 16.63835788151482,190.56710853365075 16.553744907549117,189.3151856236218 17.95832027582219,188.8480484536267 18.63522406766424,188.77330641778826 20.03979943593731,188.5677656935295 20.64901284861844,188.60513674805406 21.08900031336816,187.35320309645613 21.630523346946575,185.46594687597826 22.01974302722374,184.3261113165645 22.188968975213356,183.8963357781031 22.71356941392878,182.79386439824884 22.95048574107932,181.65401551791 23.03509871510323,180.47678857787105 23.77969288622262,179.8601434758457 24.304293324938044,179.80408474781143 25.641178313991986,179.63590848099557 25.556565339968074,179.50510463234968 25.895017235947307,179.43035954245715 27.011908492597286,179.1687515351805 28.399561266007368,178.83239794315887 29.127232842321973,178.81371161801508 29.634910686290823,178.79502529128513 30.41335004696157,178.75765263331414 32.54559699149104,179.3743007089215 33.37480413657613,179.63590848099557 35.37167032272555,180.30861280593672 36.45471638976596,180.47678857787105 37.09777499217307,180.1030644721759 39.60231902223313,177.28142775592278 41.51457223435864,176.14155139197828 42.15763083670754,175.7678201993549 43.05452836101176,175.3940883957548 43.612973989278544,175.28196873552224 44.526794108445756,175.09510251297615 46.86211219057441,175.35671518184245 48.02977123152232,175.30065534940513 48.57129426510073,175.22590888480772 50.11125039169565,175.20722226487123 51.651206518290564,175.11378914213856 52.14196176745463,175.13247576972935 53.038859291758854,175.03904261643765 55.06957066751784,174.92692278207687 55.848010028130375,175.1511623957631 57.21874020679388,175.1511623957631 59.14791601378238,175.28196873552224 59.65559385775123,175.37540178955533 59.90943277964834,175.41277500042634 60.09558132244274,174.9082361376495 60.010968348477036,174.34763609524816 60.129426512052305,173.41329963610042 60.366342839202844,171.7314843861095 60.383265434007626,170.96532000308798 60.73863992479164,169.82541214412777 60.89094327791827,169.43298353305727 61.1447821999318,169.227425420293 61.36477593233576,169.30217384632851 61.56784706993494,169.3395480501349 61.73707301780814,169.39560934448673 62.12629269820172,169.43298353305727 63.05703541211551,169.76935095523368 63.36164211842697,169.60116730601294 63.158570980886,169.65722853614716 63.20933876524214,169.82541214412777 63.49702287686523,169.84409920407052 64.56314634910086,169.84409920407052 64.93544343468966,170.23652710930037 65.39235349418595,170.34864924421709 65.79849576932611,170.27390116036986 65.98464431212051,169.69460268196417 65.86618614854524,169.1153027354303 66.56001253530849,168.72287290520035 66.7292384832399,168.7602472037688 67.0,168.5733756497939 66.94923221558565,168.5733756497939 66.79692886240082,168.59206281208026 66.71231588843511,168.64812428971345 66.10310247575399,168.83499578254123 65.84926355374046,169.47035771547235 65.32466311502503,169.6385414609831 64.95236602943623,169.50773189189204 64.7154497022857,169.50773189189204 64.74929489189526,169.5451060620835 64.74929489189526,169.3395480501349 64.73237229709048,169.50773189189204 64.19084926351206,169.60116730601294 63.53086806641659,169.2647996363521 62.633970542112365,169.52641897775175 62.193983077362645,169.45167062502878 61.53400188020896,169.30217384632851 61.22939517395571,169.28348674208974 61.24631776876049,169.3208609489957 61.02632403635653,169.50773189189204 60.87402068317169,170.16177898879687 60.40018802881241,170.92794606504322 60.09558132244274,172.64714089001063 59.807897210877854,174.08602227164374 59.60482607327867,174.9082361376495 58.927922281378414,175.11378914213856 57.67565026629018,175.26328212015505 56.677217173273675,175.28196873552224 55.44186775304843,174.83348954479152 53.24193042929983,174.8895494917233 50.92353494197596,175.00166934443405 49.63741773739457,175.1511623957631 49.48511438415153,175.076415882344 48.774365402699914,175.35671518184245 48.24976496398449,175.41277500042634 47.75900971482042,175.16984902034164 46.659041052975226,175.1885356433777 46.083672829845455,175.00166934443405 46.11751801939681,175.3380285725434 45.98213726107497,175.3940883957548 45.406769037945196,175.28196873552224 44.42525853961706,175.35671518184245 44.23910999688087,175.22590888480772 43.42682544660056,175.5062080010248 42.817612033861224,175.80519334611017 42.02225007832749,176.1041783001856 41.76841115637217,176.2162975571846 41.39611407084158,176.365789814241 40.58382952056127,176.87032546022965 40.31306800380116,177.07587670051726 40.07615167653421,177.35617354843998 39.29771231592167,178.0288845813775 38.82387966150418,178.45867114946304 37.91005954245338,179.39298698831408 36.96239423379302,180.30861280593672 36.20087746786885,180.55153332570626 35.21936696959892,180.3833576087345 34.745534315297846,180.140436910282 33.79786900652107,179.87882971551153 33.01942964585032,179.6732809953828 32.680977749987505,179.5985359604092 32.42713882797398,180.06569202803075 31.919460984005127,181.9156206813932 31.733312441210728,182.77517839688517 31.530241303611547,183.33575777467922 31.25947978690965,184.19531015121902 30.971795675344765,184.51296999439364 30.68411156377988,184.66245682668523 30.481040426180698,184.75588604727818 30.074898151040543,184.79325772478478 29.922594797913916,184.19531015121902 29.85490441863658,183.16758410565672 29.753368849866092,183.57867507818446 28.467251645226497,183.6721047416504 26.92729551863158,183.59736101396265 25.92886242561508,183.59736101396265 24.930429332482163,183.80290620628512 23.64431212778436,184.15793837601086 23.508931369520724,184.27005368344544 23.238169852644205,184.5316558538325 22.882795361918397,184.71851436364523 22.239736759627704,185.9891481808154 21.884362268843688,186.8673762512626 21.647445941634942,188.43696695454128 21.190535882196855,189.1096453864302 21.004387339344248,188.71724987500056 20.42901911615627,188.82936294695537 19.37981823872542,188.8480484536267 18.618301472859457,188.9414759639185 17.56910059542861,189.20307278988184 16.790661234641448,189.20307278988184 16.536822312686127,189.3338710906246 16.587590097100474,190.7165914081852 16.43528674391564,191.22109538815857 15.809150736371521,191.33320723261568 15.166092134080827,191.52006018445536 14.895330617320724,191.4826896062732 15.06455656531034,191.12766880916024 15.369163271621801,190.75396211148473 15.284550297656097,190.5857938983536 14.963020996539854,190.54842316750728 14.99686618609121,190.09997392112564 15.132246944471262,190.09997392112564 14.99686618609121,189.72626554395538 14.895330617320724,189.55809657493955 14.81071764335502,189.70758010903955 14.57380131620448,189.8010072682082 14.353807583858725,189.96917605859926 14.1845816358109,189.72626554395538 14.353807583858725,189.61415291170124 14.150736446201336,189.95049064353225 14.066123472235631,187.7456009486341 14.083046067040414,187.54005930050334 14.099968661903404,187.55874491248687 14.099968661903404,187.5961161319865 14.235349420225248,187.95114241195552 14.1845816358109,188.0632558595389 14.066123472235631,187.5961161319865 14.083046067040414,187.54005930050334 14.066123472235631,187.55874491248687 14.13381385145476,187.52137368699186 14.083046067040414,187.61480173940072 14.539956126594916,188.60513674805406 14.083046067040414,187.55874491248687 14.015355687879492,188.04457028878096 14.083046067040414,187.98851356729574 13.879974929441232,188.3435392380925 14.066123472235631,187.57743052300066 14.032278282626066,187.52137368699186 14.049200877489056,187.54005930050334 14.066123472235631,187.52137368699186 14.049200877489056,187.54005930050334 13.846129739889875,187.7456009486341 14.083046067040414,187.50268807195243 14.049200877489056,187.61480173940072 14.099968661903404,187.55874491248687 14.099968661903404,187.40925997370505 14.11689125659177,187.67085855249024 14.066123472235631,187.54005930050334 14.083046067040414,187.55874491248687 14.066123472235631,187.55874491248687 14.083046067040414,187.48400245532684 14.066123472235631,187.52137368699186" stroke="#00AFAA" stroke-linecap="round" stroke-linejoin="round" stroke-width="1"><title>2025-09-17 10.4km</title><desc>15841686234</desc></polyline><polyline fill="none" points="77.17192600644194,177.76175630069338 76.96626768214628,178.24835682517732 76.73122959735338,178.79983669839567 76.90750816103537,179.221556084638 76.78998911846429,180.29207251479966 76.76060935808346,180.194752958545 76.73122959735338,180.6164708630822 76.55495103367139,181.5896643178712 76.3786724699894,182.17357924568933 76.46681175183039,183.2116481080593 76.49619151256047,183.86043976873043 76.7018498366233,184.638988362276 76.2905331881484,185.41753542920924 76.26115342753474,185.969005344552 76.34929270937573,186.39071711612632 77.34820457024034,186.55291383201256 78.61153427627869,186.45559581037378 79.22850924904924,186.4880351535976 80.08052230684552,186.45559581037378 80.72687704011332,186.61779249983374 81.54951033729594,186.6502318297571 82.04896626761183,186.71511048165848 83.01849836762995,186.6502318297571 83.51795429817867,186.55291383201256 83.57671381928958,187.03950358214206 83.51795429817867,187.33145714609418 83.72361262224149,187.33145714609418 84.3993471164722,187.29901787175913 84.60500544053502,187.68828898813808 85.01632208912633,188.66146510947146 85.10446137096733,188.85610004753107 85.07508161035366,188.75878259039018 85.25136017403565,188.9534174806613 85.54515778005589,189.14805227561737 85.75081610435154,189.21293051939574 85.60391730139963,189.3426869751711 85.78019586508162,189.50488248519832 86.74972796509974,189.3426869751711 87.04352557123639,188.5641476046294 87.16104461369105,188.5641476046294 87.19042437430471,188.53170843111002 88.33623503800482,187.91536362984334 89.15886833507102,187.5585319917882 89.59956474415958,187.49365347769344 89.57018498366233,187.10438217045157 89.77584330784157,186.42315646455972 90.39281828072853,184.80118579385453 91.00979325349908,184.2821537797572 91.86180631117895,184.6065488680906 92.71381936885882,184.9958226242161 93.41893362347037,185.4499748572416 94.8585418931907,186.6502318297571 95.47551686607767,187.20170003309613 95.97497279650997,187.3963356866734 96.18063112068921,187.85048517398536 96.73884657234885,187.20170003309613 97.15016322082374,186.7475498036656 97.41458106634673,186.22852033388335 97.79651795420796,185.5148537052155 98.354733405984,185.41753542920924 98.354733405984,185.54729312530253 98.7660500544589,186.1636416024703 99.1773667029338,185.80680839015986 99.73558215447702,185.48241428256733 100.05875952111091,185.5148537052155 100.76387377583887,184.89850422090967 101.7334058759734,184.54166987162898 102.29162132763304,184.2172747302684 102.87921653967351,183.4062857175595 103.67247007612605,182.7574933146534 104.34820457012393,182.3357776843186 104.73014145810157,182.10869985155296 105.34711643098854,181.65454379664152 105.934711643029,181.10306788867456 106.75734494009521,180.6164708630822 107.55059847666416,179.93523402535357 108.22633297054563,179.61083512043115 109.60718171915505,179.0917963211832 111.22306855279021,178.57275684335036 113.01523395010736,177.76175630069338 114.39608269860037,177.27515518004657 115.2774755168939,177.08051456470275 115.68879216548521,176.78855346294586 116.92274211102631,176.59391260906705 117.56909684441052,176.56147245742613 118.71490750834346,176.20463061510236 119.4787812839495,175.88022866178653 120.53645266604144,174.55017788219266 121.00652883586008,174.12845353380544 122.44613710558042,172.44155166044948 123.32752992387395,171.69541969918646 124.3558215451194,171.27369231829653 125.00217627862003,171.1763705513731 125.85418933618348,171.01416755342507 126.23612622427754,170.55999880674062 126.91186071827542,170.55999880674062 127.0,170.88440510738292 126.85310119693168,171.7603007949656 126.64744287275244,171.9225034880219 126.61806311213877,171.7603007949656 126.5886833515251,171.82518188020913 126.70620239397977,171.7278602484439 126.2655059848912,171.53321691340534 126.50054406968411,171.3385734829062 126.20674646354746,171.3061329019256 126.05984766059555,171.3710140613257 125.85418933618348,171.56565747581772 125.94232861802448,171.5007763483154 125.50163220893592,171.56565747581772 108.93144722527359,178.89715659656213 107.57997823739424,180.06499351322418 107.57997823739424,180.16231310120202 107.31556039187126,180.29207251479966 106.16974972793832,180.84354954923037 105.11207834607922,181.62210405856604 103.76060935796704,182.62773470694083 103.05549510347191,183.14676888365648 102.84983677905984,183.63336280806107 102.32100108801387,184.02263751835562 102.35038084874395,183.9901979737042 100.17627856368199,185.06070154637564 99.85310119704809,185.38509599861572 99.38302502711304,185.80680839015986 98.442872687825,185.48241428256733 98.03155603900086,185.38509599861572 97.73775843309704,185.5148537052155 97.53210010880139,185.64461136958562 97.53210010880139,186.1312022327911 97.50272034818772,186.03388410789194 97.2676822632784,186.4880351535976 96.9445048966445,186.81242843958898 96.29815016326029,187.33145714609418 96.03373231762089,187.3963356866734 95.68117519048974,187.36389641766436 95.09357997833285,186.87730706500588 94.03590859624092,186.03388410789194 92.3906420021085,184.93094369128812 91.5680087050423,184.34703281868133 91.03917301411275,183.9901979737042 90.5103373231832,183.69824195306865 89.86398258968256,183.5360440709337 88.42437431984581,183.5684836526052 87.48422198044136,183.43872530991212 86.95538628939539,183.5360440709337 86.22089227417018,183.34140652496717 84.66376496176235,183.37384612261667 84.36996735574212,183.79556065044017 84.51686615881044,184.7363068292034 84.75190424360335,185.38509599861572 84.78128400433343,186.29339905478992 84.89880304667167,186.7475498036656 85.07508161035366,187.29901787175913 85.33949945587665,187.85048517398536 85.6332970620133,188.49926925479667 85.69205658324063,188.4668300760095 85.57453754066955,188.66146510947146 85.36887921649031,188.59658677555854 85.28073993464932,188.49926925479667 84.8106637649471,188.1424381416 84.72252448322251,187.49365347769344 84.54624591942411,187.1692607482546 83.72361262224149,187.2341393151728 83.37105549499393,187.03950358214206 82.8128400434507,187.00706428402918 81.93144722527359,187.10438217045157 81.54951033729594,186.6502318297571 80.43307943409309,186.6826711569738 79.28726877027657,186.81242843958898 77.90642002166715,186.4880351535976 77.46572361246217,186.52047449417296 76.34929270937573,186.42315646455972 76.31991294887848,185.90412657085108 76.3786724699894,185.5148537052155 76.58433079440147,185.2228988056595 76.76060935808346,184.80118579385453 76.81936887919437,184.44435135708773 76.6137105547823,183.69824195306865 76.64309031551238,183.69824195306865 76.6137105547823,183.27652732186834 76.6137105547823,182.66017436276888 76.6137105547823,182.10869985155296 76.78998911846429,181.2003872221685 76.84874863969162,180.06499351322418 76.9368879214162,178.86471663313569 76.73122959735338,178.70251677642227 76.43743199121673,178.60519683055463 76.5255712729413,178.08615671657026 76.2905331881484,177.79419635428349 75.35038084874395,177.95639658204163 75.17410228494555,178.08615671657026 74.11643090308644,178.08615671657026 74.05767138185911,178.0212766545883 73.9989118607482,177.79419635428349 74.49836779094767,177.08051456470275 74.52774755156133,176.20463061510236 74.79216539708432,174.84214063017862 74.52774755156133,174.55017788219266 73.52883569081314,174.6150585114665 73.2350380847929,174.80970033540507 73.20565832417924,175.06922261902946 73.2350380847929,174.84214063017862" stroke="#00AFAA" stroke-linecap="round" stroke-linejoin="round" stroke-width="1"><title>2025-09-16 5.0km</title><desc>15826448404</desc></polyline><polyline fill="none" points="169.60700642259326,158.19258680433268 169.37186990177725,158.6747525651299 169.64059735415503,158.19258680433268 169.33827897033188,158.60057325073285 169.23750617553014,159.82453038950916 169.03596058650874,160.71467896306422 169.13673338096123,161.19684204494115 169.06955151783768,162.1982560400793 169.10314244951587,162.56914955173852 169.06955151783768,162.86586414289195 169.23750617553014,163.60764977231156 169.13673338096123,163.941452910105 168.83441499713808,164.16398819885217 168.6664603393292,164.42361256459844 168.59927847620565,164.9057717070682 168.8008240654599,165.38793033745605 168.76723313389812,165.7217321662465 168.63286940765101,165.8700884557329 168.4313238185132,165.94426658231532 168.33055102382787,166.2038899298932 168.36414195538964,166.6860471815162 168.46491474995855,166.87149214194505 168.36414195538964,167.98416031364468 168.19618729769718,168.76302641120856 168.26336916070431,169.87568994695903 168.19618729769718,171.1367053242284 168.22977822914254,172.657336855802 168.36414195538964,173.17657572441385 168.33055102382787,173.51037182641448 168.4313238185132,173.91834450667375 168.397732886835,174.1037865128601 168.49850568152033,174.28922844334738 168.46491474995855,174.54884701877018 168.59927847620565,175.32770185402478 168.56568754464388,175.58731983561302 168.33055102382787,175.8469376686844 164.90427600604016,178.07222729115165 164.23245737503748,178.55437193842954 163.96372992242686,178.81398807489313 163.76218433340546,178.8881640865293 163.49345688091125,178.92525208790903 163.32550222310238,178.9994280814135 163.22472942864988,179.1848680122639 163.02318383927923,179.22195598937105 162.98959290771745,179.5557476466638 163.15754756552633,179.8524511361611 163.22472942864988,180.2975060067547 163.39268408634234,180.7425604411983 163.39268408634234,180.9650874947838 163.29191129165702,181.11343880317872 163.02318383927923,181.22470225280267 162.45213800284546,181.2988778706058 162.1498196190223,181.44722907006508 161.31004633021075,181.4843168623629 161.04131887794938,181.59558022097917 160.70540956244804,181.59558022097917 160.20154558913782,181.81810685645905 159.46254509536084,181.96645788633032 159.02586298505776,182.11480886753998 158.38763528573327,182.18898433999857 157.51427106547635,182.07772112669772 157.27913454454392,182.30024752597092 157.14477081841324,182.6711246157065 157.2119526815368,183.7466664626263 157.37990733911283,184.00627963014995 157.7158166547306,184.1546299449983 157.85018038074486,184.45133042920497 157.61504386016168,184.7109431938734 157.5814529284835,184.89638079199358 157.74940758629236,185.415605663904 157.85018038074486,185.415605663904 157.37990733911283,185.56395551824244 157.3127254761057,185.74939276798978 157.5478619969217,187.30706267632195 157.5478619969217,187.75211024002056 157.48068013379816,188.01172111742198 157.5478619969217,188.3455063131987 157.48068013379816,188.64220405888045 157.5478619969217,189.5322961329366 157.37990733911283,190.57073468074668 157.41349827079102,191.201214069064 157.27913454454392,191.42373599702842 157.24554361298215,191.6091708538588 157.3127254761057,192.05421420099447 157.2119526815368,192.499257111951 157.3127254761057,192.83303900895407 157.24554361298215,193.315167982626 157.3127254761057,193.94564356040792 157.3127254761057,194.46485808482976 157.41349827079102,195.2065920898749 157.3127254761057,195.65163191131433 157.37990733911283,196.31919082571403 157.41349827079102,198.17351599462563 157.24554361298215,198.72981206866098 157.3127254761057,199.47153910741326 157.27913454454392,200.02783359150635 157.37990733911283,200.4728686880553 157.3127254761057,201.14042051532306 157.41349827079102,201.80797136106412 157.44708920246921,202.66095156953088 157.1783617498586,204.18147753266385 157.3127254761057,204.3669071799668 157.3463164077839,204.7377662472427 157.5478619969217,204.88610978942597 157.44708920246921,205.92451322762645 156.13704287190922,205.92451322762645 154.69263281533495,206.40662830256042 154.22235977370292,206.40662830256042 154.15517791069578,206.40662830256042 154.2559507052647,206.3695425458136 154.15517791069578,206.33245678598178 153.95363232132513,206.44371405642596 153.7520867320709,206.62914277997334 153.28181369032245,206.81457142785075 152.00535829144064,207.0 151.87099456542637,206.88874286576174 151.77022177074105,206.29537102306494 151.60226711293217,206.0357705981005 151.16558500286192,205.4794834734348 151.0648122081766,205.4423976408143 150.89685755048413,205.51656930299941 150.86326661880594,205.4794834734348 151.09840313985478,205.4423976408143 151.29994872910902,205.03445328312228 152.54281319642905,204.77485213737236 152.3412676070584,204.92319566733204 152.40844947006553,204.7377662472427 152.3412676070584,204.58942265674705 151.50149431847967,204.2927353301784 151.36713059211615,204.32982125660055 151.16558500286192,204.25564940072945 151.66944897617213,204.51525084328023 151.66944897617213,204.6265085588966 151.60226711293217,204.70068035408622 151.77022177074105,204.6265085588966 151.83740363374818,204.4410790175607 152.03894922311883,204.47816493193386 151.4343124551233,204.32982125660055 151.09840313985478,204.18147753266385 150.35940264584497,200.58412739404594 150.4265845088521,200.9179033485998 150.59453916654456,200.84373093533213 150.62813009810634,200.62121362335165 150.56094823486637,200.4728686880553 150.52735730353743,200.4728686880553 150.49376637185924,200.62121362335165 150.56094823486637,200.69538607285358 150.49376637185924,201.25167905760463 150.59453916654456,201.3258514041372 150.66172102966812,200.7695585102192 151.16558500286192,199.95366103298147 151.0648122081766,200.10200613792404 151.16558500286192,200.80664472430362 151.0648122081766,200.69538607285358 151.83740363374818,200.69538607285358 152.3076766753802,199.95366103298147 152.10613108624239,200.3616099548235 152.24049481237307,200.2503511942632 152.3076766753802,200.324523704272 151.66944897617213,200.99207574952743 151.4343124551233,201.10333432839252 151.23276686586905,201.02916194553836 151.16558500286192,201.25167905760463 151.16558500286192,200.7324722929916 151.63585804461036,200.80664472430362 151.3335396606708,200.43578244672972 151.16558500286192,200.10200613792404 151.23276686586905,200.324523704272 151.16558500286192,200.17617867217632 151.23276686586905,200.2503511942632 151.16558500286192,200.2874374508392 151.13199407130014,200.2132649347186 151.16558500286192,200.43578244672972 151.4343124551233,200.3616099548235 151.63585804461036,200.4728686880553 151.53508524980862,200.54704116177163 151.50149431847967,200.65829984965967 151.53508524980862,201.47419606079347 153.4497683480149,202.92055392361362 153.14744996419176,202.88346788217314 153.28181369032245,202.84638183758943 153.4497683480149,202.92055392361362 153.81926859507803,202.66095156953088 153.92004138976336,202.66095156953088 151.5686761814868,202.10466031098622 151.5686761814868,201.99340197743732 151.63585804461036,201.99340197743732 151.80381270230282,202.29009080617107 151.83740363374818,202.54969337227521 151.9717673601117,202.69803762913216 152.17331294936594,202.80929578997893 152.44204040174372,202.69803762913216 151.16558500286192,203.92187589930836 151.13199407130014,204.0331337604439 151.1991759344237,204.10730565266567 150.9304484820459,203.88478993973695 150.76249382435344,203.5881021527457 151.03122127684765,203.14307010910125 151.09840313985478,203.10598408570513 151.29994872910902,203.18015612932504 151.16558500286192,204.9973674142675 151.3335396606708,204.9973674142675 151.53508524980862,204.81193802441703 151.4343124551233,204.96028154232772 151.09840313985478,204.96028154232772 150.82967568736058,205.29405428047176 150.86326661880594,205.25696843283367 151.16558500286192,205.36822596675484 151.7030399076175,205.21988258208148 152.03894922311883,204.9973674142675 152.74435878556687,204.77485213737236 152.77794971724506,204.70068035408622 152.74435878556687,204.47816493193386 152.84513158036862,204.3669071799668 153.2146318271989,204.2927353301784 153.6177230058238,204.0331337604439 153.7520867320709,203.69936009545927 153.78567766363267,202.77220973942894 153.68490486894734,202.32717689606943 153.65131393738557,200.39869620234822 153.65131393738557,200.2503511942632 153.4497683480149,199.95366103298147 153.4833592796931,199.65697067792644 153.65131393738557,199.47153910741326 153.95363232132513,199.36028012889437 154.42390536295716,199.39736645808443 154.72622374689672,199.3231937965902 154.7934056101367,199.24902112298878 154.82699654158205,199.02650302957045 154.72622374689672,197.95099737410783 154.72622374689672,197.06092180189444 154.82699654158205,196.133757892414 154.7934056101367,195.98541149118682 154.82699654158205,195.6145452761266 154.72622374689672,194.5761182628048 154.82699654158205,193.50060206695343 154.7934056101367,190.7561698858044 154.72622374689672,190.05151570370072 154.82699654158205,189.5322961329366 154.7934056101367,189.05016314264503 154.89417840458918,188.30841908129514 154.89417840458918,186.3427914583881 154.86058747314382,185.56395551824244 154.65904188388959,185.11890580982435 154.42390536295716,184.89638079199358 154.3903144315118,184.74803071955102 154.4910872260807,184.59968059856328 154.72622374689672,184.41424287925474 154.89417840458918,184.1546299449983 154.89417840458918,183.0790890644421 154.9949511992745,182.74529999727383 154.82699654158205,182.22607207173132 154.42390536295716,181.70684355247067 154.42390536295716,181.55849243773264 154.4910872260807,181.4843168623629 154.65904188388959,181.4843168623629 154.7598146784585,181.59558022097917 154.7598146784585,181.66975577830453 154.65904188388959,181.70684355247067 154.4910872260807,181.4843168623629 154.52467815764248,181.26179006323218 154.05440511601046,181.0763509805838 154.08799604745582,181.11343880317872 154.05440511601046,180.9279996600526 154.18876884225756,180.7425604411983 154.22235977370292,180.5571211464994 154.1215869790176,180.40876965635107 153.92004138976336,180.26041811759933 153.78567766363267,180.1120665303606 154.05440511601046,180.2975060067547 154.08799604745582,180.37168177613057 154.05440511601046,180.48294540750794 153.81926859507803,180.7425604411983 153.81926859507803,180.8909118223528 153.92004138976336,180.9650874947838 154.15517791069578,180.9650874947838 154.45749629463535,181.18761443928815 154.59186002076603,181.18761443928815 154.86058747314382,181.00217532643 154.7598146784585,180.48294540750794 154.72622374689672,179.70409941565595 154.7934056101367,179.29613193450496 154.7598146784585,178.62854799246998 154.82699654158205,177.40464154959773 154.7934056101367,176.32908467913512 154.89417840458918,175.21643695933744 154.82699654158205,174.06669811770553 154.89417840458918,173.62163713917835 154.7934056101367,172.39771719876444 154.89417840458918,171.65594593205606 154.72622374689672,171.1367053242284 154.72622374689672,170.28366589345387 154.89417840458918,169.61606869922252 154.86058747314382,167.79871580773033 154.92776933626737,167.4649155063089 155.0285421309527,167.35364868454053 155.29726958321407,167.31655973786837 155.49881517258473,167.24238183547277 156.23781566659454,167.31655973786837 157.1783617498586,167.20529287983663 157.27913454454392,167.0198480556719 157.14477081841324,166.4264241096971 157.11117988685146,165.7588212431583 157.3463164077839,165.31375211992417 157.14477081841324,165.01703912881203 157.14477081841324,164.05272056811373 157.11117988685146,163.8672744562209 157.1783617498586,163.57056051961263 157.1783617498586,162.75459619401954 157.11117988685146,162.56914955173852 157.11117988685146,160.788857932057 157.14477081841324,160.41796296578832 157.11117988685146,159.9357990565768 157.14477081841324,159.5278138104477 157.24554361298215,159.45363463528338 157.11117988685146,159.2681866446801 157.07758895528968,158.82311115777702 157.11117988685146,158.48930425624712 157.04399802384432,158.19258680433268 157.07758895528968,157.52497182862135 157.01040709216613,156.37518817966338 157.07758895528968,156.07846934581175 157.04399802384432,155.03995190016576 157.14477081841324,154.96577199161402 157.37990733911283,155.0028619474324 157.41349827079102,154.92868203297257 157.48068013379816,154.4836022911477 157.61504386016168,153.92725200031418 158.79072646412533,153.29672084623598 159.9664090683218,153.3338109382894 160.26872745226137,153.22254065290326 160.70540956244804,153.22254065290326 161.04131887794938,153.37090102749062 161.04131887794938,153.44508119657985 160.94054608326405,153.5563514274836 161.41081912489608,153.37090102749062 161.5451828512596,153.44508119657985 161.7803193719592,153.48217127655516 162.08263775589876,153.7047116929607 162.08263775589876,153.66762163120438 162.45213800284546,153.59344149834942 162.75445638690144,153.44508119657985 163.29191129165702,153.44508119657985 163.49345688091125,153.37090102749062 163.72859340172727,153.37090102749062 163.93013899109792,153.5563514274836 164.0645027172286,153.81598186021438 164.3668211012846,154.00143207842484 164.7363213483477,153.9643420408829 165.10582159517799,153.74180175174843 165.50891277380288,153.63053156630485 165.77764022629708,153.66762163120438 165.94559488398954,153.77889180745115 166.21432233625092,153.81598186021438 166.2479132679291,153.63053156630485 166.113549541682,153.48217127655516 165.6096855683718,153.03709011647152 165.340958115994,153.03709011647152 165.2065943898633,153.11127034004312 165.03863973217085,153.0 164.63554855354596,153.22254065290326 164.16527551191393,153.22254065290326" stroke="#00AFAA" stroke-linecap="round" stroke-linejoin="round" stroke-width="1"><title>2025-09-13 5.4km</title><desc>15794483312</desc></polyline><polyline fill="none" points="49.58510160492733,216.3595811160194 49.5675142625696,216.45667812996544 49.88408642570721,217.38880744563357 50.00719782238593,217.46648472358356 47.65049394156085,216.8644851554709 47.35150912083918,216.5537751042284 47.457033175218385,216.34016170848918 49.88408642570721,217.5830005929165 50.32376998552354,217.6024198988889 49.58510160492733,217.40822676746757 50.851390257361345,217.81603216017538 51.080025708535686,217.66067780736194 51.080025708535686,217.97138641144556 50.88656494213501,219.17537841536978 50.728278860624414,220.20459255106107 50.51723075186601,222.55429113964783 50.394119355187286,222.88441222076654 50.42929403990274,223.09801973485446 50.71069151820848,223.2145328434417 50.76345354539808,223.81651632793364 50.587580121529754,224.41849828782142 50.67551683343481,226.74873666264466 50.798628230171744,228.01093957766716 48.60021043085726,229.4867375636095 48.178114213456865,229.6615025077772 47.91430407750886,230.06928687794425 47.91430407750886,230.438234038651 47.59773191442946,230.438234038651 46.66560276749078,231.0401992295956 45.76864830538398,231.37030852578755 45.18826600635657,231.37030852578755 44.87169384327717,231.54507208526775 44.88928118557669,232.16645258961944 45.17067866399884,232.47714223270305 45.047567267145496,232.74899533731514 44.977217897656374,234.6131225374411 44.994805239955895,235.50634497417195 44.87169384327717,236.2248040641134 44.854106500861235,236.7490836514189 44.94204321276629,238.1665745248756 44.924455870408565,240.166581520185 44.94204321276629,241.31220901673078 44.95963055524044,242.41899644047953 44.94204321276629,243.97237360895087 44.994805239955895,243.29277234643814 45.1530913215247,243.83645351184532 43.359182397369295,244.06945934508985 43.27124568534782,244.1277107677015 42.84914946788922,244.24421357015672 41.74114689702401,244.41896766678838 41.266288652375806,244.49663611290453 38.78647337475559,244.5160532205191 38.680949320376385,244.72964129925822 38.34678981493926,244.88497796322918 37.85434422787512,244.90439503912057 36.97497710812604,244.90439503912057 36.306658097193576,244.9432291861158 35.99008593405597,245.75874480759376 36.078022646019235,249.09844626873382 36.0604353036033,252.55459955931292 36.0604353036033,254.5544855450862 36.09560998843517,255.52529792160203 36.025260618829634,256.787348086742 36.04284796124557,258.30179944523843 36.13078467320884,259.7774094423803 36.0604353036033,261.3112574990082 36.04284796124557,261.97139159281505 36.078022646019235,262.84509566459747 35.444878319860436,262.9033424886002 34.74138462403789,262.9421736967488 34.58309854246909,262.9615892984002 33.93236687389435,263.0392516891734 32.982650384597946,263.19457639475877 32.36709340073867,263.1557452278794 31.34702754189493,263.2528231332544 30.889756639720872,263.09749846567865 29.535531275265384,263.2528231332544 29.359657851280645,263.09749846567865 29.218959112185985,263.09749846567865 28.796862894669175,263.0586672829377 28.902386949106585,263.33048542898905 28.95514897623798,264.12652249833627 29.14860974252224,264.82547967990104 29.254133796901442,265.5244348077249 29.412419878470246,266.0292344561167 30.48524776462,266.22338788183697 31.593250335427,266.22338788183697 32.630903536686674,266.2039725463983 33.10576178145129,266.12631118876743 33.52785799879348,266.14572653055075 34.17858966742642,266.14572653055075 34.60068588494323,266.08748050050053 35.19865552627016,266.14572653055075 35.37452895019669,266.5922789541073 35.356941607780755,267.0 35.19865552627016,266.534033033342 35.11071881430689,266.14572653055075 34.53033651527949,266.08748050050053 34.037890928273555,266.06806515395874 33.68614408036228,266.08748050050053 32.20880731922807,266.2039725463983 31.839473128900863,266.2816338786215 31.24150348751573,266.2622185479704 30.027976862329524,266.2039725463983 29.553118617623113,265.93215768391383 29.236546454543713,264.82547967990104 28.902386949106585,263.07808287513035 29.07826037297491,262.88392688220483 29.57070596003905,263.0586672829377 30.766645242867526,263.01983609385206 31.135979433194734,262.9615892984002 31.628425020200666,263.01983609385206 32.736427591065876,262.9033424886002 33.809255477099214,262.9421736967488 34.424812460900284,262.88392688220483 34.81173399364343,262.7868488263339 35.163480841438286,262.7868488263339 35.23383021110203,262.6703551069804 35.19865552627016,262.14613266385277 35.339354265481234,261.9519759102841 36.025260618829634,261.85489747406973 36.201134042814374,261.7384032982227 35.93732390686637,260.787032060558 36.0076732764137,258.78719848100445 36.0076732764137,257.2339180795534 35.99008593405597,255.97187028403278 35.97249859164003,253.91374720574822 35.97249859164003,250.3411139092059 35.93732390686637,248.0111067564867 35.93732390686637,247.60335315753764 35.97249859164003,246.18591854069382 35.97249859164003,244.96264625723416 36.57046823302517,244.88497796322918 37.23878724407405,245.0014803946542 37.87193157017464,244.88497796322918 38.69853666279232,244.82672672618355 38.69853666279232,244.477219003762 38.909584771550726,244.49663611290453 40.4748582446482,244.477219003762 41.266288652375806,244.477219003762 42.12806842970895,243.91412214834418 42.21600514167221,243.38985835998028 41.96978234814014,243.38985835998028 41.88184563611867,243.97237360895087 41.91702032100875,244.3801334341697 41.705972212250344,244.39955055128667 41.17835194035433,244.43838478074758 39.08545819547726,244.477219003762 39.03269616828766,244.5160532205191 40.56279495666968,244.49663611290453 40.7914304077276,244.477219003762 41.758734239439946,244.3607163154811 42.58533933199942,244.22479644035047 43.13054694613675,244.147127905424 43.53505582129583,244.03062505539856 45.01239258243004,243.37044116048492 44.88928118557669,242.4772482674016 44.88928118557669,241.95298131099844 44.836519158503506,240.41900839183654 44.924455870408565,239.29279412572214 44.88928118557669,238.06948637848836 44.906868528050836,237.46753898602037 44.94204321276629,236.65199492625834 44.81893181608757,236.65199492625834 44.836519158503506,236.1277151248505 44.994805239955895,234.47719708981458 45.22344069118844,232.55481458004215 44.977217897656374,232.32179746188922 44.854106500861235,231.66158105357317 45.06515460961964,231.2732176039135 45.64553690858884,231.35089034456178 46.43696731637465,231.11787204642314 46.94700024573831,230.9819446002948 47.38668380561285,230.80718062681262 47.61531925678719,230.438234038651 47.89671673515113,230.51590705223498 47.86154205031926,230.574161795681 48.09017750143539,230.30230620395741 48.24846358294599,229.79743070890254 49.11024336027913,229.37022752939083 49.4092281810008,229.0595338256535 49.8313243984594,228.8265132814122 49.919261110480875,228.76825810963055 50.56999277905561,228.26337935640186 50.95691431168234,228.0497764841566 50.833802915003616,226.8264108817384 50.74586620298214,226.2632722184062 50.69310417579254,224.8068729367078 50.833802915003616,223.5058153650316 50.99208899657242,223.02034429738706 50.76345354539808,222.96208770266094 50.69310417579254,221.93288550770376 50.781040887814015,220.55413596062863 50.851390257361345,220.02982065350807 51.044851023703814,218.92292898443702 51.220724447630346,217.6800971069897 51.06243836606154,217.6024198988889 49.919261110480875,217.77719358149625 49.602688947401475,217.93254785810132 49.51475223538,217.56358128531429 49.93684845289681,217.11693677288713 49.5675142625696,216.98100131988758 49.479577550664544,216.92274324476602 49.602688947401475,216.37900052196346 49.4619902081904,216.26248406233208 49.42681552347494,216.22364522980934 49.198180072242394,216.22364522980934 49.05748133308953,216.2430646468856 48.8816079092212,216.22364522980934 48.68814714293694,215.87409545108676 48.846433224505745,215.85467600388802 48.565035746083595,213.9321428737603 48.58262308855774,213.9321428737603 48.58262308855774,213.8350448282872 48.60021043085726,213.95156247806153 48.65297245810507,213.9709820807766 49.05748133308953,213.15535739950428 48.9343699364108,215.27209184922685 49.0398939907318,216.28190347626514 48.565035746083595,213.9321428737603 48.58262308855774,213.9321428737603 48.16052687098272,213.99040168194915 48.33640029502567,214.5535694250284 48.617797773273196,213.95156247806153 48.565035746083595,214.7866039628425 48.846433224505745,215.4468672456278 48.8288458820316,215.64106197968067" stroke="#00AFAA" stroke-linecap="round" stroke-linejoin="round" stroke-width="1"><title>2025-09-12 11.5km</title><desc>15784793735</desc></polyline></svg>