<?xml version="1.0" encoding="utf-8" ?>
<svg baseProfile="full" height="300mm" version="1.1" viewBox="0,0,200,300" width="200mm" xmlns="http://www.w3.org/2000/svg" xmlns:ev="http://www.w3.org/2001/xml-events" xmlns:xlink="http://www.w3.org/1999/xlink"><defs /><rect fill="#f5f5f5" height="300" rx="1" ry="1" width="200" x="0" y="0" /><text fill="#006cb8" style="font-size:12px; font-family:MGI-Regular; font-weight:bold;" x="10" y="20">超过5公里的活动</text><text fill="#006cb8" style="font-size:4px; font-family:MGI-Regular" x="10" y="280">Runner</text><text fill="#006cb8" style="font-size:9px; font-family:Arial" x="10" y="290">XHH</text><text fill="#006cb8" style="font-size:4px; font-family:MGI-Regular" x="65" y="280">特殊的活动</text><rect fill="yellow" height="2.6" rx="1" ry="1" width="2.6" x="65" y="283" /><text fill="#006cb8" style="font-size:3px; font-family:MGI-Regular" x="70" y="285.5">大于 20.0 km</text><rect fill="red" height="2.6" rx="1" ry="1" width="2.6" x="65" y="287" /><text fill="#006cb8" style="font-size:3px; font-family:MGI-Regular" x="70" y="289.5">大于 40.0 km</text><text fill="#006cb8" style="font-size:4px; font-family:MGI-Regular" x="120" y="280">数据</text><text fill="#006cb8" style="font-size:3px; font-family:MGI-Regular" x="120" y="285">次数: 9</text><text fill="#006cb8" style="font-size:3px; font-family:MGI-Regular" x="120" y="290">周均次: 3.0</text><text fill="#006cb8" style="font-size:3px; font-family:MGI-Regular" x="141" y="285">所有: 79.4 km</text><text fill="#006cb8" style="font-size:3px; font-family:MGI-Regular" x="141" y="290">平均: 8.8 km</text><text fill="#006cb8" style="font-size:3px; font-family:MGI-Regular" x="167" y="285">最少: 5.0 km</text><text fill="#006cb8" style="font-size:3px; font-family:MGI-Regular" x="167" y="290">最多: 16.6 km</text><polyline fill="none" points="19.375330396462232,54.11660952831153 19.375330396462232,53.90647800127044 20.136563876876608,53.433681814407464 20.897797356825322,53.065951206488535 21.32599118957296,53.59128058195347 21.659030837006867,54.0115437732311 21.135682819178328,55.74512653390411 20.755066079320386,57.11097632575547 20.70748898689635,57.58376980846515 21.135682819178328,57.163508952071425 22.03964757733047,55.272331699263304 22.610572687350214,53.53874766378431 22.800881057279184,53.53874766378431 23.086343612289056,53.17101711593568 23.181497797369957,53.065951206488535 23.37180616753176,53.0134182452457 22.610572687350214,53.853945108887274 22.22995594725944,54.484339535352774 21.42114537465386,56.11285560944816 20.992951541906223,56.74324782117037 21.135682819178328,56.0077901808545 20.850220264634117,55.00966775184497 21.183259911835194,53.22355006419821 20.374449339229614,53.53874766378431 17.75770925125107,53.32861594785936 16.47312775347382,53.696346405602526 16.47312775347382,53.0134182452457 17.37709251092747,52.12035724881571 17.139207048574463,50.54436422861181 16.187665198231116,49.703833038394805 15.664317180635408,48.75823413551552 14.855506608029827,48.49556752684293 14.52246696036309,49.0209006369696 16.47312775347382,47.54996684688376 13.666079295100644,43.66248277242994 13.856387665262446,43.55741530895466 13.80881057283841,43.60994904272957 13.80881057283841,43.60994904272957 13.61850220267661,43.71501649770653 13.80881057283841,43.55741530895466 13.761233480181545,44.397954535495955 13.903964757919312,43.71501649770653 13.570925110019743,43.66248277242994 13.570925110019743,43.60994904272957 13.761233480181545,43.60994904272957 13.761233480181545,43.66248277242994 13.71365638775751,43.50488157093059 13.761233480181545,43.60994904272957 13.999118942767382,43.39981408172753 13.951541850343347,43.60994904272957 13.999118942767382,43.8726176477503 14.141850220272318,44.187819831771776 14.284581497777253,44.397954535495955 14.474889867939055,44.29288719216129 13.856387665262446,43.60994904272957 16.330396475968882,47.60250025463756 16.187665198231116,47.39236659841845 16.04493392072618,47.54996684688376 15.378854625625536,47.760100451589096 14.903083700221032,47.54996684688376 15.474008810473606,47.86516722809756 14.903083700221032,48.44303419213975 14.807929515372962,48.81076744443271 15.807048458373174,49.441166815930046 16.615859030978754,50.43929789005779 17.2819383260794,49.703833038394805 17.66255506617017,50.176631968060974 17.519823788665235,50.70196370460326 18.138325991109014,52.54062140180031 16.711013215826824,52.01529116771417 17.519823788665235,51.8051589539391 17.2819383260794,52.48808839765843 16.615859030978754,52.69822038820712 16.615859030978754,53.276083008095156 17.424669603351504,53.48621474119136 19.565638766624033,53.53874766378431 19.99383259913884,53.59128058195347 20.659911894239485,53.696346405602526 20.564757709391415,55.00966775184497 20.184140969300643,56.16538831742946 19.99383259913884,57.79390013363445 19.70837004412897,59.685069969447795 19.518061673967168,61.313572870683856 19.137444933876395,65.4636100018979 19.18502202653326,66.25158870988525 18.80440528644249,67.93260672595352 18.99471365637146,68.40539225115208 19.660792951704934,68.5629873489379 19.518061673967168,70.66425162868109 19.232599119190127,74.76169722381746 19.518061673967168,77.54584407625953 20.041409691795707,78.43886975845089 25.132158590480685,76.65281715372112 28.93832599138841,75.3920711518731 31.602643172023818,74.4990412381594 34.31453744485043,73.39588492666371 34.64757709275,72.97563440533122 34.266960352426395,72.24019533221144 35.64669603551738,71.60981831426034 38.215859031071886,70.34906242438592 40.975330396555364,69.40349388471805 41.40352422907017,68.45792395458557 42.16475770925172,66.56677992257755 42.688105727080256,65.41107805381762 43.496916299685836,64.04524589411449 44.35330396471545,63.62498926144326 46.58942731306888,65.09588627447374 49.01585903111845,66.56677992257755 49.53920704848133,66.98703463264974 51.06167400907725,64.51803427771665 51.29955947143026,61.523701976868324 51.39471365627833,60.367991043196525 50.63348017632961,59.94773200672353 48.11189427319914,60.42052340338705 46.30396475782618,60.105329177575186 46.20881057274528,59.15974557312438 46.58942731306888,57.58376980846515 47.445814977865666,54.852069331973325 48.92070484603755,53.32861594785936 50.53832599148154,53.22355006419821 52.441409691702574,53.38114888337441 53.29779735696502,53.22355006419821 54.867841409752145,53.74887931102421 55.486343612428755,54.0640766529832 55.53392070508562,54.43180668994319 55.29603524226695,54.32674098655116 55.62907488993369,54.0640766529832 55.391189427580684,54.0115437732311 55.81938326009549,52.90835231001256 55.62907488993369,52.54062140180031 55.91453744517639,51.17476190032903 56.818502202862874,51.01716254034545 57.199118942953646,51.01716254034545 57.38942731288262,50.49183106148848 57.67488986789249,48.44303419213975 58.34096916299313,48.39050085330382 59.05462555075064,48.23290081083542 60.19647577102296,48.18036745471181 60.148898678598925,48.23290081083542 60.29162995610386,48.07530072965892 61.19559471379034,48.337967510160524 61.052863436285406,48.70570082234917 61.52863436145708,49.54623331775656 62.00440528639592,49.86143272026675 62.52775330399163,50.386764714319725 63.907488986849785,50.49183106148848 65.09691629954614,50.28169834968867 65.04933920735493,50.12409877090249 64.00264317193069,50.54436422861181 63.47929515433498,50.43929789005779 63.812334802001715,50.49183106148848 63.66960352449678,50.807030000316445 63.85991189442575,50.28169834968867 64.28810572694056,50.33423153415788 65.09691629954614,49.86143272026675 65.00176211469807,49.96649915329181 64.85903083719313,49.96649915329181 64.8114537447691,49.96649915329181 65.57268722495064,49.28356703103054 66.38149779755622,47.39236659841845 67.0,45.23849266290199 66.61938326014206,42.61180736561073 66.09603524254635,42.03393515991047 65.23964757705107,41.876333559222985 65.00176211469807,41.92886743048439 65.52511013229378,42.03393515991047 64.76387665211223,41.61366413865471 64.4308370044455,41.61366413865471 64.47841409710236,41.61366413865471 65.144493392203,41.92886743048439 64.90660792985,41.771265803836286 64.38325991202146,41.561130241607316 64.19295154209249,41.61366413865471 63.62202643183991,41.98140129732201 61.81409691646695,42.29660440882435 61.14801762113348,43.294746575236786 60.862555066123605,44.29288719216129 60.672246696194634,44.92329099396011 60.71982378838584,45.86889553733636 60.71982378838584,46.07902969134739 60.672246696194634,46.2366302619339 60.957709251437336,47.7075670567574 60.767400881042704,48.12783409439726 59.863436123589054,47.86516722809756 59.435242290841416,48.39050085330382 59.10220264317468,48.12783409439726 58.57885462557897,48.337967510160524 57.62731277523562,49.54623331775656 57.53215859038755,51.27982811885886 57.05638766521588,51.22729501168942 56.24757709284313,51.22729501168942 55.96211453783326,52.43555538926739 55.81938326009549,53.0134182452457 55.53392070508562,53.22355006419821 54.39207048458047,53.38114888337441 50.63348017632961,53.065951206488535 49.396475770976394,52.85581933619687 48.54008810571395,53.32861594785936 47.5409691631794,55.00966775184497 44.87665198254399,61.10344369581435 43.82995594711974,62.36421771469759 42.02202643174678,62.36421771469759 37.59735682816245,62.311685513181146 35.979735682951286,62.15408888325328 34.266960352426395,62.04902444174513 33.267841409891844,61.94395998300752 32.88722466980107,61.20850829180563 32.839647577144206,56.21792102110339 33.02995594730601,48.96836734522367 33.267841409891844,46.44676429586252 33.17268722457811,46.184096742770635 32.45903083705343,46.70943174161948 31.745374449295923,46.97209908004152 31.222026431700215,46.76196521782549 29.74713656399399,46.97209908004152 28.700440528569743,47.1822328735725 27.653744493378326,47.28729974461021 25.560352422995493,47.812633841938805 24.228193832561374,47.97023398755118 22.65814977977425,47.86516722809756 21.61145374435,47.91770061006537 20.850220264634117,48.44303419213975 20.850220264634117,52.90835231001256 20.469603524077684,53.433681814407464 19.6132158592809,53.48621474119136 16.94889867841266,54.0640766529832 16.330396475968882,54.0115437732311 17.37709251092747,52.330489359621424 17.56740088108927,52.01529116771417 17.04405286349356,51.8051589539391 16.330396475968882,51.752625889726914 16.282819383312017,51.8051589539391 16.85374449333176,50.964629411755595 16.94889867841266,50.176631968060974 16.711013215826824,49.96649915329181 16.520704845665023,49.59876656217966 15.474008810473606,49.12596720736474 15.616740088211372,48.54810085706413 14.903083700221032,48.18036745471181 14.760352423181757,48.915834049344994 14.570044053019956,49.0209006369696 13.761233480181545,43.60994904272957 13.80881057283841,43.820083935395814 13.903964757919312,43.60994904272957 13.951541850343347,43.66248277242994 13.999118942767382,45.08089184772689 13.61850220267661,44.608089170302264 14.046696035424247,44.24035351420753 13.856387665262446,43.92515135573922 13.903964757919312,44.08275245432742 13.80881057283841,44.03021875908598 14.284581497777253,43.55741530895466 13.903964757919312,43.71501649770653 13.570925110019743,43.66248277242994 13.285462555009872,46.02649615932023 13.142731277504936,46.2366302619339" stroke="#00AFAA" stroke-linecap="round" stroke-linejoin="round" stroke-width="1"><title>2025-09-26 7.3km</title><desc>15940756881</desc></polyline><polyline fill="none" points="95.4148753003683,40.816204517992446 95.86534369189758,40.63856506664888 96.31581208342686,40.851732399634784 96.8628094161395,40.531981360923965 97.44198306230828,40.247758018173045 97.66721725813113,40.38986971281702 97.12021992553491,41.5978172418545 97.47415937599726,41.953095288190525 97.21674886660185,42.770233693212504 97.08804361172952,44.33345071077929 96.79845678864513,44.972946961963316 96.76628047507256,45.39927727347822 96.79845678864513,46.1808817590354 96.73410416126717,47.24670379332383 97.05586729827337,47.957250364881475 96.60539890662767,48.6677957753418 96.4123410244938,49.378340024792124 96.63757522020023,50.12441023718566 98.5681540411897,50.19546447630273 99.85520658851601,50.230991591583006 101.882314350456,50.230991591583006 102.94413270195946,50.12441023718566 103.23371952504385,50.87047916947631 104.29553787666373,51.012587392440764 104.6173010134371,51.26127667078981 104.87471152283251,51.82970877291518 105.09994571877178,52.82446316399728 105.55041411030106,54.03237615106627 105.19647465983871,54.067902952840086 104.68165364069864,54.13895654765656 104.71382995450404,54.2100101308024 104.68165364069864,54.174483340699226 105.3251799143618,54.3876440381282 105.80782461969648,54.671858138783136 106.25829301122576,55.3468658834754 106.67658508906607,56.94556425733026 106.58005614811555,57.15872359651257 106.54787983442657,58.117939329647925 106.80529034382198,58.43767743706121 107.22358242166229,59.43241671286523 107.41664030379616,60.071890760038514 107.5131692448631,60.746890123118646 107.77057975437492,60.995573834865354 107.77057975437492,61.599519399926066 107.67405081330799,62.94951233637403 107.70622712688055,64.01529327360913 107.70622712688055,64.72581244737376 107.35228767653462,66.11132149765035 107.06270085345022,67.78103166789515 107.64187449961901,69.48626097035594 108.12451920483727,70.48097497608978 108.86457441956736,72.04409238885273 108.57498759636655,72.32829495117767 108.02799026377033,73.18090152423247 107.3844639902236,73.64272938671638 107.09487716702279,73.35852768327459 106.61223246168811,73.99798125511734 106.22611669753678,74.06903159394278 106.3548219522927,73.99798125511734 106.67658508906607,74.10455675894627 106.58005614811555,74.45980824998696 106.90181928488892,74.85058455518447 106.29046932503115,75.09926020292914 105.29300360090565,74.49533338320907 105.22865097341128,74.31770768846036 105.35735622816719,74.5308585135208 105.84000093350187,74.99268494275748 105.67911936494056,75.24136050924426 105.26082728710026,75.06373511903803 105.26082728710026,75.20583543693647 105.35735622816719,75.31241064498317 105.29300360090565,74.99268494275748 105.67911936494056,75.20583543693647 105.87217724707443,74.99268494275748 106.19394038396422,75.06373511903803 107.41664030379616,74.92163475471898 107.64187449961901,75.13478528379346 107.86710869532544,75.3479357084725 107.22358242166229,75.70318618410965 106.90181928488892,76.09396137204021 106.70876140275504,76.48473620900768 106.22611669753678,76.94656056369422 106.19394038396422,78.08335688622901 105.96870618802495,78.08335688622901 105.64694305125158,77.79915808408987 106.32264563860372,78.11888172349427 105.58259042387363,78.61622913973406 104.39206681773067,78.58070434318506 103.45895372098312,79.61092226635083 102.94413270195946,80.21484198336839 102.52584062411916,80.74771162573597 102.07537223258987,80.99638390209293 101.94666697783396,81.06743309769081 101.7536090958165,81.81344895204529 101.7214327820111,82.31079214406782 101.30314070428722,82.38184112519957 99.69432502018753,83.83834267867496 99.43691451055929,84.7264509886736 99.56561976543162,84.86854814991239 99.85520658851601,85.36588784909691 100.40220392111223,85.33036360368715 100.49873286217917,85.08169380491017 100.20914603897836,87.0 99.43691451055929,86.36056554154493 99.30820925591979,85.57903326035012 99.14732768759131,84.7264509886736 100.33785129373427,83.44757444786956 101.59272752737161,82.0265961039695 101.882314350456,81.77792441658676 102.30060642841272,80.88981008669361 102.68672219244763,80.60561311827041 104.10247999464627,79.07805123139406 105.13212203234434,78.43860512779793 105.71129567862954,78.54517954363837 106.32264563860372,78.08335688622901 106.48352720716503,76.37816128827399 105.96870618802495,75.84528629301349 106.00088250183035,75.56108602863969 107.48099293117411,75.59661107181455 107.99581395008136,75.20583543693647 107.77057975437492,75.06373511903803 107.60969818593003,74.85058455518447 107.5131692448631,73.85588054257096 107.73840344068594,73.35852768327459 107.64187449961901,73.60720418399433 107.64187449961901,73.46510334391496 107.60969818593003,73.39405290631112 107.32011136272922,74.28218254086096 106.86964297131635,74.77953434403753 106.3548219522927,74.95715985019342 105.51823779649567,75.24136050924426 105.19647465983871,74.99268494275748 105.13212203234434,75.24136050924426 105.3251799143618,75.27688557852525 105.45388516923413,75.52556098246714 105.6147667375626,75.45451088156551 105.74347199243493,75.27688557852525 105.64694305125158,75.20583543693647 105.90435356076341,75.13478528379346 106.67658508906607,74.95715985019342 107.3844639902236,74.06903159394278 107.54534555855207,73.85588054257096 107.48099293117411,73.35852768327459 107.54534555855207,73.32300245726947 107.54534555855207,73.35852768327459 107.64187449961901,73.28747722832486 107.09487716702279,73.25195199655718 106.86964297131635,73.18090152423247 106.96617191226687,72.50592145847622 107.06270085345022,72.43487086417736 107.25575873535126,72.47039616276743 107.25575873535126,72.50592145847622 107.35228767653462,72.61249732784927 107.44881661760155,72.68354789310251 107.70622712688055,72.7190731712908 107.67405081330799,72.75459844665602 107.77057975437492,72.57697204095894 107.03052453964483,72.15066837146878 106.80529034382198,72.22171901198453 107.12705348071177,73.28747722832486 106.77311403024942,73.46510334391496 106.58005614811555,73.53615376970265 106.67658508906607,73.64272938671638 107.09487716702279,73.28747722832486 106.77311403024942,72.79012371905264 106.93399559869431,72.36382025838248 107.06270085345022,72.07961771925329 107.25575873535126,72.39934556282242 107.3844639902236,72.47039616276743 107.25575873535126,72.36382025838248 107.3844639902236,72.36382025838248 107.35228767653462,72.32829495117767 107.44881661760155,72.25724432806601 107.44881661760155,72.39934556282242 107.44881661760155,72.39934556282242 107.44881661760155,72.54144675115822 107.35228767653462,72.47039616276743 107.35228767653462,72.47039616276743 107.22358242166229,72.7190731712908 107.32011136272922,72.15066837146878 107.35228767653462,72.68354789310251 107.19140610808972,72.57697204095894 107.22358242166229,72.50592145847622 107.54534555855207,72.39934556282242 107.32011136272922,71.04938195794239 106.58005614811555,70.51650043416885 106.22611669753678,69.98361825753818 105.55041411030106,70.23229668792919 104.9068878366379,70.0901947451639 103.20154321147129,70.05466925216024 102.46148799685761,69.52178650978021 102.04319591890089,68.27839090506313 101.20661176310387,66.00474403501721 100.3056749800453,64.05081925983541 99.82303027471062,63.76661128856358 97.92462776752654,64.37055300560314 97.40980674873572,64.54818276269361 97.248925180058,64.47713086861768 97.08804361172952,63.588981212087674 97.73156988539267,62.98503840973717 97.60286463075317,62.06135956032085 97.37763043493032,61.49294083175482 96.92716204340104,60.00083813461242 96.57322259293869,58.117939329647925 96.34798839711584,56.30608561303234 96.28363576973788,54.52975111169508 96.4123410244938,52.50472092931159 96.73410416126717,49.52044873527484 96.79845678864513,48.45463227419532 97.08804361172952,48.06383225042373 96.89498572959565,47.211176434211666 97.02369098446798,45.75455221376615 97.12021992553491,44.3689783050213 97.31327780766878,42.34390080400044 96.76628047507256,41.31359459582018 96.60539890662767,40.60303716771887 95.96187263308093,40.63856506664888 95.76881475094706,40.247758018173045 94.51393851730973,40.35434179357253 94.22435169410892,40.105646277195774 94.35305694886483,39.71483874969999 94.70699639932718,39.18191882799147 94.51393851730973,37.93843647043104 93.99911749840248,37.902908350893995 92.96947546047159,37.97396458720323 92.71206495107617,37.68973957214621 93.29123859724496,37.44104253171827 92.29377287311945,35.73568756468012 93.06600440153852,37.192345348972594 92.45465444168076,33.56845597573556 92.42247812787537,33.39081356319366 92.39030181418639,33.42634205147624 92.4868307551369,33.49739901931025 92.45465444168076,33.675041388429236 92.39030181418639,33.14211406360846 91.87548079527915,33.675041388429236 92.42247812787537,33.319756577839144 92.71206495107617,33.675041388429236 92.32594918680843,33.746098315605195 92.35812550061382,33.46187053684844 92.39030181418639,33.355285071913386 91.93983342254069,33.42634205147624 91.13542558054905,34.27902490014094 92.35812550061382,33.24869958078489 92.32594918680843,33.284228080679895 92.77641757833771,34.10138277782244 93.00165177427698,33.85268368481775 92.77641757833771,34.03032590870862 92.71206495107617,34.13691120810108 93.19470965617802,33.63951292046113 93.38776753831189,33.85268368481775 93.29123859724496,33.60398444952443 93.5164727930678,33.710569853457855 93.29123859724496,33.9237405830645 93.03382808773313,34.03032590870862 92.64771232381463,35.025121020909864 93.29123859724496,34.10138277782244 92.87294651940465,34.669837313500466" stroke="#00AFAA" stroke-linecap="round" stroke-linejoin="round" stroke-width="1"><title>2025-09-23 6.8km</title><desc>15905416654</desc></polyline><polyline fill="none" points="186.77959183673374,55.94204884668579 186.97795918368502,56.47745535697322 186.57020408165408,59.17879521228315 186.51510204083752,59.58034154832421 186.59224489796907,61.08917264950287 186.6804081632872,62.670995295309694 185.07142857147846,63.76609344033932 185.03836734691868,64.3258071609016 183.52857142861467,64.82468066095316 183.0436734694522,64.84901591089147 182.4155102040968,64.87335115687165 182.06285714288242,64.80034540701308 181.39061224495526,65.00719493861834 179.0322448979714,65.01936254919565 178.73469387751538,64.86118353439088 177.86408163269516,64.92202163685579 177.62163265311392,64.93418925440346 177.25795918365475,65.03153015878343 174.5800000000163,65.189708992737 173.74244897958124,65.20187658838404 171.88000000000466,65.57907156067085 168.7391836734605,66.27262111396703 166.41387755109463,66.36996114376234 165.10244897956727,66.09010838672111 161.49877551023383,63.97294440814585 159.3718367347028,62.63449188515369 158.0163265306619,62.12344320359989 156.49551020405488,61.84358246829652 151.2718367347261,62.03826825287251 150.28000000002794,61.9287575303606 149.7179591836757,61.9287575303606 149.35428571427474,61.80707885537413 149.35428571427474,61.77057523347321 148.57183673471445,61.84358246829652 148.53877551021287,61.125676438372466 148.43959183676634,61.04050091706449 148.41755102039315,61.052668851669296 148.45061224495294,60.407766948163044 148.28530612250324,59.11795476388943 148.2081632653135,59.03277809440624 148.1861224489985,59.008441894169664 148.25224489800166,60.27391903336684 148.3514285715064,61.89225393832021 147.95469387754565,61.9895968305791 146.77551020414103,62.18428242429218 143.64571428572526,62.89001556839503 142.8302040816052,63.14553881328902 142.03673469391651,63.44973258096434 140.59306122444104,63.97294440814585 140.43877551023616,63.79042886319803 140.76938775513554,61.68540008095442 140.49387755105272,60.1400709982845 140.24040816328488,58.740743429152644 139.84367346938234,57.98631789347564 139.4359183674096,57.548262602911564 138.8408163265558,56.732989603769965 138.86285714287078,57.01285994233331 138.6755102041061,57.049364730351954 137.52938775514485,56.96418687776895 137.24285714287544,57.061532991050626 137.0114285714808,57.31706623561331 136.90122448978946,57.73078579723369 136.74693877552636,57.487421488403925 136.5265306122601,57.34140271220531 136.44938775512855,57.42658034907072 136.35020408168202,57.390075653544045 136.2510204082355,57.390075653544045 136.3612244898104,57.32923447441135 136.47142857150175,57.47525326254254 136.46040816325694,57.47525326254254 136.2399999999907,57.390075653544045 136.35020408168202,57.463085035662516 136.33918367349543,57.42658034907072 136.33918367349543,57.34140271220531 136.2399999999907,57.377907419679104 136.17387755104573,57.450916807792964 136.51551020413171,57.450916807792964 136.65877551020822,57.438748578948434 136.2179591837339,57.596935476583894 136.16285714285914,57.42658034907072 136.15183673473075,57.390075653544045 135.84326530614635,57.377907419679104 135.468571428617,57.30489799582574 135.1379591836594,57.280561513252906 134.67510204087012,57.377907419679104 134.67510204087012,57.32923447441135 134.67510204087012,57.25622502664919 135.09387755108764,57.36573918488284 135.1600000000326,57.073701250730664 135.3142857142957,57.17104729237326 135.35836734692566,57.41441211820347 135.27020408166572,57.280561513252906 135.17102040816098,57.26839327043854 135.3142857142957,57.280561513252906 135.35836734692566,57.134542534229695 135.42448979592882,57.25622502664919 135.3032653061673,57.377907419679104 135.07183673471445,57.36573918488284 135.41346938780043,57.08586950939207 135.49061224493198,57.25622502664919 135.83224489795975,57.41441211820347 136.0636734694126,57.52392616009456 136.2289795918623,57.463085035662516 136.1959183673025,57.57259904172679 136.46040816325694,57.65777654632984 136.78000000002794,57.58476725962828 136.65877551020822,57.35357094903884 136.70285714283818,57.450916807792964 136.47142857150175,57.207552041640156 136.372244897997,57.377907419679104 136.51551020413171,57.30489799582574 136.47142857150175,57.42658034907072 136.18489795923233,57.40224388636125 136.2179591837339,57.73078579723369 136.6808163265232,58.10799968999345 136.95632653060602,57.94981333514443 137.04448979592416,56.562633487948915 134.78530612250324,56.62347498026793 134.17918367352104,56.355772228198475 133.95877551025478,57.41441211820347 133.297551020456,58.13233603734989 133.36367346945917,57.99848607761669 133.3085714285844,57.98631789347564 133.14326530619292,57.80379501231073 133.25346938776784,57.146710787958 133.20938775513787,56.53829688405676 133.12122448976152,56.197584012144944 133.07714285718976,57.463085035662516 133.0,57.79162681232265 133.1542857143213,57.82813140937651 133.37469387752935,58.022822442886536 133.28653061226942,58.13233603734989 133.89265306125162,57.60910369253543 134.223265306151,57.31706623561331 134.7191836735583,56.80599930800963 137.20979591843206,56.87900897648069 138.42204081639647,56.757326175807975 138.9730612245039,57.35357094903884 140.0530612245202,58.886760833338485 140.40571428573458,61.11350850976305 140.47183673473774,62.245121620129794 140.6812244898174,61.90442180330865 140.64816326537402,62.76833767867356 140.372653061233,63.82693199008645 140.8355102041387,63.863435107981786 141.37551020411775,63.70525486567931 141.19918367348146,63.668751708988566 142.57673469389556,63.194209857902024 143.1277551020612,63.048196676463704 143.9102040816797,62.81700884648308 146.43387755105505,62.159946738989674 148.14204081631033,61.79491098236758 148.54979591839947,61.79491098236758 149.2440816326416,61.75840735754173 148.946530612302,61.91658966730756 148.90244897961384,61.89225393832021 148.6600000000326,61.89225393832021 149.2771428571432,61.66106431414664 150.87510204082355,61.84358246829652 152.46204081637552,61.80707885537413 153.06816326529952,61.78274310840061 156.14285714289872,61.673232198067126 157.77387755102245,61.89225393832021 161.48775510204723,63.924273618045845 167.350612244918,66.27262111396703 168.33142857142957,66.17528102059441 169.6648979592137,65.95626557790092 172.00122448982438,65.4208931401954 173.42285714286845,65.28704973011918 173.819591836771,65.10453579529712 174.05102040816564,65.05586537494673 176.96040816325694,64.88551877834834 177.46734693885082,64.90985401836224 177.86408163269516,64.89768639886461 178.76775510201696,64.84901591089147 179.08734693878796,64.97069210100744 180.36571428575553,64.89768639886461 181.60000000003492,64.66650143936567 182.19510204083053,64.59349558813847 182.77918367349776,64.77601014911488 183.23102040815866,64.62999851825589 184.17877551022684,64.43531612107472 184.66367346938932,64.30147182548535 185.0163265306619,64.03378287341911 185.71061224496225,63.4132293616276 186.5371428571525,62.82917663594708 186.8457142857369,62.4641425194568 186.7024489796604,61.40553852260928 186.75755102041876,59.896710626315325 186.8346938775503,59.519501263974234 186.73551020416198,59.470829018595396 186.79061224492034,58.75291155165178 186.79061224492034,57.80379501231073 186.9889795918716,56.80599930800963 186.91183673474006,56.307098948876956 186.17346938775154,56.307098948876956 186.14040816330817,56.07590065471595 186.31673469388625,56.08806899495539 186.0853061224916,56.07590065471595 186.18448979593813,55.7351867249381 185.89795918366872,55.248451187246246 185.96408163267188,55.1876091331942 185.9530612245435,55.19977754600404 185.7877551020938,55.04158810201625 185.68857142858906,54.81038784312841 185.54530612245435,55.005082821822725 185.42408163269283,54.00726836526883 185.38000000006286,53.76389797141019 185.41306122450624,54.32364928271272 185.4571428571362,53.8004035558406 185.42408163269283,53.78823502866726 185.41306122450624,54.652197985502426 185.42408163269283,53.77606650053349 185.42408163269283,53.751729441282805" stroke="#00AFAA" stroke-linecap="round" stroke-linejoin="round" stroke-width="1"><title>2025-09-22 16.6km</title><desc>15896554478</desc></polyline><polyline fill="none" points="38.17343173455447,147.0666503654793 38.63837638380937,145.81988172337878 39.50184501847252,147.3600074411952 42.22509225108661,147.94672130519757 44.74907749076374,148.6067739437567 44.616236162604764,149.8535387145239 44.81549815530889,150.2935729259625 44.94833948346786,151.24697964417282 44.549815498292446,153.08045125578064 44.48339483421296,154.5472258484806 43.88560885610059,156.30735219595954 43.686346863396466,157.26075252646115 43.752767527708784,158.80085861327825 43.8191881920211,162.174415093672 43.8191881920211,163.8611885792925 44.21771217742935,165.32794555544388 44.284132841508836,166.50134941091528 44.1512915128842,167.601414132223 46.94095940957777,167.3814012958319 49.53136531380005,167.16138840548228 49.53136531380005,168.04143964342074 49.92988929897547,168.9948275105562 52.38745387457311,168.77481501555303 55.177121771266684,169.7282021040446 56.43911439110525,169.2881774198613 59.49446494458243,169.21483995142626 60.75645756465383,169.36151488224277 63.413284132955596,168.18811476562405 64.07749077491462,167.2347260414972 63.61254612542689,165.40128334134351 63.34686346887611,164.00786438462092 62.94833948323503,162.98113324306905 63.147601476171985,161.2943581037107 63.34686346887611,159.97427100100322 63.87822878244333,160.047609224217 64.87453874549828,160.047609224217 65.47232472361065,159.75425629527308 66.60147601482458,159.9009327715612 66.93357933568768,159.75425629527308 65.80442804447375,159.9009327715612 64.07749077491462,159.9009327715612 62.94833948323503,159.75425629527308 62.48339483421296,159.60757979459595 62.35055350558832,157.7741215156857 62.68265682645142,156.08733659121208 62.35055350558832,154.91391912224935 62.48339483421296,153.52048388536787 62.549815498292446,150.2935729259625 62.549815498292446,148.09339971130248 62.35055350558832,146.1865785625996 62.41697416966781,144.86646924051456 62.48339483421296,143.91305574472062 62.35055350558832,142.66628272237722 62.284132841276005,140.6127704391256 62.74907749076374,140.17273148160893 62.81549815507606,138.11921349307522 62.08487084880471,137.53249320480973 61.28782287845388,137.53249320480973 61.28782287845388,136.28571131906938 60.75645756465383,135.2589484655182 56.17343173432164,136.50573177763727 55.177121771266684,136.65241205348866 52.98523985245265,136.57907191861887 51.39114391151816,136.7990923053585 49.464944649487734,137.0924527371535 47.671586715849116,137.6058332620305 44.284132841508836,137.75251335802022 43.487084871158004,138.19255350210005 42.889298893278465,138.19255350210005 42.15867158677429,137.67917331296485 40.43173431721516,138.04587347822962 39.50184501847252,138.11921349307522 38.37269372725859,138.11921349307522 37.04428044310771,138.70593339786865 35.64944649464451,138.3392335025128 35.18450184492394,137.82585339713842 32.39483394823037,137.53249320480973 30.800738007761538,137.6058332620305 30.601476014824584,136.57907191861887 30.933579335920513,135.99235062353546 30.933579335920513,134.3055247637676 30.800738007761538,133.79214235115796 30.46863468643278,133.1320788176963 29.738007380394265,131.22522588272113 29.937269372632727,130.2717978959554 20.040590406395495,137.23913291707868 22.830258302856237,135.478969175776 24.291512915166095,135.55230940046022 25.154981550062075,135.18560821650317 25.154981550062075,134.5988860107027 23.89298892999068,134.5255457079038 23.361623616423458,135.18560821650317 22.365313653135672,134.89224716165336 21.83394833956845,135.18560821650317 22.033210332272574,135.55230940046022 21.90036900364794,135.33228870813036 22.298892989289016,136.7990923053585 21.83394833956845,137.01911263813963 18.44649446522817,136.57907191861887 17.31734317354858,137.3124729981646 17.25092250923626,138.19255350210005 16.852398524060845,139.65935242478736 16.055350553942844,138.92595326318406 14.859778597950935,139.21931299980497 13.664206642191857,139.3659928322304 13.33210332132876,139.80603218544275 13.797047970583662,141.12614895036677 13.664206642191857,142.07956540642772 13.26568265678361,142.37292411236558 13.0,143.83971620316152 13.132841328624636,144.57311134960037 14.72693726955913,145.08648759580683 16.71955719566904,145.08648759580683 16.852398524060845,144.86646924051456 15.988929889397696,145.45318473450607 15.988929889397696,145.5998635481228 16.45387453888543,145.74654233752517 16.18819188210182,145.15982703550253 16.45387453888543,145.5998635481228 15.856088561238721,145.23316646931926 15.523985239909962,145.23316646931926 16.1217712177895,145.01314814999932 15.656826568301767,146.5532752518775 14.129151291912422,143.17966005892958 13.996309963287786,145.45318473450607 13.929889298975468,145.37984531873371 14.328413284383714,145.30650589679135 14.527675276622176,145.5998635481228 15.789667896926403,145.8932211031788 16.254612546181306,146.0398998449091 16.653136531589553,145.45318473450607 16.321033210493624,144.20641385152703 16.520295202964917,143.03298084979178 16.586715867510065,142.73962235992076 16.520295202964917,142.44626377371605 16.520295202964917,141.71286688937107 16.586715867510065,141.19948871375527 16.785977859981358,141.3461682224879 16.785977859981358,140.5394306279486 17.184501845156774,139.51267264044145 18.579335793387145,139.65935242478736 20.70479704812169,139.21931299980497 21.83394833956845,139.3659928322304 22.16605166043155,139.43933273933362 22.498154981760308,138.9992932062596 22.76383763854392,138.85261331417132 23.62730627320707,139.2926529190736 25.088560885749757,139.43933273933362 25.952029520180076,139.51267264044145 27.147601476171985,139.87937205651542 29.206642066594213,140.02605178102385 30.13653136533685,140.09939163416857 31.132841328624636,140.8327898370917 31.26568265678361,142.22624477162026 31.33210332132876,143.03298084979178 31.730627306504175,143.25299965462182 32.46125461277552,142.9596412362298 33.65682656830177,142.8129619912943 33.32472324743867,142.73962235992076 33.32472324743867,142.66628272237722 33.457564576063305,142.51960342930397 34.1217712177895,142.44626377371605 34.98523985245265,142.66628272237722 35.64944649464451,143.54635797673836 35.450184501940385,144.64645083143841 34.98523985245265,145.08648759580683 35.05166051653214,144.42643236822914 34.91881918837316,144.49977186205797 35.05166051653214,144.7931297767791 34.38745387480594,146.11323920678115 34.4538745386526,146.4065965943155 33.7896678969264,146.99331108137267 33.92250922508538,147.8000428751111 34.321033210493624,147.72670365101658 34.055350553710014,147.43334669515025 33.7896678969264,147.94672130519757 33.988929889397696,147.87338209303562 33.457564576063305,148.0200605111313 34.852398524060845,147.72670365101658 35.450184501940385,148.09339971130248 35.3837638378609,148.16673890524544 35.3837638378609,148.31341727543622 34.78597785998136,147.94672130519757 34.78597785998136,148.16673890524544 34.586715867277235,148.46009562152904 34.38745387480594,148.46009562152904 34.91881918837316,148.38675645156763 35.3837638378609,148.2400780932512 35.31734317354858,148.6067739437567 35.78228782280348,148.97346964426106 35.91512915142812,148.68011309573194 35.58302583033219,148.53343478572788 35.8487084871158,148.6067739437567 34.852398524060845,148.82679138198728 34.4538745386526,148.82679138198728 34.65313653135672,147.94672130519757 34.65313653135672,147.43334669515025 35.5166051662527,146.69995388569077 36.77859778609127,144.71979030722287 37.24354243534617,144.35309286869597 37.974169741850346,143.61969754251186 39.56826568278484,142.9596412362298 40.16605166043155,142.8129619912943 40.896678966935724,141.71286688937107 40.298892989056185,140.46609081048518 38.837638376280665,140.09939163416857 37.974169741850346,140.24607132270467 36.845018450403586,140.46609081048518 36.24723247252405,141.12614895036677 31.79704797035083,138.85261331417132 36.11439114413224,132.6186957337777 37.50922509212978,133.7188019824098 38.306273062713444,136.50573177763727 35.981549815740436,132.91205753199756 36.18081180821173,132.9853979665204 36.24723247252405,133.05873839516426 36.51291512930766,133.35210004937835 36.44649446522817,134.0855037656729 36.77859778609127,133.79214235115796 36.91143911425024,133.86548271385254 35.715867158956826,133.42544044804526 36.047970479819924,133.7188019824098 36.77859778609127,135.03892770106904 36.64575645769946,132.54535526933614 36.44649446522817,131.88529081863817 36.24723247252405,132.6920361922239 36.24723247252405,132.7653766446747 36.24723247252405,132.7653766446747 36.71217712224461,133.20541923417477 36.313653136603534,132.83871709136292 35.64944649464451,131.88529081863817 35.981549815740436,134.3055247637676 35.91512915142812,136.28571131906938 35.64944649464451,132.6920361922239 35.58302583033219,132.7653766446747 35.715867158956826,134.0121634210227 35.3837638378609,132.83871709136292 35.5166051662527,132.6920361922239 35.11808118107729,132.6920361922239 35.31734317354858,131.73860976373544 34.91881918837316,132.54535526933614 35.450184501940385,132.91205753199756 36.18081180821173,133.64546160784084 35.64944649464451,133.35210004937835 35.31734317354858,133.7188019824098 35.715867158956826,133.93882307049353 35.31734317354858,132.6186957337777 35.64944649464451,134.37886508461088 35.715867158956826,132.47201479866635 35.3837638378609,132.398674322234 35.58302583033219,132.10531235625967" stroke="#00AFAA" stroke-linecap="round" stroke-linejoin="round" stroke-width="1"><title>2025-09-19 5.2km</title><desc>15861009922</desc></polyline><polyline fill="none" points="103.03853294625878,140.57429190067342 102.17038067569956,145.28734372986946 100.9404982929118,145.686753857648 100.50642215786502,145.60687184508424 100.07234602235258,145.8465178628103 105.49829771229997,147.4441564803128 107.52398634282872,147.28439273603726 108.68152270326391,148.40273839753354 108.24744656821713,150.71930748422164 107.74102441035211,154.15421016386244 107.2346022524871,158.14826787210768 107.2346022524871,164.61860673234332 106.43879600474611,166.05645399732748 106.94521816261113,167.49429914774373 106.72818009462208,168.45286140678218 107.66867838753387,177.0 107.52398634282872,176.4408436844824 107.2346022524871,176.60060266434448 107.81337043270469,176.60060266434448 107.16225623013452,176.92012054601219 106.51114202756435,175.00301169068553 106.87287213979289,171.96758164907806 106.94521816261113,170.29010310943704 106.29410396004096,168.61262169171823 106.00471986969933,164.93812852958217 106.43879600474611,156.79029008210637 107.45164032001048,152.0772937068832 108.10275452304631,147.2045108541497 106.94521816261113,147.36427461140556 101.37457442795858,148.00332937965868 100.9404982929118,146.72521942557069 102.02568863052875,144.96781551017193 102.67680283309892,143.7695837568026 102.67680283309892,141.0535863447003 100.9404982929118,139.85534979356453 98.19134943699464,140.65417432418326 97.97431136900559,141.21335110720247 97.1785051212646,134.26355980191147 97.10615909891203,132.58601656730752 97.32319716643542,132.8256657771999 97.03381307655945,132.0268348493846 97.1785051212646,131.62741914059734 97.7572733014822,137.1393415069324 96.81677500903606,132.1067179714446 97.10615909891203,132.1067179714446 102.67680283309892,135.62156888347818 98.1190034141764,135.22215464367764 97.46788921160623,133.62449605204165 97.10615909891203,132.98543188424082 97.03381307655945,131.94695172080537 98.26369545934722,135.38192035921384 96.88912103138864,132.58601656730752 96.23800682881847,132.74578271369683 96.16566080600023,138.41746399359545 97.25085114408284,137.61863763531437 97.03381307655945,132.18660108715994 97.03381307655945,132.74578271369683 96.09331478364766,134.82274024066282 97.03381307655945,132.1067179714446 97.32319716643542,132.26648419635603 97.39554318925366,132.6658996436745 98.26369545934722,132.58601656730752 97.39554318925366,134.34344274143223 96.23800682881847,133.06531492812792 97.46788921160623,132.26648419635603 96.59973694151267,132.9055488340091 96.45504489634186,133.86414500733372 97.10615909891203,132.0268348493846 96.74442898621783,132.74578271369683 96.59973694151267,132.8256657771999 97.1785051212646,132.74578271369683 96.96146705374122,131.78718544379808 104.05137726152316,140.65417432418326 97.97431136900559,137.29910690896213 97.97431136900559,137.69852030050242 98.48073352733627,138.5772291868925 98.33604148216546,138.25769877410494 91.31847729673609,140.1748796843458 97.82961932430044,137.05945879610954 97.7572733014822,137.05945879610954 97.90196534665301,137.29910690896213 97.46788921160623,136.34051410411485 97.39554318925366,136.18074854521547 97.39554318925366,132.5061334844213 97.03381307655945,132.58601656730752 97.32319716643542,134.02391094475752 97.03381307655945,132.1067179714446 97.03381307655945,136.1008657560451 97.1785051212646,132.18660108715994 97.10615909891203,132.0268348493846 97.10615909891203,132.0268348493846 97.10615909891203,132.18660108715994 96.96146705374122,131.94695172080537 96.67208296339959,131.38776963739656 96.67208296339959,132.9055488340091 98.77011761674657,132.4262503950158 98.48073352733627,131.38776963739656 97.68492727959529,132.26648419635603 97.10615909891203,131.14812007488217 100.65111420257017,135.94110015797196 98.77011761674657,133.86414500733372 96.67208296339959,131.62741914059734 97.03381307655945,131.94695172080537 96.96146705374122,131.94695172080537 96.96146705374122,131.78718544379808 97.25085114408284,131.06823687447468 97.10615909891203,132.0268348493846 99.56592386495322,139.53581979859155 96.31035285117105,136.6600451435661 96.59973694151267,132.1067179714446 96.74442898621783,131.86706858570687 97.1785051212646,131.22800326894503 98.69777159485966,135.94110015797196 97.32319716643542,130.58893753454322 97.10615909891203,131.94695172080537 96.96146705374122,131.94695172080537 97.61258125677705,132.1067179714446 97.1785051212646,131.62741914059734 96.96146705374122,132.0268348493846 97.61258125677705,131.62741914059734 97.10615909891203,130.82858723390382 96.59973694151267,132.26648419635603 98.40838750451803,136.42039687390206 98.33604148216546,137.7784029590548 97.03381307655945,132.0268348493846 97.03381307655945,132.0268348493846 96.81677500903606,132.5061334844213 96.81677500903606,132.26648419635603 97.1785051212646,131.307886456314 97.32319716643542,131.4676528116106 97.46788921160623,132.26648419635603 96.88912103138864,132.1067179714446 97.03381307655945,132.1067179714446 97.25085114408284,131.06823687447468 97.1785051212646,132.0268348493846 97.10615909891203,131.70730229566107 97.10615909891203,132.0268348493846 97.1785051212646,131.4676528116106 97.61258125677705,130.82858723390382 97.25085114408284,130.9883536674315 97.25085114408284,131.4676528116106 96.88912103138864,132.1067179714446 97.25085114408284,131.06823687447468 97.68492727959529,131.86706858570687 97.10615909891203,131.4676528116106 96.81677500903606,132.0268348493846 97.25085114408284,131.06823687447468 97.1785051212646,131.4676528116106 96.88912103138864,132.1067179714446 97.10615909891203,132.0268348493846 96.67208296339959,132.18660108715994 97.25085114408284,131.38776963739656 97.1785051212646,131.5475359793636 96.88912103138864,132.0268348493846 97.10615909891203,132.0268348493846 97.10615909891203,132.1067179714446 96.96146705374122,131.86706858570687 97.25085114408284,131.307886456314 98.26369545934722,132.6658996436745 97.10615909891203,132.0268348493846 96.96146705374122,132.0268348493846 97.03381307655945,132.18660108715994 97.54023523442447,130.2694045107928 97.25085114408284,131.06823687447468 97.1785051212646,131.307886456314 97.46788921160623,131.62741914059734 97.10615909891203,132.1067179714446 97.25085114408284,131.06823687447468 97.25085114408284,131.4676528116106 97.46788921160623,135.94110015797196 97.10615909891203,132.1067179714446 97.10615909891203,132.0268348493846 97.32319716643542,131.94695172080537 96.74442898621783,132.74578271369683 96.59973694151267,134.26355980191147 97.61258125677705,131.14812007488217 97.03381307655945,131.78718544379808 97.03381307655945,131.86706858570687 98.26369545934722,132.58601656730752 97.10615909891203,132.1067179714446 97.10615909891203,132.0268348493846 97.90196534665301,132.74578271369683 96.81677500903606,133.30496402055724 97.10615909891203,132.26648419635603 97.10615909891203,132.1067179714446 97.61258125677705,131.70730229566107 97.10615909891203,132.1067179714446 97.10615909891203,131.307886456314 99.20419375225902,135.94110015797196 97.10615909891203,132.0268348493846 97.54023523442447,133.06531492812792 96.88912103138864,132.1067179714446 97.03381307655945,131.4676528116106 97.03381307655945,131.38776963739656 97.39554318925366,131.4676528116106 97.03381307655945,131.38776963739656 97.1785051212646,131.4676528116106 97.1785051212646,132.0268348493846 97.03381307655945,131.94695172080537 97.32319716643542,132.6658996436745 97.61258125677705,131.06823687447468 97.03381307655945,131.4676528116106 97.32319716643542,131.14812007488217 97.32319716643542,133.22508099622792 97.10615909891203,132.1067179714446 96.96146705374122,131.86706858570687 97.03381307655945,131.307886456314 96.81677500903606,132.5061334844213 97.10615909891203,132.0268348493846 96.96146705374122,132.1067179714446 97.10615909891203,132.0268348493846 96.88912103138864,132.1067179714446 97.39554318925366,136.58016239356948 97.03381307655945,132.0268348493846 97.1785051212646,131.94695172080537 97.10615909891203,132.0268348493846 97.10615909891203,131.86706858570687 97.46788921160623,133.38484703819267 97.1785051212646,131.78718544379808 97.1785051212646,131.86706858570687 97.1785051212646,131.78718544379808 96.81677500903606,131.94695172080537 97.10615909891203,132.18660108715994 97.10615909891203,132.0268348493846 97.1785051212646,132.18660108715994 97.03381307655945,131.307886456314 97.1785051212646,131.70730229566107 97.10615909891203,132.0268348493846 97.10615909891203,132.0268348493846 97.10615909891203,132.0268348493846 97.03381307655945,131.94695172080537 99.85530795482919,137.53875496349065 97.03381307655945,131.94695172080537 97.10615909891203,132.1067179714446 96.88912103138864,132.1067179714446 97.10615909891203,131.78718544379808 97.1785051212646,131.78718544379808 96.88912103138864,131.78718544379808 97.1785051212646,131.62741914059734 97.03381307655945,131.62741914059734 97.10615909891203,131.70730229566107 96.81677500903606,131.5475359793636 97.03381307655945,131.5475359793636 97.10615909891203,131.38776963739656 97.25085114408284,131.4676528116106 97.39554318925366,131.78718544379808 97.1785051212646,131.62741914059734 97.1785051212646,131.62741914059734 97.03381307655945,131.94695172080537 96.52739091869444,132.98543188424082 97.10615909891203,132.0268348493846 97.10615909891203,132.0268348493846" stroke="#00AFAA" stroke-linecap="round" stroke-linejoin="round" stroke-width="1"><title>2025-09-18 11.3km</title><desc>15852837758</desc></polyline><polyline fill="none" points="135.4537762456457,160.95950087082747 135.97837668441935,160.92213020105555 136.62143528665183,161.09029816689144 136.63835788151482,160.56710853365075 136.55374490754912,159.3151856236218 137.9583202758222,158.8480484536267 138.63522406766424,158.77330641778826 140.0397994359373,158.5677656935295 140.64901284861844,158.60513674805406 141.08900031336816,157.35320309645613 141.63052334694657,155.46594687597826 142.01974302722374,154.3261113165645 142.18896897521336,153.8963357781031 142.71356941392878,152.79386439824884 142.95048574107932,151.65401551791 143.03509871510323,150.47678857787105 143.77969288622262,149.8601434758457 144.30429332493804,149.80408474781143 145.641178313992,149.63590848099557 145.55656533996807,149.50510463234968 145.8950172359473,149.43035954245715 147.01190849259729,149.1687515351805 148.39956126600737,148.83239794315887 149.12723284232197,148.81371161801508 149.63491068629082,148.79502529128513 150.41335004696157,148.75765263331414 152.54559699149104,149.3743007089215 153.37480413657613,149.63590848099557 155.37167032272555,150.30861280593672 156.45471638976596,150.47678857787105 157.09777499217307,150.1030644721759 159.60231902223313,147.28142775592278 161.51457223435864,146.14155139197828 162.15763083670754,145.7678201993549 163.05452836101176,145.3940883957548 163.61297398927854,145.28196873552224 164.52679410844576,145.09510251297615 166.8621121905744,145.35671518184245 168.02977123152232,145.30065534940513 168.57129426510073,145.22590888480772 170.11125039169565,145.20722226487123 171.65120651829056,145.11378914213856 172.14196176745463,145.13247576972935 173.03885929175885,145.03904261643765 175.06957066751784,144.92692278207687 175.84801002813037,145.1511623957631 177.21874020679388,145.1511623957631 179.14791601378238,145.28196873552224 179.65559385775123,145.37540178955533 179.90943277964834,145.41277500042634 180.09558132244274,144.9082361376495 180.01096834847704,144.34763609524816 180.1294265120523,143.41329963610042 180.36634283920284,141.7314843861095 180.38326543400763,140.96532000308798 180.73863992479164,139.82541214412777 180.89094327791827,139.43298353305727 181.1447821999318,139.227425420293 181.36477593233576,139.30217384632851 181.56784706993494,139.3395480501349 181.73707301780814,139.39560934448673 182.12629269820172,139.43298353305727 183.0570354121155,139.76935095523368 183.36164211842697,139.60116730601294 183.158570980886,139.65722853614716 183.20933876524214,139.82541214412777 183.49702287686523,139.84409920407052 184.56314634910086,139.84409920407052 184.93544343468966,140.23652710930037 185.39235349418595,140.34864924421709 185.7984957693261,140.27390116036986 185.9846443121205,139.69460268196417 185.86618614854524,139.1153027354303 186.5600125353085,138.72287290520035 186.7292384832399,138.7602472037688 187.0,138.5733756497939 186.94923221558565,138.5733756497939 186.79692886240082,138.59206281208026 186.7123158884351,138.64812428971345 186.10310247575399,138.83499578254123 185.84926355374046,139.47035771547235 185.32466311502503,139.6385414609831 184.95236602943623,139.50773189189204 184.7154497022857,139.50773189189204 184.74929489189526,139.5451060620835 184.74929489189526,139.3395480501349 184.73237229709048,139.50773189189204 184.19084926351206,139.60116730601294 183.5308680664166,139.2647996363521 182.63397054211237,139.52641897775175 182.19398307736265,139.45167062502878 181.53400188020896,139.30217384632851 181.2293951739557,139.28348674208974 181.2463177687605,139.3208609489957 181.02632403635653,139.50773189189204 180.8740206831717,140.16177898879687 180.4001880288124,140.92794606504322 180.09558132244274,142.64714089001063 179.80789721087785,144.08602227164374 179.60482607327867,144.9082361376495 178.92792228137841,145.11378914213856 177.67565026629018,145.26328212015505 176.67721717327368,145.28196873552224 175.44186775304843,144.83348954479152 173.24193042929983,144.8895494917233 170.92353494197596,145.00166934443405 169.63741773739457,145.1511623957631 169.48511438415153,145.076415882344 168.7743654026999,145.35671518184245 168.2497649639845,145.41277500042634 167.75900971482042,145.16984902034164 166.65904105297523,145.1885356433777 166.08367282984545,145.00166934443405 166.1175180193968,145.3380285725434 165.98213726107497,145.3940883957548 165.4067690379452,145.28196873552224 164.42525853961706,145.35671518184245 164.23910999688087,145.22590888480772 163.42682544660056,145.5062080010248 162.81761203386122,145.80519334611017 162.0222500783275,146.1041783001856 161.76841115637217,146.2162975571846 161.39611407084158,146.365789814241 160.58382952056127,146.87032546022965 160.31306800380116,147.07587670051726 160.0761516765342,147.35617354843998 159.29771231592167,148.0288845813775 158.82387966150418,148.45867114946304 157.91005954245338,149.39298698831408 156.96239423379302,150.30861280593672 156.20087746786885,150.55153332570626 155.21936696959892,150.3833576087345 154.74553431529785,150.140436910282 153.79786900652107,149.87882971551153 153.01942964585032,149.6732809953828 152.6809777499875,149.5985359604092 152.42713882797398,150.06569202803075 151.91946098400513,151.9156206813932 151.73331244121073,152.77517839688517 151.53024130361155,153.33575777467922 151.25947978690965,154.19531015121902 150.97179567534477,154.51296999439364 150.68411156377988,154.66245682668523 150.4810404261807,154.75588604727818 150.07489815104054,154.79325772478478 149.92259479791392,154.19531015121902 149.85490441863658,153.16758410565672 149.7533688498661,153.57867507818446 148.4672516452265,153.6721047416504 146.92729551863158,153.59736101396265 145.92886242561508,153.59736101396265 144.93042933248216,153.80290620628512 143.64431212778436,154.15793837601086 143.50893136952072,154.27005368344544 143.2381698526442,154.5316558538325 142.8827953619184,154.71851436364523 142.2397367596277,155.9891481808154 141.8843622688437,156.8673762512626 141.64744594163494,158.43696695454128 141.19053588219685,159.1096453864302 141.00438733934425,158.71724987500056 140.42901911615627,158.82936294695537 139.37981823872542,158.8480484536267 138.61830147285946,158.9414759639185 137.5691005954286,159.20307278988184 136.79066123464145,159.20307278988184 136.53682231268613,159.3338710906246 136.58759009710047,160.7165914081852 136.43528674391564,161.22109538815857 135.80915073637152,161.33320723261568 135.16609213408083,161.52006018445536 134.89533061732072,161.4826896062732 135.06455656531034,161.12766880916024 135.3691632716218,160.75396211148473 135.2845502976561,160.5857938983536 134.96302099653985,160.54842316750728 134.9968661860912,160.09997392112564 135.13224694447126,160.09997392112564 134.9968661860912,159.72626554395538 134.89533061732072,159.55809657493955 134.81071764335502,159.70758010903955 134.57380131620448,159.8010072682082 134.35380758385872,159.96917605859926 134.1845816358109,159.72626554395538 134.35380758385872,159.61415291170124 134.15073644620134,159.95049064353225 134.06612347223563,157.7456009486341 134.0830460670404,157.54005930050334 134.0999686619034,157.55874491248687 134.0999686619034,157.5961161319865 134.23534942022525,157.95114241195552 134.1845816358109,158.0632558595389 134.06612347223563,157.5961161319865 134.0830460670404,157.54005930050334 134.06612347223563,157.55874491248687 134.13381385145476,157.52137368699186 134.0830460670404,157.61480173940072 134.53995612659492,158.60513674805406 134.0830460670404,157.55874491248687 134.0153556878795,158.04457028878096 134.0830460670404,157.98851356729574 133.87997492944123,158.3435392380925 134.06612347223563,157.57743052300066 134.03227828262607,157.52137368699186 134.04920087748906,157.54005930050334 134.06612347223563,157.52137368699186 134.04920087748906,157.54005930050334 133.84612973988988,157.7456009486341 134.0830460670404,157.50268807195243 134.04920087748906,157.61480173940072 134.0999686619034,157.55874491248687 134.0999686619034,157.40925997370505 134.11689125659177,157.67085855249024 134.06612347223563,157.54005930050334 134.0830460670404,157.55874491248687 134.06612347223563,157.55874491248687 134.0830460670404,157.48400245532684 134.06612347223563,157.52137368699186" stroke="#00AFAA" stroke-linecap="round" stroke-linejoin="round" stroke-width="1"><title>2025-09-17 10.4km</title><desc>15841686234</desc></polyline><polyline fill="none" points="17.171926006441936,237.76175630069338 16.96626768214628,238.24835682517732 16.731229597353376,238.79983669839567 16.907508161035366,239.221556084638 16.78998911846429,240.29207251479966 16.760609358083457,240.194752958545 16.731229597353376,240.6164708630822 16.554951033671387,241.5896643178712 16.378672469989397,242.17357924568933 16.46681175183039,243.2116481080593 16.496191512560472,243.86043976873043 16.701849836623296,244.638988362276 16.2905331881484,245.41753542920924 16.261153427534737,245.969005344552 16.34929270937573,246.39071711612632 17.34820457024034,246.55291383201256 18.61153427627869,246.45559581037378 19.22850924904924,246.4880351535976 20.080522306845523,246.45559581037378 20.726877040113322,246.61779249983374 21.549510337295942,246.6502318297571 22.04896626761183,246.71511048165848 23.018498367629945,246.6502318297571 23.517954298178665,246.55291383201256 23.57671381928958,247.03950358214206 23.517954298178665,247.33145714609418 23.72361262224149,247.33145714609418 24.3993471164722,247.29901787175913 24.605005440535024,247.68828898813808 25.016322089126334,248.66146510947146 25.10446137096733,248.85610004753107 25.075081610353664,248.75878259039018 25.251360174035653,248.9534174806613 25.545157780055888,249.14805227561737 25.750816104351543,249.21293051939574 25.603917301399633,249.3426869751711 25.780195865081623,249.50488248519832 26.749727965099737,249.3426869751711 27.043525571236387,248.5641476046294 27.161044613691047,248.5641476046294 27.190424374304712,248.53170843111002 28.336235038004816,247.91536362984334 29.15886833507102,247.5585319917882 29.59956474415958,247.49365347769344 29.57018498366233,247.10438217045157 29.77584330784157,246.42315646455972 30.392818280728534,244.80118579385453 31.009793253499083,244.2821537797572 31.861806311178952,244.6065488680906 32.71381936885882,244.9958226242161 33.418933623470366,245.4499748572416 34.858541893190704,246.6502318297571 35.47551686607767,247.20170003309613 35.974972796509974,247.3963356866734 36.18063112068921,247.85048517398536 36.73884657234885,247.20170003309613 37.15016322082374,246.7475498036656 37.41458106634673,246.22852033388335 37.79651795420796,245.5148537052155 38.35473340598401,245.41753542920924 38.35473340598401,245.54729312530253 38.7660500544589,246.1636416024703 39.177366702933796,245.80680839015986 39.735582154477015,245.48241428256733 40.058759521110915,245.5148537052155 40.763873775838874,244.89850422090967 41.7334058759734,244.54166987162898 42.29162132763304,244.2172747302684 42.87921653967351,243.4062857175595 43.67247007612605,242.7574933146534 44.348204570123926,242.3357776843186 44.73014145810157,242.10869985155296 45.347116430988535,241.65454379664152 45.934711643029004,241.10306788867456 46.75734494009521,240.6164708630822 47.55059847666416,239.93523402535357 48.22633297054563,239.61083512043115 49.60718171915505,239.0917963211832 51.22306855279021,238.57275684335036 53.01523395010736,237.76175630069338 54.39608269860037,237.27515518004657 55.2774755168939,237.08051456470275 55.68879216548521,236.78855346294586 56.92274211102631,236.59391260906705 57.569096844410524,236.56147245742613 58.71490750834346,236.20463061510236 59.4787812839495,235.88022866178653 60.53645266604144,234.55017788219266 61.00652883586008,234.12845353380544 62.44613710558042,232.44155166044948 63.32752992387395,231.69541969918646 64.3558215451194,231.27369231829653 65.00217627862003,231.1763705513731 65.85418933618348,231.01416755342507 66.23612622427754,230.55999880674062 66.91186071827542,230.55999880674062 67.0,230.88440510738292 66.85310119693168,231.7603007949656 66.64744287275244,231.9225034880219 66.61806311213877,231.7603007949656 66.5886833515251,231.82518188020913 66.70620239397977,231.7278602484439 66.2655059848912,231.53321691340534 66.50054406968411,231.3385734829062 66.20674646354746,231.3061329019256 66.05984766059555,231.3710140613257 65.85418933618348,231.56565747581772 65.94232861802448,231.5007763483154 65.50163220893592,231.56565747581772 48.93144722527359,238.89715659656213 47.57997823739424,240.06499351322418 47.57997823739424,240.16231310120202 47.31556039187126,240.29207251479966 46.169749727938324,240.84354954923037 45.112078346079215,241.62210405856604 43.76060935796704,242.62773470694083 43.05549510347191,243.14676888365648 42.84983677905984,243.63336280806107 42.32100108801387,244.02263751835562 42.35038084874395,243.9901979737042 40.17627856368199,245.06070154637564 39.85310119704809,245.38509599861572 39.383025027113035,245.80680839015986 38.442872687825,245.48241428256733 38.03155603900086,245.38509599861572 37.73775843309704,245.5148537052155 37.53210010880139,245.64461136958562 37.53210010880139,246.1312022327911 37.50272034818772,246.03388410789194 37.2676822632784,246.4880351535976 36.9445048966445,246.81242843958898 36.29815016326029,247.33145714609418 36.03373231762089,247.3963356866734 35.68117519048974,247.36389641766436 35.093579978332855,246.87730706500588 34.035908596240915,246.03388410789194 32.39064200210851,244.93094369128812 31.568008705042303,244.34703281868133 31.039173014112748,243.9901979737042 30.510337323183194,243.69824195306865 29.863982589682564,243.5360440709337 28.42437431984581,243.5684836526052 27.48422198044136,243.43872530991212 26.955386289395392,243.5360440709337 26.220892274170183,243.34140652496717 24.663764961762354,243.37384612261667 24.36996735574212,243.79556065044017 24.516866158810444,244.7363068292034 24.75190424360335,245.38509599861572 24.78128400433343,246.29339905478992 24.898803046671674,246.7475498036656 25.075081610353664,247.29901787175913 25.33949945587665,247.85048517398536 25.6332970620133,248.49926925479667 25.69205658324063,248.4668300760095 25.574537540669553,248.66146510947146 25.368879216490313,248.59658677555854 25.28073993464932,248.49926925479667 24.810663764947094,248.1424381416 24.722524483222514,247.49365347769344 24.54624591942411,247.1692607482546 23.72361262224149,247.2341393151728 23.371055494993925,247.03950358214206 22.812840043450706,247.00706428402918 21.931447225273587,247.10438217045157 21.549510337295942,246.6502318297571 20.433079434093088,246.6826711569738 19.28726877027657,246.81242843958898 17.906420021667145,246.4880351535976 17.46572361246217,246.52047449417296 16.34929270937573,246.42315646455972 16.319912948878482,245.90412657085108 16.378672469989397,245.5148537052155 16.584330794401467,245.2228988056595 16.760609358083457,244.80118579385453 16.81936887919437,244.44435135708773 16.6137105547823,243.69824195306865 16.64309031551238,243.69824195306865 16.6137105547823,243.27652732186834 16.6137105547823,242.66017436276888 16.6137105547823,242.10869985155296 16.78998911846429,241.2003872221685 16.84874863969162,240.06499351322418 16.9368879214162,238.86471663313569 16.731229597353376,238.70251677642227 16.437431991216727,238.60519683055463 16.525571272941306,238.08615671657026 16.2905331881484,237.79419635428349 15.350380848743953,237.95639658204163 15.174102284945548,238.08615671657026 14.116430903086439,238.08615671657026 14.057671381859109,238.0212766545883 13.998911860748194,237.79419635428349 14.498367790947668,237.08051456470275 14.527747551561333,236.20463061510236 14.792165397084318,234.84214063017862 14.527747551561333,234.55017788219266 13.528835690813139,234.6150585114665 13.235038084792905,234.80970033540507 13.20565832417924,235.06922261902946 13.235038084792905,234.84214063017862" stroke="#00AFAA" stroke-linecap="round" stroke-linejoin="round" stroke-width="1"><title>2025-09-16 5.0km</title><desc>15826448404</desc></polyline><polyline fill="none" points="109.60700642259326,218.19258680433268 109.37186990177725,218.6747525651299 109.64059735415503,218.19258680433268 109.33827897033188,218.60057325073285 109.23750617553014,219.82453038950916 109.03596058650874,220.71467896306422 109.13673338096123,221.19684204494115 109.06955151783768,222.1982560400793 109.10314244951587,222.56914955173852 109.06955151783768,222.86586414289195 109.23750617553014,223.60764977231156 109.13673338096123,223.941452910105 108.83441499713808,224.16398819885217 108.6664603393292,224.42361256459844 108.59927847620565,224.9057717070682 108.80082406545989,225.38793033745605 108.76723313389812,225.7217321662465 108.63286940765101,225.8700884557329 108.43132381851319,225.94426658231532 108.33055102382787,226.2038899298932 108.36414195538964,226.6860471815162 108.46491474995855,226.87149214194505 108.36414195538964,227.98416031364468 108.19618729769718,228.76302641120856 108.26336916070431,229.87568994695903 108.19618729769718,231.1367053242284 108.22977822914254,232.657336855802 108.36414195538964,233.17657572441385 108.33055102382787,233.51037182641448 108.43132381851319,233.91834450667375 108.397732886835,234.1037865128601 108.49850568152033,234.28922844334738 108.46491474995855,234.54884701877018 108.59927847620565,235.32770185402478 108.56568754464388,235.58731983561302 108.33055102382787,235.8469376686844 104.90427600604016,238.07222729115165 104.23245737503748,238.55437193842954 103.96372992242686,238.81398807489313 103.76218433340546,238.8881640865293 103.49345688091125,238.92525208790903 103.32550222310238,238.9994280814135 103.22472942864988,239.1848680122639 103.02318383927923,239.22195598937105 102.98959290771745,239.5557476466638 103.15754756552633,239.8524511361611 103.22472942864988,240.2975060067547 103.39268408634234,240.7425604411983 103.39268408634234,240.9650874947838 103.29191129165702,241.11343880317872 103.02318383927923,241.22470225280267 102.45213800284546,241.2988778706058 102.14981961902231,241.44722907006508 101.31004633021075,241.4843168623629 101.04131887794938,241.59558022097917 100.70540956244804,241.59558022097917 100.20154558913782,241.81810685645905 99.46254509536084,241.96645788633032 99.02586298505776,242.11480886753998 98.38763528573327,242.18898433999857 97.51427106547635,242.07772112669772 97.27913454454392,242.30024752597092 97.14477081841324,242.6711246157065 97.21195268153679,243.7466664626263 97.37990733911283,244.00627963014995 97.71581665473059,244.1546299449983 97.85018038074486,244.45133042920497 97.61504386016168,244.7109431938734 97.58145292848349,244.89638079199358 97.74940758629236,245.415605663904 97.85018038074486,245.415605663904 97.37990733911283,245.56395551824244 97.3127254761057,245.74939276798978 97.54786199692171,247.30706267632195 97.54786199692171,247.75211024002056 97.48068013379816,248.01172111742198 97.54786199692171,248.3455063131987 97.48068013379816,248.64220405888045 97.54786199692171,249.5322961329366 97.37990733911283,250.57073468074668 97.41349827079102,251.201214069064 97.27913454454392,251.42373599702842 97.24554361298215,251.6091708538588 97.3127254761057,252.05421420099447 97.21195268153679,252.499257111951 97.3127254761057,252.83303900895407 97.24554361298215,253.315167982626 97.3127254761057,253.94564356040792 97.3127254761057,254.46485808482976 97.41349827079102,255.2065920898749 97.3127254761057,255.65163191131433 97.37990733911283,256.31919082571403 97.41349827079102,258.17351599462563 97.24554361298215,258.729812068661 97.3127254761057,259.47153910741326 97.27913454454392,260.02783359150635 97.37990733911283,260.4728686880553 97.3127254761057,261.14042051532306 97.41349827079102,261.8079713610641 97.44708920246921,262.6609515695309 97.1783617498586,264.18147753266385 97.3127254761057,264.3669071799668 97.34631640778389,264.7377662472427 97.54786199692171,264.886109789426 97.44708920246921,265.92451322762645 96.13704287190922,265.92451322762645 94.69263281533495,266.4066283025604 94.22235977370292,266.4066283025604 94.15517791069578,266.4066283025604 94.2559507052647,266.3695425458136 94.15517791069578,266.3324567859818 93.95363232132513,266.44371405642596 93.7520867320709,266.62914277997334 93.28181369032245,266.81457142785075 92.00535829144064,267.0 91.87099456542637,266.88874286576174 91.77022177074105,266.29537102306494 91.60226711293217,266.0357705981005 91.16558500286192,265.4794834734348 91.06481220817659,265.4423976408143 90.89685755048413,265.5165693029994 90.86326661880594,265.4794834734348 91.09840313985478,265.4423976408143 91.29994872910902,265.0344532831223 92.54281319642905,264.77485213737236 92.3412676070584,264.92319566733204 92.40844947006553,264.7377662472427 92.3412676070584,264.58942265674705 91.50149431847967,264.2927353301784 91.36713059211615,264.32982125660055 91.16558500286192,264.25564940072945 91.66944897617213,264.5152508432802 91.66944897617213,264.6265085588966 91.60226711293217,264.7006803540862 91.77022177074105,264.6265085588966 91.83740363374818,264.4410790175607 92.03894922311883,264.47816493193386 91.43431245512329,264.32982125660055 91.09840313985478,264.18147753266385 90.35940264584497,260.58412739404594 90.4265845088521,260.9179033485998 90.59453916654456,260.84373093533213 90.62813009810634,260.62121362335165 90.56094823486637,260.4728686880553 90.52735730353743,260.4728686880553 90.49376637185924,260.62121362335165 90.56094823486637,260.6953860728536 90.49376637185924,261.25167905760463 90.59453916654456,261.3258514041372 90.66172102966812,260.7695585102192 91.16558500286192,259.9536610329815 91.06481220817659,260.10200613792404 91.16558500286192,260.8066447243036 91.06481220817659,260.6953860728536 91.83740363374818,260.6953860728536 92.30767667538021,259.9536610329815 92.10613108624239,260.3616099548235 92.24049481237307,260.2503511942632 92.30767667538021,260.324523704272 91.66944897617213,260.99207574952743 91.43431245512329,261.1033343283925 91.23276686586905,261.02916194553836 91.16558500286192,261.25167905760463 91.16558500286192,260.7324722929916 91.63585804461036,260.8066447243036 91.3335396606708,260.4357824467297 91.16558500286192,260.10200613792404 91.23276686586905,260.324523704272 91.16558500286192,260.1761786721763 91.23276686586905,260.2503511942632 91.16558500286192,260.2874374508392 91.13199407130014,260.2132649347186 91.16558500286192,260.4357824467297 91.43431245512329,260.3616099548235 91.63585804461036,260.4728686880553 91.53508524980862,260.54704116177163 91.50149431847967,260.65829984965967 91.53508524980862,261.4741960607935 93.44976834801491,262.9205539236136 93.14744996419176,262.88346788217314 93.28181369032245,262.84638183758943 93.44976834801491,262.9205539236136 93.81926859507803,262.6609515695309 93.92004138976336,262.6609515695309 91.56867618148681,262.1046603109862 91.56867618148681,261.9934019774373 91.63585804461036,261.9934019774373 91.80381270230282,262.29009080617107 91.83740363374818,262.5496933722752 91.9717673601117,262.69803762913216 92.17331294936594,262.80929578997893 92.44204040174372,262.69803762913216 91.16558500286192,263.92187589930836 91.13199407130014,264.0331337604439 91.19917593442369,264.1073056526657 90.9304484820459,263.88478993973695 90.76249382435344,263.5881021527457 91.03122127684765,263.14307010910125 91.09840313985478,263.10598408570513 91.29994872910902,263.18015612932504 91.16558500286192,264.9973674142675 91.3335396606708,264.9973674142675 91.53508524980862,264.81193802441703 91.43431245512329,264.9602815423277 91.09840313985478,264.9602815423277 90.82967568736058,265.29405428047176 90.86326661880594,265.2569684328337 91.16558500286192,265.36822596675484 91.7030399076175,265.2198825820815 92.03894922311883,264.9973674142675 92.74435878556687,264.77485213737236 92.77794971724506,264.7006803540862 92.74435878556687,264.47816493193386 92.84513158036862,264.3669071799668 93.2146318271989,264.2927353301784 93.61772300582379,264.0331337604439 93.7520867320709,263.69936009545927 93.78567766363267,262.77220973942894 93.68490486894734,262.32717689606943 93.65131393738557,260.3986962023482 93.65131393738557,260.2503511942632 93.44976834801491,259.9536610329815 93.4833592796931,259.65697067792644 93.65131393738557,259.47153910741326 93.95363232132513,259.3602801288944 94.42390536295716,259.39736645808443 94.72622374689672,259.3231937965902 94.79340561013669,259.2490211229888 94.82699654158205,259.02650302957045 94.72622374689672,257.9509973741078 94.72622374689672,257.06092180189444 94.82699654158205,256.133757892414 94.79340561013669,255.98541149118682 94.82699654158205,255.6145452761266 94.72622374689672,254.5761182628048 94.82699654158205,253.50060206695343 94.79340561013669,250.7561698858044 94.72622374689672,250.05151570370072 94.82699654158205,249.5322961329366 94.79340561013669,249.05016314264503 94.89417840458918,248.30841908129514 94.89417840458918,246.3427914583881 94.86058747314382,245.56395551824244 94.65904188388959,245.11890580982435 94.42390536295716,244.89638079199358 94.3903144315118,244.74803071955102 94.49108722608071,244.59968059856328 94.72622374689672,244.41424287925474 94.89417840458918,244.1546299449983 94.89417840458918,243.0790890644421 94.99495119927451,242.74529999727383 94.82699654158205,242.22607207173132 94.42390536295716,241.70684355247067 94.42390536295716,241.55849243773264 94.49108722608071,241.4843168623629 94.65904188388959,241.4843168623629 94.7598146784585,241.59558022097917 94.7598146784585,241.66975577830453 94.65904188388959,241.70684355247067 94.49108722608071,241.4843168623629 94.52467815764248,241.26179006323218 94.05440511601046,241.0763509805838 94.08799604745582,241.11343880317872 94.05440511601046,240.9279996600526 94.18876884225756,240.7425604411983 94.22235977370292,240.5571211464994 94.1215869790176,240.40876965635107 93.92004138976336,240.26041811759933 93.78567766363267,240.1120665303606 94.05440511601046,240.2975060067547 94.08799604745582,240.37168177613057 94.05440511601046,240.48294540750794 93.81926859507803,240.7425604411983 93.81926859507803,240.8909118223528 93.92004138976336,240.9650874947838 94.15517791069578,240.9650874947838 94.45749629463535,241.18761443928815 94.59186002076603,241.18761443928815 94.86058747314382,241.00217532643 94.7598146784585,240.48294540750794 94.72622374689672,239.70409941565595 94.79340561013669,239.29613193450496 94.7598146784585,238.62854799246998 94.82699654158205,237.40464154959773 94.79340561013669,236.32908467913512 94.89417840458918,235.21643695933744 94.82699654158205,234.06669811770553 94.89417840458918,233.62163713917835 94.79340561013669,232.39771719876444 94.89417840458918,231.65594593205606 94.72622374689672,231.1367053242284 94.72622374689672,230.28366589345387 94.89417840458918,229.61606869922252 94.86058747314382,227.79871580773033 94.92776933626737,227.4649155063089 95.0285421309527,227.35364868454053 95.29726958321407,227.31655973786837 95.49881517258473,227.24238183547277 96.23781566659454,227.31655973786837 97.1783617498586,227.20529287983663 97.27913454454392,227.0198480556719 97.14477081841324,226.4264241096971 97.11117988685146,225.7588212431583 97.34631640778389,225.31375211992417 97.14477081841324,225.01703912881203 97.14477081841324,224.05272056811373 97.11117988685146,223.8672744562209 97.1783617498586,223.57056051961263 97.1783617498586,222.75459619401954 97.11117988685146,222.56914955173852 97.11117988685146,220.788857932057 97.14477081841324,220.41796296578832 97.11117988685146,219.9357990565768 97.14477081841324,219.5278138104477 97.24554361298215,219.45363463528338 97.11117988685146,219.2681866446801 97.07758895528968,218.82311115777702 97.11117988685146,218.48930425624712 97.04399802384432,218.19258680433268 97.07758895528968,217.52497182862135 97.01040709216613,216.37518817966338 97.07758895528968,216.07846934581175 97.04399802384432,215.03995190016576 97.14477081841324,214.96577199161402 97.37990733911283,215.0028619474324 97.41349827079102,214.92868203297257 97.48068013379816,214.4836022911477 97.61504386016168,213.92725200031418 98.79072646412533,213.29672084623598 99.96640906832181,213.3338109382894 100.26872745226137,213.22254065290326 100.70540956244804,213.22254065290326 101.04131887794938,213.37090102749062 101.04131887794938,213.44508119657985 100.94054608326405,213.5563514274836 101.41081912489608,213.37090102749062 101.5451828512596,213.44508119657985 101.7803193719592,213.48217127655516 102.08263775589876,213.7047116929607 102.08263775589876,213.66762163120438 102.45213800284546,213.59344149834942 102.75445638690144,213.44508119657985 103.29191129165702,213.44508119657985 103.49345688091125,213.37090102749062 103.72859340172727,213.37090102749062 103.93013899109792,213.5563514274836 104.0645027172286,213.81598186021438 104.36682110128459,214.00143207842484 104.7363213483477,213.9643420408829 105.10582159517799,213.74180175174843 105.50891277380288,213.63053156630485 105.77764022629708,213.66762163120438 105.94559488398954,213.77889180745115 106.21432233625092,213.81598186021438 106.2479132679291,213.63053156630485 106.113549541682,213.48217127655516 105.60968556837179,213.03709011647152 105.340958115994,213.03709011647152 105.20659438986331,213.11127034004312 105.03863973217085,213.0 104.63554855354596,213.22254065290326 104.16527551191393,213.22254065290326" stroke="#00AFAA" stroke-linecap="round" stroke-linejoin="round" stroke-width="1"><title>2025-09-13 5.4km</title><desc>15794483312</desc></polyline><polyline fill="none" points="169.58510160492733,216.3595811160194 169.5675142625696,216.45667812996544 169.8840864257072,217.38880744563357 170.00719782238593,217.46648472358356 167.65049394156085,216.8644851554709 167.35150912083918,216.5537751042284 167.45703317521838,216.34016170848918 169.8840864257072,217.5830005929165 170.32376998552354,217.6024198988889 169.58510160492733,217.40822676746757 170.85139025736134,217.81603216017538 171.0800257085357,217.66067780736194 171.0800257085357,217.97138641144556 170.886564942135,219.17537841536978 170.7282788606244,220.20459255106107 170.517230751866,222.55429113964783 170.39411935518729,222.88441222076654 170.42929403990274,223.09801973485446 170.71069151820848,223.2145328434417 170.76345354539808,223.81651632793364 170.58758012152975,224.41849828782142 170.6755168334348,226.74873666264466 170.79862823017174,228.01093957766716 168.60021043085726,229.4867375636095 168.17811421345687,229.6615025077772 167.91430407750886,230.06928687794425 167.91430407750886,230.438234038651 167.59773191442946,230.438234038651 166.66560276749078,231.0401992295956 165.76864830538398,231.37030852578755 165.18826600635657,231.37030852578755 164.87169384327717,231.54507208526775 164.8892811855767,232.16645258961944 165.17067866399884,232.47714223270305 165.0475672671455,232.74899533731514 164.97721789765637,234.6131225374411 164.9948052399559,235.50634497417195 164.87169384327717,236.2248040641134 164.85410650086123,236.7490836514189 164.9420432127663,238.1665745248756 164.92445587040856,240.166581520185 164.9420432127663,241.31220901673078 164.95963055524044,242.41899644047953 164.9420432127663,243.97237360895087 164.9948052399559,243.29277234643814 165.1530913215247,243.83645351184532 163.3591823973693,244.06945934508985 163.27124568534782,244.1277107677015 162.84914946788922,244.24421357015672 161.741146897024,244.41896766678838 161.2662886523758,244.49663611290453 158.7864733747556,244.5160532205191 158.68094932037639,244.72964129925822 158.34678981493926,244.88497796322918 157.85434422787512,244.90439503912057 156.97497710812604,244.90439503912057 156.30665809719358,244.9432291861158 155.99008593405597,245.75874480759376 156.07802264601924,249.09844626873382 156.0604353036033,252.55459955931292 156.0604353036033,254.5544855450862 156.09560998843517,255.52529792160203 156.02526061882963,256.787348086742 156.04284796124557,258.30179944523843 156.13078467320884,259.7774094423803 156.0604353036033,261.3112574990082 156.04284796124557,261.97139159281505 156.07802264601924,262.84509566459747 155.44487831986044,262.9033424886002 154.7413846240379,262.9421736967488 154.5830985424691,262.9615892984002 153.93236687389435,263.0392516891734 152.98265038459795,263.19457639475877 152.36709340073867,263.1557452278794 151.34702754189493,263.2528231332544 150.88975663972087,263.09749846567865 149.53553127526538,263.2528231332544 149.35965785128064,263.09749846567865 149.21895911218598,263.09749846567865 148.79686289466918,263.0586672829377 148.90238694910659,263.33048542898905 148.95514897623798,264.12652249833627 149.14860974252224,264.82547967990104 149.25413379690144,265.5244348077249 149.41241987847025,266.0292344561167 150.48524776462,266.22338788183697 151.593250335427,266.22338788183697 152.63090353668667,266.2039725463983 153.1057617814513,266.12631118876743 153.52785799879348,266.14572653055075 154.17858966742642,266.14572653055075 154.60068588494323,266.08748050050053 155.19865552627016,266.14572653055075 155.3745289501967,266.5922789541073 155.35694160778075,267.0 155.19865552627016,266.534033033342 155.1107188143069,266.14572653055075 154.5303365152795,266.08748050050053 154.03789092827355,266.06806515395874 153.68614408036228,266.08748050050053 152.20880731922807,266.2039725463983 151.83947312890086,266.2816338786215 151.24150348751573,266.2622185479704 150.02797686232952,266.2039725463983 149.5531186176231,265.93215768391383 149.2365464545437,264.82547967990104 148.90238694910659,263.07808287513035 149.0782603729749,262.88392688220483 149.57070596003905,263.0586672829377 150.76664524286753,263.01983609385206 151.13597943319473,262.9615892984002 151.62842502020067,263.01983609385206 152.73642759106588,262.9033424886002 153.8092554770992,262.9421736967488 154.42481246090028,262.88392688220483 154.81173399364343,262.7868488263339 155.1634808414383,262.7868488263339 155.23383021110203,262.6703551069804 155.19865552627016,262.14613266385277 155.33935426548123,261.9519759102841 156.02526061882963,261.85489747406973 156.20113404281437,261.7384032982227 155.93732390686637,260.787032060558 156.0076732764137,258.78719848100445 156.0076732764137,257.2339180795534 155.99008593405597,255.97187028403278 155.97249859164003,253.91374720574822 155.97249859164003,250.3411139092059 155.93732390686637,248.0111067564867 155.93732390686637,247.60335315753764 155.97249859164003,246.18591854069382 155.97249859164003,244.96264625723416 156.57046823302517,244.88497796322918 157.23878724407405,245.0014803946542 157.87193157017464,244.88497796322918 158.69853666279232,244.82672672618355 158.69853666279232,244.477219003762 158.90958477155073,244.49663611290453 160.4748582446482,244.477219003762 161.2662886523758,244.477219003762 162.12806842970895,243.91412214834418 162.2160051416722,243.38985835998028 161.96978234814014,243.38985835998028 161.88184563611867,243.97237360895087 161.91702032100875,244.3801334341697 161.70597221225034,244.39955055128667 161.17835194035433,244.43838478074758 159.08545819547726,244.477219003762 159.03269616828766,244.5160532205191 160.56279495666968,244.49663611290453 160.7914304077276,244.477219003762 161.75873423943995,244.3607163154811 162.58533933199942,244.22479644035047 163.13054694613675,244.147127905424 163.53505582129583,244.03062505539856 165.01239258243004,243.37044116048492 164.8892811855767,242.4772482674016 164.8892811855767,241.95298131099844 164.8365191585035,240.41900839183654 164.92445587040856,239.29279412572214 164.8892811855767,238.06948637848836 164.90686852805084,237.46753898602037 164.9420432127663,236.65199492625834 164.81893181608757,236.65199492625834 164.8365191585035,236.1277151248505 164.9948052399559,234.47719708981458 165.22344069118844,232.55481458004215 164.97721789765637,232.32179746188922 164.85410650086123,231.66158105357317 165.06515460961964,231.2732176039135 165.64553690858884,231.35089034456178 166.43696731637465,231.11787204642314 166.9470002457383,230.9819446002948 167.38668380561285,230.80718062681262 167.6153192567872,230.438234038651 167.89671673515113,230.51590705223498 167.86154205031926,230.574161795681 168.0901775014354,230.30230620395741 168.248463582946,229.79743070890254 169.11024336027913,229.37022752939083 169.4092281810008,229.0595338256535 169.8313243984594,228.8265132814122 169.91926111048087,228.76825810963055 170.5699927790556,228.26337935640186 170.95691431168234,228.0497764841566 170.83380291500362,226.8264108817384 170.74586620298214,226.2632722184062 170.69310417579254,224.8068729367078 170.83380291500362,223.5058153650316 170.99208899657242,223.02034429738706 170.76345354539808,222.96208770266094 170.69310417579254,221.93288550770376 170.78104088781402,220.55413596062863 170.85139025736134,220.02982065350807 171.0448510237038,218.92292898443702 171.22072444763035,217.6800971069897 171.06243836606154,217.6024198988889 169.91926111048087,217.77719358149625 169.60268894740148,217.93254785810132 169.51475223538,217.56358128531429 169.9368484528968,217.11693677288713 169.5675142625696,216.98100131988758 169.47957755066454,216.92274324476602 169.60268894740148,216.37900052196346 169.4619902081904,216.26248406233208 169.42681552347494,216.22364522980934 169.1981800722424,216.22364522980934 169.05748133308953,216.2430646468856 168.8816079092212,216.22364522980934 168.68814714293694,215.87409545108676 168.84643322450574,215.85467600388802 168.5650357460836,213.9321428737603 168.58262308855774,213.9321428737603 168.58262308855774,213.8350448282872 168.60021043085726,213.95156247806153 168.65297245810507,213.9709820807766 169.05748133308953,213.15535739950428 168.9343699364108,215.27209184922685 169.0398939907318,216.28190347626514 168.5650357460836,213.9321428737603 168.58262308855774,213.9321428737603 168.16052687098272,213.99040168194915 168.33640029502567,214.5535694250284 168.6177977732732,213.95156247806153 168.5650357460836,214.7866039628425 168.84643322450574,215.4468672456278 168.8288458820316,215.64106197968067" stroke="#00AFAA" stroke-linecap="round" stroke-linejoin="round" stroke-width="1"><title>2025-09-12 11.5km</title><desc>15784793735</desc></polyline></svg>