<?xml version="1.0" encoding="utf-8" ?>
<svg baseProfile="full" height="300mm" version="1.1" viewBox="0,0,200,300" width="200mm" xmlns="http://www.w3.org/2000/svg" xmlns:ev="http://www.w3.org/2001/xml-events" xmlns:xlink="http://www.w3.org/1999/xlink"><defs /><rect fill="#f5f5f5" height="300" rx="1" ry="1" width="200" x="0" y="0" /><text fill="#006cb8" style="font-size:12px; font-family:MGI-Regular; font-weight:bold;" x="10" y="20">超过5公里的活动</text><text fill="#006cb8" style="font-size:4px; font-family:MGI-Regular" x="10" y="280">Runner</text><text fill="#006cb8" style="font-size:9px; font-family:Arial" x="10" y="290">XHH</text><text fill="#006cb8" style="font-size:4px; font-family:MGI-Regular" x="65" y="280">特殊的活动</text><rect fill="yellow" height="2.6" rx="1" ry="1" width="2.6" x="65" y="283" /><text fill="#006cb8" style="font-size:3px; font-family:MGI-Regular" x="70" y="285.5">大于 20.0 km</text><rect fill="red" height="2.6" rx="1" ry="1" width="2.6" x="65" y="287" /><text fill="#006cb8" style="font-size:3px; font-family:MGI-Regular" x="70" y="289.5">大于 40.0 km</text><text fill="#006cb8" style="font-size:4px; font-family:MGI-Regular" x="120" y="280">数据</text><text fill="#006cb8" style="font-size:3px; font-family:MGI-Regular" x="120" y="285">次数: 5</text><text fill="#006cb8" style="font-size:3px; font-family:MGI-Regular" x="120" y="290">周均次: 2.5</text><text fill="#006cb8" style="font-size:3px; font-family:MGI-Regular" x="141" y="285">所有: 43.6 km</text><text fill="#006cb8" style="font-size:3px; font-family:MGI-Regular" x="141" y="290">平均: 8.7 km</text><text fill="#006cb8" style="font-size:3px; font-family:MGI-Regular" x="167" y="285">最少: 5.0 km</text><text fill="#006cb8" style="font-size:3px; font-family:MGI-Regular" x="167" y="290">最多: 11.5 km</text><polyline fill="none" points="54.05137726198882,57.43238920078147 52.89384090155363,63.71645830641501 51.25399772450328,64.24900514341425 50.675229544285685,64.14249579340685 50.09646136406809,64.46202381700277 57.331063616555184,66.59220864041708 60.031981790903956,66.37919031467754 61.57536360435188,67.87031786330044 60.996595424599946,70.95907664555125 60.32136588124558,75.53894688503351 59.6461363369599,80.86435716273263 59.6461363369599,89.49147564312443 58.58506134012714,91.40860532969236 59.260290883947164,93.32573219691403 58.970906793605536,94.6038152090041 60.22490451717749,106.0 60.031981790903956,105.25445824593771 59.6461363369599,105.46747021912597 60.41782724438235,105.46747021912597 59.54967497428879,105.89349406131078 58.68152270372957,103.33734892087523 59.163829520344734,99.2901088653598 59.260290883947164,97.05347081250511 58.392138613853604,94.81682892225217 58.006293159909546,89.91750470607076 58.58506134012714,79.05372010939755 59.935520427301526,72.76972494251095 60.80367269786075,66.27268113882747 59.260290883947164,66.48569948179647 51.83276590425521,67.33777250617277 51.25399772450328,65.63362590072211 52.70091817481443,63.29042068019044 53.56907044490799,61.69277834240347 53.56907044490799,58.0714484595228 51.25399772450328,56.4737997247139 47.588465915992856,57.53889909887221 47.29908182611689,58.28446814289782 46.23800682928413,49.01807973580435 46.1415454656817,46.781355423037894 46.43092955555767,47.1008877028944 46.045084102544934,46.035779799101874 46.23800682928413,45.50322552071884 47.00969773577526,52.85245534253772 45.755700012203306,46.142290628515184 46.1415454656817,46.142290628515184 53.56907044490799,50.82875851134304 47.49200455285609,50.29620619153138 46.623852282296866,48.16599473601673 46.1415454656817,47.31390917894896 46.045084102544934,45.92926896107383 47.684927279595286,50.50922714557964 45.852161375805736,46.781355423037894 44.984009105712175,46.99437695147935 44.887547742109746,54.55661865801085 46.33446819288656,53.49151684704702 46.045084102544934,46.24880144954659 46.045084102544934,46.99437695147935 44.791086378507316,49.76365365413949 46.045084102544934,46.142290628515184 46.43092955555767,46.35531226173043 46.5273909191601,46.88786619156599 47.684927279595286,46.781355423037894 46.5273909191601,49.124590321909636 44.984009105712175,47.42041990417056 46.623852282296866,46.35531226173043 45.46631592232734,47.20739844534546 45.27339319558814,48.48552667640615 46.1415454656817,46.035779799101874 45.659238648600876,46.99437695147935 45.46631592232734,47.1008877028944 46.23800682928413,46.99437695147935 45.948622738942504,45.716247258358635 55.401836349163204,57.53889909887221 47.29908182611689,53.065475878538564 47.29908182611689,53.598027067258954 47.97431136993691,54.76963891577907 47.78138864366338,54.343598365434445 38.42463639611378,56.899839579011314 47.10615909937769,52.74594506144058 47.00969773577526,52.74594506144058 47.20262046298012,53.065475878538564 46.623852282296866,51.78735213878099 46.5273909191601,51.574331393581815 46.5273909191601,46.674844645895064 46.045084102544934,46.781355423037894 46.43092955555767,48.698547926265746 46.045084102544934,46.142290628515184 46.045084102544934,51.46782100806013 46.23800682928413,46.24880144954659 46.1415454656817,46.035779799101874 46.1415454656817,46.035779799101874 46.1415454656817,46.24880144954659 45.948622738942504,45.92926896107383 45.56277728499845,45.183692849823274 45.56277728499845,47.20739844534546 48.36015682294965,46.56833385990467 47.97431136993691,45.183692849823274 46.913236373104155,46.35531226173043 46.1415454656817,44.864160099765286 50.86815227055922,51.254800210590474 48.36015682294965,48.48552667640615 45.56277728499845,45.50322552071884 46.045084102544934,45.92926896107383 45.948622738942504,45.92926896107383 45.948622738942504,45.716247258358635 46.33446819288656,44.75764916592743 46.1415454656817,46.035779799101874 49.42123182024807,56.04775973141659 45.08047046838328,52.21339352475479 45.46631592232734,46.142290628515184 45.659238648600876,45.82275811419822 46.23800682928413,44.970671025221236 48.26369546027854,51.254800210590474 46.43092955555767,44.11858337931335 46.1415454656817,45.92926896107383 45.948622738942504,45.92926896107383 46.816775009501725,46.142290628515184 46.23800682928413,45.50322552071884 45.948622738942504,46.035779799101874 46.816775009501725,45.50322552071884 46.1415454656817,44.43811631179415 45.46631592232734,46.35531226173043 47.877850006334484,51.893862498458475 47.78138864366338,53.704537278739735 46.045084102544934,46.035779799101874 46.045084102544934,46.035779799101874 45.755700012203306,46.674844645895064 45.755700012203306,46.35531226173043 46.23800682928413,45.07718194171321 46.43092955555767,45.29020374873653 46.623852282296866,46.35531226173043 45.852161375805736,46.142290628515184 46.045084102544934,46.142290628515184 46.33446819288656,44.75764916592743 46.23800682928413,46.035779799101874 46.1415454656817,45.609736394137144 46.1415454656817,46.035779799101874 46.23800682928413,45.29020374873653 46.816775009501725,44.43811631179415 46.33446819288656,44.6511382231256 46.33446819288656,45.29020374873653 45.852161375805736,46.142290628515184 46.33446819288656,44.75764916592743 46.913236373104155,45.82275811419822 46.1415454656817,45.29020374873653 45.755700012203306,46.035779799101874 46.33446819288656,44.75764916592743 46.23800682928413,45.29020374873653 45.852161375805736,46.142290628515184 46.1415454656817,46.035779799101874 45.56277728499845,46.24880144954659 46.33446819288656,45.183692849823274 46.23800682928413,45.39671463915147 45.852161375805736,46.035779799101874 46.1415454656817,46.035779799101874 46.1415454656817,46.142290628515184 45.948622738942504,45.82275811419822 46.33446819288656,45.07718194171321 47.684927279595286,46.88786619156599 46.1415454656817,46.035779799101874 45.948622738942504,46.035779799101874 46.045084102544934,46.24880144954659 46.720313645899296,43.69253934768494 46.33446819288656,44.75764916592743 46.23800682928413,45.07718194171321 46.623852282296866,45.50322552071884 46.1415454656817,46.142290628515184 46.33446819288656,44.75764916592743 46.33446819288656,45.29020374873653 46.623852282296866,51.254800210590474 46.1415454656817,46.142290628515184 46.1415454656817,46.035779799101874 46.43092955555767,45.92926896107383 45.659238648600876,46.99437695147935 45.46631592232734,49.01807973580435 46.816775009501725,44.864160099765286 46.045084102544934,45.716247258358635 46.045084102544934,45.82275811419822 47.684927279595286,46.781355423037894 46.1415454656817,46.142290628515184 46.1415454656817,46.035779799101874 47.20262046298012,46.99437695147935 45.755700012203306,47.73995202733204 46.1415454656817,46.35531226173043 46.1415454656817,46.142290628515184 46.816775009501725,45.609736394137144 46.1415454656817,46.142290628515184 46.1415454656817,45.07718194171321 48.93892500316724,51.254800210590474 46.1415454656817,46.035779799101874 46.720313645899296,47.42041990417056 45.852161375805736,46.142290628515184 46.045084102544934,45.29020374873653 46.045084102544934,45.183692849823274 46.5273909191601,45.29020374873653 46.045084102544934,45.183692849823274 46.23800682928413,45.29020374873653 46.23800682928413,46.035779799101874 46.045084102544934,45.92926896107383 46.43092955555767,46.88786619156599 46.816775009501725,44.75764916592743 46.045084102544934,45.29020374873653 46.43092955555767,44.864160099765286 46.43092955555767,47.63344132818747 46.1415454656817,46.142290628515184 45.948622738942504,45.82275811419822 46.045084102544934,45.07718194171321 45.755700012203306,46.674844645895064 46.1415454656817,46.035779799101874 45.948622738942504,46.142290628515184 46.1415454656817,46.035779799101874 45.852161375805736,46.142290628515184 46.5273909191601,52.10688319138717 46.045084102544934,46.035779799101874 46.23800682928413,45.92926896107383 46.1415454656817,46.035779799101874 46.1415454656817,45.82275811419822 46.623852282296866,47.84646271751262 46.23800682928413,45.716247258358635 46.23800682928413,45.82275811419822 46.23800682928413,45.716247258358635 45.755700012203306,45.92926896107383 46.1415454656817,46.24880144954659 46.1415454656817,46.035779799101874 46.23800682928413,46.24880144954659 46.045084102544934,45.07718194171321 46.23800682928413,45.609736394137144 46.1415454656817,46.035779799101874 46.1415454656817,46.035779799101874 46.1415454656817,46.035779799101874 46.045084102544934,45.92926896107383 49.80707727372646,53.38500661798753 46.045084102544934,45.92926896107383 46.1415454656817,46.142290628515184 45.852161375805736,46.142290628515184 46.1415454656817,45.716247258358635 46.23800682928413,45.716247258358635 45.852161375805736,45.716247258358635 46.23800682928413,45.50322552071884 46.045084102544934,45.50322552071884 46.1415454656817,45.609736394137144 45.755700012203306,45.39671463915147 46.045084102544934,45.39671463915147 46.1415454656817,45.183692849823274 46.33446819288656,45.29020374873653 46.5273909191601,45.716247258358635 46.23800682928413,45.50322552071884 46.23800682928413,45.50322552071884 46.045084102544934,45.92926896107383 45.36985455872491,47.31390917894896 46.1415454656817,46.035779799101874 46.1415454656817,46.035779799101874" stroke="#00AFAA" stroke-linecap="round" stroke-linejoin="round" stroke-width="1"><title>2025-09-18 11.3km</title><desc>15852837758</desc></polyline><polyline fill="none" points="117.27170166093856,84.61266782775056 117.97116891259793,84.56284026807407 118.82858038228005,84.78706422253163 118.85114384209737,84.08947804485797 118.73832654347643,82.4202474981721 120.61109370109625,81.79739793817862 121.5136320902966,81.69774189038435 123.38639924803283,81.42368759136298 124.19868379819673,81.47351566405268 124.78533375123516,79.80427079525543 125.50736446271185,77.28792916797101 126.02632403641474,75.76814842209569 126.25195863365661,75.19511437081383 126.95142588531598,73.72515253099846 127.2673143214779,72.20535402387031 127.38013162021525,70.63571810381836 128.37292384833563,69.81352463446092 129.072391099995,69.73877966374857 130.8549044186948,69.51454464130802 130.74208712007385,69.34013950978988 131.19335631467402,69.24047938993317 132.6825446569128,68.89166871356429 134.5327483547153,68.44319725755486 135.50297712313477,68.41828215736314 136.17988091509324,68.39336705504684 137.21780006273184,68.34353684441885 140.06079598865472,69.16573427856201 141.16640551551245,69.51454464130802 143.82889376371168,70.41148374124896 145.27295518643223,70.63571810381836 146.13036665623076,70.13741929622483 149.46975869638845,66.37523700788734 152.01942964585032,64.85540185598074 152.87684111564886,64.35709359915927 154.07270448142663,63.858784527663374 154.8172986524878,63.70929164736299 156.03572547796648,63.46013668397791 159.1494829208823,63.80895357578993 160.70636164210737,63.73420713254018 161.42839235358406,63.63454517975333 163.48166718904395,63.60962968648528 165.53494202450383,63.485052189498674 166.18928235664498,63.50996769298217 167.38514572242275,63.38539015525021 170.09276089002378,63.23589704275946 171.1306800376624,63.53488319434109 172.95832027576398,63.53488319434109 175.5305546851596,63.70929164736299 176.20745847700164,63.83386905273073 176.54591037298087,63.88370000055875 176.79410842992365,63.21098151686601 176.68129113141913,62.46351479366422 176.83923534944188,61.21773284813389 177.1551237857202,58.975312514812686 177.1776872454211,57.95376000413671 177.6515198998386,56.43388285883702 177.85459103726316,55.91064471073332 178.1930429333588,55.636567227047635 178.48636790981982,55.736231795104686 178.75712942657992,55.78606406683684 178.9827640238218,55.86081245931564 179.5017235976411,55.91064471073332 180.7427138829371,56.35913460695883 181.14885615801904,56.134889741340885 180.87809464125894,56.20963804819621 180.94578502036165,56.43388285883702 181.3293638358591,56.45879893875099 182.75086179887876,56.45879893875099 183.24725791299716,56.98203614575323 183.85647132562008,57.13153232561308 184.39799435914028,57.03186821381678 184.64619241619948,56.25947024259949 184.48824819806032,55.487070313916774 185.41335004707798,54.96383054024773 185.63898464443628,55.01366293837782 186.0,54.76450086638215 185.93230962089729,54.76450086638215 185.7292384832399,54.789417082763975 185.61642118461896,54.864165719627636 184.80413663445506,55.11332771004527 184.4656847383594,55.96047695397283 183.76621748681646,56.18472194799688 183.26982137269806,56.01030918917968 182.95393293641973,56.01030918917968 182.99905985593796,56.06014141612104 182.99905985593796,55.78606406683684 182.97649639612064,56.01030918917968 182.25446568476036,56.134889741340885 181.37449075526092,55.686399515136145 180.17862738959957,56.035225303668994 179.59197743656114,55.93556083337171 178.7120025070617,55.736231795104686 178.30586023197975,55.711315656109946 178.32842369168065,55.76114793200395 178.03509871521965,56.01030918917968 177.83202757756226,56.88237198506249 177.20025070523843,57.903928086714586 176.79410842992365,60.19618785334751 176.4105296145426,62.11469636220136 176.1397680977825,63.21098151686601 175.23722970858216,63.485052189498674 173.56753368850332,63.68437616020674 172.2362895644037,63.70929164736299 170.58915700414218,63.111319393035956 167.65590723906644,63.1860659889644 164.56471325596794,63.335559125902364 162.8498903166037,63.53488319434109 162.64681917894632,63.43522117644898 161.69915387034416,63.80895357578993 160.9996866186848,63.88370000055875 160.34534628654364,63.55979869377916 158.87872140400577,63.584714191179955 158.1115637732437,63.335559125902364 158.1566906926455,63.784038096724544 157.97618301480543,63.858784527663374 157.20902538404334,63.70929164736299 155.90034471952822,63.80895357578993 155.65214666258544,63.63454517975333 154.56910059554502,64.00827733468032 153.7568160451483,64.40692446148023 152.6963334379252,64.80557106691413 152.35788154182956,64.95506340957945 151.86148542782757,65.154386418988 150.77843936078716,65.82710061362013 150.41742400510702,66.10116893402301 150.1015355688287,66.47489806459635 149.0636164213065,67.37184610849363 148.43183954874985,67.94489486594102 147.21341272327118,69.1906493177521 145.9498589785071,70.41148374124896 144.9345032905694,70.73537776761805 143.6258226261707,70.51114347830298 142.99404575373046,70.18724921371904 141.73049200873356,69.83843962068204 140.69257286121137,69.56437466049101 140.24130366672762,69.46471461388865 139.90285177074838,70.08758937069797 139.22594797878992,72.55416090853396 138.97774992173072,73.70023786250385 138.7069884048542,74.44767703290563 138.34597304929048,75.59374686828232 137.96239423379302,76.01729332585819 137.57881541841198,76.21660910226637 137.30805390165187,76.34118139636121 136.76653086813167,76.39101029970334 136.5634597305907,75.59374686828232 136.47320589155424,74.22344547419925 136.3378251332324,74.77156677091261 134.62300219375174,74.89613965552417 132.56972735829186,74.7964813519502 131.23848323419224,74.7964813519502 129.90723910997622,75.07054160838015 128.19241617049556,75.54391783470055 128.0119084927719,75.69340491126059 127.65089313697536,76.04220780509058 127.17706048267428,76.29135248487 126.31964901287574,77.98553090775385 125.84581635845825,79.15650166835985 125.52992792229634,81.2492892727023 124.92071450967342,82.1461938485736 124.67251645261422,81.62299983334378 123.9053588216193,81.77248392926413 122.50642431841698,81.79739793817862 121.49106863059569,81.92196795187192 120.09213412727695,82.27076371983276 119.05421497963835,82.27076371983276 118.71576308365911,82.44516145414673 118.78345346287824,84.28878854424693 118.58038232533727,84.96146051754477 117.74553431523964,85.1109429768112 116.88812284555752,85.36008024594048 116.52710748987738,85.31025280835456 116.75274208711926,84.83689174553729 117.1588843622012,84.338616148656 117.04606706358027,84.11439186445205 116.61736132879741,84.06456422334304 116.66248824819922,83.46663189481478 116.8429959260393,83.46663189481478 116.66248824819922,82.96835405859747 116.52710748987738,82.74412876658607 116.41429019125644,82.94344014537637 116.09840175497811,83.06800969093456 115.80507677863352,83.29223474478931 115.57944218115881,82.96835405859747 115.80507677863352,82.81887054891558 115.53431526164059,83.2673208580527 115.42149796313606,80.32746793149272 115.44406142283697,80.05341240068083 115.46662488253787,80.0783265499922 115.46662488253787,80.12815484264866 115.64713256037794,80.60152321594069 115.57944218115881,80.75100781270885 115.42149796313606,80.12815484264866 115.44406142283697,80.05341240068083 115.42149796313606,80.0783265499922 115.51175180193968,80.02849824933219 115.44406142283697,80.15306898587733 116.05327483545989,81.47351566405268 115.44406142283697,80.0783265499922 115.35380758391693,80.72609371837461 115.44406142283697,80.65135142306099 115.17329990596045,81.12471898412332 115.42149796313606,80.10324069732451 115.37637104361784,80.02849824933219 115.39893450343516,80.05341240068083 115.42149796313606,80.02849824933219 115.39893450343516,80.05341240068083 115.12817298655864,80.32746793149272 115.44406142283697,80.00358409591718 115.39893450343516,80.15306898587733 115.46662488253787,80.0783265499922 115.46662488253787,79.879013298254 115.48918834223878,80.22781140333973 115.42149796313606,80.05341240068083 115.44406142283697,80.0783265499922 115.42149796313606,80.0783265499922 115.44406142283697,79.9786699404358 115.42149796313606,80.02849824933219" stroke="#00AFAA" stroke-linecap="round" stroke-linejoin="round" stroke-width="1"><title>2025-09-17 10.4km</title><desc>15841686234</desc></polyline><polyline fill="none" points="19.562568008434027,147.01567506761057 19.288356909528375,147.6644757668837 18.97497279639356,148.39978226454696 19.21001088130288,148.96207477949793 19.053318824619055,150.38943001974258 19.014145810622722,150.25967061138363 18.97497279639356,150.82196115076658 18.73993471148424,152.11955242382828 18.50489662657492,152.8981056609191 18.62241566902958,154.2821974774124 18.661588683258742,155.1472530249739 18.935799782164395,156.1853178163583 18.38737758412026,157.22338057227898 18.348204569891095,157.95867379274569 18.465723612345755,158.5209561548254 19.797606093576178,158.73721844269312 21.48204570170492,158.60746108047897 22.30467899865471,158.65071353813983 23.440696408972144,158.60746108047897 24.302502720151097,158.82372333310195 25.39934711623937,158.86697577300947 26.065288356738165,158.9534806422016 27.357997823506594,158.86697577300947 28.02393906400539,158.73721844269312 28.102285092230886,159.38600477619912 28.02393906400539,159.77527619482134 28.298150162911043,159.77527619482134 29.19912948855199,159.73202382904128 29.47334058722481,160.2510519841744 30.021762785501778,161.54862014597165 30.139281827956438,161.8081333966984 30.100108813727275,161.6783767871675 30.335146898636594,161.93788997424417 30.726877039996907,162.1974030341662 31.00108813913539,162.28390735920402 30.805223068455234,162.45691596687539 31.040261153364554,162.6731766469311 32.33297061990015,162.45691596687539 32.724700761726126,161.4188634728198 32.88139281817712,161.4188634728198 32.92056583217345,161.37561124147032 34.4483133838512,160.55381817315356 35.54515777993947,160.07804265574669 36.13275299221277,159.99153797022882 36.09357997798361,159.4725095606118 36.36779107712209,158.56420861944207 37.19042437430471,156.4015810584824 38.0130576712545,155.7095383730193 39.149075081339106,156.14206515744445 40.28509249165654,156.66109683230752 41.22524483106099,157.26663314300822 43.14472252433188,158.86697577300947 43.9673558215145,159.60226671077544 44.63329706178047,159.86178091555485 44.90750816091895,160.46731356531382 45.65179542964324,159.60226671077544 46.20021762768738,158.99673307154444 46.55277475505136,158.30469377851114 47.06202393886633,157.35313827361097 47.806311207823455,157.22338057227898 47.806311207823455,157.3963908337464 48.35473340586759,158.21818880329374 48.90315560391173,157.7424111868895 49.64744287263602,157.30988571009948 50.078346027992666,157.35313827361097 51.018498367629945,156.5313389612129 52.311207834631205,156.05555982881924 53.0554951033555,155.6230329737009 53.83895538607612,154.54171429006965 54.89662676816806,153.6766577528906 55.79760609334335,153.11437024574843 56.30685527739115,152.8115998020803 57.12948857457377,152.20605839550262 57.912948857294396,151.4707571848994 59.00979325338267,150.82196115076658 60.06746463547461,149.9136453671672 60.96844396064989,149.4811134939082 62.80957562546246,148.7890617615776 64.96409140364267,148.09700912446715 67.3536452667322,147.01567506761057 69.19477693131194,146.36687357339542 70.36996735585853,146.1073527529661 70.91838955390267,145.7180712839181 72.56365614803508,145.45855014544213 73.4254624589812,145.4152966098918 74.95321001089178,144.93950748679345 75.97170837852173,144.5069715490681 77.38193688797764,142.7335705095902 78.00870511424728,142.17127137843636 79.92818280728534,139.922068880609 81.10337323183194,138.92722626560135 82.47442872682586,138.36492309105233 83.33623503800482,138.23516073517385 84.47225244832225,138.01889007125283 84.98150163237005,137.41333174234023 85.88248095777817,137.41333174234023 86.0,137.84587347650086 85.80413492908701,139.01373439328745 85.52992383041419,139.23000465068617 85.4907508159522,139.01373439328745 85.45157780195586,139.1002425069746 85.60826985840686,138.97048033124884 85.02067464636639,138.71095588454045 85.3340587595012,138.45143131053192 84.94232861814089,138.40817720256746 84.74646354746073,138.49468541512033 84.47225244832225,138.75420996776666 84.58977149077691,138.66770179776358 84.00217627850361,138.75420996776666 61.90859630028717,148.5295421287301 60.10663764970377,150.08665801762254 60.10663764970377,150.21641746829846 59.75408052233979,150.38943001974258 58.22633297042921,151.12473273230717 56.81610446120612,152.16280541141168 55.01414581062272,153.5036462759017 54.07399347121827,154.195691844885 53.79978237207979,154.84448374409112 53.09466811735183,155.36351669116993 53.13384113158099,155.32026396496803 50.23503808467649,156.7476020618342 49.804134929319844,157.1801279981446 49.17736670281738,157.7424111868895 47.923830250278115,157.30988571009948 47.37540805200115,157.1801279981446 46.983677910640836,157.35313827361097 46.70946681173518,157.52614849279053 46.70946681173518,158.17493631038815 46.67029379750602,158.04517881051288 46.3569096843712,158.65071353813983 45.92600652878173,159.08323791946168 45.064200217602775,159.77527619482134 44.711643090005964,159.86178091555485 44.241566920652986,159.81852855690522 43.45810663769953,159.16974275335087 42.04787812824361,158.04517881051288 39.854189336067066,156.57459158837446 38.75734493997879,155.79604375825147 38.052230685483664,155.32026396496803 37.347116430755705,154.9309892707679 36.48531011957675,154.71472542791162 34.56583242630586,154.7579782034736 33.312295973999426,154.58496707989252 32.607181719271466,154.71472542791162 31.627856365405023,154.45520869994652 29.55168661568314,154.49846149684163 29.159956474089995,155.06074753392022 29.355821545002982,156.31507577229058 29.6692056581378,157.1801279981446 29.708378672366962,158.3911987397296 29.865070728817955,158.99673307154444 30.100108813727275,159.73202382904128 30.452665941091254,160.46731356531382 30.844396082684398,161.33235900642467 30.922742110909894,161.28910676800297 30.76605005422607,161.54862014597165 30.491838955320418,161.46211570076412 30.374319912865758,161.33235900642467 29.747551686363295,160.8565841887903 29.630032644141465,159.99153797022882 29.394994558999315,159.55901433099643 28.298150162911043,159.64551908688736 27.828073993325233,159.38600477619912 27.08378672436811,159.34275237872498 25.908596300287172,159.4725095606118 25.39934711623937,158.86697577300947 23.910772578557953,158.910228209279 22.383025026880205,159.08323791946168 20.54189336230047,158.65071353813983 19.95429815002717,158.6939659922209 18.465723612345755,158.56420861944207 18.426550598349422,157.87216876112507 18.50489662657492,157.35313827361097 18.779107725713402,156.96386507421266 19.014145810622722,156.4015810584824 19.09249183884822,155.9258018094697 18.818280739709735,154.9309892707679 18.8574537539389,154.9309892707679 18.818280739709735,154.36870309582446 18.818280739709735,153.54689915038762 18.818280739709735,152.8115998020803 19.053318824619055,151.60051629622467 19.13166485284455,150.08665801762254 19.24918389529921,148.4862888441712 18.97497279639356,148.27002236858243 18.583242654800415,148.1402624407492 18.700761697255075,147.4482089554367 18.38737758412026,147.05892847239738 17.133841131580994,147.27519544272218 16.898803046438843,147.4482089554367 15.488574537215754,147.4482089554367 15.410228508990258,147.36170220613712 15.331882480997592,147.05892847239738 15.997823721263558,146.1073527529661 16.03699673525989,144.93950748679345 16.38955386262387,143.1228541735618 16.03699673525989,142.7335705095902 14.705114254262298,142.82007801526925 14.313384112901986,143.07960044720676 14.274211098905653,143.42563015871565 14.313384112901986,143.1228541735618" stroke="#00AFAA" stroke-linecap="round" stroke-linejoin="round" stroke-width="1"><title>2025-09-16 5.0km</title><desc>15826448404</desc></polyline><polyline fill="none" points="162.80934189702384,120.92344907246297 162.4958265358582,121.56633675354533 162.85412980569527,120.92344907246297 162.4510386271868,121.46743100101594 162.3166749009397,123.09937385271769 162.04794744867831,124.28623861743836 162.18231117492542,124.9291227266076 162.09273535734974,126.26434138679178 162.137523266254,126.75886606896529 162.09273535734974,127.15448552387534 162.3166749009397,128.14353302976815 162.18231117492542,128.58860388014 161.77921999641694,128.88531759846956 161.55528045259416,129.231483419484 161.46570463501848,129.87436227611033 161.7344320875127,130.5172404499608 161.68964417860843,130.96230955503415 161.5104925436899,131.16011794097722 161.24176509142853,131.25902210979257 161.10740136541426,131.60518657322973 161.15218927408569,132.24806290870765 161.28655300009996,132.49532285594614 161.15218927408569,133.9788804181735 160.92824973049574,135.01736854825867 161.01782554783858,136.5009199292981 160.92824973049574,138.18227376567665 160.97303763916716,140.20978247438325 161.15218927408569,140.90210096590454 161.10740136541426,141.34716243523872 161.24176509142853,141.89112600893714 161.1969771827571,142.1383820171468 161.33134090877138,142.38563792448258 161.28655300009996,142.7317960250075 161.46570463501848,143.7702691387385 161.42091672634706,144.11642644746462 161.10740136541426,144.46258355822647 156.53903467487544,147.4296363882022 155.6432765002828,148.07249591790605 155.28497323021293,148.41865076654358 155.01624577818438,148.51755211537238 154.6579425081145,148.5670027838787 154.43400296429172,148.66590410855133 154.29963923827745,148.9131573496852 154.03091178601608,148.96260798582807 153.98612387711182,149.40766352892388 154.21006342070177,149.80326818156755 154.29963923827745,150.39667467569234 154.5235787818674,150.9900805882644 154.5235787818674,151.2867833264172 154.3892150556203,151.48458507092437 154.03091178601608,151.63293633708963 153.26951733743772,151.73183716082713 152.86642615892924,151.92963876010617 151.74672844051383,151.979089149856 151.38842517067678,152.1274402946583 150.94054608349688,152.1274402946583 150.2687274524942,152.42414247529814 149.28339346055873,152.62194384844042 148.7011506468989,152.81974515673937 147.85018038121052,152.91864578670356 146.6856947541237,152.77029483561637 146.37217939272523,153.06699670129456 146.19302775803953,153.56149948760867 146.28260357538238,154.99555528350174 146.50654311897233,155.34170617355267 146.9544222066179,155.53950659331167 147.1335738413036,155.93510723893996 146.8200584803708,156.2812575918506 146.77527057146654,156.5285077227163 146.99921011528932,157.22080755187199 147.1335738413036,157.22080755187199 146.50654311897233,157.41860735765658 146.41696730162948,157.66585702402517 146.7304826627951,159.74275023507653 146.7304826627951,160.33614698669408 146.64090684521943,160.6822948232293 146.7304826627951,161.12734175095102 146.64090684521943,161.52293874515453 146.7304826627951,162.70972817728762 146.50654311897233,164.09431290766224 146.55133102787659,164.93495209212415 146.37217939272523,165.2316479960573 146.3273914840538,165.47889447183115 146.41696730162948,166.07228560134536 146.28260357538238,166.6656761492486 146.41696730162948,167.11071867862483 146.3273914840538,167.75355731020682 146.41696730162948,168.59419141389662 146.41696730162948,169.28647744643968 146.55133102787659,170.2754561198526 146.41696730162948,170.8688425484579 146.50654311897233,171.75892110099085 146.55133102787659,174.23135465953965 146.3273914840538,174.97308275819523 146.41696730162948,175.9620521432371 146.37217939272523,176.70377812202787 146.50654311897233,177.29715825075982 146.41696730162948,178.18722735374467 146.55133102787659,179.0772951481049 146.59611893678084,180.21460209274665 146.23781566671096,182.2419700435712 146.41696730162948,182.48920957330847 146.46175521053374,182.98368832969572 146.7304826627951,183.18147971923463 146.59611893678084,184.56601763685467 144.84939049603418,184.56601763685467 142.92351042060181,185.20883773674723 142.2964796985034,185.20883773674723 142.2069038809277,185.20883773674723 142.3412676071748,185.1593900611042 142.2069038809277,185.10994238132844 141.93817642866634,185.25828540860675 141.66944897617213,185.5055237066117 141.0424182540737,185.752761903801 139.3404777222313,186.0 139.16132608731277,185.8516571543296 139.0269623612985,185.06049469741993 138.80302281747572,184.71436079748673 138.22078000404872,183.972644631227 138.08641627780162,183.92319685441907 137.86247673421167,184.02209240401862 137.8176888253074,183.972644631227 138.13120418670587,183.92319685441907 138.39993163896725,183.37927104416303 140.05708426213823,183.03313618316315 139.78835680964403,183.23092755646212 139.87793262698688,182.98368832969572 139.78835680964403,182.78589687566273 138.66865909146145,182.3903137735906 138.4895074563101,182.4397616754868 138.22078000404872,182.34086586761987 138.8925986350514,182.68700112437364 138.8925986350514,182.83534474519547 138.80302281747572,182.93424047215376 139.0269623612985,182.83534474519547 139.11653817864135,182.5881053567864 139.38526563090272,182.6375532426173 138.57908327365294,182.4397616754868 138.13120418670587,182.2419700435712 137.14587019453757,177.44550319208065 137.2354460118804,177.89053779811366 137.45938555547036,177.7916412471095 137.50417346437462,177.4949514978216 137.41459764679894,177.29715825075982 137.36980973812751,177.29715825075982 137.32502182922326,177.4949514978216 137.41459764679894,177.5938480971381 137.32502182922326,178.33557207684498 137.45938555547036,178.43446853884961 137.54896137304604,177.69274468027288 138.22078000404872,176.60488137736684 138.08641627780162,176.80267485056538 138.22078000404872,177.74219296575757 138.08641627780162,177.5938480971381 139.11653817864135,177.5938480971381 139.74356890073977,176.60488137736684 139.4748414484784,177.1488132731174 139.65399308339693,177.000468259037 139.74356890073977,177.09936493902933 138.8925986350514,177.98943433270324 138.57908327365294,178.13777910452336 138.31035582139157,178.03888259403175 138.22078000404872,178.33557207684498 138.22078000404872,177.64329639065545 138.84781072637998,177.74219296575757 138.44471954763867,177.24770992895355 138.22078000404872,176.80267485056538 138.31035582139157,177.09936493902933 138.22078000404872,176.90157156292116 138.31035582139157,177.000468259037 138.22078000404872,177.04991660115775 138.1759920953773,176.95101991295815 138.22078000404872,177.24770992895355 138.57908327365294,177.1488132731174 138.84781072637998,177.29715825075982 138.71344699990004,177.39605488238158 138.66865909146145,177.54439979954623 138.71344699990004,178.6322614144301 141.26635779766366,180.56073856481817 140.86326661915518,180.511290509603 141.0424182540737,180.46184245013865 141.26635779766366,180.56073856481817 141.75902479351498,180.21460209274665 141.89338851999491,180.21460209274665 138.7582349088043,179.4728804146289 138.7582349088043,179.32453596993582 138.84781072637998,179.32453596993582 139.07175026996993,179.72012107487535 139.11653817864135,180.0662578297197 139.29568981355987,180.2640501721762 139.56441726605408,180.41239438665798 139.92272053589113,180.2640501721762 138.22078000404872,181.89583453244995 138.1759920953773,182.04417834727792 138.26556791272014,182.14307420357363 137.9072646428831,181.84638658631593 137.68332509929314,181.4508028703276 138.0416283691302,180.8574268121156 138.13120418670587,180.80797878094018 138.39993163896725,180.90687483910006 138.22078000404872,183.32982321904274 138.44471954763867,183.32982321904274 138.71344699990004,183.08258403261425 138.57908327365294,183.2803753897897 138.13120418670587,183.2803753897897 137.772900916636,183.72540570731508 137.8176888253074,183.6759579104255 138.22078000404872,183.82430128898704 138.93738654372282,183.62651010946138 139.38526563090272,183.32982321904274 140.32581171416678,183.03313618316315 140.37059962307103,182.93424047215376 140.32581171416678,182.6375532426173 140.4601754406467,182.48920957330847 140.95284243649803,182.3903137735906 141.4902973412536,182.04417834727792 141.66944897617213,181.5991467939457 141.7142368850764,180.3629463192774 141.5798731588293,179.76956919475924 141.53508524992503,177.19826160313096 141.53508524992503,177.000468259037 141.26635779766366,176.60488137736684 141.31114570633508,176.20929423725465 141.53508524992503,175.9620521432371 141.93817642866634,175.81370683852583 142.56520715076476,175.8631552774459 142.96829832950607,175.764258395473 143.05787414708175,175.66536149731837 143.10266205575317,175.36867070611333 142.96829832950607,173.9346631654771 142.96829832950607,172.74789573583985 143.10266205575317,171.51167718990473 143.05787414708175,171.3138819882297 143.10266205575317,170.81939370150212 142.96829832950607,169.43482435040642 143.10266205575317,168.0008027559379 143.05787414708175,164.34155984775862 142.96829832950607,163.40202093828702 143.10266205575317,162.70972817728762 143.05787414708175,162.06688419019338 143.19223787309602,161.07789210841293 143.19223787309602,158.4570552778314 143.1474499644246,157.41860735765658 142.87872251216322,156.82520774647128 142.56520715076476,156.5285077227163 142.52041924209334,156.33070762606803 142.65478296834044,156.13290746475104 142.96829832950607,155.88565717235906 143.19223787309602,155.53950659331167 143.19223787309602,154.1054520859616 143.3266015991103,153.6603999963845 143.10266205575317,152.96809609566117 142.56520715076476,152.27579140331363 142.56520715076476,152.07798991695745 142.65478296834044,151.979089149856 142.87872251216322,151.979089149856 143.0130862381775,152.1274402946583 143.0130862381775,152.22634103777818 142.87872251216322,152.27579140331363 142.65478296834044,151.979089149856 142.69957087701187,151.68238675099565 142.07254015491344,151.43513464077841 142.11732806358486,151.48458507092437 142.07254015491344,151.23733288008953 142.25169178983197,150.9900805882644 142.2964796985034,150.74282819533255 142.1621159722563,150.5450262084487 141.89338851999491,150.3472241567797 141.7142368850764,150.1494220405002 142.07254015491344,150.39667467569234 142.11732806358486,150.49557570152683 142.07254015491344,150.6439272100106 141.75902479351498,150.9900805882644 141.75902479351498,151.18788242980372 141.89338851999491,151.2867833264172 142.2069038809277,151.2867833264172 142.60999505966902,151.58348591905087 142.78914669458754,151.58348591905087 143.1474499644246,151.33623376861215 143.0130862381775,150.6439272100106 142.96829832950607,149.60546588758007 143.05787414708175,149.0615092460066 143.0130862381775,148.1713973233127 143.10266205575317,146.5395220661303 143.05787414708175,145.10544623888563 143.19223787309602,143.62191594578326 143.10266205575317,142.08893082360737 143.19223787309602,141.49551618559053 143.05787414708175,139.86362293170532 143.19223787309602,138.87459457607474 142.96829832950607,138.18227376567665 142.96829832950607,137.0448878579773 143.19223787309602,136.15475826564943 143.1474499644246,133.73162107699318 143.23702578176744,133.28655400843127 143.37138950801454,133.13819824607344 143.7296927778516,133.08874631713843 143.9984202303458,132.98984244727762 144.98375422228128,133.08874631713843 146.23781566671096,132.94039050646825 146.37217939272523,132.69313074089587 146.19302775803953,131.90189881291008 146.1482398493681,131.0117616575444 146.46175521053374,130.4183361598989 146.19302775803953,130.02271883841604 146.19302775803953,128.73696075746557 146.1482398493681,128.48969927500002 146.23781566671096,128.09408069279743 146.23781566671096,127.00612825871212 146.1482398493681,126.75886606896529 146.1482398493681,124.38514390942873 146.19302775803953,123.89061728771776 146.1482398493681,123.24773207545513 146.19302775803953,122.7037517472636 146.3273914840538,122.60484618035844 146.1482398493681,122.3575821929262 146.1034519406967,121.76414821040817 146.1482398493681,121.31907234166283 146.05866403202526,120.92344907246297 146.1034519406967,120.03329577151453 146.013876123121,118.50025090621784 146.1034519406967,118.10462579445448 146.05866403202526,116.71993586688768 146.19302775803953,116.62102932215203 146.50654311897233,116.67048259661533 146.55133102787659,116.57157604396343 146.64090684521943,115.97813638823573 146.8200584803708,115.23633600043831 148.38763528573327,114.39562779496191 149.95521209132858,114.44508125103312 150.35830326983705,114.29672087053768 150.94054608349688,114.29672087053768 151.38842517067678,114.49453470332082 151.38842517067678,114.5934415954398 151.2540614446625,114.74180190329207 151.88109216676094,114.49453470332082 152.0602438019123,114.5934415954398 152.37375916261226,114.64289503544569 152.77685034135357,114.93961559061427 152.77685034135357,114.89016217493918 153.26951733743772,114.79125533113256 153.6726085159462,114.5934415954398 154.3892150556203,114.5934415954398 154.6579425081145,114.49453470332082 154.97145786928013,114.49453470332082 155.2401853215415,114.74180190329207 155.41933695646003,115.08797581359977 155.82242813520133,115.33524277125252 156.3150951312855,115.28578938782448 156.8077621271368,114.98906900233123 157.3452170318924,114.84070875507314 157.70352030196227,114.89016217493918 157.92745984555222,115.03852240997367 158.28576311515644,115.08797581359977 158.3305510240607,114.84070875507314 158.15139938914217,114.64289503544569 157.47958075790666,114.04945348860929 157.12127748830244,114.04945348860929 156.9421258533839,114.14836045337142 156.71818630979396,114.0 156.1807314050384,114.29672087053768 155.55370068270713,114.29672087053768" stroke="#00AFAA" stroke-linecap="round" stroke-linejoin="round" stroke-width="1"><title>2025-09-13 5.4km</title><desc>15794483312</desc></polyline><polyline fill="none" points="62.78013547323644,198.47944148801616 62.75668568338733,198.60890417330666 63.17878190090414,199.85174326083506 63.34293042984791,199.95531296476838 60.200658588670194,199.1526468739612 59.80201216111891,198.73836680562817 59.942710900329985,198.45354894464253 63.17878190090414,200.110667457222 63.76502664736472,200.1365598651755 62.78013547323644,199.87763568994706 64.46852034318727,200.42137621357688 64.77336761134211,200.21423707646318 64.77336761134211,200.62851521527045 64.51541992288548,202.23383788715 64.30437181412708,203.60612340140506 64.02297433582135,206.73905485286377 63.858825806877576,207.17921629434568 63.905725386575796,207.46402631312958 64.28092202427797,207.61937712458894 64.3512713938253,208.4220217705879 64.1167734953342,209.2246643837425 64.23402244457975,212.3316488835262 64.39817097363994,214.0145861035562 61.46694724110421,215.98231675146963 60.904152284609154,216.21533667703625 60.552405436639674,216.75904917059233 60.552405436639674,217.25097871822072 60.13030921923928,217.25097871822072 58.887470356654376,218.05359897279413 57.69153107388411,218.49374470105977 56.91768800851423,218.49374470105977 56.49559179099742,218.7267627803667 56.51904158084653,219.55527011948288 56.89423821866512,219.9695229769277 56.73008968960494,220.33199378309655 56.6362905302085,222.8174967165687 56.65974031994119,224.0084599655529 56.49559179099742,224.96640541881789 56.47214200114831,225.66544486855855 56.58939095039386,227.55543269982445 56.56594116054475,230.2221086935897 56.58939095039386,231.7496120223077 56.61284074035939,233.22532858728664 56.58939095039386,235.29649814526783 56.65974031994119,234.3903631285939 56.8707884286996,235.1152713491174 54.47890986315906,235.42594579345314 54.361660913797095,235.50361435691593 53.798865957185626,235.65895142685622 52.32152919599321,235.89195688904147 51.68838486983441,235.99551481718663 48.38196449971292,236.02140429403516 48.24126576050185,236.30618839900126 47.79571975325234,236.51330395095283 47.13912563724443,236.5391933854844 45.966636144090444,236.5391933854844 45.075544129591435,236.59097224814468 44.653447912074625,237.678326410125 44.770696861320175,242.1312616916548 44.747247071471065,246.7394660791033 44.747247071471065,249.4059807267622 44.7941466512857,250.7003972288221 44.700347491772845,252.38313078231295 44.723797281621955,254.4023992603179 44.841046230867505,256.36987925649737 44.747247071471065,258.4150099986873 44.723797281621955,259.29518879042007 44.770696861320175,260.4601275527966 43.92650442640297,260.53778998480993 42.98851283208933,260.5895649289887 42.77746472333092,260.61545239784755 41.90982249856461,260.7190022522409 40.643533846130595,260.92610185965896 39.822791200946085,260.87432697048644 38.46270338923205,261.00376417767256 37.85300885292236,260.79666462089517 36.04737503360957,261.00376417767256 35.81287713511847,260.79666462089517 35.625278816209175,260.79666462089517 35.06248385948129,260.74488971056417 35.20318259880878,261.10731390531873 35.273531968239695,262.16869666444836 35.53147965669632,263.1006395732111 35.672178395907395,264.0325797436235 35.8832265046658,264.7056459414889 37.31366368616,264.9645171757729 38.791000447236,264.9645171757729 40.174538048915565,264.9386300618644 40.80768237519078,264.83508158501354 41.37047733180225,264.8609687073913 42.23811955656856,264.8609687073913 42.80091451318003,264.7833073340007 43.59820736839902,264.8609687073913 43.832705266890116,265.45637193880975 43.809255477041006,266.0 43.59820736839902,265.37871071111294 43.48095841915347,264.8609687073913 42.70711535366718,264.7833073340007 42.05052123765927,264.7574202052783 41.581525440560654,264.7833073340007 39.611743092304096,264.9386300618644 39.119297505239956,265.04217850480927 38.32200465002097,265.0162913972745 36.703969149733894,264.9386300618644 36.07082482345868,264.57621024519904 35.648728606058285,263.1006395732111 35.20318259880878,260.77077716682106 35.43768049729988,260.51190250960644 36.094274613424204,260.74488971056417 37.68886032386217,260.69311479179305 38.18130591092631,260.61545239784755 38.83790002693422,260.69311479179305 40.31523678812664,260.53778998480993 41.74567396938801,260.5895649289887 42.56641661457252,260.51190250960644 43.08231199148577,260.3824651017785 43.55130778858438,260.3824651017785 43.64510694809724,260.22714014264056 43.59820736839902,259.5281768851273 43.78580568730831,259.2693012137024 44.700347491772845,259.13986329874024 44.93484539038036,258.9845377309539 44.583098542527296,257.71604274740093 44.676897701923735,255.049597974692 44.676897701923735,252.97855743940454 44.653447912074625,251.29582704536733 44.6299981221091,248.55166294099763 44.6299981221091,243.78815187895088 44.583098542527296,240.6814756753156 44.583098542527296,240.13780421004049 44.6299981221091,238.24789138758206 44.6299981221091,236.6168616763025 45.427290977328084,236.51330395095283 46.318382992059924,236.6686405262153 47.16257542697713,236.51330395095283 48.26471555035096,236.4356356349017 48.26471555035096,235.96962533835904 48.54611302877311,235.99551481718663 50.6331443261588,235.96962533835904 51.68838486983441,235.96962533835904 52.83742457290646,235.21882953113527 52.95467352215201,234.51981114663067 52.62637646414805,234.51981114663067 52.5091275149025,235.29649814526783 52.55602709471714,235.84017791223596 52.27462961629499,235.86606740171555 51.57113592047244,235.9178463743301 48.780610927264206,235.96962533835904 48.710261557716876,236.02140429403516 50.750393275520764,235.99551481718663 51.05524054367561,235.96962533835904 52.34497898595873,235.81428842063178 53.44711910933256,235.6330619204673 54.1740625948878,235.52950387389865 54.713407761766575,235.3741667405411 56.68319010990672,234.49392154731322 56.51904158084653,233.3029976898688 56.51904158084653,232.60397508132155 56.4486922112992,230.55867785576265 56.56594116054475,229.05705883429619 56.51904158084653,227.42598183796508 56.54249137069564,226.62338531468413 56.58939095039386,225.53599323501112 56.42524242145009,225.53599323501112 56.4486922112992,224.83695349979098 56.65974031994119,222.63626278642914 56.96458758821245,220.07308610671316 56.6362905302085,219.7623966158426 56.47214200114831,218.8821080714406 56.75353947945405,218.36429013853194 57.52738254470751,218.46785379273933 58.58262308849953,218.1571627285739 59.26266699435655,217.9759261337167 59.84891174081713,217.74290750242653 60.15375900908839,217.25097871822072 60.528955646790564,217.3545427363133 60.482056067092344,217.43221572757466 60.78690333524719,217.06974160525715 60.99795144388918,216.39657427853672 62.14699114707764,215.82697003916837 62.54563757462893,215.41271176753798 63.108432531240396,215.10201770853018 63.22568148060236,215.02434414616437 64.09332370536868,214.35117247520247 64.60921908228192,214.06636864555185 64.44507055333816,212.43521450896515 64.32782160397619,211.68436295786523 64.25747223442886,209.74249724895344 64.44507055333816,208.00775382004213 64.65611866209656,207.36045906317304 64.3512713938253,207.28278360355762 64.25747223442886,205.91051401026198 64.37472118379083,204.07218128084787 64.46852034318727,203.37309420466772 64.72646803164389,201.89723864590633 64.9609659302514,200.24012947597657 64.74991782137658,200.1365598651755 63.22568148060236,200.369591441995 62.80358526320197,200.57673047747812 62.68633631384,200.0847750470857 63.24913127056789,199.48924903053558 62.75668568338733,199.3080017598404 62.63943673414178,199.230324326345 62.80358526320197,198.5053340292652 62.61598694429267,198.3499787497858 62.56908736459445,198.29819363975548 62.26424009632319,198.29819363975548 62.07664177753031,198.32408619584749 61.8421438789228,198.29819363975548 61.58419619058259,197.83212726810598 61.79524429934099,197.8062346718507 61.42004766140599,195.24285716502345 61.44349745137151,195.24285716502345 61.44349745137151,195.11339310437324 61.46694724110421,195.268749970739 61.53729661076795,195.2946427743591 62.07664177753031,194.20714319933904 61.91249324858654,197.02945579896914 62.0531919876812,198.37587130168686 61.42004766140599,195.24285716502345 61.44349745137151,195.24285716502345 60.88070249464363,195.3205355759128 61.11520039336756,196.07142590003787 61.49039703106973,195.268749970739 61.42004766140599,196.38213861710392 61.79524429934099,197.26248966084677 61.77179450937547,197.52141597290756" stroke="#00AFAA" stroke-linecap="round" stroke-linejoin="round" stroke-width="1"><title>2025-09-12 11.5km</title><desc>15784793735</desc></polyline></svg>