<?xml version="1.0" encoding="utf-8" ?>
<svg baseProfile="full" height="300mm" version="1.1" viewBox="0,0,200,300" width="200mm" xmlns="http://www.w3.org/2000/svg" xmlns:ev="http://www.w3.org/2001/xml-events" xmlns:xlink="http://www.w3.org/1999/xlink"><defs /><rect fill="#f5f5f5" height="300" rx="1" ry="1" width="200" x="0" y="0" /><text fill="#006cb8" style="font-size:12px; font-family:MGI-Regular; font-weight:bold;" x="10" y="20">超过5公里的活动</text><text fill="#006cb8" style="font-size:4px; font-family:MGI-Regular" x="10" y="280">Runner</text><text fill="#006cb8" style="font-size:9px; font-family:Arial" x="10" y="290">XHH</text><text fill="#006cb8" style="font-size:4px; font-family:MGI-Regular" x="65" y="280">特殊的活动</text><rect fill="yellow" height="2.6" rx="1" ry="1" width="2.6" x="65" y="283" /><text fill="#006cb8" style="font-size:3px; font-family:MGI-Regular" x="70" y="285.5">大于 20.0 km</text><rect fill="red" height="2.6" rx="1" ry="1" width="2.6" x="65" y="287" /><text fill="#006cb8" style="font-size:3px; font-family:MGI-Regular" x="70" y="289.5">大于 40.0 km</text><text fill="#006cb8" style="font-size:4px; font-family:MGI-Regular" x="120" y="280">数据</text><text fill="#006cb8" style="font-size:3px; font-family:MGI-Regular" x="120" y="285">次数: 1</text><text fill="#006cb8" style="font-size:3px; font-family:MGI-Regular" x="120" y="290">周均次: 1.0</text><text fill="#006cb8" style="font-size:3px; font-family:MGI-Regular" x="141" y="285">所有: 11.5 km</text><text fill="#006cb8" style="font-size:3px; font-family:MGI-Regular" x="141" y="290">平均: 11.5 km</text><text fill="#006cb8" style="font-size:3px; font-family:MGI-Regular" x="167" y="285">最少: 11.5 km</text><text fill="#006cb8" style="font-size:3px; font-family:MGI-Regular" x="167" y="290">最多: 11.5 km</text><polyline fill="none" points="128.75530481501482,79.07874334801454 128.70254278788343,79.37003438989632 129.65225927741267,82.16642233688617 130.02159346733242,82.39945417072158 122.95148182474077,80.5934554663836 122.05452736280859,79.66132531268522 122.37109952582978,79.02048512542387 129.65225927741267,82.74900177872041 130.97130995686166,82.80725969665218 128.75530481501482,82.2246803024318 132.55417077243328,83.4480964805116 133.2400771258399,82.98203342204215 133.2400771258399,83.91415923432214 132.65969482669607,87.52613524609478 132.18483658204786,90.61377765319776 131.55169225577265,97.66287341894349 131.1823580658529,98.65323666232871 131.28788211988285,99.29405920451973 132.13207455468364,99.64359853032511 132.29036063631065,101.44954898383003 131.76274036476389,103.25549486343516 132.02655050042085,110.24620998790488 132.39588469080627,114.03281873301603 125.80063129262999,118.46021269081393 124.53434264054522,118.98450752330245 123.742912232643,120.2078606338473 123.742912232643,121.31470211595297 122.79319574334659,121.31470211595297 119.99680830258876,123.12059768877225 117.30594491632655,124.1109255773481 115.56479801936075,124.1109255773481 114.61508153006434,124.63521625578869 114.66784355696291,126.49935776885832 115.51203599222936,127.43142669810914 115.14270180161111,128.2469860119745 114.93165369331837,133.83936761232326 114.98441572021693,136.5190349225304 114.61508153006434,138.67441219236935 114.56231950270012,140.2472509542131 114.82612963858992,144.4997235746123 114.77336761145853,150.49974456056952 114.82612963858992,153.93662705022143 114.87889166595414,157.2569893214386 114.82612963858992,161.91712082683807 114.98441572021693,159.87831703934353 115.45927396486513,161.50936053553596 110.07754719234072,162.2083780352841 109.81373705621809,162.3831323030754 108.54744840390049,162.7326407104847 105.22344069113024,163.25690300035058 103.79886595718563,163.48990833869902 96.35942012444139,163.5481596615864 96.04284796118736,164.18892389774555 95.0403694449924,164.65493388968753 93.56303268391639,164.71318511734717 90.92493132455274,164.71318511734717 88.91997429169714,164.82968755834736 87.97025780240074,167.27623442281038 88.23406793829054,177.29533880623057 88.18130591115914,187.66379867796786 88.18130591115914,193.66345663525863 88.28682996542193,196.57589376484975 88.07578185666353,200.36204426019685 88.12854388402775,204.9053983357153 88.39235401968472,209.3322283271118 88.18130591115914,213.93377249705372 88.12854388402775,215.91417477844516 88.23406793829054,218.53528699377785 86.33463495969772,218.71002746582963 84.2241538723465,218.82652109023184 83.7492956276983,218.8847678952152 81.7971006219741,219.11775506753474 78.94795115408488,219.58372918429086 77.10128020239063,219.46723568363814 74.04108262597583,219.75846939976327 72.66926991916262,219.29249539703596 68.60659382585436,219.75846939976327 68.07897355407476,219.29249539703596 67.65687733679079,219.29249539703596 66.39058868424036,219.17600184876937 66.70716084749438,219.9914562869817 66.86544692888856,222.37956749502337 67.44582922779955,224.47643903974677 67.76240139105357,226.57330442318926 68.23725963570178,228.0877033683355 71.45574329397641,228.67016364552546 74.77975100651383,228.67016364552546 77.89271061029285,228.61191763920942 79.31728534447029,228.3789335662732 80.58357399655506,228.43717959168134 82.5357690025121,228.43717959168134 83.80205765506253,228.26244150148705 85.59596657892689,228.43717959168134 86.12358685093932,229.77683686232194 86.0708248235751,231.0 85.59596657892689,229.6020991000114 85.33215644326992,228.43717959168134 83.59100954607129,228.26244150148705 82.11367278499529,228.20419546187622 81.0584322414361,228.26244150148705 76.62642195797525,228.61191763920942 75.51841938705184,228.8449016358354 73.72451046272181,228.78665564389667 70.0839305871632,228.61191763920942 68.65935585298575,227.79647305171238 67.70963936392218,224.47643903974677 66.70716084749438,219.2342486253474 67.23478111904114,218.6517806466436 68.71211788034998,219.17600184876937 72.2999357287772,219.0595082815271 73.40793829970062,218.8847678952152 74.88527506077662,219.0595082815271 78.20928277354687,218.71002746582963 81.42776643135585,218.82652109023184 83.2744373830501,218.6517806466436 84.43520198110491,218.36054647900164 85.49044252443127,218.36054647900164 85.70149063342251,218.01106532092672 85.59596657892689,216.4383979915874 86.01806279667653,215.85592773085227 88.07578185666353,215.56469242216554 88.60340212867595,215.21520989469718 87.81197172077373,212.36109618167393 88.02301982953213,206.36159544304246 88.02301982953213,201.7017542386311 87.97025780240074,197.91561085212743 87.91749577503651,191.74124161724467 87.91749577503651,181.02334172761766 87.81197172077373,174.033320269431 87.81197172077373,172.81005947262747 87.91749577503651,168.55775562208146 87.91749577503651,164.8879387716879 89.71140469913371,164.65493388968753 91.71636173245497,165.00444118399173 93.61579471081495,164.65493388968753 96.09560998855159,164.4801801785361 96.09560998855159,163.43165701127145 96.7287543148268,163.48990833869902 101.42457473417744,163.43165701127145 103.79886595718563,163.43165701127145 106.38420528941788,161.74236644501798 106.64801542507485,160.1695750799263 105.90934704453684,160.1695750799263 105.64553690864705,161.91712082683807 105.7510609633755,163.14040030253818 105.11791663710028,163.1986516538891 103.53505582129583,163.31515434221365 97.2563745866064,163.43165701127145 97.09808850497939,163.5481596615864 101.68838487006724,163.48990833869902 102.37429122324102,163.43165701127145 105.27620271849446,163.08214894641424 107.7560179962311,162.67438932106597 109.39164083870128,162.44138371630106 110.60516746412031,162.09187516622478 115.03717774734832,160.11132348142564 114.66784355696291,157.43174480221933 114.66784355696291,155.85894393298076 114.50955747556873,151.25702517549507 114.77336761145853,147.87838237715187 114.66784355696291,144.208459135436 114.72060558432713,142.40261695801746 114.82612963858992,139.95598477876047 114.45679544843733,139.95598477876047 114.50955747556873,138.38314537453698 114.98441572021693,133.43159126944374 115.67032207385637,127.66444374009734 114.93165369331837,126.96539238566766 114.56231950270012,124.98474316071952 115.19546382897533,123.81965281174053 116.93661072594114,124.05267103365622 119.31090194918215,123.35361613926943 120.84100073738955,122.94583380088443 122.16005141707137,122.42154188046698 122.84595777047798,121.31470211595297 123.6901502055116,121.54772115673404 123.58462615101598,121.72248538705753 124.27053250442259,120.90691861184314 124.7453907490708,119.39229212666396 127.33073008107021,118.11068258818705 128.22768454323523,117.17860147694591 129.49397319555283,116.47953984420747 129.75778333167545,116.30477432889165 131.70997833739966,114.79013806919102 132.87074293522164,114.14932945248438 132.5014087453019,110.47923264518613 132.23759860917926,108.7898166552186 132.07931252755225,104.42061881016707 132.5014087453019,100.51744609506568 132.9762669899501,99.06103289214661 132.29036063631065,98.88626310799737 132.07931252755225,95.79865652311128 132.34312266367488,91.66240788187133 132.55417077243328,90.08946196053876 133.13455307134427,86.76878695329651 133.66217334312387,83.04029132094001 133.18731509847566,82.80725969665218 129.75778333167545,83.3315807444742 128.80806684237905,83.79764357430395 128.54425670625642,82.6907438558992 129.81054535903968,81.35081031866139 128.70254278788343,80.94300395966275 128.43873265199363,80.76822973426897 128.80806684237905,79.13700156589039 128.38597062486224,78.78745218698168 128.28044657059945,78.67093568941345 127.59454021696001,78.67093568941345 127.1724439994432,78.72919394064229 126.64482372789644,78.67093568941345 126.06444142898545,77.62228635326028 126.53929967363365,77.56402801163495 125.6951072383672,71.79642862128094 125.74786926573142,71.79642862128094 125.74786926573142,71.50513448484708 125.80063129262999,71.8546874341555 125.95891737448983,71.91294624231523 127.1724439994432,69.46607219846919 126.80310980952345,75.81627554766601 127.11968197231181,78.84571042878088 125.6951072383672,71.79642862128094 125.74786926573142,71.79642862128094 124.481580613181,71.97120504581835 125.00920088519342,73.66070827504154 125.85339331999421,71.8546874341555 125.6951072383672,74.35981188848382 126.53929967363365,76.3406017369125 126.48653764626943,76.92318593902746" stroke="#00AFAA" stroke-linecap="round" stroke-linejoin="round" stroke-width="1"><title>2025-09-12 11.5km</title><desc>15784793735</desc></polyline></svg>