<?xml version="1.0" encoding="utf-8" ?>
<svg baseProfile="full" height="300mm" version="1.1" viewBox="0,0,200,300" width="200mm" xmlns="http://www.w3.org/2000/svg" xmlns:ev="http://www.w3.org/2001/xml-events" xmlns:xlink="http://www.w3.org/1999/xlink"><defs /><rect fill="#f5f5f5" height="300" rx="1" ry="1" width="200" x="0" y="0" /><text fill="#006cb8" style="font-size:12px; font-family:MGI-Regular; font-weight:bold;" x="10" y="20">超过5公里的活动</text><text fill="#006cb8" style="font-size:4px; font-family:MGI-Regular" x="10" y="280">Runner</text><text fill="#006cb8" style="font-size:9px; font-family:Arial" x="10" y="290">XHH</text><text fill="#006cb8" style="font-size:4px; font-family:MGI-Regular" x="65" y="280">特殊的活动</text><rect fill="yellow" height="2.6" rx="1" ry="1" width="2.6" x="65" y="283" /><text fill="#006cb8" style="font-size:3px; font-family:MGI-Regular" x="70" y="285.5">大于 20.0 km</text><rect fill="red" height="2.6" rx="1" ry="1" width="2.6" x="65" y="287" /><text fill="#006cb8" style="font-size:3px; font-family:MGI-Regular" x="70" y="289.5">大于 40.0 km</text><text fill="#006cb8" style="font-size:4px; font-family:MGI-Regular" x="120" y="280">数据</text><text fill="#006cb8" style="font-size:3px; font-family:MGI-Regular" x="120" y="285">次数: 6</text><text fill="#006cb8" style="font-size:3px; font-family:MGI-Regular" x="120" y="290">周均次: 3.0</text><text fill="#006cb8" style="font-size:3px; font-family:MGI-Regular" x="141" y="285">所有: 48.8 km</text><text fill="#006cb8" style="font-size:3px; font-family:MGI-Regular" x="141" y="290">平均: 8.1 km</text><text fill="#006cb8" style="font-size:3px; font-family:MGI-Regular" x="167" y="285">最少: 5.0 km</text><text fill="#006cb8" style="font-size:3px; font-family:MGI-Regular" x="167" y="290">最多: 11.5 km</text><polyline fill="none" points="47.564575645606965,66.08886715397239 48.18450184492394,64.42650896450505 49.33579335780814,66.48000992159359 52.966789667960256,67.26229507359676 56.3321033208631,68.14236525841989 56.154981549829245,69.80471828614827 56.420664206612855,70.39143056795001 56.59778597764671,71.66263952560257 56.06642066407949,74.10726834100205 55.97785977832973,76.06296779797412 55.1808118079789,78.40980292798486 54.91512915119529,79.68100336869247 55.003690036479384,81.73447815107647 55.09225092222914,86.23255345830694 55.09225092222914,88.4815847723512 55.62361623626202,90.43726074055303 55.71217712154612,92.0017992145149 55.535055350512266,93.46855217637494 59.254612545482814,93.17520172777586 62.708487085066736,92.88185120734852 62.708487085066736,94.05525285797194 63.239852398168296,95.32643668074161 66.51660516578704,95.03308668744285 70.23616236168891,96.30426947202068 71.91881918767467,95.71756989322603 75.99261992610991,95.61978660197929 77.67527675256133,95.8153531763237 81.21771217696369,94.25081968749873 82.10332103306428,92.97963472199626 81.48339483328164,90.5350444552023 81.12915129167959,88.67715251282789 80.59778597764671,87.3081776574254 80.86346863443032,85.05914413824212 81.12915129167959,83.29902800137643 81.83763837628067,83.39681229903363 83.16605166066438,83.39681229903363 83.96309963101521,83.0056750603253 85.46863468596712,83.20124369545374 85.91143911378458,83.0056750603253 84.40590405883268,83.20124369545374 82.10332103306428,83.20124369545374 80.59778597764671,83.0056750603253 79.97785977832973,82.8101063928334 79.80073800729588,80.3654953542864 80.24354243511334,78.11644878832158 79.80073800729588,76.55189216299914 79.97785977832973,74.69397851382382 80.06642066407949,70.39143056795001 80.06642066407949,67.45786628173664 79.80073800729588,64.91543808346614 79.88929889257997,63.15529232064728 79.97785977832973,61.884074326371774 79.80073800729588,60.22171029646415 79.71217712154612,57.483693918795325 80.3321033208631,56.89697530888952 80.42066420661286,54.158951324177906 79.44649446476251,53.37665760645177 78.38376383762807,53.37665760645177 78.38376383762807,51.71428175875917 77.67527675256133,50.34526462072972 71.56457564560696,52.00764237018302 70.23616236168891,52.20321607135702 67.31365313660353,52.10542922478635 65.18819188186899,52.398789740516804 62.61992619885132,52.78993698291015 60.22878228779882,53.474444349412806 55.71217712154612,53.67001781077124 54.64944649441168,54.25673800276127 53.852398524060845,54.25673800276127 52.8782287822105,53.57223108399194 50.57564575597644,54.0611646376783 49.33579335780814,54.158951324177906 47.83025830285624,54.158951324177906 46.05904059065506,54.94124453049153 44.19926199270412,54.45231133676134 43.57933579292148,53.76780452951789 39.859778597485274,53.37665760645177 37.73431734321639,53.474444349412806 37.46863468596712,52.10542922478635 37.91143911425024,51.32313416467514 37.91143911425024,49.074033018318005 37.73431734321639,48.38952313491609 37.291512914933264,47.509438423556276 36.31734317354858,44.96696784358937 36.58302582986653,43.69573052797932 23.387453875038773,52.98551055614371 27.10701107000932,50.638625567778945 29.055350553244352,50.736412534024566 30.206642066128552,50.247477622004226 30.206642066128552,49.46518134768121 28.52398523967713,49.367394277243875 27.815498155076057,50.247477622004226 26.487084870692343,49.856329548871145 25.778597786091268,50.247477622004226 26.04428044287488,50.736412534024566 25.867158671375364,50.443051610840484 26.398523985408247,52.398789740516804 25.778597786091268,52.692150184186175 21.261992619838566,52.10542922478635 19.756457564420998,53.083297330886126 19.66789667867124,54.25673800276127 19.13653136510402,56.21246989967767 18.07380073843524,55.234604350989684 16.479704797267914,55.62575066648424 14.885608856100589,55.821323776384816 14.442804427817464,56.40804291400127 15.062730627134442,58.16819860052783 14.885608856100589,59.43942054186482 14.354243542067707,59.83056548319291 14.0,61.78628827095963 14.177121771033853,62.76414846617263 16.3025830257684,63.44865012774244 18.959409594070166,63.44865012774244 19.13653136510402,63.15529232064728 17.98523985221982,63.93757964600809 17.98523985221982,64.13315139745828 18.6051660515368,64.32872311677784 18.250922509469092,63.5464360472979 18.6051660515368,64.13315139745828 17.808118081185967,63.644221959169954 17.36531365290284,63.644221959169954 18.162361623253673,63.350864200037904 17.542435424402356,65.40436700254213 15.505535055417567,60.90621341194492 15.328413283918053,63.93757964600809 15.239852398168296,63.839793758350424 15.771217712201178,63.74200786242727 16.036900368519127,64.13315139745828 17.71955719543621,64.5242948041996 18.339483394753188,64.71986645983998 18.87084870832041,63.93757964600809 18.428044280502945,62.275218468741514 18.693726937286556,60.71064113313332 18.782287823036313,60.31949647993315 18.693726937286556,59.92835169832688 18.693726937286556,58.9504891858669 18.782287823036313,58.26598495175131 19.047970479819924,58.46155762998387 19.047970479819924,57.38590750400908 19.579335793387145,56.016896853921935 21.43911439087242,56.21246989967767 24.2730627306737,55.62575066648424 25.778597786091268,55.821323776384816 26.221402213908732,55.919110319111496 26.664206642191857,55.33239094167948 27.018450184259564,55.136817752267234 28.169741697143763,55.72353722550906 30.118081180844456,55.919110319111496 31.269372693262994,56.016896853921935 32.86346863443032,56.50582940876484 35.60885608848184,56.70140237477608 36.84870848665014,56.79918884555809 38.17712177103385,57.77705311612226 38.35424354206771,59.63499302882701 38.442804427817464,60.71064113313332 38.974169741850346,61.00399953953456 39.94833948323503,60.61285498167854 41.542435424402356,60.41728265513666 41.09963099611923,60.31949647993315 41.09963099611923,60.22171029646415 41.276752767618746,60.02613790577743 42.16236162325367,59.92835169832688 43.313653136603534,60.22171029646415 44.19926199270412,61.395143968984485 43.93357933545485,62.86193444195669 43.313653136603534,63.44865012774244 43.40221402188763,62.56857649097219 43.22509225085378,62.66636248282157 43.40221402188763,63.0575063690776 42.5166051662527,64.8176522757858 42.60516605107114,65.20879545912612 41.71955719543621,65.99108144186903 41.89667896647006,67.06672383355908 42.428044280502945,66.96893820131663 42.07380073796958,66.57779559353366 41.71955719543621,67.26229507359676 41.98523985221982,67.16450945741963 41.276752767618746,67.3600806815084 43.13653136510402,66.96893820131663 43.93357933545485,67.45786628173664 43.845018450170755,67.55565187369939 43.845018450170755,67.75122303399257 43.047970479819924,67.26229507359676 43.047970479819924,67.55565187369939 42.78228782257065,67.94679416203871 42.5166051662527,67.94679416203871 43.22509225085378,67.84900860209018 43.845018450170755,67.6534374577459 43.756457564421,68.14236525841989 44.376383763272315,68.63129285909235 44.55350553477183,68.24015079438686 44.110701106954366,68.04457971430384 44.464944649487734,68.14236525841989 43.13653136510402,68.43572184268851 42.60516605107114,68.43572184268851 42.87084870832041,67.26229507359676 42.87084870832041,66.57779559353366 44.02214022167027,65.59993851429317 45.70479704765603,62.9597204097081 46.32472324697301,62.47079049155582 47.298892988823354,61.49293005676009 49.4243542435579,60.61285498167854 50.22140221390873,60.41728265513666 51.19557195575908,58.9504891858669 50.398523984942585,57.28812108072452 48.450184501707554,56.79918884555809 47.298892988823354,56.99476176360622 45.79335793387145,57.28812108072452 44.996309963054955,58.16819860052783 39.06273062713444,55.136817752267234 44.8191881920211,46.82492764503695 46.678966789506376,48.29173597658519 47.74169741664082,52.00764237018302 44.64206642052159,47.21607670933008 44.9077490773052,47.31386395543814 44.996309963054955,47.411651193513535 45.35055350558832,47.8028000658378 45.261992619838566,48.78067168756388 45.70479704765603,48.38952313491609 45.88191881868988,48.487310285214335 44.28782287845388,47.90058726409916 44.730627306271344,48.29173597658519 45.70479704765603,50.051903601386584 45.527675276622176,46.727140359114856 45.261992619838566,45.8470544249285 44.996309963054955,46.92271492292639 44.996309963054955,47.020502192899585 44.996309963054955,47.020502192899585 45.616236162837595,47.60722564556636 45.08487084833905,47.11828945518937 44.19926199270412,45.8470544249285 44.64206642052159,49.074033018318005 44.55350553477183,51.71428175875917 44.19926199270412,46.92271492292639 44.110701106954366,47.020502192899585 44.28782287845388,48.68288456136361 43.845018450170755,47.11828945518937 44.02214022167027,46.92271492292639 43.49077490763739,46.92271492292639 43.756457564421,45.651479684980586 43.22509225085378,46.727140359114856 43.93357933545485,47.21607670933008 44.9077490773052,48.19394881045446 44.19926199270412,47.8028000658378 43.756457564421,48.29173597658519 44.28782287845388,48.58509742736351 43.756457564421,46.82492764503695 44.19926199270412,49.17182011285331 44.28782287845388,46.62935306492727 43.845018450170755,46.53156576305628 44.110701106954366,46.1404164750129" stroke="#00AFAA" stroke-linecap="round" stroke-linejoin="round" stroke-width="1"><title>2025-09-19 5.2km</title><desc>15861009922</desc></polyline><polyline fill="none" points="154.05137726198882,57.43238920078147 152.89384090155363,63.71645830641501 151.25399772450328,64.24900514341425 150.67522954428568,64.14249579340685 150.0964613640681,64.46202381700277 157.33106361655518,66.59220864041708 160.03198179090396,66.37919031467754 161.57536360435188,67.87031786330044 160.99659542459995,70.95907664555125 160.32136588124558,75.53894688503351 159.6461363369599,80.86435716273263 159.6461363369599,89.49147564312443 158.58506134012714,91.40860532969236 159.26029088394716,93.32573219691403 158.97090679360554,94.6038152090041 160.2249045171775,106.0 160.03198179090396,105.25445824593771 159.6461363369599,105.46747021912597 160.41782724438235,105.46747021912597 159.5496749742888,105.89349406131078 158.68152270372957,103.33734892087523 159.16382952034473,99.2901088653598 159.26029088394716,97.05347081250511 158.3921386138536,94.81682892225217 158.00629315990955,89.91750470607076 158.58506134012714,79.05372010939755 159.93552042730153,72.76972494251095 160.80367269786075,66.27268113882747 159.26029088394716,66.48569948179647 151.8327659042552,67.33777250617277 151.25399772450328,65.63362590072211 152.70091817481443,63.29042068019044 153.569070444908,61.69277834240347 153.569070444908,58.0714484595228 151.25399772450328,56.4737997247139 147.58846591599286,57.53889909887221 147.2990818261169,58.28446814289782 146.23800682928413,49.01807973580435 146.1415454656817,46.781355423037894 146.43092955555767,47.1008877028944 146.04508410254493,46.035779799101874 146.23800682928413,45.50322552071884 147.00969773577526,52.85245534253772 145.7557000122033,46.142290628515184 146.1415454656817,46.142290628515184 153.569070444908,50.82875851134304 147.4920045528561,50.29620619153138 146.62385228229687,48.16599473601673 146.1415454656817,47.31390917894896 146.04508410254493,45.92926896107383 147.68492727959529,50.50922714557964 145.85216137580574,46.781355423037894 144.98400910571218,46.99437695147935 144.88754774210975,54.55661865801085 146.33446819288656,53.49151684704702 146.04508410254493,46.24880144954659 146.04508410254493,46.99437695147935 144.79108637850732,49.76365365413949 146.04508410254493,46.142290628515184 146.43092955555767,46.35531226173043 146.5273909191601,46.88786619156599 147.68492727959529,46.781355423037894 146.5273909191601,49.124590321909636 144.98400910571218,47.42041990417056 146.62385228229687,46.35531226173043 145.46631592232734,47.20739844534546 145.27339319558814,48.48552667640615 146.1415454656817,46.035779799101874 145.65923864860088,46.99437695147935 145.46631592232734,47.1008877028944 146.23800682928413,46.99437695147935 145.9486227389425,45.716247258358635 155.4018363491632,57.53889909887221 147.2990818261169,53.065475878538564 147.2990818261169,53.598027067258954 147.9743113699369,54.76963891577907 147.78138864366338,54.343598365434445 138.42463639611378,56.899839579011314 147.1061590993777,52.74594506144058 147.00969773577526,52.74594506144058 147.20262046298012,53.065475878538564 146.62385228229687,51.78735213878099 146.5273909191601,51.574331393581815 146.5273909191601,46.674844645895064 146.04508410254493,46.781355423037894 146.43092955555767,48.698547926265746 146.04508410254493,46.142290628515184 146.04508410254493,51.46782100806013 146.23800682928413,46.24880144954659 146.1415454656817,46.035779799101874 146.1415454656817,46.035779799101874 146.1415454656817,46.24880144954659 145.9486227389425,45.92926896107383 145.56277728499845,45.183692849823274 145.56277728499845,47.20739844534546 148.36015682294965,46.56833385990467 147.9743113699369,45.183692849823274 146.91323637310416,46.35531226173043 146.1415454656817,44.864160099765286 150.86815227055922,51.254800210590474 148.36015682294965,48.48552667640615 145.56277728499845,45.50322552071884 146.04508410254493,45.92926896107383 145.9486227389425,45.92926896107383 145.9486227389425,45.716247258358635 146.33446819288656,44.75764916592743 146.1415454656817,46.035779799101874 149.42123182024807,56.04775973141659 145.08047046838328,52.21339352475479 145.46631592232734,46.142290628515184 145.65923864860088,45.82275811419822 146.23800682928413,44.970671025221236 148.26369546027854,51.254800210590474 146.43092955555767,44.11858337931335 146.1415454656817,45.92926896107383 145.9486227389425,45.92926896107383 146.81677500950173,46.142290628515184 146.23800682928413,45.50322552071884 145.9486227389425,46.035779799101874 146.81677500950173,45.50322552071884 146.1415454656817,44.43811631179415 145.46631592232734,46.35531226173043 147.87785000633448,51.893862498458475 147.78138864366338,53.704537278739735 146.04508410254493,46.035779799101874 146.04508410254493,46.035779799101874 145.7557000122033,46.674844645895064 145.7557000122033,46.35531226173043 146.23800682928413,45.07718194171321 146.43092955555767,45.29020374873653 146.62385228229687,46.35531226173043 145.85216137580574,46.142290628515184 146.04508410254493,46.142290628515184 146.33446819288656,44.75764916592743 146.23800682928413,46.035779799101874 146.1415454656817,45.609736394137144 146.1415454656817,46.035779799101874 146.23800682928413,45.29020374873653 146.81677500950173,44.43811631179415 146.33446819288656,44.6511382231256 146.33446819288656,45.29020374873653 145.85216137580574,46.142290628515184 146.33446819288656,44.75764916592743 146.91323637310416,45.82275811419822 146.1415454656817,45.29020374873653 145.7557000122033,46.035779799101874 146.33446819288656,44.75764916592743 146.23800682928413,45.29020374873653 145.85216137580574,46.142290628515184 146.1415454656817,46.035779799101874 145.56277728499845,46.24880144954659 146.33446819288656,45.183692849823274 146.23800682928413,45.39671463915147 145.85216137580574,46.035779799101874 146.1415454656817,46.035779799101874 146.1415454656817,46.142290628515184 145.9486227389425,45.82275811419822 146.33446819288656,45.07718194171321 147.68492727959529,46.88786619156599 146.1415454656817,46.035779799101874 145.9486227389425,46.035779799101874 146.04508410254493,46.24880144954659 146.7203136458993,43.69253934768494 146.33446819288656,44.75764916592743 146.23800682928413,45.07718194171321 146.62385228229687,45.50322552071884 146.1415454656817,46.142290628515184 146.33446819288656,44.75764916592743 146.33446819288656,45.29020374873653 146.62385228229687,51.254800210590474 146.1415454656817,46.142290628515184 146.1415454656817,46.035779799101874 146.43092955555767,45.92926896107383 145.65923864860088,46.99437695147935 145.46631592232734,49.01807973580435 146.81677500950173,44.864160099765286 146.04508410254493,45.716247258358635 146.04508410254493,45.82275811419822 147.68492727959529,46.781355423037894 146.1415454656817,46.142290628515184 146.1415454656817,46.035779799101874 147.20262046298012,46.99437695147935 145.7557000122033,47.73995202733204 146.1415454656817,46.35531226173043 146.1415454656817,46.142290628515184 146.81677500950173,45.609736394137144 146.1415454656817,46.142290628515184 146.1415454656817,45.07718194171321 148.93892500316724,51.254800210590474 146.1415454656817,46.035779799101874 146.7203136458993,47.42041990417056 145.85216137580574,46.142290628515184 146.04508410254493,45.29020374873653 146.04508410254493,45.183692849823274 146.5273909191601,45.29020374873653 146.04508410254493,45.183692849823274 146.23800682928413,45.29020374873653 146.23800682928413,46.035779799101874 146.04508410254493,45.92926896107383 146.43092955555767,46.88786619156599 146.81677500950173,44.75764916592743 146.04508410254493,45.29020374873653 146.43092955555767,44.864160099765286 146.43092955555767,47.63344132818747 146.1415454656817,46.142290628515184 145.9486227389425,45.82275811419822 146.04508410254493,45.07718194171321 145.7557000122033,46.674844645895064 146.1415454656817,46.035779799101874 145.9486227389425,46.142290628515184 146.1415454656817,46.035779799101874 145.85216137580574,46.142290628515184 146.5273909191601,52.10688319138717 146.04508410254493,46.035779799101874 146.23800682928413,45.92926896107383 146.1415454656817,46.035779799101874 146.1415454656817,45.82275811419822 146.62385228229687,47.84646271751262 146.23800682928413,45.716247258358635 146.23800682928413,45.82275811419822 146.23800682928413,45.716247258358635 145.7557000122033,45.92926896107383 146.1415454656817,46.24880144954659 146.1415454656817,46.035779799101874 146.23800682928413,46.24880144954659 146.04508410254493,45.07718194171321 146.23800682928413,45.609736394137144 146.1415454656817,46.035779799101874 146.1415454656817,46.035779799101874 146.1415454656817,46.035779799101874 146.04508410254493,45.92926896107383 149.80707727372646,53.38500661798753 146.04508410254493,45.92926896107383 146.1415454656817,46.142290628515184 145.85216137580574,46.142290628515184 146.1415454656817,45.716247258358635 146.23800682928413,45.716247258358635 145.85216137580574,45.716247258358635 146.23800682928413,45.50322552071884 146.04508410254493,45.50322552071884 146.1415454656817,45.609736394137144 145.7557000122033,45.39671463915147 146.04508410254493,45.39671463915147 146.1415454656817,45.183692849823274 146.33446819288656,45.29020374873653 146.5273909191601,45.716247258358635 146.23800682928413,45.50322552071884 146.23800682928413,45.50322552071884 146.04508410254493,45.92926896107383 145.3698545587249,47.31390917894896 146.1415454656817,46.035779799101874 146.1415454656817,46.035779799101874" stroke="#00AFAA" stroke-linecap="round" stroke-linejoin="round" stroke-width="1"><title>2025-09-18 11.3km</title><desc>15852837758</desc></polyline><polyline fill="none" points="17.27170166093856,164.61266782775056 17.971168912597932,164.56284026807407 18.82858038228005,164.78706422253163 18.851143842097372,164.08947804485797 18.738326543476433,162.4202474981721 20.61109370109625,161.79739793817862 21.513632090296596,161.69774189038435 23.38639924803283,161.42368759136298 24.198683798196726,161.47351566405268 24.785333751235157,159.80427079525543 25.50736446271185,157.28792916797101 26.026324036414735,155.7681484220957 26.251958633656614,155.19511437081383 26.951425885315984,153.72515253099846 27.267314321477897,152.2053540238703 27.380131620215252,150.63571810381836 28.37292384833563,149.81352463446092 29.072391099995002,149.73877966374857 30.854904418694787,149.51454464130802 30.742087120073847,149.34013950978988 31.19335631467402,149.24047938993317 32.682544656912796,148.8916687135643 34.532748354715295,148.44319725755486 35.50297712313477,148.41828215736314 36.179880915093236,148.39336705504684 37.21780006273184,148.34353684441885 40.06079598865472,149.165734278562 41.16640551551245,149.51454464130802 43.828893763711676,150.41148374124896 45.27295518643223,150.63571810381836 46.13036665623076,150.13741929622483 49.46975869638845,146.37523700788734 52.01942964585032,144.85540185598074 52.87684111564886,144.35709359915927 54.072704481426626,143.85878452766337 54.81729865248781,143.709291647363 56.03572547796648,143.4601366839779 59.14948292088229,143.80895357578993 60.70636164210737,143.73420713254018 61.42839235358406,143.63454517975333 63.48166718904395,143.60962968648528 65.53494202450383,143.48505218949867 66.18928235664498,143.50996769298217 67.38514572242275,143.3853901552502 70.09276089002378,143.23589704275946 71.13068003766239,143.5348831943411 72.95832027576398,143.5348831943411 75.53055468515959,143.709291647363 76.20745847700164,143.83386905273073 76.54591037298087,143.88370000055875 76.79410842992365,143.210981516866 76.68129113141913,142.46351479366422 76.83923534944188,141.2177328481339 77.1551237857202,138.97531251481269 77.17768724542111,137.9537600041367 77.6515198998386,136.43388285883702 77.85459103726316,135.91064471073332 78.19304293335881,135.63656722704764 78.48636790981982,135.7362317951047 78.75712942657992,135.78606406683684 78.9827640238218,135.86081245931564 79.5017235976411,135.91064471073332 80.7427138829371,136.35913460695883 81.14885615801904,136.13488974134088 80.87809464125894,136.2096380481962 80.94578502036165,136.43388285883702 81.32936383585911,136.458798938751 82.75086179887876,136.458798938751 83.24725791299716,136.98203614575323 83.85647132562008,137.13153232561308 84.39799435914028,137.03186821381678 84.64619241619948,136.2594702425995 84.48824819806032,135.48707031391677 85.41335004707798,134.96383054024773 85.63898464443628,135.01366293837782 86.0,134.76450086638215 85.93230962089729,134.76450086638215 85.7292384832399,134.78941708276398 85.61642118461896,134.86416571962764 84.80413663445506,135.11332771004527 84.46568473835941,135.96047695397283 83.76621748681646,136.18472194799688 83.26982137269806,136.01030918917968 82.95393293641973,136.01030918917968 82.99905985593796,136.06014141612104 82.99905985593796,135.78606406683684 82.97649639612064,136.01030918917968 82.25446568476036,136.13488974134088 81.37449075526092,135.68639951513615 80.17862738959957,136.035225303669 79.59197743656114,135.9355608333717 78.7120025070617,135.7362317951047 78.30586023197975,135.71131565610995 78.32842369168065,135.76114793200395 78.03509871521965,136.01030918917968 77.83202757756226,136.8823719850625 77.20025070523843,137.9039280867146 76.79410842992365,140.1961878533475 76.41052961454261,142.11469636220136 76.13976809778251,143.210981516866 75.23722970858216,143.48505218949867 73.56753368850332,143.68437616020674 72.2362895644037,143.709291647363 70.58915700414218,143.11131939303596 67.65590723906644,143.1860659889644 64.56471325596794,143.33555912590236 62.849890316603705,143.5348831943411 62.646819178946316,143.43522117644898 61.69915387034416,143.80895357578993 60.99968661868479,143.88370000055875 60.345346286543645,143.55979869377916 58.87872140400577,143.58471419117996 58.11156377324369,143.33555912590236 58.1566906926455,143.78403809672454 57.97618301480543,143.85878452766337 57.20902538404334,143.709291647363 55.90034471952822,143.80895357578993 55.65214666258544,143.63454517975333 54.569100595545024,144.00827733468032 53.7568160451483,144.40692446148023 52.696333437925205,144.80557106691413 52.357881541829556,144.95506340957945 51.861485427827574,145.154386418988 50.77843936078716,145.82710061362013 50.41742400510702,146.101168934023 50.101535568828695,146.47489806459635 49.063616421306506,147.37184610849363 48.43183954874985,147.94489486594102 47.213412723271176,149.1906493177521 45.94985897850711,150.41148374124896 44.93450329056941,150.73537776761805 43.6258226261707,150.51114347830298 42.99404575373046,150.18724921371904 41.73049200873356,149.83843962068204 40.692572861211374,149.564374660491 40.24130366672762,149.46471461388865 39.902851770748384,150.08758937069797 39.22594797878992,152.55416090853396 38.97774992173072,153.70023786250385 38.7069884048542,154.44767703290563 38.34597304929048,155.59374686828232 37.96239423379302,156.0172933258582 37.57881541841198,156.21660910226637 37.308053901651874,156.3411813963612 36.76653086813167,156.39101029970334 36.563459730590694,155.59374686828232 36.473205891554244,154.22344547419925 36.3378251332324,154.7715667709126 34.623002193751745,154.89613965552417 32.56972735829186,154.7964813519502 31.238483234192245,154.7964813519502 29.907239109976217,155.07054160838015 28.192416170495562,155.54391783470055 28.01190849277191,155.6934049112606 27.650893136975355,156.04220780509058 27.17706048267428,156.29135248487 26.319649012875743,157.98553090775385 25.84581635845825,159.15650166835985 25.529927922296338,161.2492892727023 24.920714509673417,162.1461938485736 24.672516452614218,161.62299983334378 23.905358821619302,161.77248392926413 22.506424318416975,161.79739793817862 21.49106863059569,161.92196795187192 20.09213412727695,162.27076371983276 19.054214979638346,162.27076371983276 18.715763083659112,162.44516145414673 18.783453462878242,164.28878854424693 18.58038232533727,164.96146051754477 17.745534315239638,165.1109429768112 16.88812284555752,165.36008024594048 16.52710748987738,165.31025280835456 16.75274208711926,164.8368917455373 17.158884362201206,164.338616148656 17.046067063580267,164.11439186445205 16.617361328797415,164.06456422334304 16.662488248199224,163.46663189481478 16.842995926039293,163.46663189481478 16.662488248199224,162.96835405859747 16.52710748987738,162.74412876658607 16.41429019125644,162.94344014537637 16.098401754978113,163.06800969093456 15.80507677863352,163.2922347447893 15.57944218115881,162.96835405859747 15.80507677863352,162.81887054891558 15.534315261640586,163.2673208580527 15.421497963136062,160.32746793149272 15.444061422836967,160.05341240068083 15.466624882537872,160.0783265499922 15.466624882537872,160.12815484264866 15.64713256037794,160.6015232159407 15.57944218115881,160.75100781270885 15.421497963136062,160.12815484264866 15.444061422836967,160.05341240068083 15.421497963136062,160.0783265499922 15.511751801939681,160.0284982493322 15.444061422836967,160.15306898587733 16.053274835459888,161.47351566405268 15.444061422836967,160.0783265499922 15.353807583916932,160.7260937183746 15.444061422836967,160.651351423061 15.173299905960448,161.12471898412332 15.421497963136062,160.1032406973245 15.376371043617837,160.0284982493322 15.398934503435157,160.05341240068083 15.421497963136062,160.0284982493322 15.398934503435157,160.05341240068083 15.128172986558639,160.32746793149272 15.444061422836967,160.00358409591718 15.398934503435157,160.15306898587733 15.466624882537872,160.0783265499922 15.466624882537872,159.879013298254 15.489188342238776,160.22781140333973 15.421497963136062,160.05341240068083 15.444061422836967,160.0783265499922 15.421497963136062,160.0783265499922 15.444061422836967,159.9786699404358 15.421497963136062,160.0284982493322" stroke="#00AFAA" stroke-linecap="round" stroke-linejoin="round" stroke-width="1"><title>2025-09-17 10.4km</title><desc>15841686234</desc></polyline><polyline fill="none" points="119.56256800843403,147.01567506761057 119.28835690952837,147.6644757668837 118.97497279639356,148.39978226454696 119.21001088130288,148.96207477949793 119.05331882461905,150.38943001974258 119.01414581062272,150.25967061138363 118.97497279639356,150.82196115076658 118.73993471148424,152.11955242382828 118.50489662657492,152.8981056609191 118.62241566902958,154.2821974774124 118.66158868325874,155.1472530249739 118.9357997821644,156.1853178163583 118.38737758412026,157.22338057227898 118.3482045698911,157.95867379274569 118.46572361234576,158.5209561548254 119.79760609357618,158.73721844269312 121.48204570170492,158.60746108047897 122.30467899865471,158.65071353813983 123.44069640897214,158.60746108047897 124.3025027201511,158.82372333310195 125.39934711623937,158.86697577300947 126.06528835673817,158.9534806422016 127.3579978235066,158.86697577300947 128.0239390640054,158.73721844269312 128.1022850922309,159.38600477619912 128.0239390640054,159.77527619482134 128.29815016291104,159.77527619482134 129.199129488552,159.73202382904128 129.4733405872248,160.2510519841744 130.02176278550178,161.54862014597165 130.13928182795644,161.8081333966984 130.10010881372727,161.6783767871675 130.3351468986366,161.93788997424417 130.7268770399969,162.1974030341662 131.0010881391354,162.28390735920402 130.80522306845523,162.45691596687539 131.04026115336455,162.6731766469311 132.33297061990015,162.45691596687539 132.72470076172613,161.4188634728198 132.88139281817712,161.4188634728198 132.92056583217345,161.37561124147032 134.4483133838512,160.55381817315356 135.54515777993947,160.07804265574669 136.13275299221277,159.99153797022882 136.0935799779836,159.4725095606118 136.3677910771221,158.56420861944207 137.1904243743047,156.4015810584824 138.0130576712545,155.7095383730193 139.1490750813391,156.14206515744445 140.28509249165654,156.66109683230752 141.225244831061,157.26663314300822 143.14472252433188,158.86697577300947 143.9673558215145,159.60226671077544 144.63329706178047,159.86178091555485 144.90750816091895,160.46731356531382 145.65179542964324,159.60226671077544 146.20021762768738,158.99673307154444 146.55277475505136,158.30469377851114 147.06202393886633,157.35313827361097 147.80631120782346,157.22338057227898 147.80631120782346,157.3963908337464 148.3547334058676,158.21818880329374 148.90315560391173,157.7424111868895 149.64744287263602,157.30988571009948 150.07834602799267,157.35313827361097 151.01849836762995,156.5313389612129 152.3112078346312,156.05555982881924 153.0554951033555,155.6230329737009 153.83895538607612,154.54171429006965 154.89662676816806,153.6766577528906 155.79760609334335,153.11437024574843 156.30685527739115,152.8115998020803 157.12948857457377,152.20605839550262 157.9129488572944,151.4707571848994 159.00979325338267,150.82196115076658 160.0674646354746,149.9136453671672 160.9684439606499,149.4811134939082 162.80957562546246,148.7890617615776 164.96409140364267,148.09700912446715 167.3536452667322,147.01567506761057 169.19477693131194,146.36687357339542 170.36996735585853,146.1073527529661 170.91838955390267,145.7180712839181 172.56365614803508,145.45855014544213 173.4254624589812,145.4152966098918 174.95321001089178,144.93950748679345 175.97170837852173,144.5069715490681 177.38193688797764,142.7335705095902 178.00870511424728,142.17127137843636 179.92818280728534,139.922068880609 181.10337323183194,138.92722626560135 182.47442872682586,138.36492309105233 183.33623503800482,138.23516073517385 184.47225244832225,138.01889007125283 184.98150163237005,137.41333174234023 185.88248095777817,137.41333174234023 186.0,137.84587347650086 185.804134929087,139.01373439328745 185.5299238304142,139.23000465068617 185.4907508159522,139.01373439328745 185.45157780195586,139.1002425069746 185.60826985840686,138.97048033124884 185.0206746463664,138.71095588454045 185.3340587595012,138.45143131053192 184.9423286181409,138.40817720256746 184.74646354746073,138.49468541512033 184.47225244832225,138.75420996776666 184.5897714907769,138.66770179776358 184.0021762785036,138.75420996776666 161.90859630028717,148.5295421287301 160.10663764970377,150.08665801762254 160.10663764970377,150.21641746829846 159.7540805223398,150.38943001974258 158.2263329704292,151.12473273230717 156.81610446120612,152.16280541141168 155.01414581062272,153.5036462759017 154.07399347121827,154.195691844885 153.7997823720798,154.84448374409112 153.09466811735183,155.36351669116993 153.133841131581,155.32026396496803 150.2350380846765,156.7476020618342 149.80413492931984,157.1801279981446 149.17736670281738,157.7424111868895 147.92383025027812,157.30988571009948 147.37540805200115,157.1801279981446 146.98367791064084,157.35313827361097 146.70946681173518,157.52614849279053 146.70946681173518,158.17493631038815 146.67029379750602,158.04517881051288 146.3569096843712,158.65071353813983 145.92600652878173,159.08323791946168 145.06420021760277,159.77527619482134 144.71164309000596,159.86178091555485 144.24156692065299,159.81852855690522 143.45810663769953,159.16974275335087 142.0478781282436,158.04517881051288 139.85418933606707,156.57459158837446 138.7573449399788,155.79604375825147 138.05223068548366,155.32026396496803 137.3471164307557,154.9309892707679 136.48531011957675,154.71472542791162 134.56583242630586,154.7579782034736 133.31229597399943,154.58496707989252 132.60718171927147,154.71472542791162 131.62785636540502,154.45520869994652 129.55168661568314,154.49846149684163 129.15995647409,155.06074753392022 129.35582154500298,156.31507577229058 129.6692056581378,157.1801279981446 129.70837867236696,158.3911987397296 129.86507072881795,158.99673307154444 130.10010881372727,159.73202382904128 130.45266594109125,160.46731356531382 130.8443960826844,161.33235900642467 130.9227421109099,161.28910676800297 130.76605005422607,161.54862014597165 130.49183895532042,161.46211570076412 130.37431991286576,161.33235900642467 129.7475516863633,160.8565841887903 129.63003264414147,159.99153797022882 129.39499455899931,159.55901433099643 128.29815016291104,159.64551908688736 127.82807399332523,159.38600477619912 127.08378672436811,159.34275237872498 125.90859630028717,159.4725095606118 125.39934711623937,158.86697577300947 123.91077257855795,158.910228209279 122.3830250268802,159.08323791946168 120.54189336230047,158.65071353813983 119.95429815002717,158.6939659922209 118.46572361234576,158.56420861944207 118.42655059834942,157.87216876112507 118.50489662657492,157.35313827361097 118.7791077257134,156.96386507421266 119.01414581062272,156.4015810584824 119.09249183884822,155.9258018094697 118.81828073970973,154.9309892707679 118.8574537539389,154.9309892707679 118.81828073970973,154.36870309582446 118.81828073970973,153.54689915038762 118.81828073970973,152.8115998020803 119.05331882461905,151.60051629622467 119.13166485284455,150.08665801762254 119.24918389529921,148.4862888441712 118.97497279639356,148.27002236858243 118.58324265480042,148.1402624407492 118.70076169725507,147.4482089554367 118.38737758412026,147.05892847239738 117.133841131581,147.27519544272218 116.89880304643884,147.4482089554367 115.48857453721575,147.4482089554367 115.41022850899026,147.36170220613712 115.33188248099759,147.05892847239738 115.99782372126356,146.1073527529661 116.03699673525989,144.93950748679345 116.38955386262387,143.1228541735618 116.03699673525989,142.7335705095902 114.7051142542623,142.82007801526925 114.31338411290199,143.07960044720676 114.27421109890565,143.42563015871565 114.31338411290199,143.1228541735618" stroke="#00AFAA" stroke-linecap="round" stroke-linejoin="round" stroke-width="1"><title>2025-09-16 5.0km</title><desc>15826448404</desc></polyline><polyline fill="none" points="62.80934189702384,200.92344907246297 62.495826535858214,201.56633675354533 62.854129805695266,200.92344907246297 62.45103862718679,201.46743100101594 62.31667490093969,203.0993738527177 62.047947448678315,204.28623861743836 62.18231117492542,204.9291227266076 62.09273535734974,206.26434138679178 62.13752326625399,206.7588660689653 62.09273535734974,207.15448552387534 62.31667490093969,208.14353302976815 62.18231117492542,208.58860388014 61.77921999641694,208.88531759846956 61.55528045259416,209.231483419484 61.46570463501848,209.87436227611033 61.73443208751269,210.5172404499608 61.68964417860843,210.96230955503415 61.51049254368991,211.16011794097722 61.24176509142853,211.25902210979257 61.10740136541426,211.60518657322973 61.152189274085686,212.24806290870765 61.28655300009996,212.49532285594614 61.152189274085686,213.9788804181735 60.928249730495736,215.01736854825867 61.017825547838584,216.5009199292981 60.928249730495736,218.18227376567665 60.97303763916716,220.20978247438325 61.152189274085686,220.90210096590454 61.10740136541426,221.34716243523872 61.24176509142853,221.89112600893714 61.19697718275711,222.1383820171468 61.33134090877138,222.38563792448258 61.28655300009996,222.7317960250075 61.46570463501848,223.7702691387385 61.42091672634706,224.11642644746462 61.10740136541426,224.46258355822647 56.53903467487544,227.4296363882022 55.64327650028281,228.07249591790605 55.28497323021293,228.41865076654358 55.016245778184384,228.51755211537238 54.6579425081145,228.5670027838787 54.43400296429172,228.66590410855133 54.29963923827745,228.9131573496852 54.03091178601608,228.96260798582807 53.98612387711182,229.40766352892388 54.21006342070177,229.80326818156755 54.29963923827745,230.39667467569234 54.5235787818674,230.9900805882644 54.5235787818674,231.2867833264172 54.3892150556203,231.48458507092437 54.03091178601608,231.63293633708963 53.26951733743772,231.73183716082713 52.866426158929244,231.92963876010617 51.746728440513834,231.979089149856 51.38842517067678,232.1274402946583 50.94054608349688,232.1274402946583 50.268727452494204,232.42414247529814 49.28339346055873,232.62194384844042 48.701150646898896,232.81974515673937 47.85018038121052,232.91864578670356 46.68569475412369,232.77029483561637 46.37217939272523,233.06699670129456 46.193027758039534,233.56149948760867 46.28260357538238,234.99555528350174 46.50654311897233,235.34170617355267 46.95442220661789,235.53950659331167 47.13357384130359,235.93510723893996 46.82005848037079,236.2812575918506 46.775270571466535,236.5285077227163 46.999210115289316,237.22080755187199 47.13357384130359,237.22080755187199 46.50654311897233,237.41860735765658 46.416967301629484,237.66585702402517 46.73048266279511,239.74275023507653 46.73048266279511,240.33614698669408 46.64090684521943,240.6822948232293 46.73048266279511,241.12734175095102 46.64090684521943,241.52293874515453 46.73048266279511,242.70972817728762 46.50654311897233,244.09431290766224 46.551331027876586,244.93495209212415 46.37217939272523,245.2316479960573 46.327391484053805,245.47889447183115 46.416967301629484,246.07228560134536 46.28260357538238,246.6656761492486 46.416967301629484,247.11071867862483 46.327391484053805,247.75355731020682 46.416967301629484,248.59419141389662 46.416967301629484,249.28647744643968 46.551331027876586,250.2754561198526 46.416967301629484,250.8688425484579 46.50654311897233,251.75892110099085 46.551331027876586,254.23135465953965 46.327391484053805,254.97308275819523 46.416967301629484,255.9620521432371 46.37217939272523,256.70377812202787 46.50654311897233,257.2971582507598 46.416967301629484,258.1872273537447 46.551331027876586,259.0772951481049 46.59611893678084,260.21460209274665 46.23781566671096,262.2419700435712 46.416967301629484,262.4892095733085 46.46175521053374,262.9836883296957 46.73048266279511,263.18147971923463 46.59611893678084,264.56601763685467 44.849390496034175,264.56601763685467 42.923510420601815,265.2088377367472 42.29647969850339,265.2088377367472 42.20690388092771,265.2088377367472 42.341267607174814,265.1593900611042 42.20690388092771,265.10994238132844 41.93817642866634,265.25828540860675 41.669448976172134,265.5055237066117 41.04241825407371,265.752761903801 39.3404777222313,266.0 39.16132608731277,265.8516571543296 39.0269623612985,265.0604946974199 38.80302281747572,264.71436079748673 38.22078000404872,263.972644631227 38.08641627780162,263.9231968544191 37.86247673421167,264.0220924040186 37.817688825307414,263.972644631227 38.13120418670587,263.9231968544191 38.399931638967246,263.37927104416303 40.05708426213823,263.03313618316315 39.78835680964403,263.2309275564621 39.877932626986876,262.9836883296957 39.78835680964403,262.78589687566273 38.66865909146145,262.3903137735906 38.48950745631009,262.4397616754868 38.22078000404872,262.34086586761987 38.8925986350514,262.68700112437364 38.8925986350514,262.83534474519547 38.80302281747572,262.93424047215376 39.0269623612985,262.83534474519547 39.11653817864135,262.5881053567864 39.38526563090272,262.6375532426173 38.57908327365294,262.4397616754868 38.13120418670587,262.2419700435712 37.145870194537565,257.44550319208065 37.23544601188041,257.89053779811366 37.45938555547036,257.7916412471095 37.50417346437462,257.4949514978216 37.41459764679894,257.2971582507598 37.369809738127515,257.2971582507598 37.32502182922326,257.4949514978216 37.41459764679894,257.5938480971381 37.32502182922326,258.335572076845 37.45938555547036,258.4344685388496 37.54896137304604,257.6927446802729 38.22078000404872,256.60488137736684 38.08641627780162,256.8026748505654 38.22078000404872,257.74219296575757 38.08641627780162,257.5938480971381 39.11653817864135,257.5938480971381 39.743568900739774,256.60488137736684 39.4748414484784,257.1488132731174 39.65399308339693,257.000468259037 39.743568900739774,257.09936493902933 38.8925986350514,257.98943433270324 38.57908327365294,258.13777910452336 38.31035582139157,258.03888259403175 38.22078000404872,258.335572076845 38.22078000404872,257.64329639065545 38.847810726379976,257.74219296575757 38.44471954763867,257.24770992895355 38.22078000404872,256.8026748505654 38.31035582139157,257.09936493902933 38.22078000404872,256.90157156292116 38.31035582139157,257.000468259037 38.22078000404872,257.04991660115775 38.175992095377296,256.95101991295815 38.22078000404872,257.24770992895355 38.57908327365294,257.1488132731174 38.847810726379976,257.2971582507598 38.71344699990004,257.3960548823816 38.66865909146145,257.5443997995462 38.71344699990004,258.6322614144301 41.26635779766366,260.56073856481817 40.86326661915518,260.511290509603 41.04241825407371,260.46184245013865 41.26635779766366,260.56073856481817 41.75902479351498,260.21460209274665 41.893388519994915,260.21460209274665 38.7582349088043,259.4728804146289 38.7582349088043,259.3245359699358 38.847810726379976,259.3245359699358 39.071750269969925,259.72012107487535 39.11653817864135,260.0662578297197 39.295689813559875,260.2640501721762 39.56441726605408,260.412394386658 39.92272053589113,260.2640501721762 38.22078000404872,261.89583453244995 38.175992095377296,262.0441783472779 38.265567912720144,262.14307420357363 37.90726464288309,261.84638658631593 37.68332509929314,261.4508028703276 38.041628369130194,260.8574268121156 38.13120418670587,260.8079787809402 38.399931638967246,260.90687483910006 38.22078000404872,263.32982321904274 38.44471954763867,263.32982321904274 38.71344699990004,263.08258403261425 38.57908327365294,263.2803753897897 38.13120418670587,263.2803753897897 37.77290091663599,263.7254057073151 37.817688825307414,263.6759579104255 38.22078000404872,263.82430128898704 38.93738654372282,263.6265101094614 39.38526563090272,263.32982321904274 40.325811714166775,263.03313618316315 40.37059962307103,262.93424047215376 40.325811714166775,262.6375532426173 40.46017544064671,262.4892095733085 40.95284243649803,262.3903137735906 41.49029734125361,262.0441783472779 41.669448976172134,261.5991467939457 41.71423688507639,260.3629463192774 41.57987315882929,259.76956919475924 41.53508524992503,257.19826160313096 41.53508524992503,257.000468259037 41.26635779766366,256.60488137736684 41.31114570633508,256.20929423725465 41.53508524992503,255.9620521432371 41.93817642866634,255.81370683852583 42.56520715076476,255.8631552774459 42.96829832950607,255.764258395473 43.05787414708175,255.66536149731837 43.10266205575317,255.36867070611333 42.96829832950607,253.9346631654771 42.96829832950607,252.74789573583985 43.10266205575317,251.51167718990473 43.05787414708175,251.3138819882297 43.10266205575317,250.81939370150212 42.96829832950607,249.43482435040642 43.10266205575317,248.0008027559379 43.05787414708175,244.34155984775862 42.96829832950607,243.40202093828702 43.10266205575317,242.70972817728762 43.05787414708175,242.06688419019338 43.19223787309602,241.07789210841293 43.19223787309602,238.4570552778314 43.147449964424595,237.41860735765658 42.87872251216322,236.82520774647128 42.56520715076476,236.5285077227163 42.52041924209334,236.33070762606803 42.65478296834044,236.13290746475104 42.96829832950607,235.88565717235906 43.19223787309602,235.53950659331167 43.19223787309602,234.1054520859616 43.32660159911029,233.6603999963845 43.10266205575317,232.96809609566117 42.56520715076476,232.27579140331363 42.56520715076476,232.07798991695745 42.65478296834044,231.979089149856 42.87872251216322,231.979089149856 43.01308623817749,232.1274402946583 43.01308623817749,232.22634103777818 42.87872251216322,232.27579140331363 42.65478296834044,231.979089149856 42.699570877011865,231.68238675099565 42.07254015491344,231.43513464077841 42.117328063584864,231.48458507092437 42.07254015491344,231.23733288008953 42.251691789831966,230.9900805882644 42.29647969850339,230.74282819533255 42.16211597225629,230.5450262084487 41.893388519994915,230.3472241567797 41.71423688507639,230.1494220405002 42.07254015491344,230.39667467569234 42.117328063584864,230.49557570152683 42.07254015491344,230.6439272100106 41.75902479351498,230.9900805882644 41.75902479351498,231.18788242980372 41.893388519994915,231.2867833264172 42.20690388092771,231.2867833264172 42.60999505966902,231.58348591905087 42.789146694587544,231.58348591905087 43.147449964424595,231.33623376861215 43.01308623817749,230.6439272100106 42.96829832950607,229.60546588758007 43.05787414708175,229.0615092460066 43.01308623817749,228.1713973233127 43.10266205575317,226.5395220661303 43.05787414708175,225.10544623888563 43.19223787309602,223.62191594578326 43.10266205575317,222.08893082360737 43.19223787309602,221.49551618559053 43.05787414708175,219.86362293170532 43.19223787309602,218.87459457607474 42.96829832950607,218.18227376567665 42.96829832950607,217.0448878579773 43.19223787309602,216.15475826564943 43.147449964424595,213.73162107699318 43.23702578176744,213.28655400843127 43.371389508014545,213.13819824607344 43.7296927778516,213.08874631713843 43.9984202303458,212.98984244727762 44.98375422228128,213.08874631713843 46.23781566671096,212.94039050646825 46.37217939272523,212.69313074089587 46.193027758039534,211.90189881291008 46.14823984936811,211.0117616575444 46.46175521053374,210.4183361598989 46.193027758039534,210.02271883841604 46.193027758039534,208.73696075746557 46.14823984936811,208.48969927500002 46.23781566671096,208.09408069279743 46.23781566671096,207.00612825871212 46.14823984936811,206.7588660689653 46.14823984936811,204.38514390942873 46.193027758039534,203.89061728771776 46.14823984936811,203.24773207545513 46.193027758039534,202.7037517472636 46.327391484053805,202.60484618035844 46.14823984936811,202.3575821929262 46.10345194069669,201.76414821040817 46.14823984936811,201.31907234166283 46.05866403202526,200.92344907246297 46.10345194069669,200.03329577151453 46.01387612312101,198.50025090621784 46.10345194069669,198.10462579445448 46.05866403202526,196.71993586688768 46.193027758039534,196.62102932215203 46.50654311897233,196.67048259661533 46.551331027876586,196.57157604396343 46.64090684521943,195.97813638823573 46.82005848037079,195.2363360004383 48.38763528573327,194.3956277949619 49.955212091328576,194.44508125103312 50.35830326983705,194.29672087053768 50.94054608349688,194.29672087053768 51.38842517067678,194.49453470332082 51.38842517067678,194.5934415954398 51.25406144466251,194.74180190329207 51.881092166760936,194.49453470332082 52.06024380191229,194.5934415954398 52.37375916261226,194.6428950354457 52.776850341353565,194.93961559061427 52.776850341353565,194.89016217493918 53.26951733743772,194.79125533113256 53.672608515946195,194.5934415954398 54.3892150556203,194.5934415954398 54.6579425081145,194.49453470332082 54.97145786928013,194.49453470332082 55.2401853215415,194.74180190329207 55.41933695646003,195.08797581359977 55.822428135201335,195.33524277125252 56.31509513128549,195.28578938782448 56.80776212713681,194.98906900233123 57.34521703189239,194.84070875507314 57.70352030196227,194.89016217493918 57.92745984555222,195.03852240997367 58.28576311515644,195.08797581359977 58.330551024060696,194.84070875507314 58.15139938914217,194.6428950354457 57.47958075790666,194.0494534886093 57.12127748830244,194.0494534886093 56.942125853383914,194.14836045337142 56.718186309793964,194.0 56.18073140503839,194.29672087053768 55.55370068270713,194.29672087053768" stroke="#00AFAA" stroke-linecap="round" stroke-linejoin="round" stroke-width="1"><title>2025-09-13 5.4km</title><desc>15794483312</desc></polyline><polyline fill="none" points="162.78013547323644,198.47944148801616 162.75668568338733,198.60890417330666 163.17878190090414,199.85174326083506 163.3429304298479,199.95531296476838 160.2006585886702,199.1526468739612 159.8020121611189,198.73836680562817 159.94271090032998,198.45354894464253 163.17878190090414,200.110667457222 163.76502664736472,200.1365598651755 162.78013547323644,199.87763568994706 164.46852034318727,200.42137621357688 164.7733676113421,200.21423707646318 164.7733676113421,200.62851521527045 164.51541992288548,202.23383788715 164.30437181412708,203.60612340140506 164.02297433582135,206.73905485286377 163.85882580687758,207.17921629434568 163.9057253865758,207.46402631312958 164.28092202427797,207.61937712458894 164.3512713938253,208.4220217705879 164.1167734953342,209.2246643837425 164.23402244457975,212.3316488835262 164.39817097363994,214.0145861035562 161.4669472411042,215.98231675146963 160.90415228460915,216.21533667703625 160.55240543663967,216.75904917059233 160.55240543663967,217.25097871822072 160.13030921923928,217.25097871822072 158.88747035665438,218.05359897279413 157.6915310738841,218.49374470105977 156.91768800851423,218.49374470105977 156.49559179099742,218.7267627803667 156.51904158084653,219.55527011948288 156.89423821866512,219.9695229769277 156.73008968960494,220.33199378309655 156.6362905302085,222.8174967165687 156.6597403199412,224.0084599655529 156.49559179099742,224.96640541881789 156.4721420011483,225.66544486855855 156.58939095039386,227.55543269982445 156.56594116054475,230.2221086935897 156.58939095039386,231.7496120223077 156.6128407403594,233.22532858728664 156.58939095039386,235.29649814526783 156.6597403199412,234.3903631285939 156.8707884286996,235.1152713491174 154.47890986315906,235.42594579345314 154.3616609137971,235.50361435691593 153.79886595718563,235.65895142685622 152.3215291959932,235.89195688904147 151.6883848698344,235.99551481718663 148.38196449971292,236.02140429403516 148.24126576050185,236.30618839900126 147.79571975325234,236.51330395095283 147.13912563724443,236.5391933854844 145.96663614409044,236.5391933854844 145.07554412959144,236.59097224814468 144.65344791207463,237.678326410125 144.77069686132018,242.1312616916548 144.74724707147107,246.7394660791033 144.74724707147107,249.4059807267622 144.7941466512857,250.7003972288221 144.70034749177285,252.38313078231295 144.72379728162196,254.4023992603179 144.8410462308675,256.36987925649737 144.74724707147107,258.4150099986873 144.72379728162196,259.29518879042007 144.77069686132018,260.4601275527966 143.92650442640297,260.53778998480993 142.98851283208933,260.5895649289887 142.77746472333092,260.61545239784755 141.9098224985646,260.7190022522409 140.6435338461306,260.92610185965896 139.82279120094609,260.87432697048644 138.46270338923205,261.00376417767256 137.85300885292236,260.79666462089517 136.04737503360957,261.00376417767256 135.81287713511847,260.79666462089517 135.62527881620917,260.79666462089517 135.0624838594813,260.74488971056417 135.20318259880878,261.10731390531873 135.2735319682397,262.16869666444836 135.53147965669632,263.1006395732111 135.6721783959074,264.0325797436235 135.8832265046658,264.7056459414889 137.31366368616,264.9645171757729 138.791000447236,264.9645171757729 140.17453804891557,264.9386300618644 140.80768237519078,264.83508158501354 141.37047733180225,264.8609687073913 142.23811955656856,264.8609687073913 142.80091451318003,264.7833073340007 143.59820736839902,264.8609687073913 143.83270526689012,265.45637193880975 143.809255477041,266.0 143.59820736839902,265.37871071111294 143.48095841915347,264.8609687073913 142.70711535366718,264.7833073340007 142.05052123765927,264.7574202052783 141.58152544056065,264.7833073340007 139.6117430923041,264.9386300618644 139.11929750523996,265.04217850480927 138.32200465002097,265.0162913972745 136.7039691497339,264.9386300618644 136.07082482345868,264.57621024519904 135.64872860605828,263.1006395732111 135.20318259880878,260.77077716682106 135.43768049729988,260.51190250960644 136.0942746134242,260.74488971056417 137.68886032386217,260.69311479179305 138.1813059109263,260.61545239784755 138.83790002693422,260.69311479179305 140.31523678812664,260.53778998480993 141.745673969388,260.5895649289887 142.56641661457252,260.51190250960644 143.08231199148577,260.3824651017785 143.55130778858438,260.3824651017785 143.64510694809724,260.22714014264056 143.59820736839902,259.5281768851273 143.7858056873083,259.2693012137024 144.70034749177285,259.13986329874024 144.93484539038036,258.9845377309539 144.5830985425273,257.71604274740093 144.67689770192374,255.049597974692 144.67689770192374,252.97855743940454 144.65344791207463,251.29582704536733 144.6299981221091,248.55166294099763 144.6299981221091,243.78815187895088 144.5830985425273,240.6814756753156 144.5830985425273,240.13780421004049 144.6299981221091,238.24789138758206 144.6299981221091,236.6168616763025 145.42729097732808,236.51330395095283 146.31838299205992,236.6686405262153 147.16257542697713,236.51330395095283 148.26471555035096,236.4356356349017 148.26471555035096,235.96962533835904 148.5461130287731,235.99551481718663 150.6331443261588,235.96962533835904 151.6883848698344,235.96962533835904 152.83742457290646,235.21882953113527 152.954673522152,234.51981114663067 152.62637646414805,234.51981114663067 152.5091275149025,235.29649814526783 152.55602709471714,235.84017791223596 152.274629616295,235.86606740171555 151.57113592047244,235.9178463743301 148.7806109272642,235.96962533835904 148.71026155771688,236.02140429403516 150.75039327552076,235.99551481718663 151.0552405436756,235.96962533835904 152.34497898595873,235.81428842063178 153.44711910933256,235.6330619204673 154.1740625948878,235.52950387389865 154.71340776176658,235.3741667405411 156.68319010990672,234.49392154731322 156.51904158084653,233.3029976898688 156.51904158084653,232.60397508132155 156.4486922112992,230.55867785576265 156.56594116054475,229.05705883429619 156.51904158084653,227.42598183796508 156.54249137069564,226.62338531468413 156.58939095039386,225.53599323501112 156.4252424214501,225.53599323501112 156.4486922112992,224.83695349979098 156.6597403199412,222.63626278642914 156.96458758821245,220.07308610671316 156.6362905302085,219.7623966158426 156.4721420011483,218.8821080714406 156.75353947945405,218.36429013853194 157.5273825447075,218.46785379273933 158.58262308849953,218.1571627285739 159.26266699435655,217.9759261337167 159.84891174081713,217.74290750242653 160.1537590090884,217.25097871822072 160.52895564679056,217.3545427363133 160.48205606709234,217.43221572757466 160.7869033352472,217.06974160525715 160.99795144388918,216.39657427853672 162.14699114707764,215.82697003916837 162.54563757462893,215.41271176753798 163.1084325312404,215.10201770853018 163.22568148060236,215.02434414616437 164.09332370536868,214.35117247520247 164.60921908228192,214.06636864555185 164.44507055333816,212.43521450896515 164.3278216039762,211.68436295786523 164.25747223442886,209.74249724895344 164.44507055333816,208.00775382004213 164.65611866209656,207.36045906317304 164.3512713938253,207.28278360355762 164.25747223442886,205.91051401026198 164.37472118379083,204.07218128084787 164.46852034318727,203.37309420466772 164.7264680316439,201.89723864590633 164.9609659302514,200.24012947597657 164.74991782137658,200.1365598651755 163.22568148060236,200.369591441995 162.80358526320197,200.57673047747812 162.68633631384,200.0847750470857 163.2491312705679,199.48924903053558 162.75668568338733,199.3080017598404 162.63943673414178,199.230324326345 162.80358526320197,198.5053340292652 162.61598694429267,198.3499787497858 162.56908736459445,198.29819363975548 162.2642400963232,198.29819363975548 162.0766417775303,198.32408619584749 161.8421438789228,198.29819363975548 161.5841961905826,197.83212726810598 161.795244299341,197.8062346718507 161.420047661406,195.24285716502345 161.4434974513715,195.24285716502345 161.4434974513715,195.11339310437324 161.4669472411042,195.268749970739 161.53729661076795,195.2946427743591 162.0766417775303,194.20714319933904 161.91249324858654,197.02945579896914 162.0531919876812,198.37587130168686 161.420047661406,195.24285716502345 161.4434974513715,195.24285716502345 160.88070249464363,195.3205355759128 161.11520039336756,196.07142590003787 161.49039703106973,195.268749970739 161.420047661406,196.38213861710392 161.795244299341,197.26248966084677 161.77179450937547,197.52141597290756" stroke="#00AFAA" stroke-linecap="round" stroke-linejoin="round" stroke-width="1"><title>2025-09-12 11.5km</title><desc>15784793735</desc></polyline></svg>