<?xml version="1.0" encoding="utf-8" ?>
<svg baseProfile="full" height="200mm" version="1.1" viewBox="0,0,200,200" width="200mm" xmlns="http://www.w3.org/2000/svg" xmlns:ev="http://www.w3.org/2001/xml-events" xmlns:xlink="http://www.w3.org/1999/xlink"><defs /><rect fill="#f5f5f5" height="200" width="200" x="0" y="0" /><text alignment-baseline="middle" fill="#006cb8" style="dominant-baseline: central; font-size:9.0px; font-family:Arial;" text-anchor="middle" x="100.0" y="100.0">2019</text><line stroke="#006cb8" stroke-width="0.3" x1="100.0" x2="100.0" y1="15.0" y2="10.0" /><path d="M 100.0 14.0 a86.0,86.0 0 0,1 42.46469731375804,11.215312516191453" fill="none" id="id61" stroke="none" /><text fill="#006cb8" style="font-size:6.75px; font-family:Arial;" text-anchor="middle"><textPath startOffset="22.20632615414155" xlink:href="#id61">January</textPath></text><path d="M 100.72285384407766 79.0124445844662 l 1.0777430015927465 -31.291513706332847 a52.310068029486914,52.310068029486914 0 0,0 0.899631458437473,0.038740023025359845 l -1.6162152924195512 31.268325956783293" fill="red" stroke="none" /><path d="M 102.16513564639614 79.11191278185805 l 1.7431700849001397 -16.81718594862956 a37.90728793082067,37.90728793082067 0 0,0 0.6484552383045102,0.07286150161157036 l -2.0323920267143754 16.784688493547392" fill="red" stroke="none" /><path d="M 103.2404852339499 79.25152402106235 l 3.7583137800637085 -24.06407607415986 a45.35579355661338,45.35579355661338 0 0,0 0.7703374711446944,0.12711228324502807 l -4.171980457347278 23.995817527975206" fill="red" stroke="none" /><path d="M 105.01212808612495 79.60689891045804 l 5.823535870733693 -23.694517312757537 a45.39966640596319,45.39966640596319 0 0,0 0.7572904570797133,0.19305019928501982 l -6.230535216498431 23.590764117303646" fill="red" stroke="none" /><path d="M 105.71112130821622 79.79150937346287 l 6.649291372405662 -23.52815412606655 a45.44968532180099,45.44968532180099 0 0,0 0.7510231146693768,0.21924424158178638 l -7.053304704798466 23.41021155556606" fill="red" stroke="none" /><path d="M 109.41281617654863 81.2277094730956 l 10.953949531455729 -21.845823732736847 a45.43826967891728,45.43826967891728 0 0,0 0.6961565110145466,0.35659840380723495 l -11.32836653005903 21.654032803617113" fill="red" stroke="none" /><path d="M 110.36928655335952 81.73862282372117 l 12.313736259439139 -21.685752546783 a45.937922210708166,45.937922210708166 0 0,0 0.6842634367268134,0.39636954870093455 l -12.685196428631281 21.470578840692017" fill="red" stroke="none" /><line stroke="#006cb8" stroke-width="0.3" x1="143.23703022742887" x2="145.7803849466894" y1="26.81831364943548" y2="22.513508569990506" /><path d="M 143.74570117128098 25.957352633546492 a86.0,86.0 0 0,1 28.547481713284135,27.462654790039103" fill="none" id="id62" stroke="none" /><text fill="#006cb8" style="font-size:6.75px; font-family:Arial;" text-anchor="middle"><textPath startOffset="19.985693538727396" xlink:href="#id62">February</textPath></text><path d="M 112.48926042617603 83.11751280151076 l 8.062354341836977 -10.8983710260754 a34.5564024931151,34.5564024931151 0 0,0 0.47515686343620905,0.35787829850530056 l -8.248757359031568 10.757976138064253" fill="red" stroke="none" /><path d="M 113.06298171725822 83.55741782278167 l 29.72474131577098 -37.41500312561907 a68.7853817100961,68.7853817100961 0 0,0 0.9207303346262964,0.7444998980983 l -30.36437504896177 36.89779713025664" fill="red" stroke="none" /><line stroke="#006cb8" stroke-width="0.3" x1="172.23445277983987" x2="176.4835382374775" y1="55.19839476539836" y2="52.563006222186495" /><path d="M 173.08426987136738 54.67131705675599 a86.0,86.0 0 0,1 12.851231095245387,41.99856678651699" fill="none" id="id63" stroke="none" /><text fill="#006cb8" style="font-size:6.75px; font-family:Arial;" text-anchor="middle"><textPath startOffset="22.20632615414155" xlink:href="#id63">March</textPath></text><line stroke="#006cb8" stroke-width="0.3" x1="184.98032266829074" x2="189.97916517819016" y1="98.17113171792111" y2="98.06355123074" /><path d="M 185.9800911702706 98.14961562048488 a86.0,86.0 0 0,1 -9.607161424134198,41.387399972396054" fill="none" id="id64" stroke="none" /><text fill="#006cb8" style="font-size:6.75px; font-family:Arial;" text-anchor="middle"><textPath startOffset="21.466115282336823" xlink:href="#id64">April</textPath></text><line stroke="#006cb8" stroke-width="0.3" x1="174.80103733775053" x2="179.2010983576182" y1="140.37084112569926" y2="142.7455964860345" /><path d="M 175.68104954172406 140.8457921977663 a86.0,86.0 0 0,1 -30.038265399797805,32.042727171017184" fill="none" id="id65" stroke="none" /><text fill="#006cb8" style="font-size:6.75px; font-family:Arial;" text-anchor="middle"><textPath startOffset="22.206326154141568" xlink:href="#id65">May</textPath></text><line stroke="#006cb8" stroke-width="0.3" x1="143.8653032363475" x2="146.44561519142675" y1="172.8068346515853" y2="177.08958963109032" /><path d="M 144.38136562736335 173.6633856474863 a86.0,86.0 0 0,1 -40.68145358897372,12.25698825130547" fill="none" id="id66" stroke="none" /><text fill="#006cb8" style="font-size:6.75px; font-family:Arial;" text-anchor="middle"><textPath startOffset="21.466115282336833" xlink:href="#id66">June</textPath></text><path d="M 109.2508944713604 118.85261126421891 l 7.967389200501558 16.23692626186699 a39.0863778879458,39.0863778879458 0 0,0 -0.6065597813065408,0.2911855556043466 l -7.686716751194784 -16.371666093970898" fill="red" stroke="none" /><line stroke="#006cb8" stroke-width="0.3" x1="102.19456741930631" x2="102.32365962044197" y1="184.97166512339345" y2="189.96999836594603" /><path d="M 102.22038585953345 185.97133177190398 a86.0,86.0 0 0,1 -42.740103519485714,-10.115201625700543" fill="none" id="id67" stroke="none" /><text fill="#006cb8" style="font-size:6.75px; font-family:Arial;" text-anchor="middle"><textPath startOffset="22.20632615414155" xlink:href="#id67">July</textPath></text><line stroke="#006cb8" stroke-width="0.3" x1="58.666819895761336" x2="56.23545636021788" y1="174.27360380694188" y2="178.64263932499728" /><path d="M 58.180547188652646 175.14741091055294 a86.0,86.0 0 0,1 -31.652253787137756,-30.449443065178592" fill="none" id="id68" stroke="none" /><text fill="#006cb8" style="font-size:6.75px; font-family:Arial;" text-anchor="middle"><textPath startOffset="22.20632615414155" xlink:href="#id68">August</textPath></text><path d="M 82.05923443525364 110.91462005526583 l -8.095188295900844 4.9248681282147775 a30.47556856480896,30.47556856480896 0 0,0 -0.2687932439129718,-0.4505129377566451 l 8.178762415512047 -4.784793096572021" fill="red" stroke="none" /><line stroke="#006cb8" stroke-width="0.3" x1="26.63291911575756" x2="22.317208475507996" y1="142.92168965132927" y2="145.44649492493687" /><path d="M 25.769776987707644 143.4266507060508 a86.0,86.0 0 0,1 -11.730757126820373,-40.83630448921669" fill="none" id="id69" stroke="none" /><text fill="#006cb8" style="font-size:6.75px; font-family:Arial;" text-anchor="middle"><textPath startOffset="21.46611528233685" xlink:href="#id69">September</textPath></text><path d="M 81.87401531095188 110.60418214915194 l -19.0281411299668 11.131967612432865 a43.0452003344535,43.0452003344535 0 0,0 -0.3686473026367851,-0.6427676455208564 l 19.216940428755965 -10.8027801210537" fill="red" stroke="none" /><path d="M 81.69416730710424 110.29060199501025 l -12.979863272054468 7.2966146431678505 a35.89017917327122,35.89017917327122 0 0,0 -0.2980997103252556,-0.5411375631543873 l 13.103539391831239 -7.072106561615641" fill="red" stroke="none" /><path d="M 81.35079622478065 109.6543875284942 l -17.259025082258603 8.934714774768775 a40.43458450537348,40.43458450537348 0 0,0 -0.31466064697655916,-0.6208553083480739 l 17.41026439902143 -8.636305254718016" fill="red" stroke="none" /><path d="M 80.73074385275274 108.34839909993369 l -20.671918256148277 8.956102012696784 a43.52864771020906,43.52864771020906 0 0,0 -0.2919508247623189,-0.6900855088586676 l 20.823020062102902 -8.598941978171958" fill="red" stroke="none" /><path d="M 80.32549172779594 107.34259656027581 l -20.563150403043114 7.674240968509047 a42.94851085930239,42.94851085930239 0 0,0 -0.2525285293846432,-0.6948500561787947 l 20.69220319343298 -7.3191431153241355" fill="red" stroke="none" /><path d="M 80.0844068197444 106.66101706037122 l -6.3001036268564885 2.1071477691260565 a27.643145145942785,27.643145145942785 0 0,0 -0.14704540567068394,-0.45255922424992256 l 6.335441283543422 -1.9983896448983305" fill="red" stroke="none" /><path d="M 79.86692584326677 105.97154293290107 l -19.9300533466421 5.911326223108347 a41.78823715748905,41.78823715748905 0 0,0 -0.1986082742793861,-0.6913814577243163 l 20.02885425780759 -5.567387289879435" fill="red" stroke="none" /><path d="M 79.76711848015287 105.62410040840567 l -22.124897145252568 6.150020843471467 a43.96375034838906,43.96375034838906 0 0,0 -0.19639638054344485,-0.7308639932490324 l 22.22748160213779 -5.768265917046897" fill="red" stroke="none" /><path d="M 79.58551787078972 104.9243191809786 l -25.89523630875851 6.246370005572408 a47.63795040413132,47.63795040413132 0 0,0 -0.18542376696485594,-0.7988007350937519 l 25.99892064165392 -5.7997006131300815" fill="red" stroke="none" /><path d="M 79.29508885075956 103.50808413554451 l -26.59729575179328 4.506445384030267 a47.976363567160206,47.976363567160206 0 0,0 -0.1309486186568814,-0.8154171733766314 l 26.67092612481145 -4.047948980960422" fill="red" stroke="none" /><path d="M 79.0235259727143 100.99374915477108 l -24.531613481508224 1.1621719708807552 a45.559126688382406,45.559126688382406 0 0,0 -0.030368123942823146,-0.7836663412388374 l 24.54798373830225 -0.7397283826279211" fill="red" stroke="none" /><line stroke="#006cb8" stroke-width="0.3" x1="15.007084014347285" x2="10.007500721073583" y1="101.09737516637583" y2="101.16192664675087" /><path d="M 14.007167355692545 101.11028546245083 a86.0,86.0 0 0,1 10.666146001902534,-42.60595125391555" fill="none" id="id70" stroke="none" /><text fill="#006cb8" style="font-size:6.75px; font-family:Arial;" text-anchor="middle"><textPath startOffset="22.20632615414155" xlink:href="#id70">October</textPath></text><path d="M 79.3925641242962 95.95851677861259 l -23.293532859159733 -4.568274422152737 a44.73726614959796,44.73726614959796 0 0,0 0.15470722698200398,-0.7544073819176002 l 23.211446336262732 4.96855746023374" fill="red" stroke="none" /><path d="M 79.54389044137918 95.25157060432595 l -23.923056485790443 -5.55320376662848 a45.559126688382406,45.559126688382406 0 0,0 0.18390093294937884,-0.7623880929046712 l 23.823922752580252 5.964177091192547" fill="red" stroke="none" /><path d="M 79.81627453868168 94.20196356495316 l -26.43890772391622 -7.594918518877595 a48.50815568049131,48.50815568049131 0 0,0 0.23744534980675053,-0.8005476791420105 l 26.30425647699776 8.048895584766145" fill="red" stroke="none" /><path d="M 80.02781315780177 93.51064311812611 l -34.25404038635966 -11.12981239708568 a57.01682949378916,57.01682949378916 0 0,0 0.31131923668149,-0.9308048922172744 l 34.0573838559064 11.717790392225275" fill="red" stroke="none" /><path d="M 80.2630227832202 92.82701384747504 l -45.43709447999741 -16.51314919890074 a69.34473757555591,69.34473757555591 0 0,0 0.417374125767097,-1.118355151695849 l 45.14611576572869 17.29282748762593" fill="red" stroke="none" /><path d="M 80.52162464483688 92.15188598940014 l -23.362556586456332 -9.413105781483914 a46.18760827686464,46.18760827686464 0 0,0 0.303470870323942,-0.734878783582933 l 23.19706402924619 9.813859135520158" fill="red" stroke="none" /><path d="M 80.803312248108 91.48605970444005 l -23.46663045832344 -10.40770643573357 a46.6710556526202,46.6710556526202 0 0,0 0.3320260752083775,-0.7315754449975918 l 23.28400206615171 10.81010388957323" fill="red" stroke="none" /><path d="M 81.10775173730289 90.83032412892265 l -43.49241830820685 -21.109789220959097 a69.34473757555591,69.34473757555591 0 0,0 0.5304541783755377,-1.0693632548523595 l 43.1226041168779 21.855312064310418" fill="red" stroke="none" /><path d="M 81.43458229118936 90.18545643968196 l -42.740011767287086 -22.594358707020856 a69.34473757555591,69.34473757555591 0 0,0 0.566949038263974,-1.050470463266837 l 42.34475462980464 23.326710153620166" fill="red" stroke="none" /><line stroke="#006cb8" stroke-width="0.3" x1="26.266209847984243" x2="21.928928074336255" y1="57.711370442889674" y2="55.22380399835377" /><path d="M 25.398753493254645 57.213857153982495 a86.0,86.0 0 0,1 29.58750427330803,-30.492523968695096" fill="none" id="id71" stroke="none" /><text fill="#006cb8" style="font-size:6.75px; font-family:Arial;" text-anchor="middle"><textPath startOffset="21.46611528233685" xlink:href="#id71">November</textPath></text><path d="M 81.96595687620814 89.24020034530311 l -20.758359101094673 -12.38523073028282 a45.172368787777955,45.172368787777955 0 0,0 0.4041511642482034,-0.6643182496305101 l 20.542092138560253 12.740716753120404" fill="red" stroke="none" /><path d="M 82.34701348167596 88.62581576622439 l -20.31973811079053 -13.092427426616835 a45.172368787777955,45.172368787777955 0 0,0 0.4267785693499053,-0.65001304071455 l 20.091362906082708 13.440258531309052" fill="red" stroke="none" /><path d="M 82.54541684631803 88.32363383020206 l -28.127908068515797 -18.81636194383268 a54.84131630288915,54.84131630288915 0 0,0 0.5316357271328704,-0.7801098291643533 l 27.799847875714185 19.297749796267446" fill="red" stroke="none" /><path d="M 83.39014120810768 87.1503855733568 l -38.88810723604348 -30.08437278280937 a70.16659811434037,70.16659811434037 0 0,0 0.7472606355654757,-0.9489451216624956 l 38.36449251988403 30.749310298424916" fill="red" stroke="none" /><path d="M 85.31137513191541 84.99185889309783 l -12.308537977304795 -12.576281063888551 a38.59724275381448,38.59724275381448 0 0,0 0.4788204041774991,-0.46062484944984017 l 12.090234329514868 12.786289000100705" fill="red" stroke="none" /><path d="M 85.57189188830299 84.74124197986013 l -16.607692865993855 -17.563825052680258 a45.172368787777955,45.172368787777955 0 0,0 0.5695851012054721,-0.5293672759436614 l 16.302899880993525 17.847096914698568" fill="red" stroke="none" /><path d="M 85.83668400450813 84.49514656593479 l -15.357331687895902 -16.811965293646054 a43.77037139808684,43.77037139808684 0 0,0 0.5606547130918533,-0.5033613371035609 l 15.065665987208078 17.073825639518894" fill="red" stroke="none" /><path d="M 86.37877921826538 84.01681056812374 l -31.35782591198422 -36.79538565259316 a69.34473757555591,69.34473757555591 0 0,0 0.915160541457795,-0.7664206348626826 l 30.719807833567316 37.32970744484965" fill="red" stroke="none" /><path d="M 88.09926311788651 82.69761687909137 l -34.24630961437596 -49.790426869765234 a81.43092196944491,81.43092196944491 0 0,0 1.161729616771099,-0.7844050230931239 l 33.384175303198326 50.37254380515702" fill="red" stroke="none" /><path d="M 89.00827224532344 82.1063720568725 l -14.322284842467361 -23.315500709846923 a48.36312146776465,48.36312146776465 0 0,0 0.7130979525020714,-0.429633537475054 l 13.918824823747642 23.558580856780598" fill="red" stroke="none" /><line stroke="#006cb8" stroke-width="0.3" x1="56.762969772571076" x2="54.21961505331055" y1="26.818313649435495" y2="22.513508569990535" /><path d="M 56.25429882871897 25.957352633546506 a86.0,86.0 0 0,1 42.265352541879196,-11.944610805530505" fill="none" id="id72" stroke="none" /><text fill="#006cb8" style="font-size:6.75px; font-family:Arial;" text-anchor="middle"><textPath startOffset="22.20632615414155" xlink:href="#id72">December</textPath></text><path d="M 89.63071344664047 81.73862282372117 l -17.903587045282393 -31.53005311983737 a57.25855318166694,57.25855318166694 0 0,0 0.8612665545083699,-0.47929390511039766 l 17.358196401701974 31.833562422507953" fill="red" stroke="none" /><path d="M 90.26544431104013 81.39251694778311 l -16.80766214990715 -32.12763875360822 a57.25855318166694,57.25855318166694 0 0,0 0.8772542372401125,-0.4493636930538166 l 16.252147425078274 32.412194971974536" fill="red" stroke="none" /><path d="M 90.91171255644093 81.06846463323043 l -20.92242245095633 -43.58286234327762 a69.34473757555591,69.34473757555591 0 0,0 1.0805290031634598,-0.5073228552973643 l 20.169115236493262 43.93655018121499" fill="red" stroke="none" /><path d="M 92.23578459929587 80.48803036053334 l -17.874236001291962 -44.91909770486809 a69.34473757555591,69.34473757555591 0 0,0 1.112873522935327,-0.43177763737137936 l 17.098379313356958 45.220118046130025" fill="red" stroke="none" /><path d="M 93.25333710446033 80.11325718540243 l -7.76584874275251 -22.890937204864095 a45.172368787777955,45.172368787777955 0 0,0 0.7384976268973812,-0.2434710566417625 l 7.37066829361272 23.02122198576509" fill="red" stroke="none" /><path d="M 93.94186890950719 79.89281104454417 l -12.705359444134388 -42.16961621895405 a65.04205593133145,65.04205593133145 0 0,0 1.0747728413120181,-0.3137556645908253 l 11.977596385098948 42.382070212463574" fill="red" stroke="none" /><path d="M 94.98787191387505 79.60689891045804 l -11.538572238989714 -46.94757716788997 a69.34473757555591,69.34473757555591 0 0,0 1.1616112434704613,-0.27491585117540845 l 10.728737308556719 47.13923893120625" fill="red" stroke="none" /><path d="M 96.04723909329186 79.375362276772 l -9.099770892081976 -47.48060468192234 a69.34473757555591,69.34473757555591 0 0,0 1.1742536670336765,-0.21458735200985796 l 8.281122103945407 47.63020751528293" fill="red" stroke="none" /><path d="M 96.40284397218896 79.31037775812273 l -6.681822944611058 -38.43158082170716 a60.00811662101287,60.00811662101287 0 0,0 1.0191972663489042,-0.1681762817667281 l 6.019296472123268 38.54090336641352" fill="red" stroke="none" /><path d="M 97.47563105711357 79.15227682838746 l -7.573106828659279 -62.54316951483762 a84.0,84.0 0 0,0 1.436933185961128,-0.16145618611760604 l 6.495406939188433 62.66426165442583" fill="red" stroke="none" /><path d="M 98.91598698831166 79.02799685794201 l -1.2672198658593172 -24.516439121969466 a45.54916767244184,45.54916767244184 0 0,0 0.7833571181875334,-0.03373300534462993 l 0.8450219152824596 24.534619853838286" fill="red" stroke="none" /><path d="M 99.27714615592234 79.0124445844662 l -1.664103780829351 -48.31608851982947 a69.34473757555591,69.34473757555591 0 0,0 1.1933019594860355,-0.030819469029818428 l 0.8321751861484366 48.33757478100165" fill="red" stroke="none" /></svg>