<?xml version="1.0" encoding="utf-8" ?>
<svg baseProfile="full" height="200mm" version="1.1" viewBox="0,0,200,200" width="200mm" xmlns="http://www.w3.org/2000/svg" xmlns:ev="http://www.w3.org/2001/xml-events" xmlns:xlink="http://www.w3.org/1999/xlink"><defs /><rect fill="#1a1a1a" height="200" width="200" x="0" y="0" /><text alignment-baseline="middle" fill="#e1ed5e" style="dominant-baseline: central; font-size:9.0px; font-family:Arial;" text-anchor="middle" x="100.0" y="100.0">2024</text><line stroke="#e1ed5e" stroke-width="0.3" x1="100.0" x2="100.0" y1="15.0" y2="10.0" /><path d="M 100.0 14.0 a86.0,86.0 0 0,1 42.35913384403234,11.155469271406648" fill="none" id="id121" stroke="none" /><text fill="#e1ed5e" style="font-size:6.75px; font-family:Arial;" text-anchor="middle"><textPath startOffset="22.145653131862478" xlink:href="#id121">January</textPath></text><path d="M 100.0 79.0 l 0.0 -0.6184449514933803 a21.61844495149338,21.61844495149338 0 0,0 0.3711093548213242,0.0031855274773519822 l -0.01061642997246937 0.6183538222104632" fill="#ff0000" stroke="none" /><path d="M 100.72087961077811 79.0123766808444 l 0.377879598703228 -11.001552213436272 a32.00803997522178,32.00803997522178 0 0,0 0.5489748310825491,0.023575341340000538 l -0.5666801903866133 10.99344430367044" fill="#ff900d" stroke="none" /><path d="M 101.44090949804482 79.04949213459386 l 0.7401994582348091 -10.762337671283374 a31.787761926771296,31.787761926771296 0 0,0 0.5440717725326175,0.042114596144399684 l -0.9248402255426601 10.74804530814392" fill="#ff8d0d" stroke="none" /><path d="M 102.15924093988457 79.11130261209362 l 0.07686836248496076 -0.7436316776848806 a21.74759401897524,21.74759401897524 0 0,0 0.3710181982647653,0.041573362985471915 l -0.08962246235052271 0.7422025541924377" fill="#ff0200" stroke="none" /><path d="M 102.51750503828377 79.15144685158666 l 1.2696154948893545 -10.514237596638395 a31.590614512077543,31.590614512077543 0 0,0 0.5378259670555394,0.06963233908631633 l -1.4499192838356856 10.49089366135168" fill="#ff8b0c" stroke="none" /><path d="M 103.23170211078529 79.25015418208739 l 1.6144195956513925 -10.36573191055751 a31.490698197564043,31.490698197564043 0 0,0 0.5334261806399835,0.0877750750318413 l -1.7921232793444464 10.336490837030002" fill="#ff890c" stroke="none" /><path d="M 103.94208987418118 79.37332000966035 l 1.9641457944022422 -10.277240765324201 a31.463247414168777,31.463247414168777 0 0,0 0.5296365970246522,0.10594215274293386 l -2.140278876957851 10.242009215918408" fill="#ff890c" stroke="none" /><path d="M 104.64783097203109 79.52079915486377 l 0.36677342554128584 -1.6160713871735823 a22.65716911452164,22.65716911452164 0 0,0 0.3785558156934955,0.08933814174961816 l -0.39446139497466626 1.6095371017777367" fill="#ff0f01" stroke="none" /><path d="M 105.3480935250658 79.69241777938227 l 2.6721795023478565 -10.146700819243952 a31.492667954720282,31.492667954720282 0 0,0 0.5216064594685572,0.14216616000905216 l -2.845967362751107 10.099334165090758" fill="#ff890c" stroke="none" /><path d="M 105.69591212413111 79.78721728523813 l 0.49998833182669855 -1.7742822029002019 a22.843384297288885,22.843384297288885 0 0,0 0.37652422656313456,0.10960071482965457 l -0.5303725707714376 1.7654377937680314" fill="#ff1202" stroke="none" /><path d="M 106.38641147887787 79.99465700312896 l 3.1924277565721444 -10.00023447818598 a31.49744181215747,31.49744181215747 0 0,0 0.5136741734727248,0.1688549036860061 l -3.3636246676926116 9.943958653097953" fill="#ff890c" stroke="none" /><path d="M 107.06938296918511 80.22567764915836 l 1.0511287081535354 -2.9401940732102787 a24.122436988835062,24.122436988835062 0 0,0 0.38872830312198076,0.14274641735443508 l -1.1014461629296408 2.921716806847122" fill="#ff2403" stroke="none" /><path d="M 107.40779381753099 80.34994680014964 l 3.7055717445350713 -9.829469300786444 a31.504747911730192,31.504747911730192 0 0,0 0.5044176243368027,0.19511957321821594 l -3.8737616313654 9.76440983943019" fill="#ff890c" stroke="none" /><path d="M 108.73861861582097 80.90454125486305 l 4.399787381790437 -9.61432946441277 a31.573242646191275,31.573242646191275 0 0,0 0.4909057173169028,0.22976866298708998 l -4.564181812978845 9.537384569855146" fill="#ff8a0c" stroke="none" /><path d="M 109.3889696526874 81.21577127319529 l 11.675282637748447 -23.358386237278495 a47.113721149640696,47.113721149640696 0 0,0 0.7203301592822314,0.36780571188509625 l -12.074540018744257 23.154522573720566" fill="#b5ff1f" stroke="none" /><line stroke="#e1ed5e" stroke-width="0.3" x1="143.13028292997686" x2="145.6673583964461" y1="26.7553504044142" y2="22.446841604673864" /><path d="M 143.63769802327073 25.89364864446614 a86.0,86.0 0 0,1 29.32050498858742,28.57503671076993" fill="none" id="id122" stroke="none" /><text fill="#e1ed5e" style="font-size:6.75px; font-family:Arial;" text-anchor="middle"><textPath startOffset="20.669276256404974" xlink:href="#id122">February</textPath></text><path d="M 110.96478420261332 82.08984904055464 l 9.247662980533658 -15.10536248984791 a38.71133102144604,38.71133102144604 0 0,0 0.5637768404120846,0.35183844517197455 l -9.505603949735455 14.94438824783439" fill="#ffe615" stroke="none" /><path d="M 111.27062007382361 82.28071324371311 l 1.7178814219798983 -2.7007949278724053 a24.20084517313865,24.20084517313865 0 0,0 0.3486239703046712,0.2259738455961715 l -1.7639910245415769 2.670907240572339" fill="#ff2503" stroke="none" /><path d="M 111.8722381534696 82.67804972795209 l 5.877966746294013 -8.576129148007398 a31.39713827136296,31.39713827136296 0 0,0 0.44195943791005116,0.30852201196090523 l -6.024321275377825 8.473962320241366" fill="#ff880c" stroke="none" /><path d="M 112.16784306229584 82.88440491214696 l 6.051396264836601 -8.512046683608958 a31.443865926849913,31.443865926849913 0 0,0 0.43724790275691094,0.31653376199926336 l -6.19662517796748 8.406912150236618" fill="#ff890c" stroke="none" /><path d="M 116.57777611688842 87.10902102172516 l 8.482346593477335 -6.595924016102675 a31.74506479078077,31.74506479078077 0 0,0 0.3308259361057995,0.4330617700177099 l -8.594324506937442 6.4493413328440825" fill="#ff8d0c" stroke="none" /><path d="M 117.42321728460499 88.27688183743584 l 8.889679440722798 -5.981373061506494 a31.714626650505615,31.714626650505615 0 0,0 0.30004386877185485,0.45430465940173476 l -8.991047748415376 5.8278885237657" fill="#ff8c0c" stroke="none" /><line stroke="#e1ed5e" stroke-width="0.3" x1="172.87174338648825" x2="177.1583165268699" y1="56.24261187166439" y2="53.66864786411523" /><path d="M 173.72905801456457 55.72781907015455 a86.0,86.0 0 0,1 12.242430191666344,42.057860355516425" fill="none" id="id123" stroke="none" /><text fill="#e1ed5e" style="font-size:6.75px; font-family:Arial;" text-anchor="middle"><textPath startOffset="22.145653131862474" xlink:href="#id123">March</textPath></text><path d="M 118.53625476483649 90.13048839642627 l 9.43280062050222 -5.022435025809557 a31.686560772045688,31.686560772045688 0 0,0 0.25151876203024126,0.48232039018485884 l -9.517627451507407 4.859768392520199" fill="#ff8c0c" stroke="none" /><path d="M 118.8641267826498 90.77261029715802 l 9.472900530653801 -4.633670342641897 a31.545460886463907,31.545460886463907 0 0,0 0.2337680014832422,0.4884852141367781 l -9.551047790096955 4.470372626440016" fill="#ff8a0c" stroke="none" /><path d="M 119.71291397450082 92.76114493625339 l 9.94552731634096 -3.6521353904679654 a31.594885865850223,31.594885865850223 0 0,0 0.18258809410288593,0.510731395647181 l -10.006755580487791 3.480869038439868" fill="#ff8b0c" stroke="none" /><path d="M 119.94978838288452 93.4421083053983 l 9.990907482960866 -3.2842097342873946 a31.516856275136192,31.516856275136192 0 0,0 0.16454092835866152,0.5154221145514141 l -10.045813127096784 3.1122185860445937" fill="#ff8a0c" stroke="none" /><path d="M 120.35273937422433 94.82641323984039 l 10.15738556207567 -2.5819676897323722 a31.480412139199736,31.480412139199736 0 0,0 0.12863866818815722,0.5248896642608291 l -10.200211756780117 2.4072222008634485" fill="#ff890c" stroke="none" /><path d="M 120.51834098615036 95.52812308129327 l 10.281805147602725 -2.2408715769583876 a31.523165993069284,31.523165993069284 0 0,0 0.11069478201868578,0.5297146039215975 l -10.318757640445778 2.0640405217513855" fill="#ff8a0c" stroke="none" /><path d="M 120.65975698304385 96.23510406497455 l 10.187433357105983 -1.8564897189250547 a31.35520895404579,31.35520895404579 0 0,0 0.09195315552400184,0.5303613654622705 l -10.217801330122219 1.6813353205421915" fill="#ff870c" stroke="none" /><path d="M 120.86939407059847 97.66154086499901 l 10.281475666834153 -1.1520607935747884 a31.345819733582978,31.345819733582978 0 0,0 0.05532926396309051,0.535260438180824 l -10.29973732327891 0.9753958331110331" fill="#ff870c" stroke="none" /><path d="M 120.93736805541906 98.37931529534042 l 10.338176197677269 -0.8002402208960884 a31.36910176945721,31.36910176945721 0 0,0 0.036949872361251794,0.5372430347503427 l -10.350390031203586 0.6226537619914114" fill="#ff880c" stroke="none" /><path d="M 120.98066250479742 99.09900007780936 l 1.0070928825376781 -0.043248901630142236 a22.00802110173858,22.00802110173858 0 0,0 0.012969340462570767,0.37758819677605077 l -1.007686909997097 0.02595444028997153" fill="#ff0600" stroke="none" /><line stroke="#e1ed5e" stroke-width="0.3" x1="184.99686870605535" x2="189.99668451229388" y1="99.2704041080226" y2="99.22748670261217" /><path d="M 185.99683186730306 99.26182062694052 a86.0,86.0 0 0,1 -10.086455211305974,41.156179273409016" fill="none" id="id124" stroke="none" /><text fill="#e1ed5e" style="font-size:6.75px; font-family:Arial;" text-anchor="middle"><textPath startOffset="21.40746469413373" xlink:href="#id124">April</textPath></text><path d="M 120.99922638620191 99.81974689727618 l 10.5228053169002 -0.09032562785152781 a31.523192978199624,31.523192978199624 0 0,0 0.0,0.5411574611507081 l -10.5228053169002 -0.09032562785152652" fill="#ff8a0c" stroke="none" /><path d="M 120.99303781780057 100.54070618675476 l 10.44066514494122 0.26891449854473237 a31.444127712562597,31.444127712562597 0 0,0 -0.018530043931148436,0.5394820110039211 l -10.434510414013227 -0.44810277411276417" fill="#ff890c" stroke="none" /><path d="M 120.86939407059847 102.33845913500097 l 10.585353251644015 1.186110910780719 a31.651599060928064,31.651599060928064 0 0,0 -0.0651388608551857,0.5394432113995836 l -10.563432304529167 -1.3676477991037113" fill="#ff8b0c" stroke="none" /><path d="M 120.77682067341334 103.0534771498775 l 10.251413336571474 1.5066047336696664 a31.36153141291148,31.36153141291148 0 0,0 -0.08285195081177045,0.5319689581908154 l -10.224039893621436 -1.6823618737919324" fill="#ff870c" stroke="none" /><path d="M 120.65975698304385 103.76489593502545 l 10.50632823835902 1.9146029892367693 a31.679355676188266,31.679355676188266 0 0,0 -0.10208854555808973,0.5341704088731225 l -10.47191340051877 -2.094675963143206" fill="#ff8c0c" stroke="none" /><path d="M 120.43855184770803 104.8234425847677 l 10.205201799690746 2.408399837403176 a31.48553925886575,31.48553925886575 0 0,0 -0.12865961917959726,0.5249751514554692 l -10.162354653994853 -2.5832308134667445" fill="#ff890c" stroke="none" /><path d="M 120.26092885502905 105.52220625578681 l 10.291308215288792 2.804941817491832 a31.666710991753032,31.666710991753032 0 0,0 -0.14744851199105202,0.5232427519138955 l -10.24164121122316 -2.981192493308736" fill="#ff8c0c" stroke="none" /><path d="M 119.94978838288452 106.5578916946017 l 30.104409343422248 9.895917300731453 a52.689188079520825,52.689188079520825 0 0,0 -0.28982711184286764,0.8568223572605899 l -29.930096810007015 -10.411241332466203" fill="#79ff26" stroke="none" /><path d="M 119.4528033332814 107.91128576633889 l 9.821111671779178 3.994160617747061 a31.602242852808022,31.602242852808022 0 0,0 -0.20868639706504946,0.5007713833407733 l -9.751099430177643 -4.162164510529112" fill="#ff8b0c" stroke="none" /><path d="M 118.8641267826498 109.22738970284198 l 9.540760274485477 4.6668639438450965 a31.621003986703027,31.621003986703027 0 0,0 -0.24269886509090247,0.48556030770623426 l -9.459241496182843 -4.829956107715076" fill="#ff8b0c" stroke="none" /><path d="M 118.5362547648365 109.86951160357373 l 9.451417550417336 5.032347492386606 a31.70765217012892,31.70765217012892 0 0,0 -0.2599342749460468,0.47824978889318287 l -9.363637925855949 -5.1938521147543915" fill="#ff8c0c" stroke="none" /><line stroke="#e1ed5e" stroke-width="0.3" x1="174.33088141563837" x2="178.70328620479359" y1="141.23008692659167" y2="143.65538615756765" /><path d="M 175.20536237346943 141.71514677278685 a86.0,86.0 0 0,1 -30.301960400862466,31.631185727798858" fill="none" id="id125" stroke="none" /><text fill="#e1ed5e" style="font-size:6.75px; font-family:Arial;" text-anchor="middle"><textPath startOffset="22.145653131862474" xlink:href="#id125">May</textPath></text><path d="M 118.00360718960297 110.81064883170644 l 27.46442698091473 16.491599284957534 a53.03541159975331,53.03541159975331 0 0,0 -0.475379213398429,0.7764962189514891 l -27.177279803060898 -16.960632620033582" fill="#75ff27" stroke="none" /><path d="M 117.423217284605 111.72311816256416 l 3.7536185504875936 2.525602079441464 a25.52419253417045,25.52419253417045 0 0,0 -0.247718685617415,0.361428965478419 l -3.7097101280548586 -2.5896657799899274" fill="#ff3805" stroke="none" /><path d="M 117.21940702142032 112.02048342749411 l 1.516219846516785 1.058439208436189 a22.849112268340246,22.849112268340246 0 0,0 -0.22727783642143426,0.31969473970998225 l -1.4978269115653902 -1.0843111748556753" fill="#ff1202" stroke="none" /><path d="M 117.01052211995028 112.31430620078461 l 2.213279877777922 1.6022439482340902 a23.732360424070993,23.732360424070993 0 0,0 -0.241728760248451,0.32795148862963774 l -2.185449097945643 -1.6400017461326053" fill="#ff1e03" stroke="none" /><path d="M 116.57777611688842 112.89097897827486 l 8.402759897508343 6.534036919941361 a31.644247853480827,31.644247853480827 0 0,0 -0.3371371677105889,0.4259617979999826 l -8.289356299156193 -6.6773186618560265" fill="#ff8b0c" stroke="none" /><path d="M 116.35404254752997 113.17365903436017 l 8.125036050722013 6.5449539013375215 a31.43324649359755,31.43324649359755 0 0,0 -0.3421032603699037,0.4173103524392308 l -8.011485971113482 -6.683466535475245" fill="#ff880c" stroke="none" /><path d="M 115.6541949942343 113.99807769240083 l 7.959176893928413 7.1171450572710215 a31.67718364528218,31.67718364528218 0 0,0 -0.3659503611047361,0.40224355192170547 l -7.8358288319817975 -7.252726184750398" fill="#ff8c0c" stroke="none" /><path d="M 115.16444852881244 114.52719865689866 l 7.833557891793455 7.504371258089637 a31.84805130995062,31.84805130995062 0 0,0 -0.38159000320047154,0.39154495952817253 l -7.703581087442177 -7.637738909685547" fill="#ff8e0d" stroke="none" /><path d="M 113.86319453409587 115.77377054828091 l 7.06846494827718 8.04261557092563 a31.707327488534126,31.707327488534126 0 0,0 -0.4119242657500662,0.3558103698350388 l -6.929361202764258 -8.162770073225387" fill="#ff8c0c" stroke="none" /><path d="M 113.59037401385872 116.0094264158162 l 3.384278130660112 3.9866711282712948 a26.229424934986277,26.229424934986277 0 0,0 -0.34576085819896046,0.28844600532063175 l -3.3153429382992567 -4.044179317503796" fill="#ff4206" stroke="none" /><path d="M 113.03279911837588 116.46651593811092 l 10.048400389039609 12.69582563620917 a37.19118090083232,37.19118090083232 0 0,0 -0.5040114396023344,0.39192234392071595 l -9.828979004802044 -12.86644903175068" fill="#ffd313" stroke="none" /><path d="M 111.8722381534696 117.32195027204791 l 6.08879492623976 8.883733763224736 a31.770057995649893,31.770057995649893 0 0,0 -0.45250201304154103,0.3044635488975574 l -5.935396625101216 -8.986946986179415" fill="#ff8d0d" stroke="none" /><path d="M 110.96478420261333 117.91015095944535 l 5.478328378446566 8.948437693831336 a31.49221706706807,31.49221706706807 0 0,0 -0.4634863199435037,0.2783102180824514 l -5.323909301945625 -9.041161912449711" fill="#ff890c" stroke="none" /><line stroke="#e1ed5e" stroke-width="0.3" x1="143.1302829299769" x2="145.66735839644613" y1="173.24464959558577" y2="177.55315839532614" /><path d="M 143.63769802327073 174.10635135553383 a86.0,86.0 0 0,1 -40.68552437913181,11.842963189579606" fill="none" id="id126" stroke="none" /><text fill="#e1ed5e" style="font-size:6.75px; font-family:Arial;" text-anchor="middle"><textPath startOffset="21.407464694133747" xlink:href="#id126">June</textPath></text><path d="M 110.34350942703117 118.27599006163325 l 14.761830036894246 26.082739223957372 a50.97033385638401,50.97033385638401 0 0,0 -0.765175903802345,0.4244301752792953 l -14.311909944935806 -26.33230231466981" fill="#8bff24" stroke="none" /><path d="M 109.3889696526874 118.78422872680471 l 4.65756095453224 9.318241885458294 a31.417413588846927,31.417413588846927 0 0,0 -0.4844860659734601,0.23698641277398919 l -4.49691463929671 -9.396822048329506" fill="#ff880c" stroke="none" /><path d="M 109.06512990194946 118.94263497670748 l 4.612345470883697 9.63802809076469 a31.684817088801783,31.684817088801783 0 0,0 -0.49264049421003564,0.23058062616709735 l -4.446216262802155 -9.71578494850232" fill="#ff8c0c" stroke="none" /><path d="M 107.407793817531 119.65005319985036 l 3.7535805696272364 9.956818413134947 a31.640845831268596,31.640845831268596 0 0,0 -0.5098859752447897,0.1872371927665557 l -3.5821054427283197 -10.019786454910225" fill="#ff8b0c" stroke="none" /><path d="M 107.06938296918513 119.77432235084164 l 3.5642112244587505 9.969733141654856 a31.587690048748545,31.587690048748545 0 0,0 -0.5121631493347516,0.17815692956720547 l -3.392542303078977 -10.029448503790652" fill="#ff8a0c" stroke="none" /><path d="M 106.72888874123015 119.89276391827305 l 3.366599657731264 9.952753682526124 a31.506726375064385,31.506726375064385 0 0,0 -0.5138255902197132,0.1689046773782594 l -3.1952513298638165 -10.009079281306404" fill="#ff890c" stroke="none" /><path d="M 106.38641147887787 120.00534299687104 l 3.2329931216520738 10.12730490653236 a31.63083012725366,31.63083012725366 0 0,0 -0.518684411636487,0.16068975659446733 l -3.0586680771439623 -10.181311250933472" fill="#ff8b0c" stroke="none" /><path d="M 105.3480935250658 120.30758222061773 l 2.6758049825743444 10.160467358187883 a31.506903884664176,31.506903884664176 0 0,0 -0.5242069259122776,0.13325135067166094 l -2.500992763436669 -10.204903940694814" fill="#ff890c" stroke="none" /><path d="M 104.9986988182912 120.39639698878246 l 2.5174549055289392 10.27207509815104 a31.57606287913543,31.57606287913543 0 0,0 -0.5275726274179238,0.1245057035648425 l -2.3407501243711364 -10.313776945362108" fill="#ff8a0c" stroke="none" /><path d="M 104.64783097203109 120.47920084513623 l 2.3436928477832275 10.32674312768469 a31.589358799754272,31.589358799754272 0 0,0 -0.5298552097226895,0.11547947683561502 l -2.1660752214414023 -10.365454062654024" fill="#ff8a0c" stroke="none" /><path d="M 104.29559338865022 120.5559693870025 l 2.09955456004457 10.047128617119684 a31.264157188953668,31.264157188953668 0 0,0 -0.5262852115813174,0.1052717817932405 l -1.926772862932294 -10.081689795575786" fill="#ff860c" stroke="none" /><path d="M 103.94208987418118 120.62667999033965 l 1.9405277686908569 10.153661274774517 a31.337431272028656,31.337431272028656 0 0,0 -0.5292523053294989,0.09644740035293345 l -1.765940729810301 -10.185476849058814" fill="#ff870c" stroke="none" /><path d="M 103.58742460773223 120.69131181640829 l 7.0808810429344655 40.840640184733644 a62.44993084485267,62.44993084485267 0 0,0 -1.0578497778235216,0.1740687783818032 l -6.378753762057872 -40.95617496161112" fill="#32ff4d" stroke="none" /><path d="M 102.875027216393 120.80226474461374 l 1.4649396382285864 10.5995734633575 a31.700327366429768,31.700327366429768 0 0,0 -0.5396938136581634,0.06987416922461807 l -1.2827680026796477 -10.623159228782512" fill="#ff8c0c" stroke="none" /><path d="M 102.15924093988457 120.88869738790638 l 1.1076871984464247 10.715868832147164 a31.772966896699586,31.772966896699586 0 0,0 -0.5430157948466161,0.05142416034336811 l -0.9235718402147934 -10.733304747995716" fill="#ff8d0d" stroke="none" /><path d="M 101.44090949804482 120.95050786540614 l 0.715529031147805 10.403635075852812 a31.428211955360815,31.428211955360815 0 0,0 -0.5385533130721224,0.032398029968568526 l -0.5368313659432175 -10.41438508364607" fill="#ff880c" stroke="none" /><path d="M 100.72087961077811 120.9876233191556 l 2.162638832334333 62.96286995746683 a84.0,84.0 0 0,0 -1.4415467437170246,0.03712913059981959 l -1.0814787745465644 -62.990716805416696" fill="#4dd2ff" stroke="none" /><line stroke="#e1ed5e" stroke-width="0.3" x1="101.45913802915013" x2="101.54496967792366" y1="184.9874750549273" y2="189.98673829345242" /><path d="M 101.47630435890484 185.9873277026323 a86.0,86.0 0 0,1 -42.54439059252881,-10.42667462771756" fill="none" id="id127" stroke="none" /><text fill="#e1ed5e" style="font-size:6.75px; font-family:Arial;" text-anchor="middle"><textPath startOffset="22.145653131862474" xlink:href="#id127">July</textPath></text><line stroke="#e1ed5e" stroke-width="0.3" x1="58.13341422392154" x2="55.67067388415222" y1="173.97424548756322" y2="178.32567169271397" /><path d="M 57.64086615596768 174.84453072859336 a86.0,86.0 0 0,1 -31.369924170532247,-30.572349798747897" fill="none" id="id128" stroke="none" /><text fill="#e1ed5e" style="font-size:6.75px; font-family:Arial;" text-anchor="middle"><textPath startOffset="22.145653131862474" xlink:href="#id128">August</textPath></text><line stroke="#e1ed5e" stroke-width="0.3" x1="26.387840678322732" x2="22.057713659400548" y1="142.50000000000003" y2="145.00000000000006" /><path d="M 25.521815274538298 143.00000000000003 a86.0,86.0 0 0,1 -11.493303480769221,-40.785679425670985" fill="none" id="id129" stroke="none" /><text fill="#e1ed5e" style="font-size:6.75px; font-family:Arial;" text-anchor="middle"><textPath startOffset="21.40746469413373" xlink:href="#id129">September</textPath></text><line stroke="#e1ed5e" stroke-width="0.3" x1="15.003131293944662" x2="10.003315487706104" y1="100.72959589197737" y2="100.7725132973878" /><path d="M 14.003168132696942 100.73817937305945 a86.0,86.0 0 0,1 10.791469493833604,-42.45332614584628" fill="none" id="id130" stroke="none" /><text fill="#e1ed5e" style="font-size:6.75px; font-family:Arial;" text-anchor="middle"><textPath startOffset="22.145653131862435" xlink:href="#id130">October</textPath></text><line stroke="#e1ed5e" stroke-width="0.3" x1="26.387840678322718" x2="22.05771365940052" y1="57.49999999999999" y2="54.99999999999999" /><path d="M 25.521815274538284 56.99999999999999 a86.0,86.0 0 0,1 29.574782752854787,-30.34633250058573" fill="none" id="id131" stroke="none" /><text fill="#e1ed5e" style="font-size:6.75px; font-family:Arial;" text-anchor="middle"><textPath startOffset="21.40746469413373" xlink:href="#id131">November</textPath></text><line stroke="#e1ed5e" stroke-width="0.3" x1="56.869717070023135" x2="54.33264160355391" y1="26.7553504044142" y2="22.446841604673864" /><path d="M 56.362301976729285 25.89364864446614 a86.0,86.0 0 0,1 42.16139366436587,-11.88097634709845" fill="none" id="id132" stroke="none" /><text fill="#e1ed5e" style="font-size:6.75px; font-family:Arial;" text-anchor="middle"><textPath startOffset="22.145653131862474" xlink:href="#id132">December</textPath></text></svg>