<?xml version="1.0" encoding="utf-8" ?>
<svg baseProfile="full" height="200mm" version="1.1" viewBox="0,0,200,200" width="200mm" xmlns="http://www.w3.org/2000/svg" xmlns:ev="http://www.w3.org/2001/xml-events" xmlns:xlink="http://www.w3.org/1999/xlink"><defs /><rect fill="#1a1a1a" height="200" width="200" x="0" y="0" /><text alignment-baseline="middle" fill="#e1ed5e" style="dominant-baseline: central; font-size:9.0px; font-family:Arial;" text-anchor="middle" x="100.0" y="100.0">2024</text><line stroke="#e1ed5e" stroke-width="0.3" x1="100.0" x2="100.0" y1="15.0" y2="10.0" /><path d="M 100.0 14.0 a86.0,86.0 0 0,1 42.35913384403234,11.155469271406648" fill="none" id="id121" stroke="none" /><text fill="#e1ed5e" style="font-size:6.75px; font-family:Arial;" text-anchor="middle"><textPath startOffset="22.145653131862478" xlink:href="#id121">January</textPath></text><path d="M 100.0 79.0 l 0.0 -0.8175893517236439 a21.817589351723644,21.817589351723644 0 0,0 0.3745279332644803,0.0032148718617569516 l -0.014035008415625497 0.8174688780563218" fill="#ff0000" stroke="none" /><path d="M 100.72087961077811 79.0123766808444 l 0.499559961460321 -14.544143210187507 a35.55272008504038,35.55272008504038 0 0,0 0.6097701864381329,0.026186155485283268 l -0.7491559084992901 14.533424486276392" fill="#ffbc11" stroke="none" /><path d="M 101.44090949804482 79.04949213459386 l 0.9785498187721375 -14.227899602782543 a35.26151067926111,35.26151067926111 0 0,0 0.6035276299614599,0.0467168555345146 l -1.222646443508831 14.209004980252974" fill="#ffb811" stroke="none" /><path d="M 102.15924093988457 79.11130261209362 l 0.10162061231218535 -0.9830872413323506 a21.988325489359227,21.988325489359227 0 0,0 0.37512512413111926,0.042033552595024476 l -0.11848163804410129 0.9811979282303552" fill="#ff0200" stroke="none" /><path d="M 102.51750503828377 79.15144685158666 l 1.6784422071816238 -13.899909247777195 a35.00088016302156,35.00088016302156 0 0,0 0.5958852815058501,0.07714927972987884 l -1.9168053105782654 13.869048371846919" fill="#ffb510" stroke="none" /><path d="M 103.23170211078529 79.25015418208739 l 2.1342760862244643 -13.703583499920486 a34.8687899670996,34.8687899670996 0 0,0 0.5906482396483197,0.09719094306611581 l -2.3692018289258545 13.664926558358701" fill="#ffb310" stroke="none" /><path d="M 103.94208987418118 79.37332000966035 l 2.5966170196042766 -13.586597472482024 a34.832499803931086,34.832499803931086 0 0,0 0.5863529094491378,0.11728700366080036 l -2.829466414584371 13.540021072158366" fill="#ffb310" stroke="none" /><path d="M 104.64783097203109 79.52079915486377 l 0.4848775084890805 -2.1364597683073234 a23.190791304491224,23.190791304491224 0 0,0 0.3874715713368876,0.09144223580511468 l -0.5214812335658531 2.127821388855981" fill="#ff1402" stroke="none" /><path d="M 105.3480935250658 79.69241777938227 l 3.5326434498951196 -13.414022581811361 a34.87139400238606,34.87139400238606 0 0,0 0.5775675909221084,0.15741861523481557 l -3.762392441751921 13.351403472432402" fill="#ffb310" stroke="none" /><path d="M 105.69591212413111 79.78721728523813 l 0.6609887187218028 -2.3456157779945963 a23.436969319514443,23.436969319514443 0 0,0 0.38630820333664023,0.11244868787521677 l -0.7011569344400475 2.3339233958168637" fill="#ff1702" stroke="none" /><path d="M 106.38641147887787 79.99465700312896 l 4.220415953946592 -13.220392864977619 a34.877705081485125,34.877705081485125 0 0,0 0.5688009977826881,0.18697618579455363 l -4.446739689377022 13.145995757781042" fill="#ffb310" stroke="none" /><path d="M 107.06938296918511 80.22567764915836 l 1.3896008642356272 -3.886960933956992 a25.127887578894587,25.127887578894587 0 0,0 0.40493094060540474,0.14869625026826253 l -1.4561209564951567 3.8625338346800073" fill="#ff3004" stroke="none" /><path d="M 107.40779381753099 80.34994680014964 l 4.898796559118347 -12.994639885104595 a34.88736380567532,34.88736380567532 0 0,0 0.5585761619022603,0.21606925900643276 l -5.121144983514133 12.908630737960124" fill="#ffb310" stroke="none" /><path d="M 108.73861861582097 80.90454125486305 l 5.816555385428545 -12.710223238277841 a34.97791441233691,34.97791441233691 0 0,0 0.5438420867078354,0.254545556776032 l -6.033886186007885 12.608501449931275" fill="#ffb510" stroke="none" /><path d="M 109.3889696526874 81.21577127319529 l 15.43482041519948 -30.879980206696615 a55.52255579784662,55.52255579784662 0 0,0 0.848894345122736,0.4334515012313498 l -15.962641982035795 30.61047075379243" fill="#5cff2a" stroke="none" /><line stroke="#e1ed5e" stroke-width="0.3" x1="143.13028292997686" x2="145.6673583964461" y1="26.7553504044142" y2="22.446841604673864" /><path d="M 143.63769802327073 25.89364864446614 a86.0,86.0 0 0,1 29.32050498858742,28.57503671076993" fill="none" id="id122" stroke="none" /><text fill="#e1ed5e" style="font-size:6.75px; font-family:Arial;" text-anchor="middle"><textPath startOffset="20.669276256404974" xlink:href="#id122">February</textPath></text><path d="M 110.96478420261332 82.08984904055464 l 12.225487107552516 -19.969414409162013 a44.41452640695046,44.41452640695046 0 0,0 0.6468359703839053,0.4036734853010829 l -12.566487206726134 19.756605127019387" fill="#d6ff1c" stroke="none" /><path d="M 111.27062007382361 82.28071324371311 l 2.2710534781520826 -3.5704732796114387 a25.231543848413477,25.231543848413477 0 0,0 0.36347164449916186,0.23559792862452988 l -2.332010754908252 3.530961509283014" fill="#ff3104" stroke="none" /><path d="M 111.8722381534696 82.67804972795209 l 7.770720756877427 -11.33771381508751 a34.74510296921023,34.74510296921023 0 0,0 0.48908680930341353,0.34142057728958175 l -7.964202657354601 11.202648421992802" fill="#ffb210" stroke="none" /><path d="M 112.16784306229584 82.88440491214696 l 7.999996017824392 -11.252996266018897 a34.80687731705621,34.80687731705621 0 0,0 0.4840128164840005,0.35038795313036697 l -8.191989844682361 11.114007541515456" fill="#ffb210" stroke="none" /><path d="M 116.57777611688842 87.10902102172516 l 11.213732500702017 -8.71986621820055 a35.205064711595504,35.205064711595504 0 0,0 0.36688375234506426,0.48026260894635875 l -11.361768230401388 8.52608269601331" fill="#ffb811" stroke="none" /><path d="M 117.42321728460499 88.27688183743584 l 11.752229900852152 -7.907424762649566 a35.164825237871696,35.164825237871696 0 0,0 0.3326853040185158,0.5037279526782049 l -11.886239643791392 7.704516931632303" fill="#ffb711" stroke="none" /><line stroke="#e1ed5e" stroke-width="0.3" x1="172.87174338648825" x2="177.1583165268699" y1="56.24261187166439" y2="53.66864786411523" /><path d="M 173.72905801456457 55.72781907015455 a86.0,86.0 0 0,1 12.242430191666344,42.057860355516425" fill="none" id="id123" stroke="none" /><text fill="#e1ed5e" style="font-size:6.75px; font-family:Arial;" text-anchor="middle"><textPath startOffset="22.145653131862474" xlink:href="#id123">March</textPath></text><path d="M 118.53625476483649 90.13048839642627 l 12.47024060206489 -6.6397007315043375 a35.12772191392961,35.12772191392961 0 0,0 0.2788337046830516,0.5347003943318118 l -12.582382375722887 6.4246540940680275" fill="#ffb710" stroke="none" /><path d="M 118.8641267826498 90.77261029715802 l 12.523253015644858 -6.125750598163333 a34.94118669571412,34.94118669571412 0 0,0 0.2589320667308706,0.5410684322121604 l -12.62656434033564 5.909869663886069" fill="#ffb410" stroke="none" /><path d="M 119.71291397450082 92.76114493625339 l 13.148069543589836 -4.828153256145782 a35.006526928111256,35.006526928111256 0 0,0 0.20230410263560497,0.5658805805049475 l -13.229013816269385 4.601737719259917" fill="#ffb510" stroke="none" /><path d="M 119.94978838288452 93.4421083053983 l 13.208062499985209 -4.341752489201549 a34.90337116245565,34.90337116245565 0 0,0 0.1822210008441767,0.5708046897976342 l -13.280648216606641 4.1143787657125275" fill="#ffb410" stroke="none" /><path d="M 120.35273937422433 94.82641323984039 l 13.42814790039311 -3.4133826859160354 a34.85519171268818,34.85519171268818 0 0,0 0.14242905783879245,0.581159160017427 l -13.484764484748194 3.1823677012905134" fill="#ffb310" stroke="none" /><path d="M 120.51834098615036 95.52812308129327 l 13.592631623685138 -2.9624507977262704 a34.911712661859944,34.911712661859944 0 0,0 0.12259379098702337,0.5866556693248294 l -13.64148312549653 2.7286786771160365" fill="#ffb410" stroke="none" /><path d="M 120.65975698304385 96.23510406497455 l 13.46787133446794 -2.454294795538958 a34.6896720641947,34.6896720641947 0 0,0 0.10173189453371292,0.5867625334715164 l -13.508018046493888 2.222739229146849" fill="#ffb110" stroke="none" /><path d="M 120.86939407059847 97.66154086499901 l 13.592196047378259 -1.5230339177166377 a34.67725943692231,34.67725943692231 0 0,0 0.061209668696156086,0.5921480197000896 l -13.616338108556082 1.2894813757336168" fill="#ffb110" stroke="none" /><path d="M 120.93736805541906 98.37931529534042 l 13.667154619103147 -1.0579242046454356 a34.70803848131625,34.70803848131625 0 0,0 0.04088282798848664,0.5944273464052289 l -13.6833014082567 0.8231534340858725" fill="#ffb110" stroke="none" /><path d="M 120.98066250479742 99.09900007780936 l 1.3313851377898926 -0.057175406414367316 a22.332612251266834,22.332612251266834 0 0,0 0.013160622227973864,0.38315715666904887 l -1.3321704470147147 0.0343119851811985" fill="#ff0701" stroke="none" /><line stroke="#e1ed5e" stroke-width="0.3" x1="184.99686870605535" x2="189.99668451229388" y1="99.2704041080226" y2="99.22748670261217" /><path d="M 185.99683186730306 99.26182062694052 a86.0,86.0 0 0,1 -10.086455211305974,41.156179273409016" fill="none" id="id124" stroke="none" /><text fill="#e1ed5e" style="font-size:6.75px; font-family:Arial;" text-anchor="middle"><textPath startOffset="21.40746469413373" xlink:href="#id124">April</textPath></text><path d="M 120.99922638620191 99.81974689727618 l 13.911235844975028 -0.1194112286644679 a34.911748336425916,34.911748336425916 0 0,0 0.0,0.5993286627765878 l -13.911235844975028 -0.11941122866446621" fill="#ffb410" stroke="none" /><path d="M 120.99303781780057 100.54070618675476 l 13.802645856843924 0.35550719591674135 a34.80722339993814,34.80722339993814 0 0,0 -0.02051191830214036,0.5971821209007241 l -13.794509251544937 -0.5923955813815762" fill="#ffb210" stroke="none" /><path d="M 120.86939407059847 102.33845913500097 l 13.9939247331216 1.5680484548800293 a35.08150224205941,35.08150224205941 0 0,0 -0.0721975875132733,0.5978995940694609 l -13.964945059348665 -1.808041725872899" fill="#ffb610" stroke="none" /><path d="M 120.77682067341334 103.0534771498775 l 13.55245339760577 1.9917439450840788 a34.6980304072175,34.6980304072175 0 0,0 -0.09166642632064041,0.5885642140358456 l -13.516265479146861 -2.224096341051375" fill="#ffb110" stroke="none" /><path d="M 120.65975698304385 103.76489593502545 l 13.889453010576837 2.5311210205505223 a35.1181967174882,35.1181967174882 0 0,0 -0.11317040858271102,0.592155398967526 l -13.843956309711967 -2.769178984551363" fill="#ffb610" stroke="none" /><path d="M 120.43855184770803 104.8234425847677 l 13.491361362834953 3.1839245465566224 a34.86196980738169,34.86196980738169 0 0,0 -0.1424567552231255,0.5812721747972853 l -13.434717081095531 -3.4150525459620074" fill="#ffb310" stroke="none" /><path d="M 120.26092885502905 105.52220625578681 l 13.605194757930278 3.708156330887658 a35.10148033986204,35.10148033986204 0 0,0 -0.1634416989545812,0.5799969303431648 l -13.539534566901116 -3.9411611851338315" fill="#ffb610" stroke="none" /><path d="M 119.94978838288452 106.5578916946017 l 39.79827866599584 13.082484691772006 a62.893369290219525,62.893369290219525 0 0,0 -0.34595719235491784,1.0227609666327726 l -39.56783605206856 -13.763747332878939" fill="#33ff51" stroke="none" /><path d="M 119.4528033332814 107.91128576633889 l 12.983591030286561 5.280313441412071 a35.01625292584629,35.01625292584629 0 0,0 -0.23123091914231197,0.5548700292811135 l -12.891034266607763 -5.5024159801344625" fill="#ffb510" stroke="none" /><path d="M 118.8641267826498 109.22738970284198 l 12.61296415943138 6.169632814072063 a35.04105530035315,35.04105530035315 0 0,0 -0.2689485873554004,0.5380773362270675 l -12.505195658864247 -6.385242006462876" fill="#ffb510" stroke="none" /><path d="M 118.5362547648365 109.86951160357373 l 12.494852337715134 6.652805094476566 a35.15560491700721,35.15560491700721 0 0,0 -0.28820004159755463,0.5302556158923097 l -12.378806946502241 -6.866315543843479" fill="#ffb711" stroke="none" /><line stroke="#e1ed5e" stroke-width="0.3" x1="174.33088141563837" x2="178.70328620479359" y1="141.23008692659167" y2="143.65538615756765" /><path d="M 175.20536237346943 141.71514677278685 a86.0,86.0 0 0,1 -30.301960400862466,31.631185727798858" fill="none" id="id125" stroke="none" /><text fill="#e1ed5e" style="font-size:6.75px; font-family:Arial;" text-anchor="middle"><textPath startOffset="22.145653131862474" xlink:href="#id125">May</textPath></text><path d="M 118.00360718960297 110.81064883170644 l 36.30820010182878 21.802030941825667 a63.35107965356684,63.35107965356684 0 0,0 -0.5678429846256516,0.927528840328979 l -35.928589152747726 -22.422096898279204" fill="#33ff57" stroke="none" /><path d="M 117.423217284605 111.72311816256416 l 4.962314834813309 3.338866881937087 a26.981020027980556,26.981020027980556 0 0,0 -0.26185756156637285,0.38205800803337553 l -4.904267536431616 -3.4235596250405065" fill="#ff4a06" stroke="none" /><path d="M 117.21940702142032 112.02048342749411 l 2.004455203960787 1.399265406200821 a23.444541744719412,23.444541744719412 0 0,0 -0.23320051392171137,0.3280257273313458 l -1.9801395915091151 -1.4334683602416707" fill="#ff1802" stroke="none" /><path d="M 117.01052211995028 112.31430620078461 l 2.9259743427217684 2.1181797794235284 a24.612203127209874,24.612203127209874 0 0,0 -0.25069050202394205,0.34010981250043393 l -2.8891818211139983 -2.16809590119284" fill="#ff2803" stroke="none" /><path d="M 116.57777611688842 112.89097897827486 l 11.108518228993615 8.638050964137266 a35.07178388488525,35.07178388488525 0 0,0 -0.3736540663015778,0.47209970645673727 l -10.958597732050476 -8.827470614508687" fill="#ffb610" stroke="none" /><path d="M 116.35404254752997 113.17365903436017 l 10.741365001687067 8.652483304026063 a34.79283833827967,34.79283833827967 0 0,0 -0.37866732713952583,0.46191256866407493 l -10.591250855308914 -8.83559815438863" fill="#ffb210" stroke="none" /><path d="M 115.6541949942343 113.99807769240083 l 10.522097821717598 9.408924754654803 a35.115325274627935,35.115325274627935 0 0,0 -0.4056694593957135,0.44590179870539287 l -10.359030661480004 -9.58816412891787" fill="#ffb610" stroke="none" /><path d="M 115.16444852881244 114.52719865689866 l 10.356028459728812 9.92084100157899 a35.341213743519894,35.341213743519894 0 0,0 -0.42344361148667137,0.4344904487314595 l -10.184198047091332 -10.097154142378187" fill="#ffb911" stroke="none" /><path d="M 113.86319453409587 115.77377054828091 l 9.344569247090222 10.632404444271641 a35.15517568524784,35.15517568524784 0 0,0 -0.4567168247370251,0.3945011154505878 l -9.16067294259034 -10.791249692186947" fill="#ffb711" stroke="none" /><path d="M 113.59037401385872 116.0094264158162 l 4.474043738601891 5.270412274250066 a27.91334310702778,27.91334310702778 0 0,0 -0.36795856149383066,0.306964118897888 l -4.382910842946165 -5.346438577059824" fill="#ff5608" stroke="none" /><path d="M 113.03279911837588 116.46651593811092 l 13.284068598339022 16.78398671771806 a42.40487534805828,42.40487534805828 0 0,0 -0.5746669439542881,0.4468644914607929 l -12.993991709749505 -17.009552260799648" fill="#edff19" stroke="none" /><path d="M 111.8722381534696 117.32195027204791 l 8.049437358170218 11.744369665920239 a35.23810593558335,35.23810593558335 0 0,0 -0.5018975374173332,0.337699062149802 l -7.846643532655881 -11.880818402127161" fill="#ffb811" stroke="none" /><path d="M 110.96478420261333 117.91015095944535 l 7.242395522265518 11.82990879846692 a34.87079792517275,34.87079792517275 0 0,0 -0.5132105424464668,0.30816818500252546 l -7.038252223261615 -11.95249098400537" fill="#ffb310" stroke="none" /><line stroke="#e1ed5e" stroke-width="0.3" x1="143.1302829299769" x2="145.66735839644613" y1="173.24464959558577" y2="177.55315839532614" /><path d="M 143.63769802327073 174.10635135553383 a86.0,86.0 0 0,1 -40.68552437913181,11.842963189579606" fill="none" id="id126" stroke="none" /><text fill="#e1ed5e" style="font-size:6.75px; font-family:Arial;" text-anchor="middle"><textPath startOffset="21.407464694133747" xlink:href="#id126">June</textPath></text><path d="M 110.34350942703117 118.27599006163325 l 31.03052828109348 54.82797018489977 a84.0,84.0 0 0,0 -1.2610232473756222,0.6994683382674252 l -30.084760845561767 -55.352571438600336" fill="#4dd2ff" stroke="none" /><path d="M 109.3889696526874 118.78422872680471 l 3.05451030841791 6.111066752173598 a27.831922867959857,27.831922867959857 0 0,0 -0.4291944268627348,0.20994050138556428 l -2.9491556322931056 -6.162601003656386" fill="#ff5507" stroke="none" /><line stroke="#e1ed5e" stroke-width="0.3" x1="101.45913802915013" x2="101.54496967792366" y1="184.9874750549273" y2="189.98673829345242" /><path d="M 101.47630435890484 185.9873277026323 a86.0,86.0 0 0,1 -42.54439059252881,-10.42667462771756" fill="none" id="id127" stroke="none" /><text fill="#e1ed5e" style="font-size:6.75px; font-family:Arial;" text-anchor="middle"><textPath startOffset="22.145653131862474" xlink:href="#id127">July</textPath></text><line stroke="#e1ed5e" stroke-width="0.3" x1="58.13341422392154" x2="55.67067388415222" y1="173.97424548756322" y2="178.32567169271397" /><path d="M 57.64086615596768 174.84453072859336 a86.0,86.0 0 0,1 -31.369924170532247,-30.572349798747897" fill="none" id="id128" stroke="none" /><text fill="#e1ed5e" style="font-size:6.75px; font-family:Arial;" text-anchor="middle"><textPath startOffset="22.145653131862474" xlink:href="#id128">August</textPath></text><line stroke="#e1ed5e" stroke-width="0.3" x1="26.387840678322732" x2="22.057713659400548" y1="142.50000000000003" y2="145.00000000000006" /><path d="M 25.521815274538298 143.00000000000003 a86.0,86.0 0 0,1 -11.493303480769221,-40.785679425670985" fill="none" id="id129" stroke="none" /><text fill="#e1ed5e" style="font-size:6.75px; font-family:Arial;" text-anchor="middle"><textPath startOffset="21.40746469413373" xlink:href="#id129">September</textPath></text><line stroke="#e1ed5e" stroke-width="0.3" x1="15.003131293944662" x2="10.003315487706104" y1="100.72959589197737" y2="100.7725132973878" /><path d="M 14.003168132696942 100.73817937305945 a86.0,86.0 0 0,1 10.791469493833604,-42.45332614584628" fill="none" id="id130" stroke="none" /><text fill="#e1ed5e" style="font-size:6.75px; font-family:Arial;" text-anchor="middle"><textPath startOffset="22.145653131862435" xlink:href="#id130">October</textPath></text><line stroke="#e1ed5e" stroke-width="0.3" x1="26.387840678322718" x2="22.05771365940052" y1="57.49999999999999" y2="54.99999999999999" /><path d="M 25.521815274538284 56.99999999999999 a86.0,86.0 0 0,1 29.574782752854787,-30.34633250058573" fill="none" id="id131" stroke="none" /><text fill="#e1ed5e" style="font-size:6.75px; font-family:Arial;" text-anchor="middle"><textPath startOffset="21.40746469413373" xlink:href="#id131">November</textPath></text><line stroke="#e1ed5e" stroke-width="0.3" x1="56.869717070023135" x2="54.33264160355391" y1="26.7553504044142" y2="22.446841604673864" /><path d="M 56.362301976729285 25.89364864446614 a86.0,86.0 0 0,1 42.16139366436587,-11.88097634709845" fill="none" id="id132" stroke="none" /><text fill="#e1ed5e" style="font-size:6.75px; font-family:Arial;" text-anchor="middle"><textPath startOffset="22.145653131862474" xlink:href="#id132">December</textPath></text></svg>