<?xml version="1.0" encoding="utf-8" ?>
<svg baseProfile="full" height="200mm" version="1.1" viewBox="0,0,200,200" width="200mm" xmlns="http://www.w3.org/2000/svg" xmlns:ev="http://www.w3.org/2001/xml-events" xmlns:xlink="http://www.w3.org/1999/xlink"><defs /><rect fill="#f5f5f5" height="200" rx="1" ry="1" width="200" x="0" y="0" /><rect fill="#f5f5f5" height="200" width="180" x="10" y="0" /><text alignment-baseline="middle" fill="#006cb8" style="dominant-baseline: central; font-size:9.0px; font-family:Arial;" text-anchor="middle" x="100.0" y="100.0">2025</text><line stroke="#006cb8" stroke-width="0.3" x1="100.0" x2="100.0" y1="15.0" y2="10.0" /><path d="M 100.0 14.0 a86.0,86.0 0 0,1 42.46469731375804,11.215312516191453" fill="none" id="id1" stroke="none" /><text fill="#006cb8" style="font-size:6.75px; font-family:Arial;" text-anchor="middle"><textPath startOffset="22.20632615414155" xlink:href="#id1">一月</textPath></text><line stroke="#006cb8" stroke-width="0.3" x1="143.23703022742887" x2="145.7803849466894" y1="26.81831364943548" y2="22.513508569990506" /><path d="M 143.74570117128098 25.957352633546492 a86.0,86.0 0 0,1 28.547481713284135,27.462654790039103" fill="none" id="id2" stroke="none" /><text fill="#006cb8" style="font-size:6.75px; font-family:Arial;" text-anchor="middle"><textPath startOffset="19.985693538727396" xlink:href="#id2">二月</textPath></text><line stroke="#006cb8" stroke-width="0.3" x1="172.23445277983987" x2="176.4835382374775" y1="55.19839476539836" y2="52.563006222186495" /><path d="M 173.08426987136738 54.67131705675599 a86.0,86.0 0 0,1 12.851231095245387,41.99856678651699" fill="none" id="id3" stroke="none" /><text fill="#006cb8" style="font-size:6.75px; font-family:Arial;" text-anchor="middle"><textPath startOffset="22.20632615414155" xlink:href="#id3">三月</textPath></text><line stroke="#006cb8" stroke-width="0.3" x1="184.98032266829074" x2="189.97916517819016" y1="98.17113171792111" y2="98.06355123074" /><path d="M 185.9800911702706 98.14961562048488 a86.0,86.0 0 0,1 -9.607161424134198,41.387399972396054" fill="none" id="id4" stroke="none" /><text fill="#006cb8" style="font-size:6.75px; font-family:Arial;" text-anchor="middle"><textPath startOffset="21.466115282336823" xlink:href="#id4">四月</textPath></text><line stroke="#006cb8" stroke-width="0.3" x1="174.80103733775053" x2="179.2010983576182" y1="140.37084112569926" y2="142.7455964860345" /><path d="M 175.68104954172406 140.8457921977663 a86.0,86.0 0 0,1 -30.038265399797805,32.042727171017184" fill="none" id="id5" stroke="none" /><text fill="#006cb8" style="font-size:6.75px; font-family:Arial;" text-anchor="middle"><textPath startOffset="22.206326154141568" xlink:href="#id5">五月</textPath></text><line stroke="#006cb8" stroke-width="0.3" x1="143.8653032363475" x2="146.44561519142675" y1="172.8068346515853" y2="177.08958963109032" /><path d="M 144.38136562736335 173.6633856474863 a86.0,86.0 0 0,1 -40.68145358897372,12.25698825130547" fill="none" id="id6" stroke="none" /><text fill="#006cb8" style="font-size:6.75px; font-family:Arial;" text-anchor="middle"><textPath startOffset="21.466115282336833" xlink:href="#id6">六月</textPath></text><line stroke="#006cb8" stroke-width="0.3" x1="102.19456741930631" x2="102.32365962044197" y1="184.97166512339345" y2="189.96999836594603" /><path d="M 102.22038585953345 185.97133177190398 a86.0,86.0 0 0,1 -42.740103519485714,-10.115201625700543" fill="none" id="id7" stroke="none" /><text fill="#006cb8" style="font-size:6.75px; font-family:Arial;" text-anchor="middle"><textPath startOffset="22.20632615414155" xlink:href="#id7">七月</textPath></text><line stroke="#006cb8" stroke-width="0.3" x1="58.666819895761336" x2="56.23545636021788" y1="174.27360380694188" y2="178.64263932499728" /><path d="M 58.180547188652646 175.14741091055294 a86.0,86.0 0 0,1 -31.652253787137756,-30.449443065178592" fill="none" id="id8" stroke="none" /><text fill="#006cb8" style="font-size:6.75px; font-family:Arial;" text-anchor="middle"><textPath startOffset="22.20632615414155" xlink:href="#id8">八月</textPath></text><line stroke="#006cb8" stroke-width="0.3" x1="26.63291911575756" x2="22.317208475507996" y1="142.92168965132927" y2="145.44649492493687" /><path d="M 25.769776987707644 143.4266507060508 a86.0,86.0 0 0,1 -11.730757126820373,-40.83630448921669" fill="none" id="id9" stroke="none" /><text fill="#006cb8" style="font-size:6.75px; font-family:Arial;" text-anchor="middle"><textPath startOffset="21.46611528233685" xlink:href="#id9">九月</textPath></text><path d="M 80.20201598880116 107.00284435728193 l -32.53739113548671 11.508964033152626 a55.51286825258153,55.51286825258153 0 0,0 -0.31089630034019744,-0.9036101761209491 l 32.730678266770134 -10.94718115394238" fill="#70d700" stroke="none" /><path d="M 80.0844068197444 106.66101706037122 l -15.34364635633917 5.1318727603455825 a37.17911003537516,37.17911003537516 0 0,0 -0.1977711757748064,-0.6086770918099176 l 15.429709783130225 -4.866996768557861" fill="#f17d00" stroke="none" /><path d="M 79.97269907076064 106.31721596034903 l -10.76586100680392 3.3958779178170584 a32.28874439654555,32.28874439654555 0 0,0 -0.16263260507367722,-0.5314927632403335 l 10.822720384383727 -3.210058182024677" fill="#f84100" stroke="none" /><path d="M 79.76711848015287 105.62410040840567 l -27.60965514531076 7.674609898069295 a49.65645990576171,49.65645990576171 0 0,0 -0.22182704884843016,-0.8255009704527018 l 27.737670270500967 -7.198217994441054" fill="#b9df00" stroke="none" /><path d="M 79.67330655649465 105.27499134158121 l -39.98701905274142 10.37705320174685 a62.3115592283345,62.3115592283345 0 0,0 -0.2604880899467192,-1.0405204335770213 l 40.15971845698319 -9.687204928772438" fill="#22ce00" stroke="none" /><path d="M 79.58551787078972 104.9243191809786 l -33.10793187556413 7.986194454773569 a55.05751686407057,55.05751686407057 0 0,0 -0.2143033461780021,-0.9232132064951756 l 33.240495787672685 -7.4151125909298194" fill="#75d800" stroke="none" /><path d="M 79.50377843672027 104.57218783832718 l -15.282267888889137 3.409086848905822 a36.65789209859216,36.65789209859216 0 0,0 -0.1320835544750335,-0.6170503936278919 l 15.338685482088612 -3.145522635861766" fill="#f27700" stroke="none" /><path d="M 79.4281124754447 104.21870165774334 l -6.332168578802719 1.298545408077852 a27.463944545493604,27.463944545493604 0 0,0 -0.0909842125134557,-0.4639265394324177 l 6.353582724291841 -1.1893551415774795" fill="#ff0300" stroke="none" /><path d="M 79.35854240842038 103.8639653848113 l -12.60369653207977 2.3593414808307402 a33.82262291794967,33.82262291794967 0 0,0 -0.10219836921733319,-0.5731827284533032 l 12.64244134363629 -2.1420400016442236" fill="#f65400" stroke="none" /><path d="M 79.29508885075956 103.50808413554451 l -49.25315329109661 8.345083175707154 a70.95511507669391,70.95511507669391 0 0,0 -0.19366774834708683,-1.2059692538276314 l 49.389502793804986 -7.49603469218631" fill="#00c138" stroke="none" /><path d="M 79.23777060512086 103.15116336523772 l -20.075933683675373 3.0470016270286995 a41.30584477894104,41.30584477894104 0 0,0 -0.1006406069845513,-0.7038801708485133 l 20.125408341676522 -2.7009759841997854" fill="#ebad00" stroke="none" /><path d="M 79.18660465613746 102.79330883721812 l -8.382531407484047 1.1249966030020313 a29.45768586282457,29.45768586282457 0 0,0 -0.06312149547178876,-0.5031404247035225 l 8.400654412202682 -0.9805384240111004" fill="#fc1d00" stroke="none" /><path d="M 79.10278846688536 102.07522291339032 l -21.7959744942298 2.164475658315498 a42.903183764662074,42.903183764662074 0 0,0 -0.06665398530099652,-0.7355211736094923 l 21.83000307580787 -1.7889730961574397" fill="#e9bf00" stroke="none" /><path d="M 79.07016306316243 101.71520430193888 l -17.78360190698999 1.457369715153 a38.84321785085143,38.84321785085143 0 0,0 -0.048874832770019756,-0.6668582619114526 l 17.806053298424345 -1.1510383167447868" fill="#ef9100" stroke="none" /><path d="M 79.04373962182676 101.35467743843564 l -14.660948497672779 0.947729022137465 a35.69154863010756,35.69154863010756 0 0,0 -0.03435506858521883,-0.6134328280188088 l 14.675089917145531 -0.6952244777832186" fill="#f36b00" stroke="none" /><path d="M 79.0235259727143 100.99374915477108 l -33.899493759433014 1.6059702515677319 a54.93751342680778,54.93751342680778 0 0,0 -0.036619429258753534,-0.9449847543922392 l 33.92211532154297 -1.022208250161496" fill="#77d800" stroke="none" /><path d="M 79.0095281055655 100.63252640178507 l -20.798974385064316 0.626755820201112 a41.808415565071684,41.808415565071684 0 0,0 -0.01548491597639458,-0.7195231986140668 l 20.80668136372572 -0.26864280579691635" fill="#eab300" stroke="none" /><line stroke="#006cb8" stroke-width="0.3" x1="15.007084014347285" x2="10.007500721073583" y1="101.09737516637583" y2="101.16192664675087" /><path d="M 14.007167355692545 101.11028546245083 a86.0,86.0 0 0,1 10.666146001902534,-42.60595125391555" fill="none" id="id10" stroke="none" /><text fill="#006cb8" style="font-size:6.75px; font-family:Arial;" text-anchor="middle"><textPath startOffset="22.20632615414155" xlink:href="#id10">十月</textPath></text><path d="M 79.00175016825051 100.2711162175752 l -29.811903037986443 0.38491257391160516 a50.814387809174626,50.814387809174626 0 0,0 -0.003764384802237048,-0.8747104554237777 l 29.814111720078184 0.12830735971584792" fill="#aade00" stroke="none" /><path d="M 79.00019446554 99.90962569577889 l -15.356387877690628 -0.06608741531051628 a36.3565300832104,36.3565300832104 0 0,0 0.008079793672519209,-0.625788924181631 l 15.352975076900393 0.33041259755261926" fill="#f27300" stroke="none" /><path d="M 79.00486145842228 99.54816195383935 l -19.416511479674284 -0.4178642876234413 a40.421007404436935,40.421007404436935 0 0,0 0.020957918049054412,-0.6954912688751622 l 19.406441867169583 0.7520257039235979" fill="#eca300" stroke="none" /><path d="M 79.01574976396665 99.18683210126434 l -40.97613414178324 -1.5878802684676105 a62.006888847514425,62.006888847514425 0 0,0 0.05051019680226074,-1.0661904226523362 l 40.94273033674748 2.292981797742956" fill="#25ce00" stroke="none" /><path d="M 79.03285615573316 98.82574320788736 l -53.756702267523224 -3.010623346130031 a74.84094066425102,74.84094066425102 0 0,0 0.08310697642686261,-1.2856281413050827 l 53.696914700091945 3.9355105516881257" fill="#00bc5c" stroke="none" /><path d="M 79.05617556472873 98.46500227214037 l -12.916103292364697 -0.9466365260964978 a33.95074688856107,33.95074688856107 0 0,0 0.04773396793325567,-0.5824753144928512 l 12.897894840611945 1.1688257577971273" fill="#f65600" stroke="none" /><path d="M 79.16333360222342 97.38593545837743 l -19.445426566396744 -2.439526511273761 a40.59785457514,40.59785457514 0 0,0 0.09295748941147407,-0.6926412688475719 l 19.400553077927434 2.773886122185992" fill="#eca500" stroke="none" /><path d="M 79.21141760316559 97.0276538004421 l -48.9505123017622 -6.998931741911896 a70.44833364364177,70.44833364364177 0 0,0 0.181971757961395,-1.1989665226064579 l 48.822784650361505 7.840497376910446" fill="#00c233" stroke="none" /><path d="M 79.26566170972629 96.67025291283419 l -11.402505215615633 -1.8311391468855942 a32.548601463701075,32.548601463701075 0 0,0 0.093597592976812,-0.5524182920051098 l 11.369295761118599 2.027143227206532" fill="#f84500" stroke="none" /><path d="M 79.3925641242962 95.95851677861259 l -37.790087856392105 -7.411305653336104 a59.50997522306403,59.50997522306403 0 0,0 0.20579315718000657,-1.0035205203618918 l 37.656915403297106 8.060701829861397" fill="#41d200" stroke="none" /><path d="M 79.46518482838121 95.60439243477599 l -15.613082620782528 -3.3420794641108533 a36.96677312633373,36.96677312633373 0 0,0 0.13854726378403331,-0.6210802171554496 l 15.553240969996457 3.610337850816262" fill="#f17b00" stroke="none" /><path d="M 79.62865764111835 94.90015583598534 l -15.794260037495636 -3.9539988802963655 a37.28166936396316,37.28166936396316 0 0,0 0.16120534915458287,-0.6211899700931489 l 15.723858356470746 4.225285275938378" fill="#f17e00" stroke="none" /><path d="M 79.71946130924805 94.55025226153421 l -50.06277828508252 -13.452774450456511 a72.83877805307708,72.83877805307708 0 0,0 0.3357979681580227,-1.2080439556506262 l 49.82379354635814 14.31252970952608" fill="#00bf4a" stroke="none" /><path d="M 79.81627453868168 94.20196356495316 l -11.247708601748643 -3.231049907447012 a32.70259083683027,32.70259083683027 0 0,0 0.1600777851045181,-0.5397027124427273 l 11.190424919532418 3.4241820066362783" fill="#f74700" stroke="none" /><path d="M 79.91906864156998 93.8553929516997 l -34.10448081875693 -10.435702880363825 a56.66538246709536,56.66538246709536 0 0,0 0.29343093349876137,-0.9302562464245093 l 33.919794401489966 11.02120929321475" fill="#62d600" stroke="none" /><path d="M 80.02781315780177 93.51064311812611 l -11.053166491789577 -3.5913914989240054 a32.62198702433295,32.62198702433295 0 0,0 0.17812025308343535,-0.5325568851457302 l 10.98970894493437 3.781121486992058" fill="#f74600" stroke="none" /><path d="M 80.14247586403 93.16781622104843 l -52.63525109188638 -18.109695158804985 a76.66354926027239,76.66354926027239 0 0,0 0.44007403226244,-1.2441485502124408 l 52.31572397881413 19.013041335444036" fill="#00b96d" stroke="none" /><path d="M 80.2630227832202 92.82701384747504 l -41.10355604985704 -14.93821648203037 a64.73388425017544,64.73388425017544 0 0,0 0.3896221875089968,-1.0439937545597686 l 40.840329273846415 15.64353337361948" fill="#08ca00" stroke="none" /><path d="M 80.52162464483688 92.15188598940014 l -20.842528363294367 -8.397750627643426 a43.4707188175816,43.4707188175816 0 0,0 0.28561983106163064,-0.6916510760775132 l 20.694886845346538 8.75527627417425" fill="#e8c500" stroke="none" /><path d="M 80.803312248108 91.48605970444005 l -53.98898315063496 -23.94470260199936 a80.06063904444093,80.06063904444093 0 0,0 0.5695654274129952,-1.2549619205461489 l 53.568815406258615 24.87048653138758" fill="#00b58a" stroke="none" /><path d="M 80.95270993114464 91.15688171328213 l -12.06158329482319 -5.599852126766692 a34.29812525958495,34.29812525958495 0 0,0 0.25322110895656647,-0.5333482348965956 l 11.963403992024872 5.80664277730382" fill="#f55a00" stroke="none" /><path d="M 81.10775173730289 90.83032412892265 l -14.256513769982824 -6.919642834697235 a36.84707044956533,36.84707044956533 0 0,0 0.2818625199868029,-0.5682176408092853 l 14.135291237042608 7.164020064005482" fill="#f17900" stroke="none" /><path d="M 81.26839172434947 90.50648371742162 l -10.340304904926368 -5.240652673126348 a32.592512495882445,32.592512495882445 0 0,0 0.2579318155441319,-0.49824216958329237 l 10.248563656222121 5.417867564969976" fill="#f74500" stroke="none" /><path d="M 81.43458229118936 90.18545643968196 l -55.69625312643191 -29.44363068095413 a84.0,84.0 0 0,0 0.6867676031261127,-1.2724760666701092 l 55.18117742408733 30.39798773095671" fill="#00afaa" stroke="none" /><line stroke="#006cb8" stroke-width="0.3" x1="26.266209847984243" x2="21.928928074336255" y1="57.711370442889674" y2="55.22380399835377" /><path d="M 25.398753493254645 57.213857153982495 a86.0,86.0 0 0,1 29.58750427330803,-30.492523968695096" fill="none" id="id11" stroke="none" /><text fill="#006cb8" style="font-size:6.75px; font-family:Arial;" text-anchor="middle"><textPath startOffset="21.46611528233685" xlink:href="#id11">十一月</textPath></text><path d="M 81.78341655067845 89.55222093294921 l -5.428736496762996 -3.1135497877088176 a27.25822436732882,27.25822436732882 0 0,0 0.23693929282729156,-0.40500605644206683 l 5.37433752946538 3.2065352565047767" fill="#ff0000" stroke="none" /><path d="M 82.7489923806493 88.02491185347247 l -15.197628011994622 -10.549698839482703 a39.500379531100066,39.500379531100066 0 0,0 0.39253479624275167,-0.5552126316389279 l 15.013780595947992 10.809737971453417" fill="#ee9800" stroke="none" /><line stroke="#006cb8" stroke-width="0.3" x1="56.762969772571076" x2="54.21961505331055" y1="26.818313649435495" y2="22.513508569990535" /><path d="M 56.25429882871897 25.957352633546506 a86.0,86.0 0 0,1 42.265352541879196,-11.944610805530505" fill="none" id="id12" stroke="none" /><text fill="#006cb8" style="font-size:6.75px; font-family:Arial;" text-anchor="middle"><textPath startOffset="22.20632615414155" xlink:href="#id12">十二月</textPath></text></svg>