<?xml version="1.0" encoding="utf-8" ?>
<svg baseProfile="full" height="200mm" version="1.1" viewBox="0,0,200,200" width="200mm" xmlns="http://www.w3.org/2000/svg" xmlns:ev="http://www.w3.org/2001/xml-events" xmlns:xlink="http://www.w3.org/1999/xlink"><defs /><rect fill="#f5f5f5" height="200" rx="1" ry="1" width="200" x="0" y="0" /><rect fill="#f5f5f5" height="200" width="180" x="10" y="0" /><text alignment-baseline="middle" fill="#006cb8" style="dominant-baseline: central; font-size:9.0px; font-family:Arial;" text-anchor="middle" x="100.0" y="100.0">2025</text><line stroke="#006cb8" stroke-width="0.3" x1="100.0" x2="100.0" y1="15.0" y2="10.0" /><path d="M 100.0 14.0 a86.0,86.0 0 0,1 42.46469731375804,11.215312516191453" fill="none" id="id1" stroke="none" /><text fill="#006cb8" style="font-size:6.75px; font-family:Arial;" text-anchor="middle"><textPath startOffset="22.20632615414155" xlink:href="#id1">一月</textPath></text><line stroke="#006cb8" stroke-width="0.3" x1="143.23703022742887" x2="145.7803849466894" y1="26.81831364943548" y2="22.513508569990506" /><path d="M 143.74570117128098 25.957352633546492 a86.0,86.0 0 0,1 28.547481713284135,27.462654790039103" fill="none" id="id2" stroke="none" /><text fill="#006cb8" style="font-size:6.75px; font-family:Arial;" text-anchor="middle"><textPath startOffset="19.985693538727396" xlink:href="#id2">二月</textPath></text><line stroke="#006cb8" stroke-width="0.3" x1="172.23445277983987" x2="176.4835382374775" y1="55.19839476539836" y2="52.563006222186495" /><path d="M 173.08426987136738 54.67131705675599 a86.0,86.0 0 0,1 12.851231095245387,41.99856678651699" fill="none" id="id3" stroke="none" /><text fill="#006cb8" style="font-size:6.75px; font-family:Arial;" text-anchor="middle"><textPath startOffset="22.20632615414155" xlink:href="#id3">三月</textPath></text><line stroke="#006cb8" stroke-width="0.3" x1="184.98032266829074" x2="189.97916517819016" y1="98.17113171792111" y2="98.06355123074" /><path d="M 185.9800911702706 98.14961562048488 a86.0,86.0 0 0,1 -9.607161424134198,41.387399972396054" fill="none" id="id4" stroke="none" /><text fill="#006cb8" style="font-size:6.75px; font-family:Arial;" text-anchor="middle"><textPath startOffset="21.466115282336823" xlink:href="#id4">四月</textPath></text><line stroke="#006cb8" stroke-width="0.3" x1="174.80103733775053" x2="179.2010983576182" y1="140.37084112569926" y2="142.7455964860345" /><path d="M 175.68104954172406 140.8457921977663 a86.0,86.0 0 0,1 -30.038265399797805,32.042727171017184" fill="none" id="id5" stroke="none" /><text fill="#006cb8" style="font-size:6.75px; font-family:Arial;" text-anchor="middle"><textPath startOffset="22.206326154141568" xlink:href="#id5">五月</textPath></text><line stroke="#006cb8" stroke-width="0.3" x1="143.8653032363475" x2="146.44561519142675" y1="172.8068346515853" y2="177.08958963109032" /><path d="M 144.38136562736335 173.6633856474863 a86.0,86.0 0 0,1 -40.68145358897372,12.25698825130547" fill="none" id="id6" stroke="none" /><text fill="#006cb8" style="font-size:6.75px; font-family:Arial;" text-anchor="middle"><textPath startOffset="21.466115282336833" xlink:href="#id6">六月</textPath></text><line stroke="#006cb8" stroke-width="0.3" x1="102.19456741930631" x2="102.32365962044197" y1="184.97166512339345" y2="189.96999836594603" /><path d="M 102.22038585953345 185.97133177190398 a86.0,86.0 0 0,1 -42.740103519485714,-10.115201625700543" fill="none" id="id7" stroke="none" /><text fill="#006cb8" style="font-size:6.75px; font-family:Arial;" text-anchor="middle"><textPath startOffset="22.20632615414155" xlink:href="#id7">七月</textPath></text><line stroke="#006cb8" stroke-width="0.3" x1="58.666819895761336" x2="56.23545636021788" y1="174.27360380694188" y2="178.64263932499728" /><path d="M 58.180547188652646 175.14741091055294 a86.0,86.0 0 0,1 -31.652253787137756,-30.449443065178592" fill="none" id="id8" stroke="none" /><text fill="#006cb8" style="font-size:6.75px; font-family:Arial;" text-anchor="middle"><textPath startOffset="22.20632615414155" xlink:href="#id8">八月</textPath></text><line stroke="#006cb8" stroke-width="0.3" x1="26.63291911575756" x2="22.317208475507996" y1="142.92168965132927" y2="145.44649492493687" /><path d="M 25.769776987707644 143.4266507060508 a86.0,86.0 0 0,1 -11.730757126820373,-40.83630448921669" fill="none" id="id9" stroke="none" /><text fill="#006cb8" style="font-size:6.75px; font-family:Arial;" text-anchor="middle"><textPath startOffset="21.46611528233685" xlink:href="#id9">九月</textPath></text><path d="M 80.20201598880116 107.00284435728193 l -38.072433658216404 13.466791722865263 a61.38396567904546,61.38396567904546 0 0,0 -0.34377700937723427,-0.9991769077013087 l 38.29860149853686 -12.809442112074658" fill="red" stroke="none" /><path d="M 80.0844068197444 106.66101706037122 l -17.95380445667432 6.004872498753346 a39.93139160745408,39.93139160745408 0 0,0 -0.21241170810749188,-0.6537360171457058 l 18.05450841579806 -5.694937581629836" fill="red" stroke="none" /><path d="M 79.97269907076064 106.31721596034903 l -12.59727699889513 3.9735618691470114 a34.20910980024132,34.20910980024132 0 0,0 -0.17230514063160432,-0.5631031690928013 l 12.663808912032863 -3.7561317275021624" fill="red" stroke="none" /><path d="M 79.76711848015287 105.62410040840567 l -32.306424306392174 8.980163006316069 a54.531304464405416,54.531304464405416 0 0,0 -0.2436041224475348,-0.9065415625851972 l 32.45621650518148 -8.422730510555333" fill="red" stroke="none" /><path d="M 79.67330655649465 105.27499134158121 l -46.789342259678975 12.142327820511637 a69.33920431693257,69.33920431693257 0 0,0 -0.28986655308618636,-1.1578727901087826 l 46.99142012706022 -11.335127191005462" fill="red" stroke="none" /><path d="M 79.58551787078972 104.9243191809786 l -38.740030958364294 9.344752235816713 a60.85115296956696,60.85115296956696 0 0,0 -0.23685422886693433,-1.0203618189076622 l 38.895145753161785 -8.676521759560478" fill="red" stroke="none" /><path d="M 79.50377843672027 104.57218783832718 l -17.881984696438973 3.989017814907348 a39.32150757474193,39.32150757474193 0 0,0 -0.14168093664033488,-0.6618861679711385 l 17.94799967180375 -3.680617827520045" fill="red" stroke="none" /><path d="M 79.4281124754447 104.21870165774334 l -7.409354583016191 1.5194452344184852 a28.56354739241185,28.56354739241185 0 0,0 -0.09462704316870572,-0.48250125446200076 l 7.434411559160563 -1.3916802528885295" fill="red" stroke="none" /><path d="M 79.35854240842038 103.8639653848113 l -14.747752764435678 2.7606968128442952 a36.00392143718997,36.00392143718997 0 0,0 -0.10878937642524064,-0.6101485971223999 l 14.793088583200108 -2.506429464988682" fill="red" stroke="none" /><path d="M 79.29508885075956 103.50808413554451 l -57.631769041497506 9.764692696363467 a79.45314385306341,79.45314385306341 0 0,0 -0.21686261029226617,-1.3504036813014904 l 57.79131340615106 -8.771209785368763" fill="red" stroke="none" /><path d="M 79.23777060512086 103.15116336523772 l -23.491116731386004 3.565337086137969 a44.760138758546724,44.760138758546724 0 0,0 -0.10905690362903576,-0.7627437299776912 l 23.549007686031636 -3.1604478841798773" fill="red" stroke="none" /><path d="M 79.18660465613746 102.79330883721812 l -9.808511369901439 1.316373471836219 a30.89645059659472,30.89645059659472 0 0,0 -0.06620445935600387,-0.5277146802159394 l 9.829717338504292 -1.147341037332871" fill="red" stroke="none" /><path d="M 79.10278846688536 102.07522291339032 l -25.503759336214763 2.532681724939051 a46.629206327926,46.629206327926 0 0,0 -0.07244269912991139,-0.7993991483458253 l 25.54357663162175 -2.0933011880446597" fill="red" stroke="none" /><path d="M 79.07016306316243 101.71520430193888 l -20.808828863650664 1.7052876662610261 a41.878586271618175,41.878586271618175 0 0,0 -0.05269411274136543,-0.7189693026883962 l 20.835099535056365 -1.3468452270758693" fill="red" stroke="none" /><path d="M 79.04373962182676 101.35467743843564 l -17.154970621950095 1.1089503202960216 a38.19077624346427,38.19077624346427 0 0,0 -0.036760711919913314,-0.6563872057795668 l 17.171517684757543 -0.8134913981810171" fill="red" stroke="none" /><path d="M 79.0235259727143 100.99374915477108 l -39.66624803534139 1.8791671282211717 a60.71073535326451,60.71073535326451 0 0,0 -0.040467657522899984,-1.0442904266719466 l 39.69271782571549 -1.1960994545352281" fill="red" stroke="none" /><path d="M 79.0095281055655 100.63252640178507 l -24.3371562623734 0.7333753122721249 a45.34820351253519,45.34820351253519 0 0,0 -0.01679597544133445,-0.7804429802405748 l 24.346174300499744 -0.31434251624142123" fill="red" stroke="none" /><line stroke="#006cb8" stroke-width="0.3" x1="15.007084014347285" x2="10.007500721073583" y1="101.09737516637583" y2="101.16192664675087" /><path d="M 14.007167355692545 101.11028546245083 a86.0,86.0 0 0,1 10.666146001902534,-42.60595125391555" fill="none" id="id10" stroke="none" /><text fill="#006cb8" style="font-size:6.75px; font-family:Arial;" text-anchor="middle"><textPath startOffset="22.20632615414155" xlink:href="#id10">十月</textPath></text><path d="M 79.00175016825051 100.2711162175752 l -34.88330382459659 0.45039131666828675 a55.88621128837646,55.88621128837646 0 0,0 -0.0041401109705111695,-0.962015984754993 l 34.8858882328566 0.15013414629038158" fill="red" stroke="none" /><path d="M 79.00019446554 99.90962569577889 l -17.968713480091047 -0.07732976268980728 a38.968879876659074,38.968879876659074 0 0,0 0.008660356429284075,-0.6707541494956744 l 17.964720116544047 0.38662017024595363" fill="red" stroke="none" /><path d="M 79.00486145842228 99.54816195383935 l -22.719518049425155 -0.48894855467776427 a43.724778790722624,43.724778790722624 0 0,0 0.022670892920605635,-0.7523365654441208 l 22.707735462048902 0.8799552675468795" fill="red" stroke="none" /><path d="M 79.01574976396665 99.18683210126434 l -47.94671896671356 -1.857999798652869 a68.98270545649551,68.98270545649551 0 0,0 0.05619262784057009,-1.1861375607350892 l 47.90763273063949 2.683048466010967" fill="red" stroke="none" /><path d="M 79.03285615573316 98.82574320788736 l -62.90143153280056 -3.522770376337934 a84.0,84.0 0 0,0 0.09327763598234728,-1.442963742987953 l 62.831473305813795 4.604993183578899" fill="red" stroke="none" /><path d="M 79.05617556472873 98.46500227214037 l -15.113304065269825 -1.1076719761636247 a36.15384099745275,36.15384099745275 0 0,0 0.05083146749322004,-0.6202726548030989 l 15.091998113957107 1.367658548174502" fill="red" stroke="none" /><path d="M 79.16333360222342 97.38593545837743 l -22.75335197656388 -2.8545223823010426 a43.93171001474729,43.93171001474729 0 0,0 0.10059106598762277,-0.7495202809532507 l 22.700844911518423 3.2457610053189527" fill="red" stroke="none" /><path d="M 79.21141760316559 97.0276538004421 l -20.747821836765542 -2.9665182650936943 a41.958824909505296,41.958824909505296 0 0,0 0.1083818556929936,-0.7141010126496186 l 20.693684087633248 3.3232183901354047" fill="red" stroke="none" /><line stroke="#006cb8" stroke-width="0.3" x1="26.266209847984243" x2="21.928928074336255" y1="57.711370442889674" y2="55.22380399835377" /><path d="M 25.398753493254645 57.213857153982495 a86.0,86.0 0 0,1 29.58750427330803,-30.492523968695096" fill="none" id="id11" stroke="none" /><text fill="#006cb8" style="font-size:6.75px; font-family:Arial;" text-anchor="middle"><textPath startOffset="21.46611528233685" xlink:href="#id11">十一月</textPath></text><line stroke="#006cb8" stroke-width="0.3" x1="56.762969772571076" x2="54.21961505331055" y1="26.818313649435495" y2="22.513508569990535" /><path d="M 56.25429882871897 25.957352633546506 a86.0,86.0 0 0,1 42.265352541879196,-11.944610805530505" fill="none" id="id12" stroke="none" /><text fill="#006cb8" style="font-size:6.75px; font-family:Arial;" text-anchor="middle"><textPath startOffset="22.20632615414155" xlink:href="#id12">十二月</textPath></text></svg>