<?xml version="1.0" encoding="utf-8" ?>
<svg baseProfile="full" height="200mm" version="1.1" viewBox="0,0,200,200" width="200mm" xmlns="http://www.w3.org/2000/svg" xmlns:ev="http://www.w3.org/2001/xml-events" xmlns:xlink="http://www.w3.org/1999/xlink"><defs /><rect fill="#f5f5f5" height="200" rx="1" ry="1" width="200" x="0" y="0" /><rect fill="#f5f5f5" height="200" width="180" x="10" y="0" /><text alignment-baseline="middle" fill="#006cb8" style="dominant-baseline: central; font-size:9.0px; font-family:Arial;" text-anchor="middle" x="100.0" y="100.0">2025</text><line stroke="#006cb8" stroke-width="0.3" x1="100.0" x2="100.0" y1="15.0" y2="10.0" /><path d="M 100.0 14.0 a86.0,86.0 0 0,1 42.46469731375804,11.215312516191453" fill="none" id="id1" stroke="none" /><text fill="#006cb8" style="font-size:6.75px; font-family:Arial;" text-anchor="middle"><textPath startOffset="22.20632615414155" xlink:href="#id1">一月</textPath></text><line stroke="#006cb8" stroke-width="0.3" x1="143.23703022742887" x2="145.7803849466894" y1="26.81831364943548" y2="22.513508569990506" /><path d="M 143.74570117128098 25.957352633546492 a86.0,86.0 0 0,1 28.547481713284135,27.462654790039103" fill="none" id="id2" stroke="none" /><text fill="#006cb8" style="font-size:6.75px; font-family:Arial;" text-anchor="middle"><textPath startOffset="19.985693538727396" xlink:href="#id2">二月</textPath></text><line stroke="#006cb8" stroke-width="0.3" x1="172.23445277983987" x2="176.4835382374775" y1="55.19839476539836" y2="52.563006222186495" /><path d="M 173.08426987136738 54.67131705675599 a86.0,86.0 0 0,1 12.851231095245387,41.99856678651699" fill="none" id="id3" stroke="none" /><text fill="#006cb8" style="font-size:6.75px; font-family:Arial;" text-anchor="middle"><textPath startOffset="22.20632615414155" xlink:href="#id3">三月</textPath></text><line stroke="#006cb8" stroke-width="0.3" x1="184.98032266829074" x2="189.97916517819016" y1="98.17113171792111" y2="98.06355123074" /><path d="M 185.9800911702706 98.14961562048488 a86.0,86.0 0 0,1 -9.607161424134198,41.387399972396054" fill="none" id="id4" stroke="none" /><text fill="#006cb8" style="font-size:6.75px; font-family:Arial;" text-anchor="middle"><textPath startOffset="21.466115282336823" xlink:href="#id4">四月</textPath></text><line stroke="#006cb8" stroke-width="0.3" x1="174.80103733775053" x2="179.2010983576182" y1="140.37084112569926" y2="142.7455964860345" /><path d="M 175.68104954172406 140.8457921977663 a86.0,86.0 0 0,1 -30.038265399797805,32.042727171017184" fill="none" id="id5" stroke="none" /><text fill="#006cb8" style="font-size:6.75px; font-family:Arial;" text-anchor="middle"><textPath startOffset="22.206326154141568" xlink:href="#id5">五月</textPath></text><line stroke="#006cb8" stroke-width="0.3" x1="143.8653032363475" x2="146.44561519142675" y1="172.8068346515853" y2="177.08958963109032" /><path d="M 144.38136562736335 173.6633856474863 a86.0,86.0 0 0,1 -40.68145358897372,12.25698825130547" fill="none" id="id6" stroke="none" /><text fill="#006cb8" style="font-size:6.75px; font-family:Arial;" text-anchor="middle"><textPath startOffset="21.466115282336833" xlink:href="#id6">六月</textPath></text><line stroke="#006cb8" stroke-width="0.3" x1="102.19456741930631" x2="102.32365962044197" y1="184.97166512339345" y2="189.96999836594603" /><path d="M 102.22038585953345 185.97133177190398 a86.0,86.0 0 0,1 -42.740103519485714,-10.115201625700543" fill="none" id="id7" stroke="none" /><text fill="#006cb8" style="font-size:6.75px; font-family:Arial;" text-anchor="middle"><textPath startOffset="22.20632615414155" xlink:href="#id7">七月</textPath></text><line stroke="#006cb8" stroke-width="0.3" x1="58.666819895761336" x2="56.23545636021788" y1="174.27360380694188" y2="178.64263932499728" /><path d="M 58.180547188652646 175.14741091055294 a86.0,86.0 0 0,1 -31.652253787137756,-30.449443065178592" fill="none" id="id8" stroke="none" /><text fill="#006cb8" style="font-size:6.75px; font-family:Arial;" text-anchor="middle"><textPath startOffset="22.20632615414155" xlink:href="#id8">八月</textPath></text><line stroke="#006cb8" stroke-width="0.3" x1="26.63291911575756" x2="22.317208475507996" y1="142.92168965132927" y2="145.44649492493687" /><path d="M 25.769776987707644 143.4266507060508 a86.0,86.0 0 0,1 -11.730757126820373,-40.83630448921669" fill="none" id="id9" stroke="none" /><text fill="#006cb8" style="font-size:6.75px; font-family:Arial;" text-anchor="middle"><textPath startOffset="21.46611528233685" xlink:href="#id9">九月</textPath></text><path d="M 80.20201598880116 107.00284435728193 l -41.03394894373896 14.514324168314998 a64.52528658125422,64.52528658125422 0 0,0 -0.3613697779986362,-1.0503097283075522 l 41.277709552680825 -13.805841736918149" fill="red" stroke="none" /><path d="M 80.0844068197444 106.66101706037122 l -19.35036520214821 6.471969555177902 a41.40399527983816,41.40399527983816 0 0,0 -0.22024510055450286,-0.6778447201201045 l 19.458902553718964 -6.137925935079995" fill="red" stroke="none" /><path d="M 79.97269907076064 106.31721596034903 l -13.577173076017543 4.282650705418681 a35.236598111935265,35.236598111935265 0 0,0 -0.17748041467637077,-0.5800162641104505 l 13.648880263200043 -4.048307468756183" fill="red" stroke="none" /><path d="M 79.76711848015287 105.62410040840567 l -34.8194228255533 9.678697023038948 a57.13958192852326,57.13958192852326 0 0,0 -0.255255909416263,-0.9499021964669808 l 34.98086681131134 -9.07790389339643" fill="red" stroke="none" /><path d="M 79.67330655649465 105.27499134158121 l -50.428913965168896 13.086835065966138 a73.09933412002698,73.09933412002698 0 0,0 -0.3055854508715978,-1.2206619730705626 l 50.64671073033555 -12.216845253498184" fill="red" stroke="none" /><path d="M 79.58551787078972 104.9243191809786 l -41.75347619474607 10.07164631446251 a63.951028320971005,63.951028320971005 0 0,0 -0.24892004110072424,-1.0723410222191845 l 41.920656801777355 -9.351436634894752" fill="red" stroke="none" /><path d="M 79.50377843672027 104.57218783832718 l -19.272958845593624 4.299308912637592 a40.74667060013486,40.74667060013486 0 0,0 -0.146815999987513,-0.685875474378541 l 19.344108884305577 -3.9669196188428875" fill="red" stroke="none" /><path d="M 79.4281124754447 104.21870165774334 l -7.985701160974538 1.6376373186871425 a29.151888064733647,29.151888064733647 0 0,0 -0.096576133645209,-0.4924396248102755 l 8.012707227595413 -1.4999339668089122" fill="red" stroke="none" /><path d="M 79.35854240842038 103.8639653848113 l -15.894926481542102 2.975441314951199 a37.17102157788267,37.17102157788267 0 0,0 -0.11231588385730659,-0.629927123602836 l 15.943788807738597 -2.701395440615149" fill="red" stroke="none" /><path d="M 79.29508885075956 103.50808413554451 l -62.11473344772131 10.524252406633527 a84.0,84.0 0 0,0 -0.22927298255483697,-1.4276830812271453 l 62.286688184637434 -9.45349009571317" fill="red" stroke="none" /><path d="M 79.23777060512086 103.15116336523772 l -25.3184047345258 3.8426716104666863 a46.60835300067431,46.60835300067431 0 0,0 -0.11356002913489745,-0.7942385792774851 l 25.380798814677295 -3.4062875592088004" fill="red" stroke="none" /><path d="M 79.18660465613746 102.79330883721812 l -10.571479574428501 1.4187693468490066 a31.666259271746462,31.666259271746462 0 0,0 -0.06785399404888538,-0.5408630947098662 l 10.594335077724235 -1.2365884978517319" fill="red" stroke="none" /><path d="M 79.10278846688536 102.07522291339032 l -27.487603442176948 2.7296897677950653 a48.622808496291306,48.622808496291306 0 0,0 -0.07553994082542644,-0.8335769523668465 l 27.530517979279452 -2.256131426879653" fill="red" stroke="none" /><path d="M 79.07016306316243 101.71520430193888 l -22.427471509580528 1.8379357531992575 a43.50265509103169,43.50265509103169 0 0,0 -0.05473761213064425,-0.7468512282872801 l 22.45578568037551 -1.4516113884152166" fill="red" stroke="none" /><path d="M 79.04373962182676 101.35467743843564 l -18.489393006809436 1.1952115074301168 a39.527983816588005,39.527983816588005 0 0,0 -0.03804784738056372,-0.6793698740781765 l 18.50722720507753 -0.8767699170165026" fill="red" stroke="none" /><path d="M 79.0235259727143 100.99374915477108 l -42.751740308584644 2.025340662181156 a63.79968813216453,63.79968813216453 0 0,0 -0.04252664564804077,-1.0974237612737576 l 42.78026908708389 -1.2891396538934017" fill="red" stroke="none" /><path d="M 79.0095281055655 100.63252640178507 l -26.230254584487515 0.7904218939752117 a47.242161159811204,47.242161159811204 0 0,0 -0.01749745562503748,-0.8130380079637994 l 26.23997410279756 -0.3387940702212834" fill="red" stroke="none" /><line stroke="#006cb8" stroke-width="0.3" x1="15.007084014347285" x2="10.007500721073583" y1="101.09737516637583" y2="101.16192664675087" /><path d="M 14.007167355692545 101.11028546245083 a86.0,86.0 0 0,1 10.666146001902534,-42.60595125391555" fill="none" id="id10" stroke="none" /><text fill="#006cb8" style="font-size:6.75px; font-family:Arial;" text-anchor="middle"><textPath startOffset="22.20632615414155" xlink:href="#id10">十月</textPath></text><path d="M 79.00175016825051 100.2711162175752 l -37.59674837120691 0.4854256089531959 a58.59988199595415,58.59988199595415 0 0,0 -0.004341142631233783,-1.0087286628533578 l 37.59953381112765 0.16181253210383725" fill="red" stroke="none" /><path d="M 79.00019446554 99.90962569577889 l -19.36643394393591 -0.08334496193573919 a40.36661328388402,40.36661328388402 0 0,0 0.008970985565610266,-0.6948127184294561 l 19.362129951252584 0.4166939384256672" fill="red" stroke="none" /><line stroke="#006cb8" stroke-width="0.3" x1="26.266209847984243" x2="21.928928074336255" y1="57.711370442889674" y2="55.22380399835377" /><path d="M 25.398753493254645 57.213857153982495 a86.0,86.0 0 0,1 29.58750427330803,-30.492523968695096" fill="none" id="id11" stroke="none" /><text fill="#006cb8" style="font-size:6.75px; font-family:Arial;" text-anchor="middle"><textPath startOffset="21.46611528233685" xlink:href="#id11">十一月</textPath></text><line stroke="#006cb8" stroke-width="0.3" x1="56.762969772571076" x2="54.21961505331055" y1="26.818313649435495" y2="22.513508569990535" /><path d="M 56.25429882871897 25.957352633546506 a86.0,86.0 0 0,1 42.265352541879196,-11.944610805530505" fill="none" id="id12" stroke="none" /><text fill="#006cb8" style="font-size:6.75px; font-family:Arial;" text-anchor="middle"><textPath startOffset="22.20632615414155" xlink:href="#id12">十二月</textPath></text></svg>