<?xml version="1.0" encoding="utf-8" ?>
<svg baseProfile="full" height="200mm" version="1.1" viewBox="0,0,200,200" width="200mm" xmlns="http://www.w3.org/2000/svg" xmlns:ev="http://www.w3.org/2001/xml-events" xmlns:xlink="http://www.w3.org/1999/xlink"><defs /><rect fill="#f5f5f5" height="200" width="200" x="0" y="0" /><text alignment-baseline="middle" fill="#006cb8" style="dominant-baseline: central; font-size:9.0px; font-family:Arial;" text-anchor="middle" x="100.0" y="100.0">2020</text><line stroke="#006cb8" stroke-width="0.3" x1="100.0" x2="100.0" y1="15.0" y2="10.0" /><path d="M 100.0 14.0 a86.0,86.0 0 0,1 42.35913384403234,11.155469271406648" fill="none" id="id73" stroke="none" /><text fill="#006cb8" style="font-size:6.75px; font-family:Arial;" text-anchor="middle"><textPath startOffset="22.145653131862478" xlink:href="#id73">January</textPath></text><path d="M 100.0 79.0 l 0.0 -13.416776411278825 a34.416776411278825,34.416776411278825 0 0,0 0.5908097329700465,0.005071390989777678 l -0.23031680812119165 13.414799418483483" fill="#f17f00" stroke="none" /><path d="M 101.08105385017728 79.02784411241856 l 1.8635733696510557 -36.152825513602586 a57.20082455305496,57.20082455305496 0 0,0 0.9801923703855688,0.05896593897002146 l -2.483910092169087 36.11550759680787" fill="#4ad300" stroke="none" /><path d="M 101.44090949804482 79.04949213459386 l 0.5767271247336301 -8.3854858194218 a29.405295152707467,29.405295152707467 0 0,0 0.5032940378889809,0.038958141586564125 l -0.7205901573978444 8.374349910840184" fill="#f74500" stroke="none" /><path d="M 102.15924093988457 79.11130261209362 l 3.0732618934106104 -29.731020980303523 a50.88943872334738,50.88943872334738 0 0,0 0.8681837562981694,0.09728180075123279 l -3.5831815513095764 29.673883419045318" fill="#91db00" stroke="none" /><path d="M 102.51750503828377 79.15144685158666 l 4.821997788483742 -39.93305897940492 a61.22313839228329,61.22313839228329 0 0,0 1.0423157042233626,0.1349486357990945 l -5.506791314597897 39.84439874740543" fill="#1fcd00" stroke="none" /><path d="M 103.58742460773223 79.30868818359171 l 4.580872268847491 -26.421253927278638 a47.815425594855526,47.815425594855526 0 0,0 0.8075462218556764,0.147161822402115 l -5.033753224254221 26.338723930945157" fill="#b5df00" stroke="none" /><path d="M 104.29559338865022 79.4440306129975 l 6.624888234801347 -31.70248844006185 a53.38729561750818,53.38729561750818 0 0,0 0.8954767615024273,0.19516499232096235 l -7.1681274129229084 31.584091989607167" fill="#74d800" stroke="none" /><path d="M 104.9986988182912 79.60360301121754 l 6.564712926269661 -26.78626895295929 a48.57897134094386,48.57897134094386 0 0,0 0.8082493070038594,0.2054538132060526 l -7.023567526498915 26.66962990791797" fill="#acde00" stroke="none" /><path d="M 105.69591212413111 79.78721728523813 l 3.590693728260111 -12.74210531042055 a34.23836580518963,34.23836580518963 0 0,0 0.5643460721848779,0.16427291674523672 l -3.8088998128265934 12.678588699372797" fill="#f17d00" stroke="none" /><path d="M 106.72888874123014 80.10723608172694 l 20.186666223690402 -59.67829175481916 a84.0,84.0 0 0,0 1.3619769118199267,0.4737662697256382 l -21.208148907555344 59.32296705252493" fill="#00afaa" stroke="none" /><path d="M 107.74402155503746 80.48000691201159 l 12.960141333290032 -32.668022350817225 a56.14491353940633,56.14491353940633 0 0,0 0.8928258763492012,0.3631045112811969 l -13.519021670829673 32.44073058295673" fill="#55d400" stroke="none" /><path d="M 108.4095320186766 80.7573450057729 l 10.977233893530325 -25.11805938012014 a48.41197860382414,48.41197860382414 0 0,0 0.7586539666551646,0.3393362695959707 l -11.406801263041121 24.92591935961432" fill="#aede00" stroke="none" /><path d="M 109.3889696526874 81.21577127319529 l 10.455292340015191 -20.917588402710493 a44.385008926669,44.385008926669 0 0,0 0.6786103871596771,0.34650329897417464 l -10.812829948888446 20.735027152063484" fill="#dfe400" stroke="none" /><path d="M 109.71004243097381 81.37971332152246 l 12.611626878063863 -24.184457444022797 a48.2752839467026,48.2752839467026 0 0,0 0.7315112034723965,0.3894885133166569 l -13.02492689732282 23.964398462983567" fill="#b0de00" stroke="none" /><path d="M 110.34350942703115 81.72400993836675 l 14.166300671458293 -25.030495897753735 a49.761255181261234,49.761255181261234 0 0,0 0.7398018417290754,0.42712479246926266 l -14.593894981047766 24.783624208008302" fill="#9edc00" stroke="none" /><line stroke="#006cb8" stroke-width="0.3" x1="143.13028292997686" x2="145.6673583964461" y1="26.7553504044142" y2="22.446841604673864" /><path d="M 143.63769802327073 25.89364864446614 a86.0,86.0 0 0,1 29.32050498858742,28.57503671076993" fill="none" id="id74" stroke="none" /><text fill="#006cb8" style="font-size:6.75px; font-family:Arial;" text-anchor="middle"><textPath startOffset="20.669276256404974" xlink:href="#id74">February</textPath></text><path d="M 110.96478420261332 82.08984904055464 l 19.662973614617417 -32.11798966964203 a58.65896695062642,58.65896695062642 0 0,0 0.8542864886495376,0.5331379516728304 l -20.211424232056665 31.775715921127656" fill="#3ad100" stroke="none" /><path d="M 111.5731344415666 82.4767994020092 l 14.778025024623288 -22.375813419959524 a47.815425594855526,47.815425594855526 0 0,0 0.6810367276972834,0.45823190409820275 l -15.159958040417573 22.1188318418042" fill="#b5df00" stroke="none" /><path d="M 112.16784306229584 82.88440491214696 l 18.32813102919424 -25.780811587293368 a52.63179781679872,52.63179781679872 0 0,0 0.7318802105077699,0.5298248314152162 l -18.767992250075977 25.462385984505076" fill="#7cd900" stroke="none" /><path d="M 112.7482090630111 83.31218511350987 l 18.720283301731563 -24.50545177113373 a51.83773943408386,51.83773943408386 0 0,0 0.7025002445490788,0.5462684391961057 l -19.138193490915867 24.18048228031683" fill="#86da00" stroke="none" /><path d="M 113.31354834802062 83.75963576809568 l 27.18364455917352 -33.15962636341332 a63.877865526173984,63.877865526173984 0 0,0 0.8420491741238187,0.702467369570755 l -27.74886806745923 32.68809680993069" fill="#04ca00" stroke="none" /><path d="M 113.86319453409587 84.22622945171908 l 17.702260073145503 -20.14192240417859 a47.815425594855526,47.815425594855526 0 0,0 0.6118893864124944,0.5471552624272426 l -18.04541448638137 19.83507161186796" fill="#b5df00" stroke="none" /><path d="M 114.39649973595853 84.71141617570332 l 22.05990099976875 -23.426850399493677 a53.17851071382663,53.17851071382663 0 0,0 0.6592299761673979,0.6315274047830051 l -22.45880346180146 23.044710864405094" fill="#76d800" stroke="none" /><path d="M 114.91283532996326 85.21462403516908 l 22.851087211369276 -22.655779947250785 a53.17851071382663,53.17851071382663 0 0,0 0.6371626281305593,0.6537849874258334 l -23.236636640650648 22.260172267757213" fill="#76d800" stroke="none" /><path d="M 115.6541949942343 86.00192230759917 l 9.994616693220232 -8.937247876942413 a34.40771279742776,34.40771279742776 0 0,0 0.3899359504894397,0.44367553210183436 l -10.146563707668262 8.76436006702928" fill="#f17f00" stroke="none" /><path d="M 116.35404254752997 86.82634096563983 l 44.89820542300199 -36.16681611156882 a78.65316502893938,78.65316502893938 0 0,0 0.8379692072982424,1.0587467191270787 l -45.51244106094179 35.39074944852707" fill="#00b681" stroke="none" /><path d="M 116.7966241395341 87.39550010848427 l 21.448029755163383 -16.09500138101451 a47.815425594855526,47.815425594855526 0 0,0 0.4870296651180688,0.660749277488125 l -21.721161439865277 15.724445794257509" fill="#b5df00" stroke="none" /><path d="M 117.62189284568427 88.57770195909679 l 27.02470506139048 -17.51708731756968 a53.20532613942149,53.20532613942149 0 0,0 0.4902042532977451,0.7706825069463535 l -27.321427006314117 17.050591135944654" fill="#76d800" stroke="none" /><line stroke="#006cb8" stroke-width="0.3" x1="172.87174338648825" x2="177.1583165268699" y1="56.24261187166439" y2="53.66864786411523" /><path d="M 173.72905801456457 55.72781907015455 a86.0,86.0 0 0,1 12.242430191666344,42.057860355516425" fill="none" id="id75" stroke="none" /><text fill="#006cb8" style="font-size:6.75px; font-family:Arial;" text-anchor="middle"><textPath startOffset="22.145653131862474" xlink:href="#id75">March</textPath></text><path d="M 118.00360718960297 89.18935116829356 l 34.48388493084319 -20.706582098481142 a61.22313839228329,61.22313839228329 0 0,0 0.5333010266815315,0.9056617340459387 l -34.83425966765449 20.111569196141648" fill="#1fcd00" stroke="none" /><path d="M 118.36410011445183 89.81374322990088 l 35.17436858825436 -19.510629322049024 a61.22313839228329,61.22313839228329 0 0,0 0.5018975231131003,0.9234349126319609 l -35.5041114609828 18.90393957594246" fill="#1fcd00" stroke="none" /><path d="M 118.8641267826498 90.77261029715802 l 28.905690751546707 -14.139221829216854 a53.17851071382663,53.17851071382663 0 0,0 0.39407996656535577,0.8234755639492081 l -29.144149976071976 13.640933763202543" fill="#76d800" stroke="none" /><path d="M 119.4528033332814 92.08871423366111 l 28.093781506985962 -11.425496364248758 a51.3282463477816,51.3282463477816 0 0,0 0.324935480054251,0.8190496733025308 l -28.285775662006337 10.941545673732662" fill="#8cda00" stroke="none" /><path d="M 120.05942366710727 93.78553927170692 l 38.42157020149992 -11.903100662263904 a61.22313839228329,61.22313839228329 0 0,0 0.3023947245226109,1.0065736893817385 l -38.620241246026154 11.241789369291443" fill="#1fcd00" stroke="none" /><path d="M 120.86939407059847 97.66154086499901 l 19.993523955092453 -2.2403160616683007 a41.11864846849869,41.11864846849869 0 0,0 0.07257952014831677,0.7021410186019762 l -20.029035867722435 1.8967705207833931" fill="#e8c700" stroke="none" /><line stroke="#006cb8" stroke-width="0.3" x1="184.99686870605535" x2="189.99668451229388" y1="99.2704041080226" y2="99.22748670261217" /><path d="M 185.99683186730306 99.26182062694052 a86.0,86.0 0 0,1 -10.086455211305974,41.156179273409016" fill="none" id="id76" stroke="none" /><text fill="#006cb8" style="font-size:6.75px; font-family:Arial;" text-anchor="middle"><textPath startOffset="21.40746469413373" xlink:href="#id76">April</textPath></text><path d="M 119.83427380445688 106.89939002012753 l 12.670582500135735 4.407486319514019 a34.41527474744551,34.41527474744551 0 0,0 -0.19888723291623625,0.5563229877763887 l -12.593055097175554 -4.624344263671329" fill="#f17f00" stroke="none" /><path d="M 119.71291397450082 107.23885506374661 l 12.607025509021142 4.629474392411396 a34.43015730865066,34.43015730865066 0 0,0 -0.20849807433820683,0.5530659132434654 l -12.525696750868494 -4.84520858584902" fill="#f17f00" stroke="none" /><path d="M 119.16976305983485 108.57439118712176 l 17.420997081018157 7.79219040820231 a40.084270241602724,40.084270241602724 0 0,0 -0.2863458691042183,0.6257174011943452 l -17.284666747058886 -8.090096791611344" fill="#e9bc00" stroke="none" /><path d="M 118.8641267826498 109.22738970284198 l 18.066056719716695 8.837013643260532 a41.111569196141645,41.111569196141645 0 0,0 -0.3155412519540944,0.6312938766131201 l -17.911695554550867 -9.145839376037397" fill="#e8c700" stroke="none" /><line stroke="#006cb8" stroke-width="0.3" x1="174.33088141563837" x2="178.70328620479359" y1="141.23008692659167" y2="143.65538615756765" /><path d="M 175.20536237346943 141.71514677278685 a86.0,86.0 0 0,1 -30.301960400862466,31.631185727798858" fill="none" id="id77" stroke="none" /><text fill="#006cb8" style="font-size:6.75px; font-family:Arial;" text-anchor="middle"><textPath startOffset="22.145653131862474" xlink:href="#id77">May</textPath></text><path d="M 118.36410011445183 110.18625677009912 l 18.75966324706899 10.405668971759477 a42.45234047588442,42.45234047588442 0 0,0 -0.3589580592985493,0.6342444960836059 l -18.578271822749063 -10.726170237942204" fill="#e6d500" stroke="none" /><path d="M 117.21940702142032 112.02048342749411 l 10.993945899295937 7.6746280705752925 a34.40771279742776,34.40771279742776 0 0,0 -0.3422500808333386,0.4814175998439579 l -10.860580719932639 -7.862222897128754" fill="#f17f00" stroke="none" /><path d="M 114.39649973595853 115.28858382429668 l 18.38325083314062 19.5223753329114 a47.815425594855526,47.815425594855526 0 0,0 -0.6024065754452814,0.5575785328241775 l -18.045414486381375 -19.835071611867956" fill="#b5df00" stroke="none" /><path d="M 113.59037401385872 116.0094264158162 l 1.8618466593830514 2.1932506832064003 a23.876946565795265,23.876946565795265 0 0,0 -0.3147500776789109,0.26257570927417756 l -1.8239222475422454 -2.224888576392448" fill="#ff0200" stroke="none" /><path d="M 113.03279911837588 116.46651593811092 l 16.641907383405094 21.026506330710287 a47.815425594855526,47.815425594855526 0 0,0 -0.6479902198728544,0.5038811143069399 l -16.27850721889701 -21.309088496638022" fill="#b5df00" stroke="none" /><path d="M 112.7482090630111 116.68781488649013 l 13.26493229149148 17.36422217960941 a42.8511931161823,42.8511931161823 0 0,0 -0.5883815931742243,0.4415325166370036 l -12.96489770940649 -17.58937372351043" fill="#e6d900" stroke="none" /><path d="M 112.45986205192187 116.90419585922612 l 1.6475125698071635 2.235167214893966 a23.77673732034729,23.77673732034729 0 0,0 -0.3306313718519708,0.23935161565649468 l -1.6089001875812248 -2.263119601923538" fill="#ff0100" stroke="none" /><path d="M 112.16784306229584 117.11559508785304 l 19.139339902140794 26.921878457563064 a54.03183118710613,54.03183118710613 0 0,0 -0.7605749777037801,0.5309404036667541 l -18.674369833263253 -27.246463677034942" fill="#6dd700" stroke="none" /><path d="M 111.8722381534696 117.32195027204791 l 3.1354886416254457 4.57477163334484 a26.546154029507186,26.546154029507186 0 0,0 -0.37809777176068055,0.25440105480800895 l -3.056494581767762 -4.627922362209969" fill="#fb2300" stroke="none" /><path d="M 111.5731344415666 117.5232005979908 l 3.0558147926166286 4.62689307479265 a26.54492051992982,26.54492051992982 0 0,0 -0.38239142132735715,0.2478614993823092 l -2.9759377390322617 -4.678668415878855" fill="#fb2300" stroke="none" /><path d="M 111.27062007382361 117.71928675628689 l 14.391736857023911 22.626200743196204 a47.815425594855526,47.815425594855526 0 0,0 -0.696365349718724,0.43458348118306506 l -14.001207378515472 -22.869920021220814" fill="#b5df00" stroke="none" /><line stroke="#006cb8" stroke-width="0.3" x1="143.1302829299769" x2="145.66735839644613" y1="173.24464959558577" y2="177.55315839532614" /><path d="M 143.63769802327073 174.10635135553383 a86.0,86.0 0 0,1 -40.68552437913181,11.842963189579606" fill="none" id="id78" stroke="none" /><text fill="#006cb8" style="font-size:6.75px; font-family:Arial;" text-anchor="middle"><textPath startOffset="21.407464694133747" xlink:href="#id78">June</textPath></text><path d="M 110.65571695917076 118.09573695890943 l 8.745134862964795 14.851150866409135 a38.23467626119757,38.23467626119757 0 0,0 -0.5684359008411951,0.3281866203677127 l -8.488906494263201 -14.999084384053019" fill="#eca900" stroke="none" /><path d="M 110.34350942703117 118.27599006163325 l 3.9132721079168586 6.91437685219791 a28.94495474152058,28.94495474152058 0 0,0 -0.4345269145630083,0.24102475469377652 l -3.7940010051977557 -6.980534522324831" fill="#f84000" stroke="none" /><path d="M 110.02825361518725 118.45085714620011 l 1.3932837164823564 2.5634851095120323 a23.917652381848256,23.917652381848256 0 0,0 -0.36242211847778516,0.19296936458241648 l -1.3490727822180175 -2.5870249418170173" fill="#ff0300" stroke="none" /><path d="M 109.71004243097381 118.62028667847754 l 1.2708227171605486 2.436970124411501 a23.748420230919123,23.748420230919123 0 0,0 -0.3630938696883129,0.18539831700910173 l -1.2288016257586534 -2.4584263930934394" fill="#ff0000" stroke="none" /><path d="M 109.3889696526874 118.78422872680471 l 1.2542662837202052 2.509372767114653 a23.805376194882594,23.805376194882594 0 0,0 -0.3671012901511165,0.1795676366931514 l -1.2110047443070193 -2.5305341539050277" fill="#ff0100" stroke="none" /><path d="M 108.4095320186766 119.2426549942271 l 2.407020816070522 5.507734678303418 a27.010731277938056,27.010731277938056 0 0,0 -0.4264671945600579,0.1820334860507562 l -2.312118546340033 -5.548242814013578" fill="#fb2900" stroke="none" /><path d="M 108.07796709384702 119.3841803445677 l 2.1542790535133114 5.169485490679251 a26.600401635485575,26.600401635485575 0 0,0 -0.42300406936728135,0.17203207248609537 l -2.065220522955589 -5.205704819744637" fill="#fb2400" stroke="none" /><path d="M 107.74402155503746 119.51999308798841 l 2.1023717487384195 5.299350177694269 a26.701147189445447,26.701147189445447 0 0,0 -0.42750791944449995,0.1653692471572342 l -2.01109156680039 -5.334659312989543" fill="#fb2500" stroke="none" /><path d="M 107.407793817531 119.65005319985036 l 2.009965922318087 5.331673407265625 a26.697956153799662,26.697956153799662 0 0,0 -0.4302322852908697,0.1579872544969073 l -1.9181444853730902 -5.365391510771254" fill="#fb2500" stroke="none" /><path d="M 107.06938296918513 119.77432235084164 l 1.1581101542768055 3.239440218230566 a24.4402313958408,24.4402313958408 0 0,0 -0.39627417715084917,0.13784472928141575 l -1.1023302050809347 -3.2588433800805725" fill="#fe0900" stroke="none" /><path d="M 106.0420521117495 120.11202640906438 l 0.8671243889594143 2.8863750739226646 a24.013812498031406,24.013812498031406 0 0,0 -0.39581622670185745,0.11521633490541237 l -0.81744814987595 -2.900835103130595" fill="#ff0400" stroke="none" /><path d="M 105.69591212413111 120.21278271476187 l 11.412940925414363 40.50050106715863 a63.077854118977065,63.077854118977065 0 0,0 -1.044745278652775,0.2847499714727105 l -10.716014245826893 -40.69045153277548" fill="#0ccb00" stroke="none" /><path d="M 104.9986988182912 120.39639698878246 l 0.6456495371161134 2.6344704398785246 a23.712433929770825,23.712433929770825 0 0,0 -0.39618717250114777,0.09349909394852954 l -0.6003302108750865 -2.6451656774732792" fill="#ff0000" stroke="none" /><path d="M 104.64783097203109 120.47920084513623 l 0.6545458119145515 2.8840496191028926 a23.957392842579832,23.957392842579832 0 0,0 -0.40184257899887293,0.08757971978297792 l -0.6049408162965428 -2.8948607970195894" fill="#ff0300" stroke="none" /><path d="M 103.58742460773223 120.69131181640829 l 1.44119280537438 8.312417119315059 a29.43642786182309,29.43642786182309 0 0,0 -0.49862855334313444,0.08204913870219209 l -1.2982867489781733 -8.335932256512923" fill="#f74600" stroke="none" /><path d="M 103.2317021107853 120.74984581791261 l 0.8392061565948052 5.388305531215492 a26.453265395246603,26.453265395246603 0 0,0 -0.4492959829134024,0.0660310371313639 l -0.7465850680737173 -5.401917641645738" fill="#fb2200" stroke="none" /><path d="M 102.51750503828377 120.84855314841334 l 0.8980006481493253 7.436733573734579 a28.490755062794918,28.490755062794918 0 0,0 -0.4860578416802231,0.05446379497990818 l -0.770206904868303 -7.451053129221458" fill="#f93b00" stroke="none" /><path d="M 101.44090949804482 120.95050786540614 l 1.8419849273495246 26.782056583539493 a47.84532479439379,47.84532479439379 0 0,0 -0.8198766833961527,0.04932174533970775 l -1.3819638918209067 -26.809730306703894" fill="#b5df00" stroke="none" /><path d="M 101.08105385017728 120.97215588758144 l 0.32975171542380527 6.39709518534285 a27.405588419822305,27.405588419822305 0 0,0 -0.4700374744950577,0.020185431601592474 l -0.219888480327918 -6.4018131853702736" fill="#fa2e00" stroke="none" /><line stroke="#006cb8" stroke-width="0.3" x1="101.45913802915013" x2="101.54496967792366" y1="184.9874750549273" y2="189.98673829345242" /><path d="M 101.47630435890484 185.9873277026323 a86.0,86.0 0 0,1 -42.54439059252881,-10.42667462771756" fill="none" id="id79" stroke="none" /><text fill="#006cb8" style="font-size:6.75px; font-family:Arial;" text-anchor="middle"><textPath startOffset="22.145653131862474" xlink:href="#id79">July</textPath></text><path d="M 100.36049292484886 120.99690560180557 l 0.04927153282554589 2.8698197725461903 a23.87024270939655,23.87024270939655 0 0,0 -0.4097644576743978,0.003517335044794275 l -3.515033546838511e-16 -2.8702427093965497" fill="#ff0200" stroke="none" /><path d="M 100.0 121.0 l 3.530993507448053e-16 2.8832750062356496 a23.88327500623565,23.88327500623565 0 0,0 -0.4099881743793989,-0.003519255383642287 l 0.049495249530546404 -2.882850149046442" fill="#ff0200" stroke="none" /><path d="M 99.63950707515114 120.99690560180557 l -0.04678302972423541 2.7248769425866017 a23.725278518630763,23.725278518630763 0 0,0 -0.4071559284799005,-0.010486892436132317 l 0.09355227227487985 -2.723672332800422" fill="#ff0000" stroke="none" /><path d="M 98.55909050195518 120.95050786540614 l -1.267451003230613 18.428459419714283 a39.47199362899539,39.47199362899539 0 0,0 -0.6755932546807281,-0.05229519066265084 l 1.5836132526865774 -18.40398646205658" fill="#eab600" stroke="none" /><path d="M 98.19965949673042 120.92268563240118 l -0.23746026201338555 2.7596481905899357 a23.769845755969413,23.769845755969413 0 0,0 -0.4062384771470602,-0.03847120615037905 l 0.284798302545461 -2.755165228934373" fill="#ff0100" stroke="none" /><path d="M 97.84075906011543 120.88869738790638 l -0.2808279506758718 2.716755676208964 a23.73123154311282,23.73123154311282 0 0,0 -0.40485944155695175,-0.04536534488244041 l 0.32742329383362284 -2.711534570819553" fill="#ff0000" stroke="none" /><path d="M 97.48249496171623 120.84855314841334 l -3.577761625795319 29.628998660752476 a50.84422791579446,50.84422791579446 0 0,0 -0.8656161480350347,-0.11207134060215905 l 4.0858555957211475 -29.56321572394992" fill="#91db00" stroke="none" /><path d="M 97.12497278360702 120.80226474461374 l -0.5775265747155585 4.178694600100393 a25.218415046603507,25.218415046603507 0 0,0 -0.4283226439756607,-0.0629486785641081 l 0.6491743242989041 -4.168164848237403" fill="#fd1300" stroke="none" /><path d="M 96.05791012581884 120.62667999033965 l -2.1674183620397076 11.340848734014571 a32.546105506356106,32.546105506356106 0 0,0 -0.5478648894655772,-0.10958832174421936 l 2.361779737036243 -11.30197101560749" fill="#f36a00" stroke="none" /><path d="M 95.70440661134978 120.55596938700252 l -1.1478555483702713 5.492904327337774 a26.611556852533035,26.611556852533035 0 0,0 -0.4463614512256522,-0.09728240077907646 l 1.24197941621506 -5.472390468424979" fill="#fb2400" stroke="none" /><path d="M 95.35216902796893 120.47920084513623 l -1.3219110762916348 5.824584111103427 a26.97270700444455,26.97270700444455 0 0,0 -0.4506597911645,-0.10635448363182955 l 1.4217030211960229 -5.801033483825369" fill="#fb2800" stroke="none" /><path d="M 95.00130118170881 120.39639698878247 l -0.6959472905216301 2.839702437923477 a23.923739483458288,23.923739483458288 0 0,0 -0.3980394257988257,-0.10118006551699583 l 0.7445920095458345 -2.827337140571218" fill="#ff0300" stroke="none" /><path d="M 94.6519064749342 120.30758222061772 l -4.939437038451244 18.755846978326517 a40.395355993928646,40.395355993928646 0 0,0 -0.6690598157405966,-0.18235522795694337 l 5.260678255126535 -18.668291256225427" fill="#e9bf00" stroke="none" /><path d="M 92.25597844496254 119.51999308798841 l -4.124873800737972 10.397376544859085 a32.18570618636125,32.18570618636125 0 0,0 -0.5118225235414556,-0.20815376457631415 l 4.302750785469868 -10.32503552370348" fill="#f46600" stroke="none" /><line stroke="#006cb8" stroke-width="0.3" x1="58.13341422392154" x2="55.67067388415222" y1="173.97424548756322" y2="178.32567169271397" /><path d="M 57.64086615596768 174.84453072859336 a86.0,86.0 0 0,1 -31.369924170532247,-30.572349798747897" fill="none" id="id80" stroke="none" /><text fill="#006cb8" style="font-size:6.75px; font-family:Arial;" text-anchor="middle"><textPath startOffset="22.145653131862474" xlink:href="#id80">August</textPath></text><path d="M 89.65649057296885 118.27599006163327 l -7.233166726337946 12.780312536789708 a35.68519967276668,35.68519967276668 0 0,0 -0.5305327677973027,-0.30630323630169226 l 7.451491961995648 -12.654262403211844" fill="#ef8d00" stroke="none" /><path d="M 88.4268655584334 117.5232005979908 l -1.6247551833071825 2.46008643064403 a23.948195151600796,23.948195151600796 0 0,0 -0.3410949553914805,-0.22950390857158717 l 1.6667464267956686 -2.431832848015322" fill="#ff0300" stroke="none" /><line stroke="#006cb8" stroke-width="0.3" x1="26.387840678322732" x2="22.057713659400548" y1="142.50000000000003" y2="145.00000000000006" /><path d="M 25.521815274538298 143.00000000000003 a86.0,86.0 0 0,1 -11.493303480769221,-40.785679425670985" fill="none" id="id81" stroke="none" /><text fill="#006cb8" style="font-size:6.75px; font-family:Arial;" text-anchor="middle"><textPath startOffset="21.40746469413373" xlink:href="#id81">September</textPath></text><path d="M 81.81346652052679 110.50000000000001 l -3.7124263898206085 2.143370375509601 a25.2867407510192,25.2867407510192 0 0,0 -0.2138134030826316,-0.37778779604242513 l 3.7486731579246184 -2.0793258093680547" fill="#fd1400" stroke="none" /><path d="M 81.4637452351635 109.86951160357371 l -3.061969250025721 1.630326159534813 a24.46895071665289,24.46895071665289 0 0,0 -0.19422745929122237,-0.3724567630413745 l 3.0895047782918925 -1.5775231533889358" fill="#fe0900" stroke="none" /><path d="M 80.9802524753101 108.90220220490708 l -2.6928708842057585 1.2603995448303107 a23.973240759106393,23.973240759106393 0 0,0 -0.17125516864932985,-0.37422345013595104 l 2.7141105177101443 -1.2139871124796706" fill="#ff0300" stroke="none" /><path d="M 79.83685265289637 105.86919833188381 l -14.571391275298168 4.241519634507419 a36.17616329998289,36.17616329998289 0 0,0 -0.16844570468708306,-0.5977543813659675 l 14.642055472059827 -3.9907573292384564" fill="#ee9200" stroke="none" /><path d="M 79.2786578344484 103.40968896794605 l -17.63344505610348 2.9015766736690174 a38.87057726375397,38.87057726375397 0 0,0 -0.10268960125320259,-0.6593409045950404 l 17.68065614949495 -2.598447587142527" fill="#ebaf00" stroke="none" /><path d="M 79.06263194458094 101.62068470465958 l -27.102527016098573 2.097906999406508 a48.18360138827289,48.18360138827289 0 0,0 -0.05675578262606162,-0.8252166232008694 l 27.1345467598897 -1.632346952051295" fill="#b1df00" stroke="none" /><path d="M 79.01933749520258 100.90099992219065 l -13.417308142001906 0.576196942741318 a34.42967463098995,34.42967463098995 0 0,0 -0.020289428578817995,-0.5907045753638727 l 13.425222257577571 -0.3457861028133255" fill="#f17f00" stroke="none" /><path d="M 79.00696218219943 100.54070618675478 l -13.622357518983836 0.350863607860237 a34.626875270814516,34.626875270814516 0 0,0 -0.010204323149423591,-0.5943506657961927 l 13.626373273731927 -0.11696602609499193" fill="#f18100" stroke="none" /><line stroke="#006cb8" stroke-width="0.3" x1="15.003131293944662" x2="10.003315487706104" y1="100.72959589197737" y2="100.7725132973878" /><path d="M 14.003168132696942 100.73817937305945 a86.0,86.0 0 0,1 10.791469493833604,-42.45332614584628" fill="none" id="id82" stroke="none" /><text fill="#006cb8" style="font-size:6.75px; font-family:Arial;" text-anchor="middle"><textPath startOffset="22.145653131862435" xlink:href="#id82">October</textPath></text><path d="M 79.17382384314186 97.30363454192245 l -18.091534633412603 -2.3423113634369055 a39.24253403218022,39.24253403218022 0 0,0 0.09223020184556963,-0.6673317961308726 l 18.04865991501183 2.652531467767845" fill="#eab300" stroke="none" /><path d="M 79.34024301695615 96.23510406497455 l -13.205834104564053 -2.406542883331073 a34.42331937512397,34.42331937512397 0 0,0 0.11093112638428686,-0.580438528274781 l 13.162576685897607 2.6328839766391687" fill="#f17f00" stroke="none" /><path d="M 79.56144815229197 95.17655741523228 l -13.060628143844264 -3.0822726797005733 a34.41940432298712,34.41940432298712 0 0,0 0.14064829622814967,-0.5738930449596246 l 13.005792321099817 3.3060215492683156" fill="#f17f00" stroke="none" /><path d="M 79.83685265289637 94.1308016681162 l -13.513711601707 -3.9336444963137525 a35.07458561654622,35.07458561654622 0 0,0 0.17324119497599685,-0.576663594430052 l 13.444194086727373 4.165045694334528" fill="#f08600" stroke="none" /><path d="M 79.94057633289273 93.78553927170692 l -17.560296902414063 -5.440224868282861 a39.383690432511536,39.383690432511536 0 0,0 0.20561152830042473,-0.6440751839065013 l 17.46432065833638 5.740869085880754" fill="#eab500" stroke="none" /><path d="M 80.05021161711548 93.44210830539832 l -12.96712383881058 -4.262551165623541 a34.64974882884693,34.64974882884693 0 0,0 0.19059767278989018,-0.5634681526162908 l 12.892040744448323 4.4845209927139935" fill="#f08200" stroke="none" /><path d="M 80.16572619554312 93.10060997987247 l -16.422557251845987 -5.712617901992387 a38.387765525918596,38.387765525918596 0 0,0 0.2218444141246885,-0.6205383094616627 l 16.322072667677357 5.993691167834972" fill="#ecaa00" stroke="none" /><path d="M 80.41425534168474 92.42381321644754 l -25.032761403710293 -9.683209875918271 a47.84033712523315,47.84033712523315 0 0,0 0.30285513369026046,-0.7633927765154713 l 24.8628475950539 10.111503669647325" fill="#b5df00" stroke="none" /><path d="M 80.5471966667186 92.08871423366112 l -12.43570865810162 -5.057494450316883 a34.424794223531684,34.424794223531684 0 0,0 0.22732520314065563,-0.5454977327031197 l 12.347057610424486 5.270224692461267" fill="#f17f00" stroke="none" /><path d="M 80.83023694016515 91.42560881287825 l -12.385971785473947 -5.54008763644162 a34.568524904720114,34.568524904720114 0 0,0 0.2469436077501539,-0.5396163491597038 l 12.289043712868747 5.751892967815995" fill="#f18100" stroke="none" /><path d="M 81.29705330413844 90.45014215332179 l -27.078113224765605 -13.826277551760777 a51.403785401682306,51.403785401682306 0 0,0 0.4080283928859151,-0.7824482439189762 l 26.83677676290475 14.289072038784239" fill="#8bda00" stroke="none" /><line stroke="#006cb8" stroke-width="0.3" x1="26.387840678322718" x2="22.05771365940052" y1="57.49999999999999" y2="54.99999999999999" /><path d="M 25.521815274538284 56.99999999999999 a86.0,86.0 0 0,1 29.574782752854787,-30.34633250058573" fill="none" id="id83" stroke="none" /><text fill="#006cb8" style="font-size:6.75px; font-family:Arial;" text-anchor="middle"><textPath startOffset="21.40746469413373" xlink:href="#id83">November</textPath></text><path d="M 82.18462484594161 88.88188828441811 l -14.71194009929509 -9.181338712345347 a38.341803886449014,38.341803886449014 0 0,0 0.35326003443702764,-0.55538344906714 l 14.552162373232171 9.432535836091159" fill="#ecaa00" stroke="none" /><path d="M 82.576782715395 88.27688183743585 l -47.17080037062012 -31.738619655287238 a77.85441394674542,77.85441394674542 0 0,0 0.7555965998369392,-1.1024380204400541 l 46.61901403396787 32.54369241079733" fill="#00b77a" stroke="none" /><path d="M 83.64595745247003 86.82634096563983 l -10.471514477818657 -8.435110823713979 a34.44632701028435,34.44632701028435 0 0,0 0.3748960763688945,-0.45731225592070723 l 10.325171582211132 8.61362536133318" fill="#f17f00" stroke="none" /><path d="M 83.8745106332314 86.54754324733833 l -10.315823249612375 -8.605826649794327 a34.434152807064294,34.434152807064294 0 0,0 0.3825559548054692,-0.45064995283757664 l 10.166572731299791 8.781643385081459" fill="#f17f00" stroke="none" /><path d="M 84.10781606972428 86.27271002978789 l -6.877239415420475 -5.940395609831773 a30.087613656968564,30.087613656968564 0 0,0 0.34097710296413664,-0.38796935086972073 l 6.7742512484977455 6.057577238512795" fill="#f74d00" stroke="none" /><path d="M 84.34580500576568 86.00192230759919 l -12.783114750628682 -11.430740034609336 a38.148464667910105,38.148464667910105 0 0,0 0.44070977322799226,-0.4844172417665686 l 12.585007276558823 11.648494851933561" fill="#eca800" stroke="none" /><path d="M 84.58840730492382 85.73525988315684 l -9.84869804784601 -9.115807880561789 a34.41994063149902,34.41994063149902 0 0,0 0.40508035858185015,-0.4301813031876111 l 9.690761855527889 9.283530643693911" fill="#f17f00" stroke="none" /><path d="M 85.08716467003674 85.21462403516908 l -40.90047546701353 -40.55090085418577 a78.59535097135688,78.59535097135688 0 0,0 0.9581449947089362,-0.9499557704582678 l 40.19833855217462 41.24703663487271" fill="#00b680" stroke="none" /><path d="M 85.60350026404147 84.71141617570332 l -1.8820588370461044 -1.998681264208136 a23.745336456975714,23.745336456975714 0 0,0 0.2991575760309137,-0.2768957862109296 l 1.8474714897012374 2.030694796551431" fill="#ff0000" stroke="none" /><path d="M 87.54013794807813 83.09580414077388 l -8.126890734737614 -11.025688096229336 a34.69715850129863,34.69715850129863 0 0,0 0.4824871032592151,-0.34928345441526343 l 7.936422621104431 11.16357232201768" fill="#f08200" stroke="none" /><path d="M 88.12776184653039 82.6780497279521 l -7.777194914356581 -11.347159804332126 a34.756554668991235,34.756554668991235 0 0,0 0.49503878640262833,-0.3330841883707799 l 7.581259839856964 11.478993666760015" fill="#f08300" stroke="none" /><path d="M 89.03521579738668 82.08984904055464 l -9.681862904658201 -15.81459543451424 a39.54292042969379,39.54292042969379 0 0,0 0.5819724483273417,-0.3494577337939607 l 9.408957699773426 15.978467168844125" fill="#eab700" stroke="none" /><line stroke="#006cb8" stroke-width="0.3" x1="56.869717070023135" x2="54.33264160355391" y1="26.7553504044142" y2="22.446841604673864" /><path d="M 56.362301976729285 25.89364864446614 a86.0,86.0 0 0,1 42.16139366436587,-11.88097634709845" fill="none" id="id84" stroke="none" /><text fill="#006cb8" style="font-size:6.75px; font-family:Arial;" text-anchor="middle"><textPath startOffset="22.145653131862474" xlink:href="#id84">December</textPath></text><path d="M 89.65649057296885 81.72400993836675 l -10.79448829419797 -19.072826507956584 a42.915603768461146,42.915603768461146 0 0,0 0.6442568336570115,-0.35735840540081387 l 10.465487272384856 19.255317828790545" fill="#e6d900" stroke="none" /><path d="M 91.5904679813234 80.7573450057729 l -10.745493646873665 -24.587792344476817 a47.8332846683017,47.8332846683017 0 0,0 0.7552304493046106,-0.32236297002966013 l 10.321828122398623 24.768629964165882" fill="#b5df00" stroke="none" /></svg>