<?xml version="1.0" encoding="utf-8" ?>
<svg baseProfile="full" height="200mm" version="1.1" viewBox="0,0,200,200" width="200mm" xmlns="http://www.w3.org/2000/svg" xmlns:ev="http://www.w3.org/2001/xml-events" xmlns:xlink="http://www.w3.org/1999/xlink"><defs /><rect fill="#1a1a1a" height="200" width="200" x="0" y="0" /><text alignment-baseline="middle" fill="#e1ed5e" style="dominant-baseline: central; font-size:9.0px; font-family:Arial;" text-anchor="middle" x="100.0" y="100.0">2024</text><line stroke="#e1ed5e" stroke-width="0.3" x1="100.0" x2="100.0" y1="15.0" y2="10.0" /><path d="M 100.0 14.0 a86.0,86.0 0 0,1 42.35913384403234,11.155469271406648" fill="none" id="id121" stroke="none" /><text fill="#e1ed5e" style="font-size:6.75px; font-family:Arial;" text-anchor="middle"><textPath startOffset="22.145653131862478" xlink:href="#id121">January</textPath></text><path d="M 100.0 79.0 l 0.0 -1.2295055287093994 a22.2295055287094,22.2295055287094 0 0,0 0.38159902218991615,0.0032755686557723444 l -0.02110609734106138 1.229324358248062" fill="#ff0000" stroke="none" /><path d="M 100.72087961077811 79.0123766808444 l 0.7512472285046735 -21.87174337528705 a42.88464143349735,42.88464143349735 0 0,0 0.7355211004864652,0.03158644080739983 l -1.126594089591975 21.85562436605382" fill="#ebff1a" stroke="none" /><path d="M 101.44090949804482 79.04949213459386 l 1.471560765513248 -21.39617056736863 a42.446715506914565,42.446715506914565 0 0,0 0.7265078868161898,0.05623630519657364 l -1.8386376471046715 21.367756495177005" fill="#f0ff19" stroke="none" /><path d="M 102.15924093988457 79.11130261209362 l 0.15281889912736907 -1.4783842229275506 a22.486261594246315,22.486261594246315 0 0,0 0.3836200112586328,0.0429854224163013 l -0.17817481198679852 1.4755430400042784" fill="#ff0400" stroke="none" /><path d="M 102.51750503828377 79.15144685158666 l 2.52407149016608 -20.902932789757823 a42.054774662783785,42.054774662783785 0 0,0 0.715976887491924,0.09269754244248798 l -2.8825261995487956 20.85652365111494" fill="#f5ff19" stroke="none" /><path d="M 103.23170211078529 79.25015418208739 l 3.209562651804476 -20.607694609479484 a41.85613505742202,41.85613505742202 0 0,0 0.7090080416749559,0.11666700344841184 l -3.562848196532503 20.549561607535402" fill="#f7ff18" stroke="none" /><path d="M 103.94208987418118 79.37332000966035 l 3.904839238443889 -20.431768923541796 a41.80156125926848,41.80156125926848 0 0,0 0.7036666102592575,0.14075302938463466 l -4.255002334234104 20.361726497494303" fill="#f8ff18" stroke="none" /><path d="M 104.64783097203109 79.52079915486377 l 0.7291674924304474 -3.212846512080006 a24.294551250504682,24.294551250504682 0 0,0 0.40591318443431246,0.09579440628219782 l -0.7842128306046449 3.1998559621515805" fill="#ff1e03" stroke="none" /><path d="M 105.3480935250658 79.69241777938227 l 5.312452569799651 -20.17224770821691 a41.8600510523832,41.8600510523832 0 0,0 0.693319253040103,0.18896724546985302 l -5.657953223774447 20.078079968602918" fill="#f7ff18" stroke="none" /><path d="M 105.69591212413111 79.78721728523813 l 0.9940066885285217 -3.5273790701804217 a24.664758164133936,24.664758164133936 0 0,0 0.40654567074019243,0.1183395196923807 l -1.0544123716503186 3.509795856185525" fill="#ff2303" stroke="none" /><path d="M 106.38641147887787 79.99465700312896 l 6.3467371950126115 -19.881063867738046 a41.86954176630709,41.86954176630709 0 0,0 0.6828269542889696,0.22445878254144888 l -6.687086886949324 19.769184163794577" fill="#f7ff18" stroke="none" /><path d="M 107.06938296918511 80.22567764915836 l 2.0897066989377433 -5.84528155620226 a27.20759136532549,27.20759136532549 0 0,0 0.43844495597084343,0.16100306092793468 l -2.1897408065627113 5.808547646265604" fill="#ff4706" stroke="none" /><path d="M 107.40779381753099 80.34994680014964 l 7.366898114268111 -19.541572488243748 a41.88406672895133,41.88406672895133 0 0,0 0.670599285421214,0.2594022097143467 l -7.701269662182851 19.41223039039136" fill="#f7ff19" stroke="none" /><path d="M 108.73861861582097 80.90454125486305 l 8.747040295170255 -19.113861634386293 a42.020238355066205,42.020238355066205 0 0,0 0.6533372413685038,0.30579481789169627 l -9.073866250410264 18.960890584924062" fill="#f5ff19" stroke="none" /><path d="M 109.3889696526874 81.21577127319529 l 23.21115972843424 -46.437867996357866 a72.9156384915571,72.9156384915571 0 0,0 1.1148203157625025,0.5692351966375726 l -24.004907265910322 46.03257484804746" fill="#3fffc0" stroke="none" /><line stroke="#e1ed5e" stroke-width="0.3" x1="143.13028292997686" x2="145.6673583964461" y1="26.7553504044142" y2="22.446841604673864" /><path d="M 143.63769802327073 25.89364864446614 a86.0,86.0 0 0,1 29.32050498858742,28.57503671076993" fill="none" id="id122" stroke="none" /><text fill="#e1ed5e" style="font-size:6.75px; font-family:Arial;" text-anchor="middle"><textPath startOffset="20.669276256404974" xlink:href="#id122">February</textPath></text><path d="M 110.96478420261332 82.08984904055464 l 18.38490674837227 -30.030363494084447 a56.21118469653051,56.21118469653051 0 0,0 0.8186379354012279,0.5108906178902864 l -18.89770881256321 29.710337079352616" fill="#57ff2a" stroke="none" /><path d="M 111.27062007382361 82.28071324371311 l 3.4152509465736385 -5.369341746118171 a27.363471522265144,27.363471522265144 0 0,0 0.39418301365768693,0.2555046670688501 l -3.5069195924883325 5.309923237345426" fill="#ff4a06" stroke="none" /><path d="M 111.8722381534696 82.67804972795209 l 11.685749224223178 -17.04985735098821 a41.67013233195374,41.67013233195374 0 0,0 0.5865664604173576,0.40946894441833614 l -11.976710775814295 16.846743590764746" fill="#faff18" stroke="none" /><path d="M 112.16784306229584 82.88440491214696 l 12.030537473160482 -16.922457581484142 a41.763029704025584,41.763029704025584 0 0,0 0.5807427494234056,0.42041296497877984 l -12.319261232957857 16.71344384513229" fill="#f8ff18" stroke="none" /><path d="M 116.57777611688842 87.10902102172516 l 16.863412027095162 -13.113091189704978 a42.36183104851024,42.36183104851024 0 0,0 0.44146680764844765,0.577894222486727 l -17.086030812097917 12.821676053977368" fill="#f1ff19" stroke="none" /><path d="M 117.42321728460499 88.27688183743584 l 17.673214074155123 -11.891327159575718 a42.30131820632183,42.30131820632183 0 0,0 0.40020181566828417,0.6059565566306631 l -17.87474032874413 11.586190724605997" fill="#f2ff19" stroke="none" /><line stroke="#e1ed5e" stroke-width="0.3" x1="172.87174338648825" x2="177.1583165268699" y1="56.24261187166439" y2="53.66864786411523" /><path d="M 173.72905801456457 55.72781907015455 a86.0,86.0 0 0,1 12.242430191666344,42.057860355516425" fill="none" id="id123" stroke="none" /><text fill="#e1ed5e" style="font-size:6.75px; font-family:Arial;" text-anchor="middle"><textPath startOffset="22.145653131862474" xlink:href="#id123">March</textPath></text><path d="M 118.53625476483649 90.13048839642627 l 18.752971442511814 -9.984901027820417 a42.245521562414815,42.245521562414815 0 0,0 0.33533274125712104,0.6430447466398012 l -18.92161225274388 9.661510038076118" fill="#f3ff19" stroke="none" /><path d="M 118.8641267826498 90.77261029715802 l 18.832692460709254 -9.212013600786886 a41.965006556181606,41.965006556181606 0 0,0 0.31098216476143525,0.6498331182298202 l -18.988053883430602 8.887367980491963" fill="#f6ff19" stroke="none" /><path d="M 119.71291397450082 92.76114493625339 l 19.772302760082425 -7.260663448432568 a42.063266369387435,42.063266369387435 0 0,0 0.24308527876119906,0.6799527882307248 l -19.894028208887566 6.9201757038209255" fill="#f5ff19" stroke="none" /><path d="M 119.94978838288452 93.4421083053983 l 19.862521243745682 -6.52920525262112 a41.90813887913278,41.90813887913278 0 0,0 0.21879098653618576,0.6853596491169582 l -19.971676946059123 6.1872765698127745" fill="#f7ff19" stroke="none" /><path d="M 120.35273937422433 94.82641323984039 l 20.1934896156053 -5.1331060942599915 a41.835685758584674,41.835685758584674 0 0,0 0.170953508325301,0.6975486519949761 l -20.278630650446893 4.785701617656921" fill="#f8ff18" stroke="none" /><path d="M 120.51834098615036 95.52812308129327 l 20.44084318832969 -4.454986634372399 a41.920682975522595,41.920682975522595 0 0,0 0.1472060536390967,0.7044342558543784 l -20.514306952793152 4.103435927232616" fill="#f6ff19" stroke="none" /><path d="M 120.65975698304385 96.23510406497455 l 20.253226428115596 -3.6908125256722255 a41.58677434296541,41.58677434296541 0 0,0 0.1219585279914663,0.7034243802371646 l -20.313599773599297 3.342595112514468" fill="#fbff18" stroke="none" /><path d="M 120.86939407059847 97.66154086499901 l 20.440188160868342 -2.2903657175778664 a41.56810801148123,41.56810801148123 0 0,0 0.0733728720499666,0.7098159785796103 l -20.476493425399976 1.9391452167153247" fill="#fbff18" stroke="none" /><path d="M 120.93736805541906 98.37931529534042 l 20.55291220523806 -1.5909253903868372 a41.6143940903923,41.6143940903923 0 0,0 0.04901786991962802,0.7127090706877433 l -20.577194036322755 1.2378728955447598" fill="#faff18" stroke="none" /><path d="M 120.98066250479742 99.09900007780936 l 2.0021608455432904 -0.08598140147553326 a23.004006200795377,23.004006200795377 0 0,0 0.013556275098156628,0.3946761582892721 l -2.0033418076382956 0.05159897862214123" fill="#ff0b01" stroke="none" /><line stroke="#e1ed5e" stroke-width="0.3" x1="184.99686870605535" x2="189.99668451229388" y1="99.2704041080226" y2="99.22748670261217" /><path d="M 185.99683186730306 99.26182062694052 a86.0,86.0 0 0,1 -10.086455211305974,41.156179273409016" fill="none" id="id124" stroke="none" /><text fill="#e1ed5e" style="font-size:6.75px; font-family:Arial;" text-anchor="middle"><textPath startOffset="21.40746469413373" xlink:href="#id124">April</textPath></text><path d="M 120.99922638620191 99.81974689727618 l 20.91996592974044 -0.17957274703177872 a41.92073662357464,41.92073662357464 0 0,0 0.0,0.7196516995112087 l -20.91996592974044 -0.1795727470317762" fill="#f6ff19" stroke="none" /><path d="M 120.99303781780057 100.54070618675476 l 20.756666358276824 0.5346180964247133 a41.763550149669626,41.763550149669626 0 0,0 -0.024611285963099475,0.7165307375470744 l -20.74443038531688 -0.8908550985358984" fill="#f8ff18" stroke="none" /><path d="M 120.86939407059847 102.33845913500097 l 21.04431496257056 2.3580593857965195 a42.17601559101273,42.17601559101273 0 0,0 -0.0867980668439747,0.7188125077238265 l -21.00073480946692 -2.7189655704437548" fill="#f3ff19" stroke="none" /><path d="M 120.77682067341334 103.0534771498775 l 20.380422451447316 2.9952202619709474 a41.59934376909078,41.59934376909078 0 0,0 -0.10989854858744831,0.7056275178307815 l -20.3260024107216 -3.344635961733179" fill="#faff18" stroke="none" /><path d="M 120.65975698304385 103.76489593502545 l 20.88720851274732 3.8063451805465247 a42.2311974011937,42.2311974011937 0 0,0 -0.13609246235727707,0.712093270254021 l -20.818789758107886 -4.164341015833861" fill="#f3ff19" stroke="none" /><path d="M 120.43855184770803 104.8234425847677 l 20.288551154013618 4.78804282948654 a41.845878778934335,41.845878778934335 0 0,0 -0.17099516014855237,0.6977186056475898 l -20.20336846734877 -5.135617259742229" fill="#f7ff18" stroke="none" /><path d="M 120.26092885502905 105.52220625578681 l 20.45973585489848 5.576391987656676 a42.206059012749634,42.206059012749634 0 0,0 -0.1965224806598064,0.6973889543193398 l -20.360994882164093 -5.926788865879025" fill="#f3ff19" stroke="none" /><path d="M 119.94978838288452 106.5578916946017 l 59.84936514865356 19.67367508380507 a84.0,84.0 0 0,0 -0.46205831371054007,1.3659933021033581 l -59.50282141337066 -20.698170060382587" fill="#4dd2ff" stroke="none" /><path d="M 119.4528033332814 107.91128576633889 l 9.567994406202988 3.891220029387669 a31.328993671904318,31.328993671904318 0 0,0 -0.20688198757014858,0.49644145742522316 l -9.499786574096353 -4.05489399625417" fill="#ff800b" stroke="none" /><line stroke="#e1ed5e" stroke-width="0.3" x1="174.33088141563837" x2="178.70328620479359" y1="141.23008692659167" y2="143.65538615756765" /><path d="M 175.20536237346943 141.71514677278685 a86.0,86.0 0 0,1 -30.301960400862466,31.631185727798858" fill="none" id="id125" stroke="none" /><text fill="#e1ed5e" style="font-size:6.75px; font-family:Arial;" text-anchor="middle"><textPath startOffset="22.145653131862474" xlink:href="#id125">May</textPath></text><line stroke="#e1ed5e" stroke-width="0.3" x1="143.1302829299769" x2="145.66735839644613" y1="173.24464959558577" y2="177.55315839532614" /><path d="M 143.63769802327073 174.10635135553383 a86.0,86.0 0 0,1 -40.68552437913181,11.842963189579606" fill="none" id="id126" stroke="none" /><text fill="#e1ed5e" style="font-size:6.75px; font-family:Arial;" text-anchor="middle"><textPath startOffset="21.407464694133747" xlink:href="#id126">June</textPath></text><line stroke="#e1ed5e" stroke-width="0.3" x1="101.45913802915013" x2="101.54496967792366" y1="184.9874750549273" y2="189.98673829345242" /><path d="M 101.47630435890484 185.9873277026323 a86.0,86.0 0 0,1 -42.54439059252881,-10.42667462771756" fill="none" id="id127" stroke="none" /><text fill="#e1ed5e" style="font-size:6.75px; font-family:Arial;" text-anchor="middle"><textPath startOffset="22.145653131862474" xlink:href="#id127">July</textPath></text><line stroke="#e1ed5e" stroke-width="0.3" x1="58.13341422392154" x2="55.67067388415222" y1="173.97424548756322" y2="178.32567169271397" /><path d="M 57.64086615596768 174.84453072859336 a86.0,86.0 0 0,1 -31.369924170532247,-30.572349798747897" fill="none" id="id128" stroke="none" /><text fill="#e1ed5e" style="font-size:6.75px; font-family:Arial;" text-anchor="middle"><textPath startOffset="22.145653131862474" xlink:href="#id128">August</textPath></text><line stroke="#e1ed5e" stroke-width="0.3" x1="26.387840678322732" x2="22.057713659400548" y1="142.50000000000003" y2="145.00000000000006" /><path d="M 25.521815274538298 143.00000000000003 a86.0,86.0 0 0,1 -11.493303480769221,-40.785679425670985" fill="none" id="id129" stroke="none" /><text fill="#e1ed5e" style="font-size:6.75px; font-family:Arial;" text-anchor="middle"><textPath startOffset="21.40746469413373" xlink:href="#id129">September</textPath></text><line stroke="#e1ed5e" stroke-width="0.3" x1="15.003131293944662" x2="10.003315487706104" y1="100.72959589197737" y2="100.7725132973878" /><path d="M 14.003168132696942 100.73817937305945 a86.0,86.0 0 0,1 10.791469493833604,-42.45332614584628" fill="none" id="id130" stroke="none" /><text fill="#e1ed5e" style="font-size:6.75px; font-family:Arial;" text-anchor="middle"><textPath startOffset="22.145653131862435" xlink:href="#id130">October</textPath></text><line stroke="#e1ed5e" stroke-width="0.3" x1="26.387840678322718" x2="22.05771365940052" y1="57.49999999999999" y2="54.99999999999999" /><path d="M 25.521815274538284 56.99999999999999 a86.0,86.0 0 0,1 29.574782752854787,-30.34633250058573" fill="none" id="id131" stroke="none" /><text fill="#e1ed5e" style="font-size:6.75px; font-family:Arial;" text-anchor="middle"><textPath startOffset="21.40746469413373" xlink:href="#id131">November</textPath></text><line stroke="#e1ed5e" stroke-width="0.3" x1="56.869717070023135" x2="54.33264160355391" y1="26.7553504044142" y2="22.446841604673864" /><path d="M 56.362301976729285 25.89364864446614 a86.0,86.0 0 0,1 42.16139366436587,-11.88097634709845" fill="none" id="id132" stroke="none" /><text fill="#e1ed5e" style="font-size:6.75px; font-family:Arial;" text-anchor="middle"><textPath startOffset="22.145653131862474" xlink:href="#id132">December</textPath></text></svg>