<?xml version="1.0" encoding="utf-8" ?>
<svg baseProfile="full" height="200mm" version="1.1" viewBox="0,0,200,200" width="200mm" xmlns="http://www.w3.org/2000/svg" xmlns:ev="http://www.w3.org/2001/xml-events" xmlns:xlink="http://www.w3.org/1999/xlink"><defs /><rect fill="#f5f5f5" height="200" width="200" x="0" y="0" /><text alignment-baseline="middle" fill="#006cb8" style="dominant-baseline: central; font-size:9.0px; font-family:Arial;" text-anchor="middle" x="100.0" y="100.0">2019</text><line stroke="#006cb8" stroke-width="0.3" x1="100.0" x2="100.0" y1="15.0" y2="10.0" /><path d="M 100.0 14.0 a86.0,86.0 0 0,1 42.46469731375804,11.215312516191453" fill="none" id="id61" stroke="none" /><text fill="#006cb8" style="font-size:6.75px; font-family:Arial;" text-anchor="middle"><textPath startOffset="22.20632615414155" xlink:href="#id61">January</textPath></text><path d="M 100.72285384407766 79.0124445844662 l 1.0777430015927465 -31.291513706332847 a52.310068029486914,52.310068029486914 0 0,0 0.899631458437473,0.038740023025359845 l -1.6162152924195512 31.268325956783293" fill="red" stroke="none" /><path d="M 102.16513564639614 79.11191278185805 l 1.7431700849001397 -16.81718594862956 a37.90728793082067,37.90728793082067 0 0,0 0.6484552383045102,0.07286150161157036 l -2.0323920267143754 16.784688493547392" fill="red" stroke="none" /><path d="M 103.2404852339499 79.25152402106235 l 3.7583137800637085 -24.06407607415986 a45.35579355661338,45.35579355661338 0 0,0 0.7703374711446944,0.12711228324502807 l -4.171980457347278 23.995817527975206" fill="red" stroke="none" /><path d="M 105.01212808612495 79.60689891045804 l 5.823535870733693 -23.694517312757537 a45.39966640596319,45.39966640596319 0 0,0 0.7572904570797133,0.19305019928501982 l -6.230535216498431 23.590764117303646" fill="red" stroke="none" /><path d="M 105.71112130821622 79.79150937346287 l 6.649291372405662 -23.52815412606655 a45.44968532180099,45.44968532180099 0 0,0 0.7510231146693768,0.21924424158178638 l -7.053304704798466 23.41021155556606" fill="red" stroke="none" /><path d="M 109.41281617654863 81.2277094730956 l 10.953949531455729 -21.845823732736847 a45.43826967891728,45.43826967891728 0 0,0 0.6961565110145466,0.35659840380723495 l -11.32836653005903 21.654032803617113" fill="red" stroke="none" /><path d="M 110.36928655335952 81.73862282372117 l 12.313736259439139 -21.685752546783 a45.937922210708166,45.937922210708166 0 0,0 0.6842634367268134,0.39636954870093455 l -12.685196428631281 21.470578840692017" fill="red" stroke="none" /><line stroke="#006cb8" stroke-width="0.3" x1="143.23703022742887" x2="145.7803849466894" y1="26.81831364943548" y2="22.513508569990506" /><path d="M 143.74570117128098 25.957352633546492 a86.0,86.0 0 0,1 28.547481713284135,27.462654790039103" fill="none" id="id62" stroke="none" /><text fill="#006cb8" style="font-size:6.75px; font-family:Arial;" text-anchor="middle"><textPath startOffset="19.985693538727396" xlink:href="#id62">February</textPath></text><path d="M 112.48926042617603 83.11751280151076 l 8.062354341836977 -10.8983710260754 a34.5564024931151,34.5564024931151 0 0,0 0.47515686343620905,0.35787829850530056 l -8.248757359031568 10.757976138064253" fill="red" stroke="none" /><path d="M 113.06298171725822 83.55741782278167 l 29.72474131577098 -37.41500312561907 a68.7853817100961,68.7853817100961 0 0,0 0.9207303346262964,0.7444998980983 l -30.36437504896177 36.89779713025664" fill="red" stroke="none" /><line stroke="#006cb8" stroke-width="0.3" x1="172.23445277983987" x2="176.4835382374775" y1="55.19839476539836" y2="52.563006222186495" /><path d="M 173.08426987136738 54.67131705675599 a86.0,86.0 0 0,1 12.851231095245387,41.99856678651699" fill="none" id="id63" stroke="none" /><text fill="#006cb8" style="font-size:6.75px; font-family:Arial;" text-anchor="middle"><textPath startOffset="22.20632615414155" xlink:href="#id63">March</textPath></text><line stroke="#006cb8" stroke-width="0.3" x1="184.98032266829074" x2="189.97916517819016" y1="98.17113171792111" y2="98.06355123074" /><path d="M 185.9800911702706 98.14961562048488 a86.0,86.0 0 0,1 -9.607161424134198,41.387399972396054" fill="none" id="id64" stroke="none" /><text fill="#006cb8" style="font-size:6.75px; font-family:Arial;" text-anchor="middle"><textPath startOffset="21.466115282336823" xlink:href="#id64">April</textPath></text><line stroke="#006cb8" stroke-width="0.3" x1="174.80103733775053" x2="179.2010983576182" y1="140.37084112569926" y2="142.7455964860345" /><path d="M 175.68104954172406 140.8457921977663 a86.0,86.0 0 0,1 -30.038265399797805,32.042727171017184" fill="none" id="id65" stroke="none" /><text fill="#006cb8" style="font-size:6.75px; font-family:Arial;" text-anchor="middle"><textPath startOffset="22.206326154141568" xlink:href="#id65">May</textPath></text><line stroke="#006cb8" stroke-width="0.3" x1="143.8653032363475" x2="146.44561519142675" y1="172.8068346515853" y2="177.08958963109032" /><path d="M 144.38136562736335 173.6633856474863 a86.0,86.0 0 0,1 -40.68145358897372,12.25698825130547" fill="none" id="id66" stroke="none" /><text fill="#006cb8" style="font-size:6.75px; font-family:Arial;" text-anchor="middle"><textPath startOffset="21.466115282336833" xlink:href="#id66">June</textPath></text><path d="M 109.2508944713604 118.85261126421891 l 7.967389200501558 16.23692626186699 a39.0863778879458,39.0863778879458 0 0,0 -0.6065597813065408,0.2911855556043466 l -7.686716751194784 -16.371666093970898" fill="red" stroke="none" /><line stroke="#006cb8" stroke-width="0.3" x1="102.19456741930631" x2="102.32365962044197" y1="184.97166512339345" y2="189.96999836594603" /><path d="M 102.22038585953345 185.97133177190398 a86.0,86.0 0 0,1 -42.740103519485714,-10.115201625700543" fill="none" id="id67" stroke="none" /><text fill="#006cb8" style="font-size:6.75px; font-family:Arial;" text-anchor="middle"><textPath startOffset="22.20632615414155" xlink:href="#id67">July</textPath></text><line stroke="#006cb8" stroke-width="0.3" x1="58.666819895761336" x2="56.23545636021788" y1="174.27360380694188" y2="178.64263932499728" /><path d="M 58.180547188652646 175.14741091055294 a86.0,86.0 0 0,1 -31.652253787137756,-30.449443065178592" fill="none" id="id68" stroke="none" /><text fill="#006cb8" style="font-size:6.75px; font-family:Arial;" text-anchor="middle"><textPath startOffset="22.20632615414155" xlink:href="#id68">August</textPath></text><line stroke="#006cb8" stroke-width="0.3" x1="26.63291911575756" x2="22.317208475507996" y1="142.92168965132927" y2="145.44649492493687" /><path d="M 25.769776987707644 143.4266507060508 a86.0,86.0 0 0,1 -11.730757126820373,-40.83630448921669" fill="none" id="id69" stroke="none" /><text fill="#006cb8" style="font-size:6.75px; font-family:Arial;" text-anchor="middle"><textPath startOffset="21.46611528233685" xlink:href="#id69">September</textPath></text><path d="M 80.0844068197444 106.66101706037122 l -6.3001036268564885 2.1071477691260565 a27.643145145942785,27.643145145942785 0 0,0 -0.14704540567068394,-0.45255922424992256 l 6.335441283543422 -1.9983896448983305" fill="red" stroke="none" /><line stroke="#006cb8" stroke-width="0.3" x1="15.007084014347285" x2="10.007500721073583" y1="101.09737516637583" y2="101.16192664675087" /><path d="M 14.007167355692545 101.11028546245083 a86.0,86.0 0 0,1 10.666146001902534,-42.60595125391555" fill="none" id="id70" stroke="none" /><text fill="#006cb8" style="font-size:6.75px; font-family:Arial;" text-anchor="middle"><textPath startOffset="22.20632615414155" xlink:href="#id70">October</textPath></text><line stroke="#006cb8" stroke-width="0.3" x1="26.266209847984243" x2="21.928928074336255" y1="57.711370442889674" y2="55.22380399835377" /><path d="M 25.398753493254645 57.213857153982495 a86.0,86.0 0 0,1 29.58750427330803,-30.492523968695096" fill="none" id="id71" stroke="none" /><text fill="#006cb8" style="font-size:6.75px; font-family:Arial;" text-anchor="middle"><textPath startOffset="21.46611528233685" xlink:href="#id71">November</textPath></text><path d="M 85.31137513191541 84.99185889309783 l -12.308537977304795 -12.576281063888551 a38.59724275381448,38.59724275381448 0 0,0 0.4788204041774991,-0.46062484944984017 l 12.090234329514868 12.786289000100705" fill="red" stroke="none" /><line stroke="#006cb8" stroke-width="0.3" x1="56.762969772571076" x2="54.21961505331055" y1="26.818313649435495" y2="22.513508569990535" /><path d="M 56.25429882871897 25.957352633546506 a86.0,86.0 0 0,1 42.265352541879196,-11.944610805530505" fill="none" id="id72" stroke="none" /><text fill="#006cb8" style="font-size:6.75px; font-family:Arial;" text-anchor="middle"><textPath startOffset="22.20632615414155" xlink:href="#id72">December</textPath></text><path d="M 96.40284397218896 79.31037775812273 l -10.447738355560805 -60.09184983562254 a81.99332466273063,81.99332466273063 0 0,0 1.392601152322296,-0.22979112240029262 l 9.411807997099622 60.26278722096246" fill="red" stroke="none" /><path d="M 97.47563105711357 79.15227682838746 l -7.573106828659279 -62.54316951483762 a84.0,84.0 0 0,0 1.436933185961128,-0.16145618611760604 l 6.495406939188433 62.66426165442583" fill="red" stroke="none" /><path d="M 98.91598698831166 79.02799685794201 l -1.2672198658593172 -24.516439121969466 a45.54916767244184,45.54916767244184 0 0,0 0.7833571181875334,-0.03373300534462993 l 0.8450219152824596 24.534619853838286" fill="red" stroke="none" /><path d="M 99.27714615592234 79.0124445844662 l -1.664103780829351 -48.31608851982947 a69.34473757555591,69.34473757555591 0 0,0 1.1933019594860355,-0.030819469029818428 l 0.8321751861484366 48.33757478100165" fill="red" stroke="none" /></svg>