<?xml version="1.0" encoding="utf-8" ?>
<svg baseProfile="full" height="200mm" version="1.1" viewBox="0,0,200,200" width="200mm" xmlns="http://www.w3.org/2000/svg" xmlns:ev="http://www.w3.org/2001/xml-events" xmlns:xlink="http://www.w3.org/1999/xlink"><defs /><rect fill="#f5f5f5" height="200" width="200" x="0" y="0" /><text alignment-baseline="middle" fill="#006cb8" style="dominant-baseline: central; font-size:9.0px; font-family:Arial;" text-anchor="middle" x="100.0" y="100.0">2020</text><line stroke="#006cb8" stroke-width="0.3" x1="100.0" x2="100.0" y1="15.0" y2="10.0" /><path d="M 100.0 14.0 a86.0,86.0 0 0,1 42.35913384403234,11.155469271406648" fill="none" id="id73" stroke="none" /><text fill="#006cb8" style="font-size:6.75px; font-family:Arial;" text-anchor="middle"><textPath startOffset="22.145653131862478" xlink:href="#id73">January</textPath></text><path d="M 100.0 79.0 l 0.0 -14.661066976744188 a35.66106697674419,35.66106697674419 0 0,0 0.6121696351274961,0.005254740060212364 l -0.25167671027864136 14.65890663487841" fill="#ef8b00" stroke="none" /><path d="M 101.08105385017728 79.02784411241856 l 2.0364037642874293 -39.505688997537135 a60.55813953488372,60.55813953488372 0 0,0 1.0377232636180156,0.062426854645074976 l -2.714271380037907 39.464910165067366" fill="#27ce00" stroke="none" /><path d="M 101.44090949804482 79.04949213459386 l 0.6302136030169496 -9.163167474992864 a30.184813953488373,30.184813953488373 0 0,0 0.5166360962773755,0.03999090128690044 l -0.7874186940695586 9.150998806710911" fill="#f74c00" stroke="none" /><path d="M 102.15924093988457 79.11130261209362 l 3.3582804896779197 -32.48831735116243 a53.66142697674419,53.66142697674419 0 0,0 0.9154744168875212,0.10258081790914826 l -3.9154908081662376 32.42588077274631" fill="#72d700" stroke="none" /><path d="M 102.51750503828377 79.15144685158666 l 5.2691965917567325 -43.63650658970235 a64.95348837209303,64.95348837209303 0 0,0 1.1058244113610398,0.143171109426679 l -6.017498825008564 43.539623884075276" fill="#00c806" stroke="none" /><path d="M 103.58742460773223 79.30868818359171 l 5.005708754975202 -28.871597883360405 a50.30232558139535,50.30232558139535 0 0,0 0.849547033587011,0.15481576942021644 l -5.500590522113266 28.78141394000882" fill="#99dc00" stroke="none" /><path d="M 104.29559338865022 79.4440306129975 l 7.2392896137269185 -34.64262145402357 a56.39093860465117,56.39093860465117 0 0,0 0.9458575208895764,0.20614524434047896 l -7.8329095512356295 34.513244751549365" fill="#54d400" stroke="none" /><path d="M 104.9986988182912 79.60360301121754 l 7.173533563116457 -29.270464911845973 a51.136683625388585,51.136683625388585 0 0,0 0.8508041228913533,0.21627108099534054 l -7.674942979233205 29.143008599015364" fill="#8fdb00" stroke="none" /><path d="M 105.69591212413111 79.78721728523813 l 3.9236996748892725 -13.923825936590783 a35.46611032210125,35.46611032210125 0 0,0 0.5845828089411799,0.1701635358816347 l -4.162142496212057 13.854418706406632" fill="#f08800" stroke="none" /><path d="M 106.72888874123014 80.10723608172694 l 18.200457882779638 -53.80641972100999 a77.80129813953488,77.80129813953488 0 0,0 1.261471092567442,0.43880512856404374 l -19.121434747392097 53.48605615987736" fill="#00b77a" stroke="none" /><path d="M 107.74402155503746 80.48000691201159 l 14.16208292445749 -35.69770032691902 a59.40430186046512,59.40430186046512 0 0,0 0.9446572186856567,0.38418386698388285 l -14.772794604333585 35.44932920335584" fill="#33d000" stroke="none" /><path d="M 108.4095320186766 80.7573450057729 l 11.995277881886874 -27.447543255487425 a50.95420374881525,50.95420374881525 0 0,0 0.7984926438999252,0.35715560320003487 l -12.464683928642431 27.237583901377537" fill="#91db00" stroke="none" /><path d="M 109.3889696526874 81.21577127319529 l 11.42493074040821 -22.85751473851052 a46.5537672847733,46.5537672847733 0 0,0 0.7117689238962698,0.363434284095807 l -11.815626886018059 22.65802250274188" fill="#c6e100" stroke="none" /><path d="M 109.71004243097381 81.37971332152246 l 13.781246752354402 -26.42735777313604 a50.804831838455534,50.804831838455534 0 0,0 0.7698412239561733,0.40989709027727833 l -14.232876792097136 26.18689021513619" fill="#93db00" stroke="none" /><path d="M 110.34350942703115 81.72400993836675 l 15.480103162660505 -27.351859013584765 a52.42861411875538,52.42861411875538 0 0,0 0.7794575346436259,0.4500200174483795 l -15.947353165164529 27.082092098860212" fill="#80d900" stroke="none" /><line stroke="#006cb8" stroke-width="0.3" x1="143.13028292997686" x2="145.6673583964461" y1="26.7553504044142" y2="22.446841604673864" /><path d="M 143.63769802327073 25.89364864446614 a86.0,86.0 0 0,1 29.32050498858742,28.57503671076993" fill="none" id="id74" stroke="none" /><text fill="#006cb8" style="font-size:6.75px; font-family:Arial;" text-anchor="middle"><textPath startOffset="20.669276256404974" xlink:href="#id74">February</textPath></text><path d="M 110.96478420261332 82.08984904055464 l 21.486545224344404 -35.09665684740417 a62.15151209302326,62.15151209302326 0 0,0 0.9051505641907849,0.5648808967013306 l -22.0858599173249 34.72264015386129" fill="#16cc00" stroke="none" /><path d="M 111.5731344415666 82.4767994020092 l 16.148559685906886 -24.450977578591807 a50.30232558139535,50.30232558139535 0 0,0 0.7164577285118349,0.4820647342352735 l -16.565913702515722 24.170163170299414" fill="#99dc00" stroke="none" /><path d="M 112.16784306229584 82.88440491214696 l 20.02790747497803 -28.17176002712442 a55.565374883720935,55.565374883720935 0 0,0 0.7726735538921852,0.5593560661325968 l -20.508562039244183 27.823803189618747" fill="#5dd500" stroke="none" /><path d="M 112.7482090630111 83.31218511350987 l 20.45642849645968 -26.778121562042298 a54.69767441860465,54.69767441860465 0 0,0 0.7412578186245276,0.5764065632202657 l -20.91309625971943 26.42301394720124" fill="#66d600" stroke="none" /><path d="M 113.31354834802062 83.75963576809568 l 29.704693686258096 -36.23489638160235 a67.85441860465116,67.85441860465116 0 0,0 0.8944687909662006,0.7461976783089477 l -30.32233681138619 35.71963651938153" fill="#00c522" stroke="none" /><path d="M 113.86319453409587 84.22622945171908 l 19.343992373157025 -22.00991239295012 a50.30232558139535,50.30232558139535 0 0,0 0.6437140055161004,0.5756130330700266 l -19.7189714054965 21.674603829996705" fill="#99dc00" stroke="none" /><path d="M 114.39649973595853 84.71141617570332 l 24.105766999744507 -25.599489194171184 a56.16279069767442,56.16279069767442 0 0,0 0.6962247471043979,0.6669675584850763 l -24.54166423271422 25.181909505380528" fill="#56d400" stroke="none" /><path d="M 114.91283532996326 85.21462403516908 l 24.97032892458963 -24.756908592275025 a56.16279069767442,56.16279069767442 0 0,0 0.6729190201780615,0.690474195632783 l -25.391634745918502 24.3246117045745" fill="#56d400" stroke="none" /><path d="M 115.6541949942343 86.00192230759917 l 10.921531391326258 -9.766100715628484 a35.651162790697676,35.651162790697676 0 0,0 0.4040277286284399,0.45970938883198276 l -11.087570183913288 9.577179048985204" fill="#ef8a00" stroke="none" /><path d="M 116.35404254752997 86.82634096563983 l 49.062127642589914 -39.52097710308052 a84.0,84.0 0 0,0 0.8949342774337627,1.130720224341287 l -49.73332835066524 38.672936934824556" fill="#00afaa" stroke="none" /><path d="M 116.7966241395341 87.39550010848427 l 23.437149962140616 -17.587674267231257 a50.30232558139535,50.30232558139535 0 0,0 0.5123602786713012,0.6951151196582762 l -23.735612260395744 17.182752838304104" fill="#99dc00" stroke="none" /><path d="M 117.62189284568427 88.57770195909679 l 29.531013917674617 -19.14164643784851 a56.192093023255815,56.192093023255815 0 0,0 0.5177226605005838,0.813946013755163 l -29.85525426980109 18.631886749414676" fill="#56d400" stroke="none" /><line stroke="#006cb8" stroke-width="0.3" x1="172.87174338648825" x2="177.1583165268699" y1="56.24261187166439" y2="53.66864786411523" /><path d="M 173.72905801456457 55.72781907015455 a86.0,86.0 0 0,1 12.242430191666344,42.057860355516425" fill="none" id="id75" stroke="none" /><text fill="#006cb8" style="font-size:6.75px; font-family:Arial;" text-anchor="middle"><textPath startOffset="22.145653131862474" xlink:href="#id75">March</textPath></text><path d="M 118.00360718960297 89.18935116829356 l 37.681968536378335 -22.626939415199544 a64.95348837209303,64.95348837209303 0 0,0 0.565795268668393,0.960844060859465 l -38.0648375151765 21.97674418604652" fill="#00c806" stroke="none" /><path d="M 118.36410011445183 89.81374322990088 l 38.436488611643384 -21.320072309509793 a64.95348837209303,64.95348837209303 0 0,0 0.53247833723627,0.9797001662297156 l -38.796812298495 20.65711730980547" fill="#00c806" stroke="none" /><path d="M 118.8641267826498 90.77261029715802 l 31.586444845367126 -15.450512990805162 a56.16279069767442,56.16279069767442 0 0,0 0.41619500778163077,0.8696874944770487 l -31.84701911110867 14.90601299426301" fill="#56d400" stroke="none" /><path d="M 119.4528033332814 92.08871423366111 l 30.699238004569196 -12.485112839622253 a54.14093023255814,54.14093023255814 0 0,0 0.3427412858896615,0.8639319356210268 l -30.909037965424982 11.956279886787662" fill="#6dd700" stroke="none" /><path d="M 120.05942366710727 93.78553927170692 l 41.984840233480334 -13.00701082665993 a64.95348837209303,64.95348837209303 0 0,0 0.32081975440738525,1.0679046214519485 l -42.201936307891344 12.284368601617258" fill="#00c806" stroke="none" /><path d="M 120.86939407059847 97.66154086499901 l 21.84775126462813 -2.44808609924983 a42.984480000000005,42.984480000000005 0 0,0 0.07587294447712738,0.7340019114295134 l -21.88655660158692 2.0726796655373856" fill="#e6d800" stroke="none" /><line stroke="#006cb8" stroke-width="0.3" x1="184.99686870605535" x2="189.99668451229388" y1="99.2704041080226" y2="99.22748670261217" /><path d="M 185.99683186730306 99.26182062694052 a86.0,86.0 0 0,1 -10.086455211305974,41.156179273409016" fill="none" id="id76" stroke="none" /><text fill="#006cb8" style="font-size:6.75px; font-family:Arial;" text-anchor="middle"><textPath startOffset="21.40746469413373" xlink:href="#id76">April</textPath></text><path d="M 119.83427380445688 106.89939002012753 l 13.845670001080883 4.816242750766661 a35.659426046511626,35.659426046511626 0 0,0 -0.20607723244453488,0.5764346961100179 l -13.760952598592404 -5.0532124032576" fill="#ef8b00" stroke="none" /><path d="M 119.71291397450082 107.23885506374661 l 13.776218645926145 5.058818307295339 a35.6756888372093,35.6756888372093 0 0,0 -0.21604061685127146,0.5730734033673267 l -13.687347345260433 -5.294559990856825" fill="#ef8b00" stroke="none" /><path d="M 119.16976305983485 108.57439118712176 l 19.0366446586798 8.514849019482817 a41.85417209302325,41.85417209302325 0 0,0 -0.2989893345039743,0.6533456548750247 l -18.88767085932077 -8.84038365657253" fill="#e7cd00" stroke="none" /><path d="M 118.8641267826498 109.22738970284198 l 19.741528028354463 9.656570619253227 a42.97674418604652,42.97674418604652 0 0,0 -0.32985692179924553,0.6599348059904738 l -19.57285119334348 -9.994037281407447" fill="#e6d800" stroke="none" /><line stroke="#006cb8" stroke-width="0.3" x1="174.33088141563837" x2="178.70328620479359" y1="141.23008692659167" y2="143.65538615756765" /><path d="M 175.20536237346943 141.71514677278685 a86.0,86.0 0 0,1 -30.301960400862466,31.631185727798858" fill="none" id="id77" stroke="none" /><text fill="#006cb8" style="font-size:6.75px; font-family:Arial;" text-anchor="middle"><textPath startOffset="22.145653131862474" xlink:href="#id77">May</textPath></text><path d="M 118.36410011445183 110.18625677009912 l 20.499460592876467 11.37070523173855 a44.44186046511628,44.44186046511628 0 0,0 -0.37578055309429237,0.6639682307204612 l -20.301246674760794 -11.720930232558134" fill="#e1e400" stroke="none" /><path d="M 117.21940702142032 112.02048342749411 l 12.013539782386271 8.3863837866238 a35.651162790697676,35.651162790697676 0 0,0 -0.3546185536584389,0.49881540581874906 l -11.867806130197872 -8.591376419152052" fill="#ef8a00" stroke="none" /><path d="M 114.39649973595853 115.28858382429668 l 20.088139166453757 21.332907661809323 a50.30232558139535,50.30232558139535 0 0,0 -0.6337379896432878,0.5865784220549978 l -19.718971405496504 -21.6746038299967" fill="#99dc00" stroke="none" /><path d="M 113.59037401385872 116.0094264158162 l 2.0345169164998054 2.3966558119167507 a24.14375860465116,24.14375860465116 0 0,0 -0.3182672405508111,0.2655098516341491 l -1.9930753417870992 -2.43122784746277" fill="#ff0200" stroke="none" /><path d="M 113.03279911837588 116.46651593811092 l 18.1853010954082 22.97653386713152 a50.30232558139535,50.30232558139535 0 0,0 -0.6816924581993312,0.5300881786757745 l -17.788198692573637 -23.285323097428087" fill="#99dc00" stroke="none" /><path d="M 112.7482090630111 116.68781488649013 l 14.495140621412249 18.974604373693616 a44.877703255813955,44.877703255813955 0 0,0 -0.6162072189696917,0.462413384983329 l -14.167280413531792 -19.22063678594096" fill="#dbe300" stroke="none" /><path d="M 112.45986205192187 116.90419585922612 l 1.8003051843858282 2.4424597412412066 a24.03425581395349,24.03425581395349 0 0,0 -0.33421233805734696,0.2419439590329479 l -1.7581118359545134 -2.4730044716472315" fill="#ff0100" stroke="none" /><path d="M 112.16784306229584 117.11559508785304 l 20.914348990721006 29.41865103112926 a57.095249302325584,57.095249302325584 0 0,0 -0.8036969506869279,0.5610428898301845 l -20.406256948860317 -29.77333873676457" fill="#4cd300" stroke="none" /><path d="M 111.8722381534696 117.32195027204791 l 3.426278233350218 4.999042338023517 a27.060512093023256,27.060512093023256 0 0,0 -0.3854237910961517,0.25933032756676877 l -3.3399581541570633 -5.057122339647407" fill="#fb2600" stroke="none" /><path d="M 111.5731344415666 117.5232005979908 l 3.3392153204115123 5.055997594678793 a27.059164186046512,27.059164186046512 0 0,0 -0.38979933073312517,0.2526632167593057 l -3.251930357421377 -5.112574653141993" fill="#fb2600" stroke="none" /><path d="M 111.27062007382361 117.71928675628689 l 15.726446614637597 24.724586171563114 a50.30232558139535,50.30232558139535 0 0,0 -0.7325835984804504,0.45718634710047884 l -15.299698887367432 -24.99090831550514" fill="#99dc00" stroke="none" /><line stroke="#006cb8" stroke-width="0.3" x1="143.1302829299769" x2="145.66735839644613" y1="173.24464959558577" y2="177.55315839532614" /><path d="M 143.63769802327073 174.10635135553383 a86.0,86.0 0 0,1 -40.68552437913181,11.842963189579606" fill="none" id="id78" stroke="none" /><text fill="#006cb8" style="font-size:6.75px; font-family:Arial;" text-anchor="middle"><textPath startOffset="21.407464694133747" xlink:href="#id78">June</textPath></text><path d="M 110.65571695917076 118.09573695890943 l 9.55617087266991 16.228467320296005 a39.83304418604651,39.83304418604651 0 0,0 -0.5921988772825372,0.34190618121286825 l -9.276179527526974 -16.390120398785044" fill="#eab800" stroke="none" /><path d="M 110.34350942703117 118.27599006163325 l 4.276194423584754 7.555625809438446 a29.68178093023256,29.68178093023256 0 0,0 -0.44558828305397236,0.24716030933437522 l -4.145861952374688 -7.6279190342059655" fill="#f74600" stroke="none" /><path d="M 110.02825361518725 118.45085714620011 l 1.5224987924657432 2.8012262955241436 a24.18823953488372,24.18823953488372 0 0,0 -0.36652230221113563,0.1951524814766584 l -1.4741876744680538 -2.826949244723371" fill="#ff0300" stroke="none" /><path d="M 109.71004243097381 118.62028667847754 l 1.3886805891910174 2.6629781341728513 a24.003312558139534,24.003312558139534 0 0,0 -0.3669909643390057,0.18738820130564418 l -1.3427624031384295 -2.6864242871513317" fill="#ff0000" stroke="none" /><path d="M 109.3889696526874 118.78422872680471 l 1.3705886890114176 2.7420954989872386 a24.065550697674418,24.065550697674418 0 0,0 -0.37111342568123407,0.18153017323160722 l -1.323315014068114 -2.7652194223160693" fill="#ff0100" stroke="none" /><path d="M 108.4095320186766 119.2426549942271 l 2.6302512851865996 6.018529677580457 a27.568174883720932,27.568174883720932 0 0,0 -0.4352685634766352,0.18579026707949653 l -2.5265476465395333 -6.0627945943193575" fill="#fa2d00" stroke="none" /><path d="M 108.07796709384702 119.3841803445677 l 2.3540698989069084 5.648910788320413 a27.119790697674418,27.119790697674418 0 0,0 -0.43126348175892154,0.17539110360221802 l -2.256751955957546 -5.688489148501922" fill="#fb2700" stroke="none" /><path d="M 107.74402155503746 119.51999308798841 l 2.2973486382583963 5.790819307615746 a27.22987953488372,27.22987953488372 0 0,0 -0.43597337088512855,0.16864386563307887 l -2.1976030048797384 -5.8294030613868655" fill="#fb2900" stroke="none" /><path d="M 107.407793817531 119.65005319985036 l 2.196372966557479 5.826140238599729 a27.226392558139537,27.226392558139537 0 0,0 -0.438747933476084,0.16111431846453586 l -2.096035881427268 -5.862985406072986" fill="#fb2800" stroke="none" /><path d="M 107.06938296918513 119.77432235084164 l 1.2655149059520938 3.5398704242184107 a24.759283255813955,24.759283255813955 0 0,0 -0.4014472874717615,0.13964420558556465 l -1.2045618464353105 -3.5610730623725657" fill="#fe0a00" stroke="none" /><path d="M 106.0420521117495 120.11202640906438 l 0.947542714732518 3.154061525778355 a24.293317674418603,24.293317674418603 0 0,0 -0.40042327043014037,0.1165573781909408 l -0.893259431920771 -3.169862598271814" fill="#ff0400" stroke="none" /><path d="M 105.69591212413111 120.21278271476187 l 12.47139299187114 44.256574048453984 a66.98021302325581,66.98021302325581 0 0,0 -1.1093792313735489,0.3023662427011787 l -11.709832359562895 -44.46414078529931" fill="#00c61a" stroke="none" /><path d="M 104.9986988182912 120.39639698878246 l 0.7055279760945933 2.8787949044781262 a23.963988837209303,23.963988837209303 0 0,0 -0.4003901500530098,0.09449098520665444 l -0.6560056723017043 -2.890482033331006" fill="#ff0000" stroke="none" /><path d="M 104.64783097203109 120.47920084513623 l 0.7152493038312441 3.151520405033775 a24.231665581395347,24.231665581395347 0 0,0 -0.40644301550876,0.0885823635083369 l -0.6610438717033483 -3.1633342266758304" fill="#ff0300" stroke="none" /><path d="M 103.58742460773223 120.69131181640829 l 1.5748510371115052 9.083322281681898 a30.21883395348837,30.21883395348837 0 0,0 -0.5118818604171183,0.08422996533774123 l -1.4186916736413147 -9.10901824551531" fill="#f74c00" stroke="none" /><path d="M 103.2317021107853 120.74984581791261 l 0.9170353065427425 5.8880245047462765 a26.959008837209304,26.959008837209304 0 0,0 -0.4578857919015763,0.06729344324630741 l -0.8158244090334807 -5.902899021291466" fill="#fb2500" stroke="none" /><path d="M 102.51750503828377 120.84855314841334 l 0.9812824812828534 8.126426622200263 a29.18545813953488,29.18545813953488 0 0,0 -0.4979096117489561,0.05579181053653643 l -0.8416369679330981 -8.14207419324377" fill="#f84000" stroke="none" /><path d="M 101.44090949804482 120.95050786540614 l 2.012813179723446 29.265861881408455 a50.3349976744186,50.3349976744186 0 0,0 -0.8625396761208937,0.05188824504047159 l -1.510129151470087 -29.29610210427362" fill="#99dc00" stroke="none" /><path d="M 101.08105385017728 120.97215588758144 l 0.3603333496308816 6.9903707190108735 a27.999651627906978,27.999651627906978 0 0,0 -0.4802263442153876,0.02062298550739157 l -0.24028124481466442 -6.995526272944097" fill="#fa3200" stroke="none" /><line stroke="#006cb8" stroke-width="0.3" x1="101.45913802915013" x2="101.54496967792366" y1="184.9874750549273" y2="189.98673829345242" /><path d="M 101.47630435890484 185.9873277026323 a86.0,86.0 0 0,1 -42.54439059252881,-10.42667462771756" fill="none" id="id79" stroke="none" /><text fill="#006cb8" style="font-size:6.75px; font-family:Arial;" text-anchor="middle"><textPath startOffset="22.145653131862474" xlink:href="#id79">July</textPath></text><path d="M 100.36049292484886 120.99690560180557 l 0.0538410435307631 3.135970862651809 a24.136433023255815,24.136433023255815 0 0,0 -0.41433396837961495,0.003556558798441045 l -3.8410226626702905e-16 -3.1364330232558153" fill="#ff0200" stroke="none" /><path d="M 100.0 121.0 l 3.858462772296472e-16 3.150673953488372 a24.150673953488372,24.150673953488372 0 0,0 -0.4145784328840007,-0.003558657232193364 l 0.05408550803514817 -3.1502096944506137" fill="#ff0200" stroke="none" /><path d="M 99.63950707515114 120.99690560180557 l -0.051121753179507116 2.9775858323959556 a23.97802465116279,23.97802465116279 0 0,0 -0.4114933732934555,-0.01059860962855349 l 0.1022284405437065 -2.9762695054173545" fill="#ff0000" stroke="none" /><path d="M 98.55909050195518 120.95050786540614 l -1.3849961778065032 20.137540460428003 a41.18511209302325,41.18511209302325 0 0,0 -0.7049145828519012,-0.05456484690413936 l 1.7304797554336406 -20.110797846528808" fill="#e8c600" stroke="none" /><path d="M 98.19965949673042 120.92268563240118 l -0.25948265805240733 3.015581814457139 a24.02672511627907,24.02672511627907 0 0,0 -0.4106286730790847,-0.03888696226961127 l 0.3112108945165073 -3.010683096682344" fill="#ff0100" stroke="none" /><path d="M 97.84075906011543 120.88869738790638 l -0.3068723266745065 2.9687113884424563 a23.98452976744186,23.98452976744186 0 0,0 -0.40918075869815945,-0.04584955748151774 l 0.35778898697346523 -2.9630060704539676" fill="#ff0000" stroke="none" /><path d="M 97.48249496171623 120.84855314841334 l -3.9095682311971 32.37683333933948 a53.61202325581395,53.61202325581395 0 0,0 -0.9127374917742861,-0.11817214195137245 l 4.46478354486218 -32.30494960118771" fill="#73d700" stroke="none" /><path d="M 97.12497278360702 120.80226474461374 l -0.631087195105714 4.566232568050356 a25.609636744186048,25.609636744186048 0 0,0 -0.4349673562456243,-0.06392522244455887 l 0.7093796569590233 -4.554726272306915" fill="#fd1500" stroke="none" /><path d="M 96.05791012581884 120.62667999033965 l -2.3684277652399612 12.392614870047176 a33.61690744186046,33.61690744186046 0 0,0 -0.5658902345846744,-0.11319389559727121 l 2.5808144853555937 -12.350131577787042" fill="#f27400" stroke="none" /><path d="M 95.70440661134978 120.55596938700252 l -1.2543092735850352 6.002323939172746 a27.13198046511628,27.13198046511628 0 0,0 -0.45509063006520745,-0.09918488467863827 l 1.357162320269379 -5.979907596360389" fill="#fb2700" stroke="none" /><path d="M 95.35216902796893 120.47920084513623 l -1.444506954034004 6.364764168893824 a27.52662418604651,27.52662418604651 0 0,0 -0.4599146353795072,-0.10853860166693693 l 1.5535537431533992 -6.3390294235806595" fill="#fa2c00" stroke="none" /><path d="M 95.00130118170881 120.39639698878247 l -0.7604904133338483 3.1030604043919934 a24.194891162790697,24.194891162790697 0 0,0 -0.40255080491748246,-0.10232684044734759 l 0.8136465114767095 -3.089548332109383" fill="#ff0300" stroke="none" /><path d="M 94.6519064749342 120.30758222061772 l -5.397527321634942 20.495290398045793 a42.19410837209303,42.19410837209303 0 0,0 -0.6988521744186214,-0.1904752677953733 l 5.748560896988258 -20.399614636106275" fill="#e7d000" stroke="none" /><path d="M 92.25597844496254 119.51999308798841 l -4.507420352656273 11.361643753596589 a33.22308418604651,33.22308418604651 0 0,0 -0.5283190833059356,-0.21486277181924476 l 4.7017938971526485 -11.282593725198051" fill="#f36f00" stroke="none" /><line stroke="#006cb8" stroke-width="0.3" x1="58.13341422392154" x2="55.67067388415222" y1="173.97424548756322" y2="178.32567169271397" /><path d="M 57.64086615596768 174.84453072859336 a86.0,86.0 0 0,1 -31.369924170532247,-30.572349798747897" fill="none" id="id80" stroke="none" /><text fill="#006cb8" style="font-size:6.75px; font-family:Arial;" text-anchor="middle"><textPath startOffset="22.145653131862474" xlink:href="#id80">August</textPath></text><path d="M 89.65649057296885 118.27599006163327 l -7.903980701329309 13.965576554445823 a37.04712558139535,37.04712558139535 0 0,0 -0.5507805547920618,-0.31799330157361066 l 8.14255372398177 -13.827836355596041" fill="#ee9a00" stroke="none" /><path d="M 88.4268655584334 117.5232005979908 l -1.775437246107347 2.688238278900699 a24.22161488372093,24.22161488372093 0 0,0 -0.34498928190503547,-0.23212418524817727 l 1.8213228161093882 -2.6573644195954005" fill="#ff0300" stroke="none" /><line stroke="#006cb8" stroke-width="0.3" x1="26.387840678322732" x2="22.057713659400548" y1="142.50000000000003" y2="145.00000000000006" /><path d="M 25.521815274538298 143.00000000000003 a86.0,86.0 0 0,1 -11.493303480769221,-40.785679425670985" fill="none" id="id81" stroke="none" /><text fill="#006cb8" style="font-size:6.75px; font-family:Arial;" text-anchor="middle"><textPath startOffset="21.40746469413373" xlink:href="#id81">September</textPath></text><path d="M 81.81346652052679 110.50000000000001 l -7.440826182965225 4.295962999728193 a29.59192599945638,29.59192599945638 0 0,0 -0.2502161296314217,-0.4421079258122488 l 7.5134756776180245 -4.167598303816823" fill="#f84500" stroke="none" /><path d="M 81.4637452351635 109.86951160357371 l -6.941546483858455 3.6959825184940303 a28.864181735220846,28.864181735220846 0 0,0 -0.22911553290009348,-0.4393592443513206 l 7.003970085733498 -3.576277031038207" fill="#f83c00" stroke="none" /><path d="M 80.9802524753101 108.90220220490708 l -2.942611487501256 1.3772907573149122 a24.248983255813954,24.248983255813954 0 0,0 -0.17322496189722453,-0.37852780387368284 l 2.9658209142535368 -1.3265739712265405" fill="#ff0400" stroke="none" /><path d="M 79.83685265289637 105.86919833188381 l -15.922762434343191 4.634884083811127 a37.583621860465115,37.583621860465115 0 0,0 -0.174999200895964,-0.6210104274575022 l 15.99998012731373 -4.3608657324506295" fill="#eda000" stroke="none" /><path d="M 79.2786578344484 103.40968896794605 l -19.268795355413573 3.17067294309672 a40.52791953488372,40.52791953488372 0 0,0 -0.10706802393027179,-0.6874535190503255 l 19.320384871482112 -2.839431242114945" fill="#e9bf00" stroke="none" /><path d="M 79.06263194458094 101.62068470465958 l -29.616053189051105 2.292469821843559 a50.7046465116279,50.7046465116279 0 0,0 -0.059725338343963055,-0.8683933116112624 l 29.651042488560133 -1.7837330860779532" fill="#94db00" stroke="none" /><path d="M 79.01933749520258 100.90099992219065 l -14.661648020916475 0.6296342512068819 a35.67516139534884,35.67516139534884 0 0,0 -0.021023394700257235,-0.6120731981622922 l 14.67029610261358 -0.37785478848046977" fill="#ef8b00" stroke="none" /><path d="M 79.00696218219943 100.54070618675478 l -14.885713963235121 0.3834031884303226 a35.89065069767442,35.89065069767442 0 0,0 -0.010576749848140141,-0.6160426538978202 l 14.890102144681927 -0.12781361856344997" fill="#ef8d00" stroke="none" /><line stroke="#006cb8" stroke-width="0.3" x1="15.003131293944662" x2="10.003315487706104" y1="100.72959589197737" y2="100.7725132973878" /><path d="M 14.003168132696942 100.73817937305945 a86.0,86.0 0 0,1 10.791469493833604,-42.45332614584628" fill="none" id="id82" stroke="none" /><text fill="#006cb8" style="font-size:6.75px; font-family:Arial;" text-anchor="middle"><textPath startOffset="22.145653131862435" xlink:href="#id82">October</textPath></text><path d="M 79.17382384314186 97.30363454192245 l -19.7693687993171 -2.559540587623481 a40.934372093023256,40.934372093023256 0 0,0 0.0962064630552462,-0.6961020414717857 l 19.722517819706646 2.898530937295334" fill="#e8c300" stroke="none" /><path d="M 79.34024301695615 96.23510406497455 l -14.430561586166586 -2.6297290282980113 a35.66821674418605,35.66821674418605 0 0,0 0.11494287975060191,-0.6014297170929552 l 14.383292414133825 2.8770613104242813" fill="#ef8b00" stroke="none" /><path d="M 79.56144815229197 95.17655741523228 l -14.271889022036676 -3.368126948861604 a35.663938604651165,35.663938604651165 0 0,0 0.14573384694457128,-0.5946438273310619 l 14.211967648575806 3.612626600800784" fill="#ef8b00" stroke="none" /><path d="M 79.83685265289637 94.1308016681162 l -14.766992071991075 -4.298456175708163 a36.37988232558139,36.37988232558139 0 0,0 0.1796883463163911,-0.5981240644198912 l 14.691027405671052 4.551317843718778" fill="#ee9300" stroke="none" /><path d="M 79.94057633289273 93.78553927170692 l -19.188863339883802 -5.944758913578856 a41.08861953488372,41.08861953488372 0 0,0 0.2145124990965295,-0.6719573481500893 l 19.083986125010014 6.2732852954203375" fill="#e8c500" stroke="none" /><path d="M 80.05021161711548 93.44210830539832 l -14.169712997283042 -4.657866108469281 a35.91564558139535,35.91564558139535 0 0,0 0.19756098372815412,-0.5840539441059994 l 14.087666591982524 4.900421727049442" fill="#ef8d00" stroke="none" /><path d="M 80.16572619554312 93.10060997987247 l -17.945608126578357 -6.2424140573179105 a40.0003311627907,40.0003311627907 0 0,0 0.23116349467153513,-0.6466054363311586 l 17.835804461862878 6.549554450029991" fill="#eab900" stroke="none" /><path d="M 80.41425534168474 92.42381321644754 l -27.354334625724903 -10.581244271266574 a50.32954744186047,50.32954744186047 0 0,0 0.31861317739408956,-0.8031133405651509 l 27.16866277336468 11.049258629045307" fill="#99dc00" stroke="none" /><path d="M 80.5471966667186 92.08871423366112 l -13.58901363120558 -5.526533542608271 a35.66982837209302,35.66982837209302 0 0,0 0.23554682500136936,-0.5652266321924859 l 13.492140961667733 5.7589926842420205" fill="#ef8b00" stroke="none" /><path d="M 80.83023694016515 91.42560881287825 l -13.534664091610127 -6.0538830942000565 a35.8268888372093,35.8268888372093 0 0,0 0.25593285245203357,-0.5592594711336862 l 13.428746774303047 6.285331547548414" fill="#ef8c00" stroke="none" /><path d="M 81.29705330413844 90.45014215332179 l -29.589375228644165 -15.108545824391372 a54.223474883720925,54.223474883720925 0 0,0 0.4304102731074422,-0.8253684504052814 l 29.325656886561784 15.61426051790114" fill="#6cd700" stroke="none" /><line stroke="#006cb8" stroke-width="0.3" x1="26.387840678322718" x2="22.05771365940052" y1="57.49999999999999" y2="54.99999999999999" /><path d="M 25.521815274538284 56.99999999999999 a86.0,86.0 0 0,1 29.574782752854787,-30.34633250058573" fill="none" id="id83" stroke="none" /><text fill="#006cb8" style="font-size:6.75px; font-family:Arial;" text-anchor="middle"><textPath startOffset="21.40746469413373" xlink:href="#id83">November</textPath></text><path d="M 82.18462484594161 88.88188828441811 l -16.07634595239223 -10.032828875698552 a39.95010697674419,39.95010697674419 0 0,0 0.3680780436977669,-0.5786798208309412 l 15.901750217068573 10.307322371208166" fill="#eab900" stroke="none" /><path d="M 82.576782715395 88.27688183743585 l -51.54548621671288 -34.68210352856461 a83.12717162790699,83.12717162790699 0 0,0 0.8067700346324924,-1.177101591143393 l 50.942526445265074 35.561839854778036" fill="#00b0a4" stroke="none" /><path d="M 83.64595745247003 86.82634096563983 l -11.44265734190711 -9.217394771427294 a35.69335813953488,35.69335813953488 0 0,0 0.38846812070692555,-0.4738679432295644 l 11.282742401961555 9.412464996355352" fill="#ef8b00" stroke="none" /><path d="M 83.8745106332314 86.54754324733833 l -11.272527091953398 -9.403943021426457 a35.68005488372093,35.68005488372093 0 0,0 0.3963976561303153,-0.46695544219378243 l 11.109434872315967 9.596065246069797" fill="#ef8b00" stroke="none" /><path d="M 84.10781606972428 86.27271002978789 l -7.515044194954591 -6.4913161876116785 a30.930411627906977,30.930411627906977 0 0,0 0.3505283692689695,-0.3988369386228479 l 7.4025047617270285 6.619365404045826" fill="#f65500" stroke="none" /><path d="M 84.34580500576568 86.00192230759919 l -13.96863864950629 -12.490842815288822 a39.738837209302325,39.738837209302325 0 0,0 0.4590825368022645,-0.5046121273691485 l 13.75215841186216 12.728792518215629" fill="#eab700" stroke="none" /><path d="M 84.58840730492382 85.73525988315684 l -10.76208004717262 -9.961220623137017 a35.66452465116279,35.66452465116279 0 0,0 0.4197275814335151,-0.44573614627224667 l 10.589496632002835 10.144498229353774" fill="#ef8b00" stroke="none" /><path d="M 85.08716467003674 85.21462403516908 l -44.69364263225524 -44.3116479820553 a83.93682418604651,83.93682418604651 0 0,0 1.0232621519170244,-1.0145163741114267 l 43.92638856020824 45.0723443663954" fill="#00afaa" stroke="none" /><path d="M 85.60350026404147 84.71141617570332 l -2.056603599722369 -2.1840417535083754 a23.999942790697673,23.999942790697673 0 0,0 0.30236525488509153,-0.2798647658704919 l 2.0188085735233243 2.2190242655112327" fill="#ff0000" stroke="none" /><path d="M 87.54013794807813 83.09580414077388 l -8.880589921324718 -12.04822579495471 a35.967452093023255,35.967452093023255 0 0,0 0.5001513818870174,-0.36207102991146844 l 8.672457529063733 12.19889759623926" fill="#ef8e00" stroke="none" /><path d="M 88.12776184653039 82.6780497279521 l -8.498462822613892 -12.399511237832128 a36.032356744186046,36.032356744186046 0 0,0 0.5132100786095013,-0.3453106447265691 l 8.284356455907401 12.543571556615806" fill="#ef8f00" stroke="none" /><path d="M 89.03521579738668 82.08984904055464 l -10.579772380012349 -17.281263081988442 a41.26261674418605,41.26261674418605 0 0,0 0.6072820578263162,-0.3646554270939481 l 10.2815575656286 17.46033250961831" fill="#e8c700" stroke="none" /><line stroke="#006cb8" stroke-width="0.3" x1="56.869717070023135" x2="54.33264160355391" y1="26.7553504044142" y2="22.446841604673864" /><path d="M 56.362301976729285 25.89364864446614 a86.0,86.0 0 0,1 42.16139366436587,-11.88097634709845" fill="none" id="id84" stroke="none" /><text fill="#006cb8" style="font-size:6.75px; font-family:Arial;" text-anchor="middle"><textPath startOffset="22.145653131862474" xlink:href="#id84">December</textPath></text><path d="M 89.65649057296885 81.72400993836675 l -11.795584200678578 -20.84166705155077 a44.948087441860466,44.948087441860466 0 0,0 0.6747688474911528,-0.37428290513400764 l 11.436071165031322 21.041082872117922" fill="#dae300" stroke="none" /><path d="M 91.5904679813234 80.7573450057729 l -11.74204572139679 -26.86809851505105 a50.321840930232554,50.321840930232554 0 0,0 0.7945217812056228,-0.3391341032111862 l 11.279088865020737 27.06570726792164" fill="#99dc00" stroke="none" /></svg>