<?xml version="1.0" encoding="utf-8" ?>
<svg baseProfile="full" height="200mm" version="1.1" viewBox="0,0,200,200" width="200mm" xmlns="http://www.w3.org/2000/svg" xmlns:ev="http://www.w3.org/2001/xml-events" xmlns:xlink="http://www.w3.org/1999/xlink"><defs /><rect fill="#1a1a1a" height="200" width="200" x="0" y="0" /><text alignment-baseline="middle" fill="#e1ed5e" style="dominant-baseline: central; font-size:9.0px; font-family:Arial;" text-anchor="middle" x="100.0" y="100.0">2021</text><line stroke="#e1ed5e" stroke-width="0.3" x1="100.0" x2="100.0" y1="15.0" y2="10.0" /><path d="M 100.0 14.0 a86.0,86.0 0 0,1 42.46469731375804,11.215312516191453" fill="none" id="id85" stroke="none" /><text fill="#e1ed5e" style="font-size:6.75px; font-family:Arial;" text-anchor="middle"><textPath startOffset="22.20632615414155" xlink:href="#id85">January</textPath></text><path d="M 105.36241919743992 79.69619591428918 l 4.390458207762272 -16.623654364706145 a38.19366184706797,38.19366184706797 0 0,0 0.6342005002070679,0.17335095376927903 l -4.675956597193051 16.545616870110575" fill="#ff870c" stroke="none" /><line stroke="#e1ed5e" stroke-width="0.3" x1="143.23703022742887" x2="145.7803849466894" y1="26.81831364943548" y2="22.513508569990506" /><path d="M 143.74570117128098 25.957352633546492 a86.0,86.0 0 0,1 28.547481713284135,27.462654790039103" fill="none" id="id86" stroke="none" /><text fill="#e1ed5e" style="font-size:6.75px; font-family:Arial;" text-anchor="middle"><textPath startOffset="19.985693538727396" xlink:href="#id86">February</textPath></text><path d="M 115.4437574822437 85.77008943001954 l 38.050821707002335 -35.060107012652374 a72.74046903842984,72.74046903842984 0 0,0 0.8405208284165411,0.9281240919787115 l -38.648686176034914 34.39993013340411" fill="#3dffad" stroke="none" /><path d="M 115.9244219780498 86.31012108654704 l 38.90676077196575 -33.44729526868023 a72.30748088297896,72.30748088297896 0 0,0 0.8032651359753411,0.9508125581285289 l -39.47673652142821 32.77262376092259" fill="#3cffa8" stroke="none" /><path d="M 116.15771136456269 86.58626213691792 l 39.37211149863474 -32.68576661896692 a72.17150088995336,72.17150088995336 0 0,0 0.7852998467839593,0.9626847572580464 l -39.928909837495105 32.00319769210077" fill="#3cffa6" stroke="none" /><path d="M 117.04232023915458 87.72973835380427 l 21.076616756485393 -15.174905681240634 a46.97116740414859,46.97116740414859 0 0,0 0.46677570811071517,0.6602211364849401 l -21.33470508439999 14.809858044423901" fill="#f7ff18" stroke="none" /><line stroke="#e1ed5e" stroke-width="0.3" x1="172.23445277983987" x2="176.4835382374775" y1="55.19839476539836" y2="52.563006222186495" /><path d="M 173.08426987136738 54.67131705675599 a86.0,86.0 0 0,1 12.851231095245387,41.99856678651699" fill="none" id="id87" stroke="none" /><text fill="#e1ed5e" style="font-size:6.75px; font-family:Arial;" text-anchor="middle"><textPath startOffset="22.20632615414155" xlink:href="#id87">March</textPath></text><path d="M 118.21658344932153 89.55222093294921 l 22.915000317538524 -13.142467757748394 a47.41631500259351,47.41631500259351 0 0,0 0.3999732324181148,0.7115077502592114 l -23.13783119124907 12.74607649755439" fill="#f1ff19" stroke="none" /><line stroke="#e1ed5e" stroke-width="0.3" x1="184.98032266829074" x2="189.97916517819016" y1="98.17113171792111" y2="98.06355123074" /><path d="M 185.9800911702706 98.14961562048488 a86.0,86.0 0 0,1 -9.607161424134198,41.387399972396054" fill="none" id="id88" stroke="none" /><text fill="#e1ed5e" style="font-size:6.75px; font-family:Arial;" text-anchor="middle"><textPath startOffset="21.466115282336823" xlink:href="#id88">April</textPath></text><path d="M 120.64145759157962 103.86396538481128 l 25.35555755165389 4.7464185248307045 a46.79598394262349,46.79598394262349 0 0,0 -0.15502855901705054,0.790487282475931 l -25.270099059661177 -5.18216953437458" fill="#faff18" stroke="none" /><path d="M 120.49622156327973 104.57218783832717 l 25.759862578209308 5.746372814786314 a47.39301651147029,47.39301651147029 0 0,0 -0.18447039754721653,0.7946936445945555 l -25.65713161473154 -6.188935116729434" fill="#f1ff19" stroke="none" /><path d="M 120.32669344350535 105.2749913415812 l 24.21473832359221 6.283979996580102 a46.01683346623757,46.01683346623757 0 0,0 -0.20556798419656333,0.7649949423625905 l -24.10298226305387 -6.699865872118241" fill="#fffa17" stroke="none" /><path d="M 120.02730092923936 106.31721596034902 l 38.973397577936375 12.293387415421353 a61.86628308169875,61.86628308169875 0 0,0 -0.329092534335629,1.0128426751320545 l -38.7560127925845 -12.962428990531203" fill="#3dff2e" stroke="none" /><path d="M 119.54520255179757 107.68017299344265 l 48.49312851713643 19.055091141565164 a73.10259121956283,73.10259121956283 0 0,0 -0.4702842364177826,1.1672069070594193 l -48.15794166646125 -19.8869974164674" fill="#3effb2" stroke="none" /><path d="M 119.26925614724726 108.34839909993367 l 47.05332864271718 20.38583967580192 a72.27960799038004,72.27960799038004 0 0,0 -0.5044390925294724,1.1373769856227385 l -46.69544846545644 -21.192764997917344" fill="#3cffa7" stroke="none" /><path d="M 118.81262510543309 109.33194174019688 l 22.854913665671337 11.337105885540602 a46.512292106458204,46.512292106458204 0 0,0 -0.36195717368223895,0.7141758425610222 l -22.656377822202828 -11.728835939804318" fill="#feff18" stroke="none" /><line stroke="#e1ed5e" stroke-width="0.3" x1="174.80103733775053" x2="179.2010983576182" y1="140.37084112569926" y2="142.7455964860345" /><path d="M 175.68104954172406 140.8457921977663 a86.0,86.0 0 0,1 -30.038265399797805,32.042727171017184" fill="none" id="id89" stroke="none" /><text fill="#e1ed5e" style="font-size:6.75px; font-family:Arial;" text-anchor="middle"><textPath startOffset="22.206326154141568" xlink:href="#id89">May</textPath></text><path d="M 116.71984013943494 112.70617746262583 l 47.084859298984846 35.78195563273421 a80.13824755695893,80.13824755695893 0 0,0 -0.8440968590328618,1.0911089757016392 l -46.46195562273392 -36.5871426025491" fill="#48fbff" stroke="none" /><path d="M 116.498646956653 112.99209946851258 l 20.715070148771698 16.31238322616093 a47.36679688141259,47.36679688141259 0 0,0 -0.509942111343971,0.636231191085668 l -20.43121012537287 -16.666542250824847" fill="#f2ff19" stroke="none" /><path d="M 116.0416608686014 113.55231037782055 l 19.92562756700149 16.833561778469704 a47.08446733380626,47.08446733380626 0 0,0 -0.528371781432449,0.6146157509512975 l -19.632913275998263 -17.174054628582528" fill="#f6ff19" stroke="none" /><path d="M 115.07121518719521 114.62390073753431 l 22.515977843849537 21.84770245180581 a52.373418058722336,52.373418058722336 0 0,0 -0.6333676435189642,0.641598078968145 l -22.136569575275036 -22.23204102475462" fill="#afff20" stroke="none" /><path d="M 112.34349029814194 116.9893568818739 l 25.556142229872425 35.17501212218625 a64.47870609240135,64.47870609240135 0 0,0 -0.9035391018408262,0.6446511587123697 l -24.946875800182713 -35.609707542742846" fill="#31ff42" stroke="none" /><path d="M 111.45004920935366 117.60387380957326 l 29.10627061728454 44.749424709493454 a74.38245030979024,74.38245030979024 0 0,0 -1.0793183913206201,0.6888720635230576 l -28.33167042391699 -45.24381120184032" fill="#3fffc1" stroke="none" /><line stroke="#e1ed5e" stroke-width="0.3" x1="143.8653032363475" x2="146.44561519142675" y1="172.8068346515853" y2="177.08958963109032" /><path d="M 144.38136562736335 173.6633856474863 a86.0,86.0 0 0,1 -40.68145358897372,12.25698825130547" fill="none" id="id90" stroke="none" /><text fill="#e1ed5e" style="font-size:6.75px; font-family:Arial;" text-anchor="middle"><textPath startOffset="21.466115282336833" xlink:href="#id90">June</textPath></text><path d="M 109.89434966115114 118.52300852407294 l 24.185459628505274 45.27710159833836 a72.33178729197253,72.33178729197253 0 0,0 -1.1032633098160578,0.5771752202515709 l -23.40250541616272 -45.68670623753464" fill="#3cffa8" stroke="none" /><path d="M 108.2653958097858 119.30500536409082 l 14.477681472812948 33.81468049737539 a57.783636007983375,57.783636007983375 0 0,0 -0.9177377039367928,0.383614434676311 l -13.893472309378694 -34.058879975071676" fill="#6cff28" stroke="none" /><path d="M 107.59598834532513 119.57807347666477 l 14.981816252549466 38.61447465053335 a62.41898683891046,62.41898683891046 0 0,0 -1.0050342019146719,0.38001793780599424 l -14.314911829874518 -38.86664083844598" fill="#37ff2e" stroke="none" /><path d="M 101.26447882468166 120.96189622390904 l 3.0917777947748557 51.253942744175944 a72.34711030579548,72.34711030579548 0 0,0 -1.2437223826761088,0.0642862408810685 l -2.209067343685267 -51.29956879181921" fill="#3cffa8" stroke="none" /><path d="M 100.90346689309514 120.98055641714683 l 1.8454145270289781 42.85472317055508 a63.894438483345134,63.894438483345134 0 0,0 -1.0992266792956424,0.03785958940475305 l -1.1074674960586832 -42.88013955838593" fill="#30ff3a" stroke="none" /><line stroke="#e1ed5e" stroke-width="0.3" x1="102.19456741930631" x2="102.32365962044197" y1="184.97166512339345" y2="189.96999836594603" /><path d="M 102.22038585953345 185.97133177190398 a86.0,86.0 0 0,1 -42.740103519485714,-10.115201625700543" fill="none" id="id91" stroke="none" /><text fill="#e1ed5e" style="font-size:6.75px; font-family:Arial;" text-anchor="middle"><textPath startOffset="22.20632615414155" xlink:href="#id91">July</textPath></text><path d="M 100.54218724476979 120.99299961872073 l 1.626561734309384 62.97899885616221 a84.0,84.0 0 0,0 -1.4457612404293283,0.02489009088336136 l -0.5422408039873879 -62.99766642432473" fill="#4dd2ff" stroke="none" /><path d="M 99.45781275523022 120.99299961872073 l -0.2253101394365657 8.72380476839534 a29.726713831449395,29.726713831449395 0 0,0 -0.5114122247092648,-0.017614071063550035 l 0.37544271582047356 -8.718633898905695" fill="#ff0000" stroke="none" /><line stroke="#e1ed5e" stroke-width="0.3" x1="58.666819895761336" x2="56.23545636021788" y1="174.27360380694188" y2="178.64263932499728" /><path d="M 58.180547188652646 175.14741091055294 a86.0,86.0 0 0,1 -31.652253787137756,-30.449443065178592" fill="none" id="id92" stroke="none" /><text fill="#e1ed5e" style="font-size:6.75px; font-family:Arial;" text-anchor="middle"><textPath startOffset="22.20632615414155" xlink:href="#id92">August</textPath></text><line stroke="#e1ed5e" stroke-width="0.3" x1="26.63291911575756" x2="22.317208475507996" y1="142.92168965132927" y2="145.44649492493687" /><path d="M 25.769776987707644 143.4266507060508 a86.0,86.0 0 0,1 -11.730757126820373,-40.83630448921669" fill="none" id="id93" stroke="none" /><text fill="#e1ed5e" style="font-size:6.75px; font-family:Arial;" text-anchor="middle"><textPath startOffset="21.46611528233685" xlink:href="#id93">September</textPath></text><path d="M 79.4281124754447 104.21870165774334 l -30.230561908926443 6.199417602661505 a51.859676795806266,51.859676795806266 0 0,0 -0.1718038662164056,-0.8760242124764182 l 30.332795708118518 -5.678129663117132" fill="#b6ff1f" stroke="none" /><line stroke="#e1ed5e" stroke-width="0.3" x1="15.007084014347285" x2="10.007500721073583" y1="101.09737516637583" y2="101.16192664675087" /><path d="M 14.007167355692545 101.11028546245083 a86.0,86.0 0 0,1 10.666146001902534,-42.60595125391555" fill="none" id="id94" stroke="none" /><text fill="#e1ed5e" style="font-size:6.75px; font-family:Arial;" text-anchor="middle"><textPath startOffset="22.20632615414155" xlink:href="#id94">October</textPath></text><path d="M 79.00019446554 99.90962569577889 l -30.20800144999242 -0.13000249495043043 a51.20828118664545,51.20828118664545 0 0,0 0.011380413514861664,-0.8814255683817332 l 30.20128802935984 0.6499643213926357" fill="#beff1e" stroke="none" /><path d="M 79.00486145842228 99.54816195383935 l -10.429431753727423 -0.22445263015710976 a31.431846705585848,31.431846705585848 0 0,0 0.01629712146446404,-0.5408221207756909 l 10.424022937807313 0.40394489835779507" fill="#ff1c02" stroke="none" /><path d="M 79.01574976396665 99.18683210126434 l -25.744171010672495 -0.9976212259179148 a46.76349334110481,46.76349334110481 0 0,0 0.03809307797443375,-0.8040846695705628 l 25.72318432446456 1.4406170021114868" fill="#faff18" stroke="none" /><path d="M 79.08570108090925 98.10471618934814 l -22.70734829547639 -2.057772520787916 a43.800396802673944,43.800396802673944 0 0,0 0.07450838428811592,-0.7502892616560597 l 22.668562785506044 2.448337313148406" fill="#ffda14" stroke="none" /><path d="M 80.38941819471856 92.48833698450439 l -46.89872028542067 -17.964147425100464 a71.22151488277581,71.22151488277581 0 0,0 0.44837826927143304,-1.1410737883400532 l 46.582548466267546 18.76877021833628" fill="#3bff9a" stroke="none" /><line stroke="#e1ed5e" stroke-width="0.3" x1="26.266209847984243" x2="21.928928074336255" y1="57.711370442889674" y2="55.22380399835377" /><path d="M 25.398753493254645 57.213857153982495 a86.0,86.0 0 0,1 29.58750427330803,-30.492523968695096" fill="none" id="id95" stroke="none" /><text fill="#e1ed5e" style="font-size:6.75px; font-family:Arial;" text-anchor="middle"><textPath startOffset="21.46611528233685" xlink:href="#id95">November</textPath></text><line stroke="#e1ed5e" stroke-width="0.3" x1="56.762969772571076" x2="54.21961505331055" y1="26.818313649435495" y2="22.513508569990535" /><path d="M 56.25429882871897 25.957352633546506 a86.0,86.0 0 0,1 42.265352541879196,-11.944610805530505" fill="none" id="id96" stroke="none" /><text fill="#e1ed5e" style="font-size:6.75px; font-family:Arial;" text-anchor="middle"><textPath startOffset="22.20632615414155" xlink:href="#id96">December</textPath></text><path d="M 94.28887869178378 79.79150937346287 l -4.44877843634841 -15.741759363638348 a37.3583195175548,37.3583195175548 0 0,0 0.6203297557536173,-0.16955955533974523 l 4.17715079137107 15.816005459804389" fill="#ff7b0b" stroke="none" /></svg>