<?xml version="1.0" encoding="utf-8" ?>
<svg baseProfile="full" height="200mm" version="1.1" viewBox="0,0,200,200" width="200mm" xmlns="http://www.w3.org/2000/svg" xmlns:ev="http://www.w3.org/2001/xml-events" xmlns:xlink="http://www.w3.org/1999/xlink"><defs /><rect fill="#f5f5f5" height="200" rx="1" ry="1" width="200" x="0" y="0" /><text alignment-baseline="middle" fill="#006cb8" style="dominant-baseline: central; font-size:9.0px; font-family:Arial;" text-anchor="middle" x="100.0" y="100.0">2025</text><line stroke="#006cb8" stroke-width="0.3" x1="100.0" x2="100.0" y1="15.0" y2="10.0" /><path d="M 100.0 14.0 a86.0,86.0 0 0,1 42.46469731375804,11.215312516191453" fill="none" id="id133" stroke="none" /><text fill="#006cb8" style="font-size:6.75px; font-family:Arial;" text-anchor="middle"><textPath startOffset="22.20632615414155" xlink:href="#id133">一月</textPath></text><path d="M 100.72285384407766 79.0124445844662 l 0.3035234778284886 -8.812591733490953 a29.8178171654206,29.8178171654206 0 0,0 0.512808477496686,0.022082611762294323 l -0.45517278771450614 8.806061395204464" fill="#f55c00" stroke="none" /><path d="M 101.80526077348638 79.07773832637324 l 0.7551619460902276 -8.752029664696089 a29.784548526620085,29.784548526620085 0 0,0 0.5104147912234218,0.048470034655166305 l -0.9057018644038936 8.737734085525744" fill="#f55b00" stroke="none" /><path d="M 102.88285421437855 79.19881850522331 l 1.2454579572567357 -8.98657895491111 a30.07247302757883,30.07247302757883 0 0,0 0.5121356757087984,0.07547548587970905 l -1.3999626133941898 8.963808984870433" fill="#f55f00" stroke="none" /><path d="M 103.95276090670814 79.375362276772 l 9.393531096098426 -49.01338086756498 a70.90540983222513,70.90540983222513 0 0,0 1.1967266188114547,0.24005210151406775 l -10.235824124377007 48.8444248099737" fill="#00c042" stroke="none" /><path d="M 108.76106565485865 80.91482961587045 l 6.476094150298613 -14.10757151597991 a36.52299486317056,36.52299486317056 0 0,0 0.5691009384677269,0.26720052142106154 l -6.717973300065938 13.994006011918843" fill="#eca400" stroke="none" /><line stroke="#006cb8" stroke-width="0.3" x1="143.23703022742887" x2="145.7803849466894" y1="26.81831364943548" y2="22.513508569990506" /><path d="M 143.74570117128098 25.957352633546492 a86.0,86.0 0 0,1 28.547481713284135,27.462654790039103" fill="none" id="id134" stroke="none" /><text fill="#006cb8" style="font-size:6.75px; font-family:Arial;" text-anchor="middle"><textPath startOffset="19.985693538727396" xlink:href="#id134">二月</textPath></text><path d="M 113.6212207817346 84.01681056812373 l 5.73665514211688 -6.7314117663192885 a29.8442702687852,29.8442702687852 0 0,0 0.38812644215558284,0.3365794259758501 l -5.851675382919227 6.631667346923767" fill="#f55c00" stroke="none" /><path d="M 114.16331599549186 84.49514656593476 l 3.055326854579163 -3.344724857405708 a25.530144209631768,25.530144209631768 0 0,0 0.3219133767757683,0.2991834003258786 l -3.1124481151497783 3.291636871005189" fill="#fa2a00" stroke="none" /><path d="M 114.42810811169701 84.74124197986012 l 2.9944221950170897 -3.16681600457787 a25.358358393806263,25.358358393806263 0 0,0 0.31458463219372457,0.30263016692528555 l -3.0484900708232328 3.1148027508902825" fill="#fb2800" stroke="none" /><path d="M 115.4437574822437 85.77008943001954 l 6.557133307162453 -6.041756396630888 a29.916210942105927,29.916210942105927 0 0,0 0.3456837539892449,0.3817126351139763 l -6.660160701767734 5.927990974247362" fill="#f55d00" stroke="none" /><path d="M 115.9244219780498 86.31012108654704 l 6.628940551784596 -5.698755885990585 a29.74177736431251,29.74177736431251 0 0,0 0.33040195214872425,0.391091697203739 l -6.726053117420437 5.58380523915774" fill="#f55b00" stroke="none" /><path d="M 116.38621287248628 86.86637796730983 l 38.485809355598064 -30.846546278383787 a70.32207354785393,70.32207354785393 0 0,0 0.7489164187213654,0.9510477981230648 l -39.0110798549134 30.179506086307683" fill="#00c13d" stroke="none" /><line stroke="#006cb8" stroke-width="0.3" x1="172.23445277983987" x2="176.4835382374775" y1="55.19839476539836" y2="52.563006222186495" /><path d="M 173.08426987136738 54.67131705675599 a86.0,86.0 0 0,1 12.851231095245387,41.99856678651699" fill="none" id="id135" stroke="none" /><text fill="#006cb8" style="font-size:6.75px; font-family:Arial;" text-anchor="middle"><textPath startOffset="22.20632615414155" xlink:href="#id135">三月</textPath></text><path d="M 119.47837535516314 92.15188598940014 l 8.261293293948189 -3.328592373014488 a29.906654482706934,29.906654482706934 0 0,0 0.18827869638443878,0.47914874575927136 l -8.317365540214327 3.185894622359432" fill="#f55d00" stroke="none" /><path d="M 119.7369772167798 92.82701384747503 l 8.211353359710099 -2.984242384016885 a29.736820165517035,29.736820165517035 0 0,0 0.17069914559360988,0.48258947118729134 l -8.261505586113518 2.8424552864029793" fill="#f55b00" stroke="none" /><path d="M 120.08093135843002 93.85539295169968 l 1.8026813761615366 -0.5516063220420222 a22.885186908101257,22.885186908101257 0 0,0 0.11202201226901354,0.377682536245759 l -1.8119092855422523 0.5204943990497333" fill="#fe0b00" stroke="none" /><path d="M 120.18372546131832 94.20196356495316 l 8.37900831274956 -2.406978611554558 a29.71787395765776,29.71787395765776 0 0,0 0.13700396903536305,0.49287617075583307 l -8.419199052351287 2.2623911373797734" fill="#f55b00" stroke="none" /><path d="M 120.37134235888165 94.90015583598534 l 8.61394916325153 -2.156450841354317 a29.87977479546973,29.87977479546973 0 0,0 0.12061070658330074,0.5000092446580529 l -8.64979267009565 2.007856365036858" fill="#f55c00" stroke="none" /><path d="M 120.53481517161879 95.60439243477599 l 53.45778323631783 -11.442977910920273 a75.66878754838956,75.66878754838956 0 0,0 0.26167241090583643,1.2760076066420785 l -53.646834943138664 10.521094648114783" fill="#00ba6a" stroke="none" /><path d="M 120.6074358757038 95.95851677861258 l 17.383005473244925 -3.409115300959581 a38.71414537645268,38.71414537645268 0 0,0 0.12262111210301038,0.6550468840264286 l -17.439112309257794 3.1093903394705897" fill="#e9bb00" stroke="none" /><path d="M 120.67395015179393 96.31383870115 l 8.824638033481666 -1.5734312483363118 a29.963811818373493,29.963811818373493 0 0,0 0.08616470559380554,0.5085489699189605 l -8.850414600595693 1.4212964901015135" fill="#f55d00" stroke="none" /><path d="M 120.73433829027371 96.67025291283417 l 11.76969800344494 -1.8901069855784114 a32.92049896225943,32.92049896225943 0 0,0 0.08503538351143895,0.5602769309336695 l -11.80048928039568 1.6872309422526597" fill="#f17e00" stroke="none" /><path d="M 120.87857604477298 97.74499172005257 l 0.9912840611769184 -0.10706447417392205 a21.99704909185734,21.99704909185734 0 0,0 0.03741894381286979,0.37680365764937485 l -0.9929801306720168 0.08998528582011224" fill="#ff0000" stroke="none" /><path d="M 120.96714384426684 98.82574320788733 l 1.0511128389978972 -0.058867168539390974 a22.052759964967354,22.052759964967354 0 0,0 0.017963959594923626,0.37919079484088936 l -1.0519704068263174 0.040765267075501856" fill="#ff0100" stroke="none" /><line stroke="#006cb8" stroke-width="0.3" x1="184.98032266829074" x2="189.97916517819016" y1="98.17113171792111" y2="98.06355123074" /><path d="M 185.9800911702706 98.14961562048488 a86.0,86.0 0 0,1 -9.607161424134198,41.387399972396054" fill="none" id="id136" stroke="none" /><text fill="#006cb8" style="font-size:6.75px; font-family:Arial;" text-anchor="middle"><textPath startOffset="21.466115282336823" xlink:href="#id136">四月</textPath></text><path d="M 120.99513854157772 99.54816195383933 l 8.962962245636877 -0.19289262325468157 a29.965037634099374,29.965037634099374 0 0,0 0.0066593627312251154,0.5157749824086009 l -8.964954615485818 0.03858138278561795" fill="#f55d00" stroke="none" /><path d="M 120.99824983174949 100.27111621757518 l 8.835139488911706 0.11407377372761382 a29.83587588269434,29.83587588269434 0 0,0 -0.011050551064452116,0.5134756856584681 l -8.831866875162246 -0.2661392751761968" fill="#f55c00" stroke="none" /><path d="M 120.9764740272857 100.99374915477107 l 2.463578236826676 0.11671069157639956 a23.466341240480375,23.466341240480375 0 0,0 -0.022587637513741463,0.4033174413244693 l -2.4612042484254055 -0.15909984923629217" fill="#fd1200" stroke="none" /><path d="M 120.89721153311464 102.0752229133903 l 8.872646931591078 0.8811089549283802 a29.916289394312386,29.916289394312386 0 0,0 -0.05529911913884273,0.5120011639940417 l -8.856165510951183 -1.0337064408072134" fill="#f55d00" stroke="none" /><path d="M 120.81339534386255 102.79330883721812 l 8.768027880785766 1.1767330298463692 a29.846638544767607,29.846638544767607 0 0,0 -0.07272055167178663,0.5086073690194826 l -8.746473278097378 -1.3274858708462611" fill="#f55c00" stroke="none" /><path d="M 120.64145759157962 103.86396538481128 l 48.49298364705577 9.077615250140084 a70.33530745443059,70.33530745443059 0 0,0 -0.23301105018009557,1.1881183248530904 l -48.329542663900014 -9.91099730206112" fill="#00c13d" stroke="none" /><path d="M 120.41448212921028 104.9243191809786 l 8.552050637144733 2.06289959856166 a29.797336236272518,29.797336236272518 0 0,0 -0.12456518979478677,0.4975760132464738 l -8.515274133054886 -2.20980345120553" fill="#f55c00" stroke="none" /><path d="M 120.02730092923936 106.31721596034902 l 3.689387763919395 1.1637443981340911 a24.868576365634603,24.868576365634603 0 0,0 -0.1322863183921716,0.4071354243091133 l -3.668809194510976 -1.2270787224209996" fill="#fb2300" stroke="none" /><path d="M 119.9155931802556 106.66101706037122 l 2.4319845987594633 0.8134074017417211 a23.564406498551165,23.564406498551165 0 0,0 -0.1319709651243112,0.3835693988906985 l -2.4176228026919215 -0.8551495037217199" fill="#fd1300" stroke="none" /><path d="M 119.79798401119884 107.00284435728193 l 8.357250523120358 2.9560850556864824 a29.864653132675212,29.864653132675212 0 0,0 -0.17559810073236393,0.4831705568321024 l -8.305128161382767 -3.099503409524716" fill="#f55c00" stroke="none" /><path d="M 119.54520255179757 107.68017299344265 l 8.190342009161276 3.2183469748710296 a29.79996928845172,29.79996928845172 0 0,0 -0.19170942600380095,0.4758070733658383 l -8.133729968900083 -3.3588534160796812" fill="#f55c00" stroke="none" /><path d="M 118.97047184881838 109.00673069616215 l 8.11417478599459 3.852417994737151 a29.98225789341661,29.98225789341661 0 0,0 -0.2253619889435042,0.46431244723982745 l -8.046659540436373 -3.9915193979422536" fill="#f55e00" stroke="none" /><path d="M 118.64920377521936 109.65438752849418 l 2.2337961839743627 1.156399719778724 a23.51537386951577,23.51537386951577 0 0,0 -0.1891839730194562,0.35786478111110037 l -2.213559702730014 -1.1946795159759587" fill="#fd1200" stroke="none" /><line stroke="#006cb8" stroke-width="0.3" x1="174.80103733775053" x2="179.2010983576182" y1="140.37084112569926" y2="142.7455964860345" /><path d="M 175.68104954172406 140.8457921977663 a86.0,86.0 0 0,1 -30.038265399797805,32.042727171017184" fill="none" id="id137" stroke="none" /><text fill="#006cb8" style="font-size:6.75px; font-family:Arial;" text-anchor="middle"><textPath startOffset="22.206326154141568" xlink:href="#id137">五月</textPath></text><path d="M 117.94076556474637 110.91462005526583 l 53.8222966942391 32.74386016579747 a84.0,84.0 0 0,0 -0.7621414413281484,1.228814674538906 l -53.25069061324299 -33.665471171701654" fill="#00afaa" stroke="none" /><path d="M 116.27256486870786 113.27417163493432 l 6.846589239991031 5.585032317818755 a29.835630719549165,29.835630719549165 0 0,0 -0.3280555466115705,0.3951640391215798 l -6.749437693485917 -5.702057614054106" fill="#f55c00" stroke="none" /><path d="M 115.56566222782051 114.09645910891815 l 5.9206842442280445 5.361845973787567 a28.98773398195459,28.98773398195459 0 0,0 -0.33812616966401193,0.3669691764407302 l -5.82751166656831 -5.462966405029632" fill="#f65200" stroke="none" /><path d="M 115.07121518719521 114.62390073753431 l 1.5742976170655898 1.5275723820109908 a23.19360214473389,23.19360214473389 0 0,0 -0.280487271589867,0.28413212526491605 l -1.547769720420187 -1.5544450012565714" fill="#fd0f00" stroke="none" /><path d="M 114.29624159901734 115.38237550388516 l 6.003119046453585 6.459196336848508 a29.8180868448803,29.8180868448803 0 0,0 -0.37897432442546325,0.34618405996815577 l -5.891045172561258 -6.561573163403247" fill="#f55c00" stroke="none" /><path d="M 113.75828350139079 115.86535959552629 l 9.04847111871266 10.434241166319806 a34.81116281502394,34.81116281502394 0 0,0 -0.4560834614719251,0.3886842203857627 l -8.867522180663688 -10.588449776928515" fill="#ee9200" stroke="none" /><path d="M 112.34349029814194 116.9893568818739 l 9.909795309778032 13.63966309994851 a37.85955078173187,37.85955078173187 0 0,0 -0.5305252940467184,0.3785157109821324 l -9.673542687882428 -13.808223072774862" fill="#ebb200" stroke="none" /><line stroke="#006cb8" stroke-width="0.3" x1="143.8653032363475" x2="146.44561519142675" y1="172.8068346515853" y2="177.08958963109032" /><path d="M 144.38136562736335 173.6633856474863 a86.0,86.0 0 0,1 -40.68145358897372,12.25698825130547" fill="none" id="id138" stroke="none" /><text fill="#006cb8" style="font-size:6.75px; font-family:Arial;" text-anchor="middle"><textPath startOffset="21.466115282336833" xlink:href="#id138">六月</textPath></text><line stroke="#006cb8" stroke-width="0.3" x1="102.19456741930631" x2="102.32365962044197" y1="184.97166512339345" y2="189.96999836594603" /><path d="M 102.22038585953345 185.97133177190398 a86.0,86.0 0 0,1 -42.740103519485714,-10.115201625700543" fill="none" id="id139" stroke="none" /><text fill="#006cb8" style="font-size:6.75px; font-family:Arial;" text-anchor="middle"><textPath startOffset="22.20632615414155" xlink:href="#id139">七月</textPath></text><line stroke="#006cb8" stroke-width="0.3" x1="58.666819895761336" x2="56.23545636021788" y1="174.27360380694188" y2="178.64263932499728" /><path d="M 58.180547188652646 175.14741091055294 a86.0,86.0 0 0,1 -31.652253787137756,-30.449443065178592" fill="none" id="id140" stroke="none" /><text fill="#006cb8" style="font-size:6.75px; font-family:Arial;" text-anchor="middle"><textPath startOffset="22.20632615414155" xlink:href="#id140">八月</textPath></text><line stroke="#006cb8" stroke-width="0.3" x1="26.63291911575756" x2="22.317208475507996" y1="142.92168965132927" y2="145.44649492493687" /><path d="M 25.769776987707644 143.4266507060508 a86.0,86.0 0 0,1 -11.730757126820373,-40.83630448921669" fill="none" id="id141" stroke="none" /><text fill="#006cb8" style="font-size:6.75px; font-family:Arial;" text-anchor="middle"><textPath startOffset="21.46611528233685" xlink:href="#id141">九月</textPath></text><line stroke="#006cb8" stroke-width="0.3" x1="15.007084014347285" x2="10.007500721073583" y1="101.09737516637583" y2="101.16192664675087" /><path d="M 14.007167355692545 101.11028546245083 a86.0,86.0 0 0,1 10.666146001902534,-42.60595125391555" fill="none" id="id142" stroke="none" /><text fill="#006cb8" style="font-size:6.75px; font-family:Arial;" text-anchor="middle"><textPath startOffset="22.20632615414155" xlink:href="#id142">十月</textPath></text><line stroke="#006cb8" stroke-width="0.3" x1="26.266209847984243" x2="21.928928074336255" y1="57.711370442889674" y2="55.22380399835377" /><path d="M 25.398753493254645 57.213857153982495 a86.0,86.0 0 0,1 29.58750427330803,-30.492523968695096" fill="none" id="id143" stroke="none" /><text fill="#006cb8" style="font-size:6.75px; font-family:Arial;" text-anchor="middle"><textPath startOffset="21.46611528233685" xlink:href="#id143">十一月</textPath></text><line stroke="#006cb8" stroke-width="0.3" x1="56.762969772571076" x2="54.21961505331055" y1="26.818313649435495" y2="22.513508569990535" /><path d="M 56.25429882871897 25.957352633546506 a86.0,86.0 0 0,1 42.265352541879196,-11.944610805530505" fill="none" id="id144" stroke="none" /><text fill="#006cb8" style="font-size:6.75px; font-family:Arial;" text-anchor="middle"><textPath startOffset="22.20632615414155" xlink:href="#id144">十二月</textPath></text></svg>