<?xml version="1.0" encoding="utf-8" ?>
<svg baseProfile="full" height="200mm" version="1.1" viewBox="0,0,200,200" width="200mm" xmlns="http://www.w3.org/2000/svg" xmlns:ev="http://www.w3.org/2001/xml-events" xmlns:xlink="http://www.w3.org/1999/xlink"><defs /><rect fill="#f5f5f5" height="200" width="200" x="0" y="0" /><text alignment-baseline="middle" fill="#006cb8" style="dominant-baseline: central; font-size:9.0px; font-family:Arial;" text-anchor="middle" x="100.0" y="100.0">2024</text><line stroke="#006cb8" stroke-width="0.3" x1="100.0" x2="100.0" y1="15.0" y2="10.0" /><path d="M 100.0 14.0 a86.0,86.0 0 0,1 42.35913384403234,11.155469271406648" fill="none" id="id121" stroke="none" /><text fill="#006cb8" style="font-size:6.75px; font-family:Arial;" text-anchor="middle"><textPath startOffset="22.145653131862478" xlink:href="#id121">January</textPath></text><path d="M 100.0 79.0 l 0.0 -0.8427021555199588 a21.84270215551996,21.84270215551996 0 0,0 0.3749590279355131,0.0032185722910295475 l -0.014466103086658307 0.8425779814233642" fill="#ff0000" stroke="none" /><path d="M 100.72087961077811 79.0123766808444 l 0.27465060931690344 -7.996152820160673 a29.000868257918114,29.000868257918114 0 0,0 0.49739836508147656,0.02136042597004002 l -0.41187473499921623 7.990259825764802" fill="#f65400" stroke="none" /><path d="M 101.44090949804482 79.04949213459386 l 0.5396809000540794 -7.846841843109842 a28.865378718451048,28.865378718451048 0 0,0 0.49405295661744963,0.038242823451464986 l -0.6743028514467626 7.836421252663324" fill="#f65300" stroke="none" /><path d="M 102.15924093988457 79.11130261209362 l 0.08714059550881323 -0.8430062139720554 a21.84749805910169,21.84749805910169 0 0,0 0.3727225806867815,0.041764342590860364 l -0.1015990777963914 0.8413861108742242" fill="#ff0000" stroke="none" /><path d="M 102.51750503828377 79.15144685158666 l 0.9227628875230727 -7.641800437874482 a28.69731156176548,28.69731156176548 0 0,0 0.48856787311623623,0.06325489264447694 l -1.0538085825301007 7.624833949029608" fill="#f65100" stroke="none" /><path d="M 103.23170211078529 79.25015418208739 l 1.1714850602200597 -7.521774453291886 a28.61245480594225,28.61245480594225 0 0,0 0.4846711365405214,0.07975245107874497 l -1.3004336998136516 7.500556003717473" fill="#f65000" stroke="none" /><path d="M 103.94208987418118 79.37332000966035 l 1.4321117410990263 -7.4934137822501 a28.62903625309314,28.62903625309314 0 0,0 0.4819269014919081,0.09639887744843306 l -1.5605351281218913 7.467725508138807" fill="#f65000" stroke="none" /><path d="M 104.64783097203109 79.52079915486377 l 0.49848019978550784 -2.196395736024365 a23.25225148214053,23.25225148214053 0 0,0 0.3884984475351055,0.09168457579185517 l -0.5361108010604982 2.1875150165862824" fill="#fd1100" stroke="none" /><path d="M 105.3480935250658 79.69241777938227 l 1.9634452446090767 -7.455521402851517 a28.7097286993094,28.7097286993094 0 0,0 0.47551321979708766,0.1296032425690607 l -2.0911398653408573 7.420717666138314" fill="#f65100" stroke="none" /><path d="M 105.69591212413111 79.78721728523813 l 0.3715421957808228 -1.3184721795245204 a22.36982206560771,22.36982206560771 0 0,0 0.36871856822929355,0.1073286014495569 l -0.39412077639172083 1.3118998837724476" fill="#fe0600" stroke="none" /><path d="M 106.38641147887787 79.99465700312896 l 2.3350633256598203 -7.31455260966788 a28.67822900247451,28.67822900247451 0 0,0 0.4676972075180279,0.15374136175811443 l -2.460283270825591 7.273390326507744" fill="#f65000" stroke="none" /><path d="M 107.06938296918511 80.22567764915836 l 1.1616856583106168 -3.2494415393698413 a24.450852631815334,24.450852631815334 0 0,0 0.39402065628155264,0.1446898427413595 l -1.217295466246294 3.22902084761976" fill="#fc1f00" stroke="none" /><path d="M 107.40779381753099 80.34994680014964 l 2.6802013448105537 -7.109552494185297 a28.597974461414086,28.597974461414086 0 0,0 0.4578777262109136,0.17711694083224008 l -2.801851333514993 7.062495665215018" fill="#f65000" stroke="none" /><path d="M 108.73861861582097 80.90454125486305 l 3.1903208560155014 -6.971426831638965 a28.666742413386743,28.666742413386743 0 0,0 0.44571499688138955,0.20861712401002758 l -3.309524566768396 6.915633476058404" fill="#f65000" stroke="none" /><path d="M 109.3889696526874 81.21577127319529 l 8.48669157570568 -16.979068160719073 a39.98190426452251,39.98190426452251 0 0,0 0.6112905277805692,0.3121292991022132 l -8.776909325199826 16.830880909944028" fill="#e8c900" stroke="none" /><line stroke="#006cb8" stroke-width="0.3" x1="143.13028292997686" x2="145.6673583964461" y1="26.7553504044142" y2="22.446841604673864" /><path d="M 143.63769802327073 25.89364864446614 a86.0,86.0 0 0,1 29.32050498858742,28.57503671076993" fill="none" id="id122" stroke="none" /><text fill="#006cb8" style="font-size:6.75px; font-family:Arial;" text-anchor="middle"><textPath startOffset="20.669276256404974" xlink:href="#id122">February</textPath></text><path d="M 110.96478420261332 82.08984904055464 l 6.719858906471831 -10.976384506719162 a33.87002410884429,33.87002410884429 0 0,0 0.49326992053532537,0.30783691249962924 l -6.907292955796869 10.859411797377987" fill="#f08a00" stroke="none" /><path d="M 111.27062007382361 82.28071324371311 l 1.628087998139719 -2.559624751304368 a24.033537439554117,24.033537439554117 0 0,0 0.3462138277692503,0.22441162032322773 l -1.6717874581659766 2.5312992892772455" fill="#fc1a00" stroke="none" /><path d="M 111.8722381534696 82.67804972795209 l 4.270182057566 -6.230323237925678 a28.55323655486807,28.55323655486807 0 0,0 0.4019274708807532,0.2805765899352186 l -4.376504619620514 6.156101832185332" fill="#f64f00" stroke="none" /><path d="M 112.16784306229584 82.88440491214696 l 4.419670688728233 -6.216820314220273 a28.627735169505122,28.627735169505122 0 0,0 0.398087728546691,0.2881848158175849 l -4.525739427648891 6.140034727029613" fill="#f65000" stroke="none" /><path d="M 116.57777611688842 87.10902102172516 l 6.168605137948125 -4.79674466574308 a28.814118551458936,28.814118551458936 0 0,0 0.3002815652031131,0.3930782080186151 l -6.250038680505545 4.690145544483583" fill="#f65200" stroke="none" /><path d="M 117.42321728460499 88.27688183743584 l 6.457887918947146 -4.345155198248412 a28.78361677310418,28.78361677310418 0 0,0 0.2723143434422534,0.41231862378700523 l -6.531526701310124 4.233656696122347" fill="#f65200" stroke="none" /><line stroke="#006cb8" stroke-width="0.3" x1="172.87174338648825" x2="177.1583165268699" y1="56.24261187166439" y2="53.66864786411523" /><path d="M 173.72905801456457 55.72781907015455 a86.0,86.0 0 0,1 12.242430191666344,42.057860355516425" fill="none" id="id123" stroke="none" /><text fill="#006cb8" style="font-size:6.75px; font-family:Arial;" text-anchor="middle"><textPath startOffset="22.145653131862474" xlink:href="#id123">March</textPath></text><path d="M 118.53625476483649 90.13048839642627 l 6.852560222691855 -3.6486023465939117 a28.763367870273136,28.763367870273136 0 0,0 0.22831530157523167,0.43782469527143697 l -6.914183593242031 3.5304314082179764" fill="#f65100" stroke="none" /><path d="M 118.8641267826498 90.77261029715802 l 6.838322614763885 -3.3449662635971817 a28.6125853353637,28.6125853353637 0 0,0 0.2120338934083162,0.4430692873645539 l -6.894735766132113 3.227084474167524" fill="#f65000" stroke="none" /><path d="M 119.71291397450082 92.76114493625339 l 7.187564663157259 -2.6393733024556365 a28.65685165174189,28.65685165174189 0 0,0 0.16560907826339713,0.4632380664735313 l -7.231813911464599 2.5156002796011885" fill="#f65000" stroke="none" /><path d="M 119.94978838288452 93.4421083053983 l 7.2469235548977275 -2.3822077146868272 a28.628421501624366,28.628421501624366 0 0,0 0.14946119657995569,0.46818506953300615 l -7.286749467254941 2.2574536114624344" fill="#f65000" stroke="none" /><path d="M 120.35273937422433 94.82641323984039 l 11.078372474080318 -2.8160789612726504 a32.430688404054365,32.430688404054365 0 0,0 0.1325217899395875,0.5407341261252111 l -11.125081790536196 2.6254890105393445" fill="#f17a00" stroke="none" /><path d="M 120.51834098615036 95.52812308129327 l 11.213442751454796 -2.443917656564796 a32.47667337917322,32.47667337917322 0 0,0 0.11404305903759905,0.5457373215470229 l -11.253743521316762 2.251063883732369" fill="#f17b00" stroke="none" /><path d="M 120.65975698304385 96.23510406497455 l 7.420448784844966 -1.3522529567533816 a28.542655250477473,28.542655250477473 0 0,0 0.08370498251699483,0.4827880954245345 l -7.442568584854195 1.2246718284082545" fill="#f64f00" stroke="none" /><path d="M 120.86939407059847 97.66154086499901 l 7.472102907004274 -0.8372647160450343 a28.51886521076124,28.51886521076124 0 0,0 0.05033933821432216,0.4869874330572198 l -7.485374637700262 0.7088727607048831" fill="#f64f00" stroke="none" /><path d="M 120.93736805541906 98.37931529534042 l 7.497628447494856 -0.5803638601524425 a28.520056818060297,28.520056818060297 0 0,0 0.03359396347743149,0.4884488561003525 l -7.506486372137354 0.4515715798977558" fill="#f64f00" stroke="none" /><path d="M 120.98066250479742 99.09900007780936 l 1.3331230327216745 -0.05725003910043969 a22.33435174798478,22.33435174798478 0 0,0 0.013161647314466842,0.38318700094382446 l -1.3339093670329896 0.034356773592495296" fill="#fe0600" stroke="none" /><line stroke="#006cb8" stroke-width="0.3" x1="184.99686870605535" x2="189.99668451229388" y1="99.2704041080226" y2="99.22748670261217" /><path d="M 185.99683186730306 99.26182062694052 a86.0,86.0 0 0,1 -10.086455211305974,41.156179273409016" fill="none" id="id124" stroke="none" /><text fill="#006cb8" style="font-size:6.75px; font-family:Arial;" text-anchor="middle"><textPath startOffset="21.40746469413373" xlink:href="#id124">April</textPath></text><path d="M 120.99922638620191 99.81974689727618 l 7.619306911130205 -0.065402586079969 a28.61958760723062,28.61958760723062 0 0,0 0.0,0.4913113776075908 l -7.619306911130205 -0.06540258607996807" fill="#f65000" stroke="none" /><path d="M 120.99303781780057 100.54070618675476 l 7.582175363704231 0.195289941541385 a28.584689934811482,28.584689934811482 0 0,0 -0.01684497547816207,0.4904230815661855 l -7.577705701229222 -0.3254192876716812" fill="#f64f00" stroke="none" /><path d="M 120.86939407059847 102.33845913500097 l 7.694434716232905 0.8621774590088773 a28.742588428503296,28.742588428503296 0 0,0 -0.05915212892271643,0.4898644828642571 l -7.678500501050525 -0.994135618796543" fill="#f65100" stroke="none" /><path d="M 120.77682067341334 103.0534771498775 l 7.464232196741 1.096985087968423 a28.544411081727326,28.544411081727326 0 0,0 -0.07540958736219681,0.48418364605324477 l -7.444301117240536 -1.2249569159531184" fill="#f64f00" stroke="none" /><path d="M 120.65975698304385 103.76489593502545 l 7.623816051459741 1.3893132472506795 a28.749371747792296,28.749371747792296 0 0,0 -0.09264650384436403,0.4847656567998546 l -7.598843255333217 -1.5199814690838487" fill="#f65100" stroke="none" /><path d="M 120.43855184770803 104.8234425847677 l 7.427925533579248 1.7529702007320689 a28.631971059762556,28.631971059762556 0 0,0 -0.11699905987390755,0.47739609031263414 l -7.396738947189045 -1.8802221156528027" fill="#f65000" stroke="none" /><path d="M 120.26092885502905 105.52220625578681 l 7.469836827934553 2.035937244342478 a28.742318948407394,28.742318948407394 0 0,0 -0.13383177562136453,0.474921758273799 l -7.433786560238608 -2.1638669265192854" fill="#f65100" stroke="none" /><path d="M 119.94978838288452 106.5578916946017 l 21.85742020278512 7.184968164185536 a44.00805479482085,44.00805479482085 0 0,0 -0.24207485224019012,0.7156512867657483 l -21.730859928972563 -7.5591211254254445" fill="#d5e200" stroke="none" /><path d="M 119.4528033332814 107.91128576633889 l 7.135844175303682 2.902085703930744 a28.703400127682237,28.703400127682237 0 0,0 -0.18954379864941273,0.4548361157615107 l -7.084974532117784 -3.0241543291335327" fill="#f65100" stroke="none" /><path d="M 118.8641267826498 109.22738970284198 l 6.909022694475982 3.3795492154105413 a28.691290365872696,28.691290365872696 0 0,0 -0.2202126033923214,0.44057272135952247 l -6.849990177871928 -3.4976537929338094" fill="#f65100" stroke="none" /><path d="M 118.5362547648365 109.86951160357373 l 6.868653233786738 3.6571709685594804 a28.781599883011417,28.781599883011417 0 0,0 -0.23594696501766818,0.43411584037198997 l -6.804860919153731 -3.774541642406074" fill="#f65200" stroke="none" /><line stroke="#006cb8" stroke-width="0.3" x1="174.33088141563837" x2="178.70328620479359" y1="141.23008692659167" y2="143.65538615756765" /><path d="M 175.20536237346943 141.71514677278685 a86.0,86.0 0 0,1 -30.301960400862466,31.631185727798858" fill="none" id="id125" stroke="none" /><text fill="#006cb8" style="font-size:6.75px; font-family:Arial;" text-anchor="middle"><textPath startOffset="22.145653131862474" xlink:href="#id125">May</textPath></text><path d="M 118.00360718960297 110.81064883170644 l 19.868152641263677 11.930254802686521 a44.17486718480988,44.17486718480988 0 0,0 -0.39595834143375763,0.6467681933074436 l -19.660426335374517 -12.269560112118521" fill="#d3e200" stroke="none" /><path d="M 117.423217284605 111.72311816256416 l 3.441655499805027 2.3156994164736338 a25.14818711810286,25.14818711810286 0 0,0 -0.24406945881705308,0.3561046345182268 l -3.4013963041726534 -2.374438786061905" fill="#fb2800" stroke="none" /><path d="M 117.21940702142032 112.02048342749411 l 1.736817472931238 1.2124334841485211 a23.118143028164948,23.118143028164948 0 0,0 -0.22995385850516725,0.32345889989817955 l -1.71574851589611 -1.2420696107562048" fill="#fd0f00" stroke="none" /><path d="M 117.01052211995028 112.31430620078461 l 1.9568312936437156 1.4165949500717974 a23.41576695158127,23.41576695158127 0 0,0 -0.23850406003995123,0.32357656347520086 l -1.9322252140199363 -1.4499778228158755" fill="#fd1300" stroke="none" /><path d="M 116.57777611688842 112.89097897827486 l 6.0774459745276275 4.725858748896031 a28.698642119738988,28.698642119738988 0 0,0 -0.3057547446280773,0.38631113161810765 l -5.9954247992579885 -4.829489824428822" fill="#f65100" stroke="none" /><path d="M 116.35404254752997 113.17365903436017 l 5.906902646427532 4.758182644263016 a28.58497204678688,28.58497204678688 0 0,0 -0.31110410872705047,0.3794964278265021 l -5.824351718461854 -4.858881353788012" fill="#f64f00" stroke="none" /><path d="M 115.6541949942343 113.99807769240083 l 8.707211444953273 7.786042165407391 a32.6806670934766,32.6806670934766 0 0,0 -0.37754309404278774,0.41498599616852794 l -8.572270650068605 -7.934365737133591" fill="#f17d00" stroke="none" /><path d="M 115.16444852881244 114.52719865689866 l 5.690347279869418 5.451223973251838 a28.88009485806312,28.88009485806312 0 0,0 -0.34602919287168515,0.3550564353944342 l -5.595931285846926 -5.548103100714009" fill="#f65300" stroke="none" /><path d="M 113.86319453409587 115.77377054828091 l 5.076824020116431 5.7764937951612145 a28.69038508117553,28.69038508117553 0 0,0 -0.3727297992214436,0.32195512315360675 l -4.976914741132132 -5.86279305077954" fill="#f65100" stroke="none" /><path d="M 113.59037401385872 116.0094264158162 l 2.4317306853329534 2.8645726328223837 a24.757537823456317,24.757537823456317 0 0,0 -0.326358185356684,0.272259605555632 l -2.382198165814374 -2.905894422289886" fill="#fb2300" stroke="none" /><path d="M 113.03279911837588 116.46651593811092 l 7.29016861137987 9.210889889459313 a32.74678896286522,32.74678896286522 0 0,0 -0.44378145161715377,0.34508714096561377 l -7.130977215127485 -9.33467808204572" fill="#f17e00" stroke="none" /><path d="M 111.8722381534696 117.32195027204791 l 4.418734368377992 6.4470654989399705 a28.81600070150374,28.81600070150374 0 0,0 -0.4104272748580535,0.2761537873118025 l -4.307410805422935 -6.521968960308895" fill="#f65200" stroke="none" /><path d="M 110.96478420261333 117.91015095944535 l 3.975543909659029 6.493752202704226 a28.614050633385162,28.614050633385162 0 0,0 -0.4211269406183947,0.25287462788154663 l -3.863484212483198 -6.561040831121695" fill="#f65000" stroke="none" /><line stroke="#006cb8" stroke-width="0.3" x1="143.1302829299769" x2="145.66735839644613" y1="173.24464959558577" y2="177.55315839532614" /><path d="M 143.63769802327073 174.10635135553383 a86.0,86.0 0 0,1 -40.68552437913181,11.842963189579606" fill="none" id="id126" stroke="none" /><text fill="#006cb8" style="font-size:6.75px; font-family:Arial;" text-anchor="middle"><textPath startOffset="21.407464694133747" xlink:href="#id126">June</textPath></text><path d="M 110.34350942703117 118.27599006163325 l 16.982895873113375 30.00714973813862 a55.479672093047576,55.479672093047576 0 0,0 -0.8328709079298754,0.46197945293506704 l -16.465280777027402 -30.29426210650683" fill="#53d400" stroke="none" /><path d="M 109.3889696526874 118.78422872680471 l 3.38666263633632 6.775593908034009 a28.574837068805113,28.574837068805113 0 0,0 -0.4406508625589918,0.21554441817391737 l -3.269851524515259 -6.832732076305149" fill="#f64f00" stroke="none" /><path d="M 109.06512990194946 118.94263497670748 l 3.3583547440777193 7.017669766174828 a28.779860894267557,28.779860894267557 0 0,0 -0.44747378072316396,0.20944032365418105 l -3.237392249483049 -7.074286321399542" fill="#f65200" stroke="none" /><path d="M 107.407793817531 119.65005319985036 l 2.7191654107656658 7.21290930834074 a28.70843182634788,28.70843182634788 0 0,0 -0.4626307032873355,0.16988440235005897 l -2.594945555824203 -7.258524559699521" fill="#f65100" stroke="none" /><path d="M 107.06938296918513 119.77432235084164 l 3.8639728558262623 10.808219775200273 a32.478148846377294,32.478148846377294 0 0,0 -0.5266010579454334,0.18317918364931202 l -3.6778660258358067 -10.872957391418176" fill="#f17b00" stroke="none" /><path d="M 106.72888874123015 119.89276391827305 l 2.4403949682665895 7.214594093911817 a28.616160157260886,28.616160157260886 0 0,0 -0.46668496141393767,0.1534086163579371 l -2.3161872692049177 -7.255423631671774" fill="#f65000" stroke="none" /><path d="M 106.38641147887787 120.00534299687104 l 2.329996331874322 7.2986803238032465 a28.661567553420152,28.661567553420152 0 0,0 -0.4699942506477595,0.14560542025758239 l -2.204361448354938 -7.337602331867473" fill="#f65000" stroke="none" /><path d="M 105.3480935250658 120.30758222061773 l 1.943801323533526 7.3809302348946755 a28.63259423248433,28.63259423248433 0 0,0 -0.4763846126692877,0.12109510565299433 l -1.816811417638841 -7.41321057238294" fill="#f65000" stroke="none" /><path d="M 104.9986988182912 120.39639698878246 l 1.8275457210268915 7.457010193296199 a28.677690042282713,28.677690042282713 0 0,0 -0.4791466352786214,0.11307730127710748 l -1.699266932008391 -7.487283638219532" fill="#f65000" stroke="none" /><path d="M 104.64783097203109 120.47920084513623 l 1.7024578196074334 7.501343277739187 a28.692107227413395,28.692107227413395 0 0,0 -0.4812589767566057,0.10488815404378646 l -1.5734364262316918 -7.529462889916692" fill="#f65100" stroke="none" /><path d="M 104.29559338865022 120.5559693870025 l 1.5453126471289924 7.394880425987636 a28.554617640359563,28.554617640359563 0 0,0 -0.48067417572318044,0.0961482972100535 l -1.4181419858748534 -7.420318119860551" fill="#f64f00" stroke="none" /><path d="M 103.94208987418118 120.62667999033965 l 1.4070011179397666 7.362024391141491 a28.495268859863934,28.495268859863934 0 0,0 -0.4812515296532336,0.0877000600347503 l -1.280414854735476 -7.385092625107605" fill="#f64e00" stroke="none" /><path d="M 103.58742460773223 120.69131181640829 l 5.087854465395889 29.34539251169383 a50.78318862590816,50.78318862590816 0 0,0 -0.8602248886159463,0.14154967806778795 l -4.5833520737268705 -29.42840818825729" fill="#86da00" stroke="none" /><path d="M 102.875027216393 120.80226474461374 l 1.048930575680594 7.589539121442945 a28.661681240335607,28.661681240335607 0 0,0 -0.4879612716817662,0.06317635594420128 l -0.9184914821080525 -7.6064270735875406" fill="#f65000" stroke="none" /><path d="M 102.15924093988457 120.88869738790638 l 0.8052945937932819 7.7904946905851755 a28.83200529282434,28.83200529282434 0 0,0 -0.4927532994323908,0.04666424976992149 l -0.6714417309758758 -7.80317069586028" fill="#f65200" stroke="none" /><path d="M 101.44090949804482 120.95050786540614 l 0.775413277754194 11.274338878724164 a32.30097265299004,32.30097265299004 0 0,0 -0.5535089257520599,0.03329772248933114 l -0.581759999869669 -11.285988579038188" fill="#f27900" stroke="none" /><path d="M 100.72087961077811 120.9876233191556 l 1.5690325633812943 45.68067111815123 a66.70760961797988,66.70760961797988 0 0,0 -1.1447873503088735,0.02948566130366377 l -0.7846318990016768 -45.70087449680494" fill="#00c51d" stroke="none" /><line stroke="#006cb8" stroke-width="0.3" x1="101.45913802915013" x2="101.54496967792366" y1="184.9874750549273" y2="189.98673829345242" /><path d="M 101.47630435890484 185.9873277026323 a86.0,86.0 0 0,1 -42.54439059252881,-10.42667462771756" fill="none" id="id127" stroke="none" /><text fill="#006cb8" style="font-size:6.75px; font-family:Arial;" text-anchor="middle"><textPath startOffset="22.145653131862474" xlink:href="#id127">July</textPath></text><path d="M 99.27912038922189 120.98762331915562 l -0.260759235844011 7.591720638315464 a28.59619757703174,28.59619757703174 0 0,0 -0.49045779581026405,-0.021062368062105936 l 0.39104279225511385 -7.586125701827529" fill="#f65000" stroke="none" /><path d="M 98.55909050195518 120.95050786540614 l -2.8974743145935373 42.128640625988794 a63.228162621613585,63.228162621613585 0 0,0 -1.0821981928381625,-0.08376898442538917 l 3.620241502206936 -42.07269387456835" fill="#04ca00" stroke="none" /><path d="M 97.84075906011543 120.88869738790638 l -0.7869699408515218 7.613220296158712 a28.65378631565102,28.65378631565102 0 0,0 -0.4888391866714318,-0.0547754504875036 l 0.9175450291237529 -7.598589085164237" fill="#f65000" stroke="none" /><path d="M 97.12497278360702 120.80226474461374 l -1.0741951001657541 7.772340635108808 a28.846220367883106,28.846220367883106 0 0,0 -0.4899391715872455,-0.07200418624134998 l 1.2074593773606845 -7.752755375568576" fill="#f65200" stroke="none" /><path d="M 96.41257539226777 120.69131181640829 l -1.351220612809585 7.793481421781086 a28.909750300491694,28.909750300491694 0 0,0 -0.4882516330141091,-0.08897571205281048 l 1.4848069793747514 -7.76913753579691" fill="#f65300" stroke="none" /><line stroke="#006cb8" stroke-width="0.3" x1="58.13341422392154" x2="55.67067388415222" y1="173.97424548756322" y2="178.32567169271397" /><path d="M 57.64086615596768 174.84453072859336 a86.0,86.0 0 0,1 -31.369924170532247,-30.572349798747897" fill="none" id="id128" stroke="none" /><text fill="#006cb8" style="font-size:6.75px; font-family:Arial;" text-anchor="middle"><textPath startOffset="22.145653131862474" xlink:href="#id128">August</textPath></text><path d="M 89.65649057296885 118.27599006163327 l -1.8856204887910373 3.3317107270282063 a24.828297401762743,24.828297401762743 0 0,0 -0.36912292662059026,-0.2131132210484619 l 1.9425358832720274 -3.2988506087035727" fill="#fb2400" stroke="none" /><path d="M 87.83215693770417 117.11559508785305 l -4.559654837668114 6.413725550399476 a28.86932828610659,28.86932828610659 0 0,0 -0.4014472417757848,-0.2906168443171751 l 4.669083089817852 -6.334507934709235" fill="#f65300" stroke="none" /><path d="M 87.54013794807813 116.9041958592261 l -4.709889952809432 6.38987028154227 a28.938104659332247,28.938104659332247 0 0,0 -0.3973436183383752,-0.29817405882485976 l 4.818886560058574 -6.308077195453395" fill="#f65300" stroke="none" /><path d="M 87.2517909369889 116.68781488649013 l -4.75181468737507 6.220277961074651 a28.82761782001296,28.82761782001296 0 0,0 -0.39066920721104603,-0.3037867384688834 l 4.857893839221345 -6.1377901709849745" fill="#f65200" stroke="none" /><path d="M 86.40962598614128 116.0094264158162 l -4.941343219622197 5.820889887884157 a28.635419562864787,28.635419562864787 0 0,0 -0.3720157172547368,-0.3213383161582649 l 5.040538416639796 -5.73520743926117" fill="#f65000" stroke="none" /><path d="M 85.86807049272751 115.53346607816431 l -5.06978422302014 5.5725809565756315 a28.533682405409277,28.533682405409277 0 0,0 -0.3594839466311315,-0.332732974218074 l 5.164697940965239 -5.48473023622518" fill="#f64f00" stroke="none" /><path d="M 85.34317274990678 115.03919595460226 l -5.574946151621449 5.720385877513673 a28.98766794384548,28.98766794384548 0 0,0 -0.3533846290578152,-0.35036426576199414 l 5.672322700809227 -5.6238416015230195" fill="#f65400" stroke="none" /><path d="M 84.83555147118756 114.52719865689866 l -18.83593375297989 18.044398449295304 a47.084338514587216,47.084338514587216 0 0,0 -0.5541247422032234,-0.5884612736199035 l 19.142914328919368 -17.718395715730914" fill="#b1df00" stroke="none" /><path d="M 84.3458050057657 113.99807769240083 l -2.860810605227743 2.558154483828246 a24.837758679504756,24.837758679504756 0 0,0 -0.2814815124661224,-0.32027429033789057 l 2.9043031816524576 -2.5086679156790552" fill="#fb2400" stroke="none" /><path d="M 84.1078160697243 113.72728997021213 l -2.878741250256395 2.48658812815508 a24.803981033734203,24.803981033734203 0 0,0 -0.27556683913507946,-0.3246170435981619 l 2.921002652898587 -2.436804302107364" fill="#fb2400" stroke="none" /><path d="M 83.64595745247003 113.17365903436017 l -6.0266941446940265 4.854678195671274 a28.738794654028194,28.738794654028194 0 0,0 -0.30618252890499686,-0.38685162307738896 l 6.109143104240585 -4.7505066286792035" fill="#f65100" stroke="none" /><path d="M 83.20337586046588 112.60449989151573 l -48.08089206590732 36.08079777187404 a81.11319447266382,81.11319447266382 0 0,0 -0.8261880229908001,-1.1208827271911155 l 48.693182108481956 -35.250108735414045" fill="#00b395" stroke="none" /><path d="M 82.37810715431573 111.42229804090323 l -6.330280780108258 4.10321152138354 a28.54379211963205,28.54379211963205 0 0,0 -0.26298660900272103,-0.41345863026698837 l 6.399785080736869 -3.9939392164378797" fill="#f64f00" stroke="none" /><path d="M 81.99639281039703 110.81064883170644 l -13.68328361268708 8.216418656747294 a36.960632379958376,36.960632379958376 0 0,0 -0.3219557786915844,-0.5467512984745395 l 13.822313101508435 -7.980316189979195" fill="#ecaa00" stroke="none" /><line stroke="#006cb8" stroke-width="0.3" x1="26.387840678322732" x2="22.057713659400548" y1="142.50000000000003" y2="145.00000000000006" /><path d="M 25.521815274538298 143.00000000000003 a86.0,86.0 0 0,1 -11.493303480769221,-40.785679425670985" fill="none" id="id129" stroke="none" /><text fill="#006cb8" style="font-size:6.75px; font-family:Arial;" text-anchor="middle"><textPath startOffset="21.40746469413373" xlink:href="#id129">September</textPath></text><path d="M 81.29705330413844 109.54985784667822 l -6.315772560161732 3.224878470879753 a28.09146135740974,28.09146135740974 0 0,0 -0.21560877045697327,-0.4313619715034088 l 6.370201243830443 -3.1159846432125913" fill="#f74a00" stroke="none" /><path d="M 80.68587082218212 108.24405325689762 l -47.11883667258939 20.112229516307643 a72.23169473572771,72.23169473572771 0 0,0 -0.4769842507226393,-1.1445885617148344 l 47.45714676784851 -19.30040844515153" fill="#00be4e" stroke="none" /><path d="M 79.83685265289637 105.86919833188381 l -6.128105290191625 1.7838021380113336 a27.38244659321552,27.38244659321552 0 0,0 -0.1274998532653347,-0.4524519996188189 l 6.157823635531535 -1.678342214489519" fill="#f84200" stroke="none" /><path d="M 79.64726062577567 105.17358676015961 l -18.144681565255308 4.6123070996625755 a39.7217212319304,39.7217212319304 0 0,0 -0.1623151976162956,-0.6623013964714863 l 18.221184289387896 -4.30014987858299" fill="#e8c600" stroke="none" /><path d="M 79.48165901384964 104.47187691870673 l -7.445185688818399 1.6226435684924863 a28.619958142362485,28.619958142362485 0 0,0 -0.10050005854898153,-0.48092916158761545 l 7.471943458191748 -1.4945979556194617" fill="#f65000" stroke="none" /><path d="M 79.06263194458094 101.62068470465958 l -7.804414891219885 0.6041110711498322 a28.827760981313908,28.827760981313908 0 0,0 -0.03395641024561778,-0.4937187525636375 l 7.8136352626305685 -0.4700488944318514" fill="#f65200" stroke="none" /><path d="M 79.03789590574601 101.26102812881392 l -43.11422135315518 2.5936444945496406 a64.19216450530084,64.19216450530084 0 0,0 -0.056728787740980786,-1.1005233269575876 l 43.15239173035273 -1.8531493742153224" fill="#00c805" stroke="none" /><line stroke="#006cb8" stroke-width="0.3" x1="15.003131293944662" x2="10.003315487706104" y1="100.72959589197737" y2="100.7725132973878" /><path d="M 14.003168132696942 100.73817937305945 a86.0,86.0 0 0,1 10.791469493833604,-42.45332614584628" fill="none" id="id130" stroke="none" /><text fill="#006cb8" style="font-size:6.75px; font-family:Arial;" text-anchor="middle"><textPath startOffset="22.145653131862435" xlink:href="#id130">October</textPath></text><path d="M 79.13060592940154 97.66154086499901 l -4.220065538411248 -0.4728671457933551 a25.24647577245614,25.24647577245614 0 0,0 0.05195714343720872,-0.43027968163625363 l 4.211326308714371 0.5452405043530449" fill="#fb2900" stroke="none" /><path d="M 79.22317932658666 96.9465228501225 l -7.440744978273504 -1.09353327568049 a28.52067156952907,28.52067156952907 0 0,0 0.07534687151866706,-0.4837809653484741 l 7.420876614616569 1.2211024229604142" fill="#f64f00" stroke="none" /><path d="M 79.34024301695615 96.23510406497455 l -7.404024146149246 -1.349259840449518 a28.525960116411124,28.525960116411124 0 0,0 0.09192654701375186,-0.4809985384372929 l 7.3797713068533355 1.4761609439201253" fill="#f64f00" stroke="none" /><path d="M 79.48165901384962 95.52812308129327 l -6.872007880302634 -1.4977221328877885 a28.033325237345665,28.033325237345665 0 0,0 0.10651213658865087,-0.46931212661770666 l 6.845284882156322 1.6154685934445034" fill="#f74900" stroke="none" /><path d="M 79.64726062577567 94.8264132398404 l -7.266466073386329 -1.8471072605602583 a28.49755523005259,28.49755523005259 0 0,0 0.12458930197462549,-0.4730858729004595 l 7.233687290606978 1.9715736378335023" fill="#f64e00" stroke="none" /><path d="M 79.83685265289637 94.1308016681162 l -7.210533263892491 -2.098881145681335 a28.50979973191008,28.50979973191008 0 0,0 0.1408162544834879,-0.4687315131708487 l 7.173440689405373 2.222350262442907" fill="#f64f00" stroke="none" /><path d="M 80.41425534168474 92.42381321644754 l -6.966176006129243 -2.694666529675691 a28.469192449959046,28.469192449959046 0 0,0 0.18022534128294107,-0.4542855919396202 l 6.918891989880171 2.813853138828894" fill="#f64e00" stroke="none" /><path d="M 80.5471966667186 92.08871423366112 l -7.023695851993499 -2.856475957164592 a28.58233198397235,28.58233198397235 0 0,0 0.18874432138358874,-0.45291766136300865 l 6.973625686073431 2.9766261279688644" fill="#f64f00" stroke="none" /><path d="M 80.83023694016515 91.42560881287825 l -39.365040918075536 -17.607482099548783 a64.12342602771366,64.12342602771366 0 0,0 0.4580719081369185,-1.000969788096526 l 39.05698454508357 18.28064086985998" fill="#00c904" stroke="none" /><path d="M 81.29705330413844 90.45014215332179 l -6.846806382472397 -3.496028124317364 a28.687715543975514,28.687715543975514 0 0,0 0.22771479527251953,-0.43667314525626627 l 6.785783518224937 3.6130475126781163" fill="#f65100" stroke="none" /><path d="M 81.46374523516351 90.13048839642627 l -6.509567238418805 -3.465977901625183 a28.37478599323733,28.37478599323733 0 0,0 0.23261196963833425,-0.4279798245023804 l 6.44910991916512 3.577212559602183" fill="#f74d00" stroke="none" /><path d="M 81.63589988554816 89.8137432299009 l -6.750277280586301 -3.744265018208373 a28.71918155579842,28.71918155579842 0 0,0 0.24283659181921383,-0.42906898959173334 l 6.685007323745719 3.8595907778992116" fill="#f65100" stroke="none" /><line stroke="#006cb8" stroke-width="0.3" x1="26.387840678322718" x2="22.05771365940052" y1="57.49999999999999" y2="54.99999999999999" /><path d="M 25.521815274538284 56.99999999999999 a86.0,86.0 0 0,1 29.574782752854787,-30.34633250058573" fill="none" id="id131" stroke="none" /><text fill="#006cb8" style="font-size:6.75px; font-family:Arial;" text-anchor="middle"><textPath startOffset="21.40746469413373" xlink:href="#id131">November</textPath></text><path d="M 82.18462484594161 88.88188828441811 l -38.54923835843288 -24.057575825003966 a66.44018851843694,66.44018851843694 0 0,0 0.612142906826582,-0.9623903237656964 l 38.130577759980405 24.715779823448333" fill="#00c61a" stroke="none" /><path d="M 84.10781606972428 86.27271002978789 l -5.791603313450842 -5.002649001860734 a28.65304945601379,28.65304945601379 0 0,0 0.32471946449421674,-0.36947114266448283 l 5.704872784998033 5.101332422336516" fill="#f65000" stroke="none" /><path d="M 86.68645165197937 83.75963576809568 l -4.93486185523444 -6.019729066072281 a28.78395783385055,28.78395783385055 0 0,0 0.384813047046697,-0.30997815121448397 l 4.830798037832498 6.103555511080163" fill="#f65200" stroke="none" /><path d="M 87.54013794807813 83.09580414077388 l -4.497638803495022 -6.101910833483758 a28.580374042650572,28.580374042650572 0 0,0 0.3974291405270902,-0.2877080488802474 l 4.392228652593964 6.178219653737084" fill="#f64f00" stroke="none" /><path d="M 88.12776184653039 82.6780497279521 l -4.232318536120997 -6.175079228572365 a28.486262329783752,28.486262329783752 0 0,0 0.4057308000514869,-0.27299378946493635 l 4.12569144797252 6.246822692094411" fill="#f64e00" stroke="none" /><path d="M 88.72937992617638 82.28071324371311 l -4.138496155027441 -6.506403341643645 a28.711059257282912,28.711059257282912 0 0,0 0.4181367533962719,-0.26094825937984495 l 4.026195272841471 6.576487397865026" fill="#f65100" stroke="none" /><path d="M 89.03521579738668 82.08984904055464 l -0.769608758871753 -1.257098069273381 a22.473971912046828,22.473971912046828 0 0,0 0.33076040705056964,-0.19861212091546646 l 0.7479155952637491 1.270124190724771" fill="#fe0800" stroke="none" /><line stroke="#006cb8" stroke-width="0.3" x1="56.869717070023135" x2="54.33264160355391" y1="26.7553504044142" y2="22.446841604673864" /><path d="M 56.362301976729285 25.89364864446614 a86.0,86.0 0 0,1 42.16139366436587,-11.88097634709845" fill="none" id="id132" stroke="none" /><text fill="#006cb8" style="font-size:6.75px; font-family:Arial;" text-anchor="middle"><textPath startOffset="22.145653131862474" xlink:href="#id132">December</textPath></text><path d="M 89.65649057296885 81.72400993836675 l -3.746268714848029 -6.619297858601348 a28.605894649857667,28.605894649857667 0 0,0 0.4294368829219943,-0.23820139994510361 l 3.632087643769932 6.682632173979597" fill="#f65000" stroke="none" /><path d="M 90.28995756902619 81.37971332152246 l -3.4918805336199856 -6.696141344922879 a28.551922839400557,28.551922839400557 0 0,0 0.4365354853078933,-0.22289812923669158 l 3.37641782659851 6.755097425832404" fill="#f64f00" stroke="none" /><path d="M 90.61103034731259 81.2157712731953 l -3.4147445596841677 -6.831776566064381 a28.637646984282465,28.637646984282465 0 0,0 0.44161945052911195,-0.21601820308666714 l 3.2969648598930026 6.889388519248262" fill="#f65000" stroke="none" /><path d="M 90.93487009805054 81.0573650232925 l -3.238383188027027 -6.7669753560079 a28.50193849223748,28.50193849223748 0 0,0 0.4431525997264389,-0.20741779275849193 l 3.1217418744290657 6.821569380336935" fill="#f64e00" stroke="none" /><path d="M 91.92203290615298 80.6158196554323 l -0.5770486309501158 -1.384706647102214 a22.50013253448169,22.50013253448169 0 0,0 0.3578008991673323,-0.14551451080178582 l 0.5531932705923426 1.3944084144832911" fill="#fe0800" stroke="none" /><path d="M 92.25597844496254 80.48000691201159 l -2.767503548701738 -6.975916809851897 a28.50483119264191,28.50483119264191 0 0,0 0.4563864238050409,-0.17654007302482272 l 2.6473448624031675 7.02239677101476" fill="#f64e00" stroke="none" /><path d="M 92.592206182469 80.34994680014964 l -0.7660828785854289 -2.0321258515690586 a23.1717316716107,23.1717316716107 0 0,0 0.37340787488727195,-0.13712054389660816 l 0.73108585204403 2.0449772444743886" fill="#fd1000" stroke="none" /><path d="M 92.93061703081487 80.22567764915836 l -2.597237578731051 -7.264935755696832 a28.715240409395875,28.715240409395875 0 0,0 0.46558921970187345,-0.16195609920279674 l 2.472142586984173 7.308450287468214" fill="#f65100" stroke="none" /><path d="M 93.95794788825049 79.88797359093562 l -2.588330124212847 -8.61570917475461 a29.996104568970864,29.996104568970864 0 0,0 0.49442148876681324,-0.14391888960403748 l 2.4400486230644094 8.658871758661167" fill="#f55f00" stroke="none" /><path d="M 95.00130118170881 79.60360301121753 l -1.8250811410052963 -7.44695386576812 a28.667336111723024,28.667336111723024 0 0,0 0.4789736418825941,-0.11303647530668073 l 1.696975345382796 7.477186484721034" fill="#f65000" stroke="none" /><path d="M 95.70440661134978 79.44403061299748 l -1.5774888067381732 -7.548854997618474 a28.711918225088596,28.711918225088596 0 0,0 0.4833220952245723,-0.09667795526964115 l 1.4476702259826242 7.574822349550981" fill="#f65100" stroke="none" /><path d="M 97.48249496171623 79.15144685158666 l -0.8876608392413067 -7.351105123230936 a28.40450459506338,28.40450459506338 0 0,0 0.48458639186792074,-0.0542989159592891 l 0.7613385457725866 7.3652597996971965" fill="#f74d00" stroke="none" /><path d="M 98.1996594967304 79.07731436759882 l -5.4010215098087775 -62.76805689720356 a84.0,84.0 0 0,0 1.4377240208991313,-0.1112889320197854 l 4.322728494134429 62.8515235962184" fill="#00afaa" stroke="none" /><path d="M 98.5590905019552 79.04949213459386 l -3.4895668542394462 -50.73753620599045 a71.85739530377464,71.85739530377464 0 0,0 1.2313471210053353,-0.07407478509503987 l 2.6180753811016273 50.78996296891018" fill="#00bf4b" stroke="none" /><path d="M 98.9189461498227 79.02784411241856 l -2.24844782685447 -43.61928716331037 a64.67719920353662,64.67719920353662 0 0,0 1.1092886204572878,-0.04763762633760744 l 1.499333445796362 43.651457358073806" fill="#00c80a" stroke="none" /></svg>