<?xml version="1.0" encoding="utf-8" ?>
<svg baseProfile="full" height="200mm" version="1.1" viewBox="0,0,200,200" width="200mm" xmlns="http://www.w3.org/2000/svg" xmlns:ev="http://www.w3.org/2001/xml-events" xmlns:xlink="http://www.w3.org/1999/xlink"><defs /><rect fill="#1a1a1a" height="200" width="200" x="0" y="0" /><text alignment-baseline="middle" fill="#e1ed5e" style="dominant-baseline: central; font-size:9.0px; font-family:Arial;" text-anchor="middle" x="100.0" y="100.0">2024</text><line stroke="#e1ed5e" stroke-width="0.3" x1="100.0" x2="100.0" y1="15.0" y2="10.0" /><path d="M 100.0 14.0 a86.0,86.0 0 0,1 42.35913384403234,11.155469271406648" fill="none" id="id121" stroke="none" /><text fill="#e1ed5e" style="font-size:6.75px; font-family:Arial;" text-anchor="middle"><textPath startOffset="22.145653131862478" xlink:href="#id121">January</textPath></text><path d="M 100.0 79.0 l 0.0 -0.5127434652167864 a21.512743465216786,21.512743465216786 0 0,0 0.36929484825233744,0.0031699521207670597 l -0.008801923403482684 0.5126679112904542" fill="#ff0000" stroke="none" /><path d="M 100.72087961077811 79.0123766808444 l 0.1671115995403617 -4.865271885868649 a25.868141001462963,25.868141001462963 0 0,0 0.44366847666058307,0.019053033375765995 l -0.25060583680178106 4.861686284067051" fill="#ff3e05" stroke="none" /><path d="M 101.44090949804482 79.04949213459386 l 0.32836970095834656 -4.774423384691254 a25.78570217593972,25.78570217593972 0 0,0 0.44134194540592675,0.03416265781595938 l -0.4102806411395068 4.76808295988024" fill="#ff3d05" stroke="none" /><path d="M 102.15924093988457 79.11130261209362 l 0.053020833766201494 -0.5129284700649845 a21.515661540369717,21.515661540369717 0 0,0 0.3670613849153796,0.04112999379655039 l -0.06181812028237773 0.5119427157614633" fill="#ff0000" stroke="none" /><path d="M 102.51750503828377 79.15144685158666 l 0.5614565447860921 -4.649665615953342 a25.68344144746808,25.68344144746808 0 0,0 0.437257139411386,0.056611690889707716 l -0.6411915060882698 4.639342328863237" fill="#ff3b05" stroke="none" /><path d="M 103.23170211078529 79.25015418208739 l 0.7127919458759508 -4.576635614964485 a25.63181021958661,25.63181021958661 0 0,0 0.4341815015514845,0.07144440085485837 l -0.7912509504805059 4.5637252156139585" fill="#ff3b05" stroke="none" /><path d="M 103.94208987418118 79.37332000966035 l 0.8713706638802691 -4.55937951961622 a25.641899227446345,25.641899227446345 0 0,0 0.4316429283125392,0.086340674527757 l -0.9495100777237652 4.543749448425604" fill="#ff3b05" stroke="none" /><path d="M 104.64783097203109 79.52079915486377 l 0.3033010694297711 -1.3364004747105833 a22.37038599216568,22.37038599216568 0 0,0 0.3737642453846961,0.08820734420351105 l -0.32619746855435217 1.3309969868608447" fill="#ff0c01" stroke="none" /><path d="M 105.3480935250658 79.69241777938227 l 1.1946613781509843 -4.536323841176486 a25.690996674532162,25.690996674532162 0 0,0 0.42551459390129726,0.11597589474714946 l -1.2723573729869744 4.515147452285195" fill="#ff3b05" stroke="none" /><path d="M 105.69591212413111 79.78721728523813 l 0.22606543924332034 -0.8022264921159543 a21.833470411876117,21.833470411876117 0 0,0 0.3598779608587336,0.1047552294883792 l -0.23980341248365836 0.7982275683250593" fill="#ff0500" stroke="none" /><path d="M 106.38641147887787 79.99465700312896 l 1.4207729899073382 -4.4505511550252255 a25.671830633953526,25.671830633953526 0 0,0 0.4186675369089155,0.13762433517589737 l -1.496963264463996 4.425505898447306" fill="#ff3b05" stroke="none" /><path d="M 107.06938296918511 80.22567764915836 l 0.7068294842171222 -1.977127866592244 a23.099676765746157,23.099676765746157 0 0,0 0.37224672432436484,0.13669415332629656 l -0.7406653601956117 1.9647028642572255" fill="#ff1702" stroke="none" /><path d="M 107.40779381753099 80.34994680014964 l 1.6307727659352194 -4.325818509102981 a25.62299963095542,25.62299963095542 0 0,0 0.41024586638311245,0.15869191420195555 l -1.7047908948118577 4.297186706762988" fill="#ff3b05" stroke="none" /><path d="M 108.73861861582097 80.90454125486305 l 1.9411557928880019 -4.241775730304498 a25.664841600575834,25.664841600575834 0 0,0 0.3990409732994341,0.1867713242640637 l -2.0136854800589408 4.207828174469901" fill="#ff3b05" stroke="none" /><path d="M 109.3889696526874 81.21577127319529 l 5.16374097093475 -10.330940994813812 a32.54956980381671,32.54956980381671 0 0,0 0.49765622899710626,0.2541068164669421 l -5.340324421645435 10.240776226674035" fill="#ff980e" stroke="none" /><line stroke="#e1ed5e" stroke-width="0.3" x1="143.13028292997686" x2="145.6673583964461" y1="26.7553504044142" y2="22.446841604673864" /><path d="M 143.63769802327073 25.89364864446614 a86.0,86.0 0 0,1 29.32050498858742,28.57503671076993" fill="none" id="id122" stroke="none" /><text fill="#e1ed5e" style="font-size:6.75px; font-family:Arial;" text-anchor="middle"><textPath startOffset="20.669276256404974" xlink:href="#id122">February</textPath></text><path d="M 110.96478420261332 82.08984904055464 l 4.088708826603503 -6.678598589859352 a28.830786613949886,28.830786613949886 0 0,0 0.4198804162740598,0.26203643397633264 l -4.202753371667276 6.607426359041473" fill="#ff6709" stroke="none" /><path d="M 111.27062007382361 82.28071324371311 l 0.9906127287985191 -1.5574077460721207 a22.84576067408077,22.84576067408077 0 0,0 0.3291033736155843,0.21332083066346377 l -1.0172017346711109 1.5401730737047623" fill="#ff1302" stroke="none" /><path d="M 111.8722381534696 82.67804972795209 l 2.59819905640562 -3.790850071415323 a25.59577878064824,25.59577878064824 0 0,0 0.36029704060905293,0.2515153164234237 l -2.6628911881884334 3.7456899391867724" fill="#ff3a05" stroke="none" /><path d="M 112.16784306229584 82.88440491214696 l 2.689155651509309 -3.782634196036438 a25.64110758107035,25.64110758107035 0 0,0 0.356556682319836,0.25811954113229896 l -2.7536933442031133 3.7359138835310644" fill="#ff3b05" stroke="none" /><path d="M 116.57777611688842 87.10902102172516 l 3.7532975954405066 -2.9185869118320893 a25.754512845903044,25.754512845903044 0 0,0 0.2683963909775708,0.3513394914295371 l -3.802845963772384 2.85372650716167" fill="#ff3c05" stroke="none" /><path d="M 117.42321728460499 88.27688183743584 l 3.9293121630850716 -2.643816582953852 a25.73595399040891,25.73595399040891 0 0,0 0.2434811951883292,0.3686615624026284 l -3.974117797194125 2.575975142212165" fill="#ff3c05" stroke="none" /><line stroke="#e1ed5e" stroke-width="0.3" x1="172.87174338648825" x2="177.1583165268699" y1="56.24261187166439" y2="53.66864786411523" /><path d="M 173.72905801456457 55.72781907015455 a86.0,86.0 0 0,1 12.242430191666344,42.057860355516425" fill="none" id="id123" stroke="none" /><text fill="#e1ed5e" style="font-size:6.75px; font-family:Arial;" text-anchor="middle"><textPath startOffset="22.145653131862474" xlink:href="#id123">March</textPath></text><path d="M 118.53625476483649 90.13048839642627 l 4.169451153262798 -2.219997893842285 a25.72363351331458,25.72363351331458 0 0,0 0.20418676872929706,0.39155505207304964 l -4.206945990967039 2.1480965986647367" fill="#ff3c05" stroke="none" /><path d="M 118.8641267826498 90.77261029715802 l 4.160788258101598 -2.035250036796002 a25.631889640420447,25.631889640420447 0 0,0 0.18994541360627976,0.3969128599767485 l -4.19511292966779 1.9635246747541497" fill="#ff3b05" stroke="none" /><path d="M 119.71291397450082 92.76114493625339 l 4.373285137241697 -1.6059308787062 a25.65882355094086,25.65882355094086 0 0,0 0.14828335538164986,0.41477493599688087 l -4.40020866266729 1.5306209863284024" fill="#ff3b05" stroke="none" /><path d="M 119.94978838288452 93.4421083053983 l 4.409402149216892 -1.449458068302943 a25.641525180938594,25.641525180938594 0 0,0 0.1338674238627057,0.4193377985960178 l -4.4336342888568545 1.3735512360155382" fill="#ff3b05" stroke="none" /><path d="M 120.35273937422433 94.82641323984039 l 6.740653330615188 -1.7134477175225755 a27.955020517886123,27.955020517886123 0 0,0 0.1142328312822685,0.4661089336809059 l -6.769073688413747 1.5974829592335746" fill="#ff5b08" stroke="none" /><path d="M 120.51834098615036 95.52812308129327 l 6.822837055452169 -1.4870055804691054 a27.983000149047506,27.983000149047506 0 0,0 0.09826335661870704,0.47022573315604477 l -6.847358122895243 1.369663396027656" fill="#ff5b08" stroke="none" /><path d="M 120.65975698304385 96.23510406497455 l 4.514983851035119 -0.8227804596839581 a25.589340569182642,25.589340569182642 0 0,0 0.0750440099622136,0.4328339072924477 l -4.528442678489567 0.7451535194709178" fill="#ff3a05" stroke="none" /><path d="M 120.86939407059847 97.66154086499901 l 4.546412883719095 -0.5094350465305197 a25.574865481725176,25.574865481725176 0 0,0 0.04514281314337024,0.43671576690328606 l -4.554488089344131 0.43131475734430225" fill="#ff3a05" stroke="none" /><path d="M 120.93736805541906 98.37931529534042 l 4.561943939379681 -0.35312331265789204 a25.57559051707924,25.57559051707924 0 0,0 0.030125657155087606,0.4380204433620763 l -4.567333557699834 0.27475944514148154" fill="#ff3a05" stroke="none" /><path d="M 120.98066250479742 99.09900007780936 l 0.8111408270176588 -0.034833877236309894 a21.811888440771394,21.811888440771394 0 0,0 0.01285375936401791,0.3742231792017247 l -0.8116192733785248 0.020904433470465233" fill="#ff0400" stroke="none" /><line stroke="#e1ed5e" stroke-width="0.3" x1="184.99686870605535" x2="189.99668451229388" y1="99.2704041080226" y2="99.22748670261217" /><path d="M 185.99683186730306 99.26182062694052 a86.0,86.0 0 0,1 -10.086455211305974,41.156179273409016" fill="none" id="id124" stroke="none" /><text fill="#e1ed5e" style="font-size:6.75px; font-family:Arial;" text-anchor="middle"><textPath startOffset="21.40746469413373" xlink:href="#id124">April</textPath></text><path d="M 120.99922638620191 99.81974689727618 l 4.6359793938732645 -0.03979430739688932 a25.636150183861467,25.636150183861467 0 0,0 0.0,0.4400948202414318 l -4.6359793938732645 -0.03979430739688876" fill="#ff3b05" stroke="none" /><path d="M 120.99303781780057 100.54070618675476 l 4.613386644855898 0.11882447516243694 a25.614916639640676,25.614916639640676 0 0,0 -0.015094886236440766,0.439471142808336 l -4.610667071622611 -0.19800188253488366" fill="#ff3a05" stroke="none" /><path d="M 120.86939407059847 102.33845913500097 l 4.681691026233716 0.5245932445624857 a25.71099022896014,25.71099022896014 0 0,0 -0.052913112280658564,0.43819647502406156 l -4.671995827693394 -0.6048833965099558" fill="#ff3c05" stroke="none" /><path d="M 120.77682067341334 103.0534771498775 l 4.541623937556239 0.6674623194110825 a25.590408907495874,25.590408907495874 0 0,0 -0.0676056048456885,0.4340764800979384 l -4.529496840572284 -0.7453269814404715" fill="#ff3a05" stroke="none" /><path d="M 120.65975698304385 103.76489593502545 l 4.63872298746985 0.8453298523098742 a25.715117550357302,25.715117550357302 0 0,0 -0.08286844519203797,0.4336027221165865 l -4.623528249995653 -0.9248351394597752" fill="#ff3c05" stroke="none" /><path d="M 120.43855184770803 104.8234425847677 l 4.519533090679827 1.0665975033498523 a25.643684915226494,25.643684915226494 0 0,0 -0.1047880015148732,0.4275708051738903 l -4.500557562648658 -1.1440241331318421" fill="#ff3b05" stroke="none" /><path d="M 120.26092885502905 105.52220625578681 l 4.545034084309302 1.2387692505473282 a25.7108262633677,25.7108262633677 0 0,0 -0.11971635057336157,0.4248310944426197 l -4.523099241661361 -1.3166082688929563" fill="#ff3c05" stroke="none" /><path d="M 119.94978838288452 106.5578916946017 l 13.299182044408573 4.371705293317634 a34.99928748979536,34.99928748979536 0 0,0 -0.19252037807863384,0.5691522891601227 l -13.222176244757573 -4.599359256951917" fill="#ffb811" stroke="none" /><path d="M 119.4528033332814 107.91128576633889 l 4.341815724245618 1.7657786567205527 a25.68714604507224,25.68714604507224 0 0,0 -0.16962587066992135,0.407040339477814 l -4.310864009039211 -1.8400515056396445" fill="#ff3b05" stroke="none" /><path d="M 118.8641267826498 109.22738970284198 l 4.20380583391439 2.0562920887642515 a25.67977784126203,25.67977784126203 0 0,0 -0.19709851529324035,0.394329061647578 l -4.1678874054094175 -2.1281530065755754" fill="#ff3b05" stroke="none" /><path d="M 118.5362547648365 109.86951160357373 l 4.179242971428339 2.225211485489083 a25.734726810428,25.734726810428 0 0,0 -0.21096918556161884,0.38815953947879084 l -4.140428436251382 -2.2966258584424772" fill="#ff3c05" stroke="none" /><line stroke="#e1ed5e" stroke-width="0.3" x1="174.33088141563837" x2="178.70328620479359" y1="141.23008692659167" y2="143.65538615756765" /><path d="M 175.20536237346943 141.71514677278685 a86.0,86.0 0 0,1 -30.301960400862466,31.631185727798858" fill="none" id="id125" stroke="none" /><text fill="#e1ed5e" style="font-size:6.75px; font-family:Arial;" text-anchor="middle"><textPath startOffset="22.145653131862474" xlink:href="#id125">May</textPath></text><path d="M 118.00360718960297 110.81064883170644 l 12.088809036511723 7.258982486729636 a35.1007847534772,35.1007847534772 0 0,0 -0.3146234363504624,0.513913738409299 l -11.962417635705856 -7.465433341263492" fill="#ffb911" stroke="none" /><path d="M 117.423217284605 111.72311816256416 l 2.094080756164206 1.4089909886020935 a23.523971041691873,23.523971041691873 0 0,0 -0.22830603472171443,0.33310532766749124 l -2.0695849846271708 -1.4447310513396288" fill="#ff1d02" stroke="none" /><path d="M 117.21940702142032 112.02048342749411 l 1.0567693504597102 0.7377070794646262 a22.288787490303683,22.288787490303683 0 0,0 -0.2217043418475586,0.3118549216039782 l -1.043949910082191 -0.7557392277781084" fill="#ff0b01" stroke="none" /><path d="M 117.01052211995028 112.31430620078461 l 1.1906371091793935 0.8619294477302569 a22.469877239302537,22.469877239302537 0 0,0 -0.22886958865172005,0.31050555268325963 l -1.1756655009438453 -0.8822413096823939" fill="#ff0e01" stroke="none" /><path d="M 116.57777611688842 112.89097897827486 l 3.697831657644669 2.875456263119321 a25.684251027580743,25.684251027580743 0 0,0 -0.27363948374756086,0.3457345486183756 l -3.6479257432555463 -2.9385107556523793" fill="#ff3b05" stroke="none" /><path d="M 116.35404254752997 113.17365903436017 l 3.594064298742291 2.8951237886041064 a25.61508829112026,25.61508829112026 0 0,0 -0.2787814240199487,0.3400680080788562 l -3.5438360554837147 -2.9563940783814555" fill="#ff3a05" stroke="none" /><path d="M 115.6541949942343 113.99807769240083 l 5.297916635689515 4.737429724208702 a28.107120448573518,28.107120448573518 0 0,0 -0.3247072401684833,0.3569101372813883 l -5.215811694679152 -4.827677437047761" fill="#ff5d08" stroke="none" /><path d="M 115.16444852881244 114.52719865689866 l 3.46230084194683 3.316805886171449 a25.79465623446429,25.79465623446429 0 0,0 -0.309060760398516,0.3171235669358165 l -3.4048532803975067 -3.375752145175003" fill="#ff3d05" stroke="none" /><path d="M 113.86319453409587 115.77377054828091 l 3.0890016399259843 3.5147168260258197 a25.67922701934993,25.67922701934993 0 0,0 -0.33361047974794206,0.2881647867085891 l -3.0282116804151866 -3.5672257451991265" fill="#ff3b05" stroke="none" /><path d="M 113.59037401385872 116.0094264158162 l 1.4795903984632437 1.7429537690125632 a23.286279857790756,23.286279857790756 0 0,0 -0.30696380602501805,0.2560801245321525 l -1.4494522582763307 -1.768096077456586" fill="#ff1a02" stroke="none" /><path d="M 113.03279911837588 116.46651593811092 l 4.435714672531213 5.604380585377265 a28.147352405042184,28.147352405042184 0 0,0 -0.38145031330107754,0.296618070804513 l -4.338854414594905 -5.679699707802571" fill="#ff5d08" stroke="none" /><path d="M 111.8722381534696 117.32195027204791 l 2.6885859459047983 3.9227272444395447 a25.755658043087735,25.755658043087735 0 0,0 -0.3668387106281816,0.24682545600213027 l -2.6208509471796138 -3.968302374498796" fill="#ff3c05" stroke="none" /><path d="M 110.96478420261333 117.91015095944535 l 2.4189260072585426 3.951133843509961 a25.63278120332933,25.63278120332933 0 0,0 -0.37725014420377856,0.22652787231732716 l -2.3507431064973274 -3.9920757163632117" fill="#ff3b05" stroke="none" /><line stroke="#e1ed5e" stroke-width="0.3" x1="143.1302829299769" x2="145.66735839644613" y1="173.24464959558577" y2="177.55315839532614" /><path d="M 143.63769802327073 174.10635135553383 a86.0,86.0 0 0,1 -40.68552437913181,11.842963189579606" fill="none" id="id126" stroke="none" /><text fill="#e1ed5e" style="font-size:6.75px; font-family:Arial;" text-anchor="middle"><textPath startOffset="21.407464694133747" xlink:href="#id126">June</textPath></text><path d="M 110.34350942703117 118.27599006163325 l 10.333269972500709 18.25789792660353 a41.97921125835903,41.97921125835903 0 0,0 -0.6301995393247998,0.3495610611983521 l -10.018326245019814 -18.432591903235025" fill="#f0ff19" stroke="none" /><path d="M 109.3889696526874 118.78422872680471 l 2.0606202610267013 4.122620876842912 a25.608921647667138,25.608921647667138 0 0,0 -0.3949136572879867,0.19317205915528496 l -1.9895463544766452 -4.15738668609542" fill="#ff3a05" stroke="none" /><path d="M 109.06512990194946 118.94263497670748 l 2.0433962790129128 4.269912317282944 a25.733668719964296,25.733668719964296 0 0,0 -0.4001111081219111,0.18727220139525844 l -1.9697964570194955 -4.304360750248736" fill="#ff3c05" stroke="none" /><path d="M 107.407793817531 119.65005319985036 l 1.6544805137627212 4.388706126865309 a25.69020759011855,25.69020759011855 0 0,0 -0.41399261641683827,0.15202382314351054 l -1.578898745691756 -4.416460799017542" fill="#ff3b05" stroke="none" /><path d="M 107.06938296918513 119.77432235084164 l 2.35104042231566 6.5762784918253745 a27.983897899411705,27.983897899411705 0 0,0 -0.453731224306244,0.15783127285937387 l -2.237803425964394 -6.615668197253339" fill="#ff5b08" stroke="none" /><path d="M 106.72888874123015 119.89276391827305 l 1.4848621951780265 4.3897312373224295 a25.63406474648264,25.63406474648264 0 0,0 -0.41805163415886204,0.13742187570857128 l -1.4092878233714303 -4.41457403443302" fill="#ff3b05" stroke="none" /><path d="M 106.38641147887787 120.00534299687104 l 1.417689969489281 4.4408936374766625 a25.661692948808536,25.661692948808536 0 0,0 -0.420802111585448,0.13036556983033662 l -1.3412472250322087 -4.464575795113644" fill="#ff3b05" stroke="none" /><path d="M 105.3480935250658 120.30758222061773 l 1.1827090031668381 4.490938726539917 a25.64406408565901,25.64406408565901 0 0,0 -0.42666191674847376,0.10845579078901352 l -1.105441793192967 -4.5105797491642" fill="#ff3b05" stroke="none" /><path d="M 104.9986988182912 120.39639698878246 l 1.1119730971416095 4.537229698087599 a25.67150270276865,25.67150270276865 0 0,0 -0.4289192792181575,0.101223782008838 l -1.033921664183573 -4.555649623742663" fill="#ff3b05" stroke="none" /><path d="M 104.64783097203109 120.47920084513623 l 1.035863164812156 4.564204233743106 a25.680274861964108,25.680274861964108 0 0,0 -0.4307408551397425,0.0938779645656334 l -0.9573598930532775 -4.581313656442458" fill="#ff3b05" stroke="none" /><path d="M 104.29559338865022 120.5559693870025 l 0.9402479349816719 4.499426742471272 a25.596619104309486,25.596619104309486 0 0,0 -0.4308807053285147,0.08618820858365 l -0.8628707441221986 -4.514904347717783" fill="#ff3a05" stroke="none" /><path d="M 103.94208987418118 120.62667999033965 l 0.8560920653290551 4.4794354358750486 a25.560508244537274,25.560508244537274 0 0,0 -0.43168687938662914,0.07866772967080378 l -0.7790704523913689 -4.493471339477216" fill="#ff3a05" stroke="none" /><path d="M 103.58742460773223 120.69131181640829 l 3.0957131318788966 17.85525069092607 a39.12162843208919,39.12162843208919 0 0,0 -0.6626877785948899,0.10904502178551051 l -2.788747850230935 -17.90576171120725" fill="#ffec16" stroke="none" /><path d="M 102.875027216393 120.80226474461374 l 0.6382234750716362 4.617867134949857 a25.661762121792844,25.661762121792844 0 0,0 -0.4368880518049607,0.05656390510966492 l -0.5588576013759001 -4.628142636259916" fill="#ff3b05" stroke="none" /><path d="M 102.15924093988457 120.88869738790638 l 0.4899827748596905 4.74013887022627 a25.765396062101154,25.765396062101154 0 0,0 -0.44034342363076723,0.04170098004116529 l -0.408539787843908 -4.7478516057726186" fill="#ff3d05" stroke="none" /><path d="M 101.44090949804482 120.95050786540614 l 0.47180144064716983 6.859889400826923 a27.876094763088588,27.876094763088588 0 0,0 -0.47768429242800187,0.02873630083773029 l -0.35397279608670285 -6.866977679489345" fill="#ff5a08" stroke="none" /><path d="M 100.72087961077811 120.9876233191556 l 0.9546803557061124 27.794476908745125 a48.81086768175954,48.81086768175954 0 0,0 -0.8376565162457502,0.021575060486268612 l -0.47741052538961837 -27.80676968658144" fill="#a2ff22" stroke="none" /><line stroke="#e1ed5e" stroke-width="0.3" x1="101.45913802915013" x2="101.54496967792366" y1="184.9874750549273" y2="189.98673829345242" /><path d="M 101.47630435890484 185.9873277026323 a86.0,86.0 0 0,1 -42.54439059252881,-10.42667462771756" fill="none" id="id127" stroke="none" /><text fill="#e1ed5e" style="font-size:6.75px; font-family:Arial;" text-anchor="middle"><textPath startOffset="22.145653131862474" xlink:href="#id127">July</textPath></text><path d="M 99.27912038922189 120.98762331915562 l -0.15865937128337254 4.619194482356432 a25.621918482830278,25.621918482830278 0 0,0 -0.4394454762619384,-0.01887167956819881 l 0.23793060814614972 -4.615790234362405" fill="#ff3b05" stroke="none" /><path d="M 98.55909050195518 120.95050786540614 l -1.762972849552818 25.633238313142748 a46.693792629478224,46.693792629478224 0 0,0 -0.7991998486938109,-0.061863122781999506 l 2.2027416930218653 -25.59919742336569" fill="#b9ff1f" stroke="none" /><path d="M 97.84075906011543 120.88869738790638 l -0.4788331106672978 4.63227598332485 a25.65695844232687,25.65695844232687 0 0,0 -0.4377127182859999,-0.0490466230653079 l 0.558281730554097 -4.623373599752571" fill="#ff3b05" stroke="none" /><path d="M 97.12497278360702 120.80226474461374 l -0.6535957151290768 4.729093006332702 a25.77404524710229,25.77404524710229 0 0,0 -0.4377597555510933,-0.06433560898091158 l 0.7346805762878551 -4.717176324052908" fill="#ff3d05" stroke="none" /><path d="M 96.41257539226777 120.69131181640829 l -0.8221523283714055 4.7419561515670505 a25.812700135519677,25.812700135519677 0 0,0 -0.4359461033967023,-0.07944390216765305 l 0.903433165319165 -4.727144075468032" fill="#ff3d05" stroke="none" /><line stroke="#e1ed5e" stroke-width="0.3" x1="58.13341422392154" x2="55.67067388415222" y1="173.97424548756322" y2="178.32567169271397" /><path d="M 57.64086615596768 174.84453072859336 a86.0,86.0 0 0,1 -31.369924170532247,-30.572349798747897" fill="none" id="id128" stroke="none" /><text fill="#e1ed5e" style="font-size:6.75px; font-family:Arial;" text-anchor="middle"><textPath startOffset="22.145653131862474" xlink:href="#id128">August</textPath></text><path d="M 89.65649057296885 118.27599006163327 l -1.147308781843489 2.0271846845132697 a23.329333635617783,23.329333635617783 0 0,0 -0.34683779432559986,-0.20024689391902264 l 1.1819390440294886 -2.0071908933180755" fill="#ff1a02" stroke="none" /><path d="M 87.83215693770417 117.11559508785305 l -2.7743292293062862 3.9024414997872654 a25.788105296653896,25.788105296653896 0 0,0 -0.3586007834809028,-0.2595993127363238 l 2.840911023161143 -3.854241415677876" fill="#ff3d05" stroke="none" /><path d="M 87.54013794807813 116.9041958592261 l -2.8657400237728914 3.8879267235553496 a25.829952390199068,25.829952390199068 0 0,0 -0.3546661699186242,-0.2661481059007361 l 2.932059182602282 -3.8381595903905987" fill="#ff3d05" stroke="none" /><path d="M 87.2517909369889 116.68781488649013 l -2.8912491951196975 3.784738006757698 a25.762726497299266,25.762726497299266 0 0,0 -0.349134083819708,-0.27148877529683113 l 2.955793223574634 -3.7345481798400737" fill="#ff3c05" stroke="none" /><path d="M 86.40962598614128 116.0094264158162 l -3.006568131644645 3.5417296991693594 a25.64578316241723,25.64578316241723 0 0,0 -0.333175995440928,-0.28778948951243094 l 3.0669236068484356 -3.489596077192206" fill="#ff3b05" stroke="none" /><path d="M 85.86807049272751 115.53346607816431 l -3.0847182641995436 3.390645735458774 a25.583881027346916,25.583881027346916 0 0,0 -0.32232063114673465,-0.2983351642218012 l 3.1424686666602457 -3.3371928251045957" fill="#ff3a05" stroke="none" /><path d="M 85.34317274990678 115.03919595460226 l -3.392084842141677 3.480577874401866 a25.860109249395855,25.860109249395855 0 0,0 -0.3152569959127252,-0.3125625078651145 l 3.4513337581843646 -3.421835356308092" fill="#ff3e05" stroke="none" /><path d="M 84.83555147118756 114.52719865689866 l -11.460753814184345 10.979142901248876 a36.87105720597669,36.87105720597669 0 0,0 -0.4339269853540015,-0.4608154211706585 l 11.6475366332746 -10.780786020133727" fill="#ffd013" stroke="none" /><path d="M 84.3458050057657 113.99807769240083 l -1.7406647573463607 1.556513159490652 a23.335090365089805,23.335090365089805 0 0,0 -0.2644520632579915,-0.3008979031919116 l 1.7671278845629448 -1.5264029784874402" fill="#ff1a02" stroke="none" /><path d="M 84.1078160697243 113.72728997021213 l -1.7515746867981157 1.5129684966932089 a23.314538302862587,23.314538302862587 0 0,0 -0.2590194540656909,-0.30512426559423006 l 1.7772887043709187 -1.4826774486494245" fill="#ff1a02" stroke="none" /><path d="M 83.64595745247003 113.17365903436017 l -3.666951626159622 2.9538366601483195 a25.70868190085409,25.70868190085409 0 0,0 -0.27389976977041747,-0.3460634115053843 l 3.717117826571601 -2.8904533047282546" fill="#ff3c05" stroke="none" /><path d="M 83.20337586046588 112.60449989151573 l -29.254895157324327 21.95341872113989 a57.57596867086002,57.57596867086002 0 0,0 -0.586446829485791,-0.7956277545722013 l 29.62744400639395 -21.44798465729881" fill="#46ff2c" stroke="none" /><path d="M 82.37810715431573 111.42229804090323 l -3.8516693967457845 2.496605568421155 a25.590032299025744,25.590032299025744 0 0,0 -0.2357723105039779,-0.37067323285213033 l 3.8939593988756522 -2.430118660890353" fill="#ff3a05" stroke="none" /><path d="M 81.99639281039703 110.81064883170644 l -8.325615650982009 4.999292984047295 a30.71127212615428,30.71127212615428 0 0,0 -0.2675190032015434,-0.4543057526765914 l 8.410208364313322 -4.855636063077145" fill="#ff800b" stroke="none" /><line stroke="#e1ed5e" stroke-width="0.3" x1="26.387840678322732" x2="22.057713659400548" y1="142.50000000000003" y2="145.00000000000006" /><path d="M 25.521815274538298 143.00000000000003 a86.0,86.0 0 0,1 -11.493303480769221,-40.785679425670985" fill="none" id="id129" stroke="none" /><text fill="#e1ed5e" style="font-size:6.75px; font-family:Arial;" text-anchor="middle"><textPath startOffset="21.40746469413373" xlink:href="#id129">September</textPath></text><path d="M 81.29705330413844 109.54985784667822 l -3.8428418472720063 1.962182428549315 a25.31481092819287,25.31481092819287 0 0,0 -0.19429730583021884,-0.38872476626570956 l 3.8759590663139623 -1.8959258061198525" fill="#ff3605" stroke="none" /><path d="M 80.68587082218212 108.24405325689762 l -28.669531024968492 12.237317998865228 a52.17200604704455,52.17200604704455 0 0,0 -0.34451947035291774,-0.8267213109375862 l 28.875376339857898 -11.743364178486361" fill="#7eff26" stroke="none" /><path d="M 79.83685265289637 105.86919833188381 l -3.728655398736255 1.0853572445660853 a24.883409768599897,24.883409768599897 0 0,0 -0.11586368235714035,-0.411159334094236 l 3.7467375731679704 -1.0211899865688536" fill="#ff3004" stroke="none" /><path d="M 79.64726062577567 105.17358676015961 l -11.040160322461407 2.806365581758576 a32.391261024317295,32.391261024317295 0 0,0 -0.13236067751204963,-0.5400767324411134 l 11.08670852648975 -2.616433024709363" fill="#ff960d" stroke="none" /><path d="M 79.48165901384964 104.47187691870673 l -4.5300350595540415 0.9873000569308079 a25.636375636551072,25.636375636551072 0 0,0 -0.0900230964574146,-0.4307931052764963 l 4.546315866835823 -0.9093905003689026" fill="#ff3b05" stroke="none" /><path d="M 79.06263194458094 101.62068470465958 l -4.748608638415661 0.36757234091334107 a25.76281360402025,25.76281360402025 0 0,0 -0.030346188466962316,-0.44122692023675353 l 4.754218788047689 -0.28600199652224423" fill="#ff3c05" stroke="none" /><path d="M 79.03789590574601 101.26102812881392 l -26.2329164722503 1.5781071128924231 a47.280341106991415,47.280341106991415 0 0,0 -0.041783237185563336,-0.8105836389184073 l 26.256141298892437 -1.127551680597285" fill="#b3ff20" stroke="none" /><line stroke="#e1ed5e" stroke-width="0.3" x1="15.003131293944662" x2="10.003315487706104" y1="100.72959589197737" y2="100.7725132973878" /><path d="M 14.003168132696942 100.73817937305945 a86.0,86.0 0 0,1 10.791469493833604,-42.45332614584628" fill="none" id="id130" stroke="none" /><text fill="#e1ed5e" style="font-size:6.75px; font-family:Arial;" text-anchor="middle"><textPath startOffset="22.145653131862435" xlink:href="#id130">October</textPath></text><path d="M 79.13060592940154 97.66154086499901 l -2.5677055807123526 -0.28771676604013835 a23.58377492957145,23.58377492957145 0 0,0 0.04853531193226742,-0.4019420080622935 l 2.562388182520417 0.33175245102586814" fill="#ff1e03" stroke="none" /><path d="M 79.22317932658666 96.9465228501225 l -4.527333102168623 -0.6653620587410476 a25.575964563586993,25.575964563586993 0 0,0 0.06756744529106438,-0.43383146838343484 l 4.515244164739292 0.7429817090559324" fill="#ff3a05" stroke="none" /><path d="M 79.34024301695615 96.23510406497455 l -4.504990253529035 -0.8209592933141001 a25.579182388338598,25.579182388338598 0 0,0 0.08243038631475078,-0.43131061296455775 l 4.490233574932125 0.8981724713119724" fill="#ff3a05" stroke="none" /><path d="M 79.48165901384962 95.52812308129327 l -4.181284111430021 -0.9112914109907868 a25.279437913586634,25.279437913586634 0 0,0 0.09604878911579326,-0.42320868703512254 l 4.165024460756566 0.9829344319649175" fill="#ff3605" stroke="none" /><path d="M 79.64726062577567 94.8264132398404 l -4.421292825635923 -1.1238753469455454 a25.56189939011062,25.56189939011062 0 0,0 0.11175482164873447,-0.42435126060257095 l 4.401348523182464 1.1996071119209009" fill="#ff3a05" stroke="none" /><path d="M 79.83685265289637 94.1308016681162 l -4.387260418846261 -1.2770675673076972 a25.569349576717048,25.569349576717048 0 0,0 0.12629271586717744,-0.42038737664208803 l 4.364691382975454 1.3521925475405088" fill="#ff3a05" stroke="none" /><path d="M 80.41425534168474 92.42381321644754 l -4.238580857181804 -1.6395741306453584 a25.544642011506465,25.544642011506465 0 0,0 0.1617113598345474,-0.4076182644618569 l 4.209810822381126 1.712093412320798" fill="#ff3905" stroke="none" /><path d="M 80.5471966667186 92.08871423366112 l -4.273578898772167 -1.7380273338464496 a25.613481940706837,25.613481940706837 0 0,0 0.16913942745750854,-0.4058730528514534 l 4.24311362677818 1.8111328961391668" fill="#ff3a05" stroke="none" /><path d="M 80.83023694016515 91.42560881287825 l -23.951721680693623 -10.713300454173764 a47.23851707110767,47.23851707110767 0 0,0 0.3374529246607727,-0.7373955409404489 l 23.764284291177805 11.122884977328884" fill="#b3ff20" stroke="none" /><path d="M 81.29705330413844 90.45014215332179 l -4.165950220040893 -2.1271638659234116 a25.677602735199837,25.677602735199837 0 0,0 0.20382138971546787,-0.3908543896370067 l 4.128820761350485 2.1983644986649047" fill="#ff3b05" stroke="none" /><path d="M 81.46374523516351 90.13048839642627 l -3.9607565271137757 -2.108879760189496 a25.48720025294295,25.48720025294295 0 0,0 0.20894000232518767,-0.38442607087543484 l 3.9239711751732376 2.1765606645395508" fill="#ff3905" stroke="none" /><path d="M 81.63589988554816 89.8137432299009 l -4.107216934655143 -2.278203998352874 a25.696748280079422,25.696748280079422 0 0,0 0.2172802439041251,-0.38391337158773237 l 4.067503325729649 2.3483741400397116" fill="#ff3c05" stroke="none" /><line stroke="#e1ed5e" stroke-width="0.3" x1="26.387840678322718" x2="22.05771365940052" y1="57.49999999999999" y2="54.99999999999999" /><path d="M 25.521815274538284 56.99999999999999 a86.0,86.0 0 0,1 29.574782752854787,-30.34633250058573" fill="none" id="id131" stroke="none" /><text fill="#e1ed5e" style="font-size:6.75px; font-family:Arial;" text-anchor="middle"><textPath startOffset="21.40746469413373" xlink:href="#id131">November</textPath></text><path d="M 82.18462484594161 88.88188828441811 l -23.45534531732024 -14.63787022784703 a48.64815488892572,48.64815488892572 0 0,0 0.4482170145738379,-0.7046715937773864 l 23.20061061112051 15.038355496303089" fill="#a4ff21" stroke="none" /><path d="M 84.10781606972428 86.27271002978789 l -3.5239102364316595 -3.0438697322361588 a25.656510098910047,25.656510098910047 0 0,0 0.29076026385596326,-0.3308318061426298 l 3.4711389086171036 3.1039138161900883" fill="#ff3b05" stroke="none" /><path d="M 86.68645165197937 83.75963576809568 l -3.0026245351868175 -3.6627137130077103 a25.736161509361835,25.736161509361835 0 0,0 0.3440670246555389,-0.27715603983575393 l 2.939306740176033 3.7137180466368633" fill="#ff3c05" stroke="none" /><path d="M 87.54013794807813 83.09580414077388 l -2.7365954747969075 -3.7127173399406477 a25.612290628199275,25.612290628199275 0 0,0 0.35615596339309735,-0.2578294515318969 l 2.6724585010298423 3.759147562845624" fill="#ff3a05" stroke="none" /><path d="M 88.12776184653039 82.6780497279521 l -2.575160936633584 -3.7572367661653683 a25.555028207002493,25.555028207002493 0 0,0 0.3639811330714564,-0.2449027502923339 l 2.510283515465138 3.8008891905148117" fill="#ff3a05" stroke="none" /><path d="M 88.72937992617638 82.28071324371311 l -2.5180745598138676 -3.9588314490948617 a25.691806254644828,25.691806254644828 0 0,0 0.3741655213740749,-0.23350695849973457 l 2.4497449096500943 4.001474204436132" fill="#ff3c05" stroke="none" /><path d="M 89.03521579738668 82.08984904055464 l -0.4682696719122687 -0.7648833172366307 a21.896840551391236,21.896840551391236 0 0,0 0.3222664833009467,-0.19351176375406975 l 0.45507043205388775 0.7728090815266239" fill="#ff0600" stroke="none" /><line stroke="#e1ed5e" stroke-width="0.3" x1="56.869717070023135" x2="54.33264160355391" y1="26.7553504044142" y2="22.446841604673864" /><path d="M 56.362301976729285 25.89364864446614 a86.0,86.0 0 0,1 42.16139366436587,-11.88097634709845" fill="none" id="id132" stroke="none" /><text fill="#e1ed5e" style="font-size:6.75px; font-family:Arial;" text-anchor="middle"><textPath startOffset="22.145653131862474" xlink:href="#id132">December</textPath></text><path d="M 89.65649057296885 81.72400993836675 l -2.279423150756282 -4.027522297278523 a25.62781868219568,25.62781868219568 0 0,0 0.38472946592589524,-0.21340294936969104 l 2.2099494966742843 4.06605816208136" fill="#ff3b05" stroke="none" /><path d="M 90.28995756902619 81.37971332152246 l -2.124640257774857 -4.074277838602054 a25.5949794483851,25.5949794483851 0 0,0 0.3913262457941317,-0.19981396941237964 l 2.054386790267143 4.110149759687268" fill="#ff3a05" stroke="none" /><path d="M 90.61103034731259 81.2157712731953 l -2.0777067518977783 -4.156805304371533 a25.64713844051723,25.64713844051723 0 0,0 0.39550299617708173,-0.19346033433809132 l 2.0060435064586435 4.191859388806838" fill="#ff3b05" stroke="none" /><path d="M 90.93487009805054 81.0573650232925 l -1.970399395150752 -4.117376905171461 a25.56456639295013,25.56456639295013 0 0,0 0.3974818786799523,-0.18604158925884248 l 1.8994288025992772 4.150594726000846" fill="#ff3a05" stroke="none" /><path d="M 91.92203290615298 80.6158196554323 l -0.35110615618326485 -0.8425269591316364 a21.912758023669685,21.912758023669685 0 0,0 0.34846037071513636,-0.14171579919565366 l 0.3365913242776877 0.8484300149065814" fill="#ff0600" stroke="none" /><path d="M 92.25597844496254 80.48000691201159 l -1.6838919305784006 -4.244507664680796 a25.566326461106463,25.566326461106463 0 0,0 0.40933848106522086,-0.15834091806813713 l 1.6107811870196505 4.272788470886974" fill="#ff3a05" stroke="none" /><path d="M 92.592206182469 80.34994680014964 l -0.4661243444509495 -1.2364502025596782 a22.321393585537518,22.321393585537518 0 0,0 0.3597048447401847,-0.1320886014198528 l 0.44483034805663785 1.2442696529882529" fill="#ff0c01" stroke="none" /><path d="M 92.93061703081487 80.22567764915836 l -1.5802933306704636 -4.4203617014067325 a25.694350283290007,25.694350283290007 0 0,0 0.4166084744054312,-0.1449180534135557 l 1.5041790842200282 4.446838187388874" fill="#ff3c05" stroke="none" /><path d="M 93.95794788825049 79.88797359093562 l -1.574873575818755 -5.242241934029452 a26.47369411592473,26.47369411592473 0 0,0 0.43636210254756436,-0.12701864844217495 l 1.4846514608895665 5.268504276774148" fill="#ff4606" stroke="none" /><path d="M 95.00130118170881 79.60360301121753 l -1.1104735195123139 -4.531110909627968 a25.66520283727167,25.66520283727167 0 0,0 0.4288140211115222,-0.10119894138227423 l 1.0325273446608858 4.5495059946564735" fill="#ff3b05" stroke="none" /><path d="M 95.70440661134978 79.44403061299748 l -0.959825570409933 -4.593112815179313 a25.692328894970725,25.692328894970725 0 0,0 0.43249183615553277,-0.08651047987140274 l 0.8808372487234235 4.608912691713582" fill="#ff3c05" stroke="none" /><path d="M 97.48249496171623 79.15144685158666 l -0.5400986477470198 -4.472791589968862 a25.505282583434067,25.505282583434067 0 0,0 0.43512509853194486,-0.048756674874607726 l 0.46323764761427566 4.48140402535044" fill="#ff3905" stroke="none" /><path d="M 98.1996594967304 79.07731436759882 l -5.4010215098087775 -62.76805689720356 a84.0,84.0 0 0,0 1.4377240208991313,-0.1112889320197854 l 4.322728494134429 62.8515235962184" fill="#4dd2ff" stroke="none" /><path d="M 98.5590905019552 79.04949213459386 l -2.1232324958803286 -30.871334504620908 a51.94426296307216,51.94426296307216 0 0,0 0.8901160191227124,-0.053547169357357545 l 1.5929721246251325 30.903233651802957" fill="#80ff25" stroke="none" /><path d="M 98.9189461498227 79.02784411241856 l -1.3680716520645102 -26.540224566771194 a47.575461239644135,47.575461239644135 0 0,0 0.8159740745739996,-0.0350414376825638 l 0.9122718168896906 26.559798572879586" fill="#afff20" stroke="none" /></svg>