<?xml version="1.0" encoding="utf-8" ?>
<svg baseProfile="full" height="200mm" version="1.1" viewBox="0,0,200,200" width="200mm" xmlns="http://www.w3.org/2000/svg" xmlns:ev="http://www.w3.org/2001/xml-events" xmlns:xlink="http://www.w3.org/1999/xlink"><defs /><rect fill="#1a1a1a" height="200" width="200" x="0" y="0" /><text alignment-baseline="middle" fill="#e1ed5e" style="dominant-baseline: central; font-size:9.0px; font-family:Arial;" text-anchor="middle" x="100.0" y="100.0">2024</text><line stroke="#e1ed5e" stroke-width="0.3" x1="100.0" x2="100.0" y1="15.0" y2="10.0" /><path d="M 100.0 14.0 a86.0,86.0 0 0,1 42.35913384403234,11.155469271406648" fill="none" id="id121" stroke="none" /><text fill="#e1ed5e" style="font-size:6.75px; font-family:Arial;" text-anchor="middle"><textPath startOffset="22.145653131862478" xlink:href="#id121">January</textPath></text><path d="M 100.0 79.0 l 0.0 -0.9399782134720098 a21.93997821347201,21.93997821347201 0 0,0 0.37662890082355605,0.0032329061414147174 l -0.01613597597470124 0.93983970552503" fill="#ff0000" stroke="none" /><path d="M 100.72087961077811 79.0123766808444 l 0.574341482194769 -16.721325592574665 a37.73118638085961,37.73118638085961 0 0,0 0.6471333979216284,0.02779069255038887 l -0.8613006407172337 16.709002331598445" fill="#ffd614" stroke="none" /><path d="M 101.44090949804482 79.04949213459386 l 1.1250336229350764 -16.357741966535784 a37.39638444586185,37.39638444586185 0 0,0 0.6400676215784736,0.049545281980729515 l -1.4056702392887837 16.33601891756" fill="#ffd213" stroke="none" /><path d="M 102.15924093988457 79.11130261209362 l 0.11683268796463862 -1.1302502739872529 a22.136272660423238,22.136272660423238 0 0,0 0.3776491317431174,0.04231637291252494 l -0.1362177213085527 1.1280781405677571" fill="#ff0300" stroke="none" /><path d="M 102.51750503828377 79.15144685158666 l 1.929696251543013 -15.98065316604687 a37.09673890068119,37.09673890068119 0 0,0 0.6315669948819113,0.0817689918991986 l -2.203741068315716 15.945172577947275" fill="#ffce13" stroke="none" /><path d="M 103.23170211078529 79.25015418208739 l 2.4537660848393923 -15.754938477689135 a36.94487549135702,36.94487549135702 0 0,0 0.6258153980561398,0.10297768559944936 l -2.7238589859486027 15.710494793594018" fill="#ffcd13" stroke="none" /><path d="M 103.94208987418118 79.37332000966035 l 2.9853170445689106 -15.620440252093411 a36.903152880036515,36.903152880036515 0 0,0 0.6212092494324427,0.12425924786619663 l -3.25302277953231 15.566891607564356" fill="#ffcc13" stroke="none" /><path d="M 104.64783097203109 79.52079915486377 l 0.557461142591278 -2.4562766527408826 a23.518741336520907,23.518741336520907 0 0,0 0.3929509580711348,0.09273535615480044 l -0.5995442544022977 2.4463451529398546" fill="#ff1702" stroke="none" /><path d="M 105.3480935250658 79.69241777938227 l 4.06146174955128 -15.422031800367913 a36.9478693371443,36.9478693371443 0 0,0 0.6119598167282643,0.16679236931371832 l -4.3256029672142375 15.350038936910051" fill="#ffcd13" stroke="none" /><path d="M 105.69591212413111 79.78721728523813 l 0.7599352824733033 -2.696742226207929 a23.80177091643137,23.80177091643137 0 0,0 0.39232117572902103,0.11419897650464021 l -0.8061164705839288 2.683299555400773" fill="#ff1b02" stroke="none" /><path d="M 106.38641147887787 79.99465700312896 l 4.852190210325066 -15.199416724815915 a36.95512515186854,36.95512515186854 0 0,0 0.6026804805665237,0.1981130447176352 l -5.112393428539332 15.11388275869626" fill="#ffcd13" stroke="none" /><path d="M 107.06938296918511 80.22567764915836 l 1.5976168660338368 -4.468818713005168 a25.745810820117143,25.745810820117143 0 0,0 0.41488865147563136,0.15235285962847708 l -1.674094669163593 4.440735004367969" fill="#ff3705" stroke="none" /><path d="M 107.40779381753099 80.34994680014964 l 5.63212085394106 -14.93986970128917 a36.96622973669413,36.96622973669413 0 0,0 0.591860561357772,0.22894437974616266 l -5.887753677792357 14.84098543340497" fill="#ffcd13" stroke="none" /><path d="M 108.73861861582097 80.90454125486305 l 6.687263389903076 -14.61287736583092 a37.070335296898804,37.070335296898804 0 0,0 0.5763753740478558,0.2697727779531399 l -6.937127477822437 14.495928356307246" fill="#ffce13" stroke="none" /><path d="M 109.3889696526874 81.21577127319529 l 17.745332529776544 -35.502552186556635 a60.69040234554851,60.69040234554851 0 0,0 0.9279064807812377,0.4737956606823366 l -18.35216623227136 35.192698574201465" fill="#30ff37" stroke="none" /><line stroke="#e1ed5e" stroke-width="0.3" x1="143.13028292997686" x2="145.6673583964461" y1="26.7553504044142" y2="22.446841604673864" /><path d="M 143.63769802327073 25.89364864446614 a86.0,86.0 0 0,1 29.32050498858742,28.57503671076993" fill="none" id="id122" stroke="none" /><text fill="#e1ed5e" style="font-size:6.75px; font-family:Arial;" text-anchor="middle"><textPath startOffset="20.669276256404974" xlink:href="#id122">February</textPath></text><path d="M 110.96478420261332 82.08984904055464 l 14.05557876451727 -22.958731594086473 a47.919558889678214,47.919558889678214 0 0,0 0.6978819067160672,0.4355299249134797 l -14.44762480002305 22.71406587233145" fill="#aeff20" stroke="none" /><path d="M 111.27062007382361 82.28071324371311 l 2.6110183389648123 -4.104954507471537 a25.86498389255519,25.86498389255519 0 0,0 0.37259663090185824,0.2415126345657996 l -2.681100602123678 4.059528031201843" fill="#ff3805" stroke="none" /><path d="M 111.8722381534696 82.67804972795209 l 8.933957125347266 -13.034910440425046 a36.80267319498334,36.80267319498334 0 0,0 0.5180500406840443,0.3616391621911673 l -9.156402257205071 12.879626462428751" fill="#ffcb12" stroke="none" /><path d="M 112.16784306229584 82.88440491214696 l 9.197553697053964 -12.937511116112221 a36.87369484051266,36.87369484051266 0 0,0 0.5127532910050068,0.3711938402813815 l -9.41828799843294 12.777716504457766" fill="#ffcc13" stroke="none" /><path d="M 116.57777611688842 87.10902102172516 l 12.892369769910808 -10.025184711884059 a37.3314888112353,37.3314888112353 0 0,0 0.389043928988508,0.5092709915238535 l -13.062565676253621 9.802392807119324" fill="#ffd113" stroke="none" /><path d="M 117.42321728460499 88.27688183743584 l 13.511477422285838 -9.091125007792483 a37.28522569816734,37.28522569816734 0 0,0 0.35274586359765825,0.5341021966989692 l -13.66554772480422 8.857842932754455" fill="#ffd113" stroke="none" /><line stroke="#e1ed5e" stroke-width="0.3" x1="172.87174338648825" x2="177.1583165268699" y1="56.24261187166439" y2="53.66864786411523" /><path d="M 173.72905801456457 55.72781907015455 a86.0,86.0 0 0,1 12.242430191666344,42.057860355516425" fill="none" id="id123" stroke="none" /><text fill="#e1ed5e" style="font-size:6.75px; font-family:Arial;" text-anchor="middle"><textPath startOffset="22.145653131862474" xlink:href="#id123">March</textPath></text><path d="M 118.53625476483649 90.13048839642627 l 14.336970580626117 -7.633629301104004 a37.242568200146565,37.242568200146565 0 0,0 0.2956207433149883,0.5668917543625617 l -14.46589939291605 7.386391303636945" fill="#ffd013" stroke="none" /><path d="M 118.8641267826498 90.77261029715802 l 14.39791867602839 -7.042743513351141 a37.02810963265402,37.02810963265402 0 0,0 0.27439723320835,0.5733846821286571 l -14.516695167196652 6.79454632915738" fill="#ffce13" stroke="none" /><path d="M 119.71291397450082 92.76114493625339 l 15.116266979424623 -5.550902616959472 a37.10323095705364,37.10323095705364 0 0,0 0.21442103808420623,0.5997738054878634 l -15.20932818755277 5.290593855090692" fill="#ffcf13" stroke="none" /><path d="M 119.94978838288452 93.4421083053983 l 15.185240568494173 -4.9916901920669865 a36.98463331129679,36.98463331129679 0 0,0 0.19308670404561645,0.6048413503175416 l -15.268691988317046 4.730279808058057" fill="#ffcd13" stroke="none" /><path d="M 120.35273937422433 94.82641323984039 l 15.438271605469591 -3.9243482712188738 a36.92924164918303,36.92924164918303 0 0,0 0.15090426522828537,0.6157408983381708 l -15.503363397214168 3.6587515482726083" fill="#ffcc13" stroke="none" /><path d="M 120.51834098615036 95.52812308129327 l 15.627377684260022 -3.405914231239539 a36.994223489656136,36.994223489656136 0 0,0 0.12990660601915358,0.6216501365224146 l -15.683542001103541 3.13714764343172" fill="#ffcd13" stroke="none" /><path d="M 120.65975698304385 96.23510406497455 l 15.483941430444581 -2.8216899258543067 a36.73894457259145,36.73894457259145 0 0,0 0.10774164793551104,0.6214251940632696 l -15.530097895872327 2.555471698870444" fill="#ffca12" stroke="none" /><path d="M 120.86939407059847 97.66154086499901 l 15.626876904451784 -1.7510241516898644 a36.72467383975546,36.72467383975546 0 0,0 0.06482360933956577,0.6271096171224115 l -15.654632906273015 1.4825100122845214" fill="#ffca12" stroke="none" /><path d="M 120.93736805541906 98.37931529534042 l 15.713056383411278 -1.2162899403899545 a36.76006034656453,36.76006034656453 0 0,0 0.04329991810986355,0.6295713062916876 l -15.731620262686207 0.9463752099439329" fill="#ffca12" stroke="none" /><path d="M 120.98066250479742 99.09900007780936 l 1.530686548968097 -0.06573426655155253 a22.532097354932425,22.532097354932425 0 0,0 0.013278178923084714,0.386579691581596 l -1.5315894148880298 0.039448310405836594" fill="#ff0901" stroke="none" /><line stroke="#e1ed5e" stroke-width="0.3" x1="184.99686870605535" x2="189.99668451229388" y1="99.2704041080226" y2="99.22748670261217" /><path d="M 185.99683186730306 99.26182062694052 a86.0,86.0 0 0,1 -10.086455211305974,41.156179273409016" fill="none" id="id124" stroke="none" /><text fill="#e1ed5e" style="font-size:6.75px; font-family:Arial;" text-anchor="middle"><textPath startOffset="21.40746469413373" xlink:href="#id124">April</textPath></text><path d="M 120.99922638620191 99.81974689727618 l 15.993675295770425 -0.1372864667964316 a36.99426450451857,36.99426450451857 0 0,0 0.0,0.635079139040515 l -15.993675295770425 -0.13728646679642967" fill="#ffcd13" stroke="none" /><path d="M 120.99303781780057 100.54070618675476 l 15.868829952776126 0.4087247689683899 a36.87409273019699,36.87409273019699 0 0,0 -0.02172992567826288,0.6326430766939068 l -15.859475340101017 -0.6810741102264074" fill="#ffcc13" stroke="none" /><path d="M 120.86939407059847 102.33845913500097 l 16.088742279201817 1.8027771302895854 a37.189429684459895,37.189429684459895 0 0,0 -0.07653569353120436,0.6338253350324039 l -16.05542449941095 -2.078696142245398" fill="#ffd013" stroke="none" /><path d="M 120.77682067341334 103.0534771498775 l 15.581184987289419 2.289897625558424 a36.74855411597113,36.74855411597113 0 0,0 -0.09708356897286693,0.6233461558590739 l -15.539579926178284 -2.5570319633489484" fill="#ffca12" stroke="none" /><path d="M 120.65975698304385 103.76489593502545 l 15.968631684672983 2.9100166360565907 a37.23161713147732,37.23161713147732 0 0,0 -0.11998102741038805,0.6277914345675154 l -15.916324364980436 -3.1837106356574205" fill="#ffd013" stroke="none" /><path d="M 120.43855184770803 104.8234425847677 l 15.510947793543952 3.660541445155199 a36.93703438930044,36.93703438930044 0 0,0 -0.1509361087665958,0.6158708308411367 l -15.445824158261061 -3.9262681006044358" fill="#ffcc13" stroke="none" /><path d="M 120.26092885502905 105.52220625578681 l 15.641821454177588 4.263247993426502 a37.212398399306174,37.212398399306174 0 0,0 -0.17327068709550733,0.614876541767791 l -15.566332275007502 -4.531132459097302" fill="#ffd013" stroke="none" /><path d="M 119.94978838288452 106.5578916946017 l 45.75587341109212 15.040864417352863 a69.16458817464422,69.16458817464422 0 0,0 -0.38045324976738176,1.1247424308250136 l -45.490934739752376 -15.824108522652036" fill="#3bff98" stroke="none" /><path d="M 119.4528033332814 107.91128576633889 l 14.927166890531089 6.070748823681401 a37.11441288592286,37.11441288592286 0 0,0 -0.24508618392759673,0.5881176209337549 l -14.820754862067007 -6.326098954056435" fill="#ffcf13" stroke="none" /><path d="M 118.8641267826498 109.22738970284198 l 14.501059110143894 7.093194668110096 a37.14292804653458,37.14292804653458 0 0,0 -0.2850809698148012,0.5703529078004549 l -14.377158227117361 -7.341079432074296" fill="#ffcf13" stroke="none" /><path d="M 118.5362547648365 109.86951160357373 l 14.365266564738665 7.648695318866289 a37.274625143358776,37.274625143358776 0 0,0 -0.3055714314178203,0.5622170165811864 l -14.231849783705504 -7.894167168922079" fill="#ffd113" stroke="none" /><line stroke="#e1ed5e" stroke-width="0.3" x1="174.33088141563837" x2="178.70328620479359" y1="141.23008692659167" y2="143.65538615756765" /><path d="M 175.20536237346943 141.71514677278685 a86.0,86.0 0 0,1 -30.301960400862466,31.631185727798858" fill="none" id="id125" stroke="none" /><text fill="#e1ed5e" style="font-size:6.75px; font-family:Arial;" text-anchor="middle"><textPath startOffset="22.145653131862474" xlink:href="#id125">May</textPath></text><path d="M 118.00360718960297 110.81064883170644 l 41.74334828866174 25.065681263527278 a69.69081539215853,69.69081539215853 0 0,0 -0.6246687638108864,1.0203494800049604 l -41.30691156039545 -25.778567859656793" fill="#3bff9e" stroke="none" /><path d="M 117.423217284605 111.72311816256416 l 5.705147484222758 3.8386778400275974 a27.876347531666227,27.876347531666227 0 0,0 -0.2705469393836423,0.39473606995397387 l -5.638410808023796 -3.9360486450516152" fill="#ff5407" stroke="none" /><path d="M 117.21940702142032 112.02048342749411 l 2.3045116935923584 1.6087281395250057 a23.810476894194917,23.810476894194917 0 0,0 -0.2368404342856454,0.3331457311629346 l -2.276556160776752 -1.6480510973974443" fill="#ff1b02" stroke="none" /><path d="M 117.01052211995028 112.31430620078461 l 3.3639774411668193 2.4352602448619716 a25.152931095609997,25.152931095609997 0 0,0 -0.25619815061419565,0.3475819955876517 l -3.3216772709687956 -2.4926485497185005" fill="#ff2e04" stroke="none" /><path d="M 116.57777611688842 112.89097897827486 l 12.771405470481364 9.931122141001701 a37.17825653990366,37.17825653990366 0 0,0 -0.39609638277125475,0.5004548401835368 l -12.599042657068546 -10.14889692509992" fill="#ffcf13" stroke="none" /><path d="M 116.35404254752997 113.17365903436017 l 12.349291319964957 9.947714926898799 a36.85755429983473,36.85755429983473 0 0,0 -0.40113863191962984,0.4893239067127536 l -12.1767058688067 -10.158241115310046" fill="#ffcb13" stroke="none" /><path d="M 115.6541949942343 113.99807769240083 l 12.097200986760106 10.817391717403911 a37.22831584859712,37.22831584859712 0 0,0 -0.430079762793064,0.472732998194841 l -11.909723523125162 -11.023462291156426" fill="#ffd013" stroke="none" /><path d="M 115.16444852881244 114.52719865689866 l 11.906271907430053 11.405939156551268 a37.48801864314228,37.48801864314228 0 0,0 -0.44916572806281946,0.46088360633337855 l -11.708719378216426 -11.608645454952383" fill="#ffd313" stroke="none" /><path d="M 113.86319453409587 115.77377054828091 l 10.743402526008367 12.224019935397209 a37.274131657843725,37.274131657843725 0 0,0 -0.4842451423943209,0.41827942059302353 l -10.53197790385119 -12.40664348845495" fill="#ffd113" stroke="none" /><path d="M 113.59037401385872 116.0094264158162 l 5.143784751526645 6.059365503435602 a28.948234513038944,28.948234513038944 0 0,0 -0.3816006806623627,0.318344859907059 l -5.039009736702387 -6.146772547254531" fill="#ff6309" stroke="none" /><path d="M 113.03279911837588 116.46651593811092 l 15.272624383355486 19.296461991094088 a45.60907354877065,45.60907354877065 0 0,0 -0.6180899412562132,0.48063047680442117 l -14.939124497464043 -19.555793519519302" fill="#c9ff1d" stroke="none" /><path d="M 111.8722381534696 117.32195027204791 l 9.25439614818417 13.502440551180312 a37.369476134124895,37.369476134124895 0 0,0 -0.5322547154089144,0.35812472630034603 l -9.021245144678254 -13.65931495153778" fill="#ffd213" stroke="none" /><path d="M 110.96478420261333 117.91015095944535 l 8.32654435863777 13.600784445732845 a36.94718403028105,36.94718403028105 0 0,0 -0.543769729581146,0.3265180988401371 l -8.091841872499188 -13.741716545108904" fill="#ffcd13" stroke="none" /><line stroke="#e1ed5e" stroke-width="0.3" x1="143.1302829299769" x2="145.66735839644613" y1="173.24464959558577" y2="177.55315839532614" /><path d="M 143.63769802327073 174.10635135553383 a86.0,86.0 0 0,1 -40.68552437913181,11.842963189579606" fill="none" id="id126" stroke="none" /><text fill="#e1ed5e" style="font-size:6.75px; font-family:Arial;" text-anchor="middle"><textPath startOffset="21.407464694133747" xlink:href="#id126">June</textPath></text><path d="M 110.34350942703117 118.27599006163325 l 22.43659454596716 39.64331272975746 a66.55209126933113,66.55209126933113 0 0,0 -0.9990920744296516,0.5541795320045364 l -21.752758283381414 -40.022625177195145" fill="#37ff7b" stroke="none" /><path d="M 109.3889696526874 118.78422872680471 l 7.079054998519241 14.162852067985378 a36.8334897723685,36.8334897723685 0 0,0 -0.5680070546043777,0.27784071360348417 l -6.834887694652793 -14.282286531686086" fill="#ffcb12" stroke="none" /><path d="M 109.06512990194946 118.94263497670748 l 7.010331712091561 14.648897051020725 a37.239917965462766,37.239917965462766 0 0,0 -0.5790120719153737,0.27100688568981945 l -6.75783092630468 -14.767080168281078" fill="#ffd013" stroke="none" /><path d="M 107.407793817531 119.65005319985036 l 5.705089756883924 15.133428385572289 a37.17308578581549,37.17308578581549 0 0,0 -0.5990369284005587,0.21997465763472565 l -5.444463676829238 -15.229133892215737" fill="#ffcf13" stroke="none" /><path d="M 107.06938296918513 119.77432235084164 l 5.417266146507596 15.153057559377181 a37.09229399122124,37.09229399122124 0 0,0 -0.601414857410474,0.20920330666413797 l -5.1563455170521 -15.24381929860991" fill="#ffce13" stroke="none" /><path d="M 106.72888874123015 119.89276391827305 l 5.116915133850172 15.127250376993352 a36.969236815053826,36.969236815053826 0 0,0 -0.6029106197939158,0.19818869605282424 l -4.856481776408522 -15.212859994448197" fill="#ffcd13" stroke="none" /><path d="M 106.38641147887787 120.00534299687104 l 4.913845753481488 15.392551835602623 a37.15786285684842,37.15786285684842 0 0,0 -0.6093170541536809,0.1887679809229209 l -4.648888066456182 -15.474636404332188" fill="#ffcf13" stroke="none" /><path d="M 105.3480935250658 120.30758222061773 l 4.066972138823669 15.442955645976099 a36.96950661296563,36.96950661296563 0 0,0 -0.6150928534589933,0.1563541980473807 l -3.801273992139278 -15.51049507585875" fill="#ffcd13" stroke="none" /><path d="M 104.9986988182912 120.39639698878246 l 3.826294901237896 15.612588923387278 a37.07462178596791,37.07462178596791 0 0,0 -0.6194425093786247,0.1461867455588485 l -3.5577202381193924 -15.675971812592351" fill="#ffce13" stroke="none" /><path d="M 104.64783097203109 120.47920084513623 l 3.562192901189826 15.695679191342403 a37.09483033594409,37.09483033594409 0 0,0 -0.6221996854026721,0.13560552550797728 l -3.292230799168018 -15.754516174984099" fill="#ffce13" stroke="none" /><path d="M 104.29559338865022 120.5559693870025 l 3.1911256445252607 15.270691409540522 a36.60055444542153,36.60055444542153 0 0,0 -0.6161154584748574,0.12324034701474018 l -2.928513700519445 -15.323221153218123" fill="#ffc812" stroke="none" /><path d="M 103.94208987418118 120.62667999033965 l 2.949419864778993 15.432611038728217 a36.71192416642306,36.71192416642306 0 0,0 -0.6200211603018009,0.11298850939853447 l -2.684063970926135 -15.480967722058114" fill="#ffca12" stroke="none" /><path d="M 103.58742460773223 120.69131181640829 l 10.762273823196699 62.07393544922487 a84.0,84.0 0 0,0 -1.4228899877877108,0.2341360060173172 l -9.695106332355914 -62.24953745373786" fill="#4dd2ff" stroke="none" /><path d="M 102.875027216393 120.80226474461374 l 1.0833011836229418 7.838227718814577 a28.912733739134158,28.912733739134158 0 0,0 -0.49223540673844335,0.06372972829845305 l -0.9485879549937231 -7.855669043313425" fill="#ff6309" stroke="none" /><line stroke="#e1ed5e" stroke-width="0.3" x1="101.45913802915013" x2="101.54496967792366" y1="184.9874750549273" y2="189.98673829345242" /><path d="M 101.47630435890484 185.9873277026323 a86.0,86.0 0 0,1 -42.54439059252881,-10.42667462771756" fill="none" id="id127" stroke="none" /><text fill="#e1ed5e" style="font-size:6.75px; font-family:Arial;" text-anchor="middle"><textPath startOffset="22.145653131862474" xlink:href="#id127">July</textPath></text><line stroke="#e1ed5e" stroke-width="0.3" x1="58.13341422392154" x2="55.67067388415222" y1="173.97424548756322" y2="178.32567169271397" /><path d="M 57.64086615596768 174.84453072859336 a86.0,86.0 0 0,1 -31.369924170532247,-30.572349798747897" fill="none" id="id128" stroke="none" /><text fill="#e1ed5e" style="font-size:6.75px; font-family:Arial;" text-anchor="middle"><textPath startOffset="22.145653131862474" xlink:href="#id128">August</textPath></text><line stroke="#e1ed5e" stroke-width="0.3" x1="26.387840678322732" x2="22.057713659400548" y1="142.50000000000003" y2="145.00000000000006" /><path d="M 25.521815274538298 143.00000000000003 a86.0,86.0 0 0,1 -11.493303480769221,-40.785679425670985" fill="none" id="id129" stroke="none" /><text fill="#e1ed5e" style="font-size:6.75px; font-family:Arial;" text-anchor="middle"><textPath startOffset="21.40746469413373" xlink:href="#id129">September</textPath></text><line stroke="#e1ed5e" stroke-width="0.3" x1="15.003131293944662" x2="10.003315487706104" y1="100.72959589197737" y2="100.7725132973878" /><path d="M 14.003168132696942 100.73817937305945 a86.0,86.0 0 0,1 10.791469493833604,-42.45332614584628" fill="none" id="id130" stroke="none" /><text fill="#e1ed5e" style="font-size:6.75px; font-family:Arial;" text-anchor="middle"><textPath startOffset="22.145653131862435" xlink:href="#id130">October</textPath></text><line stroke="#e1ed5e" stroke-width="0.3" x1="26.387840678322718" x2="22.05771365940052" y1="57.49999999999999" y2="54.99999999999999" /><path d="M 25.521815274538284 56.99999999999999 a86.0,86.0 0 0,1 29.574782752854787,-30.34633250058573" fill="none" id="id131" stroke="none" /><text fill="#e1ed5e" style="font-size:6.75px; font-family:Arial;" text-anchor="middle"><textPath startOffset="21.40746469413373" xlink:href="#id131">November</textPath></text><line stroke="#e1ed5e" stroke-width="0.3" x1="56.869717070023135" x2="54.33264160355391" y1="26.7553504044142" y2="22.446841604673864" /><path d="M 56.362301976729285 25.89364864446614 a86.0,86.0 0 0,1 42.16139366436587,-11.88097634709845" fill="none" id="id132" stroke="none" /><text fill="#e1ed5e" style="font-size:6.75px; font-family:Arial;" text-anchor="middle"><textPath startOffset="22.145653131862474" xlink:href="#id132">December</textPath></text></svg>