<?xml version="1.0" encoding="utf-8" ?>
<svg baseProfile="full" height="200mm" version="1.1" viewBox="0,0,200,200" width="200mm" xmlns="http://www.w3.org/2000/svg" xmlns:ev="http://www.w3.org/2001/xml-events" xmlns:xlink="http://www.w3.org/1999/xlink"><defs /><rect fill="#f5f5f5" height="200" width="200" x="0" y="0" /><text alignment-baseline="middle" fill="#006cb8" style="dominant-baseline: central; font-size:9.0px; font-family:Arial;" text-anchor="middle" x="100.0" y="100.0">2020</text><line stroke="#006cb8" stroke-width="0.3" x1="100.0" x2="100.0" y1="15.0" y2="10.0" /><path d="M 100.0 14.0 a86.0,86.0 0 0,1 42.35913384403234,11.155469271406648" fill="none" id="id73" stroke="none" /><text fill="#006cb8" style="font-size:6.75px; font-family:Arial;" text-anchor="middle"><textPath startOffset="22.145653131862478" xlink:href="#id73">January</textPath></text><path d="M 100.0 79.0 l 0.0 -10.70541887264769 a31.70541887264769,31.70541887264769 0 0,0 0.5442656753789926,0.004671866233967789 l -0.1837727505301379 10.703841404608157" fill="#f46600" stroke="none" /><path d="M 101.08105385017728 79.02784411241856 l 1.4869692175279008 -28.846805573021413 a49.88510462542199,49.88510462542199 0 0,0 0.8548303163771965,0.05142446910231942 l -1.9819438860375598 28.8170291260944" fill="#99dc00" stroke="none" /><path d="M 101.44090949804482 79.04949213459386 l 0.46017800820627636 -6.690887244129104 a27.706693366547054,27.706693366547054 0 0,0 0.4742211737234466,0.03670771803050826 l -0.5749681767049565 6.682001759103542" fill="#f93700" stroke="none" /><path d="M 102.15924093988457 79.11130261209362 l 2.452195286391525 -23.722764943601575 a44.84916850315693,44.84916850315693 0 0,0 0.765135567511308,0.08573503625971196 l -2.8590667555036293 23.677174146834894" fill="#d5e200" stroke="none" /><path d="M 102.51750503828377 79.15144685158666 l 3.8475342024261234 -31.863102591565625 a53.09456069491332,53.09456069491332 0 0,0 0.9039277612093796,0.11703154595279411 l -4.393939785526294 31.792359449412434" fill="#74d800" stroke="none" /><path d="M 103.58742460773223 79.30868818359171 l 3.6551370416281768 -21.081859141241043 a42.39637379660888,42.39637379660888 0 0,0 0.7160248194782578,0.13048357415062947 l -4.016496594657489 21.01600739315905" fill="#e6d800" stroke="none" /><path d="M 104.29559338865022 79.4440306129975 l 5.286083733079368 -25.295824246636933 a46.84224072231105,46.84224072231105 0 0,0 0.785695127246268,0.1712385960952933 l -5.719541276944771 25.201354192407923" fill="#bde000" stroke="none" /><path d="M 104.9986988182912 79.60360301121754 l 5.212053154319982 -21.266955487125593 a42.89632146674044,42.89632146674044 0 0,0 0.7137022695514759,0.1814203260089706 l -5.576360717096852 21.17434992928135" fill="#e5dd00" stroke="none" /><path d="M 105.69591212413111 79.78721728523813 l 3.0724941762454616 -10.903197911659223 a32.32783938639105,32.32783938639105 0 0,0 0.5328551392826132,0.15510636513116105 l -3.259209327909679 10.848847852225546" fill="#f36d00" stroke="none" /><path d="M 106.72888874123014 80.10723608172694 l 20.186666223690402 -59.67829175481916 a84.0,84.0 0 0,0 1.3619769118199267,0.4737662697256382 l -21.208148907555344 59.32296705252493" fill="#00afaa" stroke="none" /><path d="M 107.74402155503746 80.48000691201159 l 10.341063856810605 -26.066236202052146 a49.04257961443292,49.04257961443292 0 0,0 0.7798833654263123,0.31717177532688295 l -10.787001683427357 25.88487717014597" fill="#a3dd00" stroke="none" /><line stroke="#006cb8" stroke-width="0.3" x1="143.13028292997686" x2="145.6673583964461" y1="26.7553504044142" y2="22.446841604673864" /><path d="M 143.63769802327073 25.89364864446614 a86.0,86.0 0 0,1 29.32050498858742,28.57503671076993" fill="none" id="id74" stroke="none" /><text fill="#006cb8" style="font-size:6.75px; font-family:Arial;" text-anchor="middle"><textPath startOffset="20.669276256404974" xlink:href="#id74">February</textPath></text><path d="M 110.96478420261332 82.08984904055464 l 18.623949003209567 -30.4208210526383 a56.66900377065208,56.66900377065208 0 0,0 0.8253054351817354,0.5150516308794748 l -19.143418567181016 30.09663362491728" fill="#4dd300" stroke="none" /><path d="M 111.5731344415666 82.4767994020092 l 11.79157669096035 -17.85395000512244 a42.39637379660888,42.39637379660888 0 0,0 0.6038529892282265,0.4062992402554173 l -12.096325968285576 17.648901090809904" fill="#e6d800" stroke="none" /><path d="M 112.16784306229584 82.88440491214696 l 14.624252041298936 -20.57084194134515 a46.23941928696539,46.23941928696539 0 0,0 0.6429899286225761,0.46547512235340266 l -14.97522298029548 20.31676604761867" fill="#c4e100" stroke="none" /><path d="M 112.7482090630111 83.31218511350987 l 14.937155395329905 -19.55321590161669 a45.60582986610021,45.60582986610021 0 0,0 0.6180459831690439,0.4805962947299574 l -15.270611323134174 19.29391855526594" fill="#cce200" stroke="none" /><path d="M 113.31354834802062 83.75963576809568 l 21.690180455454506 -26.458493381644953 a55.2128017007776,55.2128017007776 0 0,0 0.7278247901716735,0.6071773259468837 l -22.141179579788073 26.0822538717862" fill="#5dd500" stroke="none" /><path d="M 113.86319453409587 84.22622945171908 l 14.124861536505724 -16.071499563474223 a42.39637379660888,42.39637379660888 0 0,0 0.5425423035722776,0.4851446733361883 l -14.398668866901378 15.826659360254647" fill="#e6d800" stroke="none" /><path d="M 114.39649973595853 84.71141617570332 l 17.601879412191405 -18.6925859614537 a46.67564855593065,46.67564855593065 0 0,0 0.5786169313899886,0.5543019314270937 l -17.920168829446705 18.387671899721028" fill="#bfe000" stroke="none" /><path d="M 114.91283532996326 85.21462403516908 l 18.23317709069536 -18.07733890668108 a46.67564855593065,46.67564855593065 0 0,0 0.5592480591199144,0.5738377757220172 l -18.540811950966084 17.761678438891323" fill="#bfe000" stroke="none" /><path d="M 115.6541949942343 86.00192230759917 l 7.974833513848588 -7.131145303347151 a31.69818689830444,31.69818689830444 0 0,0 0.35922941782710616,0.4087371346525534 l -8.096073995634283 6.9931958908833" fill="#f46500" stroke="none" /><path d="M 116.35404254752997 86.82634096563983 l 35.82485695143255 -28.85796885151068 a67.00220366270909,67.00220366270909 0 0,0 0.7138401038256711,0.9019136518673694 l -36.31496348589978 28.23873525572863" fill="#00c51c" stroke="none" /><path d="M 116.7966241395341 87.39550010848427 l 17.113659457648367 -12.842409104675555 a42.39637379660888,42.39637379660888 0 0,0 0.43183327295542134,0.5858647707454423 l -17.331594750187612 12.546738024661238" fill="#e6d800" stroke="none" /><path d="M 117.62189284568427 88.57770195909679 l 21.5633605810661 -13.97710980751551 a46.69704492972726,46.69704492972726 0 0,0 0.43024057367872204,0.6764096428827947 l -21.80011884637071 13.604886489954044" fill="#bfe000" stroke="none" /><line stroke="#006cb8" stroke-width="0.3" x1="172.87174338648825" x2="177.1583165268699" y1="56.24261187166439" y2="53.66864786411523" /><path d="M 173.72905801456457 55.72781907015455 a86.0,86.0 0 0,1 12.242430191666344,42.057860355516425" fill="none" id="id75" stroke="none" /><text fill="#006cb8" style="font-size:6.75px; font-family:Arial;" text-anchor="middle"><textPath startOffset="22.145653131862474" xlink:href="#id75">March</textPath></text><path d="M 118.00360718960297 89.18935116829356 l 27.515136365432884 -16.522048813361728 a53.09456069491332,53.09456069491332 0 0,0 0.4624948095338265,0.7854172976115086 l -27.79470488509648 16.047280347456663" fill="#74d800" stroke="none" /><path d="M 118.36410011445183 89.81374322990088 l 28.06608217765424 -15.567782674377044 a53.09456069491332,53.09456069491332 0 0,0 0.43526073970284973,0.8008307366144334 l -28.32918826697243 15.083697104288008" fill="#74d800" stroke="none" /><path d="M 118.8641267826498 90.77261029715802 l 23.064223313611205 -11.281867385656373 a46.67564855593065,46.67564855593065 0 0,0 0.3458904315941091,0.722777969923412 l -23.254493003165226 10.884276913667858" fill="#bfe000" stroke="none" /><path d="M 119.4528033332814 92.08871423366111 l 22.416390459939226 -9.116550850796937 a45.19929876396464,45.19929876396464 0 0,0 0.2861359365849273,0.7212494780221289 l -22.569585071490277 8.730400355561244" fill="#d1e200" stroke="none" /><path d="M 120.05942366710727 93.78553927170692 l 30.657066208997847 -9.497637477636065 a53.09456069491332,53.09456069491332 0 0,0 0.26224586776510356,0.8729312029439789 l -30.81558839676658 8.969968671101363" fill="#74d800" stroke="none" /><path d="M 120.86939407059847 97.66154086499901 l 15.953090527740208 -1.7875770685958372 a37.052928990138966,37.052928990138966 0 0,0 0.06540302043862707,0.6327148939064525 l -15.981425940660502 1.5134576524064534" fill="#eda000" stroke="none" /><line stroke="#006cb8" stroke-width="0.3" x1="184.99686870605535" x2="189.99668451229388" y1="99.2704041080226" y2="99.22748670261217" /><path d="M 185.99683186730306 99.26182062694052 a86.0,86.0 0 0,1 -10.086455211305974,41.156179273409016" fill="none" id="id76" stroke="none" /><text fill="#006cb8" style="font-size:6.75px; font-family:Arial;" text-anchor="middle"><textPath startOffset="21.40746469413373" xlink:href="#id76">April</textPath></text><path d="M 119.83427380445688 106.89939002012753 l 10.110021130736259 3.516790157298638 a31.70422067571508,31.70422067571508 0 0,0 -0.18321994429019436,0.5124987930757386 l -10.048161016402121 -3.689823906755298" fill="#f46600" stroke="none" /><path d="M 119.71291397450082 107.23885506374661 l 10.059308188125478 3.693917302616531 a31.7160956631722,31.7160956631722 0 0,0 -0.19206258083625685,0.5094688140754503 l -9.99441492347478 -3.86605439688614" fill="#f46600" stroke="none" /><path d="M 119.16976305983485 108.57439118712176 l 13.900438168939864 6.217489186531227 a36.22758526730857,36.22758526730857 0 0,0 -0.2587952662325896,0.5655143618276459 l -13.791658437852218 -6.455192530573562" fill="#ee9800" stroke="none" /><path d="M 118.8641267826498 109.22738970284198 l 14.415139571007012 7.051167116035234 a37.04728034745666,37.04728034745666 0 0,0 -0.2843468505558261,0.568884177515509 l -14.291972807239453 -7.297583149714489" fill="#eda000" stroke="none" /><line stroke="#006cb8" stroke-width="0.3" x1="174.33088141563837" x2="178.70328620479359" y1="141.23008692659167" y2="143.65538615756765" /><path d="M 175.20536237346943 141.71514677278685 a86.0,86.0 0 0,1 -30.301960400862466,31.631185727798858" fill="none" id="id77" stroke="none" /><text fill="#006cb8" style="font-size:6.75px; font-family:Arial;" text-anchor="middle"><textPath startOffset="22.145653131862474" xlink:href="#id77">May</textPath></text><path d="M 118.36410011445183 110.18625677009912 l 14.968577161415595 8.302817426334423 a38.117099037287105,38.117099037287105 0 0,0 -0.3223011910094253,0.5694753222100036 l -14.823842605384792 -8.558549518643549" fill="#ebac00" stroke="none" /><path d="M 117.21940702142032 112.02048342749411 l 8.772211171101445 6.123684681681102 a31.69818689830444,31.69818689830444 0 0,0 -0.3152986974776769,0.44350710394001314 l -8.665797375093806 -6.273369012330619" fill="#f46500" stroke="none" /><path d="M 114.39649973595853 115.28858382429668 l 14.66823284349284 15.577154967878085 a42.39637379660888,42.39637379660888 0 0,0 -0.5341342052774922,0.49438664624417644 l -14.39866886690138 -15.826659360254641" fill="#e6d800" stroke="none" /><path d="M 113.59037401385872 116.0094264158162 l 1.4855914531436667 1.750022996336664 a23.295552755516777,23.295552755516777 0 0,0 -0.30708604298155395,0.2561820989488028 l -1.4553310760002178 -1.775267279197337" fill="#ff0100" stroke="none" /><path d="M 113.03279911837588 116.46651593811092 l 13.278792454899278 16.77732048283995 a42.39637379660888,42.39637379660888 0 0,0 -0.5745517317163036,0.4467749017276812 l -12.988830778547744 -17.002796436188426" fill="#e6d800" stroke="none" /><path d="M 112.7482090630111 116.68781488649013 l 12.15838200535643 15.915712334317245 a41.02838366161666,41.02838366161666 0 0,0 -0.5633529427928339,0.42275055078503865 l -11.88337607365283 -16.122081912366298" fill="#e8ca00" stroke="none" /><path d="M 112.45986205192187 116.90419585922612 l 1.314571519795999 1.7834687373737423 a23.21559450663885,23.21559450663885 0 0,0 -0.32282830720934946,0.233702798610423 l -1.2837622022126818 -1.8057723073572425" fill="#ff0000" stroke="none" /><path d="M 112.16784306229584 117.11559508785304 l 16.867981127792955 23.726927891390606 a50.111782743260996,50.111782743260996 0 0,0 -0.7053947128067664,0.49242029325330144 l -16.45819132381243 -24.01299300044903" fill="#96dc00" stroke="none" /><path d="M 111.8722381534696 117.32195027204791 l 3.779726015834656 5.514733215583263 a27.68570199708562,27.68570199708562 0 0,0 -0.3943283920937389,0.26532174051766155 l -3.6845013356439136 -5.578804630158046" fill="#f93700" stroke="none" /><path d="M 111.5731344415666 117.5232005979908 l 2.4382740197334734 3.691857636009225 a25.424363570036583,25.424363570036583 0 0,0 -0.3662492986027397,0.23739837045580603 l -2.374539088873724 -3.733169848168926" fill="#fc1c00" stroke="none" /><path d="M 111.27062007382361 117.71928675628689 l 11.483352381861597 18.053737278419796 a42.39637379660888,42.39637379660888 0 0,0 -0.6174443769639418,0.3853309572141734 l -11.17174387610794 -18.248204032475517" fill="#e6d800" stroke="none" /><line stroke="#006cb8" stroke-width="0.3" x1="143.1302829299769" x2="145.66735839644613" y1="173.24464959558577" y2="177.55315839532614" /><path d="M 143.63769802327073 174.10635135553383 a86.0,86.0 0 0,1 -40.68552437913181,11.842963189579606" fill="none" id="id78" stroke="none" /><text fill="#006cb8" style="font-size:6.75px; font-family:Arial;" text-anchor="middle"><textPath startOffset="21.407464694133747" xlink:href="#id78">June</textPath></text><path d="M 110.65571695917076 118.09573695890943 l 6.977855852701741 11.849924742886918 a34.751770384687475,34.751770384687475 0 0,0 -0.5166554509183507,0.2982911636659984 l -6.773407933922992 -11.967962803829087" fill="#f08800" stroke="none" /><path d="M 110.34350942703117 118.27599006163325 l 3.1224502662712186 5.517070433095375 a27.33938181758067,27.33938181758067 0 0,0 -0.41042376239104306,0.22765514249049773 l -3.027282315724081 -5.5698584910190165" fill="#fa3300" stroke="none" /><path d="M 110.02825361518725 118.45085714620011 l 1.1117190401148853 2.045437818286314 a23.32803245094003,23.32803245094003 0 0,0 -0.35348765864682524,0.1882122679578816 l -1.0764425656815062 -2.0642205539667637" fill="#ff0200" stroke="none" /><path d="M 109.71004243097381 118.62028667847754 l 2.0411710566703913 3.9142146396575446 a25.41445982288868,25.41445982288868 0 0,0 -0.3885662487611146,0.19840469526156082 l -1.9736775861956943 -3.9486772865919417" fill="#fc1c00" stroke="none" /><path d="M 109.3889696526874 118.78422872680471 l 1.0007952382493448 2.0022608826509356 a23.23844583385363,23.23844583385363 0 0,0 -0.35835869077962196,0.17529119324331208 l -0.9662762982076534 -2.0191458259914707" fill="#ff0100" stroke="none" /><path d="M 108.4095320186766 119.2426549942271 l 3.9493065121362836 9.036786174393114 a30.862075151229817,30.862075151229817 0 0,0 -0.4872753156000961,0.20798885704836215 l -3.7935961213657565 -9.10324968110088" fill="#f55c00" stroke="none" /><path d="M 108.07796709384702 119.3841803445677 l 2.5457158993464155 6.108791423098456 a27.618005899899636,27.618005899899636 0 0,0 -0.4391861838613127,0.17861319757498517 l -2.440475254294662 -6.1515918772527325" fill="#f93600" stroke="none" /><path d="M 107.74402155503746 119.51999308798841 l 1.6775095228795258 4.228419827982342 a25.549018843775624,25.549018843775624 0 0,0 -0.40906137149299343,0.15823372613260794 l -1.604675888893003 -4.25659344225299" fill="#fc1d00" stroke="none" /><path d="M 107.407793817531 119.65005319985036 l 1.6037777226483438 4.254210949580463 a25.546472675293828,25.546472675293828 0 0,0 -0.41167635668051655,0.15117326048479282 l -1.5305122143137002 -4.2811150590739775" fill="#fc1d00" stroke="none" /><path d="M 107.06938296918513 119.77432235084164 l 2.26185881358729 6.326821659956399 a27.71897891122572,27.71897891122572 0 0,0 -0.44943582495610107,0.15633710999256 l -2.152917216586167 -6.364717202517549" fill="#f93700" stroke="none" /><path d="M 106.0420521117495 120.11202640906438 l 1.4749593871329556 4.909660095223171 a26.126428332115687,26.126428332115687 0 0,0 -0.4306381704472077,0.1253524952292379 l -1.390461204304141 -4.934256284754928" fill="#fb2400" stroke="none" /><path d="M 105.69591212413111 120.21278271476187 l 9.850990532853327 34.95769015153389 a57.31917007874788,57.31917007874788 0 0,0 -0.9493654017321919,0.25875376188253224 l -9.24944373018644 -35.12164440756057" fill="#46d200" stroke="none" /><path d="M 104.9986988182912 120.39639698878246 l 1.029505336916474 4.200733094176864 a25.325047949705557,25.325047949705557 0 0,0 -0.4231307157403561,0.09985769678951806 l -0.9572424674362386 -4.217786934612608" fill="#fc1a00" stroke="none" /><path d="M 104.64783097203109 120.47920084513623 l 1.086490255416738 4.787276536272014 a25.909020035593265,25.909020035593265 0 0,0 -0.4345776478620839,0.09471417568175053 l -1.0041501909355182 -4.805222170087483" fill="#fb2200" stroke="none" /><path d="M 103.58742460773223 120.69131181640829 l 1.6085033810437472 9.277420058720677 a30.415827423693678,30.415827423693678 0 0,0 -0.5152187656125312,0.08477905181780505 l -1.4490071123781438 -9.303665109034153" fill="#f55700" stroke="none" /><path d="M 103.2317021107853 120.74984581791261 l 1.0135808017816748 6.507915841245437 a27.586373405636344,27.586373405636344 0 0,0 -0.46854127719629984,0.06885943264284339 l -0.9017144189776894 -6.5243563471871635" fill="#f93600" stroke="none" /><path d="M 102.51750503828377 120.84855314841334 l 0.7165262945178152 5.933865595627267 a26.976970038213707,26.976970038213707 0 0,0 -0.46023237372775644,0.051569997429062986 l -0.6145580191892596 -5.9452913535633005" fill="#fa2e00" stroke="none" /><path d="M 101.44090949804482 120.95050786540614 l 1.469743521089254 21.369748232274063 a42.42023075339209,42.42023075339209 0 0,0 -0.726912362878678,0.04372924266814882 l -1.1026868060781108 -21.391829452766903" fill="#e6d800" stroke="none" /><path d="M 101.08105385017728 120.97215588758144 l 0.38353867391744156 7.440547810817916 a28.45042640655269,28.45042640655269 0 0,0 -0.48795765197915186,0.020955001128537466 l -0.2557552613374601 -7.446035380372285" fill="#f84000" stroke="none" /><line stroke="#006cb8" stroke-width="0.3" x1="101.45913802915013" x2="101.54496967792366" y1="184.9874750549273" y2="189.98673829345242" /><path d="M 101.47630435890484 185.9873277026323 a86.0,86.0 0 0,1 -42.54439059252881,-10.42667462771756" fill="none" id="id79" stroke="none" /><text fill="#006cb8" style="font-size:6.75px; font-family:Arial;" text-anchor="middle"><textPath startOffset="22.145653131862474" xlink:href="#id79">July</textPath></text><path d="M 100.36049292484886 120.99690560180557 l 0.03931439126849127 2.2898661953020643 a23.290203662067626,23.290203662067626 0 0,0 -0.3998073161173432,0.003431864959996353 l -2.8046905841466644e-16 -2.2902036620676256" fill="#ff0100" stroke="none" /><path d="M 100.0 121.0 l 2.8174252424787847e-16 2.300602299732777 a23.300602299732777,23.300602299732777 0 0,0 -0.39998582256050286,-0.0034333972231209067 l 0.039492897711650404 -2.3002633007040907" fill="#ff0200" stroke="none" /><path d="M 99.63950707515114 120.99690560180557 l -0.07522922659423256 4.381725300040886 a25.38237105247289,25.38237105247289 0 0,0 -0.43559374212511376,-0.01121934963976321 l 0.15043628279009025 -4.379788233051075" fill="#fc1b00" stroke="none" /><path d="M 98.55909050195518 120.95050786540614 l -1.0113154959290227 14.704305357565932 a35.7390418644106,35.7390418644106 0 0,0 -0.611700940147382,-0.04734952143453162 l 1.2635854308516408 -14.684778069136348" fill="#ee9200" stroke="none" /><path d="M 98.19965949673042 120.92268563240118 l -0.1894726044867928 2.2019588696860186 a23.210095638573122,23.210095638573122 0 0,0 -0.3966720694552117,-0.037565257395804415 l 0.2272442373270198 -2.1983818567850304" fill="#ff0000" stroke="none" /><path d="M 97.84075906011543 120.88869738790638 l -0.22407624238301668 2.1677343794751405 a23.179284860306005,23.179284860306005 0 0,0 -0.3954431234293226,-0.04431022679567947 l 0.26125526741313854 -2.16356839217249" fill="#ff0000" stroke="none" /><path d="M 97.48249496171623 120.84855314841334 l -2.8547421270601006 23.641360019521976 a44.81309421693585,44.81309421693585 0 0,0 -0.7629369072500937,-0.09877745717253236 l 3.260156856200988 -23.588870966149045" fill="#d6e300" stroke="none" /><path d="M 97.12497278360702 120.80226474461374 l -0.4608158996536646 3.3342342947102783 a24.365927751065932,24.365927751065932 0 0,0 -0.41384355749439145,-0.06082075146608819 l 0.517984562755741 -3.3258324699453077" fill="#fd0f00" stroke="none" /><path d="M 96.05791012581884 120.62667999033965 l -1.7294110542378354 9.049009415324242 a30.21278644022246,30.21278644022246 0 0,0 -0.508586961358155,-0.10173163608020228 l 1.8844945011269485 -9.017988382581178" fill="#f65400" stroke="none" /><path d="M 95.70440661134978 120.55596938700252 l -0.9158887406267218 4.38285917935522 a25.477533558921152,25.477533558921152 0 0,0 -0.42734023101424945,-0.09313681436512494 l 0.9909913882601077 -4.366490906856377" fill="#fc1c00" stroke="none" /><path d="M 95.35216902796893 120.47920084513623 l -1.0547698903439975 4.647510754961384 a25.765699921213884,25.765699921213884 0 0,0 -0.4304931256543169,-0.10159520548240963 l 1.1343951697382022 -4.628719405832746" fill="#fc2000" stroke="none" /><path d="M 95.00130118170881 120.39639698878247 l -0.555305315519389 2.2658351857226813 a23.33288942779186,23.33288942779186 0 0,0 -0.3882089552299047,-0.09868119834013223 l 0.5941195639746724 -2.255968755547286" fill="#ff0200" stroke="none" /><path d="M 94.6519064749342 120.30758222061772 l -3.9412404940458297 14.965532111385214 a36.475804599723034,36.475804599723034 0 0,0 -0.6041411074121652,-0.16466134532135662 l 4.19756300239269 -14.895670271919714" fill="#ee9a00" stroke="none" /><path d="M 92.25597844496254 119.51999308798841 l -3.291289985021172 8.296200792001535 a29.925219176396038,29.925219176396038 0 0,0 -0.475875878183606,-0.193534576848207 l 3.433220324395219 -8.238478958574037" fill="#f65100" stroke="none" /><line stroke="#006cb8" stroke-width="0.3" x1="58.13341422392154" x2="55.67067388415222" y1="173.97424548756322" y2="178.32567169271397" /><path d="M 57.64086615596768 174.84453072859336 a86.0,86.0 0 0,1 -31.369924170532247,-30.572349798747897" fill="none" id="id80" stroke="none" /><text fill="#006cb8" style="font-size:6.75px; font-family:Arial;" text-anchor="middle"><textPath startOffset="22.145653131862474" xlink:href="#id80">August</textPath></text><path d="M 89.65649057296885 118.27599006163327 l -5.77143698362973 10.197576141663044 a32.717510145974884,32.717510145974884 0 0,0 -0.486412052401293,-0.28083012939096696 l 5.945641503891423 -10.096999114995905" fill="#f27100" stroke="none" /><path d="M 88.4268655584334 117.5232005979908 l -2.8633252583883166 4.335439386223912 a26.195639152880624,26.195639152880624 0 0,0 -0.37310537649038117,-0.25104194846663164 l 2.9373269229757035 -4.285647763700158" fill="#fb2500" stroke="none" /><line stroke="#006cb8" stroke-width="0.3" x1="26.387840678322732" x2="22.057713659400548" y1="142.50000000000003" y2="145.00000000000006" /><path d="M 25.521815274538298 143.00000000000003 a86.0,86.0 0 0,1 -11.493303480769221,-40.785679425670985" fill="none" id="id81" stroke="none" /><text fill="#006cb8" style="font-size:6.75px; font-family:Arial;" text-anchor="middle"><textPath startOffset="21.40746469413373" xlink:href="#id81">September</textPath></text><path d="M 81.81346652052679 110.50000000000001 l -5.433244468056899 3.1368851562056994 a27.273770312411393,27.273770312411393 0 0,0 -0.23061483893117726,-0.40747432330431627 l 5.486292672009455 -3.0431540628022615" fill="#fa3200" stroke="none" /><path d="M 81.4637452351635 109.86951160357371 l -5.068673572771727 2.6987831833265843 a26.742376028955338,26.742376028955338 0 0,0 -0.2122732524030759,-0.4070619507603647 l 5.114254894149752 -2.611374989461717" fill="#fa2c00" stroke="none" /><path d="M 80.9802524753101 108.90220220490708 l -4.746154198500562 2.221439812272669 a26.240302903029036,26.240302903029036 0 0,0 -0.18745014677920602,-0.409612400077943 l 4.783588810134824 -2.139638429980037" fill="#fb2600" stroke="none" /><path d="M 79.83685265289637 105.86919833188381 l -11.626700958374428 3.384363199627433 a33.109256353816995,33.109256353816995 0 0,0 -0.1541653815507468,-0.5470785523923282 l 11.68308483199975 -3.184276723332109" fill="#f27500" stroke="none" /><path d="M 79.2786578344484 103.40968896794605 l -14.069953147219014 2.315205436129786 a35.259163992900255,35.259163992900255 0 0,0 -0.09314884794182055,-0.5980824242613407 l 14.107623487299103 -2.073334829936995" fill="#ef8d00" stroke="none" /><path d="M 79.06263194458094 101.62068470465958 l -21.625455722037366 1.6739470418263782 a42.690146008836315,42.690146008836315 0 0,0 -0.05028500521636067,-0.7311329398042474 l 21.651004688418794 -1.3024706778677875" fill="#e5db00" stroke="none" /><path d="M 79.01933749520258 100.90099992219065 l -10.705843147446908 0.4597549691593066 a31.71571052844386,31.71571052844386 0 0,0 -0.018690087852707232,-0.5441415151569576 l 10.712157922296464 -0.27590718943822906" fill="#f46600" stroke="none" /><path d="M 79.00696218219943 100.54070618675478 l -10.869454688913882 0.2799585961762497 a31.873059461344123,31.873059461344123 0 0,0 -0.009392790887443476,-0.5470829800163459 l 10.872658911399991 -0.09332870019085146" fill="#f46700" stroke="none" /><line stroke="#006cb8" stroke-width="0.3" x1="15.003131293944662" x2="10.003315487706104" y1="100.72959589197737" y2="100.7725132973878" /><path d="M 14.003168132696942 100.73817937305945 a86.0,86.0 0 0,1 10.791469493833604,-42.45332614584628" fill="none" id="id82" stroke="none" /><text fill="#006cb8" style="font-size:6.75px; font-family:Arial;" text-anchor="middle"><textPath startOffset="22.145653131862435" xlink:href="#id82">October</textPath></text><path d="M 79.17382384314186 97.30363454192245 l -14.435468726815742 -1.8689604348384994 a35.55595309383302,35.55595309383302 0 0,0 0.08356577401364194,-0.6046403125189415 l 14.401258436246893 2.116489055557508" fill="#ef9000" stroke="none" /><path d="M 79.34024301695615 96.23510406497455 l -10.53710528657304 -1.9202115926587806 a31.710639587854065,31.710639587854065 0 0,0 0.1021893597625822,-0.534697911391055 l 10.502589634528299 2.10081206908315" fill="#f46600" stroke="none" /><path d="M 79.56144815229197 95.17655741523228 l -10.421243578465289 -2.4593851089427057 a31.70751571727976,31.70751571727976 0 0,0 0.12956668341538702,-0.5286762830739081 l 10.377489368533602 2.6379172166247318" fill="#f46600" stroke="none" /><path d="M 79.83685265289637 94.1308016681162 l -10.782764710814986 -3.1387056576215344 a32.23029331825231,32.23029331825231 0 0,0 0.1591926014443598,-0.5299003956206516 l 10.727295789366996 3.3233436568329093" fill="#f36b00" stroke="none" /><path d="M 79.94057633289273 93.78553927170692 l -14.011587292336936 -4.34082555981206 a35.66858360549837,35.66858360549837 0 0,0 0.18621596673387994,-0.5833188635474138 l 13.935006609825798 4.580713457050866" fill="#ef9200" stroke="none" /><path d="M 80.05021161711548 93.44210830539832 l -10.346635287986512 -3.401144529451333 a31.89131056819263,31.89131056819263 0 0,0 0.17542434741855015,-0.518610912279155 l 10.286725518995597 3.5782571162046497" fill="#f46800" stroke="none" /><path d="M 80.16572619554312 93.10060997987247 l -13.103770156984517 -4.558171473201533 a34.87392228269231,34.87392228269231 0 0,0 0.20153777514896562,-0.5637370261363096 l 13.023592211791609 4.782443455718764" fill="#f08900" stroke="none" /><path d="M 80.41425534168474 92.42381321644754 l -19.97396305572209 -7.726357999550454 a42.416251027865925,42.416251027865925 0 0,0 0.26851774355303265,-0.6768401225262474 l 19.838386637202927 8.068099139290284" fill="#e6d800" stroke="none" /><path d="M 80.5471966667186 92.08871423366112 l -9.922612264096017 -4.035440025013632 a31.711816388412878,31.711816388412878 0 0,0 0.20940996932749595,-0.5025076933634075 l 9.851876450232043 4.205180227818303" fill="#f46600" stroke="none" /><path d="M 80.83023694016515 91.42560881287825 l -9.882926572200073 -4.420507349994008 a31.826500951962704,31.826500951962704 0 0,0 0.22735569390952615,-0.49681322236231545 l 9.805586413435499 4.589509554570995" fill="#f46700" stroke="none" /><path d="M 81.29705330413844 90.45014215332179 l -21.605975643181086 -11.032165112079763 a45.25957234894969,45.25957234894969 0 0,0 0.3592574053435637,-0.688923444610765 l 21.413410168862583 11.401434799795014" fill="#d0e200" stroke="none" /><line stroke="#006cb8" stroke-width="0.3" x1="26.387840678322718" x2="22.05771365940052" y1="57.49999999999999" y2="54.99999999999999" /><path d="M 25.521815274538284 56.99999999999999 a86.0,86.0 0 0,1 29.574782752854787,-30.34633250058573" fill="none" id="id83" stroke="none" /><text fill="#006cb8" style="font-size:6.75px; font-family:Arial;" text-anchor="middle"><textPath startOffset="21.40746469413373" xlink:href="#id83">November</textPath></text><path d="M 82.18462484594161 88.88188828441811 l -11.738846677049464 -7.325908527825293 a34.83724889800493,34.83724889800493 0 0,0 0.3209710159137817,-0.5046197488851717 l 11.611357969509793 7.526341951389137" fill="#f08900" stroke="none" /><path d="M 82.576782715395 88.27688183743585 l -37.63818975927921 -25.324653809082392 a66.36486987642951,66.36486987642951 0 0,0 0.6440876950348848,-0.9397431958498635 l 37.19791232742901 25.96703174000229" fill="#00c616" stroke="none" /><path d="M 83.64595745247003 86.82634096563983 l -8.355356404523876 -6.730483674837909 a31.728997676571552,31.728997676571552 0 0,0 0.3453220638738357,-0.4212367693439033 l 8.23858752141141 6.872922725880305" fill="#f46600" stroke="none" /><path d="M 83.8745106332314 86.54754324733833 l -8.231128366308665 -6.8667000333995505 a31.719283722867893,31.719283722867893 0 0,0 0.3523943492478748,-0.4151196573310089 l 8.112039453553676 7.006986473180116" fill="#f46600" stroke="none" /><path d="M 84.10781606972428 86.27271002978789 l -5.487437993500962 -4.739918242881788 a28.251124097801764,28.251124097801764 0 0,0 0.3201645221909338,-0.36428845446257274 l 5.405262407351437 4.833418975155661" fill="#f83e00" stroke="none" /><path d="M 84.34580500576568 86.00192230759919 l -10.199812064212347 -9.120734842980998 a34.682981042931374,34.682981042931374 0 0,0 0.40067480679395867,-0.44041180056170837 l 10.041739556576523 9.294484219100363" fill="#f08700" stroke="none" /><path d="M 84.58840730492382 85.73525988315684 l -7.858403145466869 -7.273620632297253 a31.707943644755694,31.707943644755694 0 0,0 0.37316349028668716,-0.3962866951030617 l 7.73238382144391 7.407448787344826" fill="#f46600" stroke="none" /><path d="M 85.08716467003674 85.21462403516908 l -32.63501667932291 -32.35608658890128 a66.9560730808036,66.9560730808036 0 0,0 0.816252176431119,-0.8092757040237032 l 32.07477258276182 32.91154230315365" fill="#00c51b" stroke="none" /><path d="M 85.60350026404147 84.71141617570332 l -1.5017190102839546 -1.5947735484563914 a23.19053935292302,23.19053935292302 0 0,0 0.29216791904550526,-0.2704262640547553 l 1.4741213199244962 1.6203175586435123" fill="#ff0000" stroke="none" /><path d="M 87.54013794807813 83.09580414077388 l -6.484550892155259 -8.797538679266852 a31.929139357065033,31.929139357065033 0 0,0 0.443995953079948,-0.3214188300383333 l 6.3325739287013425 8.907558280678264" fill="#f36800" stroke="none" /><path d="M 88.12776184653039 82.6780497279521 l -6.205524088664218 -9.054045099695294 a31.97653232502452,31.97653232502452 0 0,0 0.4554428339143544,-0.3064422644254552 l 6.0491849666528745 9.159237038177858" fill="#f36900" stroke="none" /><path d="M 89.03521579738668 82.08984904055464 l -7.7252832338163895 -12.61866958486489 a35.79563527310263,35.79563527310263 0 0,0 0.5268218248158717,-0.3163413689814432 l 7.507528652443083 12.749424954382254" fill="#ee9300" stroke="none" /><line stroke="#006cb8" stroke-width="0.3" x1="56.869717070023135" x2="54.33264160355391" y1="26.7553504044142" y2="22.446841604673864" /><path d="M 56.362301976729285 25.89364864446614 a86.0,86.0 0 0,1 42.16139366436587,-11.88097634709845" fill="none" id="id84" stroke="none" /><text fill="#006cb8" style="font-size:6.75px; font-family:Arial;" text-anchor="middle"><textPath startOffset="22.145653131862474" xlink:href="#id84">December</textPath></text><path d="M 89.65649057296885 81.72400993836675 l -8.613061376511897 -15.21845416469543 a38.48674279099732,38.48674279099732 0 0,0 0.5777699687525297,-0.32047926220648026 l 8.350547219603266 15.364066342335056" fill="#ebb000" stroke="none" /><path d="M 91.5904679813234 80.7573450057729 l -8.573967915754556 -19.618916506652543 a42.41062378155742,42.41062378155742 0 0,0 0.6696131088622481,-0.2858180185165776 l 8.235919731721879 19.763209174828525" fill="#e6d800" stroke="none" /></svg>