<?xml version="1.0" encoding="utf-8" ?>
<svg baseProfile="full" height="200mm" version="1.1" viewBox="0,0,200,200" width="200mm" xmlns="http://www.w3.org/2000/svg" xmlns:ev="http://www.w3.org/2001/xml-events" xmlns:xlink="http://www.w3.org/1999/xlink"><defs /><rect fill="#1a1a1a" height="200" width="200" x="0" y="0" /><text alignment-baseline="middle" fill="#e1ed5e" style="dominant-baseline: central; font-size:9.0px; font-family:Arial;" text-anchor="middle" x="100.0" y="100.0">2020</text><line stroke="#e1ed5e" stroke-width="0.3" x1="100.0" x2="100.0" y1="15.0" y2="10.0" /><path d="M 100.0 14.0 a86.0,86.0 0 0,1 42.35913384403234,11.155469271406648" fill="none" id="id73" stroke="none" /><text fill="#e1ed5e" style="font-size:6.75px; font-family:Arial;" text-anchor="middle"><textPath startOffset="22.145653131862478" xlink:href="#id73">January</textPath></text><path d="M 100.0 79.0 l 0.0 -15.502419781916387 a36.50241978191639,36.50241978191639 0 0,0 0.6266125748211302,0.005378715326936535 l -0.26611964997227544 15.500135464783886" fill="#ffb210" stroke="none" /><path d="M 101.44090949804482 79.04949213459386 l 0.6676547734661472 -9.707553876116808 a30.730486378092444,30.730486378092444 0 0,0 0.5259756957106553,0.040713845350791325 l -0.8341994639520359 9.694662263770963" fill="#ff6309" stroke="none" /><path d="M 102.15924093988457 79.11130261209362 l 3.3892440940471533 -32.78786213551722 a53.962567845159114,53.962567845159114 0 0,0 0.9206119388738938,0.10315648796356672 l -3.9515919345218435 32.72484988704669" fill="#78ff26" stroke="none" /><path d="M 104.29559338865022 79.4440306129975 l 7.155889090120045 -34.243519757235276 a55.98321589039895,55.98321589039895 0 0,0 0.9390186988154008,0.2046547548995787 l -7.74267020555458 34.11563354420198" fill="#62ff29" stroke="none" /><path d="M 106.72888874123014 80.10723608172694 l 18.95071115163946 -56.02441019912461 a80.14274250753553,80.14274250753553 0 0,0 1.2994352969665812,0.4520110495640172 l -19.90965222065106 55.690840716992" fill="#48f7ff" stroke="none" /><path d="M 107.74402155503746 80.48000691201159 l 14.146435080332523 -35.65825753779576 a59.361868516977,59.361868516977 0 0,0 0.9439824365068646,0.3839094389461859 l -14.756471978029827 35.41016084227028" fill="#3fff2d" stroke="none" /><line stroke="#e1ed5e" stroke-width="0.3" x1="143.13028292997686" x2="145.6673583964461" y1="26.7553504044142" y2="22.446841604673864" /><path d="M 143.63769802327073 25.89364864446614 a86.0,86.0 0 0,1 29.32050498858742,28.57503671076993" fill="none" id="id74" stroke="none" /><text fill="#e1ed5e" style="font-size:6.75px; font-family:Arial;" text-anchor="middle"><textPath startOffset="20.669276256404974" xlink:href="#id74">February</textPath></text><path d="M 110.96478420261332 82.08984904055464 l 21.267379581168996 -34.73866624021466 a61.73176115021979,61.73176115021979 0 0,0 0.8990374739391831,0.5610658762621309 l -21.860581183897892 34.36846456711098" fill="#30ff3a" stroke="none" /><line stroke="#e1ed5e" stroke-width="0.3" x1="172.87174338648825" x2="177.1583165268699" y1="56.24261187166439" y2="53.66864786411523" /><path d="M 173.72905801456457 55.72781907015455 a86.0,86.0 0 0,1 12.242430191666344,42.057860355516425" fill="none" id="id75" stroke="none" /><text fill="#e1ed5e" style="font-size:6.75px; font-family:Arial;" text-anchor="middle"><textPath startOffset="22.145653131862474" xlink:href="#id75">March</textPath></text><line stroke="#e1ed5e" stroke-width="0.3" x1="184.99686870605535" x2="189.99668451229388" y1="99.2704041080226" y2="99.22748670261217" /><path d="M 185.99683186730306 99.26182062694052 a86.0,86.0 0 0,1 -10.086455211305974,41.156179273409016" fill="none" id="id76" stroke="none" /><text fill="#e1ed5e" style="font-size:6.75px; font-family:Arial;" text-anchor="middle"><textPath startOffset="21.40746469413373" xlink:href="#id76">April</textPath></text><path d="M 119.71291397450082 107.23885506374661 l 13.523780742455228 4.966119612511515 a35.4067688804872,35.4067688804872 0 0,0 -0.2144121231843667,0.5687536304391754 l -13.436537935456421 -5.197541523144849" fill="#ffa40f" stroke="none" /><path d="M 119.16976305983485 108.57439118712176 l 18.675426143538733 8.353280572174242 a41.45846616831852,41.45846616831852 0 0,0 -0.2961625708823265,0.6471686662121134 l -18.52927910780135 -8.672638220601044" fill="#fff316" stroke="none" /><line stroke="#e1ed5e" stroke-width="0.3" x1="174.33088141563837" x2="178.70328620479359" y1="141.23008692659167" y2="143.65538615756765" /><path d="M 175.20536237346943 141.71514677278685 a86.0,86.0 0 0,1 -30.301960400862466,31.631185727798858" fill="none" id="id77" stroke="none" /><text fill="#e1ed5e" style="font-size:6.75px; font-family:Arial;" text-anchor="middle"><textPath startOffset="22.145653131862474" xlink:href="#id77">May</textPath></text><path d="M 113.59037401385872 116.0094264158162 l 2.0136877285538923 2.3721190808907133 a24.11157310729707,24.11157310729707 0 0,0 -0.31784296570626935,0.26515590646897463 l -1.972670428685728 -2.406337171271558" fill="#ff0200" stroke="none" /><path d="M 112.7482090630111 116.68781488649013 l 14.479933363214787 18.95469758455359 a44.85265248824588,44.85265248824588 0 0,0 -0.6158632516385609,0.4621552654855117 l -14.15241712266546 -19.200471877303116" fill="#e1ff1b" stroke="none" /><path d="M 112.45986205192187 116.90419585922612 l 1.9331779056622564 2.6227271065976834 a24.258201081981124,24.258201081981124 0 0,0 -0.33732644619548796,0.24419833317179035 l -1.8878704490928007 -2.655526211142551" fill="#ff0400" stroke="none" /><path d="M 112.16784306229584 117.11559508785304 l 20.61217056449743 28.99359923180473 a56.57373148538739,56.57373148538739 0 0,0 -0.7963558446522958,0.5559182276789849 l -20.111419628671374 -29.343162275288837" fill="#5cff2a" stroke="none" /><path d="M 111.8722381534696 117.32195027204791 l 3.466239388544285 5.057346857705252 a27.131196680733463,27.131196680733463 0 0,0 -0.3864305540751258,0.2600077226294268 l -3.3789125463721557 -5.1161042543918" fill="#ff2f04" stroke="none" /><path d="M 111.5731344415666 117.5232005979908 l 3.3204630856028716 5.027604321113057 a27.02513736876812,27.02513736876812 0 0,0 -0.3893091592514452,0.2523454935269646 l -3.233668294094417 -5.083863656343917" fill="#ff2e04" stroke="none" /><line stroke="#e1ed5e" stroke-width="0.3" x1="143.1302829299769" x2="145.66735839644613" y1="173.24464959558577" y2="177.55315839532614" /><path d="M 143.63769802327073 174.10635135553383 a86.0,86.0 0 0,1 -40.68552437913181,11.842963189579606" fill="none" id="id78" stroke="none" /><text fill="#e1ed5e" style="font-size:6.75px; font-family:Arial;" text-anchor="middle"><textPath startOffset="21.407464694133747" xlink:href="#id78">June</textPath></text><path d="M 110.65571695917076 118.09573695890943 l 9.561216345779927 16.237035636682595 a39.842987668565456,39.842987668565456 0 0,0 -0.592346707289114,0.3419915309069597 l -9.281077170630414 -16.398774064865727" fill="#ffde14" stroke="none" /><path d="M 110.34350942703117 118.27599006163325 l 1.8897500611939777 3.3390072857762116 a24.836681502059985,24.836681502059985 0 0,0 -0.3728527709733539,0.20681514688479993 l -1.8321531020645292 -3.370955348094155" fill="#ff0d01" stroke="none" /><path d="M 110.02825361518725 118.45085714620011 l 1.5650863629614604 2.8795826284982313 a24.27742146174042,24.27742146174042 0 0,0 -0.3678736682375884,0.19587200776975033 l -1.5154238789373184 -2.90602510399055" fill="#ff0500" stroke="none" /><path d="M 109.71004243097381 118.62028667847754 l 1.4199107945034593 2.7228661707163804 a24.070854416604462,24.070854416604462 0 0,0 -0.36802362396509913,0.18791548466871866 l -1.372959948824778 -2.7468396070579355" fill="#ff0200" stroke="none" /><path d="M 109.3889696526874 118.78422872680471 l 1.3743331685027265 2.7495869662972265 a24.073925851948665,24.073925851948665 0 0,0 -0.3712425784370704,0.1815933483164139 l -1.3269303408035866 -2.772774064710864" fill="#ff0200" stroke="none" /><path d="M 108.4095320186766 119.2426549942271 l 2.804409868204457 6.417038598154551 a28.003077829004035,28.003077829004035 0 0,0 -0.44213516168429945,0.18872120954117977 l -2.6938396313497264 -6.4642344573551345" fill="#ff3c05" stroke="none" /><path d="M 108.07796709384702 119.3841803445677 l 2.3239731191709136 5.576689473301982 a27.04154918379931,27.04154918379931 0 0,0 -0.43001927202043116,0.17488509433322907 l -2.227899385960042 -5.615761824214502" fill="#ff2e04" stroke="none" /><path d="M 107.74402155503746 119.51999308798841 l 2.290479898648133 5.773505596805074 a27.21125309760041,27.21125309760041 0 0,0 -0.4356751458915298,0.16852850579895234 l -2.191032490263074 -5.811973990742066" fill="#ff3004" stroke="none" /><path d="M 107.407793817531 119.65005319985036 l 2.168923659756904 5.7533276911373745 a27.1485778325936,27.1485778325936 0 0,0 -0.43749396455771244,0.16065384370843047 l -2.0698405435450646 -5.789712383854527" fill="#ff2f04" stroke="none" /><path d="M 107.06938296918513 119.77432235084164 l 3.0720636653515134 8.593108827993126 a30.125738024604168,30.125738024604168 0 0,0 -0.48845904334578694,0.16991141103153015 l -2.924098849960705 -8.644578671593246" fill="#ff5a08" stroke="none" /><path d="M 106.0420521117495 120.11202640906438 l 1.0824831596278444 3.6032343798337085 a24.76232212694414,24.76232212694414 0 0,0 -0.4081538035439576,0.11880762371437618 l -1.02046934370228 -3.621285697850603" fill="#ff0c01" stroke="none" /><path d="M 105.69591212413111 120.21278271476187 l 12.634503212391165 44.83539467877245 a67.58157669535478,67.58157669535478 0 0,0 -1.1193394918477504,0.3050809559847333 l -11.862982319608719 -45.04567612890133" fill="#38ff80" stroke="none" /><path d="M 104.9986988182912 120.39639698878246 l 0.7109930426047982 2.9010942407982823 a23.98694809138448,23.98694809138448 0 0,0 -0.4007737531036852,0.09458151448211688 l -0.6610871357612339 -2.9128718989266242" fill="#ff0000" stroke="none" /><path d="M 104.64783097203109 120.47920084513623 l 0.7799540334318447 3.4366213824778553 a24.524016858752326,24.524016858752326 0 0,0 -0.41134668729135665,0.08965109595002452 l -0.7208449295213522 -3.4495039365615985" fill="#ff0801" stroke="none" /><path d="M 103.58742460773223 120.69131181640829 l 1.238511780252364 7.143406826797731 a28.24997741534167,28.24997741534167 0 0,0 -0.47853107166093595,0.07874210573937515 l -1.1157032055383558 -7.163614931032777" fill="#ff3f05" stroke="none" /><path d="M 103.2317021107853 120.74984581791261 l 0.47548631653142553 3.052963243000379 a24.089768891085548,24.089768891085548 0 0,0 -0.40915313215062865,0.060131420464222665 l -0.4230080787731114 -3.0606757367634843" fill="#ff0200" stroke="none" /><path d="M 102.51750503828377 120.84855314841334 l 1.0707536287204473 8.867376071848176 a29.93178995123618,29.93178995123618 0 0,0 -0.5106421781120898,0.05721852115511754 l -0.9183755490075582 -8.884450353510264" fill="#ff5808" stroke="none" /><path d="M 101.44090949804482 120.95050786540614 l 1.9542676387151448 28.41462256412781 a49.48174744403107,49.48174744403107 0 0,0 -0.8479183944804543,0.05100866504482797 l -1.4662048921022255 -28.443983206997327" fill="#aaff21" stroke="none" /><path d="M 101.08105385017728 120.97215588758144 l 0.3807128250335743 7.385727097402489 a28.39553290929399,28.39553290929399 0 0,0 -0.48701616513995605,0.020914569632693857 l -0.25387089929278867 -7.391174235461014" fill="#ff4206" stroke="none" /><line stroke="#e1ed5e" stroke-width="0.3" x1="101.45913802915013" x2="101.54496967792366" y1="184.9874750549273" y2="189.98673829345242" /><path d="M 101.47630435890484 185.9873277026323 a86.0,86.0 0 0,1 -42.54439059252881,-10.42667462771756" fill="none" id="id79" stroke="none" /><text fill="#e1ed5e" style="font-size:6.75px; font-family:Arial;" text-anchor="middle"><textPath startOffset="22.145653131862474" xlink:href="#id79">July</textPath></text><path d="M 100.36049292484886 120.99690560180557 l 0.053408010699125395 3.110748871146174 a24.11120731468413,24.11120731468413 0 0,0 -0.41390093554797724,0.003552841732390685 l -3.8101300794117515e-16 -3.1112073146841297" fill="#ff0200" stroke="none" /><path d="M 100.0 121.0 l 3.819704979367605e-16 3.119025813832227 a24.119025813832227,24.119025813832227 0 0,0 -0.4140351504825403,-0.0035539938061834022 l 0.05354222563368776 -3.1185662182204785" fill="#ff0200" stroke="none" /><path d="M 99.63950707515114 120.99690560180557 l -0.052392008801132796 3.0515718541427628 a24.05202157652637,24.05202157652637 0 0,0 -0.4127632545649191,-0.010631317265527405 l 0.10476857743679577 -3.050222819527188" fill="#ff0100" stroke="none" /><path d="M 98.55909050195518 120.95050786540614 l -1.6053603971022448 23.341587845689883 a44.39672851410303,44.39672851410303 0 0,0 -0.759883845643571,-0.058819815494129526 l 2.005813237521052 -23.310590263200698" fill="#e6ff1a" stroke="none" /><path d="M 98.19965949673042 120.92268563240118 l -0.2825180346694509 3.2832878081328247 a24.295420348141818,24.295420348141818 0 0,0 -0.415220808128223,-0.03932184223318948 l 0.3388384061826892 -3.277954210394452" fill="#ff0500" stroke="none" /><path d="M 97.84075906011543 120.88869738790638 l -0.31387876114092716 3.0364922861801045 a24.05267182656876,24.05267182656876 0 0,0 -0.41034327552559585,-0.04597981991681005 l 0.3659579382673223 -3.0306567057563236" fill="#ff0100" stroke="none" /><path d="M 97.48249496171623 120.84855314841334 l -4.095660050573259 33.917940557696305 a55.16432529591769,55.16432529591769 0 0,0 -0.9391652254152981,-0.12159374117286147 l 4.677303097879351 -33.84263522032305" fill="#6bff28" stroke="none" /><path d="M 97.12497278360702 120.80226474461374 l -0.7161155646057474 5.181455492917711 a26.23070765068721,26.23070765068721 0 0,0 -0.4455159467211692,-0.06547550198380082 l 0.8049566169346015 -5.168398917635027" fill="#ff2203" stroke="none" /><path d="M 96.05791012581884 120.62667999033965 l -2.373187700763056 12.41752086406131 a33.64226420671752,33.64226420671752 0 0,0 -0.5663170777033666,-0.11327927617544838 l 2.586001263997381 -12.374952191223" fill="#ff8c0c" stroke="none" /><path d="M 95.70440661134978 120.55596938700252 l -1.3551894240403404 6.485071978126934 a27.625156370721974,27.625156370721974 0 0,0 -0.46336277716864643,-0.10098776063849217 l 1.4663146178281232 -6.460852759354722" fill="#ff3605" stroke="none" /><path d="M 95.35216902796893 120.47920084513623 l -1.4872496784156608 6.553096499081326 a27.71974592765377,27.71974592765377 0 0,0 -0.4631413120244472,-0.10930008856935779 l 1.599523144179996 -6.52660026686574" fill="#ff3805" stroke="none" /><path d="M 95.00130118170881 120.39639698878247 l -0.7569609366839062 3.0886589352233695 a24.18006350216478,24.18006350216478 0 0,0 -0.40230410462526606,-0.10226413019778016 l 0.8098703345345508 -3.0752095731903264" fill="#ff0300" stroke="none" /><path d="M 94.6519064749342 120.30758222061772 l -5.46601067363379 20.75533284026225 a42.46301735531021,42.46301735531021 0 0,0 -0.703306057552844,-0.19168919344914423 l 5.82149813212133 -20.658443152668962" fill="#feff18" stroke="none" /><path d="M 92.25597844496254 119.51999308798841 l -4.5329975951162504 11.426115112887137 a33.292443767220476,33.292443767220476 0 0,0 -0.5294220510538757,-0.21531133920028034 l 4.728474107360567 -11.346616517107565" fill="#ff870c" stroke="none" /><line stroke="#e1ed5e" stroke-width="0.3" x1="58.13341422392154" x2="55.67067388415222" y1="173.97424548756322" y2="178.32567169271397" /><path d="M 57.64086615596768 174.84453072859336 a86.0,86.0 0 0,1 -31.369924170532247,-30.572349798747897" fill="none" id="id80" stroke="none" /><text fill="#e1ed5e" style="font-size:6.75px; font-family:Arial;" text-anchor="middle"><textPath startOffset="22.145653131862474" xlink:href="#id80">August</textPath></text><path d="M 88.4268655584334 117.5232005979908 l -2.166034654302167 3.279652538487112 a24.930372361092886,24.930372361092886 0 0,0 -0.35508413868222377,-0.2389164554070134 l 2.2220150810813966 -3.241986409022977" fill="#ff0f01" stroke="none" /><line stroke="#e1ed5e" stroke-width="0.3" x1="26.387840678322732" x2="22.057713659400548" y1="142.50000000000003" y2="145.00000000000006" /><path d="M 25.521815274538298 143.00000000000003 a86.0,86.0 0 0,1 -11.493303480769221,-40.785679425670985" fill="none" id="id81" stroke="none" /><text fill="#e1ed5e" style="font-size:6.75px; font-family:Arial;" text-anchor="middle"><textPath startOffset="21.40746469413373" xlink:href="#id81">September</textPath></text><path d="M 81.81346652052679 110.50000000000001 l -3.4158796799162645 1.9721590527190305 a24.944318105438057,24.944318105438057 0 0,0 -0.21091802989614017,-0.3726719490511951 l 3.4492310748337833 -1.9132303335687137" fill="#ff0f01" stroke="none" /><path d="M 81.4637452351635 109.86951160357371 l -3.629367346733361 1.932433687206738 a25.11176449872628,25.11176449872628 0 0,0 -0.19932992932090474,-0.38224142210918216 l 3.6620053450292147 -1.869846021993053" fill="#ff1101" stroke="none" /><path d="M 80.9802524753101 108.90220220490708 l -3.5906460560381204 1.6806036565737543 a24.964488333975922,24.964488333975922 0 0,0 -0.17833624176386226,-0.38969687282143683 l 3.6189667626570383 -1.6187178015376287" fill="#ff0f01" stroke="none" /><path d="M 79.83685265289637 105.86919833188381 l -16.32330665854126 4.7514766698811135 a38.00079029966554,38.00079029966554 0 0,0 -0.17694164656472178,-0.6279034818765642 l 16.402466797180555 -4.470565264101554" fill="#ffc612" stroke="none" /><path d="M 79.2786578344484 103.40968896794605 l -19.31385461596805 3.1780874272739 a40.57358474633982,40.57358474633982 0 0,0 -0.10718866382516583,-0.6882281137167664 l 19.365564771931485 -2.8460711316256835" fill="#ffe815" stroke="none" /><path d="M 79.06263194458094 101.62068470465958 l -29.615363768338796 2.2924164563202245 a50.7039550285857,50.7039550285857 0 0,0 -0.05972452384151613,-0.8683814689244428 l 29.650352253345375 -1.7836915632414385" fill="#9cff22" stroke="none" /><path d="M 79.01933749520258 100.90099992219065 l -14.714930116584474 0.6319224136536133 a35.72849260015575,35.72849260015575 0 0,0 -0.021054822812272507,-0.6129881933525388 l 14.723609626393594 -0.3792279557369546" fill="#ffa80f" stroke="none" /><path d="M 79.00696218219943 100.54070618675478 l -14.724916116024254 0.37926160627540256 a35.72979952307381,35.72979952307381 0 0,0 -0.010529348014975818,-0.613281734757116 l 14.729256895637894 -0.12643295554923423" fill="#ffa80f" stroke="none" /><line stroke="#e1ed5e" stroke-width="0.3" x1="15.003131293944662" x2="10.003315487706104" y1="100.72959589197737" y2="100.7725132973878" /><path d="M 14.003168132696942 100.73817937305945 a86.0,86.0 0 0,1 10.791469493833604,-42.45332614584628" fill="none" id="id82" stroke="none" /><text fill="#e1ed5e" style="font-size:6.75px; font-family:Arial;" text-anchor="middle"><textPath startOffset="22.145653131862435" xlink:href="#id82">October</textPath></text><path d="M 79.17382384314186 97.30363454192245 l -19.99500816675461 -2.5887541211957794 a41.16189473954746,41.16189473954746 0 0,0 0.09674120068447671,-0.6999711365776456 l 19.947622449514924 2.931613565973492" fill="#ffef16" stroke="none" /><path d="M 79.34024301695615 96.23510406497455 l -14.099012032932983 -2.5693096552021335 a35.331206941814216,35.331206941814216 0 0,0 0.11385684628089912,-0.5957471310654079 l 14.052828894369926 2.810959351300856" fill="#ffa30f" stroke="none" /><path d="M 79.56144815229197 95.17655741523228 l -14.265591982011465 -3.3666408645616053 a35.65746858458738,35.65746858458738 0 0,0 0.14570740844813496,-0.5945359492434427 l 14.205697047047032 3.6110326384131657" fill="#ffa70f" stroke="none" /><path d="M 79.83685265289637 94.1308016681162 l -14.429922935601123 -4.200340262603278 a36.02882344859482,36.02882344859482 0 0,0 0.1779543882870368,-0.5923522820794563 l 14.355692227310458 4.447430148273458" fill="#ffac0f" stroke="none" /><path d="M 79.94057633289273 93.78553927170692 l -19.198993174983013 -5.94789716238664 a41.099224352879176,41.099224352879176 0 0,0 0.2145678639648658,-0.6721307778115991 l 19.09406059524089 6.276596973889632" fill="#ffee16" stroke="none" /><path d="M 80.05021161711548 93.44210830539832 l -14.209201214903805 -4.67084666993689 a35.95721256717589,35.95721256717589 0 0,0 0.19778963100619917,-0.5847298991555808 l 14.12692616232524 4.914078243566632" fill="#ffab0f" stroke="none" /><path d="M 80.16572619554312 93.10060997987247 l -17.978369670153022 -6.253810222814639 a40.03501821117224,40.03501821117224 0 0,0 0.23136395249502378,-0.6471661525402947 l 17.868365547614054 6.561511331735855" fill="#ffe115" stroke="none" /><path d="M 80.41425534168474 92.42381321644754 l -27.54036200747238 -10.653203658849813 a50.529007563742454,50.529007563742454 0 0,0 0.31987586753191855,-0.8062961445627275 l 27.353427464974327 11.124400820626123" fill="#9eff22" stroke="none" /><path d="M 80.5471966667186 92.08871423366112 l -13.615948508547817 -5.537487722737731 a35.69890553976372,35.69890553976372 0 0,0 0.23573883698565534,-0.5656873910552638 l 13.518883827025682 5.7704076232342585" fill="#ffa80f" stroke="none" /><path d="M 80.83023694016515 91.42560881287825 l -13.548159417033785 -6.05991938160845 a35.841672631511415,35.841672631511415 0 0,0 0.25603846191935287,-0.5594902468792531 l 13.442136490259385 6.291598610702374" fill="#ffaa0f" stroke="none" /><path d="M 81.29705330413844 90.45014215332179 l -29.46609868403557 -15.045599942334064 a54.08505779475208,54.08505779475208 0 0,0 0.42931155825758105,-0.8232615198096894 l 29.203479056803047 15.549207705248241" fill="#76ff27" stroke="none" /><line stroke="#e1ed5e" stroke-width="0.3" x1="26.387840678322718" x2="22.05771365940052" y1="57.49999999999999" y2="54.99999999999999" /><path d="M 25.521815274538284 56.99999999999999 a86.0,86.0 0 0,1 29.574782752854787,-30.34633250058573" fill="none" id="id83" stroke="none" /><text fill="#e1ed5e" style="font-size:6.75px; font-family:Arial;" text-anchor="middle"><textPath startOffset="21.40746469413373" xlink:href="#id83">November</textPath></text><path d="M 82.18462484594161 88.88188828441811 l -16.068756959307542 -10.028092782734205 a39.94116139724332,39.94116139724332 0 0,0 0.36799562410864445,-0.5785502435473108 l 15.89424364357301 10.302456700960189" fill="#ffe014" stroke="none" /><path d="M 82.576782715395 88.27688183743585 l -51.32543132588295 -34.53404077727649 a82.86194204189295,82.86194204189295 0 0,0 0.8041959150263073,-1.1733458737094726 l 50.72504567404133 35.410021386055995" fill="#4cddff" stroke="none" /><path d="M 83.64595745247003 86.82634096563983 l -11.454253040269487 -9.226735445211606 a35.70824801553356,35.70824801553356 0 0,0 0.3886301744460037,-0.47406562244167033 l 11.294176046584852 9.422003349351769" fill="#ffa80f" stroke="none" /><path d="M 83.8745106332314 86.54754324733833 l -11.348780240822121 -9.467556110249964 a35.7793582964622,35.7793582964622 0 0,0 0.3975008954662599,-0.46825505535746925 l 11.184584781848747 9.66097794805699" fill="#ffa90f" stroke="none" /><path d="M 84.10781606972428 86.27271002978789 l -7.486128371364193 -6.46633938789086 a30.892202134607473,30.892202134607473 0 0,0 0.35009534847577756,-0.39834424044872613 l 7.374021958929823 6.593895906150887" fill="#ff6509" stroke="none" /><path d="M 84.34580500576568 86.00192230759919 l -13.89096795367837 -12.421389200138218 a39.63464247983926,39.63464247983926 0 0,0 0.45787882818665027,-0.5032890407418754 l 13.675691424649854 12.658015816437752" fill="#ffdc14" stroke="none" /><path d="M 84.58840730492382 85.73525988315684 l -12.044157605819978 -11.147892471114432 a37.41149715843625,37.41149715843625 0 0,0 0.44028729875712236,-0.46756985359491654 l 11.851014473326583 11.35300378465386" fill="#ffbe11" stroke="none" /><path d="M 85.08716467003674 85.21462403516908 l -44.73850598988975 -44.35612789449276 a84.0,84.0 0 0,0 1.024032319480094,-1.0152799590853063 l 43.97048175027968 45.11758786380673" fill="#4dd2ff" stroke="none" /><path d="M 85.60350026404147 84.71141617570332 l -2.0309932862181483 -2.1568444880648996 a23.962585336215504,23.962585336215504 0 0,0 0.30189460391959266,-0.2794291383632371 l 1.9936689109846024 2.1913913725605023" fill="#ff0000" stroke="none" /><path d="M 87.54013794807813 83.09580414077388 l -8.852226418892053 -12.009745256536435 a35.91964790798462,35.91964790798462 0 0,0 0.49948663284821365,-0.3615898028713586 l 8.644758775669871 12.159935830780872" fill="#ffab0f" stroke="none" /><path d="M 88.12776184653039 82.6780497279521 l -8.441947379648987 -12.317053517561854 a35.93239039521956,35.93239039521956 0 0,0 0.511786254512298,-0.34435263233072017 l 8.2292648370397 12.460155823949684" fill="#ffab0f" stroke="none" /><path d="M 89.03521579738668 82.08984904055464 l -10.68004784229852 -17.44505551363935 a41.45466655283688,41.45466655283688 0 0,0 0.6101085485388583,-0.3663526535551553 l 10.379006537202228 17.625822167730426" fill="#fff316" stroke="none" /><line stroke="#e1ed5e" stroke-width="0.3" x1="56.869717070023135" x2="54.33264160355391" y1="26.7553504044142" y2="22.446841604673864" /><path d="M 56.362301976729285 25.89364864446614 a86.0,86.0 0 0,1 42.16139366436587,-11.88097634709845" fill="none" id="id84" stroke="none" /><text fill="#e1ed5e" style="font-size:6.75px; font-family:Arial;" text-anchor="middle"><textPath startOffset="22.145653131862474" xlink:href="#id84">December</textPath></text><path d="M 89.65649057296885 81.72400993836675 l -11.85032250875565 -20.938384396999574 a45.0592203680426,45.0592203680426 0 0,0 0.6764371951514452,-0.3752083094578578 l 11.489141125448102 21.13872562189058" fill="#deff1b" stroke="none" /><path d="M 91.5904679813234 80.7573450057729 l -11.672018479427429 -26.70786248117651 a50.14697126113674,50.14697126113674 0 0,0 0.7917607979347311,-0.33795560363105626 l 11.211822606322267 26.904292734466967" fill="#a2ff22" stroke="none" /></svg>