<?xml version="1.0" encoding="utf-8" ?>
<svg baseProfile="full" height="200mm" version="1.1" viewBox="0,0,200,200" width="200mm" xmlns="http://www.w3.org/2000/svg" xmlns:ev="http://www.w3.org/2001/xml-events" xmlns:xlink="http://www.w3.org/1999/xlink"><defs /><rect fill="#1a1a1a" height="200" width="200" x="0" y="0" /><text alignment-baseline="middle" fill="#e1ed5e" style="dominant-baseline: central; font-size:9.0px; font-family:Arial;" text-anchor="middle" x="100.0" y="100.0">2024</text><line stroke="#e1ed5e" stroke-width="0.3" x1="100.0" x2="100.0" y1="15.0" y2="10.0" /><path d="M 100.0 14.0 a86.0,86.0 0 0,1 42.35913384403234,11.155469271406648" fill="none" id="id121" stroke="none" /><text fill="#e1ed5e" style="font-size:6.75px; font-family:Arial;" text-anchor="middle"><textPath startOffset="22.145653131862478" xlink:href="#id121">January</textPath></text><path d="M 100.0 79.0 l 0.0 -0.686046754226723 a21.686046754226723,21.686046754226723 0 0,0 0.3722698296590574,0.0031954887581290585 l -0.01177690481020261 0.6859456636630289" fill="#ff0000" stroke="none" /><path d="M 100.72087961077811 79.0123766808444 l 0.22359401579078017 -6.509695807277645 a27.513534661547876,27.513534661547876 0 0,0 0.47188887713835875,0.020264938797191472 l -0.3353086535299752 6.504898300054623" fill="#ff5307" stroke="none" /><path d="M 101.44090949804482 79.04949213459386 l 0.439356096783462 -6.388141221822785 a27.403232156476314,27.403232156476314 0 0,0 0.46902720382904417,0.036305671911720114 l -0.5489522953877397 6.379657782916011" fill="#ff5107" stroke="none" /><path d="M 102.15924093988457 79.11130261209362 l 0.07094146172358927 -0.6862942892695518 a21.689951116004227,21.689951116004227 0 0,0 0.3700347990903833,0.041463171056808024 l -0.08271216241476921 0.6849753577057729" fill="#ff0000" stroke="none" /><path d="M 102.51750503828377 79.15144685158666 l 0.7512244744591632 -6.221216301051684 a27.266408099980215,27.266408099980215 0 0,0 0.4642069339580708,0.0601008813474595 l -0.8579092303080257 6.207403823503827" fill="#ff4f07" stroke="none" /><path d="M 103.23170211078529 79.25015418208739 l 0.9537100598647246 -6.123502729766289 a27.197325920083788,27.197325920083788 0 0,0 0.46070003269388815,0.0758080150628563 l -1.0586875956116832 6.106228716207765" fill="#ff4e07" stroke="none" /><path d="M 103.94208987418118 79.37332000966035 l 1.165887146763922 -6.100414208883241 a27.21082493385008,27.21082493385008 0 0,0 0.4580534402722795,0.0916235165892312 l -1.2704370725671583 6.079501295631151" fill="#ff4e07" stroke="none" /><path d="M 104.64783097203109 79.52079915486377 l 0.4058144634721269 -1.788093403851802 a22.833565760931823,22.833565760931823 0 0,0 0.3815030495703263,0.09003368091964843 l -0.4364496667823382 1.780863579285926" fill="#ff1101" stroke="none" /><path d="M 105.3480935250658 79.69241777938227 l 1.5984475990035056 -6.069565891092618 a27.276516934819423,27.276516934819423 0 0,0 0.45177523369761996,0.12313334889951535 l -1.7024042336358183 6.041232048048961" fill="#ff4f07" stroke="none" /><path d="M 105.69591212413111 79.78721728523813 l 0.3024737931475087 -1.07337278465002 a22.115176905413836,22.115176905413836 0 0,0 0.3645212885818368,0.10610683451599125 l -0.3208550941109499 1.068022255831513" fill="#ff0601" stroke="none" /><path d="M 106.38641147887787 79.99465700312896 l 1.9009831706130513 -5.954802706523308 a27.250872922126266,27.250872922126266 0 0,0 0.4444192550037653,0.14608943640778932 l -2.002925163264559 5.921292348713497" fill="#ff4f07" stroke="none" /><path d="M 107.06938296918511 80.22567764915836 l 0.9457323327053715 -2.6453816529740384 a23.809351123483143,23.809351123483143 0 0,0 0.38368298629822617,0.14089370713183255 l -0.9910044706577225 2.6287570968334837" fill="#ff1f03" stroke="none" /><path d="M 107.40779381753099 80.34994680014964 l 2.1819612317792823 -5.787911399883473 a27.18553742126655,27.18553742126655 0 0,0 0.43526341619285897,0.16836923990654643 l -2.280996910465667 5.749602271838889" fill="#ff4e07" stroke="none" /><path d="M 108.73861861582097 80.90454125486305 l 2.5972512991387817 -5.6754628178493425 a27.241521650020008,27.241521650020008 0 0,0 0.42355544143072726,0.19824533315756923 l -2.694295454441014 5.63004125312124" fill="#ff4f07" stroke="none" /><path d="M 109.3889696526874 81.21577127319529 l 6.909045113387374 -13.822718412614503 a36.453234247019424,36.453234247019424 0 0,0 0.5573400570102972,0.28458180431458874 l -7.145312392111251 13.70207865662708" fill="#ffc912" stroke="none" /><line stroke="#e1ed5e" stroke-width="0.3" x1="143.13028292997686" x2="145.6673583964461" y1="26.7553504044142" y2="22.446841604673864" /><path d="M 143.63769802327073 25.89364864446614 a86.0,86.0 0 0,1 29.32050498858742,28.57503671076993" fill="none" id="id122" stroke="none" /><text fill="#e1ed5e" style="font-size:6.75px; font-family:Arial;" text-anchor="middle"><textPath startOffset="20.669276256404974" xlink:href="#id122">February</textPath></text><path d="M 110.96478420261332 82.08984904055464 l 5.470660495465373 -8.93591278324534 a31.477531366042907,31.477531366042907 0 0,0 0.4584265823277563,0.28609209245595435 l -5.623251206582842 8.840684893947842" fill="#ff880c" stroke="none" /><path d="M 111.27062007382361 82.28071324371311 l 1.325432098877298 -2.0837994078551545 a23.46961337478395,23.46961337478395 0 0,0 0.33809025005929766,0.21914601539791792 l -1.361007981193603 2.060739550753342" fill="#ff1a02" stroke="none" /><path d="M 111.8722381534696 82.67804972795209 l 3.4763700571559433 -5.072127805968359 a27.149116136028642,27.149116136028642 0 0,0 0.3821624761954156,0.2667790886180094 l -3.5629276245251194 5.011703901545223" fill="#ff4e07" stroke="none" /><path d="M 112.16784306229584 82.88440491214696 l 3.5980692714404556 -5.061135028840656 a27.20976571717822,27.20976571717822 0 0,0 0.37836991869959197,0.2739106420824206 l -3.684420200514016 4.998623615385161" fill="#ff4e07" stroke="none" /><path d="M 116.57777611688842 87.10902102172516 l 5.021882886230951 -3.9050465069202724 a27.361501076336427,27.361501076336427 0 0,0 0.2851433527225826,0.37326180193845165 l -5.08817821630784 3.818263791740939" fill="#ff5007" stroke="none" /><path d="M 117.42321728460499 88.27688183743584 l 5.257389003852788 -3.5374059516086103 a27.336669472546934,27.336669472546934 0 0,0 0.2586251497855699,0.39159143983507183 l -5.317338592559082 3.44663463343448" fill="#ff5007" stroke="none" /><line stroke="#e1ed5e" stroke-width="0.3" x1="172.87174338648825" x2="177.1583165268699" y1="56.24261187166439" y2="53.66864786411523" /><path d="M 173.72905801456457 55.72781907015455 a86.0,86.0 0 0,1 12.242430191666344,42.057860355516425" fill="none" id="id123" stroke="none" /><text fill="#e1ed5e" style="font-size:6.75px; font-family:Arial;" text-anchor="middle"><textPath startOffset="22.145653131862474" xlink:href="#id123">March</textPath></text><path d="M 118.53625476483649 90.13048839642627 l 5.5786930982990395 -2.970339853705862 a27.320184770362548,27.320184770362548 0 0,0 0.2168597312063354,0.41585712861550767 l -5.628860898480319 2.874136481985856" fill="#ff5007" stroke="none" /><path d="M 118.8641267826498 90.77261029715802 l 5.5671022121918226 -2.723148663032456 a27.19743218453954,27.19743218453954 0 0,0 0.20154688467347692,0.42115547249259233 l -5.613028354825211 2.6271806884747604" fill="#ff4e07" stroke="none" /><path d="M 119.71291397450082 92.76114493625339 l 5.851421377830996 -2.148722980570895 a27.23346954658247,27.23346954658247 0 0,0 0.15738329682317614,0.44022909178712344 l -5.887444844698115 2.047958932402855" fill="#ff4f07" stroke="none" /><path d="M 119.94978838288452 93.4421083053983 l 5.899745657941466 -1.9393635816041963 a27.210324462542342,27.210324462542342 0 0,0 0.14205769791637532,0.4449937154162765 l -5.932168071635098 1.8378008324965327" fill="#ff4e07" stroke="none" /><path d="M 120.35273937422433 94.82641323984039 l 9.018941542006651 -2.292579671681538 a30.305763165326137,30.305763165326137 0 0,0 0.12383869038229085,0.5053041168164519 l -9.056967758905232 2.1374197302569913" fill="#ff790b" stroke="none" /><path d="M 120.51834098615036 95.52812308129327 l 9.12890272435119 -1.9896018598043743 a30.343199693424282,30.343199693424282 0 0,0 0.10655128601459418,0.5098864755795804 l -9.161711721190152 1.8325989329393895" fill="#ff790b" stroke="none" /><path d="M 120.65975698304385 96.23510406497455 l 6.041013150853352 -1.1008738328214445 a27.140501859341313,27.140501859341313 0 0,0 0.07959298858856612,0.4590712071652211 l -6.059020956934153 0.9970095927356307" fill="#ff4d07" stroke="none" /><path d="M 120.86939407059847 97.66154086499901 l 6.083064951264327 -0.6816201158484546 a27.12113430530892,27.12113430530892 0 0,0 0.04787216961339111,0.4631198148781443 l -6.093869513359384 0.5770957786873789" fill="#ff4d07" stroke="none" /><path d="M 120.93736805541906 98.37931529534042 l 6.103845382510103 -0.47247623602245137 a27.122104396953375,27.122104396953375 0 0,0 0.03194730607848431,0.4645068189112823 l -6.111056649753654 0.3676259929568349" fill="#ff4d07" stroke="none" /><path d="M 120.98066250479742 99.09900007780936 l 1.0853000951674125 -0.046607455845388064 a22.08630039653439,22.08630039653439 0 0,0 0.0130154704994643,0.37893122246792066 l -1.085940252663725 0.027969968813347432" fill="#ff0600" stroke="none" /><line stroke="#e1ed5e" stroke-width="0.3" x1="184.99686870605535" x2="189.99668451229388" y1="99.2704041080226" y2="99.22748670261217" /><path d="M 185.99683186730306 99.26182062694052 a86.0,86.0 0 0,1 -10.086455211305974,41.156179273409016" fill="none" id="id124" stroke="none" /><text fill="#e1ed5e" style="font-size:6.75px; font-family:Arial;" text-anchor="middle"><textPath startOffset="21.40746469413373" xlink:href="#id124">April</textPath></text><path d="M 120.99922638620191 99.81974689727618 l 6.202904242736727 -0.05324447268146815 a27.203132758407836,27.203132758407836 0 0,0 0.0,0.4669951508105893 l -6.202904242736727 -0.0532444726814674" fill="#ff4e07" stroke="none" /><path d="M 120.99303781780057 100.54070618675476 l 6.172675320899818 0.15898622027960504 a27.174722441979434,27.174722441979434 0 0,0 -0.016014080761587345,0.46623248847877435 l -6.169036553141384 -0.2649249733224901" fill="#ff4e07" stroke="none" /><path d="M 120.86939407059847 102.33845913500097 l 6.264066050031597 0.70190166649749 a27.30326815458381,27.30326815458381 0 0,0 -0.05619001371114645,0.4653339196752992 l -6.251093950060787 -0.8093292630961978" fill="#ff5007" stroke="none" /><path d="M 120.77682067341334 103.0534771498775 l 6.0766573786786795 0.8930593734763876 a27.141931287665475,27.141931287665475 0 0,0 -0.07170446896787389,0.4603941280890935 l -6.060431417572538 -0.9972416834969318" fill="#ff4d07" stroke="none" /><path d="M 120.65975698304385 103.76489593502545 l 6.206575149553763 1.131044744145011 a27.308790478397295,27.308790478397295 0 0,0 -0.08800414785537196,0.4604748885925298 l -6.186244709416232 -1.2374221977708555" fill="#ff5007" stroke="none" /><path d="M 120.43855184770803 104.8234425847677 l 6.047099997988757 1.4270991341257164 a27.213214170161688,27.213214170161688 0 0,0 -0.11120158187539816,0.4537404016844973 l -6.021710889597062 -1.5306953604183133" fill="#ff4e07" stroke="none" /><path d="M 120.26092885502905 105.52220625578681 l 6.0812201284162795 1.6574635879845923 a27.303048769900965,27.303048769900965 0 0,0 -0.12713015617534323,0.451140075068826 l -6.051871480166356 -1.7616115869564266" fill="#ff5007" stroke="none" /><path d="M 119.94978838288452 106.5578916946017 l 17.794201768284474 5.849307558992112 a39.730937389519525,39.730937389519525 0 0,0 -0.21854773728976712,0.6460975519091852 l -17.69116860942234 -6.153906785375457" fill="#fff116" stroke="none" /><path d="M 119.4528033332814 107.91128576633889 l 5.8093155488776125 2.3625980598578336 a27.27136482265824,27.27136482265824 0 0,0 -0.18008730881521565,0.4321439826736854 l -5.767902395525912 -2.461974551972797" fill="#ff4f07" stroke="none" /><path d="M 118.8641267826498 109.22738970284198 l 5.624659392854458 2.7513027643216543 a27.2615062234729,27.2615062234729 0 0,0 -0.2092386637656315,0.418617490955419 l -5.576600815877094 -2.8474521114408193" fill="#ff4f07" stroke="none" /><path d="M 118.5362547648365 109.86951160357373 l 5.591794474574228 2.9773155986344455 a27.335027515311268,27.335027515311268 0 0,0 -0.22408819548350006,0.41229704011016993 l -5.539860929475389 -3.072867472219219" fill="#ff5007" stroke="none" /><line stroke="#e1ed5e" stroke-width="0.3" x1="174.33088141563837" x2="178.70328620479359" y1="141.23008692659167" y2="143.65538615756765" /><path d="M 175.20536237346943 141.71514677278685 a86.0,86.0 0 0,1 -30.301960400862466,31.631185727798858" fill="none" id="id125" stroke="none" /><text fill="#e1ed5e" style="font-size:6.75px; font-family:Arial;" text-anchor="middle"><textPath startOffset="22.145653131862474" xlink:href="#id125">May</textPath></text><path d="M 118.00360718960297 110.81064883170644 l 16.17473213131857 9.712461907055186 a39.866739936086134,39.866739936086134 0 0,0 -0.3573427432712621,0.5836925157838732 l -16.0056214235919 -9.988691538963616" fill="#fff316" stroke="none" /><path d="M 117.423217284605 111.72311816256416 l 2.8018637063422993 1.8852189448313705 a24.377053552857774,24.377053552857774 0 0,0 -0.23658541429880825,0.34518518990272745 l -2.769088555228171 -1.9330388698041419" fill="#ff2703" stroke="none" /><path d="M 117.21940702142032 112.02048342749411 l 1.4139491422726278 0.987046314130608 a22.72438760235984,22.72438760235984 0 0,0 -0.2260372126326628,0.3179496469835016 l -1.3967968311100045 -1.0111731878236137" fill="#ff0f01" stroke="none" /><path d="M 117.01052211995028 112.31430620078461 l 1.593063158531059 1.15325487324888 a22.966684273019247,22.966684273019247 0 0,0 -0.23392987537403212,0.3173708034782803 l -1.573031263573199 -1.1804319859960377" fill="#ff1302" stroke="none" /><path d="M 116.57777611688842 112.89097897827486 l 4.947669894401035 3.847338035600063 a27.26749131185176,27.26749131185176 0 0,0 -0.29050729326908575,0.36704647492095965 l -4.880896170490388 -3.9317044544357054" fill="#ff4f07" stroke="none" /><path d="M 116.35404254752997 113.17365903436017 l 4.80882997814865 3.8736530311832906 a27.17495211031929,27.17495211031929 0 0,0 -0.29575817818340205,0.36077688777665445 l -4.741624980726621 -3.955632200658438" fill="#ff4e07" stroke="none" /><path d="M 115.6541949942343 113.99807769240083 l 7.088571105517376 6.338643992852176 a30.509271685365647,30.509271685365647 0 0,0 -0.35245806935759244,0.38741315978996577 l -6.9787153353179034 -6.459394728199813" fill="#ff7b0b" stroke="none" /><path d="M 115.16444852881244 114.52719865689866 l 4.632531501439636 4.437860386277088 a27.41521261689104,27.41521261689104 0 0,0 -0.32847758779365266,0.3370469423723586 l -4.5556671124951755 -4.516730020717183" fill="#ff5107" stroke="none" /><path d="M 113.86319453409587 115.77377054828091 l 4.13306008293302 4.702663679002911 a27.26076922805397,27.26076922805397 0 0,0 -0.3541570115648772,0.30591239152934224 l -4.051723591605287 -4.772920202996971" fill="#ff4f07" stroke="none" /><path d="M 113.59037401385872 116.0094264158162 l 1.9796804041599385 2.3320585382648367 a24.059024604103207,24.059024604103207 0 0,0 -0.31715026216410575,0.2645780285372465 l -1.939355807833938 -2.3656987507139533" fill="#ff2203" stroke="none" /><path d="M 113.03279911837588 116.46651593811092 l 5.934951608752899 7.4986174780867305 a30.563101729089073,30.563101729089073 0 0,0 -0.4141883244381208,0.3220753462787681 l -5.805353339679547 -7.599393875986292" fill="#ff7c0b" stroke="none" /><path d="M 111.8722381534696 117.32195027204791 l 3.597307009788472 5.2485784341038375 a27.363033341230672,27.363033341230672 0 0,0 -0.3897326114898834,0.2622294942242159 l -3.5066781102015856 -5.3095576023851745" fill="#ff5107" stroke="none" /><path d="M 110.96478420261333 117.91015095944535 l 3.2365041167179123 5.286586241931563 a27.19862508875251,27.19862508875251 0 0,0 -0.40029543245754695,0.2403659057688021 l -3.1452759277029285 -5.341366148236288" fill="#ff4e07" stroke="none" /><line stroke="#e1ed5e" stroke-width="0.3" x1="143.1302829299769" x2="145.66735839644613" y1="173.24464959558577" y2="177.55315839532614" /><path d="M 143.63769802327073 174.10635135553383 a86.0,86.0 0 0,1 -40.68552437913181,11.842963189579606" fill="none" id="id126" stroke="none" /><text fill="#e1ed5e" style="font-size:6.75px; font-family:Arial;" text-anchor="middle"><textPath startOffset="21.407464694133747" xlink:href="#id126">June</textPath></text><path d="M 110.34350942703117 118.27599006163325 l 13.825834566580667 24.42892491326702 a49.070020909869214,49.070020909869214 0 0,0 -0.7366480609113447,0.40860626172111936 l -13.404442317513228 -24.662664090421284" fill="#a0ff22" stroke="none" /><path d="M 109.3889696526874 118.78422872680471 l 2.7570938250251453 5.516034553984255 a27.16670118951292,27.16670118951292 0 0,0 -0.41893608293255746,0.20492263131714475 l -2.661997492830518 -5.562550935398623" fill="#ff4e07" stroke="none" /><path d="M 109.06512990194946 118.94263497670748 l 2.734048271532964 5.713109351605595 a27.333611798529784,27.333611798529784 0 0,0 -0.42498727347023485,0.1989155028494975 l -2.6355722841912232 -5.759201086025625" fill="#ff5007" stroke="none" /><path d="M 107.407793817531 119.65005319985036 l 2.2136820133209967 5.872054541578424 a27.27546114603323,27.27546114603323 0 0,0 -0.4395386640692382,0.16140468569110206 l -2.112554197597632 -5.909190076278247" fill="#ff4f07" stroke="none" /><path d="M 107.06938296918513 119.77432235084164 l 3.145673733947149 8.799009290738244 a30.344400876404166,30.344400876404166 0 0,0 -0.49200444519845715,0.17114468583658796 l -2.9941635167036704 -8.851712409143422" fill="#ff790b" stroke="none" /><path d="M 106.72888874123015 119.89276391827305 l 1.9867340270151639 5.873426131368522 a27.200342459472903,27.200342459472903 0 0,0 -0.44359518193163694,0.14581854722080922 l -1.8856161074357927 -5.90666559999135" fill="#ff4e07" stroke="none" /><path d="M 106.38641147887787 120.00534299687104 l 1.8968581133582922 5.941881023425353 a27.237308778532253,27.237308778532253 0 0,0 -0.446639162535977,0.13836995425989812 l -1.794578317950691 -5.973567565491895" fill="#ff4f07" stroke="none" /><path d="M 105.3480935250658 120.30758222061773 l 1.5824554145693122 6.008840961963657 a27.21372149724077,27.21372149724077 0 0,0 -0.45277763060829235,0.11509430312747465 l -1.4790724907356223 -6.035120496926402" fill="#ff4e07" stroke="none" /><path d="M 104.9986988182912 120.39639698878246 l 1.4878113244386315 6.070777920568992 a27.250434152760576,27.250434152760576 0 0,0 -0.45530005432534976,0.10744957310300891 l -1.3833791163734026 -6.095423637318227" fill="#ff4f07" stroke="none" /><path d="M 104.64783097203109 120.47920084513623 l 1.3859768290600112 6.106869638725581 a27.262171233292776,27.262171233292776 0 0,0 -0.457274348234779,0.09966081588994116 l -1.2809400642060964 -6.129761912749242" fill="#ff4f07" stroke="none" /><path d="M 104.29559338865022 120.5559693870025 l 1.25804439787415 6.020197861026367 a27.150240482528222,27.150240482528222 0 0,0 -0.45703359186920794,0.09141951834609398 l -1.1545143204739834 -6.040906776035322" fill="#ff4e07" stroke="none" /><path d="M 103.94208987418118 120.62667999033965 l 1.1454445011599235 5.993449648843321 a27.101924434017324,27.101924434017324 0 0,0 -0.45771958336523183,0.08341175553070163 l -1.0423901842436345 -6.012229578305386" fill="#ff4d07" stroke="none" /><path d="M 103.58742460773223 120.69131181640829 l 4.142040006779278 23.89018605480474 a45.24659739326215,45.24659739326215 0 0,0 -0.7664396477658839,0.12611735237538044 l -3.731322855960322 -23.95776940567579" fill="#cbff1d" stroke="none" /><path d="M 102.875027216393 120.80226474461374 l 0.8539380279748185 6.178670181672947 a27.237401331445326,27.237401331445326 0 0,0 -0.4637130976215918,0.06003694434675469 l -0.7477471084624514 -6.192418722220096" fill="#ff4f07" stroke="none" /><path d="M 102.15924093988457 120.88869738790638 l 0.6555931281881311 6.342268809077369 a27.376062734660252,27.376062734660252 0 0,0 -0.46787051753660847,0.04430782445386009 l -0.5466230472665073 -6.352588389036413" fill="#ff5107" stroke="none" /><path d="M 101.44090949804482 120.95050786540614 l 0.6312666449266865 9.178478473249498 a30.200161121464202,30.200161121464202 0 0,0 -0.5175094545746876,0.031132083697873302 l -0.4736128382195338 -9.187962534772064" fill="#ff770b" stroke="none" /><path d="M 100.72087961077811 120.9876233191556 l 2.162638832334333 62.96286995746683 a84.0,84.0 0 0,0 -1.4415467437170246,0.03712913059981959 l -1.0814787745465644 -62.990716805416696" fill="#4dd2ff" stroke="none" /><line stroke="#e1ed5e" stroke-width="0.3" x1="101.45913802915013" x2="101.54496967792366" y1="184.9874750549273" y2="189.98673829345242" /><path d="M 101.47630435890484 185.9873277026323 a86.0,86.0 0 0,1 -42.54439059252881,-10.42667462771756" fill="none" id="id127" stroke="none" /><text fill="#e1ed5e" style="font-size:6.75px; font-family:Arial;" text-anchor="middle"><textPath startOffset="22.145653131862474" xlink:href="#id127">July</textPath></text><path d="M 99.27912038922189 120.98762331915562 l -0.2122850003570308 6.180446162142299 a27.184090853514043,27.184090853514043 0 0,0 -0.4662385355677198,-0.020022288818227967 l 0.3183492965255894 -6.175891304898242" fill="#ff4e07" stroke="none" /><path d="M 98.55909050195518 120.95050786540614 l -2.358843911768212 34.29707278203261 a55.378093984631086,55.378093984631086 0 0,0 -0.9478382851584477,-0.07336867781953448 l 2.9472511917018953 -34.251526337218024" fill="#5dff2a" stroke="none" /><path d="M 97.84075906011543 120.88869738790638 l -0.6406749645277225 6.197949108330023 a27.23097404581511,27.23097404581511 0 0,0 -0.4645657316693326,-0.052055559224936314 l 0.7469765977978545 -6.1860377885981155" fill="#ff4f07" stroke="none" /><path d="M 97.12497278360702 120.80226474461374 l -0.8745059651832281 6.327489529406571 a27.387635276680317,27.387635276680317 0 0,0 -0.46516580571262833,-0.06836335457548799 l 0.9829968765035413 -6.3115451015322" fill="#ff5107" stroke="none" /><path d="M 96.41257539226777 120.69131181640829 l -1.1000333980281456 6.344700317326493 a27.439355215660978,27.439355215660978 0 0,0 -0.46341839184521855,-0.0844502682730508 l 1.2087865234244213 -6.324881875122076" fill="#ff5207" stroke="none" /><line stroke="#e1ed5e" stroke-width="0.3" x1="58.13341422392154" x2="55.67067388415222" y1="173.97424548756322" y2="178.32567169271397" /><path d="M 57.64086615596768 174.84453072859336 a86.0,86.0 0 0,1 -31.369924170532247,-30.572349798747897" fill="none" id="id128" stroke="none" /><text fill="#e1ed5e" style="font-size:6.75px; font-family:Arial;" text-anchor="middle"><textPath startOffset="22.145653131862474" xlink:href="#id128">August</textPath></text><path d="M 89.65649057296885 118.27599006163327 l -1.5350901947560807 2.712357284632493 a24.116630222778316,24.116630222778316 0 0,0 -0.358542552636996,-0.2070046392809068 l 1.5814252152534765 -2.6856057480754147" fill="#ff2303" stroke="none" /><path d="M 87.83215693770417 117.11559508785305 l -3.7120308537080873 5.221436266100031 a27.40644751323426,27.40644751323426 0 0,0 -0.3811049100978063,-0.2758905649382044 l 3.8011167741798473 -5.156944929788761" fill="#ff5107" stroke="none" /><path d="M 87.54013794807813 116.9041958592261 l -3.834337783194916 5.202015608797218 a27.462438597759053,27.462438597759053 0 0,0 -0.3770815279469252,-0.28296900845168416 l 3.9230723000526075 -5.135427573081519" fill="#ff5207" stroke="none" /><path d="M 87.2517909369889 116.68781488649013 l -3.868468855344396 5.0639499111643484 a27.372490877792686,27.372490877792686 0 0,0 -0.37094946163727277,-0.28845254503690254 l 3.9548282616168975 -4.9967963145066525" fill="#ff5107" stroke="none" /><path d="M 86.40962598614128 116.0094264158162 l -4.022764692289621 4.738806692419235 a27.21602160852497,27.21602160852497 0 0,0 -0.3535756749534741,-0.3054102468102769 l 4.103519847005958 -4.669052313144236" fill="#ff4e07" stroke="none" /><path d="M 85.86807049272751 115.53346607816431 l -4.127328959645047 4.536657528264539 a27.133197034979716,27.133197034979716 0 0,0 -0.34183981640608424,-0.3164018306933396 l 4.204598547365099 -4.465137951438821" fill="#ff4d07" stroke="none" /><path d="M 85.34317274990678 115.03919595460226 l -4.538583041773276 4.656986028202592 a27.50278823997415,27.50278823997415 0 0,0 -0.33528266706609666,-0.3324170204644564 l 4.617857628969335 -4.578388997509476" fill="#ff5207" stroke="none" /><path d="M 84.83555147118756 114.52719865689866 l -15.33439914614699 14.690007503866665 a42.23535065961974,42.23535065961974 0 0,0 -0.4970581202680342,-0.5278584987074434 l 15.584313100151277 -14.424607545214732" fill="#eeff19" stroke="none" /><path d="M 84.3458050057657 113.99807769240083 l -2.328995858522406 2.0826024579918707 a24.124332681877572,24.124332681877572 0 0,0 -0.2733963936985237,-0.3110749093451446 l 2.3644033161795224 -2.042315270835426" fill="#ff2303" stroke="none" /><path d="M 84.1078160697243 113.72728997021213 l -2.3435932589710937 2.0243400390579613 a24.09683418303724,24.09683418303724 0 0,0 -0.26771059129382113,-0.31536240339541377 l 2.3779984137720267 -1.9838108532129932" fill="#ff2303" stroke="none" /><path d="M 83.64595745247003 113.17365903436017 l -4.906352653308983 3.9522103950245 a27.300179629595636,27.300179629595636 0 0,0 -0.29085555393599816,-0.36748649089682806 l 4.973474637886542 -3.867403960212991" fill="#ff5007" stroke="none" /><path d="M 83.20337586046588 112.60449989151573 l -39.14282137060464 29.373502890866643 a69.9383605868731,69.9383605868731 0 0,0 -0.7123654325309519,-0.9664605229708871 l 39.64128882271943 -28.697236058626874" fill="#3cffa1" stroke="none" /><path d="M 82.37810715431573 111.42229804090323 l -5.153503588533588 3.340438763223518 a27.141427388472067,27.141427388472067 0 0,0 -0.250066001128089,-0.3931452886321413 l 5.210087281287567 -3.2514797999127047" fill="#ff4d07" stroke="none" /><path d="M 81.99639281039703 110.81064883170644 l -11.13960875519012 6.689014990535278 a33.99360630319058,33.99360630319058 0 0,0 -0.29611068001675794,-0.5028606706464224 l 11.252793145336646 -6.496803151595296" fill="#ffa90f" stroke="none" /><line stroke="#e1ed5e" stroke-width="0.3" x1="26.387840678322732" x2="22.057713659400548" y1="142.50000000000003" y2="145.00000000000006" /><path d="M 25.521815274538298 143.00000000000003 a86.0,86.0 0 0,1 -11.493303480769221,-40.785679425670985" fill="none" id="id129" stroke="none" /><text fill="#e1ed5e" style="font-size:6.75px; font-family:Arial;" text-anchor="middle"><textPath startOffset="21.40746469413373" xlink:href="#id129">September</textPath></text><path d="M 81.29705330413844 109.54985784667822 l -5.141692396241357 2.6253847735296327 a26.773183342545725,26.773183342545725 0 0,0 -0.20549066736902846,-0.4111189874789644 l 5.186002976822122 -2.5367339298869154" fill="#ff4806" stroke="none" /><path d="M 80.68587082218212 108.24405325689762 l -38.359608730588505 16.37343596375673 a62.7079007769881,62.7079007769881 0 0,0 -0.4140935800542232,-0.9936738466554026 l 38.635028155179214 -15.712529607660047" fill="#33ff50" stroke="none" /><path d="M 79.83685265289637 105.86919833188381 l -4.988911819386012 1.4521995214433567 a26.19597195832404,26.19597195832404 0 0,0 -0.12197531617414628,-0.43284736643798893 l 5.013105627634734 -1.3663442311023724" fill="#ff4006" stroke="none" /><path d="M 79.64726062577567 105.17358676015961 l -14.771648337175852 3.754895243228613 a36.24141833573277,36.24141833573277 0 0,0 -0.14809360714033246,-0.6042724541999072 l 14.833929470832478 -3.5007669644206065" fill="#ffc612" stroke="none" /><path d="M 79.48165901384964 104.47187691870673 l -6.061151550369043 1.3209997697754512 a27.20343441234675,27.20343441234675 0 0,0 -0.09552588223836406,-0.4571259272692163 l 6.082935143431774 -1.2167573912208258" fill="#ff4e07" stroke="none" /><path d="M 79.06263194458094 101.62068470465958 l -6.353601292803761 0.4918089230459516 a27.372607425905446,27.372607425905446 0 0,0 -0.03224237525240941,-0.4687970599413594 l 6.3611076292212365 -0.3826684389502489" fill="#ff5107" stroke="none" /><path d="M 79.03789590574601 101.26102812881392 l -52.40327800063429 3.1524510756994775 a73.49801418145681,73.49801418145681 0 0,0 -0.06495268196695807,-1.2600646779105478 l 52.44967227205782 -2.2524146044121993" fill="#40ffc7" stroke="none" /><line stroke="#e1ed5e" stroke-width="0.3" x1="15.003131293944662" x2="10.003315487706104" y1="100.72959589197737" y2="100.7725132973878" /><path d="M 14.003168132696942 100.73817937305945 a86.0,86.0 0 0,1 10.791469493833604,-42.45332614584628" fill="none" id="id130" stroke="none" /><text fill="#e1ed5e" style="font-size:6.75px; font-family:Arial;" text-anchor="middle"><textPath startOffset="22.145653131862435" xlink:href="#id130">October</textPath></text><line stroke="#e1ed5e" stroke-width="0.3" x1="26.387840678322718" x2="22.05771365940052" y1="57.49999999999999" y2="54.99999999999999" /><path d="M 25.521815274538284 56.99999999999999 a86.0,86.0 0 0,1 29.574782752854787,-30.34633250058573" fill="none" id="id131" stroke="none" /><text fill="#e1ed5e" style="font-size:6.75px; font-family:Arial;" text-anchor="middle"><textPath startOffset="21.40746469413373" xlink:href="#id131">November</textPath></text><line stroke="#e1ed5e" stroke-width="0.3" x1="56.869717070023135" x2="54.33264160355391" y1="26.7553504044142" y2="22.446841604673864" /><path d="M 56.362301976729285 25.89364864446614 a86.0,86.0 0 0,1 42.16139366436587,-11.88097634709845" fill="none" id="id132" stroke="none" /><text fill="#e1ed5e" style="font-size:6.75px; font-family:Arial;" text-anchor="middle"><textPath startOffset="22.145653131862474" xlink:href="#id132">December</textPath></text></svg>