<?xml version="1.0" encoding="utf-8" ?>
<svg baseProfile="full" height="200mm" version="1.1" viewBox="0,0,200,200" width="200mm" xmlns="http://www.w3.org/2000/svg" xmlns:ev="http://www.w3.org/2001/xml-events" xmlns:xlink="http://www.w3.org/1999/xlink"><defs /><rect fill="#1a1a1a" height="200" width="200" x="0" y="0" /><text alignment-baseline="middle" fill="#e1ed5e" style="dominant-baseline: central; font-size:9.0px; font-family:Arial;" text-anchor="middle" x="100.0" y="100.0">2024</text><line stroke="#e1ed5e" stroke-width="0.3" x1="100.0" x2="100.0" y1="15.0" y2="10.0" /><path d="M 100.0 14.0 a86.0,86.0 0 0,1 42.35913384403234,11.155469271406648" fill="none" id="id121" stroke="none" /><text fill="#e1ed5e" style="font-size:6.75px; font-family:Arial;" text-anchor="middle"><textPath startOffset="22.145653131862478" xlink:href="#id121">January</textPath></text><path d="M 100.0 79.0 l 0.0 -0.6180530517296603 a21.61805305172966,21.61805305172966 0 0,0 0.37110262734074934,0.0031854697300223987 l -0.010609702491894562 0.6179619801940728" fill="#ff0000" stroke="none" /><path d="M 100.72087961077811 79.0123766808444 l 0.3776401417797157 -10.994580686378633 a32.00106433696183,32.00106433696183 0 0,0 0.548855190834711,0.02357020347297807 l -0.566321093215263 10.986477914479824" fill="#ff900d" stroke="none" /><path d="M 101.44090949804482 79.04949213459386 l 0.7397304043730433 -10.75551773107647 a31.78092587557554,31.78092587557554 0 0,0 0.5439547683062814,0.04210553927729482 l -0.9242541674545581 10.741234424804121" fill="#ff8d0d" stroke="none" /><path d="M 102.15924093988457 79.11130261209362 l 0.076819652097686 -0.7431604488744984 a21.747120279285575,21.747120279285575 0 0,0 0.3710101161732037,0.041572457370254806 l -0.08956566987168635 0.7417322309972727" fill="#ff0200" stroke="none" /><path d="M 102.51750503828377 79.15144685158666 l 1.2688109576200948 -10.507574873917699 a31.58390339039257,31.58390339039257 0 0,0 0.5377117111106648,0.0696175463667686 l -1.4490004906215512 10.484245731350534" fill="#ff8a0c" stroke="none" /><path d="M 103.23170211078529 79.25015418208739 l 1.613396560930917 -10.359163293776469 a31.484050391425512,31.484050391425512 0 0,0 0.5333135723448017,0.08775654537972162 l -1.7909876363287893 10.329940749901079" fill="#ff890c" stroke="none" /><path d="M 103.94208987418118 79.37332000966035 l 1.96290114316711 -10.27072822412244 a31.45661700320099,31.45661700320099 0 0,0 0.5295249839970575,0.10591982701150979 l -2.1389226126951244 10.235519000448072" fill="#ff890c" stroke="none" /><path d="M 104.64783097203109 79.52079915486377 l 0.3665410064416374 -1.6150473057363295 a22.65611899003949,22.65611899003949 0 0,0 0.3785382702213357,0.08933400106596227 l -0.394211430402858 1.6085171610241398" fill="#ff0f01" stroke="none" /><path d="M 105.3480935250658 79.69241777938227 l 2.6704861802291155 -10.140270999348104 a31.486018900374674,31.486018900374674 0 0,0 0.521496332574862,0.14213614443446299 l -2.8441639137386705 10.0929343607695" fill="#ff890c" stroke="none" /><path d="M 105.69591212413111 79.78721728523813 l 0.4996714963369233 -1.7731578655207643 a22.842216170895732,22.842216170895732 0 0,0 0.3765049725033601,0.10959511025346591 l -0.5300364812218878 1.7643190609647823" fill="#ff1202" stroke="none" /><path d="M 106.38641147887787 79.99465700312896 l 3.190404760539156 -9.993897471925878 a31.490789732686352,31.490789732686352 0 0,0 0.5135656884267145,0.1688192424965957 l -3.3614931866136133 9.93765730802726" fill="#ff890c" stroke="none" /><path d="M 107.06938296918511 80.22567764915836 l 1.0504626228514091 -2.9383309140725133 a24.120458344955445,24.120458344955445 0 0,0 0.3886964176670343,0.14273470857371914 l -1.1007481921725681 2.9198653564900723" fill="#ff2403" stroke="none" /><path d="M 107.40779381753099 80.34994680014964 l 3.703223576460252 -9.823240505988835 a31.498091202487757,31.498091202487757 0 0,0 0.5043110447992873,0.19507834596351578 l -3.871306883753065 9.75822227188728" fill="#ff890c" stroke="none" /><path d="M 108.73861861582097 80.90454125486305 l 4.396999299146742 -9.608237000667492 a31.566542532810473,31.566542532810473 0 0,0 0.49080154290560885,0.22971990410253001 l -4.561289555923857 9.531340864994428" fill="#ff8a0c" stroke="none" /><path d="M 109.3889696526874 81.21577127319529 l 11.66788417730982 -23.34358436036907 a47.09717325621272,47.09717325621272 0 0,0 0.7200771555623405,0.36767652638299714 l -12.06688855458574 23.139849882313243" fill="#b6ff1f" stroke="none" /><line stroke="#e1ed5e" stroke-width="0.3" x1="143.13028292997686" x2="145.6673583964461" y1="26.7553504044142" y2="22.446841604673864" /><path d="M 143.63769802327073 25.89364864446614 a86.0,86.0 0 0,1 29.32050498858742,28.57503671076993" fill="none" id="id122" stroke="none" /><text fill="#e1ed5e" style="font-size:6.75px; font-family:Arial;" text-anchor="middle"><textPath startOffset="20.669276256404974" xlink:href="#id122">February</textPath></text><path d="M 110.96478420261332 82.08984904055464 l 9.241802868120617 -15.095790436625752 a38.70010760305496,38.70010760305496 0 0,0 0.5636133868910563,0.35173643808588273 l -9.499580383801385 14.934918201698324" fill="#ffe515" stroke="none" /><path d="M 111.27062007382361 82.28071324371311 l 1.7167928249726019 -2.6990834725657784 a24.19881684310858,24.19881684310858 0 0,0 0.3485947513057845,0.22595490619410707 l -1.7628732085353935 2.6692147246677767" fill="#ff2503" stroke="none" /><path d="M 111.8722381534696 82.67804972795209 l 5.874241962425275 -8.570694577026394 a31.390549752818067,31.390549752818067 0 0,0 0.4418666951279672,0.3084572702962432 l -6.020503748727004 8.468592490925024" fill="#ff880c" stroke="none" /><path d="M 112.16784306229584 82.88440491214696 l 6.047561581150304 -8.506652720773586 a31.43724779765479,31.43724779765479 0 0,0 0.43715587326163596,0.3164671397417966 l -6.192698464785908 8.401584809658713" fill="#ff880c" stroke="none" /><path d="M 116.57777611688842 87.10902102172516 l 8.476971451166374 -6.591744272930414 a31.7382557961524,31.7382557961524 0 0,0 0.3307549772957698,0.4329688826575726 l -8.58887840581645 6.445254477031959" fill="#ff8c0c" stroke="none" /><path d="M 117.42321728460499 88.27688183743584 l 8.884046177383919 -5.977582750527541 a31.70783694409353,31.70783694409353 0 0,0 0.2999796331179984,0.4542073984346431 l -8.985350249422641 5.824195473753839" fill="#ff8c0c" stroke="none" /><line stroke="#e1ed5e" stroke-width="0.3" x1="172.87174338648825" x2="177.1583165268699" y1="56.24261187166439" y2="53.66864786411523" /><path d="M 173.72905801456457 55.72781907015455 a86.0,86.0 0 0,1 12.242430191666344,42.057860355516425" fill="none" id="id123" stroke="none" /><text fill="#e1ed5e" style="font-size:6.75px; font-family:Arial;" text-anchor="middle"><textPath startOffset="22.145653131862474" xlink:href="#id123">March</textPath></text><path d="M 118.53625476483649 90.13048839642627 l 9.426823189001707 -5.019252380215701 a31.679788850581332,31.679788850581332 0 0,0 0.2514650084747344,0.4822173106545025 l -9.511596266451386 4.856688826456701" fill="#ff8c0c" stroke="none" /><path d="M 118.8641267826498 90.77261029715802 l 9.466897688410947 -4.630734051694657 a31.538778377988834,31.538778377988834 0 0,0 0.23371848067716697,0.488381734698162 l -9.544995427048027 4.467539814931391" fill="#ff8a0c" stroke="none" /><path d="M 119.71291397450082 92.76114493625339 l 9.939224977230698 -3.6498210842501844 a31.588172037469157,31.588172037469157 0 0,0 0.18254929462332972,0.5106228665974558 l -10.000414441897972 3.478663261271812" fill="#ff8a0c" stroke="none" /><path d="M 119.94978838288452 93.4421083053983 l 9.984576387084893 -3.2821285773214193 a31.510191892996204,31.510191892996204 0 0,0 0.1645061354334193,0.5153131262086433 l -10.039447238295569 3.110246417421389" fill="#ff890c" stroke="none" /><path d="M 120.35273937422433 94.82641323984039 l 10.150948971410365 -2.580331533555344 a31.473770851189997,31.473770851189997 0 0,0 0.12861152983809848,0.5247789305316047 l -10.193748027764755 2.405696778415644" fill="#ff890c" stroke="none" /><path d="M 120.51834098615036 95.52812308129327 l 10.275289714016878 -2.2394515685333602 a31.516497612550843,31.516497612550843 0 0,0 0.11067136574989891,0.5296025485986676 l -10.312218790591144 2.0627325686492886" fill="#ff8a0c" stroke="none" /><path d="M 120.65975698304385 96.23510406497455 l 10.180977725580624 -1.8553132878127334 a31.34864700551252,31.34864700551252 0 0,0 0.0919339117717148,0.530250372612907 l -10.211326454844572 1.6802698822792337" fill="#ff870c" stroke="none" /><path d="M 120.86939407059847 97.66154086499901 l 10.27496044203558 -1.1513307490466498 a31.339263734865085,31.339263734865085 0 0,0 0.055317691811311194,0.535148488109769 l -10.293210526328558 0.9747777386539495" fill="#ff870c" stroke="none" /><path d="M 120.93736805541906 98.37931529534042 l 10.331625042559295 -0.7997331200575566 a31.36253101724455,31.36253101724455 0 0,0 0.03694213262878003,0.537130500738841 l -10.343831136353142 0.6222591951643814" fill="#ff870c" stroke="none" /><path d="M 120.98066250479742 99.09900007780936 l 1.0064547021115038 -0.043221495416720934 a22.00738233311311,22.00738233311311 0 0,0 0.012968964035824255,0.3775772375220436 l -1.007048353144176 0.025937993330557383" fill="#ff0600" stroke="none" /><line stroke="#e1ed5e" stroke-width="0.3" x1="184.99686870605535" x2="189.99668451229388" y1="99.2704041080226" y2="99.22748670261217" /><path d="M 185.99683186730306 99.26182062694052 a86.0,86.0 0 0,1 -10.086455211305974,41.156179273409016" fill="none" id="id124" stroke="none" /><text fill="#e1ed5e" style="font-size:6.75px; font-family:Arial;" text-anchor="middle"><textPath startOffset="21.40746469413373" xlink:href="#id124">April</textPath></text><path d="M 120.99922638620191 99.81974689727618 l 10.516137164937115 -0.09026838978672129 a31.51652458058109,31.51652458058109 0 0,0 0.0,0.541042985021095 l -10.516137164937115 -0.09026838978672001" fill="#ff8a0c" stroke="none" /><path d="M 120.99303781780057 100.54070618675476 l 10.434049044036044 0.2687440912543406 a31.4375094174776,31.4375094174776 0 0,0 -0.018526143765756814,0.5393684619439978 l -10.42789821327344 -0.44781881776244903" fill="#ff880c" stroke="none" /><path d="M 120.86939407059847 102.33845913500097 l 10.578645463944895 1.1853592891779263 a31.644849294202444,31.644849294202444 0 0,0 -0.06512496986298975,0.5393281740571841 l -10.556738407822241 -1.366781140158519" fill="#ff8b0c" stroke="none" /><path d="M 120.77682067341334 103.0534771498775 l 10.244917161843725 1.5056500196927503 a31.354965457926014,31.354965457926014 0 0,0 -0.08283460465056659,0.5318575833925901 l -10.217561065054891 -1.681295785016791" fill="#ff870c" stroke="none" /><path d="M 120.65975698304385 103.76489593502545 l 10.499670527686098 1.9133897325721516 a31.67258832049061,31.67258832049061 0 0,0 -0.10206673736516088,0.5340562991924536 l -10.465277498038779 -2.0933485967979197" fill="#ff8c0c" stroke="none" /><path d="M 120.43855184770803 104.8234425847677 l 10.198734908556208 2.4068736687038563 a31.478894721873246,31.478894721873246 0 0,0 -0.12863246755319344,0.5248643635542264 l -10.155914914486718 -2.5815938568661823" fill="#ff890c" stroke="none" /><path d="M 120.26092885502905 105.52220625578681 l 10.284786759744204 2.80316436578353 a31.659951648811933,31.659951648811933 0 0,0 -0.1474170387174632,0.5231310643691248 l -10.23515122895216 -2.9793033540556633" fill="#ff8b0c" stroke="none" /><path d="M 119.94978838288452 106.5578916946017 l 30.085332607683494 9.889646398782004 a52.66910709205243,52.66910709205243 0 0,0 -0.2897166524713523,0.8564958037560487 l -29.911130533639774 -10.404643877012214" fill="#79ff26" stroke="none" /><path d="M 119.4528033332814 107.91128576633889 l 9.814888173092124 3.9916295750106405 a31.59552436240903,31.59552436240903 0 0,0 -0.2086420313039985,0.5006649216650392 l -9.74492029725164 -4.159527006116957" fill="#ff8b0c" stroke="none" /><path d="M 118.8641267826498 109.22738970284198 l 9.534714430488775 4.6639066185852025 a31.614273607640502,31.614273607640502 0 0,0 -0.24264720780131124,0.48545695852320536 l -9.453247309475731 -4.826895433272154" fill="#ff8b0c" stroke="none" /><path d="M 118.5362547648365 109.86951160357373 l 9.445428321633301 5.02915856540376 a31.700866883345782,31.700866883345782 0 0,0 -0.2598786502472892,0.4781474457126092 l -9.357704321770672 -5.190560844590973" fill="#ff8c0c" stroke="none" /><line stroke="#e1ed5e" stroke-width="0.3" x1="174.33088141563837" x2="178.70328620479359" y1="141.23008692659167" y2="143.65538615756765" /><path d="M 175.20536237346943 141.71514677278685 a86.0,86.0 0 0,1 -30.301960400862466,31.631185727798858" fill="none" id="id125" stroke="none" /><text fill="#e1ed5e" style="font-size:6.75px; font-family:Arial;" text-anchor="middle"><textPath startOffset="22.145653131862474" xlink:href="#id125">May</textPath></text><path d="M 118.00360718960297 110.81064883170644 l 27.447023164425445 16.481148793207982 a53.01511121536778,53.01511121536778 0 0,0 -0.47519725231865634,0.7761989992025866 l -27.160057947651385 -16.949884908535125" fill="#75ff27" stroke="none" /><path d="M 117.423217284605 111.72311816256416 l 3.7512399358356725 2.524001641349453 a25.521325617752293,25.521325617752293 0 0,0 -0.2476908614750477,0.3613883692231706 l -3.7073593375453044 -2.5880247456426675" fill="#ff3805" stroke="none" /><path d="M 117.21940702142032 112.02048342749411 l 1.5152590395797068 1.0577684905740814 a22.847940512213363,22.847940512213363 0 0,0 -0.22726618108033375,0.319678345013086 l -1.4968777599694123 -1.0836240622966713" fill="#ff1202" stroke="none" /><path d="M 117.01052211995028 112.31430620078461 l 2.211877353819964 1.6012286290480922 a23.730628966158683,23.730628966158683 0 0,0 -0.2417111242793739,0.3279275620504988 l -2.184064209956762 -1.6389625003674682" fill="#ff1e03" stroke="none" /><path d="M 116.57777611688842 112.89097897827486 l 8.397435188153896 6.529896393741126 a31.637502745110744,31.637502745110744 0 0,0 -0.3370653054643342,0.42587100239939424 l -8.284103452048 -6.673087340055203" fill="#ff8b0c" stroke="none" /><path d="M 116.35404254752997 113.17365903436017 l 8.119887331016557 6.540806457201551 a31.42663509378614,31.42663509378614 0 0,0 -0.34203130530056164,0.4172225789543641 l -8.006409206477368 -6.679231317854408" fill="#ff880c" stroke="none" /><path d="M 115.6541949942343 113.99807769240083 l 7.9541332768100235 7.1126350237432705 a31.670417665969595,31.670417665969595 0 0,0 -0.3658721971934366,0.40215763609088545 l -7.8308633787747075 -7.248130235391828" fill="#ff8c0c" stroke="none" /><path d="M 115.16444852881244 114.52719865689866 l 7.82859387764884 7.499615844829639 a31.841177054230812,31.841177054230812 0 0,0 -0.38150763874945404,0.3914604463455164 l -7.698699437748579 -7.632898983242892" fill="#ff8e0d" stroke="none" /><path d="M 113.86319453409587 115.77377054828091 l 7.063985762641658 8.037519079905172 a31.700542407497096,31.700542407497096 0 0,0 -0.4118361176863341,0.35573422963703505 l -6.924970165192469 -8.157597442006926" fill="#ff8c0c" stroke="none" /><path d="M 113.59037401385872 116.0094264158162 l 3.382133561775582 3.9841448315177597 a26.226111122832968,26.226111122832968 0 0,0 -0.34571717494868415,0.28840956319960265 l -3.313242052665003 -4.041616578629233" fill="#ff4206" stroke="none" /><path d="M 113.03279911837588 116.46651593811092 l 10.042032860727327 12.68778047219734 a37.18092077993708,37.18092077993708 0 0,0 -0.5038723953940665,0.3918142223033655 l -9.82275052069803 -12.8582957461215" fill="#ffd313" stroke="none" /><path d="M 111.8722381534696 117.32195027204791 l 6.084936543554011 8.878104267577065 a31.763233163183315,31.763233163183315 0 0,0 -0.45240480672135674,0.30439814414715716 l -5.93163544873565 -8.981252085781342" fill="#ff8d0d" stroke="none" /><path d="M 110.96478420261333 117.91015095944535 l 5.474856839723665 8.942767196223741 a31.485568298443553,31.485568298443553 0 0,0 -0.4633884667725005,0.27825146006481394 l -5.320535616393728 -9.035432656824478" fill="#ff890c" stroke="none" /><line stroke="#e1ed5e" stroke-width="0.3" x1="143.1302829299769" x2="145.66735839644613" y1="173.24464959558577" y2="177.55315839532614" /><path d="M 143.63769802327073 174.10635135553383 a86.0,86.0 0 0,1 -40.68552437913181,11.842963189579606" fill="none" id="id126" stroke="none" /><text fill="#e1ed5e" style="font-size:6.75px; font-family:Arial;" text-anchor="middle"><textPath startOffset="21.407464694133747" xlink:href="#id126">June</textPath></text><path d="M 110.34350942703117 118.27599006163325 l 14.752475675298182 26.066210963334743 a50.95134208237315,50.95134208237315 0 0,0 -0.7648907958435761,0.42427203070062713 l -14.302840691298512 -26.315615909468516" fill="#8bff24" stroke="none" /><path d="M 109.3889696526874 118.78422872680471 l 4.654609524444269 9.312337048197715 a31.410812222121915,31.410812222121915 0 0,0 -0.4843842666899002,0.23693661764317292 l -4.494065008492299 -9.390867415938112" fill="#ff880c" stroke="none" /><path d="M 109.06512990194946 118.94263497670748 l 4.609422693204183 9.63192060953718 a31.678046272284682,31.678046272284682 0 0,0 -0.49253522049531473,0.2305313527530265 l -4.443398758837362 -9.70962819386074" fill="#ff8c0c" stroke="none" /><path d="M 107.407793817531 119.65005319985036 l 3.751201979043245 9.950508919017349 a31.634102878711573,31.634102878711573 0 0,0 -0.5097773138974003,0.1871972908146778 l -3.579835513491718 -10.013437058840749" fill="#ff8b0c" stroke="none" /><path d="M 107.06938296918513 119.77432235084164 l 3.5619526345335863 9.963415463657606 a31.580980780254365,31.580980780254365 0 0,0 -0.5120543651825579,0.17811908879212124 l -3.3903924973060064 -10.023092985018318" fill="#ff8a0c" stroke="none" /><path d="M 106.72888874123015 119.89276391827305 l 3.3644662914434194 9.946446764170458 a31.500068412097896,31.500068412097896 0 0,0 -0.5137170092230653,0.1688689846479686 l -3.19322654457262 -10.002736670220447" fill="#ff890c" stroke="none" /><path d="M 106.38641147887787 120.00534299687104 l 3.2309444199245827 10.120887377550352 a31.62409352150572,31.62409352150572 0 0,0 -0.5185739443368702,0.16065553354266773 l -3.0567298427160883 -10.174859498899663" fill="#ff8b0c" stroke="none" /><path d="M 105.3480935250658 120.30758222061773 l 2.674109363040385 10.154028814632245 a31.50024580921238,31.50024580921238 0 0,0 -0.5240961498970317,0.13322319184177167 l -2.4994079199179557 -10.198437238309287" fill="#ff890c" stroke="none" /><path d="M 104.9986988182912 120.39639698878246 l 2.51585963018508 10.265565830359048 a31.569360978613147,31.569360978613147 0 0,0 -0.5274606521130617,0.12447927769778801 l -2.3392668243321393 -10.307241251703061" fill="#ff8a0c" stroke="none" /><path d="M 104.64783097203109 120.47920084513623 l 2.342207682982287 10.32019921754045 a31.58264847379633,31.58264847379633 0 0,0 -0.5297426559608265,0.11545494626707985 l -2.164702610402325 -10.358885621941248" fill="#ff8a0c" stroke="none" /><path d="M 104.29559338865022 120.5559693870025 l 2.0982241022018613 10.040761894711162 a31.25765293862804,31.25765293862804 0 0,0 -0.5261757222789795,0.10524988086634618 l -1.925551894391923 -10.07530117224037" fill="#ff860c" stroke="none" /><path d="M 103.94208987418118 120.62667999033965 l 1.9392980838624736 10.147227044137066 a31.33088058895946,31.33088058895946 0 0,0 -0.5291416720077771,0.09642723927632588 l -1.7648216783036395 -10.179022457344756" fill="#ff870c" stroke="none" /><path d="M 103.58742460773223 120.69131181640829 l 7.07639398939647 40.81476005231457 a62.42366461361403,62.42366461361403 0 0,0 -1.0574048497586837,0.1739955656380491 l -6.374711636584714 -40.930221616448286" fill="#32ff4d" stroke="none" /><path d="M 102.875027216393 120.80226474461374 l 1.4640113268296513 10.592856664512611 a31.693546721270486,31.693546721270486 0 0,0 -0.5395783740854809,0.06985922326075357 l -1.281955130853395 -10.61642748397376" fill="#ff8c0c" stroke="none" /><path d="M 102.15924093988457 120.88869738790638 l 1.1069852728339702 10.709078338582248 a31.766140220903814,31.766140220903814 0 0,0 -0.5428991235645336,0.05141311145165223 l -0.9229865858844212 -10.726503205539084" fill="#ff8d0d" stroke="none" /><path d="M 101.44090949804482 120.95050786540614 l 0.7150756105845609 10.397042440375378 a31.42160374586463,31.42160374586463 0 0,0 -0.5384400749050037,0.032391217841629835 l -0.5364911835470921 -10.4077856360417" fill="#ff880c" stroke="none" /><path d="M 100.72087961077811 120.9876233191556 l 2.162638832334333 62.96286995746683 a84.0,84.0 0 0,0 -1.4415467437170246,0.03712913059981959 l -1.0814787745465644 -62.990716805416696" fill="#4dd2ff" stroke="none" /><line stroke="#e1ed5e" stroke-width="0.3" x1="101.45913802915013" x2="101.54496967792366" y1="184.9874750549273" y2="189.98673829345242" /><path d="M 101.47630435890484 185.9873277026323 a86.0,86.0 0 0,1 -42.54439059252881,-10.42667462771756" fill="none" id="id127" stroke="none" /><text fill="#e1ed5e" style="font-size:6.75px; font-family:Arial;" text-anchor="middle"><textPath startOffset="22.145653131862474" xlink:href="#id127">July</textPath></text><line stroke="#e1ed5e" stroke-width="0.3" x1="58.13341422392154" x2="55.67067388415222" y1="173.97424548756322" y2="178.32567169271397" /><path d="M 57.64086615596768 174.84453072859336 a86.0,86.0 0 0,1 -31.369924170532247,-30.572349798747897" fill="none" id="id128" stroke="none" /><text fill="#e1ed5e" style="font-size:6.75px; font-family:Arial;" text-anchor="middle"><textPath startOffset="22.145653131862474" xlink:href="#id128">August</textPath></text><line stroke="#e1ed5e" stroke-width="0.3" x1="26.387840678322732" x2="22.057713659400548" y1="142.50000000000003" y2="145.00000000000006" /><path d="M 25.521815274538298 143.00000000000003 a86.0,86.0 0 0,1 -11.493303480769221,-40.785679425670985" fill="none" id="id129" stroke="none" /><text fill="#e1ed5e" style="font-size:6.75px; font-family:Arial;" text-anchor="middle"><textPath startOffset="21.40746469413373" xlink:href="#id129">September</textPath></text><line stroke="#e1ed5e" stroke-width="0.3" x1="15.003131293944662" x2="10.003315487706104" y1="100.72959589197737" y2="100.7725132973878" /><path d="M 14.003168132696942 100.73817937305945 a86.0,86.0 0 0,1 10.791469493833604,-42.45332614584628" fill="none" id="id130" stroke="none" /><text fill="#e1ed5e" style="font-size:6.75px; font-family:Arial;" text-anchor="middle"><textPath startOffset="22.145653131862435" xlink:href="#id130">October</textPath></text><line stroke="#e1ed5e" stroke-width="0.3" x1="26.387840678322718" x2="22.05771365940052" y1="57.49999999999999" y2="54.99999999999999" /><path d="M 25.521815274538284 56.99999999999999 a86.0,86.0 0 0,1 29.574782752854787,-30.34633250058573" fill="none" id="id131" stroke="none" /><text fill="#e1ed5e" style="font-size:6.75px; font-family:Arial;" text-anchor="middle"><textPath startOffset="21.40746469413373" xlink:href="#id131">November</textPath></text><line stroke="#e1ed5e" stroke-width="0.3" x1="56.869717070023135" x2="54.33264160355391" y1="26.7553504044142" y2="22.446841604673864" /><path d="M 56.362301976729285 25.89364864446614 a86.0,86.0 0 0,1 42.16139366436587,-11.88097634709845" fill="none" id="id132" stroke="none" /><text fill="#e1ed5e" style="font-size:6.75px; font-family:Arial;" text-anchor="middle"><textPath startOffset="22.145653131862474" xlink:href="#id132">December</textPath></text></svg>