<?xml version="1.0" encoding="utf-8" ?>
<svg baseProfile="full" height="200mm" version="1.1" viewBox="0,0,200,200" width="200mm" xmlns="http://www.w3.org/2000/svg" xmlns:ev="http://www.w3.org/2001/xml-events" xmlns:xlink="http://www.w3.org/1999/xlink"><defs /><rect fill="#f5f5f5" height="200" rx="1" ry="1" width="200" x="0" y="0" /><text alignment-baseline="middle" fill="#006cb8" style="dominant-baseline: central; font-size:9.0px; font-family:Arial;" text-anchor="middle" x="100.0" y="100.0">2025</text><line stroke="#006cb8" stroke-width="0.3" x1="100.0" x2="100.0" y1="15.0" y2="10.0" /><path d="M 100.0 14.0 a86.0,86.0 0 0,1 42.46469731375804,11.215312516191453" fill="none" id="id133" stroke="none" /><text fill="#006cb8" style="font-size:6.75px; font-family:Arial;" text-anchor="middle"><textPath startOffset="22.20632615414155" xlink:href="#id133">一月</textPath></text><path d="M 100.72285384407766 79.0124445844662 l 0.349778730436799 -10.155580617523409 a31.16160237557459,31.16160237557459 0 0,0 0.5359189702560546,0.02307779819472562 l -0.5245385330821851 10.148055092804489" fill="#f36900" stroke="none" /><path d="M 101.80526077348638 79.07773832637324 l 0.8702443338728447 -10.08578923371598 a31.12326378534013,31.12326378534013 0 0,0 0.5333562190136231,0.050648599655927246 l -1.0437256799767118 10.069315089544874" fill="#f36900" stroke="none" /><path d="M 102.88285421437855 79.19881850522331 l 1.4352586699992715 -10.35608250243841 a31.455066343506342,31.455066343506342 0 0,0 0.5356813070053547,0.07894549987549743 l -1.613308957433282 10.329842518401943" fill="#f36d00" stroke="none" /><path d="M 103.95276090670814 79.375362276772 l 10.825051836578254 -56.48274148980199 a78.51071059783912,78.51071059783912 0 0,0 1.3250872882133111,0.2658000442415979 l -11.79570553425869 56.28803748948318" fill="#00b681" stroke="none" /><path d="M 108.76106565485865 80.91482961587045 l 7.463014084731264 -16.257485218965964 a38.88861103813804,38.88861103813804 0 0,0 0.6059619459035108,0.28450725866431004 l -7.741754241934373 16.12661297766165" fill="#e9bc00" stroke="none" /><line stroke="#006cb8" stroke-width="0.3" x1="143.23703022742887" x2="145.7803849466894" y1="26.81831364943548" y2="22.513508569990506" /><path d="M 143.74570117128098 25.957352633546492 a86.0,86.0 0 0,1 28.547481713284135,27.462654790039103" fill="none" id="id134" stroke="none" /><text fill="#006cb8" style="font-size:6.75px; font-family:Arial;" text-anchor="middle"><textPath startOffset="19.985693538727396" xlink:href="#id134">二月</textPath></text><path d="M 113.6212207817346 84.01681056812373 l 6.610888775125392 -7.757240654052289 a31.19208678151636,31.19208678151636 0 0,0 0.40565487300859104,0.35177990848355295 l -6.743437446780748 7.6422957521490655" fill="#f36a00" stroke="none" /><path d="M 114.16331599549186 84.49514656593476 l 3.520941298873885 -3.8544419122162674 a26.220512435074273,26.220512435074273 0 0,0 0.33061833217461195,0.30727370766879236 l -3.5867675148433436 3.7932636184728343" fill="#fa3100" stroke="none" /><path d="M 114.42810811169701 84.74124197986012 l 3.450755115413818 -3.64942076156 a26.022547437452413,26.022547437452413 0 0,0 0.3228242691117657,0.3105566911121854 l -3.513062628138002 3.5894809836855126" fill="#fa2f00" stroke="none" /><path d="M 115.4437574822437 85.77008943001954 l 7.5564031484251135 -6.962485726445538 a31.27499080449646,31.27499080449646 0 0,0 0.3613845432564797,0.39904983877311007 l -7.675131332297629 6.831383100402879" fill="#f36b00" stroke="none" /><path d="M 115.9244219780498 86.31012108654704 l 7.639153408931451 -6.5672138878079585 a31.073974541034275,31.073974541034275 0 0,0 0.34520135510451544,0.4086095223314098 l -7.7510653775230836 6.434745415847442" fill="#f36800" stroke="none" /><path d="M 116.38621287248628 86.86637796730983 l 44.35082792455497 -35.54738458060839 a77.83847717976934,77.83847717976934 0 0,0 0.828964656858822,1.0527009315317783 l -44.956146662007754 34.77869125512357" fill="#00b77c" stroke="none" /><line stroke="#006cb8" stroke-width="0.3" x1="172.23445277983987" x2="176.4835382374775" y1="55.19839476539836" y2="52.563006222186495" /><path d="M 173.08426987136738 54.67131705675599 a86.0,86.0 0 0,1 12.851231095245387,41.99856678651699" fill="none" id="id135" stroke="none" /><text fill="#006cb8" style="font-size:6.75px; font-family:Arial;" text-anchor="middle"><textPath startOffset="22.20632615414155" xlink:href="#id135">三月</textPath></text><path d="M 119.47837535516314 92.15188598940014 l 9.520267429711224 -3.835850928910715 a31.263977995009807,31.263977995009807 0 0,0 0.19682378796651806,0.500895071777969 l -9.584884767559442 3.671406852236962" fill="#f36b00" stroke="none" /><path d="M 119.7369772167798 92.82701384747503 l 9.462716933384328 -3.4390239590854454 a31.068261893322116,31.068261893322116 0 0,0 0.17834205980161782,0.5041970188592256 l -9.520512073995755 3.2756293137996053" fill="#f36800" stroke="none" /><path d="M 120.08093135843002 93.85539295169968 l 2.0773997703470615 -0.6356679898541319 a23.172478676342582,23.172478676342582 0 0,0 0.113428293201564,0.3824238164506194 l -2.0880339606603275 0.5998147866569825" fill="#fe0c00" stroke="none" /><path d="M 120.18372546131832 94.20196356495316 l 9.65592154821389 -2.7737884692195647 a31.04642839108689,31.04642839108689 0 0,0 0.14312880928196542,0.5149104798965952 l -9.702237128062219 2.6071666859040175" fill="#f36800" stroke="none" /><path d="M 120.37134235888165 94.90015583598534 l 9.926666048785139 -2.4850816909936033 a31.233001996238208,31.233001996238208 0 0,0 0.12607305326996904,0.5226541981471122 l -9.967971902315925 2.313842261187085" fill="#f36a00" stroke="none" /><path d="M 120.53481517161879 95.60439243477599 l 61.60444551485638 -13.186822695672053 a84.0,84.0 0 0,0 0.2904828163400124,1.4164973753463528 l -61.822307627111385 12.124449664162288" fill="#00afaa" stroke="none" /><path d="M 120.6074358757038 95.95851677861258 l 20.03207669175189 -3.928645093333161 a41.41368043380713,41.41368043380713 0 0,0 0.13117147496586218,0.7007232643376855 l -20.09673389062761 3.5832437515329127" fill="#e6d500" stroke="none" /><path d="M 120.67395015179393 96.31383870115 l 10.169462705154176 -1.813213226238958 a31.32984578371476,31.32984578371476 0 0,0 0.09009290789223923,0.5317334422470984 l -10.19916747456664 1.6378939956760217" fill="#f36b00" stroke="none" /><path d="M 120.73433829027371 96.67025291283417 l 13.56333307302101 -2.1781485456585306 a34.73711524071411,34.73711524071411 0 0,0 0.08972779908231505,0.5911940866652264 l -13.598816765542624 1.9443553466012222" fill="#ef9000" stroke="none" /><path d="M 120.87857604477298 97.74499172005257 l 1.142350117036489 -0.1233804914181927 a22.14899370562065,22.14899370562065 0 0,0 0.03767741516242832,0.3794064288659619 l -1.1443046578811458 0.10369853184779589" fill="#ff0000" stroke="none" /><path d="M 120.96714384426684 98.82574320788733 l 1.2112964604940881 -0.06783819038786937 a22.21319459909802,22.21319459909802 0 0,0 0.01809464805703576,0.3819494217217268 l -1.2122847167846205 0.046977662043142805" fill="#ff0100" stroke="none" /><line stroke="#006cb8" stroke-width="0.3" x1="184.98032266829074" x2="189.97916517819016" y1="98.17113171792111" y2="98.06355123074" /><path d="M 185.9800911702706 98.14961562048488 a86.0,86.0 0 0,1 -9.607161424134198,41.387399972396054" fill="none" id="id136" stroke="none" /><text fill="#006cb8" style="font-size:6.75px; font-family:Arial;" text-anchor="middle"><textPath startOffset="21.466115282336823" xlink:href="#id136">四月</textPath></text><path d="M 120.99513854157772 99.54816195383933 l 10.328866740922576 -0.22228836251926204 a31.331258406788983,31.331258406788983 0 0,0 0.006962988570357094,0.5392911382567872 l -10.331162736610649 0.04446096620201214" fill="#f36b00" stroke="none" /><path d="M 120.99824983174949 100.27111621757518 l 10.181564522695076 0.13145796837872942 a31.18241313870407,31.18241313870407 0 0,0 -0.011549278796335247,0.5366496036460848 l -10.177793181213733 -0.30669738781492906" fill="#f36a00" stroke="none" /><path d="M 120.9764740272857 100.99374915477107 l 2.839013555636328 0.13449673751781907 a23.84219762534025,23.84219762534025 0 0,0 -0.022949419850895714,0.40977730798598583 l -2.836277784897903 -0.18334576183922824" fill="#fd1500" stroke="none" /><path d="M 120.89721153311464 102.0752229133903 l 10.224787886423583 1.015384950898242 a31.275081212373216,31.275081212373216 0 0,0 -0.057810793953905724,0.5352561533847043 l -10.205794790968625 -1.1912374261677376" fill="#f36b00" stroke="none" /><path d="M 120.81339534386255 102.79330883721812 l 5.09897870662708 0.6843199798349283 a26.144694129434484,26.144694129434484 0 0,0 -0.06370086123872415,0.4455236751383495 l -5.086443794371754 -0.7719891269536872" fill="#fa3000" stroke="none" /><line stroke="#006cb8" stroke-width="0.3" x1="174.80103733775053" x2="179.2010983576182" y1="140.37084112569926" y2="142.7455964860345" /><path d="M 175.68104954172406 140.8457921977663 a86.0,86.0 0 0,1 -30.038265399797805,32.042727171017184" fill="none" id="id137" stroke="none" /><text fill="#006cb8" style="font-size:6.75px; font-family:Arial;" text-anchor="middle"><textPath startOffset="22.206326154141568" xlink:href="#id137">五月</textPath></text><line stroke="#006cb8" stroke-width="0.3" x1="143.8653032363475" x2="146.44561519142675" y1="172.8068346515853" y2="177.08958963109032" /><path d="M 144.38136562736335 173.6633856474863 a86.0,86.0 0 0,1 -40.68145358897372,12.25698825130547" fill="none" id="id138" stroke="none" /><text fill="#006cb8" style="font-size:6.75px; font-family:Arial;" text-anchor="middle"><textPath startOffset="21.466115282336833" xlink:href="#id138">六月</textPath></text><line stroke="#006cb8" stroke-width="0.3" x1="102.19456741930631" x2="102.32365962044197" y1="184.97166512339345" y2="189.96999836594603" /><path d="M 102.22038585953345 185.97133177190398 a86.0,86.0 0 0,1 -42.740103519485714,-10.115201625700543" fill="none" id="id139" stroke="none" /><text fill="#006cb8" style="font-size:6.75px; font-family:Arial;" text-anchor="middle"><textPath startOffset="22.20632615414155" xlink:href="#id139">七月</textPath></text><line stroke="#006cb8" stroke-width="0.3" x1="58.666819895761336" x2="56.23545636021788" y1="174.27360380694188" y2="178.64263932499728" /><path d="M 58.180547188652646 175.14741091055294 a86.0,86.0 0 0,1 -31.652253787137756,-30.449443065178592" fill="none" id="id140" stroke="none" /><text fill="#006cb8" style="font-size:6.75px; font-family:Arial;" text-anchor="middle"><textPath startOffset="22.20632615414155" xlink:href="#id140">八月</textPath></text><line stroke="#006cb8" stroke-width="0.3" x1="26.63291911575756" x2="22.317208475507996" y1="142.92168965132927" y2="145.44649492493687" /><path d="M 25.769776987707644 143.4266507060508 a86.0,86.0 0 0,1 -11.730757126820373,-40.83630448921669" fill="none" id="id141" stroke="none" /><text fill="#006cb8" style="font-size:6.75px; font-family:Arial;" text-anchor="middle"><textPath startOffset="21.46611528233685" xlink:href="#id141">九月</textPath></text><line stroke="#006cb8" stroke-width="0.3" x1="15.007084014347285" x2="10.007500721073583" y1="101.09737516637583" y2="101.16192664675087" /><path d="M 14.007167355692545 101.11028546245083 a86.0,86.0 0 0,1 10.666146001902534,-42.60595125391555" fill="none" id="id142" stroke="none" /><text fill="#006cb8" style="font-size:6.75px; font-family:Arial;" text-anchor="middle"><textPath startOffset="22.20632615414155" xlink:href="#id142">十月</textPath></text><line stroke="#006cb8" stroke-width="0.3" x1="26.266209847984243" x2="21.928928074336255" y1="57.711370442889674" y2="55.22380399835377" /><path d="M 25.398753493254645 57.213857153982495 a86.0,86.0 0 0,1 29.58750427330803,-30.492523968695096" fill="none" id="id143" stroke="none" /><text fill="#006cb8" style="font-size:6.75px; font-family:Arial;" text-anchor="middle"><textPath startOffset="21.46611528233685" xlink:href="#id143">十一月</textPath></text><line stroke="#006cb8" stroke-width="0.3" x1="56.762969772571076" x2="54.21961505331055" y1="26.818313649435495" y2="22.513508569990535" /><path d="M 56.25429882871897 25.957352633546506 a86.0,86.0 0 0,1 42.265352541879196,-11.944610805530505" fill="none" id="id144" stroke="none" /><text fill="#006cb8" style="font-size:6.75px; font-family:Arial;" text-anchor="middle"><textPath startOffset="22.20632615414155" xlink:href="#id144">十二月</textPath></text></svg>