<?xml version="1.0" encoding="utf-8" ?>
<svg baseProfile="full" height="200mm" version="1.1" viewBox="0,0,200,200" width="200mm" xmlns="http://www.w3.org/2000/svg" xmlns:ev="http://www.w3.org/2001/xml-events" xmlns:xlink="http://www.w3.org/1999/xlink"><defs /><rect fill="#f5f5f5" height="200" width="200" x="0" y="0" /><text alignment-baseline="middle" fill="#006cb8" style="dominant-baseline: central; font-size:9.0px; font-family:Arial;" text-anchor="middle" x="100.0" y="100.0">2019</text><line stroke="#006cb8" stroke-width="0.3" x1="100.0" x2="100.0" y1="15.0" y2="10.0" /><path d="M 100.0 14.0 a86.0,86.0 0 0,1 42.46469731375804,11.215312516191453" fill="none" id="id61" stroke="none" /><text fill="#006cb8" style="font-size:6.75px; font-family:Arial;" text-anchor="middle"><textPath startOffset="22.20632615414155" xlink:href="#id61">January</textPath></text><path d="M 100.72285384407766 79.0124445844662 l 1.0724186224874883 -31.13692408570559 a52.1553867448448,52.1553867448448 0 0,0 0.89697124110384,0.03862546847105779 l -1.6082306959806598 31.11385089071034" fill="red" stroke="none" /><path d="M 102.16513564639614 79.11191278185805 l 1.674615826190408 -16.155810603630993 a37.24236911370146,37.24236911370146 0 0,0 0.6370809059915508,0.0715834628462145 l -1.9524634356916841 16.124591187314177" fill="red" stroke="none" /><path d="M 103.2404852339499 79.25152402106235 l 3.4051844977583903 -21.80302752667413 a43.06733538043694,43.06733538043694 0 0,0 0.7314695571249406,0.12069874439863025 l -3.7799832610222057 21.741182519335872" fill="red" stroke="none" /><path d="M 105.01212808612495 79.60689891045804 l 5.269765019675483 -21.441361616809857 a43.0794567719725,43.0794567719725 0 0,0 0.7185881327380795,0.18318411506713905 l -5.638062041098587 21.347474505573853" fill="red" stroke="none" /><path d="M 105.71112130821622 79.79150937346287 l 6.245995706924189 -22.10111445456097 a43.96675254589815,43.96675254589815 0 0,0 0.7265187251600035,0.21209073832939668 l -6.6255046498076196 21.990325387312872" fill="red" stroke="none" /><path d="M 109.41281617654863 81.2277094730956 l 10.979345568160321 -21.896471888433155 a45.494928255988526,45.494928255988526 0 0,0 0.6970245730602997,0.35704305890278254 l -11.354630628809376 21.704236304217872" fill="red" stroke="none" /><path d="M 110.36928655335952 81.73862282372117 l 12.372355727437093 -21.788987442402373 a46.05663904060985,46.05663904060985 0 0,0 0.6860317706460805,0.3973938818450306 l -12.745584230548502 21.572789403167295" fill="red" stroke="none" /><line stroke="#006cb8" stroke-width="0.3" x1="143.23703022742887" x2="145.7803849466894" y1="26.81831364943548" y2="22.513508569990506" /><path d="M 143.74570117128098 25.957352633546492 a86.0,86.0 0 0,1 28.547481713284135,27.462654790039103" fill="none" id="id62" stroke="none" /><text fill="#006cb8" style="font-size:6.75px; font-family:Arial;" text-anchor="middle"><textPath startOffset="19.985693538727396" xlink:href="#id62">February</textPath></text><path d="M 112.48926042617603 83.11751280151076 l 8.138090599011955 -11.000748296513146 a34.68374881678861,34.68374881678861 0 0,0 0.4769078987107545,0.3591971419713199 l -8.326244651481092 10.859034565035978" fill="red" stroke="none" /><path d="M 113.06298171725822 83.55741782278167 l 29.265871030419255 -36.837415822896965 a68.04770357496902,68.04770357496902 0 0,0 0.9108561052578437,0.7365156246556356 l -29.89563053424159 36.3281941009772" fill="red" stroke="none" /><line stroke="#006cb8" stroke-width="0.3" x1="172.23445277983987" x2="176.4835382374775" y1="55.19839476539836" y2="52.563006222186495" /><path d="M 173.08426987136738 54.67131705675599 a86.0,86.0 0 0,1 12.851231095245387,41.99856678651699" fill="none" id="id63" stroke="none" /><text fill="#006cb8" style="font-size:6.75px; font-family:Arial;" text-anchor="middle"><textPath startOffset="22.20632615414155" xlink:href="#id63">March</textPath></text><line stroke="#006cb8" stroke-width="0.3" x1="184.98032266829074" x2="189.97916517819016" y1="98.17113171792111" y2="98.06355123074" /><path d="M 185.9800911702706 98.14961562048488 a86.0,86.0 0 0,1 -9.607161424134198,41.387399972396054" fill="none" id="id64" stroke="none" /><text fill="#006cb8" style="font-size:6.75px; font-family:Arial;" text-anchor="middle"><textPath startOffset="21.466115282336823" xlink:href="#id64">April</textPath></text><line stroke="#006cb8" stroke-width="0.3" x1="174.80103733775053" x2="179.2010983576182" y1="140.37084112569926" y2="142.7455964860345" /><path d="M 175.68104954172406 140.8457921977663 a86.0,86.0 0 0,1 -30.038265399797805,32.042727171017184" fill="none" id="id65" stroke="none" /><text fill="#006cb8" style="font-size:6.75px; font-family:Arial;" text-anchor="middle"><textPath startOffset="22.206326154141568" xlink:href="#id65">May</textPath></text><line stroke="#006cb8" stroke-width="0.3" x1="143.8653032363475" x2="146.44561519142675" y1="172.8068346515853" y2="177.08958963109032" /><path d="M 144.38136562736335 173.6633856474863 a86.0,86.0 0 0,1 -40.68145358897372,12.25698825130547" fill="none" id="id66" stroke="none" /><text fill="#006cb8" style="font-size:6.75px; font-family:Arial;" text-anchor="middle"><textPath startOffset="21.466115282336833" xlink:href="#id66">June</textPath></text><path d="M 109.2508944713604 118.85261126421891 l 6.947128990233431 14.157714441638896 a36.770335425029245,36.770335425029245 0 0,0 -0.5706184051618719,0.27393151090107415 l -6.702397917071326 -14.27520022903953" fill="red" stroke="none" /><line stroke="#006cb8" stroke-width="0.3" x1="102.19456741930631" x2="102.32365962044197" y1="184.97166512339345" y2="189.96999836594603" /><path d="M 102.22038585953345 185.97133177190398 a86.0,86.0 0 0,1 -42.740103519485714,-10.115201625700543" fill="none" id="id67" stroke="none" /><text fill="#006cb8" style="font-size:6.75px; font-family:Arial;" text-anchor="middle"><textPath startOffset="22.20632615414155" xlink:href="#id67">July</textPath></text><line stroke="#006cb8" stroke-width="0.3" x1="58.666819895761336" x2="56.23545636021788" y1="174.27360380694188" y2="178.64263932499728" /><path d="M 58.180547188652646 175.14741091055294 a86.0,86.0 0 0,1 -31.652253787137756,-30.449443065178592" fill="none" id="id68" stroke="none" /><text fill="#006cb8" style="font-size:6.75px; font-family:Arial;" text-anchor="middle"><textPath startOffset="22.20632615414155" xlink:href="#id68">August</textPath></text><line stroke="#006cb8" stroke-width="0.3" x1="26.63291911575756" x2="22.317208475507996" y1="142.92168965132927" y2="145.44649492493687" /><path d="M 25.769776987707644 143.4266507060508 a86.0,86.0 0 0,1 -11.730757126820373,-40.83630448921669" fill="none" id="id69" stroke="none" /><text fill="#006cb8" style="font-size:6.75px; font-family:Arial;" text-anchor="middle"><textPath startOffset="21.46611528233685" xlink:href="#id69">September</textPath></text><path d="M 80.0844068197444 106.66101706037122 l -6.156133923445781 2.058995316828223 a27.491336272149248,27.491336272149248 0 0,0 -0.14623787102462515,-0.4500738881640488 l 6.190664045486655 -1.952722528686371" fill="red" stroke="none" /><line stroke="#006cb8" stroke-width="0.3" x1="15.007084014347285" x2="10.007500721073583" y1="101.09737516637583" y2="101.16192664675087" /><path d="M 14.007167355692545 101.11028546245083 a86.0,86.0 0 0,1 10.666146001902534,-42.60595125391555" fill="none" id="id70" stroke="none" /><text fill="#006cb8" style="font-size:6.75px; font-family:Arial;" text-anchor="middle"><textPath startOffset="22.20632615414155" xlink:href="#id70">October</textPath></text><line stroke="#006cb8" stroke-width="0.3" x1="26.266209847984243" x2="21.928928074336255" y1="57.711370442889674" y2="55.22380399835377" /><path d="M 25.398753493254645 57.213857153982495 a86.0,86.0 0 0,1 29.58750427330803,-30.492523968695096" fill="none" id="id71" stroke="none" /><text fill="#006cb8" style="font-size:6.75px; font-family:Arial;" text-anchor="middle"><textPath startOffset="21.46611528233685" xlink:href="#id71">November</textPath></text><path d="M 85.31137513191541 84.99185889309783 l -12.30658621900656 -12.574286849711966 a38.59445236842231,38.59445236842231 0 0,0 0.4787857878845735,-0.4605915486034722 l 12.088317187509558 12.784261485077751" fill="red" stroke="none" /><path d="M 87.22198572758235 83.33499621200491 l -32.7728571381599 -42.742148874397905 a74.86048138848587,74.86048138848587 0 0,0 1.029345330115417,-0.7752815620762582 l 32.03226565428609 43.29994702598002" fill="red" stroke="none" /><line stroke="#006cb8" stroke-width="0.3" x1="56.762969772571076" x2="54.21961505331055" y1="26.818313649435495" y2="22.513508569990535" /><path d="M 56.25429882871897 25.957352633546506 a86.0,86.0 0 0,1 42.265352541879196,-11.944610805530505" fill="none" id="id72" stroke="none" /><text fill="#006cb8" style="font-size:6.75px; font-family:Arial;" text-anchor="middle"><textPath startOffset="22.20632615414155" xlink:href="#id72">December</textPath></text><path d="M 96.40284397218896 79.31037775812273 l -6.626912918344931 -38.115756961981766 a59.68755489317189,59.68755489317189 0 0,0 1.0137527422560217,-0.16727788864091994 l 5.969830969950023 38.22418111356232" fill="red" stroke="none" /><path d="M 97.47563105711357 79.15227682838746 l -7.573106828659279 -62.54316951483762 a84.0,84.0 0 0,0 1.436933185961128,-0.16145618611760604 l 6.495406939188433 62.66426165442583" fill="red" stroke="none" /><path d="M 98.91598698831166 79.02799685794201 l -1.3062162932138546 -25.27088873483401 a46.304624447974284,46.304624447974284 0 0,0 0.7963495058169212,-0.034292484886164806 l 0.8710259550076093 25.289628946244367" fill="red" stroke="none" /><path d="M 99.27714615592234 79.0124445844662 l -1.715313601593578 -49.8029298224169 a70.83246050164887,70.83246050164887 0 0,0 1.2189030756622228,-0.0314806703299995 l 0.8577838907364761 49.82507728488926" fill="red" stroke="none" /></svg>