<?xml version="1.0" encoding="utf-8" ?>
<svg baseProfile="full" height="200mm" version="1.1" viewBox="0,0,200,200" width="200mm" xmlns="http://www.w3.org/2000/svg" xmlns:ev="http://www.w3.org/2001/xml-events" xmlns:xlink="http://www.w3.org/1999/xlink"><defs /><rect fill="#1a1a1a" height="200" width="200" x="0" y="0" /><text alignment-baseline="middle" fill="#e1ed5e" style="dominant-baseline: central; font-size:9.0px; font-family:Arial;" text-anchor="middle" x="100.0" y="100.0">2025</text><line stroke="#e1ed5e" stroke-width="0.3" x1="100.0" x2="100.0" y1="15.0" y2="10.0" /><path d="M 100.0 14.0 a86.0,86.0 0 0,1 42.46469731375804,11.215312516191453" fill="none" id="id133" stroke="none" /><text fill="#e1ed5e" style="font-size:6.75px; font-family:Arial;" text-anchor="middle"><textPath startOffset="22.20632615414155" xlink:href="#id133">January</textPath></text><path d="M 100.72285384407766 79.0124445844662 l 0.3831644538634218 -11.124911729538153 a32.13150825309491,32.13150825309491 0 0,0 0.5525994654649086,0.023796095406772615 l -0.5746047517176619 11.116667907607185" fill="#ff7e0b" stroke="none" /><path d="M 101.80526077348638 79.07773832637324 l 0.9533075224434664 -11.04845888911658 a32.08951031636864,32.08951031636864 0 0,0 0.5499146879447363,0.05222102580173665 l -1.1433473374784469 11.030412318799666" fill="#ff7d0b" stroke="none" /><path d="M 102.88285421437855 79.19881850522331 l 1.5722514166491892 -11.344551143107141 a32.45298280605227,32.45298280605227 0 0,0 0.5526758728123703,0.08145005710991382 l -1.7672962698902153 11.315806601836258" fill="#ff820c" stroke="none" /><path d="M 103.95276090670814 79.375362276772 l 11.858282720124386 -61.87391316968404 a84.0,84.0 0 0,0 1.4177343621314986,0.2843841756911667 l -12.921583491723009 61.66062503791566" fill="#4dd2ff" stroke="none" /><path d="M 108.76106565485865 80.91482961587045 l 8.175344774052151 -17.809231674375095 a40.596045392022006,40.596045392022006 0 0,0 0.6325671708257217,0.2969987685024062 l -8.48069015617747 17.665867923232685" fill="#ffed16" stroke="none" /><line stroke="#e1ed5e" stroke-width="0.3" x1="143.23703022742887" x2="145.7803849466894" y1="26.81831364943548" y2="22.513508569990506" /><path d="M 143.74570117128098 25.957352633546492 a86.0,86.0 0 0,1 28.547481713284135,27.462654790039103" fill="none" id="id134" stroke="none" /><text fill="#e1ed5e" style="font-size:6.75px; font-family:Arial;" text-anchor="middle"><textPath startOffset="19.985693538727396" xlink:href="#id134">February</textPath></text><path d="M 113.6212207817346 84.01681056812373 l 7.24188570273984 -8.497654717270294 a32.16490233837689,32.16490233837689 0 0,0 0.4183063949777107,0.3627511836650058 l -7.387085896364314 8.371738540185616" fill="#ff7e0b" stroke="none" /><path d="M 114.16331599549186 84.49514656593476 l 3.8570085384649957 -4.222341159504798 a26.71880055020633,26.71880055020633 0 0,0 0.33690132095964503,0.31311306099962616 l -3.9291177432194875 4.155323512430531" fill="#ff3104" stroke="none" /><path d="M 114.42810811169701 84.74124197986012 l 3.7801232155048177 -3.9977511247603803 a26.5019401650619,26.5019401650619 0 0,0 0.3287714042752238,0.31627783042752305 l -3.8483778633924595 3.932090207570555" fill="#ff2e04" stroke="none" /><path d="M 115.4437574822437 85.77008943001954 l 8.277647648621981 -7.627041923257858 a32.25571939477304,32.25571939477304 0 0,0 0.37271692560220737,0.4115633384021421 l -8.407708214840223 7.483425797586166" fill="#ff7f0b" stroke="none" /><path d="M 115.9244219780498 86.31012108654704 l 8.368296266204794 -7.194042129388103 a32.03551650618982,32.03551650618982 0 0,0 0.3558831424929692,0.4212533893901596 l -8.49089002218488 7.048929790368837" fill="#ff7c0b" stroke="none" /><path d="M 116.38621287248628 86.86637796730983 l 48.5840312213417 -38.94031573072709 a83.26360316368638,83.26360316368638 0 0,0 0.8867411944096174,1.1260712669220376 l -49.247126496345274 38.098252069852016" fill="#4cd9ff" stroke="none" /><line stroke="#e1ed5e" stroke-width="0.3" x1="172.23445277983987" x2="176.4835382374775" y1="55.19839476539836" y2="52.563006222186495" /><path d="M 173.08426987136738 54.67131705675599 a86.0,86.0 0 0,1 12.851231095245387,41.99856678651699" fill="none" id="id135" stroke="none" /><text fill="#e1ed5e" style="font-size:6.75px; font-family:Arial;" text-anchor="middle"><textPath startOffset="22.20632615414155" xlink:href="#id135">March</textPath></text><path d="M 119.47837535516314 92.15188598940014 l 10.428959090175857 -4.2019757017305075 a32.243655433287486,32.243655433287486 0 0,0 0.20299139160345528,0.5165909503012868 l -10.499744031661013 4.021835746533436" fill="#ff7f0b" stroke="none" /><path d="M 119.7369772167798 92.82701384747503 l 10.36591550697362 -3.767272342319548 a32.02925859697387,32.02925859697387 0 0,0 0.1838584975148153,0.5197927311259265 l -10.429227085298244 3.5882819847670073" fill="#ff7c0b" stroke="none" /><path d="M 120.08093135843002 93.85539295169968 l 2.2756836799853812 -0.6963413065933322 a23.379837689133424,23.379837689133424 0 0,0 0.11444330671088009,0.38584593741378875 l -2.287332883807964 0.6570659824330134" fill="#ff0000" stroke="none" /><path d="M 120.18372546131832 94.20196356495316 l 5.303778557251614 -1.523579052702617 a26.51827510316369,26.51827510316369 0 0,0 0.12225332627366131,0.43981026053612093 l -5.329218654091639 1.4320574887475441" fill="#ff2e04" stroke="none" /><line stroke="#e1ed5e" stroke-width="0.3" x1="184.98032266829074" x2="189.97916517819016" y1="98.17113171792111" y2="98.06355123074" /><path d="M 185.9800911702706 98.14961562048488 a86.0,86.0 0 0,1 -9.607161424134198,41.387399972396054" fill="none" id="id136" stroke="none" /><text fill="#e1ed5e" style="font-size:6.75px; font-family:Arial;" text-anchor="middle"><textPath startOffset="21.466115282336823" xlink:href="#id136">April</textPath></text><line stroke="#e1ed5e" stroke-width="0.3" x1="174.80103733775053" x2="179.2010983576182" y1="140.37084112569926" y2="142.7455964860345" /><path d="M 175.68104954172406 140.8457921977663 a86.0,86.0 0 0,1 -30.038265399797805,32.042727171017184" fill="none" id="id137" stroke="none" /><text fill="#e1ed5e" style="font-size:6.75px; font-family:Arial;" text-anchor="middle"><textPath startOffset="22.206326154141568" xlink:href="#id137">May</textPath></text><line stroke="#e1ed5e" stroke-width="0.3" x1="143.8653032363475" x2="146.44561519142675" y1="172.8068346515853" y2="177.08958963109032" /><path d="M 144.38136562736335 173.6633856474863 a86.0,86.0 0 0,1 -40.68145358897372,12.25698825130547" fill="none" id="id138" stroke="none" /><text fill="#e1ed5e" style="font-size:6.75px; font-family:Arial;" text-anchor="middle"><textPath startOffset="21.466115282336833" xlink:href="#id138">June</textPath></text><line stroke="#e1ed5e" stroke-width="0.3" x1="102.19456741930631" x2="102.32365962044197" y1="184.97166512339345" y2="189.96999836594603" /><path d="M 102.22038585953345 185.97133177190398 a86.0,86.0 0 0,1 -42.740103519485714,-10.115201625700543" fill="none" id="id139" stroke="none" /><text fill="#e1ed5e" style="font-size:6.75px; font-family:Arial;" text-anchor="middle"><textPath startOffset="22.20632615414155" xlink:href="#id139">July</textPath></text><line stroke="#e1ed5e" stroke-width="0.3" x1="58.666819895761336" x2="56.23545636021788" y1="174.27360380694188" y2="178.64263932499728" /><path d="M 58.180547188652646 175.14741091055294 a86.0,86.0 0 0,1 -31.652253787137756,-30.449443065178592" fill="none" id="id140" stroke="none" /><text fill="#e1ed5e" style="font-size:6.75px; font-family:Arial;" text-anchor="middle"><textPath startOffset="22.20632615414155" xlink:href="#id140">August</textPath></text><line stroke="#e1ed5e" stroke-width="0.3" x1="26.63291911575756" x2="22.317208475507996" y1="142.92168965132927" y2="145.44649492493687" /><path d="M 25.769776987707644 143.4266507060508 a86.0,86.0 0 0,1 -11.730757126820373,-40.83630448921669" fill="none" id="id141" stroke="none" /><text fill="#e1ed5e" style="font-size:6.75px; font-family:Arial;" text-anchor="middle"><textPath startOffset="21.46611528233685" xlink:href="#id141">September</textPath></text><line stroke="#e1ed5e" stroke-width="0.3" x1="15.007084014347285" x2="10.007500721073583" y1="101.09737516637583" y2="101.16192664675087" /><path d="M 14.007167355692545 101.11028546245083 a86.0,86.0 0 0,1 10.666146001902534,-42.60595125391555" fill="none" id="id142" stroke="none" /><text fill="#e1ed5e" style="font-size:6.75px; font-family:Arial;" text-anchor="middle"><textPath startOffset="22.20632615414155" xlink:href="#id142">October</textPath></text><line stroke="#e1ed5e" stroke-width="0.3" x1="26.266209847984243" x2="21.928928074336255" y1="57.711370442889674" y2="55.22380399835377" /><path d="M 25.398753493254645 57.213857153982495 a86.0,86.0 0 0,1 29.58750427330803,-30.492523968695096" fill="none" id="id143" stroke="none" /><text fill="#e1ed5e" style="font-size:6.75px; font-family:Arial;" text-anchor="middle"><textPath startOffset="21.46611528233685" xlink:href="#id143">November</textPath></text><line stroke="#e1ed5e" stroke-width="0.3" x1="56.762969772571076" x2="54.21961505331055" y1="26.818313649435495" y2="22.513508569990535" /><path d="M 56.25429882871897 25.957352633546506 a86.0,86.0 0 0,1 42.265352541879196,-11.944610805530505" fill="none" id="id144" stroke="none" /><text fill="#e1ed5e" style="font-size:6.75px; font-family:Arial;" text-anchor="middle"><textPath startOffset="22.20632615414155" xlink:href="#id144">December</textPath></text></svg>