<?xml version="1.0" encoding="utf-8" ?>
<svg baseProfile="full" height="200mm" version="1.1" viewBox="0,0,200,200" width="200mm" xmlns="http://www.w3.org/2000/svg" xmlns:ev="http://www.w3.org/2001/xml-events" xmlns:xlink="http://www.w3.org/1999/xlink"><defs /><rect fill="#f5f5f5" height="200" rx="1" ry="1" width="200" x="0" y="0" /><rect fill="#f5f5f5" height="200" width="180" x="10" y="0" /><text alignment-baseline="middle" fill="#006cb8" style="dominant-baseline: central; font-size:9.0px; font-family:Arial;" text-anchor="middle" x="100.0" y="100.0">2025</text><line stroke="#006cb8" stroke-width="0.3" x1="100.0" x2="100.0" y1="15.0" y2="10.0" /><path d="M 100.0 14.0 a86.0,86.0 0 0,1 42.46469731375804,11.215312516191453" fill="none" id="id1" stroke="none" /><text fill="#006cb8" style="font-size:6.75px; font-family:Arial;" text-anchor="middle"><textPath startOffset="22.20632615414155" xlink:href="#id1">一月</textPath></text><line stroke="#006cb8" stroke-width="0.3" x1="143.23703022742887" x2="145.7803849466894" y1="26.81831364943548" y2="22.513508569990506" /><path d="M 143.74570117128098 25.957352633546492 a86.0,86.0 0 0,1 28.547481713284135,27.462654790039103" fill="none" id="id2" stroke="none" /><text fill="#006cb8" style="font-size:6.75px; font-family:Arial;" text-anchor="middle"><textPath startOffset="19.985693538727396" xlink:href="#id2">二月</textPath></text><line stroke="#006cb8" stroke-width="0.3" x1="172.23445277983987" x2="176.4835382374775" y1="55.19839476539836" y2="52.563006222186495" /><path d="M 173.08426987136738 54.67131705675599 a86.0,86.0 0 0,1 12.851231095245387,41.99856678651699" fill="none" id="id3" stroke="none" /><text fill="#006cb8" style="font-size:6.75px; font-family:Arial;" text-anchor="middle"><textPath startOffset="22.20632615414155" xlink:href="#id3">三月</textPath></text><line stroke="#006cb8" stroke-width="0.3" x1="184.98032266829074" x2="189.97916517819016" y1="98.17113171792111" y2="98.06355123074" /><path d="M 185.9800911702706 98.14961562048488 a86.0,86.0 0 0,1 -9.607161424134198,41.387399972396054" fill="none" id="id4" stroke="none" /><text fill="#006cb8" style="font-size:6.75px; font-family:Arial;" text-anchor="middle"><textPath startOffset="21.466115282336823" xlink:href="#id4">四月</textPath></text><line stroke="#006cb8" stroke-width="0.3" x1="174.80103733775053" x2="179.2010983576182" y1="140.37084112569926" y2="142.7455964860345" /><path d="M 175.68104954172406 140.8457921977663 a86.0,86.0 0 0,1 -30.038265399797805,32.042727171017184" fill="none" id="id5" stroke="none" /><text fill="#006cb8" style="font-size:6.75px; font-family:Arial;" text-anchor="middle"><textPath startOffset="22.206326154141568" xlink:href="#id5">五月</textPath></text><line stroke="#006cb8" stroke-width="0.3" x1="143.8653032363475" x2="146.44561519142675" y1="172.8068346515853" y2="177.08958963109032" /><path d="M 144.38136562736335 173.6633856474863 a86.0,86.0 0 0,1 -40.68145358897372,12.25698825130547" fill="none" id="id6" stroke="none" /><text fill="#006cb8" style="font-size:6.75px; font-family:Arial;" text-anchor="middle"><textPath startOffset="21.466115282336833" xlink:href="#id6">六月</textPath></text><line stroke="#006cb8" stroke-width="0.3" x1="102.19456741930631" x2="102.32365962044197" y1="184.97166512339345" y2="189.96999836594603" /><path d="M 102.22038585953345 185.97133177190398 a86.0,86.0 0 0,1 -42.740103519485714,-10.115201625700543" fill="none" id="id7" stroke="none" /><text fill="#006cb8" style="font-size:6.75px; font-family:Arial;" text-anchor="middle"><textPath startOffset="22.20632615414155" xlink:href="#id7">七月</textPath></text><line stroke="#006cb8" stroke-width="0.3" x1="58.666819895761336" x2="56.23545636021788" y1="174.27360380694188" y2="178.64263932499728" /><path d="M 58.180547188652646 175.14741091055294 a86.0,86.0 0 0,1 -31.652253787137756,-30.449443065178592" fill="none" id="id8" stroke="none" /><text fill="#006cb8" style="font-size:6.75px; font-family:Arial;" text-anchor="middle"><textPath startOffset="22.20632615414155" xlink:href="#id8">八月</textPath></text><line stroke="#006cb8" stroke-width="0.3" x1="26.63291911575756" x2="22.317208475507996" y1="142.92168965132927" y2="145.44649492493687" /><path d="M 25.769776987707644 143.4266507060508 a86.0,86.0 0 0,1 -11.730757126820373,-40.83630448921669" fill="none" id="id9" stroke="none" /><text fill="#006cb8" style="font-size:6.75px; font-family:Arial;" text-anchor="middle"><textPath startOffset="21.46611528233685" xlink:href="#id9">九月</textPath></text><path d="M 80.20201598880116 107.00284435728193 l -36.825816333610334 13.025844448012966 a60.06166115541724,60.06166115541724 0 0,0 -0.33637152669799975,-0.9776531086058502 l 37.044578691251566 -12.39001863631782" fill="red" stroke="none" /><path d="M 80.0844068197444 106.66101706037122 l -17.365937553307884 5.808253124320976 a39.31151526940284,39.31151526940284 0 0,0 -0.20911432761358736,-0.6435877234838131 l 17.46334413193772 -5.50846650085936" fill="red" stroke="none" /><path d="M 79.97269907076064 106.31721596034903 l -12.184800510245577 3.8434543191295543 a33.77659988329119,33.77659988329119 0 0,0 -0.17012666587737,-0.5559837875502578 l 12.249153948629075 -3.6331435590272485" fill="red" stroke="none" /><path d="M 79.76711848015287 105.62410040840567 l -31.248605187237146 8.686122785983475 a53.43337872009337,53.43337872009337 0 0,0 -0.2386994307281157,-0.888289380107134 l 31.393492694307035 -8.146942472700802" fill="red" stroke="none" /><path d="M 79.67330655649465 105.27499134158121 l -45.257304534130256 11.74474787177544 a67.75641898463334,67.75641898463334 0 0,0 -0.28324985574925265,-1.131442373335093 l 45.45276570417457 -10.963977659042955" fill="red" stroke="none" /><path d="M 79.58551787078972 104.9243191809786 l -37.471554291439965 9.038774158977743 a59.546294495234385,59.546294495234385 0 0,0 -0.231775257760617,-0.9984817443106708 l 37.621590115131134 -8.392423757318499" fill="red" stroke="none" /><path d="M 79.50377843672027 104.57218783832718 l -17.296469409419476 3.858404186136796 a38.72160085586462,38.72160085586462 0 0,0 -0.13951938813750067,-0.6517881329824471 l 17.36032283628142 -3.5601022337381854" fill="red" stroke="none" /><path d="M 79.4281124754447 104.21870165774334 l -7.166747822695688 1.469693574988976 a28.315891849834664,28.315891849834664 0 0,0 -0.09380659494508464,-0.478317806645582 l 7.190984350616439 -1.346112041275439" fill="red" stroke="none" /><path d="M 79.35854240842038 103.8639653848113 l -14.26486259092598 2.6703024738385 a35.51264345458082,35.51264345458082 0 0,0 -0.10730493186347984,-0.6018230436848659 l 14.308713965128648 -2.4243606794204204" fill="red" stroke="none" /><path d="M 79.29508885075956 103.50808413554451 l -55.74471442398106 9.444964380752785 a77.53919470920054,77.53919470920054 0 0,0 -0.2116386004271267,-1.3178737668845595 l 55.899034778769476 -8.484011384175012" fill="red" stroke="none" /><path d="M 79.23777060512086 103.15116336523772 l -22.721939920820617 3.4485961648840187 a43.98215327757246,43.98215327757246 0 0,0 -0.10716136241811404,-0.7494863191633986 l 22.777935334255332 -3.0569643737402195" fill="red" stroke="none" /><path d="M 79.18660465613746 102.79330883721812 l -9.487348286078563 1.2732710531577978 a30.57240809181093,30.57240809181093 0 0,0 -0.06551010584861618,-0.5221799995815498 l 9.507859901174026 -1.1097732992888392" fill="red" stroke="none" /><path d="M 79.10278846688536 102.07522291339032 l -24.668681954071957 2.449753353604406 a45.790021396615444,45.790021396615444 0 0,0 -0.07113894926409225,-0.7850123772162351 l 24.707195499613125 -2.024759587839605" fill="red" stroke="none" /><path d="M 79.07016306316243 101.71520430193888 l -20.12747902405113 1.6494509113195868 a41.19495234390196,41.19495234390196 0 0,0 -0.051833924123075935,-0.7072327124148758 l 20.15288950683854 -1.3027450624079502" fill="red" stroke="none" /><path d="M 79.04373962182676 101.35467743843564 l -16.593260178840147 1.0726396212264833 a37.62789340595215,37.62789340595215 0 0,0 -0.036218906388060905,-0.6467129040439721 l 16.609265436115738 -0.7868550008470735" fill="red" stroke="none" /><path d="M 79.0235259727143 100.99374915477108 l -38.36744395974991 1.8176369849447862 a59.41047461583349,59.41047461583349 0 0,0 -0.0396009490914067,-1.0219245331874494 l 38.39304704169252 -1.15693520474334" fill="red" stroke="none" /><path d="M 79.0095281055655 100.63252640178507 l -23.540277321019673 0.7093621804107866 a44.550962847695004,44.550962847695004 0 0,0 -0.016500695064377784,-0.7667224614053608 l 23.54900007876906 -0.3040499032152968" fill="red" stroke="none" /><line stroke="#006cb8" stroke-width="0.3" x1="15.007084014347285" x2="10.007500721073583" y1="101.09737516637583" y2="101.16192664675087" /><path d="M 14.007167355692545 101.11028546245083 a86.0,86.0 0 0,1 10.666146001902534,-42.60595125391555" fill="none" id="id10" stroke="none" /><text fill="#006cb8" style="font-size:6.75px; font-family:Arial;" text-anchor="middle"><textPath startOffset="22.20632615414155" xlink:href="#id10">十月</textPath></text><path d="M 79.00175016825051 100.2711162175752 l -33.741109152261686 0.4356440162132855 a54.74392141606692,54.74392141606692 0 0,0 -0.0040554889014385405,-0.9423527960890962 l 33.743608938452624 0.14521825807948602" fill="red" stroke="none" /><path d="M 79.00019446554 99.90962569577889 l -17.38035840601687 -0.07479773064945502 a38.380519354211245,38.380519354211245 0 0,0 0.00852960050688021,-0.6606269592074131 l 17.376495798392277 0.37396094791734" fill="red" stroke="none" /><path d="M 79.00486145842228 99.54816195383935 l -21.975605930190266 -0.4729387628011987 a42.98069441742852,42.98069441742852 0 0,0 0.022285092063119634,-0.739533713210515 l 21.9642091436715 0.8511426234367081" fill="red" stroke="none" /><path d="M 79.01574976396665 99.18683210126434 l -46.37678490212234 -1.7971627437141604 a67.41159307527718,67.41159307527718 0 0,0 0.05491281527379288,-1.1591227402062791 l 46.33897847861505 2.5951965905434484" fill="red" stroke="none" /><path d="M 79.03285615573316 98.82574320788736 l -60.841830746697696 -3.407423229865091 a81.9371717564676,81.9371717564676 0 0,0 0.09098697238717682,-1.4075281910423723 l 60.77416318330611 4.454210485160475" fill="red" stroke="none" /><path d="M 79.05617556472873 98.46500227214037 l -14.618444533858208 -1.0714031343064867 a35.65765415288854,35.65765415288854 0 0,0 0.050133840221423226,-0.6117598350620955 l 14.597836209817286 1.3228768865763607" fill="red" stroke="none" /><path d="M 79.16333360222342 97.38593545837743 l -22.00833202271802 -2.761055884015234 a43.18085002917721,43.18085002917721 0 0,0 0.09887181111840436,-0.7367098352148053 l 21.95754421254178 3.139484061294699" fill="red" stroke="none" /><path d="M 79.21141760316559 97.0276538004421 l -55.40218537972416 -7.921390310178215 a76.96561952927446,76.96561952927446 0 0,0 0.19880625082171838,-1.3098847969073917 l 55.25762323546314 8.873874219477699" fill="red" stroke="none" /><path d="M 79.26566170972629 96.67025291283419 l -12.905354367988236 -2.0724831202261695 a34.07070608830967,34.07070608830967 0 0,0 0.09797459606498214,-0.5782516119994291 l 12.867767910403032 2.2943205205414263" fill="red" stroke="none" /><path d="M 79.3925641242962 95.95851677861259 l -42.770818005525285 -8.3881150656955 a64.58558646177786,64.58558646177786 0 0,0 0.2233452744093954,-1.0891108774799487 l 42.6200934352009 9.123101599338852" fill="red" stroke="none" /><path d="M 79.46518482838121 95.60439243477599 l -17.670885492947203 -3.7825652341083473 a39.07119237502432,39.07119237502432 0 0,0 0.14643438792560018,-0.6564366481724646 l 17.603156718019566 4.086180051830771" fill="red" stroke="none" /><path d="M 79.62865764111835 94.90015583598534 l -17.875942076736987 -4.475135573801031 a39.42759190818907,39.42759190818907 0 0,0 0.17048428432305504,-0.6569454924131453 l 17.796261460543626 4.782177491763041" fill="red" stroke="none" /><path d="M 79.71946130924805 94.55025226153421 l -56.661047918681795 -15.225848901870988 a79.67112429488428,79.67112429488428 0 0,0 0.3672961350284105,-1.321359620752984 l 56.39056501308702 16.198919826042914" fill="red" stroke="none" /><path d="M 79.81627453868168 94.20196356495316 l -12.730155574465012 -3.6569019919547547 a34.244991246839135,34.244991246839135 0 0,0 0.16762776922077507,-0.5651575055845922 l 12.665321908132531 3.875488884285886" fill="red" stroke="none" /><path d="M 79.91906864156998 93.8553929516997 l -38.599448294885335 -11.811127572710296 a61.36607663878623,61.36607663878623 0 0,0 0.31777258652991125,-1.0074259384897832 l 38.39042022458722 12.473803677626494" fill="red" stroke="none" /><path d="M 80.02781315780177 93.51064311812611 l -12.509972832072613 -4.0647365724789415 a34.15376385917136,34.15376385917136 0 0,0 0.1864839519986868,-0.5575632803506406 l 12.438151586302153 4.2794729557519045" fill="red" stroke="none" /><path d="M 80.14247586403 93.16781622104843 l -59.572572407909995 -20.496551336854708 a84.0,84.0 0 0,0 0.4821876767607618,-1.3632094942935558 l 59.210931650339425 21.518958457574875" fill="red" stroke="none" /><path d="M 80.2630227832202 92.82701384747504 l -46.521001006113735 -16.907072058367483 a70.49800622446995,70.49800622446995 0 0,0 0.4243154526931761,-1.1369544568471164 l 46.223080964918935 17.70534965224394" fill="red" stroke="none" /><line stroke="#006cb8" stroke-width="0.3" x1="26.266209847984243" x2="21.928928074336255" y1="57.711370442889674" y2="55.22380399835377" /><path d="M 25.398753493254645 57.213857153982495 a86.0,86.0 0 0,1 29.58750427330803,-30.492523968695096" fill="none" id="id11" stroke="none" /><text fill="#006cb8" style="font-size:6.75px; font-family:Arial;" text-anchor="middle"><textPath startOffset="21.46611528233685" xlink:href="#id11">十一月</textPath></text><line stroke="#006cb8" stroke-width="0.3" x1="56.762969772571076" x2="54.21961505331055" y1="26.818313649435495" y2="22.513508569990535" /><path d="M 56.25429882871897 25.957352633546506 a86.0,86.0 0 0,1 42.265352541879196,-11.944610805530505" fill="none" id="id12" stroke="none" /><text fill="#006cb8" style="font-size:6.75px; font-family:Arial;" text-anchor="middle"><textPath startOffset="22.20632615414155" xlink:href="#id12">十二月</textPath></text></svg>