<?xml version="1.0" encoding="utf-8" ?>
<svg baseProfile="full" height="200mm" version="1.1" viewBox="0,0,200,200" width="200mm" xmlns="http://www.w3.org/2000/svg" xmlns:ev="http://www.w3.org/2001/xml-events" xmlns:xlink="http://www.w3.org/1999/xlink"><defs /><rect fill="#f5f5f5" height="200" rx="1" ry="1" width="200" x="0" y="0" /><rect fill="#f5f5f5" height="200" width="180" x="10" y="0" /><text alignment-baseline="middle" fill="#006cb8" style="dominant-baseline: central; font-size:9.0px; font-family:Arial;" text-anchor="middle" x="100.0" y="100.0">2025</text><line stroke="#006cb8" stroke-width="0.3" x1="100.0" x2="100.0" y1="15.0" y2="10.0" /><path d="M 100.0 14.0 a86.0,86.0 0 0,1 42.46469731375804,11.215312516191453" fill="none" id="id1" stroke="none" /><text fill="#006cb8" style="font-size:6.75px; font-family:Arial;" text-anchor="middle"><textPath startOffset="22.20632615414155" xlink:href="#id1">一月</textPath></text><line stroke="#006cb8" stroke-width="0.3" x1="143.23703022742887" x2="145.7803849466894" y1="26.81831364943548" y2="22.513508569990506" /><path d="M 143.74570117128098 25.957352633546492 a86.0,86.0 0 0,1 28.547481713284135,27.462654790039103" fill="none" id="id2" stroke="none" /><text fill="#006cb8" style="font-size:6.75px; font-family:Arial;" text-anchor="middle"><textPath startOffset="19.985693538727396" xlink:href="#id2">二月</textPath></text><line stroke="#006cb8" stroke-width="0.3" x1="172.23445277983987" x2="176.4835382374775" y1="55.19839476539836" y2="52.563006222186495" /><path d="M 173.08426987136738 54.67131705675599 a86.0,86.0 0 0,1 12.851231095245387,41.99856678651699" fill="none" id="id3" stroke="none" /><text fill="#006cb8" style="font-size:6.75px; font-family:Arial;" text-anchor="middle"><textPath startOffset="22.20632615414155" xlink:href="#id3">三月</textPath></text><line stroke="#006cb8" stroke-width="0.3" x1="184.98032266829074" x2="189.97916517819016" y1="98.17113171792111" y2="98.06355123074" /><path d="M 185.9800911702706 98.14961562048488 a86.0,86.0 0 0,1 -9.607161424134198,41.387399972396054" fill="none" id="id4" stroke="none" /><text fill="#006cb8" style="font-size:6.75px; font-family:Arial;" text-anchor="middle"><textPath startOffset="21.466115282336823" xlink:href="#id4">四月</textPath></text><line stroke="#006cb8" stroke-width="0.3" x1="174.80103733775053" x2="179.2010983576182" y1="140.37084112569926" y2="142.7455964860345" /><path d="M 175.68104954172406 140.8457921977663 a86.0,86.0 0 0,1 -30.038265399797805,32.042727171017184" fill="none" id="id5" stroke="none" /><text fill="#006cb8" style="font-size:6.75px; font-family:Arial;" text-anchor="middle"><textPath startOffset="22.206326154141568" xlink:href="#id5">五月</textPath></text><line stroke="#006cb8" stroke-width="0.3" x1="143.8653032363475" x2="146.44561519142675" y1="172.8068346515853" y2="177.08958963109032" /><path d="M 144.38136562736335 173.6633856474863 a86.0,86.0 0 0,1 -40.68145358897372,12.25698825130547" fill="none" id="id6" stroke="none" /><text fill="#006cb8" style="font-size:6.75px; font-family:Arial;" text-anchor="middle"><textPath startOffset="21.466115282336833" xlink:href="#id6">六月</textPath></text><line stroke="#006cb8" stroke-width="0.3" x1="102.19456741930631" x2="102.32365962044197" y1="184.97166512339345" y2="189.96999836594603" /><path d="M 102.22038585953345 185.97133177190398 a86.0,86.0 0 0,1 -42.740103519485714,-10.115201625700543" fill="none" id="id7" stroke="none" /><text fill="#006cb8" style="font-size:6.75px; font-family:Arial;" text-anchor="middle"><textPath startOffset="22.20632615414155" xlink:href="#id7">七月</textPath></text><line stroke="#006cb8" stroke-width="0.3" x1="58.666819895761336" x2="56.23545636021788" y1="174.27360380694188" y2="178.64263932499728" /><path d="M 58.180547188652646 175.14741091055294 a86.0,86.0 0 0,1 -31.652253787137756,-30.449443065178592" fill="none" id="id8" stroke="none" /><text fill="#006cb8" style="font-size:6.75px; font-family:Arial;" text-anchor="middle"><textPath startOffset="22.20632615414155" xlink:href="#id8">八月</textPath></text><line stroke="#006cb8" stroke-width="0.3" x1="26.63291911575756" x2="22.317208475507996" y1="142.92168965132927" y2="145.44649492493687" /><path d="M 25.769776987707644 143.4266507060508 a86.0,86.0 0 0,1 -11.730757126820373,-40.83630448921669" fill="none" id="id9" stroke="none" /><text fill="#006cb8" style="font-size:6.75px; font-family:Arial;" text-anchor="middle"><textPath startOffset="21.46611528233685" xlink:href="#id9">九月</textPath></text><path d="M 80.20201598880116 107.00284435728193 l -34.70764412137875 12.276615116592815 a57.814886108437605,57.814886108437605 0 0,0 -0.32378860544405863,-0.9410812495070184 l 34.91382355776604 -11.6773611639965" fill="red" stroke="none" /><path d="M 80.0844068197444 106.66101706037122 l -16.36707181109232 5.474170092512789 a38.258261148540264,38.258261148540264 0 0,0 -0.20351163013980558,-0.6263443937049814 l 16.458875692248377 -5.191626798830005" fill="red" stroke="none" /><path d="M 79.97269907076064 106.31721596034903 l -11.483946912905727 3.6223839139548177 a33.04170676932949,33.04170676932949 0 0,0 -0.1664251412808581,-0.5438869910000771 l 11.544598826692715 -3.4241699504026926" fill="red" stroke="none" /><path d="M 79.76711848015287 105.62410040840567 l -29.451226778053282 8.186508500433757 a51.567853705486044,51.567853705486044 0 0,0 -0.2303656930970275,-0.85727644215536 l 29.587780547492084 -7.678341125102858" fill="red" stroke="none" /><path d="M 79.67330655649465 105.27499134158121 l -42.654164280666144 11.069205519739224 a65.06705165222971,65.06705165222971 0 0,0 -0.27200718796403744,-1.0865335041394713 l 42.83838278292524 -10.333344176202361" fill="red" stroke="none" /><path d="M 79.58551787078972 104.9243191809786 l -35.31624008658378 8.518875833228762 a57.329162656400385,57.329162656400385 0 0,0 -0.2231453957718723,-0.9613045247276307 l 35.45764604828621 -7.909702651152556" fill="red" stroke="none" /><path d="M 79.50377843672027 104.57218783832718 l -16.301599382891155 3.6364738843997007 a37.702277831248,37.702277831248 0 0,0 -0.1358466235418851,-0.6346301995180236 l 16.36178004515748 -3.3553298654655133" fill="red" stroke="none" /><path d="M 79.4281124754447 104.21870165774334 l -6.754525973963706 1.385158745867056 a27.895091434071222,27.895091434071222 0 0,0 -0.09241254193896417,-0.4712095604010021 l 6.777368448878337 -1.268685458398099" fill="red" stroke="none" /><path d="M 79.35854240842038 103.8639653848113 l -13.44436657591099 2.5167102100011425 a34.677895412255374,34.677895412255374 0 0,0 -0.10478265886176807,-0.5876767972026857 l 13.485695677111948 -2.284914662065243" fill="red" stroke="none" /><path d="M 79.29508885075956 103.50808413554451 l -52.53835223496707 8.901702531087597 a74.28713506576837,74.28713506576837 0 0,0 -0.20276229788074676,-1.2626010224551583 l 52.683796287209105 -7.9960222789392255" fill="red" stroke="none" /><path d="M 79.23777060512086 103.15116336523772 l -21.415004011721674 3.2502374781005074 a42.66025024061598,42.66025024061598 0 0,0 -0.10394058035383223,-0.7269601769073158 l 21.467778643092107 -2.8811318292127908" fill="red" stroke="none" /><path d="M 79.18660465613746 102.79330883721812 l -8.941648570279094 1.2000341875034122 a30.021815848572345,30.021815848572345 0 0,0 -0.06433030489784815,-0.5127758251874188 l 8.96098038442379 -1.0459406080285847" fill="red" stroke="none" /><path d="M 79.10278846688536 102.07522291339032 l -23.249772019961313 2.308846783240342 a44.36413217837665,44.36413217837665 0 0,0 -0.06892370110174911,-0.7605672983384303 l 23.286070317340137 -1.9082980963533456" fill="red" stroke="none" /><path d="M 79.07016306316243 101.71520430193888 l -18.969773071661745 1.554576678141803 a40.03336541546359,40.03336541546359 0 0,0 -0.050372346786891835,-0.6872906508912451 l 18.993721977112973 -1.2278128907537973" fill="red" stroke="none" /><path d="M 79.04373962182676 101.35467743843564 l -15.63883781647504 1.010942809977607 a36.67147898620469,36.67147898620469 0 0,0 -0.03529830517439995,-0.6302749509491393 l 15.653922472536971 -0.7415961426930302" fill="red" stroke="none" /><path d="M 79.0235259727143 100.99374915477108 l -36.160599366987356 1.7130889114260317 a57.20115495668912,57.20115495668912 0 0,0 -0.03812829370674322,-0.9839218413063909 l 36.1847297935453 -1.090389823105644" fill="red" stroke="none" /><path d="M 79.0095281055655 100.63252640178507 l -22.1862717278266 0.6685606067174213 a43.19634263715111,43.19634263715111 0 0,0 -0.01599897358422386,-0.7434094356993093 l 22.194492764095834 -0.28656135522798315" fill="red" stroke="none" /><line stroke="#006cb8" stroke-width="0.3" x1="15.007084014347285" x2="10.007500721073583" y1="101.09737516637583" y2="101.16192664675087" /><path d="M 14.007167355692545 101.11028546245083 a86.0,86.0 0 0,1 10.666146001902534,-42.60595125391555" fill="none" id="id10" stroke="none" /><text fill="#006cb8" style="font-size:6.75px; font-family:Arial;" text-anchor="middle"><textPath startOffset="22.20632615414155" xlink:href="#id10">十月</textPath></text><path d="M 79.00175016825051 100.2711162175752 l -31.80036521413031 0.4105863490265367 a52.80301572024383,52.80301572024383 0 0,0 -0.0039117045084951585,-0.9089423669109749 l 31.802721215928308 0.13686549608811358" fill="red" stroke="none" /><path d="M 79.00019446554 99.90962569577889 l -16.380663195441173 -0.07049546418604853 a37.38081488610844,37.38081488610844 0 0,0 0.008307428428926698,-0.6434194869276937 l 16.37702275989453 0.35245120917421424" fill="red" stroke="none" /><path d="M 79.00486145842228 99.54816195383935 l -20.711598164371992 -0.44573595115467474 a41.716393968559515,41.716393968559515 0 0,0 0.02162956398754102,-0.7177799277438315 l 20.700856905928806 0.8021860263235007" fill="red" stroke="none" /><path d="M 79.01574976396665 99.18683210126434 l -43.70925361965462 -1.6937923214509374 a64.74205967276228,64.74205967276228 0 0,0 0.05273823983487951,-1.1132208896278497 l 43.673621771586234 2.445924317701796" fill="red" stroke="none" /><path d="M 79.03285615573316 98.82574320788736 l -57.34228917343103 -3.21143275580667 a78.43214629451396,78.43214629451396 0 0,0 0.08709482370683191,-1.3473183736632208 l 57.27851375871978 4.198010193722903" fill="red" stroke="none" /><path d="M 79.05617556472873 98.46500227214037 l -13.77761095349284 -1.0097774441486136 a34.81456528713507,34.81456528713507 0 0,0 0.048948476700118176,-0.5972953976864738 l 13.758187992973225 1.2467867590428658" fill="red" stroke="none" /><path d="M 79.16333360222342 97.38593545837743 l -20.742441895374366 -2.602243604147269 a41.90503689444979,41.90503689444979 0 0,0 0.09595056350067765,-0.7149431473516709 l 20.694575332815855 2.9589050935635997" fill="red" stroke="none" /><path d="M 79.21141760316559 97.0276538004421 l -52.21552500795854 -7.465762424423887 a73.74655117099775,73.74655117099775 0 0,0 0.19049122762874066,-1.2550991831684095 l 52.0792778868905 8.363460719984388" fill="red" stroke="none" /><path d="M 79.26566170972629 96.67025291283419 l -12.16305546648839 -1.953276634324715 a33.31889637471929,33.31889637471929 0 0,0 0.09581267277475654,-0.5654918183610568 l 12.12763093219341 2.1623542410015997" fill="red" stroke="none" /><path d="M 79.3925641242962 95.95851677861259 l -40.31069716603062 -7.905641789768655 a62.078601219120955,62.078601219120955 0 0,0 0.21467579662594477,-1.0468354249054768 l 40.168642073489686 8.598352870837534" fill="red" stroke="none" /><path d="M 79.46518482838121 95.60439243477599 l -16.654479548877873 -3.5649970885102005 a38.03176130895092,38.03176130895092 0 0,0 0.14253871843872246,-0.6389731257268144 l 16.590646443437112 3.8511483837869744" fill="red" stroke="none" /><path d="M 79.62865764111835 94.90015583598534 l -16.847741549384452 -4.217731698961658 a38.367661212704526,38.367661212704526 0 0,0 0.16590116074623346,-0.6392848476978823 l 16.772644056767913 4.507112972208404" fill="red" stroke="none" /><path d="M 79.71946130924805 94.55025226153421 l -53.40197943992724 -14.350078226228288 a76.29643888354188,76.29643888354188 0 0,0 0.35173831631437974,-1.2653898691678624 l 53.1470543530465 15.267179398815092" fill="red" stroke="none" /><path d="M 79.81627453868168 94.20196356495316 l -11.997933875672516 -3.446561829715276 a33.48315688161694,33.48315688161694 0 0,0 0.1638986225482757,-0.552584676863039 l 11.936829356012533 3.652575893324854" fill="red" stroke="none" /><path d="M 79.91906864156998 93.8553929516997 l -36.37925911985067 -11.131767148137609 a59.04427333974976,59.04427333974976 0 0,0 0.30574956859947744,-0.969309686064382 l 36.182254067482994 11.756327000628406" fill="red" stroke="none" /><path d="M 80.02781315780177 93.51064311812611 l -11.790415753184899 -3.830938304984508 a33.3971767725377,33.3971767725377 0 0,0 0.18235288900579413,-0.545211927813514 l 11.722725570407333 4.033323335720344" fill="red" stroke="none" /><path d="M 80.14247586403 93.16781622104843 l -56.14603689427844 -19.317616833543255 a80.37632338787296,80.37632338787296 0 0,0 0.4613865790591684,-1.3044019899852095 l 55.80519723440946 20.281216449955075" fill="red" stroke="none" /><path d="M 80.2630227832202 92.82701384747504 l -43.84517460423131 -15.934599652058708 a67.65094642284248,67.65094642284248 0 0,0 0.40717948625569145,-1.0910385862611613 l 43.56439052947399 16.68696137534921" fill="red" stroke="none" /><path d="M 80.52162464483688 92.15188598940014 l -22.232730768448036 -8.957882916631483 a44.96952197625923,44.96952197625923 0 0,0 0.29546756113420086,-0.7154981355631844 l 22.075241520427635 9.339255622647979" fill="red" stroke="none" /><path d="M 80.803312248108 91.48605970444005 l -57.59006325567602 -25.54182088667983 a84.0,84.0 0 0,0 0.5975907321465934,-1.3167119646317162 l 57.141870206566075 26.529354860153617" fill="red" stroke="none" /><line stroke="#006cb8" stroke-width="0.3" x1="26.266209847984243" x2="21.928928074336255" y1="57.711370442889674" y2="55.22380399835377" /><path d="M 25.398753493254645 57.213857153982495 a86.0,86.0 0 0,1 29.58750427330803,-30.492523968695096" fill="none" id="id11" stroke="none" /><text fill="#006cb8" style="font-size:6.75px; font-family:Arial;" text-anchor="middle"><textPath startOffset="21.46611528233685" xlink:href="#id11">十一月</textPath></text><line stroke="#006cb8" stroke-width="0.3" x1="56.762969772571076" x2="54.21961505331055" y1="26.818313649435495" y2="22.513508569990535" /><path d="M 56.25429882871897 25.957352633546506 a86.0,86.0 0 0,1 42.265352541879196,-11.944610805530505" fill="none" id="id12" stroke="none" /><text fill="#006cb8" style="font-size:6.75px; font-family:Arial;" text-anchor="middle"><textPath startOffset="22.20632615414155" xlink:href="#id12">十二月</textPath></text></svg>