<?xml version="1.0" encoding="utf-8" ?>
<svg baseProfile="full" height="200mm" version="1.1" viewBox="0,0,200,200" width="200mm" xmlns="http://www.w3.org/2000/svg" xmlns:ev="http://www.w3.org/2001/xml-events" xmlns:xlink="http://www.w3.org/1999/xlink"><defs /><rect fill="#f5f5f5" height="200" width="200" x="0" y="0" /><text alignment-baseline="middle" fill="#006cb8" style="dominant-baseline: central; font-size:9.0px; font-family:Arial;" text-anchor="middle" x="100.0" y="100.0">2015</text><line stroke="#006cb8" stroke-width="0.3" x1="100.0" x2="100.0" y1="15.0" y2="10.0" /><path d="M 100.0 14.0 a86.0,86.0 0 0,1 42.46469731375804,11.215312516191453" fill="none" id="id13" stroke="none" /><text fill="#006cb8" style="font-size:6.75px; font-family:Arial;" text-anchor="middle"><textPath startOffset="22.20632615414155" xlink:href="#id13">January</textPath></text><line stroke="#006cb8" stroke-width="0.3" x1="143.23703022742887" x2="145.7803849466894" y1="26.81831364943548" y2="22.513508569990506" /><path d="M 143.74570117128098 25.957352633546492 a86.0,86.0 0 0,1 28.547481713284135,27.462654790039103" fill="none" id="id14" stroke="none" /><text fill="#006cb8" style="font-size:6.75px; font-family:Arial;" text-anchor="middle"><textPath startOffset="19.985693538727396" xlink:href="#id14">February</textPath></text><line stroke="#006cb8" stroke-width="0.3" x1="172.23445277983987" x2="176.4835382374775" y1="55.19839476539836" y2="52.563006222186495" /><path d="M 173.08426987136738 54.67131705675599 a86.0,86.0 0 0,1 12.851231095245387,41.99856678651699" fill="none" id="id15" stroke="none" /><text fill="#006cb8" style="font-size:6.75px; font-family:Arial;" text-anchor="middle"><textPath startOffset="22.20632615414155" xlink:href="#id15">March</textPath></text><line stroke="#006cb8" stroke-width="0.3" x1="184.98032266829074" x2="189.97916517819016" y1="98.17113171792111" y2="98.06355123074" /><path d="M 185.9800911702706 98.14961562048488 a86.0,86.0 0 0,1 -9.607161424134198,41.387399972396054" fill="none" id="id16" stroke="none" /><text fill="#006cb8" style="font-size:6.75px; font-family:Arial;" text-anchor="middle"><textPath startOffset="21.466115282336823" xlink:href="#id16">April</textPath></text><line stroke="#006cb8" stroke-width="0.3" x1="174.80103733775053" x2="179.2010983576182" y1="140.37084112569926" y2="142.7455964860345" /><path d="M 175.68104954172406 140.8457921977663 a86.0,86.0 0 0,1 -30.038265399797805,32.042727171017184" fill="none" id="id17" stroke="none" /><text fill="#006cb8" style="font-size:6.75px; font-family:Arial;" text-anchor="middle"><textPath startOffset="22.206326154141568" xlink:href="#id17">May</textPath></text><line stroke="#006cb8" stroke-width="0.3" x1="143.8653032363475" x2="146.44561519142675" y1="172.8068346515853" y2="177.08958963109032" /><path d="M 144.38136562736335 173.6633856474863 a86.0,86.0 0 0,1 -40.68145358897372,12.25698825130547" fill="none" id="id18" stroke="none" /><text fill="#006cb8" style="font-size:6.75px; font-family:Arial;" text-anchor="middle"><textPath startOffset="21.466115282336833" xlink:href="#id18">June</textPath></text><line stroke="#006cb8" stroke-width="0.3" x1="102.19456741930631" x2="102.32365962044197" y1="184.97166512339345" y2="189.96999836594603" /><path d="M 102.22038585953345 185.97133177190398 a86.0,86.0 0 0,1 -42.740103519485714,-10.115201625700543" fill="none" id="id19" stroke="none" /><text fill="#006cb8" style="font-size:6.75px; font-family:Arial;" text-anchor="middle"><textPath startOffset="22.20632615414155" xlink:href="#id19">July</textPath></text><path d="M 93.42475214034765 119.94407469862007 l -13.676515548076893 41.48367537312975 a64.68,64.68 0 0,0 -1.0543772225533445,-0.3577020003537811 l 14.388562503567464 -41.242110385877844" fill="red" stroke="none" /><path d="M 92.7421414339146 119.70592522655815 l -16.402760359353003 44.53539101202142 a68.46000000000001,68.46000000000001 0 0,0 -1.1023030803214777,-0.4167967046523758 l 17.166933660434765 -44.24644605726241" fill="red" stroke="none" /><path d="M 92.06813273071674 119.44442032107085 l -18.296173834480047 44.85179620727009 a69.44,69.44 0 0,0 -1.1028677072617248,-0.460998791080622 l 19.065513001239236 -44.53021237316949" fill="red" stroke="none" /><path d="M 91.40352486487194 119.15986991738527 l -21.03270916394663 46.877815064535966 a72.38,72.38 0 0,0 -1.1323403079216277,-0.5198018975818903 l 21.83651746763568 -46.50882609662" fill="red" stroke="none" /><path d="M 90.7491055286396 118.85261126421891 l -23.312254067828185 47.50858038583166 a73.92,73.92 0 0,0 -1.137474244956683,-0.5703531999992566 l 24.12658222046763 -47.100259344923096" fill="red" stroke="none" /><line stroke="#006cb8" stroke-width="0.3" x1="58.666819895761336" x2="56.23545636021788" y1="174.27360380694188" y2="178.64263932499728" /><path d="M 58.180547188652646 175.14741091055294 a86.0,86.0 0 0,1 -31.652253787137756,-30.449443065178592" fill="none" id="id20" stroke="none" /><text fill="#006cb8" style="font-size:6.75px; font-family:Arial;" text-anchor="middle"><textPath startOffset="22.20632615414155" xlink:href="#id20">August</textPath></text><path d="M 89.7882731507175 118.34994917583269 l -26.005864376172745 46.73120390112059 a74.47999999999999,74.47999999999999 0 0,0 -1.114899039986118,-0.6330687719817011 l 26.806412183080074 -46.27663196334425" fill="red" stroke="none" /><path d="M 89.1626897886671 117.98757091392108 l -26.732031854621162 44.36934158767199 a72.8,72.8 0 0,0 -1.067805440234663,-0.6559333149949558 l 27.491816494788136 -43.90261980584866" fill="red" stroke="none" /><path d="M 87.95078237400918 117.19931262002967 l -31.006653357549705 44.25956447554304 a75.03999999999999,75.03999999999999 0 0,0 -1.051534348486644,-0.7502418376766564 l 31.763915033885237 -43.71927837602216" fill="red" stroke="none" /><path d="M 87.36589467227662 116.77436683061367 l -35.459722286476925 47.08005623792235 a79.94,79.94 0 0,0 -1.092023306868127,-0.8373169054438238 l 36.26487432183853 -46.46269999065116" fill="red" stroke="none" /><path d="M 86.51685102203217 116.09983520530335 l -36.1348392609538 43.14755835021296 a77.28,77.28 0 0,0 -1.0124950461964317,-0.8628702439795385 l 36.87219978372729 -42.519163716010475" fill="red" stroke="none" /><path d="M 85.97065885151581 115.62618273729859 l -35.63452651714985 39.690504152738406 a74.34,74.34 0 0,0 -0.9448275948873347,-0.8630776062835211 l 36.31245366150404 -39.07123377986831" fill="red" stroke="none" /><path d="M 85.18274418774928 114.88116024355367 l -39.61146387141694 39.782301717766785 a77.14,77.14 0 0,0 -0.9328774372960078,-0.9449999187776918 l 40.29038193376848 -39.094561305008426" fill="red" stroke="none" /><path d="M 84.67929136418377 114.36230785411682 l -41.05949914398751 38.49098504903309 a77.28,77.28 0 0,0 -0.9014292185757173,-0.9783233823310536 l 41.71597477055896 -37.7785104119007" fill="red" stroke="none" /><path d="M 83.95833913139862 113.55231037782056 l -45.558316866827944 38.4885614730104 a80.64,80.64 0 0,0 -0.8866713604088203,-1.0680527726831572 l 46.2140842271303 -37.69864744321348" fill="red" stroke="none" /><path d="M 83.50135304334701 112.99209946851258 l -44.6563377626741 35.16528256144073 a77.84,77.84 0 0,0 -0.819889397511693,-1.0598175684868767 l 45.25503397740386 -34.3913869988406" fill="red" stroke="none" /><path d="M 83.06392112726016 112.41649034213515 l -45.8403201488825 33.6073005260458 a77.84,77.84 0 0,0 -0.7829229029277484,-1.0874114357944478 l 46.412022844185856 -32.81325548480021" fill="red" stroke="none" /><path d="M 82.24976979558568 111.22182372390057 l -48.398961024036375 30.59817268716887 a78.25999999999999,78.25999999999999 0 0,0 -0.710061776170751,-1.144845671778782 l 48.91848743987508 -29.760530684024822" fill="red" stroke="none" /><line stroke="#006cb8" stroke-width="0.3" x1="26.63291911575756" x2="22.317208475507996" y1="142.92168965132927" y2="145.44649492493687" /><path d="M 25.769776987707644 143.4266507060508 a86.0,86.0 0 0,1 -11.730757126820373,-40.83630448921669" fill="none" id="id21" stroke="none" /><text fill="#006cb8" style="font-size:6.75px; font-family:Arial;" text-anchor="middle"><textPath startOffset="21.46611528233685" xlink:href="#id21">September</textPath></text><path d="M 80.45479744820244 107.68017299344265 l -51.99023878778153 20.42926016255746 a76.86,76.86 0 0,0 -0.4732589366877567,-1.2355297453906422 l 52.33419200406279 -19.531306850333657" fill="red" stroke="none" /><line stroke="#006cb8" stroke-width="0.3" x1="15.007084014347285" x2="10.007500721073583" y1="101.09737516637583" y2="101.16192664675087" /><path d="M 14.007167355692545 101.11028546245083 a86.0,86.0 0 0,1 10.666146001902534,-42.60595125391555" fill="none" id="id22" stroke="none" /><text fill="#006cb8" style="font-size:6.75px; font-family:Arial;" text-anchor="middle"><textPath startOffset="22.20632615414155" xlink:href="#id22">October</textPath></text><path d="M 79.26566170972629 96.67025291283419 l -55.98271338373904 -8.99031713534769 a77.7,77.7 0 0,0 0.22343611237517483,-1.3187325832314365 l 55.81966540984364 9.952635506894955" fill="red" stroke="none" /><path d="M 79.3925641242962 95.95851677861259 l -55.77745977023829 -10.938947919221924 a77.84,77.84 0 0,0 0.26918074314175344,-1.3126209011543215 l 55.58089973118154 11.897444476539649" fill="red" stroke="none" /><path d="M 79.54389044137918 95.25157060432595 l -55.50424393572452 -12.88407176026225 a77.97999999999999,77.97999999999999 0 0,0 0.3147688683648411,-1.304920173104773 l 55.27424226709886 13.83757716502642" fill="red" stroke="none" /><path d="M 80.02781315780177 93.51064311812611 l -59.517116789750716 -19.338283507984197 a83.58,83.58 0 0,0 0.4563575707883459,-1.3644510503691578 l 59.1754219251906 20.359907661275678" fill="red" stroke="none" /><path d="M 80.2630227832202 92.82701384747504 l -56.57933468810212 -20.56256030390488 a81.2,81.2 0 0,0 0.48872892446037336,-1.3095505368198799 l 56.21700117514012 21.533433977754104" fill="red" stroke="none" /><path d="M 80.65960295795068 91.81776055985345 l -57.50544720502666 -24.328525268702386 a83.44,83.44 0 0,0 0.5710049128917485,-1.3179580655092455 l 57.078151582292236 25.31478247879823" fill="red" stroke="none" /><path d="M 80.95270993114464 91.15688171328213 l -54.6022315307187 -25.35027242192457 a81.2,81.2 0 0,0 0.5994949838118941,-1.2626893261899421 l 54.157778353065055 26.286404163755044" fill="red" stroke="none" /><path d="M 81.26839172434947 90.50648371742162 l -53.82215444536917 -27.27803678527521 a81.34,81.34 0 0,0 0.6437114622264917,-1.2434456557783005 l 53.34463354998257 28.200455163313844" fill="red" stroke="none" /><line stroke="#006cb8" stroke-width="0.3" x1="26.266209847984243" x2="21.928928074336255" y1="57.711370442889674" y2="55.22380399835377" /><path d="M 25.398753493254645 57.213857153982495 a86.0,86.0 0 0,1 29.58750427330803,-30.492523968695096" fill="none" id="id23" stroke="none" /><text fill="#006cb8" style="font-size:6.75px; font-family:Arial;" text-anchor="middle"><textPath startOffset="21.46611528233685" xlink:href="#id23">November</textPath></text><path d="M 81.78341655067845 89.55222093294921 l -54.64975034796462 -31.34333720115236 a84.0,84.0 0 0,0 0.7301613021187001,-1.2480823505844327 l 54.1021293713756 32.27939896409068" fill="red" stroke="none" /><path d="M 82.15384107792192 88.93136811851018 l -53.06257919497883 -32.91073212762973 a83.44,83.44 0 0,0 0.7675383509160416,-1.214061346415517 l 52.48821324781682 33.81924112175946" fill="red" stroke="none" /><path d="M 82.7489923806493 88.02491185347247 l -51.177989270740426 -35.52609483469831 a83.3,83.3 0 0,0 0.8277932747779496,-1.1708548820172482 l 50.5588833761586 36.40177621704735" fill="red" stroke="none" /><line stroke="#006cb8" stroke-width="0.3" x1="56.762969772571076" x2="54.21961505331055" y1="26.818313649435495" y2="22.513508569990535" /><path d="M 56.25429882871897 25.957352633546506 a86.0,86.0 0 0,1 42.265352541879196,-11.944610805530505" fill="none" id="id24" stroke="none" /><text fill="#006cb8" style="font-size:6.75px; font-family:Arial;" text-anchor="middle"><textPath startOffset="22.20632615414155" xlink:href="#id24">December</textPath></text></svg>