<?xml version="1.0" encoding="utf-8" ?>
<svg baseProfile="full" height="200mm" version="1.1" viewBox="0,0,200,200" width="200mm" xmlns="http://www.w3.org/2000/svg" xmlns:ev="http://www.w3.org/2001/xml-events" xmlns:xlink="http://www.w3.org/1999/xlink"><defs /><rect fill="#1a1a1a" height="200" width="200" x="0" y="0" /><text alignment-baseline="middle" fill="#e1ed5e" style="dominant-baseline: central; font-size:9.0px; font-family:Arial;" text-anchor="middle" x="100.0" y="100.0">2024</text><line stroke="#e1ed5e" stroke-width="0.3" x1="100.0" x2="100.0" y1="15.0" y2="10.0" /><path d="M 100.0 14.0 a86.0,86.0 0 0,1 42.35913384403234,11.155469271406648" fill="none" id="id121" stroke="none" /><text fill="#e1ed5e" style="font-size:6.75px; font-family:Arial;" text-anchor="middle"><textPath startOffset="22.145653131862478" xlink:href="#id121">January</textPath></text><path d="M 100.0 79.0 l 0.0 -0.8831710951894252 a21.883171095189425,21.883171095189425 0 0,0 0.3756537310987025,0.003224535482164971 l -0.015160806249847725 0.8830409579016951" fill="#ff0000" stroke="none" /><path d="M 100.72087961077811 79.0123766808444 l 0.2878401079622108 -8.380150682213436 a29.38509256862165,29.38509256862165 0 0,0 0.503988255503682,0.02164342421932284 l -0.4316541240667291 8.373974689568284" fill="#ff6a09" stroke="none" /><path d="M 101.44090949804482 79.04949213459386 l 0.5655979024516538 -8.22366936997041 a29.24309643846578,29.24309643846578 0 0,0 0.5005178832744069,0.038743249661767225 l -0.7066847805012941 8.21274835331359" fill="#ff6809" stroke="none" /><path d="M 102.15924093988457 79.11130261209362 l 0.09132533323531378 -0.8834897553879097 a21.888197311618274,21.888197311618274 0 0,0 0.3734169178776565,0.0418421445213467 l -0.10647815271376698 0.8817918503595922" fill="#ff0000" stroke="none" /><path d="M 102.51750503828377 79.15144685158666 l 0.9670765698600453 -8.00878129684194 a29.06695822182175,29.06695822182175 0 0,0 0.4948610578321463,0.0640696713998988 l -1.1044154495829832 7.991000029241643" fill="#ff6509" stroke="none" /><path d="M 103.23170211078529 79.25015418208739 l 1.2277430843810104 -7.882991325188681 a28.978026404709713,28.978026404709713 0 0,0 0.4908636147274949,0.08077142100789715 l -1.362884202161576 7.860753905685115" fill="#ff6409" stroke="none" /><path d="M 103.94208987418118 79.37332000966035 l 1.5008857952186707 -7.85326869455315 a28.995404139825435,28.995404139825435 0 0,0 0.4880941555656444,0.0976325009872042 l -1.635476436315272 7.826346796903087" fill="#ff6509" stroke="none" /><path d="M 104.64783097203109 79.52079915486377 l 0.5224186280895105 -2.3018728680682465 a23.360410965006658,23.360410965006658 0 0,0 0.3903055753830029,0.09211105304340494 l -0.5618563572123983 2.292565671378614" fill="#ff1502" stroke="none" /><path d="M 105.3480935250658 79.69241777938227 l 2.057735435547723 -7.81355661598118 a29.07997166541146,29.07997166541146 0 0,0 0.48164547645344014,0.13127461638968366 l -2.191562312935856 7.777081505447354" fill="#ff6609" stroke="none" /><path d="M 105.69591212413111 79.78721728523813 l 0.389384702302522 -1.3817889406595671 a22.435604793428997,22.435604793428997 0 0,0 0.3698028554956537,0.10764422167022242 l -0.41304757017978017 1.374901024686829" fill="#ff0801" stroke="none" /><path d="M 106.38641147887787 79.99465700312896 l 2.447199667345342 -7.665818102856451 a29.046959264090805,29.046959264090805 0 0,0 0.4737106232582555,0.1557180909535408 l -2.57843302825134 7.622679090500888" fill="#ff6509" stroke="none" /><path d="M 107.06938296918511 80.22567764915836 l 1.2174730874907995 -3.405488907653928 a24.616572330110145,24.616572330110145 0 0,0 0.3966911964571512,0.14567050208467508 l -1.2757534356020752 3.384087556560531" fill="#ff2703" stroke="none" /><path d="M 107.40779381753099 80.34994680014964 l 2.808912189816328 -7.450973302331402 a28.96285067310408,28.96285067310408 0 0,0 0.46371970255026884,0.17937674278024815 l -2.9364041548601225 7.401656671413116" fill="#ff6409" stroke="none" /><path d="M 108.73861861582097 80.90454125486305 l 3.343529081961797 -7.306214455014179 a29.034921056524603,29.034921056524603 0 0,0 0.4514394960383413,0.21129647866238832 l -3.468457291871643 7.2477417447812575" fill="#ff6509" stroke="none" /><path d="M 109.3889696526874 81.21577127319529 l 8.894246495461037 -17.794451010447204 a40.893468965598395,40.893468965598395 0 0,0 0.6252276045025819,0.3192456697820761 l -9.198401321677197 17.639147388992296" fill="#fffe18" stroke="none" /><line stroke="#e1ed5e" stroke-width="0.3" x1="143.13028292997686" x2="145.6673583964461" y1="26.7553504044142" y2="22.446841604673864" /><path d="M 143.63769802327073 25.89364864446614 a86.0,86.0 0 0,1 29.32050498858742,28.57503671076993" fill="none" id="id122" stroke="none" /><text fill="#e1ed5e" style="font-size:6.75px; font-family:Arial;" text-anchor="middle"><textPath startOffset="20.669276256404974" xlink:href="#id122">February</textPath></text><path d="M 110.96478420261332 82.08984904055464 l 7.042565526945043 -11.5035015189181 a34.4880790477023,34.4880790477023 0 0,0 0.5022710334249187,0.3134542726621664 l -7.239000689159674 11.38091144941439" fill="#ffae10" stroke="none" /><path d="M 111.27062007382361 82.28071324371311 l 1.7062733861106865 -2.6825451674424943 a24.179216482644538,24.179216482644538 0 0,0 0.3483123993699124,0.22577188908055407 l -1.7520714177376062 2.6528594366580456" fill="#ff2103" stroke="none" /><path d="M 111.8722381534696 82.67804972795209 l 4.4752482709764205 -6.529520971769517 a28.91596432582003,28.91596432582003 0 0,0 0.40703338086461033,0.2841409116489037 l -4.586676743014792 6.451735244315486" fill="#ff6309" stroke="none" /><path d="M 112.16784306229584 82.88440491214696 l 4.631915768783465 -6.515369599497534 a28.9940405745256,28.9940405745256 0 0,0 0.4031814492261498,0.2918722767729755 l -4.743078228383582 6.434896551351484" fill="#ff6409" stroke="none" /><path d="M 116.57777611688842 87.10902102172516 l 6.464838994165514 -5.027097904092182 a29.189374613351802,29.189374613351802 0 0,0 0.3041922341141161,0.3981973991572766 l -6.550183205633936 4.915379591694023" fill="#ff6709" stroke="none" /><path d="M 117.42321728460499 88.27688183743584 l 6.768013952056431 -4.553821833809447 a29.157408053377626,29.157408053377626 0 0,0 0.27585068593439,0.4176730970445127 l -6.845189076911545 4.436968858425876" fill="#ff6709" stroke="none" /><line stroke="#e1ed5e" stroke-width="0.3" x1="172.87174338648825" x2="177.1583165268699" y1="56.24261187166439" y2="53.66864786411523" /><path d="M 173.72905801456457 55.72781907015455 a86.0,86.0 0 0,1 12.242430191666344,42.057860355516425" fill="none" id="id123" stroke="none" /><text fill="#e1ed5e" style="font-size:6.75px; font-family:Arial;" text-anchor="middle"><textPath startOffset="22.145653131862474" xlink:href="#id123">March</textPath></text><path d="M 118.53625476483649 90.13048839642627 l 7.1816395354917555 -3.823818545193852 a29.136186740992777,29.136186740992777 0 0,0 0.23127463002679535,0.44349959777939274 l -7.246222234493495 3.699972704309961" fill="#ff6609" stroke="none" /><path d="M 118.8641267826498 90.77261029715802 l 7.16671819738403 -3.5056009991691965 a28.978163202522964,28.978163202522964 0 0,0 0.2147430124064475,0.4487303041227395 l -7.22584046775039 3.382058192981354" fill="#ff6409" stroke="none" /><path d="M 119.71291397450082 92.76114493625339 l 7.532731836183209 -2.7661234694542864 a29.024555312546227,29.024555312546227 0 0,0 0.16773405225146543,0.4691819969141904 l -7.579106058478617 2.6364065161591794" fill="#ff6509" stroke="none" /><path d="M 119.94978838288452 93.4421083053983 l 7.594941309701544 -2.496608063201797 a28.994759866253347,28.994759866253347 0 0,0 0.15137374947175536,0.4741761142263608 l -7.636679774950556 2.365862915284049" fill="#ff6409" stroke="none" /><path d="M 120.35273937422433 94.82641323984039 l 11.610387236772846 -2.951315033521545 a32.97962237363549,32.97962237363549 0 0,0 0.1347649033543012,0.5498867943215725 l -11.659339666643438 2.751572414591877" fill="#ff9a0e" stroke="none" /><path d="M 120.51834098615036 95.52812308129327 l 11.751943970685266 -2.5612814909312114 a33.02781567725049,33.02781567725049 0 0,0 0.11597841592911032,0.5549987048799859 l -11.794180097438744 2.359166334765821" fill="#ff9b0e" stroke="none" /><path d="M 120.65975698304385 96.23510406497455 l 7.776799711714219 -1.4171919663028996 a28.904874877281223,28.904874877281223 0 0,0 0.08476723784197596,0.48891490185565806 l -7.799981767048429 1.2834840315266487" fill="#ff6309" stroke="none" /><path d="M 120.86939407059847 97.66154086499901 l 7.830934410836161 -0.8774725345002902 a28.879942372607825,28.879942372607825 0 0,0 0.050976684239044216,0.4931531776927007 l -7.84484348755687 0.7429148345246581" fill="#ff6309" stroke="none" /><path d="M 120.93736805541906 98.37931529534042 l 7.857685759937035 -0.6082345732970605 a28.88119120425784,28.88119120425784 0 0,0 0.03401934605846065,0.49463382546987317 l -7.8669690671605625 0.4732573236728532" fill="#ff6309" stroke="none" /><path d="M 120.98066250479742 99.09900007780936 l 1.3971433692424733 -0.059999347813196914 a22.39843109088586,22.39843109088586 0 0,0 0.01319940931091623,0.3842864002684962 l -1.3979674655502377 0.03600668298058075" fill="#ff0801" stroke="none" /><line stroke="#e1ed5e" stroke-width="0.3" x1="184.99686870605535" x2="189.99668451229388" y1="99.2704041080226" y2="99.22748670261217" /><path d="M 185.99683186730306 99.26182062694052 a86.0,86.0 0 0,1 -10.086455211305974,41.156179273409016" fill="none" id="id124" stroke="none" /><text fill="#e1ed5e" style="font-size:6.75px; font-family:Arial;" text-anchor="middle"><textPath startOffset="21.40746469413373" xlink:href="#id124">April</textPath></text><path d="M 120.99922638620191 99.81974689727618 l 7.985207567358412 -0.06854340314440888 a28.985501743279045,28.985501743279045 0 0,0 0.0,0.4975930117364705 l -7.985207567358412 -0.0685434031444079" fill="#ff6409" stroke="none" /><path d="M 120.99303781780057 100.54070618675476 l 7.946292858061101 0.20466831658234544 a28.948928185981146,28.948928185981146 0 0,0 -0.017059621305111884,0.4966722606186881 l -7.9416085497591435 -0.3410468417651442" fill="#ff6409" stroke="none" /><path d="M 120.86939407059847 102.33845913500097 l 8.063943222034395 0.9035816578049222 a29.11440941168955,29.11440941168955 0 0,0 -0.05991733497882074,0.49620148671830067 l -8.047243800795911 -1.0418768214466314" fill="#ff6609" stroke="none" /><path d="M 120.77682067341334 103.0534771498775 l 7.822685726817019 1.1496654128643606 a28.9067150285111,28.9067150285111 0 0,0 -0.0763667341412435,0.49032921498549525 l -7.801797500537508 -1.2837828097813064" fill="#ff6309" stroke="none" /><path d="M 120.65975698304385 103.76489593502545 l 7.989933249353067 1.4560319967123883 a29.121518485145984,29.121518485145984 0 0,0 -0.0938457681077841,0.4910407141869099 l -7.963761188963123 -1.5929752759326128" fill="#ff6609" stroke="none" /><path d="M 120.43855184770803 104.8234425847677 l 7.784635515058096 1.8371527850901541 a28.99847988420727,28.99847988420727 0 0,0 -0.11849672791101258,0.48350708698449363 l -7.751951260630788 -1.9705156966827473" fill="#ff6509" stroke="none" /><path d="M 120.26092885502905 105.52220625578681 l 7.828559508243731 2.133708706029648 a29.114126990397676,29.114126990397676 0 0,0 -0.13556301138348872,0.4810653032452164 l -7.790778004785662 -2.267781933177873" fill="#ff6609" stroke="none" /><path d="M 119.94978838288452 106.5578916946017 l 22.907075307762163 7.530010645991046 a45.11296662553626,45.11296662553626 0 0,0 -0.24815263435089474,0.7336191696249389 l -22.774437251838904 -7.922131490090146" fill="#ceff1d" stroke="none" /><path d="M 119.4528033332814 107.91128576633889 l 7.4785275842987575 3.0414520630870574 a29.073339177885067,29.073339177885067 0 0,0 -0.19198670271416762,0.46069819620892366 l -7.425215037048105 -3.169382768737259" fill="#ff6609" stroke="none" /><path d="M 118.8641267826498 109.22738970284198 l 7.240813494779806 3.5418447220881712 a29.060647871081404,29.060647871081404 0 0,0 -0.2230475117135327,0.4462444370317435 l -7.178946069854541 -3.6656210152836604" fill="#ff6509" stroke="none" /><path d="M 118.5362547648365 109.86951160357373 l 7.198505378471348 3.8327986566081 a29.15529430652124,29.15529430652124 0 0,0 -0.23901045229528872,0.4397523119150486 l -7.13164957656072 -3.955805801997752" fill="#ff6709" stroke="none" /><line stroke="#e1ed5e" stroke-width="0.3" x1="174.33088141563837" x2="178.70328620479359" y1="141.23008692659167" y2="143.65538615756765" /><path d="M 175.20536237346943 141.71514677278685 a86.0,86.0 0 0,1 -30.301960400862466,31.631185727798858" fill="none" id="id125" stroke="none" /><text fill="#e1ed5e" style="font-size:6.75px; font-family:Arial;" text-anchor="middle"><textPath startOffset="22.145653131862474" xlink:href="#id125">May</textPath></text><path d="M 118.00360718960297 110.81064883170644 l 20.82227749464909 12.503179362910753 a45.28778981804,45.28778981804 0 0,0 -0.40593394584597464,0.6630625934190237 l -20.60457558434771 -12.858779072454332" fill="#ccff1d" stroke="none" /><path d="M 117.423217284605 111.72311816256416 l 3.606933525822129 2.426905848501883 a25.34739478966338,25.34739478966338 0 0,0 -0.24600281919653672,0.3589254650910684 l -3.564740969810272 -2.4884660486629953" fill="#ff3204" stroke="none" /><path d="M 117.21940702142032 112.02048342749411 l 1.8202243576395862 1.2706579673800533 a23.21986224397165,23.21986224397165 0 0,0 -0.23096564937999547,0.3248821104736681 l -1.7981436097296302 -1.3017173045632255" fill="#ff1302" stroke="none" /><path d="M 117.01052211995028 112.31430620078461 l 2.050803863960605 1.4846238440232502 a23.531778909517598,23.531778909517598 0 0,0 -0.2396857135402706,0.32517970339150976 l -2.0250161308365064 -1.5196098566836371" fill="#ff1802" stroke="none" /><path d="M 116.57777611688842 112.89097897827486 l 6.36930211002766 4.952807845136911 a29.06835267695039,29.06835267695039 0 0,0 -0.30969363332304894,0.39128778881086257 l -6.28334204606305 -5.061415577862456" fill="#ff6609" stroke="none" /><path d="M 116.35404254752997 113.17365903436017 l 6.1905688092180995 4.986684025333023 a28.94922384577108,28.94922384577108 0 0,0 -0.31506843764399767,0.3843322645143123 l -6.104053552335475 -5.092218571545828" fill="#ff6409" stroke="none" /><path d="M 115.6541949942343 113.99807769240083 l 9.125356352198331 8.159949919875372 a33.241605746366794,33.241605746366794 0 0,0 -0.3840233324655411,0.422108913365819 l -8.983935318890909 -8.315396408798863" fill="#ff9d0e" stroke="none" /><path d="M 115.16444852881244 114.52719865689866 l 5.963613841796343 5.713007158038118 a29.2585192887018,29.2585192887018 0 0,0 -0.3505633158010034,0.35970884495434347 l -5.864663724844533 -5.8145386950601985" fill="#ff6809" stroke="none" /><path d="M 113.86319453409587 115.77377054828091 l 5.320627460794499 6.05389735627254 a29.05969911205401,29.05969911205401 0 0,0 -0.37752772522311706,0.3260994573602553 l -5.215920255808527 -6.144340946097514" fill="#ff6509" stroke="none" /><path d="M 113.59037401385872 116.0094264158162 l 2.548509266890527 3.002137508261639 a24.937985411595413,24.937985411595413 0 0,0 -0.32873687696313564,0.2742439946948326 l -2.4965980557654963 -3.045443686868342" fill="#ff2c04" stroke="none" /><path d="M 113.03279911837588 116.46651593811092 l 7.64026311604164 9.653222859414312 a33.3109029748376,33.3109029748376 0 0,0 -0.4514262724694997,0.3510317998996835 l -7.47342689893691 -9.782955710934788" fill="#ff9e0e" stroke="none" /><path d="M 111.8722381534696 117.32195027204791 l 4.630934483683207 6.756671808847556 a29.191347149562247,29.191347149562247 0 0,0 -0.41577334704204905,0.2797508632648157 l -4.514264848544155 -6.835172346169493" fill="#ff6709" stroke="none" /><path d="M 110.96478420261333 117.91015095944535 l 4.166460766320014 6.805600540101151 a28.97969886829754,28.97969886829754 0 0,0 -0.4265083640485855,0.2561060180305223 l -4.049019645713992 -6.876120558667596" fill="#ff6409" stroke="none" /><line stroke="#e1ed5e" stroke-width="0.3" x1="143.1302829299769" x2="145.66735839644613" y1="173.24464959558577" y2="177.55315839532614" /><path d="M 143.63769802327073 174.10635135553383 a86.0,86.0 0 0,1 -40.68552437913181,11.842963189579606" fill="none" id="id126" stroke="none" /><text fill="#e1ed5e" style="font-size:6.75px; font-family:Arial;" text-anchor="middle"><textPath startOffset="21.407464694133747" xlink:href="#id126">June</textPath></text><path d="M 110.34350942703117 118.27599006163325 l 17.798462540410902 31.448177893164644 a57.13548341454061,57.13548341454061 0 0,0 -0.857728248045,0.4757674004770804 l -17.255990104209808 -31.749078209074867" fill="#4cff2c" stroke="none" /><path d="M 109.3889696526874 118.78422872680471 l 3.5492997495951157 7.10097708083466 a28.93860215749694,28.93860215749694 0 0,0 -0.4462604623518071,0.2182883545332137 l -3.426879037981239 -7.160859185465098" fill="#ff6409" stroke="none" /><path d="M 109.06512990194946 118.94263497670748 l 3.519632432329141 7.354678105986586 a29.153471806622107,29.153471806622107 0 0,0 -0.4532827416519508,0.2121592106804855 l -3.3928609768056837 -7.414013548237604" fill="#ff6709" stroke="none" /><path d="M 107.407793817531 119.65005319985036 l 2.8497474203627333 7.5592936028729785 a29.07861251294431,29.07861251294431 0 0,0 -0.4685960918679239,0.17207497566609264 l -2.7195621768406824 -7.607099427547793" fill="#ff6609" stroke="none" /><path d="M 107.06938296918513 119.77432235084164 l 4.049531755091692 11.327261041621426 a33.02936200056057,33.02936200056057 0 0,0 -0.5355384340107793,0.18628806698123002 l -3.8544875490358916 -11.395107541171248" fill="#ff9b0e" stroke="none" /><path d="M 106.72888874123015 119.89276391827305 l 2.557589633182943 7.561059296609749 a28.981909697473004,28.981909697473004 0 0,0 -0.4726497662348161,0.15536936617863784 l -2.4274171293003928 -7.603849584190407" fill="#ff6409" stroke="none" /><path d="M 106.38641147887787 120.00534299687104 l 2.44188934219482 7.649183584956612 a29.029497685154055,29.029497685154055 0 0,0 -0.4760275929006808,0.14747456511006446 l -2.3102211164225146 -7.689974737873321" fill="#ff6509" stroke="none" /><path d="M 105.3480935250658 120.30758222061773 l 2.037148157852432 7.735383369283765 a28.99913298344473,28.99913298344473 0 0,0 -0.48248302692706574,0.12264529870965804 l -1.9040598376999693 -7.769213899828693" fill="#ff6509" stroke="none" /><path d="M 104.9986988182912 120.39639698878246 l 1.915309632680582 7.815116902351543 a29.046394421507053,29.046394421507053 0 0,0 -0.48530694534743657,0.11453111767969319 l -1.7808705335932664 -7.846844163677462" fill="#ff6509" stroke="none" /><path d="M 104.64783097203109 120.47920084513623 l 1.7842146566348587 7.861578986830828 a29.061503960622403,29.061503960622403 0 0,0 -0.4874549487858594,0.1062385373094352 l -1.6489972912298634 -7.891048982273983" fill="#ff6509" stroke="none" /><path d="M 104.29559338865022 120.5559693870025 l 1.6195229287539874 7.750003487987592 a28.91741173494089,28.91741173494089 0 0,0 -0.4867812703642811,0.09736988717743429 l -1.4862451728587478 -7.776662771827888" fill="#ff6309" stroke="none" /><path d="M 103.94208987418118 120.62667999033965 l 1.474569288952268 7.71556961347027 a28.85521285823796,28.85521285823796 0 0,0 -0.4873305598479965,0.08880786183938646 l -1.3419039955532144 -7.739745649241019" fill="#ff6309" stroke="none" /><path d="M 103.58742460773223 120.69131181640829 l 5.332187619237283 30.754641214042053 a52.213461535228696,52.213461535228696 0 0,0 -0.8844525195978056,0.14553632552615794 l -4.803457596586405 -30.84164353806388" fill="#7fff26" stroke="none" /><path d="M 102.875027216393 120.80226474461374 l 1.0993031870553511 7.954010244262396 a29.029616831636563,29.029616831636563 0 0,0 -0.49422532568204347,0.06398736314526723 l -0.9626000394825323 -7.971709203608058" fill="#ff6509" stroke="none" /><path d="M 102.15924093988457 120.88869738790638 l 0.8439671166044524 8.164616267898653 a29.208120326600053,29.208120326600053 0 0,0 -0.4991812922818938,0.047272987375928395 l -0.7036862609375434 -8.177901010779765" fill="#ff6709" stroke="none" /><path d="M 101.44090949804482 120.95050786540614 l 0.8126508153002746 11.815764502128067 a32.84367730552289,32.84367730552289 0 0,0 -0.5628087035776758,0.03385717402993467 l -0.6096977595901337 -11.827973653982692" fill="#ff980e" stroke="none" /><path d="M 100.72087961077811 120.9876233191556 l 1.6443819424364925 47.874386075959265 a68.90261823869979,68.90261823869979 0 0,0 -1.1824564875663686,0.030455884657788045 l -0.8223121407993801 -47.89555967796709" fill="#3aff95" stroke="none" /><line stroke="#e1ed5e" stroke-width="0.3" x1="101.45913802915013" x2="101.54496967792366" y1="184.9874750549273" y2="189.98673829345242" /><path d="M 101.47630435890484 185.9873277026323 a86.0,86.0 0 0,1 -42.54439059252881,-10.42667462771756" fill="none" id="id127" stroke="none" /><text fill="#e1ed5e" style="font-size:6.75px; font-family:Arial;" text-anchor="middle"><textPath startOffset="22.145653131862474" xlink:href="#id127">July</textPath></text><path d="M 99.27912038922189 120.98762331915562 l -0.27328163146683493 7.956296523741871 a28.960988457710773,28.960988457710773 0 0,0 -0.49671438047637456,-0.021331052728095684 l 0.4098217725440483 -7.950432902587947" fill="#ff6409" stroke="none" /><path d="M 98.55909050195518 120.95050786540614 l -3.0366192217983436 44.151777038637256 a65.25607836182202,65.25607836182202 0 0,0 -1.116907516315031,-0.08645570557960237 l 3.7940957328886107 -44.0931435660626" fill="#36ff6c" stroke="none" /><path d="M 97.84075906011543 120.88869738790638 l -0.8247624620280618 7.978828655930266 a29.021342770351144,29.021342770351144 0 0,0 -0.4951097715216197,-0.055478082599155536 l 0.9616081351504808 -7.963494812824139" fill="#ff6509" stroke="none" /><path d="M 97.12497278360702 120.80226474461374 l -1.125780985424374 8.145590403360185 a29.223018049746493,29.223018049746493 0 0,0 -0.49633889889133564,-0.07294472576833798 l 1.2654449899233946 -8.125064604292964" fill="#ff6809" stroke="none" /><path d="M 96.41257539226777 120.69131181640829 l -1.4161100462846785 8.167746430369514 a29.289598869306182,29.289598869306182 0 0,0 -0.49466682796024436,-0.0901447742733837 l 1.55611160779598 -8.142233482164764" fill="#ff6909" stroke="none" /><line stroke="#e1ed5e" stroke-width="0.3" x1="58.13341422392154" x2="55.67067388415222" y1="173.97424548756322" y2="178.32567169271397" /><path d="M 57.64086615596768 174.84453072859336 a86.0,86.0 0 0,1 -31.369924170532247,-30.572349798747897" fill="none" id="id128" stroke="none" /><text fill="#e1ed5e" style="font-size:6.75px; font-family:Arial;" text-anchor="middle"><textPath startOffset="22.145653131862474" xlink:href="#id128">August</textPath></text><path d="M 89.65649057296885 118.27599006163327 l -1.9761733149592704 3.491708894263255 a25.012143064876206,25.012143064876206 0 0,0 -0.37185616475274375,-0.21469125681982004 l 2.0358219475724137 -3.4572707401672633" fill="#ff2d04" stroke="none" /><path d="M 87.83215693770417 117.11559508785305 l -4.778622352264453 6.721730781732345 a29.247235675524834,29.247235675524834 0 0,0 -0.4067022957772196,-0.29442109815600537 l 4.893305658415626 -6.638708912203274" fill="#ff6809" stroke="none" /><path d="M 87.54013794807813 116.9041958592261 l -4.936072182321428 6.696729915430228 a29.319314884610726,29.319314884610726 0 0,0 -0.40257794353150395,-0.3021019940326055 l 5.0503031147636985 -6.611008894133608" fill="#ff6909" stroke="none" /><path d="M 87.2517909369889 116.68781488649013 l -4.980010261154296 6.518993292327985 a29.2035221549417,29.2035221549417 0 0,0 -0.39576342794862834,-0.30774803532654604 l 5.091183633738153 -6.432544205380646" fill="#ff6709" stroke="none" /><path d="M 86.40962598614128 116.0094264158162 l -5.178640489281644 6.100425474867489 a29.00209399417674,29.00209399417674 0 0,0 -0.3767793510217932,-0.3254530295493993 l 5.2825993200663 -6.010628312853367" fill="#ff6509" stroke="none" /><path d="M 85.86807049272751 115.53346607816431 l -5.313249592741456 5.840192046754618 a28.8954711308283,28.8954711308283 0 0,0 -0.36404197167018576,-0.33695181414686 l 5.412721335725609 -5.748122486475381" fill="#ff6309" stroke="none" /><path d="M 85.34317274990678 115.03919595460226 l -5.842670825152501 5.995094977812976 a29.37125833815243,29.37125833815243 0 0,0 -0.35806092621510627,-0.35500059480767865 l 5.94472367149757 -5.893914372776638" fill="#ff6a09" stroke="none" /><path d="M 84.83555147118756 114.52719865689866 l -19.740488537460156 18.910941470970357 a48.33698218560458,48.33698218560458 0 0,0 -0.568866817236516,-0.604116846434427 l 20.062211188432922 -18.56928316459144" fill="#a9ff21" stroke="none" /><path d="M 84.3458050057657 113.99807769240083 l -2.998194817467353 2.6810042935659975 a25.022058699920652,25.022058699920652 0 0,0 -0.28357014893141713,-0.32265077522968827 l 3.0437760303573627 -2.629141240525009" fill="#ff2d04" stroke="none" /><path d="M 84.1078160697243 113.72728997021213 l -3.016986542756862 2.606001119188703 a24.98665895611711,24.98665895611711 0 0,0 -0.2775963511550394,-0.3270078036545393 l 3.0612774574190134 -2.5538265330846093" fill="#ff2d04" stroke="none" /><path d="M 83.64595745247003 113.17365903436017 l -6.316113033859517 5.087813565894784 a29.110433449439867,29.110433449439867 0 0,0 -0.3101419610102123,-0.3918542361978867 l 6.40252142551129 -4.978639385782217" fill="#ff6609" stroke="none" /><path d="M 83.20337586046588 112.60449989151573 l -50.38987241860234 37.813499674547174 a84.0,84.0 0 0,0 -0.8555919216646783,-1.1607747629244813 l 51.03156635985085 -36.942918602353814" fill="#4dd2ff" stroke="none" /><path d="M 82.37810715431573 111.42229804090323 l -6.634278757688984 4.300259337651998 a28.906066342106325,28.906066342106325 0 0,0 -0.26632440199456664,-0.4187061952428498 l 6.7071208513094405 -4.1857394677304764" fill="#ff6309" stroke="none" /><path d="M 81.99639281039703 110.81064883170644 l -14.340393571852143 8.610994306923269 a37.72710706456688,37.72710706456688 0 0,0 -0.32863236775515053,-0.5580896063462631 l 14.486099649737064 -8.363553532283447" fill="#ffd714" stroke="none" /><line stroke="#e1ed5e" stroke-width="0.3" x1="26.387840678322732" x2="22.057713659400548" y1="142.50000000000003" y2="145.00000000000006" /><path d="M 25.521815274538298 143.00000000000003 a86.0,86.0 0 0,1 -11.493303480769221,-40.785679425670985" fill="none" id="id129" stroke="none" /><text fill="#e1ed5e" style="font-size:6.75px; font-family:Arial;" text-anchor="middle"><textPath startOffset="21.40746469413373" xlink:href="#id129">September</textPath></text><path d="M 81.29705330413844 109.54985784667822 l -6.619073812008598 3.379746251179743 a28.432013378027623,28.432013378027623 0 0,0 -0.21822258970645464,-0.43659136093047224 l 6.67611631492679 -3.265623034085518" fill="#ff5d08" stroke="none" /><path d="M 80.68587082218212 108.24405325689762 l -49.38161640574661 21.078075631192352 a74.69198553935743,74.69198553935743 0 0,0 -0.4932308578363537,-1.183574504418099 l 49.73617310811945 -20.22726861733297" fill="#41ffd3" stroke="none" /><path d="M 79.83685265289637 105.86919833188381 l -6.422394229234251 1.869465359153689 a27.68894972060465,27.68894972060465 0 0,0 -0.12892701221676175,-0.4575164832618179 l 6.453539733525587 -1.7589409519888755" fill="#ff5307" stroke="none" /><path d="M 79.64726062577567 105.17358676015961 l -19.016040465640376 4.833803124717985 a40.62079120829243,40.62079120829243 0 0,0 -0.1659890746880367,-0.6772920686378148 l 19.096217066844705 -4.506655231472071" fill="#fffb17" stroke="none" /><path d="M 79.48165901384964 104.47187691870673 l -7.802724551743061 1.7005674995614093 a28.985890072555375,28.985890072555375 0 0,0 -0.1017850422734997,-0.4870782738787796 l 7.8307673048409265 -1.5663727743972207" fill="#ff6409" stroke="none" /><path d="M 79.06263194458094 101.62068470465958 l -8.17920495591764 0.6331221924954691 a29.20367219125301,29.20367219125301 0 0,0 -0.03439919854502448,-0.5001567972583373 l 8.18886811562773 -0.49262197108278855" fill="#ff6709" stroke="none" /><path d="M 79.03789590574601 101.26102812881392 l -45.184688138374575 2.718198634925858 a66.26637434101698,66.26637434101698 0 0,0 -0.05856183715452532,-1.136083995877265 l 45.224691564985676 -1.942142845671862" fill="#37ff78" stroke="none" /><line stroke="#e1ed5e" stroke-width="0.3" x1="15.003131293944662" x2="10.003315487706104" y1="100.72959589197737" y2="100.7725132973878" /><path d="M 14.003168132696942 100.73817937305945 a86.0,86.0 0 0,1 10.791469493833604,-42.45332614584628" fill="none" id="id130" stroke="none" /><text fill="#e1ed5e" style="font-size:6.75px; font-family:Arial;" text-anchor="middle"><textPath startOffset="22.145653131862435" xlink:href="#id130">October</textPath></text><path d="M 79.13060592940154 97.66154086499901 l -4.422725014901828 -0.4955755628413411 a25.45040354304235,25.45040354304235 0 0,0 0.052376825951420763,-0.43375525490023986 l 4.413566102690739 0.5714244946650172" fill="#ff3304" stroke="none" /><path d="M 79.22317932658666 96.9465228501225 l -7.798070585724741 -1.1460478347927336 a28.881835477829927,28.881835477829927 0 0,0 0.0763010065056215,-0.48990719641497843 l 7.777248087080852 1.279743213139162" fill="#ff6309" stroke="none" /><path d="M 79.34024301695615 96.23510406497455 l -7.759586315438952 -1.4140551120931448 a28.88737799568299,28.88737799568299 0 0,0 0.09309123691498263,-0.487092688151639 l 7.73416878624181 1.5470503652780982" fill="#ff6309" stroke="none" /><path d="M 79.48165901384962 95.52812308129327 l -7.202021124595895 -1.5696469834894375 a28.37108539713813,28.37108539713813 0 0,0 0.10779545050055503,-0.47496664450086407 l 7.174014812537678 1.6930479619293097" fill="#ff5c08" stroke="none" /><path d="M 79.64726062577567 94.8264132398404 l -7.6154223151710125 -1.9358105726391561 a28.857609026386218,28.857609026386218 0 0,0 0.12616343178317882,-0.47906310018029247 l 7.5810694025831085 2.066254177192233" fill="#ff6309" stroke="none" /><path d="M 79.83685265289637 94.1308016681162 l -7.556803454053686 -2.1996753514414347 a28.870441543835817,28.870441543835817 0 0,0 0.14259754476413058,-0.47466084918184226 l 7.5179295892859255 2.3290738042140005" fill="#ff6309" stroke="none" /><path d="M 80.41425534168474 92.42381321644754 l -7.300711470020376 -2.8240720337490606 a28.827884185416302,28.827884185416302 0 0,0 0.18249605340629277,-0.4600092698294117 l 7.251156741647952 2.948982320792055" fill="#ff6209" stroke="none" /><path d="M 80.5471966667186 92.08871423366112 l -7.360993581480884 -2.993652007350971 a28.94645699967723,28.94645699967723 0 0,0 0.19114883229006568,-0.45868761220709314 l 7.308518904654339 3.119572128999328" fill="#ff6409" stroke="none" /><path d="M 80.83023694016515 91.42560881287825 l -41.255461460570466 -18.453043163028198 a66.19433484742525,66.19433484742525 0 0,0 0.4728656459857489,-1.0332967751408246 l 40.93261134972967 19.158528920383695" fill="#37ff77" stroke="none" /><path d="M 81.29705330413844 90.45014215332179 l -7.175609379599928 -3.663917277464791 a29.056901376131364,29.056901376131364 0 0,0 0.23064528571390774,-0.44229274707727645 l 7.11165602491108 3.786556267646554" fill="#ff6509" stroke="none" /><path d="M 81.46374523516351 90.13048839642627 l -6.82217505853689 -3.6324239581325712 a28.728944063773415,28.728944063773415 0 0,0 0.23551530101043147,-0.4333216272180118 l 6.758814407911108 3.7490004188252026" fill="#ff6108" stroke="none" /><path d="M 81.63589988554816 89.8137432299009 l -7.0744446773715435 -3.924075208719722 a29.089878474790538,29.089878474790538 0 0,0 0.24597103965266032,-0.4346072585764427 l 7.006040272697514 4.04493923739527" fill="#ff6609" stroke="none" /><line stroke="#e1ed5e" stroke-width="0.3" x1="26.387840678322718" x2="22.05771365940052" y1="57.49999999999999" y2="54.99999999999999" /><path d="M 25.521815274538284 56.99999999999999 a86.0,86.0 0 0,1 29.574782752854787,-30.34633250058573" fill="none" id="id131" stroke="none" /><text fill="#e1ed5e" style="font-size:6.75px; font-family:Arial;" text-anchor="middle"><textPath startOffset="21.40746469413373" xlink:href="#id131">November</textPath></text><path d="M 82.18462484594161 88.88188828441811 l -40.40048175589247 -25.212888622388444 a68.62235482200734,68.62235482200734 0 0,0 0.6322481722394868,-0.9939991403906061 l 39.9617158920271 25.902701437457722" fill="#3aff92" stroke="none" /><path d="M 84.10781606972428 86.27271002978789 l -6.0697324763422165 -5.2428903484832565 a29.020570524631168,29.020570524631168 0 0,0 0.32888450964150484,-0.3742101994753046 l 5.978836902742119 5.346312825769861" fill="#ff6509" stroke="none" /><path d="M 86.68645165197937 83.75963576809568 l -5.171847871454384 -6.308813472473379 a29.157765492825156,29.157765492825156 0 0,0 0.3898104857272889,-0.31400373406544596 l 5.0627866153718495 6.396665500332224" fill="#ff6709" stroke="none" /><path d="M 87.54013794807813 83.09580414077388 l -4.713628132822638 -6.3949418406684435 a28.94440503247845,28.94440503247845 0 0,0 0.4024912339481427,-0.2913726141395764 l 4.6031558885005275 6.474915226181099" fill="#ff6409" stroke="none" /><path d="M 88.12776184653039 82.6780497279521 l -4.435566436198535 -6.471623988922575 a28.845773809123553,28.845773809123553 0 0,0 0.4108513342392144,-0.2764391133886195 l 4.323818813862331 6.546812776368304" fill="#ff6209" stroke="none" /><path d="M 88.72937992617638 82.28071324371311 l -4.33723843914654 -6.818859222494843 a29.081366120540096,29.081366120540096 0 0,0 0.42352975921243446,-0.264313893874116 l 4.2195445511444065 6.892308913210495" fill="#ff6609" stroke="none" /><path d="M 89.03521579738668 82.08984904055464 l -0.8065675470128112 -1.3174674721410407 a22.544756209906264,22.544756209906264 0 0,0 0.33180217408954266,-0.1992376720899715 l 0.7838326163658343 1.3311191447669355" fill="#ff0a01" stroke="none" /><line stroke="#e1ed5e" stroke-width="0.3" x1="56.869717070023135" x2="54.33264160355391" y1="26.7553504044142" y2="22.446841604673864" /><path d="M 56.362301976729285 25.89364864446614 a86.0,86.0 0 0,1 42.16139366436587,-11.88097634709845" fill="none" id="id132" stroke="none" /><text fill="#e1ed5e" style="font-size:6.75px; font-family:Arial;" text-anchor="middle"><textPath startOffset="22.145653131862474" xlink:href="#id132">December</textPath></text><path d="M 89.65649057296885 81.72400993836675 l -3.926175128536089 -6.937175253288539 a28.97115121138561,28.97115121138561 0 0,0 0.43492018072369915,-0.24124289280383243 l 3.8065107596562875 7.003551061525517" fill="#ff6409" stroke="none" /><path d="M 90.28995756902619 81.37971332152246 l -3.659570507737662 -7.0177089810453985 a28.91458752202214,28.91458752202214 0 0,0 0.44208033089054444,-0.22572936689978224 l 3.538562955133535 7.079496299618015" fill="#ff6309" stroke="none" /><path d="M 90.61103034731259 81.2157712731953 l -1.844497240825906 -3.6902300613696055 a25.12552638789892,25.12552638789892 0 0,0 0.3874592477436616,-0.18952573390193125 l 1.7808777438201913 3.721349545368751" fill="#ff2f04" stroke="none" /></svg>