<?xml version="1.0" encoding="utf-8" ?>
<svg baseProfile="full" height="200mm" version="1.1" viewBox="0,0,200,200" width="200mm" xmlns="http://www.w3.org/2000/svg" xmlns:ev="http://www.w3.org/2001/xml-events" xmlns:xlink="http://www.w3.org/1999/xlink"><defs /><rect fill="#f5f5f5" height="200" width="200" x="0" y="0" /><text alignment-baseline="middle" fill="#006cb8" style="dominant-baseline: central; font-size:9.0px; font-family:Arial;" text-anchor="middle" x="100.0" y="100.0">2023</text><line stroke="#006cb8" stroke-width="0.3" x1="100.0" x2="100.0" y1="15.0" y2="10.0" /><path d="M 100.0 14.0 a86.0,86.0 0 0,1 42.46469731375804,11.215312516191453" fill="none" id="id109" stroke="none" /><text fill="#006cb8" style="font-size:6.75px; font-family:Arial;" text-anchor="middle"><textPath startOffset="22.20632615414155" xlink:href="#id109">January</textPath></text><line stroke="#006cb8" stroke-width="0.3" x1="143.23703022742887" x2="145.7803849466894" y1="26.81831364943548" y2="22.513508569990506" /><path d="M 143.74570117128098 25.957352633546492 a86.0,86.0 0 0,1 28.547481713284135,27.462654790039103" fill="none" id="id110" stroke="none" /><text fill="#006cb8" style="font-size:6.75px; font-family:Arial;" text-anchor="middle"><textPath startOffset="19.985693538727396" xlink:href="#id110">February</textPath></text><path d="M 116.15771136456269 86.58626213691792 l 11.359562261588854 -9.430431512132449 a35.76389830904881,35.76389830904881 0 0,0 0.3891478425163631,0.4770492415662212 l -11.520208596181627 9.233498100958126" fill="#ef8c00" stroke="none" /><path d="M 116.82858285166822 87.43820079747576 l 30.71838827659373 -22.929929914894366 a59.332767500058466,59.332767500058466 0 0,0 0.6038871770380434,0.8237014308178316 l -31.1085380661454 22.397766040405042" fill="#34d000" stroke="none" /><path d="M 117.65298651832404 88.62581576622439 l 25.41314145954826 -16.37421252318192 a51.231483499777816,51.231483499777816 0 0,0 0.4712623245494162,0.7454238235451401 l -25.69123138034363 15.934341051922576" fill="#8edb00" stroke="none" /><line stroke="#006cb8" stroke-width="0.3" x1="172.23445277983987" x2="176.4835382374775" y1="55.19839476539836" y2="52.563006222186495" /><path d="M 173.08426987136738 54.67131705675599 a86.0,86.0 0 0,1 12.851231095245387,41.99856678651699" fill="none" id="id111" stroke="none" /><text fill="#006cb8" style="font-size:6.75px; font-family:Arial;" text-anchor="middle"><textPath startOffset="22.20632615414155" xlink:href="#id111">March</textPath></text><path d="M 118.03404312379186 89.2402003453031 l 13.373780153132056 -7.979308582434293 a36.57328998760437,36.57328998760437 0 0,0 0.31790953619182954,0.5434104492420815 l -13.509149363794213 7.7479187208383165" fill="#ee9400" stroke="none" /><path d="M 118.3937258080291 89.86733742301442 l 12.905764535418127 -7.10947628013115 a35.73442945014851,35.73442945014851 0 0,0 0.2921577197923651,0.5413238837074701 l -13.026230354428957 6.8862714130912215" fill="#ef8b00" stroke="none" /><path d="M 119.196687751892 91.48605970444005 l 13.534533625539462 -6.002713213102831 a35.805950370699534,35.805950370699534 0 0,0 0.24503084338959202,0.5655649698500326 l -13.635855178771735 5.768849098666196" fill="#ef8c00" stroke="none" /><path d="M 119.47837535516314 92.15188598940014 l 13.679562287633498 -5.511689886394566 a35.74819140725495,35.74819140725495 0 0,0 0.22505435638584176,0.5727387891498523 l -13.77241019390104 5.27540209234893" fill="#ef8b00" stroke="none" /><path d="M 119.61058180528143 92.48833698450437 l 11.770339355211002 -4.508526248342094 a33.60427298454054,33.60427298454054 0 0,0 0.2022583767611771,0.5419518931816245 l -11.846202320473804 4.305251218131136" fill="#f27300" stroke="none" /><path d="M 120.28053869075195 94.5502522615342 l 2.95814023406623 -0.7949058107622382 a24.063081600673573,24.063081600673573 0 0,0 0.10404838456406613,0.4009408697326368 l -2.9713849505005987 0.743868515480751" fill="#ff0100" stroke="none" /><path d="M 120.37134235888165 94.90015583598534 l 61.00574074478521 -15.272423654155473 a83.88837196248566,83.88837196248566 0 0,0 0.3386182086637475,1.4037910856984033 l -61.25959175370977 14.220047336797663" fill="#00afa9" stroke="none" /><path d="M 120.83666639777658 97.38593545837742 l 62.50999919332973 -7.84219362486773 a84.0,84.0 0 0,0 0.16763858798564435,1.436225046700589 l -62.63572813431897 6.7650248398422885" fill="#00afaa" stroke="none" /><line stroke="#006cb8" stroke-width="0.3" x1="184.98032266829074" x2="189.97916517819016" y1="98.17113171792111" y2="98.06355123074" /><path d="M 185.9800911702706 98.14961562048488 a86.0,86.0 0 0,1 -9.607161424134198,41.387399972396054" fill="none" id="id112" stroke="none" /><text fill="#006cb8" style="font-size:6.75px; font-family:Arial;" text-anchor="middle"><textPath startOffset="21.466115282336823" xlink:href="#id112">April</textPath></text><path d="M 120.99980553446 99.90962569577887 l 14.748732612590054 -0.0634723233898076 a35.74886919100966,35.74886919100966 0 0,0 -0.002648314890364569,0.6153751132136334 l -14.747640000410186 -0.19041226802751055" fill="#ef8b00" stroke="none" /><path d="M 120.9764740272857 100.99374915477107 l 14.746063366671574 0.6985868067135113 a35.7626016792572,35.7626016792572 0 0,0 -0.03442346103302669,0.6146540211178195 l -14.731853554751018 -0.9523125441667541" fill="#ef8c00" stroke="none" /><path d="M 120.89721153311464 102.0752229133903 l 14.68063688813367 1.4578784353663996 a35.7528474869612,35.7528474869612 0 0,0 -0.06608777401084451,0.6118907090431404 l -14.653366812621774 -1.7103654662943313" fill="#ef8b00" stroke="none" /><path d="M 120.76222939487914 103.15116336523771 l 30.509362131518053 4.630523168640186 a51.858757630329535,51.858757630329535 0 0,0 -0.14154538135112554,0.8814032247890764 l -30.42513499580564 -5.1550056231224675" fill="#87da00" stroke="none" /><path d="M 120.64145759157962 103.86396538481128 l 30.25099096919784 5.662816273638648 a51.77645110742101,51.77645110742101 0 0,0 -0.17152815113454903,0.8746183472140621 l -30.149032885087628 -6.182698347920655" fill="#88da00" stroke="none" /><path d="M 120.23288151984713 105.62410040840565 l 21.29428323767151 5.919136477728902 a43.10164417522277,43.10164417522277 0 0,0 -0.204850545285838,0.7131116220067919 l -21.18924005549957 -6.284805575240275" fill="#e6d900" stroke="none" /><path d="M 120.02730092923936 106.31721596034902 l 14.07664868274642 4.4402004064882785 a35.76033257712187,35.76033257712187 0 0,0 -0.19022410738574552,0.5854496036749707 l -13.998132324344429 -4.681848910141045" fill="#ef8b00" stroke="none" /><path d="M 119.54520255179757 107.68017299344265 l 14.143527876544976 5.557616532321573 a36.19626540683397,36.19626540683397 0 0,0 -0.23285813476708814,0.5779347939352729 l -14.045767127520495 -5.80025069409966" fill="#ef9000" stroke="none" /><path d="M 118.97047184881838 109.00673069616215 l 3.7754508908692865 1.7924946570458238 a25.179361975816825,25.179361975816825 0 0,0 -0.18926096611437995,0.3899336474420778 l -3.744036668140192 -1.8572172604531771" fill="#fd0f00" stroke="none" /><path d="M 118.64920377521936 109.65438752849418 l 16.30319962708696 8.439899582385683 a39.35827396683584,39.35827396683584 0 0,0 -0.31664198415687633,0.5989673043774772 l -16.15550513470519 -8.719281901849296" fill="#ebb200" stroke="none" /><line stroke="#006cb8" stroke-width="0.3" x1="174.80103733775053" x2="179.2010983576182" y1="140.37084112569926" y2="142.7455964860345" /><path d="M 175.68104954172406 140.8457921977663 a86.0,86.0 0 0,1 -30.038265399797805,32.042727171017184" fill="none" id="id113" stroke="none" /><text fill="#006cb8" style="font-size:6.75px; font-family:Arial;" text-anchor="middle"><textPath startOffset="22.206326154141568" xlink:href="#id113">May</textPath></text><path d="M 118.48025628344425 109.97397251340804 l 8.93496641039479 4.822287527762176 a31.15323011436724,31.15323011436724 0 0,0 -0.2587551549395854,0.4697157667307613 l -8.850634846003695 -4.975373812890743" fill="#f55700" stroke="none" /><path d="M 118.30583269289576 110.29060199501025 l 29.495708093319468 16.58097709300863 a54.83674921273006,54.83674921273006 0 0,0 -0.4696323754000988,0.8188436319408005 l -29.20592372176699 -17.08624057080775" fill="#65d600" stroke="none" /><path d="M 117.35343817320211 111.8261652097733 l 16.07213208734952 10.952970093950054 a40.44944687419604,40.44944687419604 0 0,0 -0.39705772783048277,0.5719912709044983 l -15.8812134523569 -11.22800262704157" fill="#e9be00" stroke="none" /><path d="M 116.93607887273984 112.41649034213515 l 12.051499356127099 8.835417364786538 a35.94333419089272,35.94333419089272 0 0,0 -0.37011147886636336,0.49582480869495704 l -11.897626610565645 -9.04155505299081" fill="#ef8e00" stroke="none" /><path d="M 116.498646956653 112.99209946851258 l 23.801739827895172 18.743026151182296 a51.295607736744856,51.295607736744856 0 0,0 -0.5522389571208793,0.6890030096297088 l -23.47558295871944 -19.149956994390255" fill="#8edb00" stroke="none" /><path d="M 115.56566222782051 114.09645910891815 l 13.911021083875264 12.597995318288694 a39.767684823537664,39.767684823537664 0 0,0 -0.4638684401533126,0.5034375766568329 l -13.692106235726229 -12.835584149746861" fill="#eab700" stroke="none" /><path d="M 115.07121518719521 114.62390073753431 l 11.184035184220868 10.852092438975733 a36.58366302593728,36.58366302593728 0 0,0 -0.44241734263075927,0.4481664323062117 l -10.995577216534572 -11.04299936526261" fill="#ee9500" stroke="none" /><path d="M 114.29624159901734 115.38237550388516 l 10.442833233579464 11.236210650945628 a36.33966087424281,36.33966087424281 0 0,0 -0.4618605647407992,0.4218986752824255 l -10.247873119371802 -11.414302092814637" fill="#ef9200" stroke="none" /><path d="M 112.92097659922987 116.55440617244103 l 5.692440090303279 7.293176691673912 a30.251718782889352,30.251718782889352 0 0,0 -0.4132547158335584,0.31686609401607674 l -5.566056645976227 -7.39008212751736" fill="#f74d00" stroke="none" /><path d="M 112.63410532772338 116.77436683061366 l 5.750617353876595 7.635124331657063 a30.558489604041444,30.558489604041444 0 0,0 -0.4228931600115476,0.31284624982895737 l -5.618339223446483 -7.73298053022579" fill="#f65000" stroke="none" /><line stroke="#006cb8" stroke-width="0.3" x1="143.8653032363475" x2="146.44561519142675" y1="172.8068346515853" y2="177.08958963109032" /><path d="M 144.38136562736335 173.6633856474863 a86.0,86.0 0 0,1 -40.68145358897372,12.25698825130547" fill="none" id="id114" stroke="none" /><text fill="#006cb8" style="font-size:6.75px; font-family:Arial;" text-anchor="middle"><textPath startOffset="21.466115282336833" xlink:href="#id114">June</textPath></text><path d="M 107.2578585660854 119.70592522655815 l 5.1127698391021905 13.881761298125017 a35.79336716794911,35.79336716794911 0 0,0 -0.5799896526881403,0.2079636544105252 l -4.873060625784315 -13.967712493575501" fill="#ef8c00" stroke="none" /><path d="M 104.48393922423573 120.51570834832081 l 3.152401082408167 14.423420561557727 a35.76389830904881,35.76389830904881 0 0,0 -0.6025510759196618,0.12627043645333982 l -2.9036585450591272 -14.475546978737608" fill="#ef8c00" stroke="none" /><path d="M 103.41894727170886 120.7198165907248 l 2.408463919916525 14.595993070435972 a35.79336716794911,35.79336716794911 0 0,0 -0.608767003480181,0.09507688601784439 l -2.156861052827827 -14.635288263800923" fill="#ef8c00" stroke="none" /><path d="M 102.34483914955558 120.86867818915974 l 1.6583936170115068 14.759427191809307 a35.8523048857497,35.8523048857497 0 0,0 -0.6138723892130137,0.06363038311469475 l -1.4040886311928904 -14.78578694337976" fill="#ef8d00" stroke="none" /><line stroke="#006cb8" stroke-width="0.3" x1="102.19456741930631" x2="102.32365962044197" y1="184.97166512339345" y2="189.96999836594603" /><path d="M 102.22038585953345 185.97133177190398 a86.0,86.0 0 0,1 -42.740103519485714,-10.115201625700543" fill="none" id="id115" stroke="none" /><text fill="#006cb8" style="font-size:6.75px; font-family:Arial;" text-anchor="middle"><textPath startOffset="22.20632615414155" xlink:href="#id115">July</textPath></text><path d="M 100.54218724476979 120.99299961872073 l 0.38118082601164793 14.75897674155683 a35.76389830904881,35.76389830904881 0 0,0 -0.6155483093080806,0.010597222372089507 l -0.12707282681089946 -14.76335144120808" fill="#ef8c00" stroke="none" /><path d="M 99.09653310690486 120.98055641714683 l -0.6351758731070896 14.750228638572253 a35.76389830904881,35.76389830904881 0 0,0 -0.6148187623625366,-0.031779107303991035 l 0.8889827038831151 -14.737109724506059" fill="#ef8c00" stroke="none" /><path d="M 98.37488393609728 120.93702456842531 l -0.24635690738538643 3.173915228025141 a24.183461889281286,24.183461889281286 0 0,0 -0.41475291505264417,-0.03578662669999348 l 0.3009541401795722 -3.1692043490464843" fill="#ff0200" stroke="none" /><path d="M 96.93821686468263 120.77559828337769 l -3.0548370688457718 20.72846604693716 a41.95235867811118,41.95235867811118 0 0,0 -0.7135179979453958,-0.11143683704030372 l 3.411190930399685 -20.672810902549752" fill="#e7ce00" stroke="none" /><path d="M 95.86986931433489 120.58985236759428 l -2.9790029783640515 14.851159974193877 a36.146993474752676,36.146993474752676 0 0,0 -0.6090054730963684,-0.1276230181366501 l 3.2341999128898067 -14.797680975330685" fill="#ef9000" stroke="none" /><path d="M 95.16358092515715 120.4354850818985 l -2.0360535899892724 8.603006091965597 a29.840657670089108,29.840657670089108 0 0,0 -0.4988316598184334,-0.12260068546938471 l 2.183838534550916 -8.566684148182182" fill="#f74800" stroke="none" /><path d="M 94.46302465271185 120.25689768951611 l -5.586573344294756 20.43835082736687 a42.188109549313566,42.188109549313566 0 0,0 -0.6988537327997283,-0.1975030455504603 l 5.9375582451990985 -20.33915898847789" fill="#e7d000" stroke="none" /><path d="M 91.7346041902142 119.30500536409082 l -5.920320953521512 13.827750103577198 a36.04183742498519,36.04183742498519 0 0,0 -0.5682241532742569,-0.24909277022685503 l 6.157465781453512 -13.72379278005589" fill="#ef8f00" stroke="none" /><path d="M 91.40352486487194 119.15986991738527 l -4.8701644340043915 10.854648628075216 a32.89713824636902,32.89713824636902 0 0,0 -0.5146553695998045,-0.236253037931423 l 5.056287799371615 -10.769208519809718" fill="#f36b00" stroke="none" /><path d="M 91.07499286063937 119.00905698771935 l -1.88470300679591 4.014162263591868 a25.434591762752298,25.434591762752298 0 0,0 -0.39470529762220796,-0.18948252906009783 l 1.9535209724183602 -3.9811254580322077" fill="#fd1200" stroke="none" /><path d="M 90.7491055286396 118.85261126421891 l -5.3618493317749225 10.927036452767958 a33.171670135884185,33.171670135884185 0 0,0 -0.510442646668926,-0.2559465396553209 l 5.54914588612661 -10.833122072203334" fill="#f36e00" stroke="none" /><line stroke="#006cb8" stroke-width="0.3" x1="58.666819895761336" x2="56.23545636021788" y1="174.27360380694188" y2="178.64263932499728" /><path d="M 58.180547188652646 175.14741091055294 a86.0,86.0 0 0,1 -31.652253787137756,-30.449443065178592" fill="none" id="id116" stroke="none" /><text fill="#006cb8" style="font-size:6.75px; font-family:Arial;" text-anchor="middle"><textPath startOffset="22.20632615414155" xlink:href="#id116">August</textPath></text><path d="M 89.7882731507175 118.34994917583269 l -7.17928079821858 12.900799219438476 a35.76389830904881,35.76389830904881 0 0,0 -0.5353535968168593,-0.3039877441432327 l 7.400283161956646 -12.775308309500609" fill="#ef8c00" stroke="none" /><line stroke="#006cb8" stroke-width="0.3" x1="26.63291911575756" x2="22.317208475507996" y1="142.92168965132927" y2="145.44649492493687" /><path d="M 25.769776987707644 143.4266507060508 a86.0,86.0 0 0,1 -11.730757126820373,-40.83630448921669" fill="none" id="id117" stroke="none" /><text fill="#006cb8" style="font-size:6.75px; font-family:Arial;" text-anchor="middle"><textPath startOffset="21.46611528233685" xlink:href="#id117">September</textPath></text><path d="M 79.1416061653843 102.43462659150553 l -11.360943716390164 1.3260683394815567 a32.438072362420186,32.438072362420186 0 0,0 -0.05996053870721373,-0.5551601199057815 l 11.382086556598429 -1.1303118976909932" fill="#f46600" stroke="none" /><path d="M 79.10278846688536 102.07522291339032 l -2.972988422457464 0.29523621779638926 a23.987611853029914,23.987611853029914 0 0,0 -0.037266929573995904,-0.41123746244589454 l 2.9776299483085356 -0.24401736680192856" fill="#ff0000" stroke="none" /><path d="M 79.07016306316243 101.71520430193888 l -18.70774096234692 1.533103094639971 a39.770454896274295,39.770454896274295 0 0,0 -0.05004153723068576,-0.6827770173262295 l 18.731359058241942 -1.210852940816981" fill="#eab700" stroke="none" /><path d="M 79.04373962182676 101.35467743843564 l -13.301622506245812 0.859857988907547 a34.329385471947056,34.329385471947056 0 0,0 -0.033043912008409865,-0.590021246554715 l 13.314452769141752 -0.6307650260173945" fill="#f17c00" stroke="none" /><path d="M 79.0235259727143 100.99374915477108 l -30.598796776886648 1.449601510458322 a51.63311457772996,51.63311457772996 0 0,0 -0.034416832301799434,-0.8881455139528263 l 30.61921574203965 -0.922678749491499" fill="#8ada00" stroke="none" /><line stroke="#006cb8" stroke-width="0.3" x1="15.007084014347285" x2="10.007500721073583" y1="101.09737516637583" y2="101.16192664675087" /><path d="M 14.007167355692545 101.11028546245083 a86.0,86.0 0 0,1 10.666146001902534,-42.60595125391555" fill="none" id="id118" stroke="none" /><text fill="#006cb8" style="font-size:6.75px; font-family:Arial;" text-anchor="middle"><textPath startOffset="22.20632615414155" xlink:href="#id118">October</textPath></text><path d="M 79.00175016825051 100.2711162175752 l -11.83918816600693 0.15286016408261252 a32.84017494211474,32.84017494211474 0 0,0 -0.00243283567479253,-0.5653053321765544 l 11.840065298971224 0.05095464629761726" fill="#f36b00" stroke="none" /><path d="M 79.62865764111835 94.90015583598534 l -14.382786130479355 -3.600644798835083 a35.82663750964754,35.82663750964754 0 0,0 0.15491381441089683,-0.5969461202471822 l 14.31867598419815 3.847687344631129" fill="#ef8c00" stroke="none" /><path d="M 81.26839172434947 90.50648371742162 l -4.537353919664101 -2.2996126484315997 a26.08682601679257,26.08682601679257 0 0,0 0.20644687632305916,-0.3987896543351988 l 4.497097610180927 2.377375025027134" fill="#fc1a00" stroke="none" /><line stroke="#006cb8" stroke-width="0.3" x1="26.266209847984243" x2="21.928928074336255" y1="57.711370442889674" y2="55.22380399835377" /><path d="M 25.398753493254645 57.213857153982495 a86.0,86.0 0 0,1 29.58750427330803,-30.492523968695096" fill="none" id="id119" stroke="none" /><text fill="#006cb8" style="font-size:6.75px; font-family:Arial;" text-anchor="middle"><textPath startOffset="21.46611528233685" xlink:href="#id119">November</textPath></text><path d="M 82.54541684631803 88.32363383020206 l -3.7005006284701056 -2.4754759233806007 a25.452155202656876,25.452155202656876 0 0,0 0.24673505215538205,-0.36205324353170637 l 3.657341110645983 2.538807190182723" fill="#fd1200" stroke="none" /><path d="M 83.84228863543731 86.58626213691792 l -22.79950306253366 -18.927591327080297 a50.63226372289918,50.63226372289918 0 0,0 0.5624747496034899,-0.6657926898617614 l 22.470317699443044 19.317242966571175" fill="#95db00" stroke="none" /><path d="M 86.37877921826538 84.01681056812374 l -9.764424538554449 -11.457610855427461 a36.053930818345535,36.053930818345535 0 0,0 0.47581310425248186,-0.3984797911591218 l 9.565753897342857 11.623991803980395" fill="#ef8f00" stroke="none" /><line stroke="#006cb8" stroke-width="0.3" x1="56.762969772571076" x2="54.21961505331055" y1="26.818313649435495" y2="22.513508569990535" /><path d="M 56.25429882871897 25.957352633546506 a86.0,86.0 0 0,1 42.265352541879196,-11.944610805530505" fill="none" id="id120" stroke="none" /><text fill="#006cb8" style="font-size:6.75px; font-family:Arial;" text-anchor="middle"><textPath startOffset="22.20632615414155" xlink:href="#id120">December</textPath></text><path d="M 97.47563105711357 79.15227682838746 l -6.63431930558837 -54.79011010048455 a76.19031035853777,76.19031035853777 0 0,0 1.3033379214626288,-0.14644520154293145 l 5.690214680616024 54.89619125549808" fill="#00b96c" stroke="none" /><path d="M 97.83486435360386 79.11191278185805 l -5.813721143687806 -56.08771649639544 a77.38821947283485,77.38821947283485 0 0,0 1.3261940784523494,-0.12593810768684918 l 4.847401938145221 56.17948014859746" fill="#00b876" stroke="none" /><path d="M 98.55514903715128 79.0497635885617 l -3.90339073499894 -56.59888861008308 a77.73332927941624,77.73332927941624 0 0,0 1.3356731082885478,-0.08057144945699969 l 2.9285555778707693 56.65769332892039" fill="#00b779" stroke="none" /><path d="M 99.63851952072746 79.00311137660856 l -0.05792074333361434 -3.364373642547412 a24.364872184671515,24.364872184671515 0 0,0 0.41940122260614926,-0.0036099187326625514 l 8.241559900995866e-16 3.3648721846715155" fill="#fe0500" stroke="none" /></svg>