<?xml version="1.0" encoding="utf-8" ?>
<svg baseProfile="full" height="200mm" version="1.1" viewBox="0,0,200,200" width="200mm" xmlns="http://www.w3.org/2000/svg" xmlns:ev="http://www.w3.org/2001/xml-events" xmlns:xlink="http://www.w3.org/1999/xlink"><defs /><rect fill="#1a1a1a" height="200" width="200" x="0" y="0" /><text alignment-baseline="middle" fill="#e1ed5e" style="dominant-baseline: central; font-size:9.0px; font-family:Arial;" text-anchor="middle" x="100.0" y="100.0">2023</text><line stroke="#e1ed5e" stroke-width="0.3" x1="100.0" x2="100.0" y1="15.0" y2="10.0" /><path d="M 100.0 14.0 a86.0,86.0 0 0,1 42.46469731375804,11.215312516191453" fill="none" id="id109" stroke="none" /><text fill="#e1ed5e" style="font-size:6.75px; font-family:Arial;" text-anchor="middle"><textPath startOffset="22.20632615414155" xlink:href="#id109">January</textPath></text><line stroke="#e1ed5e" stroke-width="0.3" x1="143.23703022742887" x2="145.7803849466894" y1="26.81831364943548" y2="22.513508569990506" /><path d="M 143.74570117128098 25.957352633546492 a86.0,86.0 0 0,1 28.547481713284135,27.462654790039103" fill="none" id="id110" stroke="none" /><text fill="#e1ed5e" style="font-size:6.75px; font-family:Arial;" text-anchor="middle"><textPath startOffset="19.985693538727396" xlink:href="#id110">February</textPath></text><path d="M 116.15771136456269 86.58626213691792 l 11.258304269785501 -9.346369597177636 a35.63229440922089,35.63229440922089 0 0,0 0.3877158572992533,0.4752937970098826 l -11.417518619161164 9.151191630559653" fill="#ffa70f" stroke="none" /><path d="M 116.82858285166822 87.43820079747576 l 30.392305061753607 -22.686523093046077 a58.92585578491284,58.92585578491284 0 0,0 0.5997456414698136,0.8180523809571174 l -30.778313315737044 22.160008268417464" fill="#43ff2d" stroke="none" /><path d="M 117.65298651832404 88.62581576622439 l 25.357324559118183 -16.33824854007963 a51.165083692141025,51.165083692141025 0 0,0 0.4706515335756064,0.7444576989063427 l -25.634803688939748 15.899343193459082" fill="#97ff23" stroke="none" /><line stroke="#e1ed5e" stroke-width="0.3" x1="172.23445277983987" x2="176.4835382374775" y1="55.19839476539836" y2="52.563006222186495" /><path d="M 173.08426987136738 54.67131705675599 a86.0,86.0 0 0,1 12.851231095245387,41.99856678651699" fill="none" id="id111" stroke="none" /><text fill="#e1ed5e" style="font-size:6.75px; font-family:Arial;" text-anchor="middle"><textPath startOffset="22.20632615414155" xlink:href="#id111">March</textPath></text><path d="M 118.03404312379186 89.2402003453031 l 13.237508545366747 -7.898003730931317 a36.41460656074175,36.41460656074175 0 0,0 0.3165301969348931,0.5410527113325877 l -13.371498416771969 7.668971607244834" fill="#ffb110" stroke="none" /><path d="M 119.196687751892 91.48605970444005 l 13.97464788030206 -6.1979086831080314 a36.28740839457679,36.28740839457679 0 0,0 0.24832560485873229,0.5731697335817338 l -14.079264195003473 5.956439804939695" fill="#ffaf10" stroke="none" /><path d="M 119.47837535516314 92.15188598940014 l 13.740976669558005 -5.5364346129154205 a35.814403398599126,35.814403398599126 0 0,0 0.22547119697302637,0.5737996029772608 l -13.834241416412732 5.299086005042375" fill="#ffa90f" stroke="none" /><path d="M 119.61058180528143 92.48833698450437 l 11.39786154201787 -4.3658518574832765 a33.20540495733346,33.20540495733346 0 0,0 0.1998576582643969,0.5355191611723963 l -11.471323788783891 4.169009559281546" fill="#ff850c" stroke="none" /><path d="M 120.28053869075195 94.5502522615342 l 2.8771631308385 -0.7731457977807255 a23.97923179797786,23.97923179797786 0 0,0 0.10368581934231745,0.3995437580335771 l -2.89004528205112 0.723505614198298" fill="#ff0000" stroke="none" /><path d="M 120.37134235888165 94.90015583598534 l 61.102446105962166 -15.296633265046049 a83.98806164168988,83.98806164168988 0 0,0 0.33902060937560646,1.4054592964376176 l -61.35669951559859 14.242588736949026" fill="#4dd2ff" stroke="none" /><path d="M 120.83666639777658 97.38593545837742 l 62.50999919332973 -7.84219362486773 a84.0,84.0 0 0,0 0.16763858798564435,1.436225046700589 l -62.63572813431897 6.7650248398422885" fill="#4dd2ff" stroke="none" /><line stroke="#e1ed5e" stroke-width="0.3" x1="184.98032266829074" x2="189.97916517819016" y1="98.17113171792111" y2="98.06355123074" /><path d="M 185.9800911702706 98.14961562048488 a86.0,86.0 0 0,1 -9.607161424134198,41.387399972396054" fill="none" id="id112" stroke="none" /><text fill="#e1ed5e" style="font-size:6.75px; font-family:Arial;" text-anchor="middle"><textPath startOffset="21.466115282336823" xlink:href="#id112">April</textPath></text><path d="M 120.99980553446 99.90962569577887 l 14.697349995905814 -0.06325119428343186 a35.69748609850443,35.69748609850443 0 0,0 -0.002644508375303421,0.6144906131697656 l -14.696261190241007 -0.1897488970900184" fill="#ffa70f" stroke="none" /><path d="M 120.9764740272857 100.99374915477107 l 14.574673103985699 0.6904672853650458 a35.59101919538877,35.59101919538877 0 0,0 -0.03425830350337132,0.61170502247927 l -14.560628449594798 -0.9412440241797391" fill="#ffa60f" stroke="none" /><path d="M 120.89721153311464 102.0752229133903 l 14.537897615898887 1.443703538973506 a35.60940611382965,35.60940611382965 0 0,0 -0.0658226281072971,0.6094357872765986 l -14.510892686290537 -1.6937356481348962" fill="#ffa60f" stroke="none" /><path d="M 120.76222939487914 103.15116336523771 l 30.41278968289812 4.615865996888799 a51.76107922679938,51.76107922679938 0 0,0 -0.14127877398316657,0.8797430604542992 l -30.328829154553663 -5.138688287036303" fill="#90ff24" stroke="none" /><path d="M 120.64145759157962 103.86396538481128 l 30.00893432577019 5.617504624147888 a51.530189936695635,51.530189936695635 0 0,0 -0.1707123222701273,0.870458453410681 l -29.9077920705244 -6.133226804626514" fill="#93ff23" stroke="none" /><path d="M 120.02730092923936 106.31721596034902 l 13.887144524436845 4.380425067931401 a35.561624456713545,35.561624456713545 0 0,0 -0.18916709610785948,0.5821964574664122 l -13.809685177312739 -4.618820425375608" fill="#ffa60f" stroke="none" /><path d="M 119.54520255179757 107.68017299344265 l 14.118875176149789 5.547929397932007 a36.169777745377054,36.169777745377054 0 0,0 -0.23268773410912313,0.5775118734766601 l -14.021284827783273 -5.790140639251481" fill="#ffae10" stroke="none" /><path d="M 118.97047184881838 109.00673069616215 l 3.458816226785139 1.6421640183984083 a24.82885261586217,24.82885261586217 0 0,0 -0.186626358447956,0.3845055753042304 l -3.4300366117224685 -1.7014585496679142" fill="#ff0d01" stroke="none" /><path d="M 118.64920377521936 109.65438752849418 l 16.249406124793897 8.412051566786097 a39.297699608714694,39.297699608714694 0 0,0 -0.31615465625828326,0.5980454636476529 l -16.10219896031072 -8.690512045519885" fill="#ffd714" stroke="none" /><line stroke="#e1ed5e" stroke-width="0.3" x1="174.80103733775053" x2="179.2010983576182" y1="140.37084112569926" y2="142.7455964860345" /><path d="M 175.68104954172406 140.8457921977663 a86.0,86.0 0 0,1 -30.038265399797805,32.042727171017184" fill="none" id="id113" stroke="none" /><text fill="#e1ed5e" style="font-size:6.75px; font-family:Arial;" text-anchor="middle"><textPath startOffset="22.206326154141568" xlink:href="#id113">May</textPath></text><path d="M 118.48025628344425 109.97397251340804 l 6.388665771601807 3.448024520114035 a28.259746788459232,28.259746788459232 0 0,0 -0.23472221442067764,0.42608899884948287 l -6.32836714772962 -3.557484037361323" fill="#ff3f05" stroke="none" /><path d="M 118.30583269289576 110.29060199501025 l 22.697128097892953 12.75916346464941 a47.0375858368207,47.0375858368207 0 0,0 -0.40283885326491936,0.7023834960553795 l -22.474137248475657 -13.147966806563105" fill="#c7ff1e" stroke="none" /><path d="M 116.93607887273984 112.41649034213515 l 11.971335066088784 8.776645842728561 a35.84393396351693,35.84393396351693 0 0,0 -0.36908794652074617,0.49445361985473746 l -11.818485852872946 -8.981412342092613" fill="#ffa90f" stroke="none" /><path d="M 116.498646956653 112.99209946851258 l 23.730986985797443 18.68731079678816 a51.20555128011808,51.20555128011808 0 0,0 -0.551269426085302,0.6877933705906145 l -23.405799647657286 -19.093032000957024" fill="#96ff23" stroke="none" /><path d="M 115.56566222782051 114.09645910891815 l 13.828240955772438 12.52302859514171 a39.65600421112836,39.65600421112836 0 0,0 -0.46256574647869847,0.5020237599581646 l -13.610628801298018 -12.75920360990121" fill="#ffdc14" stroke="none" /><path d="M 115.07121518719521 114.62390073753431 l 11.16136765418081 10.830097682404775 a36.552078437373666,36.552078437373666 0 0,0 -0.4420353806131644,0.447779506798988 l -10.97329164851211 -11.020617683184428" fill="#ffb310" stroke="none" /><path d="M 114.29624159901734 115.38237550388516 l 10.367719541098184 11.155390316788024 a36.22932505407765,36.22932505407765 0 0,0 -0.46045824664022655,0.42061769094619367 l -10.174161744991093 -11.332200774320802" fill="#ffaf10" stroke="none" /><path d="M 112.92097659922987 116.55440617244103 l 5.735834894287022 7.348774285664071 a30.32224680193343,30.32224680193343 0 0,0 -0.414218166428797,0.3176048268488647 l -5.608487999364731 -7.446418454340307" fill="#ff5d08" stroke="none" /><path d="M 112.63410532772338 116.77436683061366 l 5.678071884050272 7.538805337062673 a30.43790687761682,30.43790687761682 0 0,0 -0.42122443845883795,0.31161176951776076 l -5.54746247517287 -7.635427055320203" fill="#ff5f08" stroke="none" /><line stroke="#e1ed5e" stroke-width="0.3" x1="143.8653032363475" x2="146.44561519142675" y1="172.8068346515853" y2="177.08958963109032" /><path d="M 144.38136562736335 173.6633856474863 a86.0,86.0 0 0,1 -40.68145358897372,12.25698825130547" fill="none" id="id114" stroke="none" /><text fill="#e1ed5e" style="font-size:6.75px; font-family:Arial;" text-anchor="middle"><textPath startOffset="21.466115282336833" xlink:href="#id114">June</textPath></text><line stroke="#e1ed5e" stroke-width="0.3" x1="102.19456741930631" x2="102.32365962044197" y1="184.97166512339345" y2="189.96999836594603" /><path d="M 102.22038585953345 185.97133177190398 a86.0,86.0 0 0,1 -42.740103519485714,-10.115201625700543" fill="none" id="id115" stroke="none" /><text fill="#e1ed5e" style="font-size:6.75px; font-family:Arial;" text-anchor="middle"><textPath startOffset="22.20632615414155" xlink:href="#id115">July</textPath></text><path d="M 98.37488393609728 120.93702456842531 l -0.24202825097633437 3.1181474046692212 a24.127526324671955,24.127526324671955 0 0,0 -0.41379360498434004,-0.03570385339073395 l 0.2956661737022161 -3.113519298999824" fill="#ff0200" stroke="none" /><path d="M 91.40352486487194 119.15986991738527 l -2.9213146305367306 6.511041726872212 a28.136367671277807,28.136367671277807 0 0,0 -0.44017606013665156,-0.2020632399363354 l 3.032958686440802 -6.459791416601802" fill="#ff3e05" stroke="none" /><path d="M 90.7491055286396 118.85261126421891 l -4.9951993672414305 10.179832031315607 a32.33935610624732,32.33935610624732 0 0,0 -0.49763507398997525,-0.24952455683324756 l 5.169688348914167 -10.092339633573058" fill="#ff790b" stroke="none" /><line stroke="#e1ed5e" stroke-width="0.3" x1="58.666819895761336" x2="56.23545636021788" y1="174.27360380694188" y2="178.64263932499728" /><path d="M 58.180547188652646 175.14741091055294 a86.0,86.0 0 0,1 -31.652253787137756,-30.449443065178592" fill="none" id="id116" stroke="none" /><text fill="#e1ed5e" style="font-size:6.75px; font-family:Arial;" text-anchor="middle"><textPath startOffset="22.20632615414155" xlink:href="#id116">August</textPath></text><line stroke="#e1ed5e" stroke-width="0.3" x1="26.63291911575756" x2="22.317208475507996" y1="142.92168965132927" y2="145.44649492493687" /><path d="M 25.769776987707644 143.4266507060508 a86.0,86.0 0 0,1 -11.730757126820373,-40.83630448921669" fill="none" id="id117" stroke="none" /><text fill="#e1ed5e" style="font-size:6.75px; font-family:Arial;" text-anchor="middle"><textPath startOffset="21.46611528233685" xlink:href="#id117">September</textPath></text><path d="M 79.1416061653843 102.43462659150553 l -6.245159131150562 0.7289454120695424 a27.28755707625549,27.28755707625549 0 0,0 -0.05044000777899637,-0.46701182761834115 l 6.2567814404306095 -0.6213372625664192" fill="#ff3104" stroke="none" /><path d="M 79.07016306316243 101.71520430193888 l -14.312576114589303 1.172918460743656 a35.36055614352959,35.36055614352959 0 0,0 -0.04449274194547765,-0.6070681141979488 l 14.330645415199116 -0.9263772100489466" fill="#ffa30f" stroke="none" /><path d="M 79.04373962182676 101.35467743843564 l -3.3550504323863954 0.21688082909589151 a24.362053048047496,24.362053048047496 0 0,0 -0.023449809141551075,-0.4187120949131811 l 3.358286592415478 -0.1590970178472728" fill="#ff0600" stroke="none" /><path d="M 79.0235259727143 100.99374915477108 l -24.838975854670394 1.1767330977003068 a45.866833781004814,45.866833781004814 0 0,0 -0.03057323075250275,-0.7889592366250462 l 24.855551218274098 -0.7489966140612638" fill="#d5ff1c" stroke="none" /><line stroke="#e1ed5e" stroke-width="0.3" x1="15.007084014347285" x2="10.007500721073583" y1="101.09737516637583" y2="101.16192664675087" /><path d="M 14.007167355692545 101.11028546245083 a86.0,86.0 0 0,1 10.666146001902534,-42.60595125391555" fill="none" id="id118" stroke="none" /><text fill="#e1ed5e" style="font-size:6.75px; font-family:Arial;" text-anchor="middle"><textPath startOffset="22.20632615414155" xlink:href="#id118">October</textPath></text><path d="M 79.00175016825051 100.2711162175752 l -8.892548163762452 0.11481499849188796 a29.893289342460058,29.893289342460058 0 0,0 -0.0022145272026540858,-0.5145781315530664 l 8.89320698825461 0.03827261126485389" fill="#ff5708" stroke="none" /><path d="M 79.62865764111835 94.90015583598534 l -14.308704076732157 -3.5820987981442576 a35.75026929093696,35.75026929093696 0 0,0 0.15458359944006583,-0.5956736672614061 l 14.244924145421784 3.8278688909545275" fill="#ffa80f" stroke="none" /><line stroke="#e1ed5e" stroke-width="0.3" x1="26.266209847984243" x2="21.928928074336255" y1="57.711370442889674" y2="55.22380399835377" /><path d="M 25.398753493254645 57.213857153982495 a86.0,86.0 0 0,1 29.58750427330803,-30.492523968695096" fill="none" id="id119" stroke="none" /><text fill="#e1ed5e" style="font-size:6.75px; font-family:Arial;" text-anchor="middle"><textPath startOffset="21.46611528233685" xlink:href="#id119">November</textPath></text><path d="M 82.54541684631803 88.32363383020206 l -3.652736113436972 -2.443523515091089 a25.394688644626573,25.394688644626573 0 0,0 0.24617796714313459,-0.36123579001691314 l 3.610133680625097 2.506037328378418" fill="#ff1502" stroke="none" /><path d="M 83.84228863543731 86.58626213691792 l -22.856304920036845 -18.97474684369356 a50.706088473239944,50.706088473239944 0 0,0 0.5632948701137975,-0.6667634538666408 l 22.526299436435924 19.365369247189314" fill="#9cff22" stroke="none" /><path d="M 86.37877921826538 84.01681056812374 l -9.780985964917377 -11.477044092657984 a36.07946376867315,36.07946376867315 0 0,0 0.47615006924021974,-0.39876198964575804 l 9.581978358718048 11.643707239697553" fill="#ffad10" stroke="none" /><line stroke="#e1ed5e" stroke-width="0.3" x1="56.762969772571076" x2="54.21961505331055" y1="26.818313649435495" y2="22.513508569990535" /><path d="M 56.25429882871897 25.957352633546506 a86.0,86.0 0 0,1 42.265352541879196,-11.944610805530505" fill="none" id="id120" stroke="none" /><text fill="#e1ed5e" style="font-size:6.75px; font-family:Arial;" text-anchor="middle"><textPath startOffset="22.20632615414155" xlink:href="#id120">December</textPath></text><path d="M 97.47563105711357 79.15227682838746 l -6.60053121981779 -54.511068219293314 a75.9092302877416,75.9092302877416 0 0,0 1.2985296681097795,-0.14590493825454554 l 5.661234848198292 54.616609111018455" fill="#43ffdc" stroke="none" /><path d="M 97.83486435360386 79.11191278185805 l -5.796763858024874 -55.92412154450415 a77.22374802296781,77.22374802296781 0 0,0 1.323375547875293,-0.12567045424675372 l 4.833263183059344 56.01561754326609" fill="#44ffea" stroke="none" /></svg>