<?xml version="1.0" encoding="utf-8" ?>
<svg baseProfile="full" height="200mm" version="1.1" viewBox="0,0,200,200" width="200mm" xmlns="http://www.w3.org/2000/svg" xmlns:ev="http://www.w3.org/2001/xml-events" xmlns:xlink="http://www.w3.org/1999/xlink"><defs /><rect fill="#1a1a1a" height="200" width="200" x="0" y="0" /><text alignment-baseline="middle" fill="#e1ed5e" style="dominant-baseline: central; font-size:9.0px; font-family:Arial;" text-anchor="middle" x="100.0" y="100.0">2019</text><line stroke="#e1ed5e" stroke-width="0.3" x1="100.0" x2="100.0" y1="15.0" y2="10.0" /><path d="M 100.0 14.0 a86.0,86.0 0 0,1 42.46469731375804,11.215312516191453" fill="none" id="id61" stroke="none" /><text fill="#e1ed5e" style="font-size:6.75px; font-family:Arial;" text-anchor="middle"><textPath startOffset="22.20632615414155" xlink:href="#id61">January</textPath></text><path d="M 100.72285384407766 79.0124445844662 l 1.0745072194816558 -31.197565037559063 a52.216063653789625,52.216063653789625 0 0,0 0.89801476595754,0.03867040484637096 l -1.6113628178285275 31.174446906188496" fill="#a1ff22" stroke="none" /><path d="M 102.16513564639614 79.11191278185805 l 1.6790372985047028 -16.19846663743992 a37.28525368712518,37.28525368712518 0 0,0 0.6378145044048642,0.07166589117559871 l -1.9576185064192921 16.167164792793724" fill="#ff960d" stroke="none" /><path d="M 103.2404852339499 79.25152402106235 l 3.4152121621295817 -21.86723357555555 a43.13231976906763,43.13231976906763 0 0,0 0.7325732730050114,0.12088086697584453 l -3.791114641273468 21.80520644564008" fill="#ffe815" stroke="none" /><path d="M 105.01212808612495 79.60689891045804 l 5.2861100233110445 -21.50786536645897 a43.14793967393524,43.14793967393524 0 0,0 0.7197304637778226,0.18347532068423114 l -5.655549375773892 21.41368704960587" fill="#ffe815" stroke="none" /><path d="M 105.71112130821622 79.79150937346287 l 6.263508474984048 -22.16308242723794 a44.03114762865151,44.03114762865151 0 0,0 0.7275828072383809,0.21240137306712686 l -6.644081499945856 22.051982725252106" fill="#fff417" stroke="none" /><path d="M 109.41281617654863 81.2277094730956 l 10.991468262665235 -21.920648578909923 a45.521973996586055,45.521973996586055 0 0,0 0.6974389389361403,0.35725531319844595 l -11.36716768919013 21.728200740398975" fill="#f6ff19" stroke="none" /><path d="M 110.36928655335952 81.73862282372117 l 12.391691943485645 -21.8230405021387 a46.09579897074873,46.09579897074873 0 0,0 0.6866150732224552,0.39773176834684304 l -12.765503749173428 21.606504576401807" fill="#efff19" stroke="none" /><line stroke="#e1ed5e" stroke-width="0.3" x1="143.23703022742887" x2="145.7803849466894" y1="26.81831364943548" y2="22.513508569990506" /><path d="M 143.74570117128098 25.957352633546492 a86.0,86.0 0 0,1 28.547481713284135,27.462654790039103" fill="none" id="id62" stroke="none" /><text fill="#e1ed5e" style="font-size:6.75px; font-family:Arial;" text-anchor="middle"><textPath startOffset="19.985693538727396" xlink:href="#id62">February</textPath></text><path d="M 112.48926042617603 83.11751280151076 l 8.130963977448154 -10.991114811966122 a34.67176579715951,34.67176579715951 0 0,0 0.47674312999611207,0.3590730415914649 l -8.31895326120265 10.84952518086881" fill="#ff6f0a" stroke="none" /><path d="M 113.06298171725822 83.55741782278167 l 29.24020343064536 -36.80510760814867 a68.00644043865614,68.00644043865614 0 0,0 0.9103037753825046,0.7360690123084128 l -29.869410604592353 36.29633249857612" fill="#37ff7a" stroke="none" /><line stroke="#e1ed5e" stroke-width="0.3" x1="172.23445277983987" x2="176.4835382374775" y1="55.19839476539836" y2="52.563006222186495" /><path d="M 173.08426987136738 54.67131705675599 a86.0,86.0 0 0,1 12.851231095245387,41.99856678651699" fill="none" id="id63" stroke="none" /><text fill="#e1ed5e" style="font-size:6.75px; font-family:Arial;" text-anchor="middle"><textPath startOffset="22.20632615414155" xlink:href="#id63">March</textPath></text><line stroke="#e1ed5e" stroke-width="0.3" x1="184.98032266829074" x2="189.97916517819016" y1="98.17113171792111" y2="98.06355123074" /><path d="M 185.9800911702706 98.14961562048488 a86.0,86.0 0 0,1 -9.607161424134198,41.387399972396054" fill="none" id="id64" stroke="none" /><text fill="#e1ed5e" style="font-size:6.75px; font-family:Arial;" text-anchor="middle"><textPath startOffset="21.466115282336823" xlink:href="#id64">April</textPath></text><line stroke="#e1ed5e" stroke-width="0.3" x1="174.80103733775053" x2="179.2010983576182" y1="140.37084112569926" y2="142.7455964860345" /><path d="M 175.68104954172406 140.8457921977663 a86.0,86.0 0 0,1 -30.038265399797805,32.042727171017184" fill="none" id="id65" stroke="none" /><text fill="#e1ed5e" style="font-size:6.75px; font-family:Arial;" text-anchor="middle"><textPath startOffset="22.206326154141568" xlink:href="#id65">May</textPath></text><line stroke="#e1ed5e" stroke-width="0.3" x1="143.8653032363475" x2="146.44561519142675" y1="172.8068346515853" y2="177.08958963109032" /><path d="M 144.38136562736335 173.6633856474863 a86.0,86.0 0 0,1 -40.68145358897372,12.25698825130547" fill="none" id="id66" stroke="none" /><text fill="#e1ed5e" style="font-size:6.75px; font-family:Arial;" text-anchor="middle"><textPath startOffset="21.466115282336833" xlink:href="#id66">June</textPath></text><path d="M 109.2508944713604 118.85261126421891 l 6.9432721588436666 14.149854515971388 a36.761580222012306,36.761580222012306 0 0,0 -0.5704825380308096,0.2738662864215323 l -6.698676952812624 -14.26727507889248" fill="#ff8e0d" stroke="none" /><line stroke="#e1ed5e" stroke-width="0.3" x1="102.19456741930631" x2="102.32365962044197" y1="184.97166512339345" y2="189.96999836594603" /><path d="M 102.22038585953345 185.97133177190398 a86.0,86.0 0 0,1 -42.740103519485714,-10.115201625700543" fill="none" id="id67" stroke="none" /><text fill="#e1ed5e" style="font-size:6.75px; font-family:Arial;" text-anchor="middle"><textPath startOffset="22.20632615414155" xlink:href="#id67">July</textPath></text><line stroke="#e1ed5e" stroke-width="0.3" x1="58.666819895761336" x2="56.23545636021788" y1="174.27360380694188" y2="178.64263932499728" /><path d="M 58.180547188652646 175.14741091055294 a86.0,86.0 0 0,1 -31.652253787137756,-30.449443065178592" fill="none" id="id68" stroke="none" /><text fill="#e1ed5e" style="font-size:6.75px; font-family:Arial;" text-anchor="middle"><textPath startOffset="22.20632615414155" xlink:href="#id68">August</textPath></text><line stroke="#e1ed5e" stroke-width="0.3" x1="26.63291911575756" x2="22.317208475507996" y1="142.92168965132927" y2="145.44649492493687" /><path d="M 25.769776987707644 143.4266507060508 a86.0,86.0 0 0,1 -11.730757126820373,-40.83630448921669" fill="none" id="id69" stroke="none" /><text fill="#e1ed5e" style="font-size:6.75px; font-family:Arial;" text-anchor="middle"><textPath startOffset="21.46611528233685" xlink:href="#id69">September</textPath></text><path d="M 80.0844068197444 106.66101706037122 l -6.152049729812847 2.057629307630275 a27.487029693604722,27.487029693604722 0 0,0 -0.1462149625391475,-0.45000338309543264 l 6.186556943368244 -1.9514270245570389" fill="#ff0000" stroke="none" /><line stroke="#e1ed5e" stroke-width="0.3" x1="15.007084014347285" x2="10.007500721073583" y1="101.09737516637583" y2="101.16192664675087" /><path d="M 14.007167355692545 101.11028546245083 a86.0,86.0 0 0,1 10.666146001902534,-42.60595125391555" fill="none" id="id70" stroke="none" /><text fill="#e1ed5e" style="font-size:6.75px; font-family:Arial;" text-anchor="middle"><textPath startOffset="22.20632615414155" xlink:href="#id70">October</textPath></text><line stroke="#e1ed5e" stroke-width="0.3" x1="26.266209847984243" x2="21.928928074336255" y1="57.711370442889674" y2="55.22380399835377" /><path d="M 25.398753493254645 57.213857153982495 a86.0,86.0 0 0,1 29.58750427330803,-30.492523968695096" fill="none" id="id71" stroke="none" /><text fill="#e1ed5e" style="font-size:6.75px; font-family:Arial;" text-anchor="middle"><textPath startOffset="21.46611528233685" xlink:href="#id71">November</textPath></text><path d="M 85.31137513191541 84.99185889309783 l -12.30744652067488 -12.575165865205154 a38.595682322566894,38.595682322566894 0 0,0 0.4788010461542998,-0.4606062270468598 l 12.089162230908153 12.785155179014327" fill="#ffa90f" stroke="none" /><path d="M 87.22198572758235 83.33499621200491 l -34.069694000992754 -44.433475145504985 a76.9917651340578,76.9917651340578 0 0,0 1.0586508719709466,-0.797353888634245 l 33.29979697526341 45.01334562364509" fill="#43ffe3" stroke="none" /><line stroke="#e1ed5e" stroke-width="0.3" x1="56.762969772571076" x2="54.21961505331055" y1="26.818313649435495" y2="22.513508569990535" /><path d="M 56.25429882871897 25.957352633546506 a86.0,86.0 0 0,1 42.265352541879196,-11.944610805530505" fill="none" id="id72" stroke="none" /><text fill="#e1ed5e" style="font-size:6.75px; font-family:Arial;" text-anchor="middle"><textPath startOffset="22.20632615414155" xlink:href="#id72">December</textPath></text><path d="M 96.40284397218896 79.31037775812273 l -6.6218152541788 -38.08643692551469 a59.65779500879071,59.65779500879071 0 0,0 1.0132472907518575,-0.1671944848118572 l 5.9652387572880565 38.194777673266174" fill="#4bff2c" stroke="none" /><path d="M 97.47563105711357 79.15227682838746 l -7.573106828659279 -62.54316951483762 a84.0,84.0 0 0,0 1.436933185961128,-0.16145618611760604 l 6.495406939188433 62.66426165442583" fill="#4dd2ff" stroke="none" /><path d="M 98.91598698831166 79.02799685794201 l -1.3048714106518566 -25.244869783943386 a46.27857076273487,46.27857076273487 0 0,0 0.7959014330895756,-0.03427318993197929 l 0.8701291451729569 25.263590700399558" fill="#ecff1a" stroke="none" /><path d="M 99.27714615592234 79.0124445844662 l -1.7135475117330197 -49.75165263945528 a70.78115291384867,70.78115291384867 0 0,0 1.218020161583966,-0.031457867264208385 l 0.8569007149541745 49.77377729886185" fill="#3bff9b" stroke="none" /></svg>