<?xml version="1.0" encoding="utf-8" ?>
<svg baseProfile="full" height="200mm" version="1.1" viewBox="0,0,200,200" width="200mm" xmlns="http://www.w3.org/2000/svg" xmlns:ev="http://www.w3.org/2001/xml-events" xmlns:xlink="http://www.w3.org/1999/xlink"><defs /><rect fill="#1a1a1a" height="200" width="200" x="0" y="0" /><text alignment-baseline="middle" fill="#e1ed5e" style="dominant-baseline: central; font-size:9.0px; font-family:Arial;" text-anchor="middle" x="100.0" y="100.0">2024</text><line stroke="#e1ed5e" stroke-width="0.3" x1="100.0" x2="100.0" y1="15.0" y2="10.0" /><path d="M 100.0 14.0 a86.0,86.0 0 0,1 42.35913384403234,11.155469271406648" fill="none" id="id121" stroke="none" /><text fill="#e1ed5e" style="font-size:6.75px; font-family:Arial;" text-anchor="middle"><textPath startOffset="22.145653131862478" xlink:href="#id121">January</textPath></text><path d="M 100.0 79.0 l 0.0 -1.2162176166446663 a22.216217616644666,22.216217616644666 0 0,0 0.3813709175096614,0.0032736106514342053 l -0.02087799266080662 1.216038404187667" fill="#ff0000" stroke="none" /><path d="M 100.72087961077811 79.0123766808444 l 0.7431281051025013 -21.6353639561735 a42.648122618293826,42.648122618293826 0 0,0 0.7314645298022023,0.031412234207868206 l -1.11441839550554 21.619419153539802" fill="#eeff19" stroke="none" /><path d="M 101.44090949804482 79.04949213459386 l 1.455656835361281 -21.16493091339191 a42.21492958722669,42.21492958722669 0 0,0 0.7225406941442679,0.05592921939348689 l -1.8187665242807824 21.13682392700337" fill="#f3ff19" stroke="none" /><path d="M 102.15924093988457 79.11130261209362 l 0.1511673050141117 -1.462406548087185 a22.470198784516402,22.470198784516402 0 0,0 0.3833459765897925,0.04295471626007613 l -0.1762491832047009 1.4595960713201381" fill="#ff0400" stroke="none" /><path d="M 102.51750503828377 79.15144685158666 l 2.4967925237659583 -20.67702381552418 a41.82722465367116,41.82722465367116 0 0,0 0.7121028791639852,0.09219597450408758 l -2.851373224820735 20.631116244819697" fill="#f8ff18" stroke="none" /><path d="M 103.23170211078529 79.25015418208739 l 3.1748752223561536 -20.384976429338334 a41.63073185086294,41.63073185086294 0 0,0 0.7051898992246205,0.11603872956118276 l -3.524342624633845 20.327471701281482" fill="#faff18" stroke="none" /><path d="M 103.94208987418118 79.37332000966035 l 3.8626375897194385 -20.210952064696137 a41.57674786041173,41.57674786041173 0 0,0 0.6998822137547054,0.13999604409551875 l -4.209016289005101 20.14166662393776" fill="#fbff18" stroke="none" /><path d="M 104.64783097203109 79.52079915486377 l 0.721286996333737 -3.1781235922287876 a24.258945304628686,24.258945304628686 0 0,0 0.40531828055128555,0.09565401058564277 l -0.7757374306249075 3.165273437996917" fill="#ff1e03" stroke="none" /><path d="M 105.3480935250658 79.69241777938227 l 5.255038104433511 -19.95423563146263 a41.63460552360963,41.63460552360963 0 0,0 0.6895852459932668,0.18794952524484604 l -5.59680475136147 19.861085612073644" fill="#faff18" stroke="none" /><path d="M 105.69591212413111 79.78721728523813 l 0.983263936128873 -3.4892568317609327 a24.62515119768569,24.62515119768569 0 0,0 0.4058928347937163,0.11814948866289453 l -1.0430167833041937 3.471863648795522" fill="#ff2303" stroke="none" /><path d="M 106.38641147887787 79.99465700312896 l 6.278144672428492 -19.666198767696443 a41.643993666403006,41.643993666403006 0 0,0 0.679148616394498,0.22324963981446191 l -6.614816026470732 19.55552820647996" fill="#faff18" stroke="none" /><path d="M 107.06938296918511 80.22567764915836 l 2.0671221409929594 -5.782108528103756 a27.140502664811205,27.140502664811205 0 0,0 0.4373638348253452,0.1606060582682195 l -2.1660751274724293 5.745771620826815" fill="#ff4706" stroke="none" /><path d="M 107.40779381753099 80.34994680014964 l 7.287280176774978 -19.330376449863202 a41.658361650146496,41.658361650146496 0 0,0 0.6669855564692964,0.25800434172400527 l -7.6180379957378 19.20243222000116" fill="#faff18" stroke="none" /><path d="M 108.73861861582097 80.90454125486305 l 8.65250643618801 -18.907288091864842 a41.793061597971786,41.793061597971786 0 0,0 0.6498050616000562,0.3041415794098508 l -8.975800211659573 18.75597028088446" fill="#f8ff18" stroke="none" /><path d="M 109.3889696526874 81.21577127319529 l 22.960304533243967 -45.935989564743956 a72.35455891692158,72.35455891692158 0 0,0 1.10624186919736,0.5648549806975591 l -23.745473624154908 45.53507663237357" fill="#3effba" stroke="none" /><line stroke="#e1ed5e" stroke-width="0.3" x1="143.13028292997686" x2="145.6673583964461" y1="26.7553504044142" y2="22.446841604673864" /><path d="M 143.63769802327073 25.89364864446614 a86.0,86.0 0 0,1 29.32050498858742,28.57503671076993" fill="none" id="id122" stroke="none" /><text fill="#e1ed5e" style="font-size:6.75px; font-family:Arial;" text-anchor="middle"><textPath startOffset="20.669276256404974" xlink:href="#id122">February</textPath></text><path d="M 110.96478420261332 82.08984904055464 l 18.18621140419831 -29.705809581911115 a55.830638928319345,55.830638928319345 0 0,0 0.8130958141366446,0.50743192432767 l -18.693471347124667 29.389241860741897" fill="#5bff2a" stroke="none" /><path d="M 111.27062007382361 82.28071324371311 l 3.378340535682924 -5.311312449541672 a27.29469814301645,27.29469814301645 0 0,0 0.3931923024509742,0.25486250003409217 l -3.4690184703909055 5.252536107803686" fill="#ff4906" stroke="none" /><path d="M 111.8722381534696 82.67804972795209 l 11.559455194244311 -16.86559058690623 a41.446739354549464,41.446739354549464 0 0,0 0.5834218860974522,0.4072737873230933 l -11.847272171515524 16.66467198377801" fill="#fcff18" stroke="none" /><path d="M 112.16784306229584 82.88440491214696 l 11.900517135470226 -16.739567693629816 a41.53863273592562,41.53863273592562 0 0,0 0.5776223600948486,0.41815404374246773 l -12.186120505939043 16.53281287851427" fill="#fbff18" stroke="none" /><path d="M 116.57777611688842 87.10902102172516 l 16.68116027556166 -12.97137112537266 a42.13096251975115,42.13096251975115 0 0,0 0.4390608495051121,0.5747447460448066 l -16.901373102421076 12.683105466086971" fill="#f4ff19" stroke="none" /><path d="M 117.42321728460499 88.27688183743584 l 17.48221036653854 -11.762811340866646 a42.071103671633544,42.071103671633544 0 0,0 0.3980238155802937,0.602658786900518 l -17.681558621039557 11.460972675627069" fill="#f5ff19" stroke="none" /><line stroke="#e1ed5e" stroke-width="0.3" x1="172.87174338648825" x2="177.1583165268699" y1="56.24261187166439" y2="53.66864786411523" /><path d="M 173.72905801456457 55.72781907015455 a86.0,86.0 0 0,1 12.242430191666344,42.057860355516425" fill="none" id="id123" stroke="none" /><text fill="#e1ed5e" style="font-size:6.75px; font-family:Arial;" text-anchor="middle"><textPath startOffset="22.145653131862474" xlink:href="#id123">March</textPath></text><path d="M 118.53625476483649 90.13048839642627 l 18.55029822985686 -9.876988957695756 a42.01591005136524,42.01591005136524 0 0,0 0.33351015143986223,0.6395496903477321 l -18.717116450271668 9.557093024243526" fill="#f5ff19" stroke="none" /><path d="M 118.8641267826498 90.77261029715802 l 18.629157661136002 -9.112454531056736 a41.73842671814906,41.73842671814906 0 0,0 0.30930309226019964,0.6463245024863774 l -18.782840011356114 8.791317526505255" fill="#f9ff18" stroke="none" /><path d="M 119.71291397450082 92.76114493625339 l 19.558613098459634 -7.18219364477445 a41.83562458594115,41.83562458594115 0 0,0 0.24176972789786882,0.676272958328481 l -19.679022996401446 6.845385730065052" fill="#f7ff18" stroke="none" /><path d="M 119.94978838288452 93.4421083053983 l 19.647856543581337 -6.458640701894374 a41.68217363995667,41.68217363995667 0 0,0 0.2176112835256366,0.6816642462387483 l -19.75583254288423 6.120407421964238" fill="#f9ff18" stroke="none" /><path d="M 120.35273937422433 94.82641323984039 l 19.97524796640024 -5.077629920459397 a41.61050355833941,41.61050355833941 0 0,0 0.17003334444017956,0.693794069336985 l -20.05946883735671 4.733980026514316" fill="#faff18" stroke="none" /><path d="M 120.51834098615036 95.52812308129327 l 20.21992825913808 -4.40683925376709 a41.69458216570784,41.69458216570784 0 0,0 0.14641209214861076,0.7006348627051081 l -20.292598062111058 4.059087939776577" fill="#f9ff18" stroke="none" /><path d="M 120.65975698304385 96.23510406497455 l 20.03433917180009 -3.650923976053395 a41.36428225913315,41.36428225913315 0 0,0 0.1213060415348309,0.69966101174682 l -20.094060030827155 3.3064699313859824" fill="#fdff18" stroke="none" /><path d="M 120.86939407059847 97.66154086499901 l 20.219280310902565 -2.2656125322195204 a41.345817664498085,41.345817664498085 0 0,0 0.07298050198629587,0.706020154143024 l -20.255193205370528 1.9181878557935648" fill="#fdff18" stroke="none" /><path d="M 120.93736805541906 98.37931529534042 l 20.33078608731481 -1.5737314240358256 a41.39160350544192,41.39160350544192 0 0,0 0.04875544341670467,0.7088934469299382 l -20.35480549189658 1.2244945529515532" fill="#fdff18" stroke="none" /><path d="M 120.98066250479742 99.09900007780936 l 1.9805224416208964 -0.0850521553067839 a22.982347853149474,22.982347853149474 0 0,0 0.013543511820478098,0.39430456938561914 l -1.9816906404382229 0.05104132135704478" fill="#ff0b01" stroke="none" /><line stroke="#e1ed5e" stroke-width="0.3" x1="184.99686870605535" x2="189.99668451229388" y1="99.2704041080226" y2="99.22748670261217" /><path d="M 185.99683186730306 99.26182062694052 a86.0,86.0 0 0,1 -10.086455211305974,41.156179273409016" fill="none" id="id124" stroke="none" /><text fill="#e1ed5e" style="font-size:6.75px; font-family:Arial;" text-anchor="middle"><textPath startOffset="21.40746469413373" xlink:href="#id124">April</textPath></text><path d="M 120.99922638620191 99.81974689727618 l 20.69387286941609 -0.1776320100313639 a41.69463523395721,41.69463523395721 0 0,0 0.0,0.715770225510379 l -20.69387286941609 -0.1776320100313614" fill="#f9ff18" stroke="none" /><path d="M 120.99303781780057 100.54070618675476 l 20.532338162196805 0.528840197840586 a41.53914755684021,41.53914755684021 0 0,0 -0.024479045376195507,0.7126806971465026 l -20.520234429823763 -0.8812271595511993" fill="#fbff18" stroke="none" /><path d="M 120.86939407059847 102.33845913500097 l 20.81687799693225 2.332574599408634 a41.94715526750514,41.94715526750514 0 0,0 -0.08632707323826344,0.7149120050150304 l -20.77376883743432 -2.6895802813470726" fill="#f6ff19" stroke="none" /><path d="M 120.77682067341334 103.0534771498775 l 20.16016052089607 2.9628493433160656 a41.3767158408681,41.3767158408681 0 0,0 -0.10931040262239389,0.7018511988276845 l -20.106328626135408 -3.308488724075201" fill="#fdff18" stroke="none" /><path d="M 120.65975698304385 103.76489593502545 l 20.66146947903474 3.7652080088412334 a42.00174069887842,42.00174069887842 0 0,0 -0.13535302493792548,0.7082242212194614 l -20.593790161814656 -4.119334795094009" fill="#f5ff19" stroke="none" /><path d="M 120.43855184770803 104.8234425847677 l 20.069282124830504 4.736295935637938 a41.62058641736412,41.62058641736412 0 0,0 -0.17007454611029882,0.6939621862112043 l -19.98502005220391 -5.080113946457242" fill="#faff18" stroke="none" /><path d="M 120.26092885502905 105.52220625578681 l 20.23861674273561 5.51612499036367 a41.976873994202585,41.976873994202585 0 0,0 -0.19545533510230897,0.6936020312052461 l -20.14094291555872 -5.862734945471924" fill="#f6ff19" stroke="none" /><path d="M 119.94978838288452 106.5578916946017 l 59.202541622727466 19.46105134328545 a83.31912590831783,83.31912590831783 0 0,0 -0.4583130335361132,1.3549210467603396 l -58.85974316761899 -20.474474064519953" fill="#4cd8ff" stroke="none" /><path d="M 119.4528033332814 107.91128576633889 l 19.313940555920706 7.854811483677097 a41.85009264348109,41.85009264348109 0 0,0 -0.27635839301926574,0.6631595385057735 l -19.176256318364956 -8.185203531624149" fill="#f7ff18" stroke="none" /><path d="M 118.8641267826498 109.22738970284198 l 18.762608853048526 9.177732196345653 a41.88698779719887,41.88698779719887 0 0,0 -0.32149277754531536,0.6432009145645023 l -18.602296162291477 -9.498464967073902" fill="#f7ff19" stroke="none" /><path d="M 118.5362547648365 109.86951160357373 l 18.586909795811 9.896482554411678 a42.05738784150089,42.05738784150089 0 0,0 -0.3447797571402705,0.634355919784733 l -18.41428468905539 -10.214093307671014" fill="#f5ff19" stroke="none" /><line stroke="#e1ed5e" stroke-width="0.3" x1="174.33088141563837" x2="178.70328620479359" y1="141.23008692659167" y2="143.65538615756765" /><path d="M 175.20536237346943 141.71514677278685 a86.0,86.0 0 0,1 -30.301960400862466,31.631185727798858" fill="none" id="id125" stroke="none" /><text fill="#e1ed5e" style="font-size:6.75px; font-family:Arial;" text-anchor="middle"><textPath startOffset="22.145653131862474" xlink:href="#id125">May</textPath></text><path d="M 118.00360718960297 110.81064883170644 l 54.010821568808936 32.43194649511934 a84.0,84.0 0 0,0 -0.7529281421783813,1.2298515355017718 l -53.44612546217515 -33.35433514674567" fill="#4dd2ff" stroke="none" /><path d="M 117.423217284605 111.72311816256416 l 7.38176776484868 4.9667827900184545 a29.89715834507752,29.89715834507752 0 0,0 -0.29015941479925195,0.4233512577112772 l -7.295418613234108 -5.092768782799776" fill="#ff6d0a" stroke="none" /><path d="M 117.21940702142032 112.02048342749411 l 2.9817581719878112 2.0814987790571564 a24.636415675281434,24.636415675281434 0 0,0 -0.24505596480505215,0.3447019036975542 l -2.9455871086527985 -2.1323779094642146" fill="#ff2303" stroke="none" /><path d="M 117.01052211995028 112.31430620078461 l 4.352578142029642 3.150930913574558 a26.37338832624202,26.37338832624202 0 0,0 -0.26862926189117203,0.36444718549891797 l -4.297846860554642 -3.2251844083423533" fill="#ff3c05" stroke="none" /><path d="M 116.57777611688842 112.89097897827486 l 16.52464716723359 12.849665585675684 a41.93269857579904,41.93269857579904 0 0,0 -0.4467501107235725,0.5644541707245508 l -16.301630625868455 -13.131439700314917" fill="#f6ff19" stroke="none" /><path d="M 116.35404254752997 113.17365903436017 l 15.978482736255168 12.871134634881328 a41.517748837093365,41.517748837093365 0 0,0 -0.45185778832235524,0.5511930307046039 l -15.755178128694185 -13.143529947284424" fill="#fbff18" stroke="none" /><path d="M 115.6541949942343 113.99807769240083 l 15.652308469835651 13.996390750650667 a41.997469239881944,41.997469239881944 0 0,0 -0.4851753617341804,0.5332927127594773 l -15.409735407259591 -14.263021038967816" fill="#f5ff19" stroke="none" /><path d="M 115.16444852881244 114.52719865689866 l 15.405269435863527 14.757899638264291 a42.333493106489435,42.333493106489435 0 0,0 -0.5072221723325744,0.5204546326477354 l -15.149660462380146 -15.020176962979763" fill="#f1ff19" stroke="none" /><path d="M 113.86319453409587 115.77377054828091 l 13.900657725430676 15.81639678299674 a42.056749331194624,42.056749331194624 0 0,0 -0.5463782967628426,0.4719485594931702 l -13.627099948904979 -16.05268947495463" fill="#f5ff19" stroke="none" /><path d="M 113.59037401385872 116.0094264158162 l 6.655432584897048 7.840082850161527 a31.284049882682712,31.284049882682712 0 0,0 -0.4123918066136253,0.3440319122999457 l -6.519866444121528 -7.953176946373342" fill="#ff800b" stroke="none" /><path d="M 113.03279911837588 116.46651593811092 l 19.760920584343932 24.967277619974052 a52.841151582403626,52.841151582403626 0 0,0 -0.7160983930654484,0.556842441730104 l -19.32941224664325 -25.30282111332495" fill="#7aff26" stroke="none" /><path d="M 111.8722381534696 117.32195027204791 l 11.974064361828237 17.470517753156273 a42.180113500747666,42.180113500747666 0 0,0 -0.6007727865030157,0.4042267423968139 l -11.672395287228218 -17.67349416961021" fill="#f3ff19" stroke="none" /><path d="M 110.96478420261333 117.91015095944535 l 10.773536864586172 17.597762805573428 a41.633718819781876,41.633718819781876 0 0,0 -0.6127437480901314,0.36793501517026456 l -10.469860359938602 -17.780111821279615" fill="#faff18" stroke="none" /><line stroke="#e1ed5e" stroke-width="0.3" x1="143.1302829299769" x2="145.66735839644613" y1="173.24464959558577" y2="177.55315839532614" /><path d="M 143.63769802327073 174.10635135553383 a86.0,86.0 0 0,1 -40.68552437913181,11.842963189579606" fill="none" id="id126" stroke="none" /><text fill="#e1ed5e" style="font-size:6.75px; font-family:Arial;" text-anchor="middle"><textPath startOffset="21.407464694133747" xlink:href="#id126">June</textPath></text><path d="M 110.34350942703117 118.27599006163325 l 29.030227672539063 51.29363067468651 a79.93887228740124,79.93887228740124 0 0,0 -1.200056860992903,0.6656513114504817 l -28.145426623390065 -51.78441490157014" fill="#48f8ff" stroke="none" /><path d="M 109.3889696526874 118.78422872680471 l 9.159437181627807 18.32501002697881 a41.486612261988554,41.486612261988554 0 0,0 -0.6397625797087404,0.3129399366472453 l -8.843514352656996 -18.479543713723277" fill="#fcff18" stroke="none" /><path d="M 109.06512990194946 118.94263497670748 l 9.0705175977171 18.953893188712804 a42.01248096964348,42.01248096964348 0 0,0 -0.6532166283260553,0.3057383648977219 l -8.743812255519538 -19.10680778518106" fill="#f5ff19" stroke="none" /><path d="M 107.407793817531 119.65005319985036 l 7.381693072685131 19.58081787319168 a41.92600824816884,41.92600824816884 0 0,0 -0.6756293342389945,0.24810044997396502 l -7.04447458679201 -19.704649172174367" fill="#f6ff19" stroke="none" /><path d="M 107.06938296918513 119.77432235084164 l 7.009284286599597 19.606215639479807 a41.82147348081193,41.82147348081193 0 0,0 -0.6780938249899359,0.235876231969452 l -6.671684689564639 -19.72365030401785" fill="#f8ff18" stroke="none" /><line stroke="#e1ed5e" stroke-width="0.3" x1="101.45913802915013" x2="101.54496967792366" y1="184.9874750549273" y2="189.98673829345242" /><path d="M 101.47630435890484 185.9873277026323 a86.0,86.0 0 0,1 -42.54439059252881,-10.42667462771756" fill="none" id="id127" stroke="none" /><text fill="#e1ed5e" style="font-size:6.75px; font-family:Arial;" text-anchor="middle"><textPath startOffset="22.145653131862474" xlink:href="#id127">July</textPath></text><line stroke="#e1ed5e" stroke-width="0.3" x1="58.13341422392154" x2="55.67067388415222" y1="173.97424548756322" y2="178.32567169271397" /><path d="M 57.64086615596768 174.84453072859336 a86.0,86.0 0 0,1 -31.369924170532247,-30.572349798747897" fill="none" id="id128" stroke="none" /><text fill="#e1ed5e" style="font-size:6.75px; font-family:Arial;" text-anchor="middle"><textPath startOffset="22.145653131862474" xlink:href="#id128">August</textPath></text><line stroke="#e1ed5e" stroke-width="0.3" x1="26.387840678322732" x2="22.057713659400548" y1="142.50000000000003" y2="145.00000000000006" /><path d="M 25.521815274538298 143.00000000000003 a86.0,86.0 0 0,1 -11.493303480769221,-40.785679425670985" fill="none" id="id129" stroke="none" /><text fill="#e1ed5e" style="font-size:6.75px; font-family:Arial;" text-anchor="middle"><textPath startOffset="21.40746469413373" xlink:href="#id129">September</textPath></text><line stroke="#e1ed5e" stroke-width="0.3" x1="15.003131293944662" x2="10.003315487706104" y1="100.72959589197737" y2="100.7725132973878" /><path d="M 14.003168132696942 100.73817937305945 a86.0,86.0 0 0,1 10.791469493833604,-42.45332614584628" fill="none" id="id130" stroke="none" /><text fill="#e1ed5e" style="font-size:6.75px; font-family:Arial;" text-anchor="middle"><textPath startOffset="22.145653131862435" xlink:href="#id130">October</textPath></text><line stroke="#e1ed5e" stroke-width="0.3" x1="26.387840678322718" x2="22.05771365940052" y1="57.49999999999999" y2="54.99999999999999" /><path d="M 25.521815274538284 56.99999999999999 a86.0,86.0 0 0,1 29.574782752854787,-30.34633250058573" fill="none" id="id131" stroke="none" /><text fill="#e1ed5e" style="font-size:6.75px; font-family:Arial;" text-anchor="middle"><textPath startOffset="21.40746469413373" xlink:href="#id131">November</textPath></text><line stroke="#e1ed5e" stroke-width="0.3" x1="56.869717070023135" x2="54.33264160355391" y1="26.7553504044142" y2="22.446841604673864" /><path d="M 56.362301976729285 25.89364864446614 a86.0,86.0 0 0,1 42.16139366436587,-11.88097634709845" fill="none" id="id132" stroke="none" /><text fill="#e1ed5e" style="font-size:6.75px; font-family:Arial;" text-anchor="middle"><textPath startOffset="22.145653131862474" xlink:href="#id132">December</textPath></text></svg>