<?xml version="1.0" encoding="utf-8" ?>
<svg baseProfile="full" height="200mm" version="1.1" viewBox="0,0,200,200" width="200mm" xmlns="http://www.w3.org/2000/svg" xmlns:ev="http://www.w3.org/2001/xml-events" xmlns:xlink="http://www.w3.org/1999/xlink"><defs /><rect fill="#f5f5f5" height="200" rx="1" ry="1" width="200" x="0" y="0" /><rect fill="#f5f5f5" height="200" width="180" x="10" y="0" /><text alignment-baseline="middle" fill="#006cb8" style="dominant-baseline: central; font-size:9.0px; font-family:Arial;" text-anchor="middle" x="100.0" y="100.0">2025</text><line stroke="#006cb8" stroke-width="0.3" x1="100.0" x2="100.0" y1="15.0" y2="10.0" /><path d="M 100.0 14.0 a86.0,86.0 0 0,1 42.46469731375804,11.215312516191453" fill="none" id="id1" stroke="none" /><text fill="#006cb8" style="font-size:6.75px; font-family:Arial;" text-anchor="middle"><textPath startOffset="22.20632615414155" xlink:href="#id1">一月</textPath></text><line stroke="#006cb8" stroke-width="0.3" x1="143.23703022742887" x2="145.7803849466894" y1="26.81831364943548" y2="22.513508569990506" /><path d="M 143.74570117128098 25.957352633546492 a86.0,86.0 0 0,1 28.547481713284135,27.462654790039103" fill="none" id="id2" stroke="none" /><text fill="#006cb8" style="font-size:6.75px; font-family:Arial;" text-anchor="middle"><textPath startOffset="19.985693538727396" xlink:href="#id2">二月</textPath></text><line stroke="#006cb8" stroke-width="0.3" x1="172.23445277983987" x2="176.4835382374775" y1="55.19839476539836" y2="52.563006222186495" /><path d="M 173.08426987136738 54.67131705675599 a86.0,86.0 0 0,1 12.851231095245387,41.99856678651699" fill="none" id="id3" stroke="none" /><text fill="#006cb8" style="font-size:6.75px; font-family:Arial;" text-anchor="middle"><textPath startOffset="22.20632615414155" xlink:href="#id3">三月</textPath></text><line stroke="#006cb8" stroke-width="0.3" x1="184.98032266829074" x2="189.97916517819016" y1="98.17113171792111" y2="98.06355123074" /><path d="M 185.9800911702706 98.14961562048488 a86.0,86.0 0 0,1 -9.607161424134198,41.387399972396054" fill="none" id="id4" stroke="none" /><text fill="#006cb8" style="font-size:6.75px; font-family:Arial;" text-anchor="middle"><textPath startOffset="21.466115282336823" xlink:href="#id4">四月</textPath></text><line stroke="#006cb8" stroke-width="0.3" x1="174.80103733775053" x2="179.2010983576182" y1="140.37084112569926" y2="142.7455964860345" /><path d="M 175.68104954172406 140.8457921977663 a86.0,86.0 0 0,1 -30.038265399797805,32.042727171017184" fill="none" id="id5" stroke="none" /><text fill="#006cb8" style="font-size:6.75px; font-family:Arial;" text-anchor="middle"><textPath startOffset="22.206326154141568" xlink:href="#id5">五月</textPath></text><line stroke="#006cb8" stroke-width="0.3" x1="143.8653032363475" x2="146.44561519142675" y1="172.8068346515853" y2="177.08958963109032" /><path d="M 144.38136562736335 173.6633856474863 a86.0,86.0 0 0,1 -40.68145358897372,12.25698825130547" fill="none" id="id6" stroke="none" /><text fill="#006cb8" style="font-size:6.75px; font-family:Arial;" text-anchor="middle"><textPath startOffset="21.466115282336833" xlink:href="#id6">六月</textPath></text><line stroke="#006cb8" stroke-width="0.3" x1="102.19456741930631" x2="102.32365962044197" y1="184.97166512339345" y2="189.96999836594603" /><path d="M 102.22038585953345 185.97133177190398 a86.0,86.0 0 0,1 -42.740103519485714,-10.115201625700543" fill="none" id="id7" stroke="none" /><text fill="#006cb8" style="font-size:6.75px; font-family:Arial;" text-anchor="middle"><textPath startOffset="22.20632615414155" xlink:href="#id7">七月</textPath></text><line stroke="#006cb8" stroke-width="0.3" x1="58.666819895761336" x2="56.23545636021788" y1="174.27360380694188" y2="178.64263932499728" /><path d="M 58.180547188652646 175.14741091055294 a86.0,86.0 0 0,1 -31.652253787137756,-30.449443065178592" fill="none" id="id8" stroke="none" /><text fill="#006cb8" style="font-size:6.75px; font-family:Arial;" text-anchor="middle"><textPath startOffset="22.20632615414155" xlink:href="#id8">八月</textPath></text><line stroke="#006cb8" stroke-width="0.3" x1="26.63291911575756" x2="22.317208475507996" y1="142.92168965132927" y2="145.44649492493687" /><path d="M 25.769776987707644 143.4266507060508 a86.0,86.0 0 0,1 -11.730757126820373,-40.83630448921669" fill="none" id="id9" stroke="none" /><text fill="#006cb8" style="font-size:6.75px; font-family:Arial;" text-anchor="middle"><textPath startOffset="21.46611528233685" xlink:href="#id9">九月</textPath></text><path d="M 80.20201598880116 107.00284435728193 l -29.29791851334422 10.363113902164157 a52.07671409534454,52.07671409534454 0 0,0 -0.29165233676002544,-0.8476782100572923 l 29.471961681047475 -9.857262989017567" fill="#96dc00" stroke="none" /><path d="M 80.0844068197444 106.66101706037122 l -13.816009365155011 4.620935628409187 a35.568292997463786,35.568292997463786 0 0,0 -0.189202568854342,-0.5823056313542782 l 13.893504185025604 -4.382431097077105" fill="#f37000" stroke="none" /><path d="M 79.97269907076064 106.31721596034903 l -9.693995354142674 3.0577790979977704 a31.164819670721748,31.164819670721748 0 0,0 -0.15697159813507974,-0.5129922650213276 l 9.745193724783883 -2.890459860424395" fill="#f93a00" stroke="none" /><path d="M 79.76711848015287 105.62410040840567 l -24.860795484817523 6.91051395236503 a46.8033787559644,46.8033787559644 0 0,0 -0.20908166641912035,-0.7780706610345971 l 24.976065227578417 -6.481552358154895" fill="#d9e300" stroke="none" /><path d="M 79.67330655649465 105.27499134158121 l -36.00585003636113 9.343897851165847 a58.198516958259894,58.198516958259894 0 0,0 -0.24329387208297068,-0.9718380802676442 l 36.16135522273916 -8.72273193150081" fill="#4dd300" stroke="none" /><path d="M 79.58551787078972 104.9243191809786 l -29.811655341282474 7.191076672170248 a51.666698190259204,51.666698190259204 0 0,0 -0.20110507953850462,-0.8663554192429507 l 29.931020986751534 -6.6768525955787235" fill="#9bdc00" stroke="none" /><path d="M 79.50377843672027 104.57218783832718 l -13.76074183217005 3.069672927625214 a35.098968318789495,35.098968318789495 0 0,0 -0.12646653226769555,-0.5908095358781891 l 13.811542403162186 -2.832349572330861" fill="#f36b00" stroke="none" /><path d="M 79.4281124754447 104.21870165774334 l -5.701728152143861 1.1692602333519302 a26.82038430125091,26.82038430125091 0 0,0 -0.08885218730744805,-0.4530553888395658 l 5.721010272426976 -1.0709411174444097" fill="#ff0200" stroke="none" /><path d="M 79.35854240842038 103.8639653848113 l -11.348853152552195 2.124441820264516 a32.54598289128659,32.54598289128659 0 0,0 -0.09834087628666817,-0.5515478595222155 l 11.38374047117805 -1.9287752100090865" fill="#f74c00" stroke="none" /><path d="M 79.29508885075956 103.50808413554451 l -44.34943372193061 7.514233880979248 a65.98150711430168,65.98150711430168 0 0,0 -0.18009258249475166,-1.1214366831066314 l 44.472208058786656 -6.749717968179403" fill="#00c808" stroke="none" /><path d="M 79.23777060512086 103.15116336523772 l -18.077142899822878 2.7436374664147984 a39.28416369341873,39.28416369341873 0 0,0 -0.09571483406633506,-0.6694293265310973 l 18.121691784905813 -2.432062667903301" fill="#ed9c00" stroke="none" /><path d="M 79.18660465613746 102.79330883721812 l -7.547953709299214 1.0129902137911386 a28.615625671667456,28.615625671667456 0 0,0 -0.061317141294389685,-0.48875794658974114 l 7.5642723598404515 -0.8829145129139889" fill="#fc1a00" stroke="none" /><path d="M 79.10278846688536 102.07522291339032 l -19.625933806180726 1.9489771382525434 a40.72246915703048,40.72246915703048 0 0,0 -0.0632660474686889,-0.6981355619422835 l 19.65657444992649 -1.6108601877616937" fill="#ebac00" stroke="none" /><path d="M 79.07016306316243 101.71520430193888 l -16.013039194666586 1.3122717485422513 a37.06671968361776,37.06671968361776 0 0,0 -0.046639537765028584,-0.6363594375184999 l 16.033255291095948 -1.0364391745269907" fill="#f08200" stroke="none" /><path d="M 79.04373962182676 101.35467743843564 l -13.201281953570128 0.8533716654692542 a34.22883548983364,34.22883548983364 0 0,0 -0.03294712714856674,-0.5882930878658247 l 13.214015431606226 -0.626006861267992" fill="#f46000" stroke="none" /><path d="M 79.0235259727143 100.99374915477108 l -30.524408108561552 1.4460773873775576 a51.55864247947384,51.55864247947384 0 0,0 -0.034367191800005074,-0.8868645131741253 l 30.544777433212758 -0.9204356271894356" fill="#9cdc00" stroke="none" /><path d="M 79.0095281055655 100.63252640178507 l -18.728196558763003 0.5643550483673934 a39.73669776039204,39.73669776039204 0 0,0 -0.01471759734691114,-0.6838689170226315 l 18.73513621879492 -0.24189631555463298" fill="#eda100" stroke="none" /><line stroke="#006cb8" stroke-width="0.3" x1="15.007084014347285" x2="10.007500721073583" y1="101.09737516637583" y2="101.16192664675087" /><path d="M 14.007167355692545 101.11028546245083 a86.0,86.0 0 0,1 10.666146001902534,-42.60595125391555" fill="none" id="id10" stroke="none" /><text fill="#006cb8" style="font-size:6.75px; font-family:Arial;" text-anchor="middle"><textPath startOffset="22.20632615414155" xlink:href="#id10">十月</textPath></text><path d="M 79.00175016825051 100.2711162175752 l -26.843784195778632 0.3465900870252763 a47.84602157933199,47.84602157933199 0 0,0 -0.0035444850217840043,-0.8236134907900442 l 26.84577297808992 0.11553288196844325" fill="#cbe100" stroke="none" /><path d="M 79.00019446554 99.90962569577889 l -13.827482321076294 -0.05950765076593103 a34.827610368396165,34.827610368396165 0 0,0 0.007740009985537189,-0.5994723031701135 l 13.824409303973042 0.2975162119965164" fill="#f46700" stroke="none" /><path d="M 79.00486145842228 99.54816195383935 l -17.483373782985396 -0.3762610775230823 a38.48742208657525,38.48742208657525 0 0,0 0.01995537196634219,-0.6622216451682976 l 17.474306716563408 0.6771528701163743" fill="#ee9200" stroke="none" /><path d="M 79.01574976396665 99.18683210126434 l -36.89648730836605 -1.4297884707717918 a57.92418002837123,57.92418002837123 0 0,0 0.04718446268184107,-0.9959894317244841 l 36.86640923745071 2.064689009119285" fill="#50d300" stroke="none" /><path d="M 79.03285615573316 98.82574320788736 l -48.40460244712987 -2.710881063020726 a69.48045393973261,69.48045393973261 0 0,0 0.07715443441045983,-1.1935449509687932 l 48.350767421715 3.543685078242531" fill="#00c32b" stroke="none" /><path d="M 79.05617556472873 98.46500227214037 l -11.6301562160871 -0.8523879400116382 a32.66135064265142,32.66135064265142 0 0,0 0.04592110651793733,-0.5603538134163852 l 11.613760625749665 1.0524556706358017" fill="#f74d00" stroke="none" /><path d="M 79.16333360222342 97.38593545837743 l -17.509410039275075 -2.1966435059536757 a38.64666208141685,38.64666208141685 0 0,0 0.08848981599687734,-0.6593519125808043 l 17.469004224220363 2.4977137605991393" fill="#ee9400" stroke="none" /><path d="M 79.21141760316559 97.0276538004421 l -44.0769241341952 -6.3021073509287 a65.52518161887977,65.52518161887977 0 0,0 0.16925499686398046,-1.1151789557741432 l 43.96191324389192 7.059885419094934" fill="#00c903" stroke="none" /><path d="M 79.26566170972629 96.67025291283419 l -10.267254287967116 -1.6488281217339913 a31.398804969264496,31.398804969264496 0 0,0 0.09029120869445019,-0.5329038248069271 l 10.237351217752442 1.8253177348567464" fill="#f83d00" stroke="none" /><path d="M 79.3925641242962 95.95851677861259 l -34.02764868327644 -6.673424682537337 a55.675862958345874,55.675862958345874 0 0,0 0.1925343032654929,-0.938865639888598 l 33.907735084095954 7.258165978589337" fill="#6ad700" stroke="none" /><path d="M 79.46518482838121 95.60439243477599 l -14.058620141394906 -3.0093369009493043 a35.37709667712677,35.37709667712677 0 0,0 0.13258933714578294,-0.5943720002681868 l 14.004736417247084 3.25088707076745" fill="#f36e00" stroke="none" /><path d="M 79.62865764111835 94.90015583598534 l -14.221759256304754 -3.560332680465975 a35.6606413618192,35.6606413618192 0 0,0 0.154196049690982,-0.5941802799866939 l 14.158366874743464 3.8046093860015326" fill="#f27100" stroke="none" /><path d="M 79.71946130924805 94.55025226153421 l -45.078451208347815 -12.113395569628489 a67.67762971241888,67.67762971241888 0 0,0 0.3120042806130137,-1.122445401915896 l 44.86326015716844 12.887552274963326" fill="#00c619" stroke="none" /><path d="M 79.81627453868168 94.20196356495316 l -10.12786946266469 -2.909361617431192 a31.537462923956497,31.537462923956497 0 0,0 0.1543745337448053,-0.5204741840958993 l 10.076289031808178 3.083265188273631" fill="#f83f00" stroke="none" /><path d="M 79.91906864156998 93.8553929516997 l -30.708986341504524 -9.396708277723985 a53.11448222499248,53.11448222499248 0 0,0 0.27504327021234015,-0.8719623289244439 l 30.542687587523982 9.923920773074844" fill="#89da00" stroke="none" /><path d="M 80.02781315780177 93.51064311812611 l -9.952696263889745 -3.2338270467614354 a31.464884150797403,31.464884150797403 0 0,0 0.17180232228038558,-0.5136670762060227 l 9.895556647837587 3.40466722588978" fill="#f83e00" stroke="none" /><path d="M 80.14247586403 93.16781622104843 l -47.39480467251149 -16.3066661016194 a71.12160082534496,71.12160082534496 0 0,0 0.4082614222557067,-1.1542100177912695 l 47.107090169445975 17.12007374583728" fill="#00c13b" stroke="none" /><path d="M 80.2630227832202 92.82701384747504 l -37.011222895617536 -13.450944711664103 a60.379671581481325,60.379671581481325 0 0,0 0.36341492550847215,-0.9737713218292723 l 36.774203381607435 14.086039170522717" fill="#34d000" stroke="none" /><path d="M 80.52162464483688 92.15188598940014 l -18.76741423604397 -7.561657680530631 a41.23349954863947,41.23349954863947 0 0,0 0.27092041483332946,-0.6560552737334456 l 18.63447213432444 7.883587524717388" fill="#ebb100" stroke="none" /><path d="M 80.803312248108 91.48605970444005 l -48.613757088855074 -21.560731244199822 a74.18047113441946,74.18047113441946 0 0,0 0.5277328816213924,-1.1627894510084258 l 48.23542189027033 22.39434270405032" fill="#00bd57" stroke="none" /><path d="M 80.95270993114464 91.15688171328213 l -10.860713541603914 -5.042322250533861 a32.97414348966169,32.97414348966169 0 0,0 0.24344622681706662,-0.5127598402050664 l 10.772309120945096 5.228524506379459" fill="#f65100" stroke="none" /><path d="M 81.10775173730289 90.83032412892265 l -12.837113368372663 -6.230712569063299 a35.26931178265916,35.26931178265916 0 0,0 0.2697934184718292,-0.5438870686216556 l 12.72795993694742 6.450759226183916" fill="#f36d00" stroke="none" /><path d="M 81.26839172434947 90.50648371742162 l -9.310808271203292 -4.718885246043517 a31.43834415165714,31.43834415165714 0 0,0 0.24879791595577688,-0.4805983828404378 l 9.228200922087401 4.87845635114429" fill="#f83e00" stroke="none" /><path d="M 81.43458229118936 90.18545643968196 l -50.15104864437333 -26.512177600089334 a77.7276232644113,77.7276232644113 0 0,0 0.6354858753093956,-1.1774588133704067 l 49.687254669845466 27.371517396792214" fill="#00b877" stroke="none" /><line stroke="#006cb8" stroke-width="0.3" x1="26.266209847984243" x2="21.928928074336255" y1="57.711370442889674" y2="55.22380399835377" /><path d="M 25.398753493254645 57.213857153982495 a86.0,86.0 0 0,1 29.58750427330803,-30.492523968695096" fill="none" id="id11" stroke="none" /><text fill="#006cb8" style="font-size:6.75px; font-family:Arial;" text-anchor="middle"><textPath startOffset="21.46611528233685" xlink:href="#id11">十一月</textPath></text><path d="M 81.78341655067845 89.55222093294921 l -4.888243155398909 -2.8035599900338672 a26.63514593990457,26.63514593990457 0 0,0 0.23152324811431346,-0.3957482803908989 l 4.83926023281427 2.8872876827786578" fill="#ff0000" stroke="none" /><path d="M 82.7489923806493 88.02491185347247 l -13.684528831382464 -9.499354624113842 a37.65845333791859,37.65845333791859 0 0,0 0.37423066520610127,-0.529322736373598 l 13.518985546372484 9.733503860819226" fill="#f08900" stroke="none" /><path d="M 83.39014120810768 87.1503855733568 l -49.82957637567698 -38.54884327992962 a84.0,84.0 0 0,0 0.8945836776241158,-1.1360304241878092 l 49.15863861745889 39.40086609807048" fill="#00afaa" stroke="none" /><path d="M 83.6137871275137 86.86637796730984 l -13.998050721307273 -11.219499514544058 a38.93941452091303,38.93941452091303 0 0,0 0.4237007112233831,-0.5194069730238408 l 13.802851518007497 11.45879065717598" fill="#ee9800" stroke="none" /><path d="M 83.84228863543731 86.58626213691792 l -10.603745522476432 -8.802970890870274 a34.78157159437734,34.78157159437734 0 0,0 0.38638911900980744,-0.45736284350578404 l 10.4506457899795 8.984192684005174" fill="#f46700" stroke="none" /><path d="M 84.80347519578584 85.50635884689758 l -45.16920886600137 -43.080001046805776 a83.41909899840948,83.41909899840948 0 0,0 0.9999794432184319,-1.0305667169112493 l 44.42096515907982 43.85113195926715" fill="#00b0a5" stroke="none" /><path d="M 85.05521093208273 85.24692304244772 l -19.61761339166356 -19.36595817949907 a48.566122168250004,48.566122168250004 0 0,0 0.592423896390775,-0.5898798399079788 l 19.281353695105473 19.70077387005716" fill="#c2e000" stroke="none" /><path d="M 85.31137513191541 84.99185889309783 l -21.0263342945741 -21.48371238886535 a51.06088208743498,51.06088208743498 0 0,0 0.6334388276050886,-0.6093676502831633 l 20.653412223356582 21.84246312591083" fill="#a2dd00" stroke="none" /><path d="M 85.57189188830299 84.74124197986013 l -27.622852693715114 -29.213145744150676 a61.204848901689374,61.204848901689374 0 0,0 0.7717410220330669,-0.7172491726047573 l 27.11590378788719 29.684299502830083" fill="#2bcf00" stroke="none" /><path d="M 86.65592168130627 83.78471172551755 l -16.959363879945467 -20.608465245584764 a47.68948974766798,47.68948974766798 0 0,0 0.6383501662982174,-0.5161681068680719 l 16.60211031508275 20.89733944971697" fill="#cde200" stroke="none" /><path d="M 87.22198572758235 83.33499621200491 l -11.452095489277518 -14.93574906401962 a39.82092163521472,39.82092163521472 0 0,0 0.5475449658597139,-0.4123995164879337 l 11.193304369659414 15.130665170013408" fill="#eda200" stroke="none" /><path d="M 88.09926311788651 82.69761687909137 l -20.079519966960213 -29.19344833801419 a56.43225293384344,56.43225293384344 0 0,0 0.8050875268115373,-0.5435986919364388 l 19.574027745742136 29.53475894224929" fill="#61d500" stroke="none" /><line stroke="#006cb8" stroke-width="0.3" x1="56.762969772571076" x2="54.21961505331055" y1="26.818313649435495" y2="22.513508569990535" /><path d="M 56.25429882871897 25.957352633546506 a86.0,86.0 0 0,1 42.265352541879196,-11.944610805530505" fill="none" id="id12" stroke="none" /><text fill="#006cb8" style="font-size:6.75px; font-family:Arial;" text-anchor="middle"><textPath startOffset="22.20632615414155" xlink:href="#id12">十二月</textPath></text><path d="M 89.3179101791058 81.91981866633112 l -13.642015496236336 -23.090061782313914 a47.8189399475562,47.8189399475562 0 0,0 0.7122819364590578,-0.41259967221486565 l 13.242536827311959 23.32146561191883" fill="#cce100" stroke="none" /><path d="M 89.63071344664047 81.73862282372117 l -25.09730179565347 -44.19892263936332 a71.82734814942182,71.82734814942182 0 0,0 1.0804061441065684,-0.6012448494643965 l 24.332771562474854 44.6243828863879" fill="#00c041" stroke="none" /><path d="M 89.94658935756843 81.56283822128135 l -12.321575557349588 -22.596797246174557 a46.737841207067014,46.737841207067014 0 0,0 0.7096472468308004,-0.3790689826165079 l 11.930783263990481 22.805544955292813" fill="#dae300" stroke="none" /><path d="M 94.63758080256005 79.69619591428918 l -5.6668804997646145 -21.456590245552924 a43.19231397498173,43.19231397498173 0 0,0 0.7204706505982277,-0.1836640107856956 l 5.296700960481388 21.550957252507484" fill="#e8c700" stroke="none" /><path d="M 95.692805502759 79.44645832069477 l -2.8868738288927487 -13.775900206747155 a35.07513648282681,35.07513648282681 0 0,0 0.591990788668502,-0.11874778304670884 l 2.6493166307571103 13.823551945871074" fill="#f36a00" stroke="none" /></svg>