<?xml version="1.0" encoding="utf-8" ?>
<svg baseProfile="full" height="200mm" version="1.1" viewBox="0,0,200,200" width="200mm" xmlns="http://www.w3.org/2000/svg" xmlns:ev="http://www.w3.org/2001/xml-events" xmlns:xlink="http://www.w3.org/1999/xlink"><defs /><rect fill="#f5f5f5" height="200" rx="1" ry="1" width="200" x="0" y="0" /><text alignment-baseline="middle" fill="#006cb8" style="dominant-baseline: central; font-size:9.0px; font-family:Arial;" text-anchor="middle" x="100.0" y="100.0">2022</text><line stroke="#006cb8" stroke-width="0.3" x1="100.0" x2="100.0" y1="15.0" y2="10.0" /><path d="M 100.0 14.0 a86.0,86.0 0 0,1 42.46469731375804,11.215312516191453" fill="none" id="id97" stroke="none" /><text fill="#006cb8" style="font-size:6.75px; font-family:Arial;" text-anchor="middle"><textPath startOffset="22.20632615414155" xlink:href="#id97">一月</textPath></text><line stroke="#006cb8" stroke-width="0.3" x1="143.23703022742887" x2="145.7803849466894" y1="26.81831364943548" y2="22.513508569990506" /><path d="M 143.74570117128098 25.957352633546492 a86.0,86.0 0 0,1 28.547481713284135,27.462654790039103" fill="none" id="id98" stroke="none" /><text fill="#006cb8" style="font-size:6.75px; font-family:Arial;" text-anchor="middle"><textPath startOffset="19.985693538727396" xlink:href="#id98">二月</textPath></text><line stroke="#006cb8" stroke-width="0.3" x1="172.23445277983987" x2="176.4835382374775" y1="55.19839476539836" y2="52.563006222186495" /><path d="M 173.08426987136738 54.67131705675599 a86.0,86.0 0 0,1 12.851231095245387,41.99856678651699" fill="none" id="id99" stroke="none" /><text fill="#006cb8" style="font-size:6.75px; font-family:Arial;" text-anchor="middle"><textPath startOffset="22.20632615414155" xlink:href="#id99">三月</textPath></text><line stroke="#006cb8" stroke-width="0.3" x1="184.98032266829074" x2="189.97916517819016" y1="98.17113171792111" y2="98.06355123074" /><path d="M 185.9800911702706 98.14961562048488 a86.0,86.0 0 0,1 -9.607161424134198,41.387399972396054" fill="none" id="id100" stroke="none" /><text fill="#006cb8" style="font-size:6.75px; font-family:Arial;" text-anchor="middle"><textPath startOffset="21.466115282336823" xlink:href="#id100">四月</textPath></text><line stroke="#006cb8" stroke-width="0.3" x1="174.80103733775053" x2="179.2010983576182" y1="140.37084112569926" y2="142.7455964860345" /><path d="M 175.68104954172406 140.8457921977663 a86.0,86.0 0 0,1 -30.038265399797805,32.042727171017184" fill="none" id="id101" stroke="none" /><text fill="#006cb8" style="font-size:6.75px; font-family:Arial;" text-anchor="middle"><textPath startOffset="22.206326154141568" xlink:href="#id101">五月</textPath></text><line stroke="#006cb8" stroke-width="0.3" x1="143.8653032363475" x2="146.44561519142675" y1="172.8068346515853" y2="177.08958963109032" /><path d="M 144.38136562736335 173.6633856474863 a86.0,86.0 0 0,1 -40.68145358897372,12.25698825130547" fill="none" id="id102" stroke="none" /><text fill="#006cb8" style="font-size:6.75px; font-family:Arial;" text-anchor="middle"><textPath startOffset="21.466115282336833" xlink:href="#id102">六月</textPath></text><line stroke="#006cb8" stroke-width="0.3" x1="102.19456741930631" x2="102.32365962044197" y1="184.97166512339345" y2="189.96999836594603" /><path d="M 102.22038585953345 185.97133177190398 a86.0,86.0 0 0,1 -42.740103519485714,-10.115201625700543" fill="none" id="id103" stroke="none" /><text fill="#006cb8" style="font-size:6.75px; font-family:Arial;" text-anchor="middle"><textPath startOffset="22.20632615414155" xlink:href="#id103">七月</textPath></text><line stroke="#006cb8" stroke-width="0.3" x1="58.666819895761336" x2="56.23545636021788" y1="174.27360380694188" y2="178.64263932499728" /><path d="M 58.180547188652646 175.14741091055294 a86.0,86.0 0 0,1 -31.652253787137756,-30.449443065178592" fill="none" id="id104" stroke="none" /><text fill="#006cb8" style="font-size:6.75px; font-family:Arial;" text-anchor="middle"><textPath startOffset="22.20632615414155" xlink:href="#id104">八月</textPath></text><line stroke="#006cb8" stroke-width="0.3" x1="26.63291911575756" x2="22.317208475507996" y1="142.92168965132927" y2="145.44649492493687" /><path d="M 25.769776987707644 143.4266507060508 a86.0,86.0 0 0,1 -11.730757126820373,-40.83630448921669" fill="none" id="id105" stroke="none" /><text fill="#006cb8" style="font-size:6.75px; font-family:Arial;" text-anchor="middle"><textPath startOffset="21.46611528233685" xlink:href="#id105">九月</textPath></text><path d="M 79.23777060512086 103.15116336523772 l -28.777463792992187 4.367666300387673 a50.10702546239513,50.10702546239513 0 0,0 -0.12208445278661349,-0.8538583784434028 l 28.848382296795396 -3.8716624499638694" fill="red" stroke="none" /><path d="M 79.1416061653843 102.43462659150553 l -28.42848298691061 3.3182200501571066 a49.62148195391585,49.62148195391585 0 0,0 -0.09172341550276668,-0.849244910845965 l 28.481388703914426 -2.8283788174263598" fill="red" stroke="none" /><path d="M 79.04373962182676 101.35467743843564 l -28.559012110000758 1.846142807507947 a49.61862009190666,49.61862009190666 0 0,0 -0.04776063695155591,-0.8527982565512305 l 28.586559097839846 -1.3542728346212787" fill="red" stroke="none" /><line stroke="#006cb8" stroke-width="0.3" x1="15.007084014347285" x2="10.007500721073583" y1="101.09737516637583" y2="101.16192664675087" /><path d="M 14.007167355692545 101.11028546245083 a86.0,86.0 0 0,1 10.666146001902534,-42.60595125391555" fill="none" id="id106" stroke="none" /><text fill="#006cb8" style="font-size:6.75px; font-family:Arial;" text-anchor="middle"><textPath startOffset="22.20632615414155" xlink:href="#id106">十月</textPath></text><path d="M 79.00175016825051 100.2711162175752 l -28.968615295122923 0.3740245720540884 a49.97102977971839,49.97102977971839 0 0,0 -0.0037019079273635023,-0.8601930299890513 l 28.97076150033979 0.1246779361386383" fill="red" stroke="none" /><path d="M 79.03285615573316 98.82574320788736 l -39.20331397397358 -2.1955664562224357 a60.26474676609593,60.26474676609593 0 0,0 0.06692087037400282,-1.0352362448074632 l 39.15971251259516 2.870061765282911" fill="red" stroke="none" /><path d="M 79.21141760316559 97.0276538004421 l -28.359285783563642 -4.054803435456363 a49.64769660992003,49.64769660992003 0 0,0 0.12824261644769983,-0.8449586112415972 l 28.28528727367664 4.542361159090053" fill="red" stroke="none" /><path d="M 79.62865764111835 94.90015583598534 l -33.34092042841053 -8.34670074628508 a55.36981798557622,55.36981798557622 0 0,0 0.23941821794113097,-0.9225760585648537 l 33.19230587859909 8.919373230398799" fill="red" stroke="none" /><path d="M 80.14247586403 93.16781622104843 l -27.089916149034806 -9.320562040830316 a49.648497931282606,49.648497931282606 0 0,0 0.28499873657317437,-0.8057298066349811 l 26.92546433165182 9.785489473891907" fill="red" stroke="none" /><path d="M 80.52162464483688 92.15188598940014 l -33.13294508435437 -13.349734040320293 a56.721246463556234,56.721246463556234 0 0,0 0.3726810430835047,-0.9024767066218726 l 32.898242354384664 13.918085317395477" fill="red" stroke="none" /><path d="M 81.43458229118936 90.18545643968196 l -25.401995371477703 -13.428676585824947 a49.73309457227428,49.73309457227428 0 0,0 0.4066080732791083,-0.7533830067221444 l 25.167079198980122 13.863940575879564" fill="red" stroke="none" /><line stroke="#006cb8" stroke-width="0.3" x1="26.266209847984243" x2="21.928928074336255" y1="57.711370442889674" y2="55.22380399835377" /><path d="M 25.398753493254645 57.213857153982495 a86.0,86.0 0 0,1 29.58750427330803,-30.492523968695096" fill="none" id="id107" stroke="none" /><text fill="#006cb8" style="font-size:6.75px; font-family:Arial;" text-anchor="middle"><textPath startOffset="21.46611528233685" xlink:href="#id107">十一月</textPath></text><path d="M 81.96595687620814 89.24020034530311 l -39.3226231528275 -23.461380463451338 a66.78979214705065,66.78979214705065 0 0,0 0.5975593704846718,-0.9822304874195382 l 38.91294798405661 24.13477872407795" fill="red" stroke="none" /><path d="M 82.7489923806493 88.02491185347247 l -23.539194414417143 -16.340142803873107 a49.65473679046264,49.65473679046264 0 0,0 0.49344366357760155,-0.6979410682640415 l 23.254438131035663 16.742910372468934" fill="red" stroke="none" /><path d="M 84.31358615837235 86.03803664274999 l -21.505574259428364 -19.141407514695686 a49.79033181245809,49.79033181245809 0 0,0 0.5753305071490571,-0.6352943157177191 l 21.172900111663264 19.50875461768296" fill="red" stroke="none" /><path d="M 85.05521093208273 85.24692304244772 l -20.873352276034847 -20.60558841553172 a50.33065135979329,50.33065135979329 0 0,0 0.613948144411399,-0.6113116559672187 l 20.515568331456137 20.96183592214905" fill="red" stroke="none" /><path d="M 86.93701828274178 83.55741782278169 l -17.802119573035032 -22.407810126655537 a49.61862009190666,49.61862009190666 0 0,0 0.6733186373383726,-0.525535876445852 l 17.413768380537235 22.71092439232461" fill="red" stroke="none" /><path d="M 88.09926311788651 82.69761687909137 l -32.43644453742358 -47.1590789735145 a78.23724018381331,78.23724018381331 0 0,0 1.116167137221834,-0.7536410335149335 l 31.619872705795206 47.710431919328094" fill="red" stroke="none" /><line stroke="#006cb8" stroke-width="0.3" x1="56.762969772571076" x2="54.21961505331055" y1="26.818313649435495" y2="22.513508569990535" /><path d="M 56.25429882871897 25.957352633546506 a86.0,86.0 0 0,1 42.265352541879196,-11.944610805530505" fill="none" id="id108" stroke="none" /><text fill="#006cb8" style="font-size:6.75px; font-family:Arial;" text-anchor="middle"><textPath startOffset="22.20632615414155" xlink:href="#id108">十二月</textPath></text><path d="M 91.56875222667455 80.76684994638697 l -25.293743319976343 -57.69945016083907 a84.0,84.0 0 0,0 1.329264968838767,-0.5691218881488553 l 24.29679459334727 58.12629157695071" fill="red" stroke="none" /><path d="M 96.04723909329186 79.375362276772 l -11.014323760893992 -57.47032079508321 a79.5162635529608,79.5162635529608 0 0,0 1.3464938700524307,-0.24606314817986458 l 10.02343476973867 57.651399424613814" fill="red" stroke="none" /></svg>