<?xml version="1.0" encoding="utf-8" ?>
<svg baseProfile="full" height="200mm" version="1.1" viewBox="0,0,200,200" width="200mm" xmlns="http://www.w3.org/2000/svg" xmlns:ev="http://www.w3.org/2001/xml-events" xmlns:xlink="http://www.w3.org/1999/xlink"><defs /><rect fill="#1a1a1a" height="200" width="200" x="0" y="0" /><text alignment-baseline="middle" fill="#e1ed5e" style="dominant-baseline: central; font-size:9.0px; font-family:Arial;" text-anchor="middle" x="100.0" y="100.0">2024</text><line stroke="#e1ed5e" stroke-width="0.3" x1="100.0" x2="100.0" y1="15.0" y2="10.0" /><path d="M 100.0 14.0 a86.0,86.0 0 0,1 42.35913384403234,11.155469271406648" fill="none" id="id121" stroke="none" /><text fill="#e1ed5e" style="font-size:6.75px; font-family:Arial;" text-anchor="middle"><textPath startOffset="22.145653131862478" xlink:href="#id121">January</textPath></text><path d="M 100.0 79.0 l 0.0 -0.8232872460069167 a21.823287246006917,21.823287246006917 0 0,0 0.3746257451966544,0.003215711459556106 l -0.014132820347799621 0.8231659327417955" fill="#ff0000" stroke="none" /><path d="M 100.72087961077811 79.0123766808444 l 0.2683229682960982 -7.811930455901887 a28.81653725527888,28.81653725527888 0 0,0 0.49423687562084456,0.021224658009548574 l -0.40238560451777905 7.806173229466507" fill="#ff6309" stroke="none" /><path d="M 101.44090949804482 79.04949213459386 l 0.5272472593284292 -7.66605943576793 a28.684169242357683,28.684169242357683 0 0,0 0.4909514183246643,0.03800274477210433 l -0.658767672428327 7.655878924000771" fill="#ff6108" stroke="none" /><path d="M 102.15924093988457 79.11130261209362 l 0.08513297423285722 -0.8235842992943865 a21.827972657366146,21.827972657366146 0 0,0 0.3723894735225593,0.04172701723831421 l -0.09925834935621317 0.8220015215491014" fill="#ff0000" stroke="none" /><path d="M 102.51750503828377 79.15144685158666 l 0.9015034688234747 -7.4657419538107925 a28.519974163864617,28.519974163864617 0 0,0 0.48554872774682023,0.06286400383100998 l -1.0295300184610865 7.449166353779386" fill="#ff5f08" stroke="none" /><path d="M 103.23170211078529 79.25015418208739 l 1.1444953625064975 -7.348481232868053 a28.43707241222061,28.43707241222061 0 0,0 0.4817003049683694,0.07926360187408137 l -1.2704731705279375 7.327751632498304" fill="#ff5e08" stroke="none" /><path d="M 103.94208987418118 79.37332000966035 l 1.3991174978971146 -7.3207739597776005 a28.453271841485435,28.453271841485435 0 0,0 0.4789681711480077,0.09580704851557695 l -1.5245821545760792 7.295677514599165" fill="#ff5e08" stroke="none" /><path d="M 104.64783097203109 79.52079915486377 l 0.48699577683786915 -2.1457932494988263 a23.200362142069494,23.200362142069494 0 0,0 0.38763148082107773,0.0914799740079726 l -0.5237594113988319 2.1371171318446263" fill="#ff1402" stroke="none" /><path d="M 105.3480935250658 79.69241777938227 l 1.918209675305977 -7.283754578166482 a28.532105224530433,28.532105224530433 0 0,0 0.47257127940857657,0.12880140363394418 l -2.042962355649246 7.249752680388395" fill="#ff5f08" stroke="none" /><path d="M 105.69591212413111 79.78721728523813 l 0.36298228162359597 -1.2880960639619172 a22.338262906445088,22.338262906445088 0 0,0 0.3681983831358746,0.10717718315012144 l -0.3850406771410751 1.2816751865092797" fill="#ff0701" stroke="none" /><path d="M 106.38641147887787 79.99465700312896 l 2.281266093888256 -7.146033547369467 a28.501331245269338,28.501331245269338 0 0,0 0.464812280870224,0.15279302906705694 l -2.403601112406222 7.105819596900388" fill="#ff5e08" stroke="none" /><path d="M 107.06938296918511 80.22567764915836 l 1.1349217277914385 -3.174578062349475 a24.371348869838844,24.371348869838844 0 0,0 0.39273946887502154,0.14421937297938658 l -1.1892503483205847 3.1546278403613663" fill="#ff2503" stroke="none" /><path d="M 107.40779381753099 80.34994680014964 l 2.6184525214031673 -6.945756403895662 a28.422925678538093,28.422925678538093 0 0,0 0.4550750473433109,0.17603280443785188 l -2.737299831240004 6.899783711319771" fill="#ff5d08" stroke="none" /><path d="M 108.73861861582097 80.90454125486305 l 3.116819453021121 -6.810813001204964 a28.49010929427024,28.49010929427024 0 0,0 0.4429686775054078,0.20733170787227356 l -3.2332768443980338 6.7563050617621565" fill="#ff5e08" stroke="none" /><path d="M 109.3889696526874 81.21577127319529 l 8.291167750439392 -16.58788953396843 a39.5445825473928,39.5445825473928 0 0,0 0.604604237365149,0.30871523157439423 l -8.57469920951812 16.4431163507212" fill="#ffee16" stroke="none" /><line stroke="#e1ed5e" stroke-width="0.3" x1="143.13028292997686" x2="145.6673583964461" y1="26.7553504044142" y2="22.446841604673864" /><path d="M 143.63769802327073 25.89364864446614 a86.0,86.0 0 0,1 29.32050498858742,28.57503671076993" fill="none" id="id122" stroke="none" /><text fill="#e1ed5e" style="font-size:6.75px; font-family:Arial;" text-anchor="middle"><textPath startOffset="20.669276256404974" xlink:href="#id122">February</textPath></text><path d="M 110.96478420261332 82.08984904055464 l 6.565040917986863 -10.723500957552496 a33.57351323383688,33.57351323383688 0 0,0 0.488951650926696,0.30514199288600513 l -6.748156697703272 10.609223167824945" fill="#ffa20f" stroke="none" /><path d="M 111.27062007382361 82.28071324371311 l 1.5905786824745114 -2.5006538769469278 a23.96364815007316,23.96364815007316 0 0,0 0.34520704137785324,0.22375903354797222 l -1.6332713561093721 2.472981001695061" fill="#ff1f03" stroke="none" /><path d="M 111.8722381534696 82.67804972795209 l 4.17180186747298 -6.08678360045236 a28.379218483022903,28.379218483022903 0 0,0 0.3994779186778052,0.2788666122557497 l -4.275674877324546 6.014272172391483" fill="#ff5d08" stroke="none" /><path d="M 112.16784306229584 82.88440491214696 l 4.317846448767492 -6.073591768916567 a28.452000733399395,28.452000733399395 0 0,0 0.3956440241431627,0.28641576228254023 l -4.4214714832846225 5.998575235260953" fill="#ff5e08" stroke="none" /><path d="M 116.57777611688842 87.10902102172516 l 6.026487416057354 -4.68623306560946 a28.634090051938678,28.634090051938678 0 0,0 0.29840542800597597,0.39062228420274947 l -6.106044821417637 4.582089868165829" fill="#ff6008" stroke="none" /><path d="M 117.42321728460499 88.27688183743584 l 6.309105447263119 -4.245047711348654 a28.60429100023872,28.60429100023872 0 0,0 0.2706177887498715,0.4097498237484181 l -6.381047674933714 4.136118009261177" fill="#ff6008" stroke="none" /><line stroke="#e1ed5e" stroke-width="0.3" x1="172.87174338648825" x2="177.1583165268699" y1="56.24261187166439" y2="53.66864786411523" /><path d="M 173.72905801456457 55.72781907015455 a86.0,86.0 0 0,1 12.242430191666344,42.057860355516425" fill="none" id="id123" stroke="none" /><text fill="#e1ed5e" style="font-size:6.75px; font-family:Arial;" text-anchor="middle"><textPath startOffset="22.145653131862474" xlink:href="#id123">March</textPath></text><path d="M 118.53625476483649 90.13048839642627 l 6.694684945187511 -3.564542653683217 a28.584508609346244,28.584508609346244 0 0,0 0.22689556845210698,0.4351021698090163 l -6.754888582614562 3.449094240769703" fill="#ff6008" stroke="none" /><path d="M 118.8641267826498 90.77261029715802 l 6.680775355727032 -3.267902004408428 a28.437199934391053,28.437199934391053 0 0,0 0.21073419787296563,0.4403534235685252 l -6.73588881155991 3.1527360787747996" fill="#ff5e08" stroke="none" /><path d="M 119.71291397450082 92.76114493625339 l 7.021971260268403 -2.57856511120722 a28.48044640464528,28.48044640464528 0 0,0 0.1645896253685876,0.4603864752878034 l -7.065201055680934 2.4576436795384997" fill="#ff5e08" stroke="none" /><path d="M 119.94978838288452 93.4421083053983 l 7.079962589929687 -2.327324329235684 a28.45267125319883,28.45267125319883 0 0,0 0.14854365236860562,0.46531087535939847 l -7.118870958075551 2.2054444201848984" fill="#ff5e08" stroke="none" /><path d="M 120.35273937422433 94.82641323984039 l 10.82313923689545 -2.751199670462067 a32.167338204244395,32.167338204244395 0 0,0 0.13144565984253404,0.536343148098937 l -10.868772423254276 2.565000697755035" fill="#ff900d" stroke="none" /><path d="M 120.51834098615036 95.52812308129327 l 10.955097647050945 -2.3876125434845394 a32.21226373727562,32.21226373727562 0 0,0 0.11311457464361627,0.541294187606681 l -10.994469932518928 2.1992019045924542" fill="#ff900d" stroke="none" /><path d="M 120.65975698304385 96.23510406497455 l 7.2494899938175195 -1.3210985700912172 a28.36888095998011,28.36888095998011 0 0,0 0.08319536721245019,0.4798487697729181 l -7.271100178522204 1.1964567673977065" fill="#ff5d08" stroke="none" /><path d="M 120.86939407059847 97.66154086499901 l 7.299954063119918 -0.8179750790196655 a28.345639016012033,28.345639016012033 0 0,0 0.0500335724715194,0.4840294268639244 l -7.312920028073104 0.6925411298728097" fill="#ff5c08" stroke="none" /><path d="M 120.93736805541906 98.37931529534042 l 7.324891523877174 -0.5669929297997771 a28.346803170019637,28.346803170019637 0 0,0 0.03338988685999207,0.48548162687144425 l -7.333545371902232 0.44116787877399877" fill="#ff5c08" stroke="none" /><path d="M 120.98066250479742 99.09900007780936 l 1.3024093779855355 -0.05593106261334717 a22.303609785031444,22.303609785031444 0 0,0 0.013143531056663087,0.3826595658644393 l -1.3031775960390468 0.03356523218478795" fill="#ff0701" stroke="none" /><line stroke="#e1ed5e" stroke-width="0.3" x1="184.99686870605535" x2="189.99668451229388" y1="99.2704041080226" y2="99.22748670261217" /><path d="M 185.99683186730306 99.26182062694052 a86.0,86.0 0 0,1 -10.086455211305974,41.156179273409016" fill="none" id="id124" stroke="none" /><text fill="#e1ed5e" style="font-size:6.75px; font-family:Arial;" text-anchor="middle"><textPath startOffset="21.40746469413373" xlink:href="#id124">April</textPath></text><path d="M 120.99922638620191 99.81974689727618 l 7.443766652614546 -0.06389578408314965 a28.444040881792628,28.444040881792628 0 0,0 0.0,0.48829777361395216 l -7.443766652614546 -0.06389578408314875" fill="#ff5e08" stroke="none" /><path d="M 120.99303781780057 100.54070618675476 l 7.407490574263417 0.19079068101499708 a28.40994721248158,28.40994721248158 0 0,0 -0.016741999483692746,0.4874250478438771 l -7.403123887782879 -0.3179219934229849" fill="#ff5d08" stroke="none" /><path d="M 120.86939407059847 102.33845913500097 l 7.517163597616285 0.8423138604157157 a28.56420790253519,28.56420790253519 0 0,0 -0.05878502253299046,0.4868243153329374 l -7.5015964888236315 -0.9712318526720616" fill="#ff5f08" stroke="none" /><path d="M 120.77682067341334 103.0534771498775 l 7.29226468516553 1.0717117857933256 a28.370596338853503,28.370596338853503 0 0,0 -0.07495039771557727,0.4812353191215209 l -7.272792795311686 -1.196735286846297" fill="#ff5d08" stroke="none" /><path d="M 120.65975698304385 103.76489593502545 l 7.4481719074242605 1.357305033193131 a28.570834941779893,28.570834941779893 0 0,0 -0.09207115871927068,0.48175520798765764 l -7.423774456422831 -1.4849628062141031" fill="#ff5f08" stroke="none" /><path d="M 120.43855184770803 104.8234425847677 l 7.256794486673287 1.7125837396279444 a28.456139033511235,28.456139033511235 0 0,0 -0.11628055601246576,0.47446434936790766 l -7.226326404144525 -1.8369039136039518" fill="#ff5e08" stroke="none" /><path d="M 120.26092885502905 105.52220625578681 l 7.297740191962331 1.9890315409285013 a28.5639446309575,28.5639446309575 0 0,0 -0.13300121801491605,0.4719744023340694 l -7.262520481872834 -2.1140138671655793" fill="#ff5f08" stroke="none" /><path d="M 119.94978838288452 106.5578916946017 l 21.35384983376934 7.019434581711583 a43.47797509941897,43.47797509941897 0 0,0 -0.23915904592840928,0.7070312235097964 l -21.230205366268564 -7.384967479695541" fill="#e1ff1b" stroke="none" /><path d="M 119.4528033332814 107.91128576633889 l 6.971442354262659 2.835224914538152 a28.525922456073086,28.525922456073086 0 0,0 -0.18837181930541133,0.45202379198000675 l -6.921744690420762 -2.9544812159594365" fill="#ff5f08" stroke="none" /><path d="M 118.8641267826498 109.22738970284198 l 6.7498465851494 3.3016882039223523 a28.514091689550575,28.514091689550575 0 0,0 -0.21885256062906588,0.43785172477648265 l -6.692174111308602 -3.4170717848625807" fill="#ff5f08" stroke="none" /><path d="M 118.5362547648365 109.86951160357373 l 6.710407191413512 3.572913864239521 a28.602320577024436,28.602320577024436 0 0,0 -0.23447726186322088,0.43141175210392313 l -6.6480845799349515 -3.6875804498180473" fill="#ff6008" stroke="none" /><line stroke="#e1ed5e" stroke-width="0.3" x1="174.33088141563837" x2="178.70328620479359" y1="141.23008692659167" y2="143.65538615756765" /><path d="M 175.20536237346943 141.71514677278685 a86.0,86.0 0 0,1 -30.301960400862466,31.631185727798858" fill="none" id="id125" stroke="none" /><text fill="#e1ed5e" style="font-size:6.75px; font-family:Arial;" text-anchor="middle"><textPath startOffset="22.145653131862474" xlink:href="#id125">May</textPath></text><path d="M 118.00360718960297 110.81064883170644 l 19.41041275867918 11.655395155129598 a43.64094431962841,43.64094431962841 0 0,0 -0.3911725610653334,0.6389509807409801 l -19.20747223315844 -11.986883251995135" fill="#dfff1b" stroke="none" /><path d="M 117.423217284605 111.72311816256416 l 3.3623636294020796 2.262348307382788 a25.052617554154807,25.052617554154807 0 0,0 -0.24314193224654365,0.3547513455323862 l -3.3230319603402156 -2.319734387985218" fill="#ff2e04" stroke="none" /><path d="M 117.21940702142032 112.02048342749411 l 1.696803152501713 1.1845003808199799 a23.06934339598396,23.06934339598396 0 0,0 -0.22946845344041011,0.32277611688565694 l -1.6762196005313423 -1.2134537244151409" fill="#ff1202" stroke="none" /><path d="M 117.01052211995028 112.31430620078461 l 1.9117481023293 1.3839581962767356 a23.36011039907061,23.36011039907061 0 0,0 -0.23793716365047712,0.3228074596472752 l -1.8877089190949947 -1.416571965192888" fill="#ff1602" stroke="none" /><path d="M 116.57777611688842 112.89097897827486 l 5.937428457196085 4.616980280530641 a28.52127406727947,28.52127406727947 0 0,0 -0.3038650690344143,0.38392358823634576 l -5.857296957520109 -4.71822381268167" fill="#ff5f08" stroke="none" /><path d="M 116.35404254752997 113.17365903436017 l 5.770814255491863 4.648559469716979 a28.410222824914477,28.410222824914477 0 0,0 -0.3092022282273118,0.3771764428582645 l -5.690165208025924 -4.746938194273736" fill="#ff5d08" stroke="none" /><path d="M 115.6541949942343 113.99807769240083 l 8.506607090013215 7.6066605142321535 a32.41155766592106,32.41155766592106 0 0,0 -0.3744342099546878,0.4115687879593733 l -8.374775179216648 -7.751566877749199" fill="#ff930d" stroke="none" /><path d="M 115.16444852881244 114.52719865689866 l 5.5592480809261415 5.325633906248036 a28.698546338670678,28.698546338670678 0 0,0 -0.3438539545997486,0.3528244492993947 l -5.467007325175586 -5.420281047615168" fill="#ff6109" stroke="none" /><path d="M 113.86319453409587 115.77377054828091 l 4.959859706783956 5.643409877431711 a28.513207261594268,28.513207261594268 0 0,0 -0.3704280018446511,0.31996688540210994 l -4.862252225176449 -5.727720895298539" fill="#ff5f08" stroke="none" /><path d="M 113.59037401385872 116.0094264158162 l 2.3757063463579424 2.7985761023810176 a24.670968379725373,24.670968379725373 0 0,0 -0.3252170118375386,0.2713075980187183 l -2.327315000358509 -2.838945884311606" fill="#ff2904" stroke="none" /><path d="M 113.03279911837588 116.46651593811092 l 7.122211328966822 8.998681349861958 a32.47615616183471,32.47615616183471 0 0,0 -0.44011386095863975,0.3422352002863295 l -6.9666875233729515 -9.119617601769079" fill="#ff940d" stroke="none" /><path d="M 111.8722381534696 117.32195027204791 l 4.3169317001846395 6.298532363636271 a28.635928839364112,28.635928839364112 0 0,0 -0.40786250522113704,0.27442809583805294 l -4.2081729068664995 -6.371710133531446" fill="#ff6008" stroke="none" /><path d="M 110.96478420261333 117.91015095944535 l 3.883951850987333 6.344143458274448 a28.43863147359475,28.43863147359475 0 0,0 -0.4185452112772788,0.2513243735913156 l -3.774473883152618 -6.409881832401687" fill="#ff5e08" stroke="none" /><line stroke="#e1ed5e" stroke-width="0.3" x1="143.1302829299769" x2="145.66735839644613" y1="173.24464959558577" y2="177.55315839532614" /><path d="M 143.63769802327073 174.10635135553383 a86.0,86.0 0 0,1 -40.68552437913181,11.842963189579606" fill="none" id="id126" stroke="none" /><text fill="#e1ed5e" style="font-size:6.75px; font-family:Arial;" text-anchor="middle"><textPath startOffset="21.407464694133747" xlink:href="#id126">June</textPath></text><path d="M 110.34350942703117 118.27599006163325 l 10.446448896822995 18.45787424128594 a42.20899375409077,42.20899375409077 0 0,0 -0.6336490758600107,0.35147446096564283 l -10.12805563280689 -18.634481617684724" fill="#f0ff19" stroke="none" /><path d="M 109.3889696526874 118.78422872680471 l 3.308637739633528 6.61949184782221 a28.400321345422235,28.400321345422235 0 0,0 -0.43795966597041264,0.21422801906486252 l -3.194517824401046 -6.675313616984296" fill="#ff5d08" stroke="none" /><path d="M 109.06512990194946 118.94263497670748 l 3.280982029362486 6.855990550558469 a28.600621652624646,28.600621652624646 0 0,0 -0.44468694094632955,0.20813594192283297 l -3.16280637454465 -6.911302724051836" fill="#ff6008" stroke="none" /><path d="M 107.407793817531 119.65005319985036 l 2.656518899118343 7.046731993342895 a28.53083823006279,28.53083823006279 0 0,0 -0.45976881759306737,0.16883347828187634 l -2.535160929871149 -7.091296320633494" fill="#ff5f08" stroke="none" /><path d="M 107.06938296918513 119.77432235084164 l 3.7749512687028473 10.559210552240486 a32.21370521137541,32.21370521137541 0 0,0 -0.5223133659769775,0.18168770180993665 l -3.5931321306808477 -10.622456686619014" fill="#ff900d" stroke="none" /><path d="M 106.72888874123015 119.89276391827305 l 2.384171013961238 7.048377963350019 a28.440692396413866,28.440692396413866 0 0,0 -0.4638233557774629,0.15246794974651764 l -2.262824920536041 -7.0882668344985555" fill="#ff5e08" stroke="none" /><path d="M 106.38641147887787 120.00534299687104 l 2.2763158379385433 7.130526941112754 a28.48505365725488,28.48505365725488 0 0,0 -0.4670997642871483,0.14470870098413213 l -2.153575440779771 -7.16855222990353" fill="#ff5e08" stroke="none" /><path d="M 105.3480935250658 120.30758222061773 l 1.8990183280700264 7.210881906794545 a28.456747849034645,28.456747849034645 0 0,0 -0.4734589081177269,0.12035140299686624 l -1.774954126726902 -7.242418541626681" fill="#ff5e08" stroke="none" /><path d="M 104.9986988182912 120.39639698878246 l 1.785441123842387 7.2852090685544 a28.500804702113957,28.500804702113957 0 0,0 -0.47619123631004995,0.1123798351676588 l -1.6601177337924578 -7.314785047368284" fill="#ff5e08" stroke="none" /><path d="M 104.64783097203109 120.47920084513623 l 1.6632351069313853 7.328520768612345 a28.51488973152045,28.51488973152045 0 0,0 -0.47828646901917055,0.10424030981745813 l -1.5371862212930787 -7.355992536563521" fill="#ff5f08" stroke="none" /><path d="M 104.29559338865022 120.5559693870025 l 1.5097103824179754 7.224510701180515 a28.38056774985857,28.38056774985857 0 0,0 -0.4777443067715113,0.09556224136395407 l -1.3854695901155054 -7.24936233920733" fill="#ff5d08" stroke="none" /><path d="M 103.94208987418118 120.62667999033965 l 1.3745853952427096 7.192411632409889 a28.32258629849042,28.32258629849042 0 0,0 -0.4783351245751087,0.08716859387895128 l -1.250915537116544 -7.214948400220204" fill="#ff5c08" stroke="none" /><path d="M 103.58742460773223 120.69131181640829 l 4.970636023014866 28.669307685628972 a50.09701746994969,50.09701746994969 0 0,0 -0.848601721143065,0.13963709028325935 l -4.477756798818729 -28.750410774407904" fill="#96ff23" stroke="none" /><path d="M 102.875027216393 120.80226474461374 l 1.0247643954009975 7.414684679309024 a28.48516472495172,28.48516472495172 0 0,0 -0.4849561017268948,0.06278727652794468 l -0.8973304717833273 -7.431183552037364" fill="#ff5e08" stroke="none" /><path d="M 102.15924093988457 120.88869738790638 l 0.7867415124140248 7.611010458239515 a28.651564702907947,28.651564702907947 0 0,0 -0.4896694800750547,0.04637220887054686 l -0.6559724689539549 -7.623394422615246" fill="#ff6108" stroke="none" /><path d="M 101.44090949804482 120.95050786540614 l 0.7575486282760885 11.01459079606413 a32.0406109581374,32.0406109581374 0 0,0 -0.5490473721148653,0.03302932650153253 l -0.568356904028758 -11.025972100390355" fill="#ff8e0d" stroke="none" /><path d="M 100.72087961077811 120.9876233191556 l 1.5328838184878322 44.62823985231847 a65.65455771942041,65.65455771942041 0 0,0 -1.126715641554904,0.029020198190925644 l -0.7665548628621843 -44.647977767859444" fill="#36ff71" stroke="none" /><line stroke="#e1ed5e" stroke-width="0.3" x1="101.45913802915013" x2="101.54496967792366" y1="184.9874750549273" y2="189.98673829345242" /><path d="M 101.47630435890484 185.9873277026323 a86.0,86.0 0 0,1 -42.54439059252881,-10.42667462771756" fill="none" id="id127" stroke="none" /><text fill="#e1ed5e" style="font-size:6.75px; font-family:Arial;" text-anchor="middle"><textPath startOffset="22.145653131862474" xlink:href="#id127">July</textPath></text><path d="M 99.27912038922189 120.98762331915562 l -0.25475163643840926 7.416815936487293 a28.42118973157269,28.42118973157269 0 0,0 -0.4874562092565926,-0.020933467020459222 l 0.38203360629584066 -7.411349901041005" fill="#ff5d08" stroke="none" /><path d="M 98.55909050195518 120.95050786540614 l -2.8307197664228583 41.158044146196595 a62.25527326701745,62.25527326701745 0 0,0 -1.0655464500431644,-0.08248003422007462 l 3.5368352112412587 -41.103386344981466" fill="#32ff4a" stroke="none" /><path d="M 97.84075906011543 120.88869738790638 l -0.7688390388584118 7.437820266403759 a28.47745169044904,28.47745169044904 0 0,0 -0.4858308835516914,-0.054438363848216854 l 0.8964058240109025 -7.423526142048572" fill="#ff5e08" stroke="none" /><path d="M 97.12497278360702 120.80226474461374 l -1.0494468536679133 7.593274651775635 a28.665452278631175,28.665452278631175 0 0,0 -0.48686891258041537,-0.07155296389752151 l 1.1796408718560136 -7.574140614579231" fill="#ff6108" stroke="none" /><path d="M 96.41257539226777 120.69131181640829 l -1.3200900101903634 7.613928378509135 a28.727518553071945,28.727518553071945 0 0,0 -0.48517395343058145,-0.08841485630979065 l 1.4505986971720022 -7.590145348267978" fill="#ff6209" stroke="none" /><line stroke="#e1ed5e" stroke-width="0.3" x1="58.13341422392154" x2="55.67067388415222" y1="173.97424548756322" y2="178.32567169271397" /><path d="M 57.64086615596768 174.84453072859336 a86.0,86.0 0 0,1 -31.369924170532247,-30.572349798747897" fill="none" id="id128" stroke="none" /><text fill="#e1ed5e" style="font-size:6.75px; font-family:Arial;" text-anchor="middle"><textPath startOffset="22.145653131862474" xlink:href="#id128">August</textPath></text><path d="M 89.65649057296885 118.27599006163327 l -1.8421779142989552 3.2549518604877865 a24.740097736961395,24.740097736961395 0 0,0 -0.36781165996901083,-0.2123561608941931 l 1.8977820421283655 -3.2228488023174218" fill="#ff2a04" stroke="none" /><path d="M 87.83215693770417 117.11559508785305 l -4.454605520416275 6.265960529998346 a28.68802781641822,28.68802781641822 0 0,0 -0.3989261379673502,-0.2887917595818502 l 4.5615126687575795 -6.18856799904343" fill="#ff6109" stroke="none" /><path d="M 87.54013794807813 116.9041958592261 l -4.601379387538891 6.242654859695313 a28.755219659387173,28.755219659387173 0 0,0 -0.39483245914279347,-0.2962896381492914 l 4.707864835592451 -6.162746194282007" fill="#ff6209" stroke="none" /><path d="M 87.2517909369889 116.68781488649013 l -4.642338223390948 6.076969755477729 a28.64727831253366,28.64727831253366 0 0,0 -0.38822526290542747,-0.30188631259476945 l 4.7459734309316035 -5.996382391262167" fill="#ff6008" stroke="none" /><path d="M 86.40962598614128 116.0094264158162 l -4.827500231499488 5.686783134129728 a28.459508086982005,28.459508086982005 0 0,0 -0.36973037152302146,-0.31936428894595215 l 4.924410082785372 -5.603074712719053" fill="#ff5e08" stroke="none" /><path d="M 85.86807049272751 115.53346607816431 l -4.952982098692071 5.444194961218527 a28.360114839166663,28.360114839166663 0 0,0 -0.3572972413600226,-0.3307089924647498 l 5.045709111366061 -5.358368222621401" fill="#ff5d08" stroke="none" /><path d="M 85.34317274990678 115.03919595460226 l -5.446505664831642 5.588594623078023 a28.8036410615904,28.8036410615904 0 0,0 -0.3511411829258822,-0.3481399942681067 l 5.541638767887487 -5.494274618581256" fill="#ff6309" stroke="none" /><path d="M 84.83555147118756 114.52719865689866 l -18.401975032200202 17.628675811331767 a46.48338470350345,46.48338470350345 0 0,0 -0.5470522551268748,-0.580950537434292 l 18.70188312106333 -17.310183813952985" fill="#beff1f" stroke="none" /><path d="M 84.3458050057657 113.99807769240083 l -2.794900747669384 2.4992174827792115 a24.74934103750941,24.74934103750941 0 0,0 -0.2804794924401337,-0.3191341754865946 l 2.83739130406811 -2.4508710294813167" fill="#ff2a04" stroke="none" /><path d="M 84.1078160697243 113.72728997021213 l -2.8124182908108954 2.429299935419244 a24.71634159069314,24.71634159069314 0 0,0 -0.2745931839678086,-0.3234700802593379 l 2.853706038285816 -2.3806630727103517" fill="#ff2a04" stroke="none" /><path d="M 83.64595745247003 113.17365903436017 l -5.887845892419401 4.742831872190905 a28.560501532355502,28.560501532355502 0 0,0 -0.3042829976429069,-0.3844516273805288 l 5.96839532070387 -4.641060300895695" fill="#ff5f08" stroke="none" /><path d="M 83.20337586046588 112.60449989151573 l -46.97316241000074 35.24953678682645 a79.72825410721944,79.72825410721944 0 0,0 -0.812081549316258,-1.1017445864248863 l 47.57134597890083 -34.43798589113268" fill="#48faff" stroke="none" /><path d="M 82.37810715431573 111.42229804090323 l -6.184438233328361 4.008678144580472 a28.369991636948495,28.369991636948495 0 0,0 -0.2613853081176663,-0.4109411193066748 l 6.252341233071918 -3.9019233505951254" fill="#ff5d08" stroke="none" /><path d="M 81.99639281039703 110.81064883170644 l -13.368036153734428 8.027121615441425 a36.592917367723004,36.592917367723004 0 0,0 -0.3187526956954986,-0.5413117632863568 l 13.503862559559696 -7.796458683861509" fill="#ffc912" stroke="none" /><line stroke="#e1ed5e" stroke-width="0.3" x1="26.387840678322732" x2="22.057713659400548" y1="142.50000000000003" y2="145.00000000000006" /><path d="M 25.521815274538298 143.00000000000003 a86.0,86.0 0 0,1 -11.493303480769221,-40.785679425670985" fill="none" id="id129" stroke="none" /><text fill="#e1ed5e" style="font-size:6.75px; font-family:Arial;" text-anchor="middle"><textPath startOffset="21.40746469413373" xlink:href="#id129">September</textPath></text><path d="M 81.29705330413844 109.54985784667822 l -6.170264266445755 3.150580899320734 a27.928082066556517,27.928082066556517 0 0,0 -0.21435479482463388,-0.4288531802337554 l 6.223438974482126 -3.044195862923226" fill="#ff5708" stroke="none" /><path d="M 80.68587082218212 108.24405325689762 l -46.033271690506716 19.64886637714054 a71.05137413137356,71.05137413137356 0 0,0 -0.46918996677097274,-1.1258851176402782 l 46.36378750181417 -18.85574875005898" fill="#3dffad" stroke="none" /><path d="M 79.83685265289637 105.86919833188381 l -5.986920639225536 1.7427053437622555 a27.23540220479499,27.23540220479499 0 0,0 -0.12681517602572845,-0.450022321637083 l 6.01595430732584 -1.6396750982221768" fill="#ff4d07" stroke="none" /><path d="M 79.64726062577567 105.17358676015961 l -17.72664851713167 4.506044733535067 a39.29039383913167,39.29039383913167 0 0,0 -0.16055266092785095,-0.6551096453155124 l 17.801388704575817 -4.2010792636114545" fill="#ffeb16" stroke="none" /><path d="M 79.48165901384964 104.47187691870673 l -7.273656987355655 1.5852596863606543 a28.444402880211953,28.444402880211953 0 0,0 -0.09988358964860969,-0.47797913473508213 l 7.299798287828632 -1.460164100340163" fill="#ff5e08" stroke="none" /><path d="M 79.06263194458094 101.62068470465958 l -7.624609953113648 0.590193031774505 a28.64741817555931,28.64741817555931 0 0,0 -0.03374398326243937,-0.4906301108495376 l 7.633617897541153 -0.45921949677062407" fill="#ff6008" stroke="none" /><path d="M 79.03789590574601 101.26102812881392 l -62.886312282761985 3.783084386441755 a84.0,84.0 0 0,0 -0.07423364217370931,-1.440112826493077 l 62.94198751439227 -2.7029997665719474" fill="#4dd2ff" stroke="none" /><line stroke="#e1ed5e" stroke-width="0.3" x1="15.003131293944662" x2="10.003315487706104" y1="100.72959589197737" y2="100.7725132973878" /><path d="M 14.003168132696942 100.73817937305945 a86.0,86.0 0 0,1 10.791469493833604,-42.45332614584628" fill="none" id="id130" stroke="none" /><text fill="#e1ed5e" style="font-size:6.75px; font-family:Arial;" text-anchor="middle"><textPath startOffset="22.145653131862435" xlink:href="#id130">October</textPath></text><line stroke="#e1ed5e" stroke-width="0.3" x1="26.387840678322718" x2="22.05771365940052" y1="57.49999999999999" y2="54.99999999999999" /><path d="M 25.521815274538284 56.99999999999999 a86.0,86.0 0 0,1 29.574782752854787,-30.34633250058573" fill="none" id="id131" stroke="none" /><text fill="#e1ed5e" style="font-size:6.75px; font-family:Arial;" text-anchor="middle"><textPath startOffset="21.40746469413373" xlink:href="#id131">November</textPath></text><line stroke="#e1ed5e" stroke-width="0.3" x1="56.869717070023135" x2="54.33264160355391" y1="26.7553504044142" y2="22.446841604673864" /><path d="M 56.362301976729285 25.89364864446614 a86.0,86.0 0 0,1 42.16139366436587,-11.88097634709845" fill="none" id="id132" stroke="none" /><text fill="#e1ed5e" style="font-size:6.75px; font-family:Arial;" text-anchor="middle"><textPath startOffset="22.145653131862474" xlink:href="#id132">December</textPath></text></svg>
