<?xml version="1.0" encoding="utf-8" ?>
<svg baseProfile="full" height="200mm" version="1.1" viewBox="0,0,200,200" width="200mm" xmlns="http://www.w3.org/2000/svg" xmlns:ev="http://www.w3.org/2001/xml-events" xmlns:xlink="http://www.w3.org/1999/xlink"><defs /><rect fill="#f5f5f5" height="200" rx="1" ry="1" width="200" x="0" y="0" /><text alignment-baseline="middle" fill="#006cb8" style="dominant-baseline: central; font-size:9.0px; font-family:Arial;" text-anchor="middle" x="100.0" y="100.0">2021</text><line stroke="#006cb8" stroke-width="0.3" x1="100.0" x2="100.0" y1="15.0" y2="10.0" /><path d="M 100.0 14.0 a86.0,86.0 0 0,1 42.46469731375804,11.215312516191453" fill="none" id="id85" stroke="none" /><text fill="#006cb8" style="font-size:6.75px; font-family:Arial;" text-anchor="middle"><textPath startOffset="22.20632615414155" xlink:href="#id85">一月</textPath></text><path d="M 105.36241919743992 79.69619591428918 l 4.117492793009438 -15.590121531994694 a37.12469026936174,37.12469026936174 0 0,0 0.6164503742305906,0.1684991738250145 l -4.385241056463739 15.516935817343386" fill="red" stroke="none" /><line stroke="#006cb8" stroke-width="0.3" x1="143.23703022742887" x2="145.7803849466894" y1="26.81831364943548" y2="22.513508569990506" /><path d="M 143.74570117128098 25.957352633546492 a86.0,86.0 0 0,1 28.547481713284135,27.462654790039103" fill="none" id="id86" stroke="none" /><text fill="#006cb8" style="font-size:6.75px; font-family:Arial;" text-anchor="middle"><textPath startOffset="19.985693538727396" xlink:href="#id86">二月</textPath></text><path d="M 115.4437574822437 85.77008943001954 l 37.9588955047276 -34.97540601686742 a72.6154702970297,72.6154702970297 0 0,0 0.8390764598681728,0.9265291841523791 l -38.55531560521181 34.31682404544549" fill="red" stroke="none" /><path d="M 115.9244219780498 86.31012108654704 l 38.89055472303865 -33.43336328120945 a72.28610949330226,72.28610949330226 0 0,0 0.8030277208140741,0.9505315334621856 l -39.46029305733984 32.758972798118165" fill="red" stroke="none" /><path d="M 116.15771136456269 86.58626213691792 l 39.22083677869642 -32.56018203630046 a71.97489079790333,71.97489079790333 0 0,0 0.7831605276169864,0.9600622049152834 l -39.77549579838982 31.88023566177708" fill="red" stroke="none" /><path d="M 117.04232023915458 87.72973835380427 l 21.017414139433217 -15.132280522742514 a46.89821636575422,46.89821636575422 0 0,0 0.46605075758285297,0.6591957453750689 l -21.274777516819956 14.768258277035653" fill="red" stroke="none" /><line stroke="#006cb8" stroke-width="0.3" x1="172.23445277983987" x2="176.4835382374775" y1="55.19839476539836" y2="52.563006222186495" /><path d="M 173.08426987136738 54.67131705675599 a86.0,86.0 0 0,1 12.851231095245387,41.99856678651699" fill="none" id="id87" stroke="none" /><text fill="#006cb8" style="font-size:6.75px; font-family:Arial;" text-anchor="middle"><textPath startOffset="22.20632615414155" xlink:href="#id87">三月</textPath></text><path d="M 118.21658344932153 89.55222093294921 l 22.890175070922126 -13.128229704127927 a47.38769656377403,47.38769656377403 0 0,0 0.3997318258583524,0.7110783149262618 l -23.112764538072913 12.732267879266871" fill="red" stroke="none" /><line stroke="#006cb8" stroke-width="0.3" x1="184.98032266829074" x2="189.97916517819016" y1="98.17113171792111" y2="98.06355123074" /><path d="M 185.9800911702706 98.14961562048488 a86.0,86.0 0 0,1 -9.607161424134198,41.387399972396054" fill="none" id="id88" stroke="none" /><text fill="#006cb8" style="font-size:6.75px; font-family:Arial;" text-anchor="middle"><textPath startOffset="21.466115282336823" xlink:href="#id88">四月</textPath></text><path d="M 120.64145759157962 103.86396538481128 l 26.06675275340839 4.879550287896907 a47.51953261502621,47.51953261502621 0 0,0 -0.157425574713928,0.8027096138727442 l -25.9788972457188 -5.3275236288375964" fill="red" stroke="none" /><path d="M 120.49622156327973 104.57218783832717 l 25.548255674679098 5.699168674850578 a47.17620850320326,47.17620850320326 0 0,0 -0.18362650402828934,0.7910581734017625 l -25.446368604720256 -6.138095505600906" fill="red" stroke="none" /><path d="M 120.32669344350535 105.2749913415812 l 24.87218170020069 6.454593487103212 a46.69605416423995,46.69605416423995 0 0,0 -0.20860222230456735,0.7762864711267554 l -24.757391401554347 -6.881770891405516" fill="red" stroke="none" /><path d="M 120.02730092923936 106.31721596034902 l 38.90427622827544 12.271584452814373 a61.79380460104834,61.79380460104834 0 0,0 -0.32870699110119006,1.0116560950665523 l -38.687276986158004 -12.939439447858721" fill="red" stroke="none" /><path d="M 119.54520255179757 107.68017299344265 l 48.46753001840654 19.045032361253377 a73.07508736167735,73.07508736167735 0 0,0 -0.47010729835596526,1.1667677613005734 l -48.13252010579318 -19.876499490396764" fill="red" stroke="none" /><path d="M 119.26925614724726 108.34839909993367 l 47.07538008537507 20.395393456323106 a72.30364006988934,72.30364006988934 0 0,0 -0.5046068123154026,1.1377551494632807 l -46.7173321883284 -21.202696942279072" fill="red" stroke="none" /><path d="M 118.81262510543309 109.33194174019688 l 22.851212891061913 11.335270128284229 a46.5081610366919,46.5081610366919 0 0,0 -0.3619250258290763,0.7141124117968647 l -22.65270919544657 -11.72693675178379" fill="red" stroke="none" /><line stroke="#006cb8" stroke-width="0.3" x1="174.80103733775053" x2="179.2010983576182" y1="140.37084112569926" y2="142.7455964860345" /><path d="M 175.68104954172406 140.8457921977663 a86.0,86.0 0 0,1 -30.038265399797805,32.042727171017184" fill="none" id="id89" stroke="none" /><text fill="#006cb8" style="font-size:6.75px; font-family:Arial;" text-anchor="middle"><textPath startOffset="22.206326154141568" xlink:href="#id89">五月</textPath></text><path d="M 116.71984013943494 112.70617746262583 l 47.16010898735064 35.83914134063628 a80.23276062900408,80.23276062900408 0 0,0 -0.8450923660433458,1.0923958027083853 l -46.536209804089225 -36.645615137457916" fill="red" stroke="none" /><path d="M 116.498646956653 112.99209946851258 l 20.824416984651595 16.398489982190753 a47.5059769947583,47.5059769947583 0 0,0 -0.5114404985166205,0.6381006594711084 l -20.53905857408012 -16.75451847524011" fill="red" stroke="none" /><path d="M 116.0416608686014 113.55231037782055 l 19.896206327166325 16.808706136824338 a47.04595224228305,47.04595224228305 0 0,0 -0.5279395733461627,0.6141129953029927 l -19.603924244249384 -17.148696231288856" fill="red" stroke="none" /><path d="M 115.07121518719521 114.62390073753431 l 22.4760358813815 21.80894596885869 a52.31776354105999,52.31776354105999 0 0,0 -0.6326945965418992,0.640916285933785 l -22.097300659784064 -22.19260274877314" fill="red" stroke="none" /><path d="M 112.34349029814194 116.9893568818739 l 25.21366374012058 34.703630920741546 a63.89604688410017,63.89604688410017 0 0,0 -0.895374307451291,0.6388257947041726 l -24.612562104820405 -35.132500977289936" fill="red" stroke="none" /><path d="M 111.45004920935366 117.60387380957326 l 28.72023445428016 44.15591355725234 a73.67443942923704,73.67443942923704 0 0,0 -1.0690448770514136,0.6823150206419458 l -27.955907775181817 -44.64374300671809" fill="red" stroke="none" /><line stroke="#006cb8" stroke-width="0.3" x1="143.8653032363475" x2="146.44561519142675" y1="172.8068346515853" y2="177.08958963109032" /><path d="M 144.38136562736335 173.6633856474863 a86.0,86.0 0 0,1 -40.68145358897372,12.25698825130547" fill="none" id="id90" stroke="none" /><text fill="#006cb8" style="font-size:6.75px; font-family:Arial;" text-anchor="middle"><textPath startOffset="21.466115282336833" xlink:href="#id90">六月</textPath></text><path d="M 109.89434966115114 118.52300852407294 l 24.022226655720175 44.97151650686137 a71.98533779848573,71.98533779848573 0 0,0 -1.097978980074205,0.5744107086834808 l -23.244556773119474 -45.37835663448957" fill="red" stroke="none" /><path d="M 108.2653958097858 119.30500536409082 l 14.516472459230046 33.90528235336562 a57.88219277810134,57.88219277810134 0 0,0 -0.9193030132555589,0.3842687340985056 l -13.930697986477027 -34.1501361304841" fill="red" stroke="none" /><path d="M 107.59598834532513 119.57807347666477 l 14.964786445173331 38.5705816368864 a62.37190594059406,62.37190594059406 0 0,0 -1.0042761326882845,0.37973130088997975 l -14.29864009172477 -38.822461187883015" fill="red" stroke="none" /><path d="M 101.26447882468166 120.96189622390904 l 2.978849813216709 49.38187926316563 a70.47164385556204,70.47164385556204 0 0,0 -1.2114811557320853,0.06261973772047977 l -2.1283805890711442 -49.42583880764831" fill="red" stroke="none" /><path d="M 100.90346689309514 120.98055641714683 l 1.8561982520412066 43.10514579559556 a64.14509318578916,64.14509318578916 0 0,0 -1.1035388908551698,0.03800811068989393 l -1.1139390095113844 -43.130710704711554" fill="red" stroke="none" /><line stroke="#006cb8" stroke-width="0.3" x1="102.19456741930631" x2="102.32365962044197" y1="184.97166512339345" y2="189.96999836594603" /><path d="M 102.22038585953345 185.97133177190398 a86.0,86.0 0 0,1 -42.740103519485714,-10.115201625700543" fill="none" id="id91" stroke="none" /><text fill="#006cb8" style="font-size:6.75px; font-family:Arial;" text-anchor="middle"><textPath startOffset="22.20632615414155" xlink:href="#id91">七月</textPath></text><path d="M 100.54218724476979 120.99299961872073 l 1.626561734309384 62.97899885616221 a84.0,84.0 0 0,0 -1.4457612404293283,0.02489009088336136 l -0.5422408039873879 -62.99766642432473" fill="red" stroke="none" /><path d="M 99.45781275523022 120.99299961872073 l -0.2487380033888619 9.63091046621903 a30.634122015142694,30.634122015142694 0 0,0 -0.5270230870660394,-0.018151740727336125 l 0.41448144212954435 -9.6252019270656" fill="red" stroke="none" /><line stroke="#006cb8" stroke-width="0.3" x1="58.666819895761336" x2="56.23545636021788" y1="174.27360380694188" y2="178.64263932499728" /><path d="M 58.180547188652646 175.14741091055294 a86.0,86.0 0 0,1 -31.652253787137756,-30.449443065178592" fill="none" id="id92" stroke="none" /><text fill="#006cb8" style="font-size:6.75px; font-family:Arial;" text-anchor="middle"><textPath startOffset="22.20632615414155" xlink:href="#id92">八月</textPath></text><path d="M 85.97065885151581 115.62618273729859 l -17.70349785772612 19.718537719363386 a47.49970879440885,47.49970879440885 0 0,0 -0.6036996989248062,-0.5514653613861005 l 18.04029710611778 -19.41087959139071" fill="red" stroke="none" /><path d="M 85.44109423537348 115.13401014063109 l -17.66514483186095 18.362951539301946 a46.48048922539313,46.48048922539313 0 0,0 -0.571820790713176,-0.5596469960356791 l 17.97861557494992 -18.056154440343697" fill="red" stroke="none" /><path d="M 85.18274418774928 114.88116024355367 l -20.24392113739361 20.331229899827 a49.69103086779266,49.69103086779266 0 0,0 -0.6009287209300394,-0.6087376216495183 l 20.590890483379184 -19.979751784196818" fill="red" stroke="none" /><path d="M 84.67929136418377 114.36230785411682 l -23.088138378086494 21.6438390055488 a52.646767617938266,52.646767617938266 0 0,0 -0.614095944544196,-0.6664798623806722 l 23.45728073062642 -21.243207888366783" fill="red" stroke="none" /><path d="M 83.95833913139862 113.55231037782056 l -26.510316083084707 22.396436049543304 a55.70442632498544,55.70442632498544 0 0,0 -0.6124940410511873,-0.7377885291062172 l 26.891906124029433 -21.936786263323324" fill="red" stroke="none" /><path d="M 83.06392112726016 112.41649034213515 l -22.6044539409991 16.57219396276046 a49.02853814793244,49.02853814793244 0 0,0 -0.493134190815559,-0.6849202603076319 l 22.886367924190267 -16.180640097001685" fill="red" stroke="none" /><path d="M 82.6465618267979 111.8261652097733 l -23.751065641831644 16.186073525315813 a49.74199184624345,49.74199184624345 0 0,0 -0.476094566275224,-0.7116967792224383 l 24.026163313517596 -15.774839831887553" fill="red" stroke="none" /><path d="M 82.44556493220864 111.52570212397912 l -26.241341491359645 17.22925768872825 a52.39196272568434,52.39196272568434 0 0,0 -0.48848054761048076,-0.7581326576217178 l 26.534026902347172 -16.775003431185084" fill="red" stroke="none" /><path d="M 82.05923443525364 110.91462005526583 l -29.77937207893252 18.116870796451728 a55.8573092603378,55.8573092603378 0 0,0 -0.4926591384310862,-0.8257250537112001 l 30.08681209306184 -17.601583648854415" fill="red" stroke="none" /><line stroke="#006cb8" stroke-width="0.3" x1="26.63291911575756" x2="22.317208475507996" y1="142.92168965132927" y2="145.44649492493687" /><path d="M 25.769776987707644 143.4266507060508 a86.0,86.0 0 0,1 -11.730757126820373,-40.83630448921669" fill="none" id="id93" stroke="none" /><text fill="#006cb8" style="font-size:6.75px; font-family:Arial;" text-anchor="middle"><textPath startOffset="21.46611528233685" xlink:href="#id93">九月</textPath></text><path d="M 81.35079622478065 109.6543875284942 l -23.08069774160811 11.948499416453211 a46.99009900990099,46.99009900990099 0 0,0 -0.36567545176538335,-0.7215123579722098 l 23.28295186315976 -11.549432846778316" fill="red" stroke="none" /><path d="M 80.87730276802145 108.67885076344099 l -41.857583244138624 18.997096167306776 a66.9668025626092,66.9668025626092 0 0,0 -0.46736104488526437,-1.0537757765037814 l 42.17838537375517 -18.2737720543103" fill="red" stroke="none" /><path d="M 80.58989483394504 108.01547362559985 l -40.08444839912824 16.55301896569955 a64.3677926616191,64.3677926616191 0 0,0 -0.4140914530765352,-1.0277410271430534 l 40.36344246646217 -15.860578570713692" fill="red" stroke="none" /><path d="M 80.32549172779594 107.34259656027581 l -28.84286350301202 10.76425938659537 a51.786036691904485,51.786036691904485 0 0,0 -0.30449138810207005,-0.8378295262093619 l 29.023879152119314 -10.26618206337989" fill="red" stroke="none" /><path d="M 79.97269907076064 106.31721596034903 l -24.44605990925887 7.711026082448945 a46.63337216074549,46.63337216074549 0 0,0 -0.23488391820784854,-0.7676142349958069 l 24.57517059997285 -7.289084874901091" fill="red" stroke="none" /><path d="M 79.76711848015287 105.62410040840567 l -28.7231500900567 7.9841262349964035 a50.81217239370996,50.81217239370996 0 0,0 -0.22698988750034724,-0.844713813699606 l 28.85632805389882 -7.4885214881212585" fill="red" stroke="none" /><path d="M 79.4281124754447 104.21870165774334 l -29.991283957063885 6.150348585976522 a51.615419336051254,51.615419336051254 0 0,0 -0.17099467536657942,-0.8718981657664494 l 30.092708565406134 -5.633186693142117" fill="red" stroke="none" /><path d="M 79.29508885075956 103.50808413554451 l -25.122441211949667 4.256557143691164 a46.48048922539313,46.48048922539313 0 0,0 -0.1268657189918315,-0.7899929532649332 l 25.19198868530279 -3.823484960733017" fill="red" stroke="none" /><path d="M 79.1416061653843 102.43462659150553 l -50.61734089161255 5.908140631686887 a71.96097845078626,71.96097845078626 0 0,0 -0.13301712215199635,-1.2315733493325007 l 50.711540315265594 -5.035970960469604" fill="red" stroke="none" /><path d="M 79.07016306316243 101.71520430193888 l -25.39535640753928 2.08115451118579 a46.48048922539313,46.48048922539313 0 0,0 -0.05848449906191278,-0.7979745235489093 l 25.427417465265528 -1.6437068511401198" fill="red" stroke="none" /><path d="M 79.0235259727143 100.99374915477108 l -26.622733246627895 1.2612376430432786 a47.65259172976121,47.65259172976121 0 0,0 -0.031763554682341044,-0.8196762081686855 l 26.64049893416144 -0.8027841878605964" fill="red" stroke="none" /><line stroke="#006cb8" stroke-width="0.3" x1="15.007084014347285" x2="10.007500721073583" y1="101.09737516637583" y2="101.16192664675087" /><path d="M 14.007167355692545 101.11028546245083 a86.0,86.0 0 0,1 10.666146001902534,-42.60595125391555" fill="none" id="id94" stroke="none" /><text fill="#006cb8" style="font-size:6.75px; font-family:Arial;" text-anchor="middle"><textPath startOffset="22.20632615414155" xlink:href="#id94">十月</textPath></text><path d="M 79.00019446554 99.90962569577889 l -36.65533178770189 -0.1577490849080406 a57.6556712288876,57.6556712288876 0 0,0 0.012813267011835747,-0.9924016507823284 l 36.64718551357234 0.788686993750841" fill="red" stroke="none" /><path d="M 79.00486145842228 99.54816195383935 l -10.463789963729383 -0.2251920559268478 a31.466212871287127,31.466212871287127 0 0,0 0.016314940003156586,-0.5414134313274248 l 10.45836332927058 0.40527563467926697" fill="red" stroke="none" /><path d="M 79.01574976396665 99.18683210126434 l -25.487196983319613 -0.9876631369939961 a46.50632644146768,46.50632644146768 0 0,0 0.03788359236802569,-0.7996627595132693 l 25.466419782718088 1.4262370031302745" fill="red" stroke="none" /><path d="M 79.08570108090925 98.10471618934814 l -29.328030830877378 -2.6577482825074243 a50.448209085614444,50.448209085614444 0 0,0 0.08581690632009782,-0.8641645352492664 l 29.27793679887505 3.162188348461121" fill="red" stroke="none" /><path d="M 79.32604984820605 96.31383870115002 l -35.47001251533274 -6.324296346066148 a57.029411764705884,57.029411764705884 0 0,0 0.18063190663694442,-0.9649428680673271 l 35.35589488478593 6.933917291596048" fill="red" stroke="none" /><path d="M 79.46518482838121 95.60439243477599 l -36.87576011210908 -7.893490580144063 a58.71112405358183,58.71112405358183 0 0,0 0.22004261944936065,-0.9864079169697219 l 36.734423105657676 8.527076666663744" fill="red" stroke="none" /><path d="M 79.62865764111835 94.90015583598534 l -49.43540661735985 -12.375859454510415 a71.96097845078626,71.96097845078626 0 0,0 0.3111581335968171,-1.1990192181395856 l 49.21505215189273 13.224975098198865" fill="red" stroke="none" /><path d="M 80.02781315780177 93.51064311812611 l -48.46677063239717 -15.747808391268423 a71.96097845078626,71.96097845078626 0 0,0 0.3929162158094439,-1.1747694739503187 l 48.18851712281596 16.579750968141063" fill="red" stroke="none" /><path d="M 80.38941819471856 92.48833698450439 l -47.60962709739395 -18.236454104218232 a71.9827897495632,71.9827897495632 0 0,0 0.45317090963820683,-1.153270535315218 l 47.28866263787405 19.053273644429215" fill="red" stroke="none" /><path d="M 80.95270993114464 91.15688171328213 l -46.22231136880062 -21.459712402246826 a71.96097845078626,71.96097845078626 0 0,0 0.5312838129487951,-1.11901920433488 l 45.84606936201008 22.25217402222224" fill="red" stroke="none" /><path d="M 81.43458229118936 90.18545643968196 l -22.52647266163201 -11.908541497182638 a46.48048922539313,46.48048922539313 0 0,0 0.3800154068744327,-0.7041108346003647 l 22.318149155539107 12.294533315115476" fill="red" stroke="none" /><line stroke="#006cb8" stroke-width="0.3" x1="26.266209847984243" x2="21.928928074336255" y1="57.711370442889674" y2="55.22380399835377" /><path d="M 25.398753493254645 57.213857153982495 a86.0,86.0 0 0,1 29.58750427330803,-30.492523968695096" fill="none" id="id95" stroke="none" /><text fill="#006cb8" style="font-size:6.75px; font-family:Arial;" text-anchor="middle"><textPath startOffset="21.46611528233685" xlink:href="#id95">十一月</textPath></text><path d="M 81.78341655067845 89.55222093294921 l -44.2064246003726 -25.35376399497861 a71.96097845078626,71.96097845078626 0 0,0 0.6255133538971644,-1.0692050849430121 l 43.76345157200511 26.110948492275515" fill="red" stroke="none" /><path d="M 83.6137871275137 86.86637796730984 l -20.081143226086148 -16.095125040061472 a46.73529411764706,46.73529411764706 0 0,0 0.5085278656731264,-0.6233950343035817 l 19.801116868336628 16.438404243973135" fill="red" stroke="none" /><path d="M 86.93701828274178 83.55741782278169 l -15.374553807198216 -19.352194612577367 a45.71607454863133,45.71607454863133 0 0,0 0.6203615691554611,-0.48420204473799316 l 15.03915968288333 19.61397504653858" fill="red" stroke="none" /><path d="M 88.39885842347998 82.49532879139004 l -14.076322044894228 -21.239408863096923 a46.48048922539313,46.48048922539313 0 0,0 0.6707200425224893,-0.436254972948387 l 13.708634976587451 21.478562760204845" fill="red" stroke="none" /><line stroke="#006cb8" stroke-width="0.3" x1="56.762969772571076" x2="54.21961505331055" y1="26.818313649435495" y2="22.513508569990535" /><path d="M 56.25429882871897 25.957352633546506 a86.0,86.0 0 0,1 42.265352541879196,-11.944610805530505" fill="none" id="id96" stroke="none" /><text fill="#006cb8" style="font-size:6.75px; font-family:Arial;" text-anchor="middle"><textPath startOffset="22.20632615414155" xlink:href="#id96">十二月</textPath></text><path d="M 94.28887869178378 79.79150937346287 l -4.362990112783017 -15.438202069181393 a37.042872743156664,37.042872743156664 0 0,0 0.6150918054645602,-0.16812782566102746 l 4.0966004180947335 15.511016435668719" fill="red" stroke="none" /><path d="M 95.33964822691252 79.52364482259891 l -5.6546687209855895 -24.84512130824244 a46.48048922539313,46.48048922539313 0 0,0 0.7816629978500694,-0.17084125571908493 l 5.226162998981999 24.938776062057393" fill="red" stroke="none" /></svg>