<?xml version="1.0" encoding="utf-8" ?>
<svg baseProfile="full" height="200mm" version="1.1" viewBox="0,0,200,200" width="200mm" xmlns="http://www.w3.org/2000/svg" xmlns:ev="http://www.w3.org/2001/xml-events" xmlns:xlink="http://www.w3.org/1999/xlink"><defs /><rect fill="#1a1a1a" height="200" width="200" x="0" y="0" /><text alignment-baseline="middle" fill="#e1ed5e" style="dominant-baseline: central; font-size:9.0px; font-family:Arial;" text-anchor="middle" x="100.0" y="100.0">2024</text><line stroke="#e1ed5e" stroke-width="0.3" x1="100.0" x2="100.0" y1="15.0" y2="10.0" /><path d="M 100.0 14.0 a86.0,86.0 0 0,1 42.35913384403234,11.155469271406648" fill="none" id="id121" stroke="none" /><text fill="#e1ed5e" style="font-size:6.75px; font-family:Arial;" text-anchor="middle"><textPath startOffset="22.145653131862478" xlink:href="#id121">January</textPath></text><path d="M 100.0 79.0 l 0.0 -1.492013785427858 a22.492013785427858,22.492013785427858 0 0,0 0.3861053254880786,0.0033142498498491945 l -0.025612400639223817 1.4917939337724435" fill="#ff0000" stroke="none" /><path d="M 100.72087961077811 79.0123766808444 l 0.9116439048224622 -26.541517598154392 a47.5571694843848,47.5571694843848 0 0,0 0.8156603498578769,0.03502796499337541 l -1.3671300152811754 26.521957064735187" fill="#b6ff1f" stroke="none" /><path d="M 101.44090949804482 79.04949213459386 l 1.7857495529485117 -25.964406581716965 a47.02574322870652,47.02574322870652 0 0,0 0.80488143619694,0.06230291358761195 l -2.231199983920685 25.9299259011343" fill="#bcff1f" stroke="none" /><path d="M 102.15924093988457 79.11130261209362 l 0.185446831142989 -1.7940298675048074 a22.803589114149975,22.803589114149975 0 0,0 0.3890336806784204,0.04359203536662233 l -0.21621641342220607 1.7905820716312142" fill="#ff0500" stroke="none" /><path d="M 102.51750503828377 79.15144685158666 l 3.062978873048503 -25.365858997745054 a46.550120200700135,46.550120200700135 0 0,0 0.7925095412095128,0.10260622670333634 l -3.4979662361488075 25.30954117484132" fill="#c2ff1e" stroke="none" /><path d="M 103.23170211078529 79.25015418208739 l 3.8948273186809734 -25.00758534652992 a46.309069613605345,46.309069613605345 0 0,0 0.7844370416305178,0.12907881668699875 l -4.323541863364562 24.93704053134725" fill="#c5ff1e" stroke="none" /><path d="M 103.94208987418118 79.37332000966035 l 4.7385504477995015 -24.794098263714258 a46.24284391777319,46.24284391777319 0 0,0 0.7784289449512494,0.15570759016433222 l -5.163475878281708 24.709101276887065" fill="#c5ff1e" stroke="none" /><path d="M 104.64783097203109 79.52079915486377 l 0.8848499865910123 -3.8988123066994054 a24.99796159331738,24.99796159331738 0 0,0 0.4176657592923973,0.09856798194810357 l -0.9516478996232947 3.883048181105074" fill="#ff2503" stroke="none" /><path d="M 105.3480935250658 79.69241777938227 l 6.446699330333902 -24.47916740587407 a46.31382170160276,46.31382170160276 0 0,0 0.7670861229338998,0.20907273388610723 l -6.865966854202495 24.36489417784382" fill="#c4ff1e" stroke="none" /><path d="M 105.69591212413111 79.78721728523813 l 1.2062342522760452 -4.280499823911563 a25.44721034063725,25.44721034063725 0 0,0 0.4194427177252802,0.12209366210616306 l -1.27953698238293 4.259162467502884" fill="#ff2b04" stroke="none" /><path d="M 106.38641147887787 79.99465700312896 l 7.701811147922607 -24.12581372511076 a46.325338751081055,46.325338751081055 0 0,0 0.7554940568100568,0.2483459024921872 l -8.114827942380407 23.99004690121655" fill="#c4ff1e" stroke="none" /><path d="M 107.06938296918511 80.22567764915836 l 2.535874080687421 -7.093291130390901 a28.5329566847012,28.5329566847012 0 0,0 0.45980295607075466,0.16884601440374913 l -2.6572661884123003 7.048714266978431" fill="#ff5708" stroke="none" /><path d="M 107.40779381753099 80.34994680014964 l 8.93978374694108 -23.713838498963455 a46.34296489752123,46.34296489752123 0 0,0 0.7419900112778814,0.28701767612317036 l -9.345546020712487 23.556880934702246" fill="#c4ff1e" stroke="none" /><path d="M 108.73861861582097 80.90454125486305 l 10.614596191190907 -23.194808307369037 a46.50821014335659,46.50821014335659 0 0,0 0.7231169290210322,0.3384552350960614 l -11.011201834083444 23.00917684070244" fill="#c2ff1e" stroke="none" /><path d="M 109.3889696526874 81.21577127319529 l 28.166908958062173 -56.352686180414125 a84.0,84.0 0 0,0 1.2842911131456847,0.6557681933086643 l -29.130127292921436 55.86086003543262" fill="#4dd2ff" stroke="none" /><line stroke="#e1ed5e" stroke-width="0.3" x1="143.13028292997686" x2="145.6673583964461" y1="26.7553504044142" y2="22.446841604673864" /><path d="M 143.63769802327073 25.89364864446614 a86.0,86.0 0 0,1 29.32050498858742,28.57503671076993" fill="none" id="id122" stroke="none" /><text fill="#e1ed5e" style="font-size:6.75px; font-family:Arial;" text-anchor="middle"><textPath startOffset="20.669276256404974" xlink:href="#id122">February</textPath></text><path d="M 110.96478420261332 82.08984904055464 l 22.310216320190605 -36.442061681182956 a63.72902540228179,63.72902540228179 0 0,0 0.9281248573947328,0.5792185548319728 l -22.93250530637505 36.053707329509436" fill="#34ff58" stroke="none" /><path d="M 111.27062007382361 82.28071324371311 l 4.144431540972576 -6.515734754190809 a28.722118374175462,28.722118374175462 0 0,0 0.41375492762871824,0.2681909452437164 l -4.255672100858301 6.443629967243198" fill="#ff5908" stroke="none" /><path d="M 111.8722381534696 82.67804972795209 l 14.18074057291594 -20.69012429245076 a46.08335397097855,46.08335397097855 0 0,0 0.6486888404284964,0.4528351903332774 l -14.533824504518197 20.443644286312356" fill="#c7ff1e" stroke="none" /><path d="M 112.16784306229584 82.88440491214696 l 14.599143588157343 -20.535523757583768 a46.19608559887672,46.19608559887672 0 0,0 0.6423873448219845,0.46503889815171195 l -14.949511943353295 20.28188408805898" fill="#c6ff1e" stroke="none" /><path d="M 116.57777611688842 87.10902102172516 l 10.195993957407445 -7.928466571198146 a33.91583814353895,33.91583814353895 0 0,0 0.353448291146899,0.46267515895386185 l -10.330594225908651 7.752270499003402" fill="#ffa00e" stroke="none" /><line stroke="#e1ed5e" stroke-width="0.3" x1="172.87174338648825" x2="177.1583165268699" y1="56.24261187166439" y2="53.66864786411523" /><path d="M 173.72905801456457 55.72781907015455 a86.0,86.0 0 0,1 12.242430191666344,42.057860355516425" fill="none" id="id123" stroke="none" /><text fill="#e1ed5e" style="font-size:6.75px; font-family:Arial;" text-anchor="middle"><textPath startOffset="22.145653131862474" xlink:href="#id123">March</textPath></text><line stroke="#e1ed5e" stroke-width="0.3" x1="184.99686870605535" x2="189.99668451229388" y1="99.2704041080226" y2="99.22748670261217" /><path d="M 185.99683186730306 99.26182062694052 a86.0,86.0 0 0,1 -10.086455211305974,41.156179273409016" fill="none" id="id124" stroke="none" /><text fill="#e1ed5e" style="font-size:6.75px; font-family:Arial;" text-anchor="middle"><textPath startOffset="21.40746469413373" xlink:href="#id124">April</textPath></text><line stroke="#e1ed5e" stroke-width="0.3" x1="174.33088141563837" x2="178.70328620479359" y1="141.23008692659167" y2="143.65538615756765" /><path d="M 175.20536237346943 141.71514677278685 a86.0,86.0 0 0,1 -30.301960400862466,31.631185727798858" fill="none" id="id125" stroke="none" /><text fill="#e1ed5e" style="font-size:6.75px; font-family:Arial;" text-anchor="middle"><textPath startOffset="22.145653131862474" xlink:href="#id125">May</textPath></text><line stroke="#e1ed5e" stroke-width="0.3" x1="143.1302829299769" x2="145.66735839644613" y1="173.24464959558577" y2="177.55315839532614" /><path d="M 143.63769802327073 174.10635135553383 a86.0,86.0 0 0,1 -40.68552437913181,11.842963189579606" fill="none" id="id126" stroke="none" /><text fill="#e1ed5e" style="font-size:6.75px; font-family:Arial;" text-anchor="middle"><textPath startOffset="21.407464694133747" xlink:href="#id126">June</textPath></text><line stroke="#e1ed5e" stroke-width="0.3" x1="101.45913802915013" x2="101.54496967792366" y1="184.9874750549273" y2="189.98673829345242" /><path d="M 101.47630435890484 185.9873277026323 a86.0,86.0 0 0,1 -42.54439059252881,-10.42667462771756" fill="none" id="id127" stroke="none" /><text fill="#e1ed5e" style="font-size:6.75px; font-family:Arial;" text-anchor="middle"><textPath startOffset="22.145653131862474" xlink:href="#id127">July</textPath></text><line stroke="#e1ed5e" stroke-width="0.3" x1="58.13341422392154" x2="55.67067388415222" y1="173.97424548756322" y2="178.32567169271397" /><path d="M 57.64086615596768 174.84453072859336 a86.0,86.0 0 0,1 -31.369924170532247,-30.572349798747897" fill="none" id="id128" stroke="none" /><text fill="#e1ed5e" style="font-size:6.75px; font-family:Arial;" text-anchor="middle"><textPath startOffset="22.145653131862474" xlink:href="#id128">August</textPath></text><line stroke="#e1ed5e" stroke-width="0.3" x1="26.387840678322732" x2="22.057713659400548" y1="142.50000000000003" y2="145.00000000000006" /><path d="M 25.521815274538298 143.00000000000003 a86.0,86.0 0 0,1 -11.493303480769221,-40.785679425670985" fill="none" id="id129" stroke="none" /><text fill="#e1ed5e" style="font-size:6.75px; font-family:Arial;" text-anchor="middle"><textPath startOffset="21.40746469413373" xlink:href="#id129">September</textPath></text><line stroke="#e1ed5e" stroke-width="0.3" x1="15.003131293944662" x2="10.003315487706104" y1="100.72959589197737" y2="100.7725132973878" /><path d="M 14.003168132696942 100.73817937305945 a86.0,86.0 0 0,1 10.791469493833604,-42.45332614584628" fill="none" id="id130" stroke="none" /><text fill="#e1ed5e" style="font-size:6.75px; font-family:Arial;" text-anchor="middle"><textPath startOffset="22.145653131862435" xlink:href="#id130">October</textPath></text><line stroke="#e1ed5e" stroke-width="0.3" x1="26.387840678322718" x2="22.05771365940052" y1="57.49999999999999" y2="54.99999999999999" /><path d="M 25.521815274538284 56.99999999999999 a86.0,86.0 0 0,1 29.574782752854787,-30.34633250058573" fill="none" id="id131" stroke="none" /><text fill="#e1ed5e" style="font-size:6.75px; font-family:Arial;" text-anchor="middle"><textPath startOffset="21.40746469413373" xlink:href="#id131">November</textPath></text><line stroke="#e1ed5e" stroke-width="0.3" x1="56.869717070023135" x2="54.33264160355391" y1="26.7553504044142" y2="22.446841604673864" /><path d="M 56.362301976729285 25.89364864446614 a86.0,86.0 0 0,1 42.16139366436587,-11.88097634709845" fill="none" id="id132" stroke="none" /><text fill="#e1ed5e" style="font-size:6.75px; font-family:Arial;" text-anchor="middle"><textPath startOffset="22.145653131862474" xlink:href="#id132">December</textPath></text></svg>