<?xml version="1.0" encoding="utf-8" ?>
<svg baseProfile="full" height="200mm" version="1.1" viewBox="0,0,200,200" width="200mm" xmlns="http://www.w3.org/2000/svg" xmlns:ev="http://www.w3.org/2001/xml-events" xmlns:xlink="http://www.w3.org/1999/xlink"><defs /><rect fill="#1a1a1a" height="200" width="200" x="0" y="0" /><text alignment-baseline="middle" fill="#e1ed5e" style="dominant-baseline: central; font-size:9.0px; font-family:Arial;" text-anchor="middle" x="100.0" y="100.0">2024</text><line stroke="#e1ed5e" stroke-width="0.3" x1="100.0" x2="100.0" y1="15.0" y2="10.0" /><path d="M 100.0 14.0 a86.0,86.0 0 0,1 42.35913384403234,11.155469271406648" fill="none" id="id121" stroke="none" /><text fill="#e1ed5e" style="font-size:6.75px; font-family:Arial;" text-anchor="middle"><textPath startOffset="22.145653131862478" xlink:href="#id121">January</textPath></text><path d="M 100.0 79.0 l 0.0 -1.1615185357860724 a22.161518535786072,22.161518535786072 0 0,0 0.3804319350503634,0.0032655506163367727 l -0.019939010201508595 1.1613473833641705" fill="#ff0000" stroke="none" /><path d="M 100.72087961077811 79.0123766808444 l 0.3785581554489887 -11.021307652718741 a32.02780706454976,32.02780706454976 0 0,0 0.5493138594808273,0.02358990067817202 l -0.5676977755306523 11.013185183614738" fill="#ff8a0c" stroke="none" /><path d="M 101.44090949804482 79.04949213459386 l 0.7438563728791572 -10.815508407629752 a31.84105827025124,31.84105827025124 0 0,0 0.5449839800712747,0.042185206777095426 l -0.9294093477256653 10.801145433857602" fill="#ff880c" stroke="none" /><path d="M 102.15924093988457 79.11130261209362 l 0.12010817373603616 -1.1619376275443662 a22.16812885577818,22.16812885577818 0 0,0 0.37819260465298726,0.04237727018565187 l -0.14003667998982006 1.1597045968517437" fill="#ff0000" stroke="none" /><path d="M 102.51750503828377 79.15144685158666 l 1.2718683475209678 -10.532894448208292 a31.609406889667433,31.609406889667433 0 0,0 0.5381459047587674,0.06967376142737516 l -1.452492074170527 10.50950909058052" fill="#ff850c" stroke="none" /><path d="M 103.23170211078529 79.25015418208739 l 1.6146886571121817 -10.367459478147447 a31.49244659221271,31.49244659221271 0 0,0 0.5334557969880821,0.08777994839065059 l -1.7924219571533344 10.338213531261129" fill="#ff830c" stroke="none" /><path d="M 103.94208987418118 79.37332000966035 l 1.9739172633028663 -10.328369219642001 a31.515301236750823,31.515301236750823 0 0,0 0.5305128450829522,0.106117426895352 l -2.1509265939167754 10.292962396083789" fill="#ff830c" stroke="none" /><path d="M 104.64783097203109 79.52079915486377 l 0.6870683645231267 -3.0273499867099485 a24.104337430042232,24.104337430042232 0 0,0 0.40273509331457114,0.09504438543143234 l -0.7389356115775828 3.0151094576322888" fill="#ff1c02" stroke="none" /><path d="M 105.3480935250658 79.69241777938227 l 2.70626820007042 -10.276141156917594 a31.626521756793615,31.626521756793615 0 0,0 0.5238234519407816,0.14277041116588451 l -2.8822730529458944 10.228170251607567" fill="#ff850c" stroke="none" /><path d="M 105.69591212413111 79.78721728523813 l 0.5121063763742353 -1.8172848679745912 a22.888061765963332,22.888061765963332 0 0,0 0.37726063887045813,0.1098150737197285 l -0.5432270276262978 1.8082260999523467" fill="#ff0b01" stroke="none" /><path d="M 106.38641147887787 79.99465700312896 l 3.218479171107229 -10.081840163170689 a31.58310489651183,31.58310489651183 0 0,0 0.5150712048353121,0.1693141356434573 l -3.3910731135902834 10.025105106125212" fill="#ff840c" stroke="none" /><path d="M 107.06938296918511 80.22567764915836 l 1.601181883831872 -4.478790702276668 a25.756400906138097,25.756400906138097 0 0,0 0.41505930861822216,0.15241552729508417 l -1.677830344104219 4.450644325972862" fill="#ff3404" stroke="none" /><path d="M 107.40779381753099 80.34994680014964 l 3.6941919766603535 -9.799283114500998 a31.47248795265796,31.47248795265796 0 0,0 0.5039011151439023,0.19491977636652086 l -3.8618653542977817 9.73442344999644" fill="#ff830c" stroke="none" /><path d="M 108.73861861582097 80.90454125486305 l 4.397303110113062 -9.608900882458048 a31.5672726287871,31.5672726287871 0 0,0 0.4908128945521006,0.22972521724626638 l -4.5616047185366675 9.531999433641248" fill="#ff840c" stroke="none" /><path d="M 109.3889696526874 81.21577127319529 l 11.697430115862796 -23.40269602951462 a47.16325768640735,47.16325768640735 0 0,0 0.7210875323053912,0.3681924319472181 l -12.097444869881766 23.198445645894566" fill="#b8ff1f" stroke="none" /><line stroke="#e1ed5e" stroke-width="0.3" x1="143.13028292997686" x2="145.6673583964461" y1="26.7553504044142" y2="22.446841604673864" /><path d="M 143.63769802327073 25.89364864446614 a86.0,86.0 0 0,1 29.32050498858742,28.57503671076993" fill="none" id="id122" stroke="none" /><text fill="#e1ed5e" style="font-size:6.75px; font-family:Arial;" text-anchor="middle"><textPath startOffset="20.669276256404974" xlink:href="#id122">February</textPath></text><path d="M 110.96478420261332 82.08984904055464 l 9.26215819742175 -15.129039337276765 a38.73909258510521,38.73909258510521 0 0,0 0.5641811490791256,0.3520907636827479 l -9.520503475290587 14.96781277675247" fill="#ffe115" stroke="none" /><path d="M 111.27062007382361 82.28071324371311 l 2.2440364906427916 -3.5279980878444843 a25.181204405332362,25.181204405332362 0 0,0 0.36274648236600865,0.2351278872909803 l -2.3042686052658077 3.488956358849609" fill="#ff2c04" stroke="none" /><path d="M 111.8722381534696 82.67804972795209 l 5.885704194008732 -8.5874183154596 a31.41082451989577,31.41082451989577 0 0,0 0.44215209135051375,0.3086564990245683 l -6.032251376533007 8.485117000629904" fill="#ff820c" stroke="none" /><path d="M 112.16784306229584 82.88440491214696 l 6.091748304430029 -8.568806880721477 a31.513507919035675,31.513507919035675 0 0,0 0.4382163210518457,0.3172348221625068 l -6.2379456358558425 8.462971287185896" fill="#ff830c" stroke="none" /><path d="M 116.57777611688842 87.10902102172516 l 8.502350635677532 -6.611479280310915 a31.770405034444465,31.770405034444465 0 0,0 0.3310900152590928,0.43340745810642556 l -8.614592628290932 6.4645509089636075" fill="#ff870c" stroke="none" /><path d="M 117.42321728460499 88.27688183743584 l 8.901076698039134 -5.9890416448723585 a31.728363631439358,31.728363631439358 0 0,0 0.30017383079064275,0.4545014384624844 l -9.002574967750501 5.8353603280708155" fill="#ff860c" stroke="none" /><line stroke="#e1ed5e" stroke-width="0.3" x1="172.87174338648825" x2="177.1583165268699" y1="56.24261187166439" y2="53.66864786411523" /><path d="M 173.72905801456457 55.72781907015455 a86.0,86.0 0 0,1 12.242430191666344,42.057860355516425" fill="none" id="id123" stroke="none" /><text fill="#e1ed5e" style="font-size:6.75px; font-family:Arial;" text-anchor="middle"><textPath startOffset="22.145653131862474" xlink:href="#id123">March</textPath></text><path d="M 118.53625476483649 90.13048839642627 l 9.44506391031584 -5.028964536902763 a31.700454036319037,31.700454036319037 0 0,0 0.25162904274690634,0.4825318680001216 l -9.530001022037691 4.8660864257981435" fill="#ff860c" stroke="none" /><path d="M 118.8641267826498 90.77261029715802 l 9.425439840998742 -4.610454941046119 a31.492626504345942,31.492626504345942 0 0,0 0.2333764716856028,0.48766706744506966 l -9.503195570644255 4.4479753715359465" fill="#ff830c" stroke="none" /><path d="M 119.71291397450082 92.76114493625339 l 9.906809337952867 -3.637917612503976 a31.553639931981607,31.553639931981607 0 0,0 0.18234973222094905,0.5100646550405229 l -9.96779924021776 3.467318001082536" fill="#ff840c" stroke="none" /><path d="M 119.94978838288452 93.4421083053983 l 9.988625258997628 -3.2834595219399505 a31.514453908639457,31.514453908639457 0 0,0 0.16452838625705787,0.5153828265967759 l -10.043518361031943 3.111507661651787" fill="#ff830c" stroke="none" /><path d="M 120.35273937422433 94.82641323984039 l 15.26961203397769 -3.8814756676837567 a36.75521834272751,36.75521834272751 0 0,0 0.1501931523534872,0.6128393151411309 l -15.333992712847468 3.618780527934531" fill="#ffc812" stroke="none" /><path d="M 120.51834098615036 95.52812308129327 l 15.455782948311501 -3.3685159571988788 a36.81860064288937,36.81860064288937 0 0,0 0.129289899792862,0.6186989739794424 l -15.511330558928732 3.102700531934032" fill="#ffc912" stroke="none" /><path d="M 120.65975698304385 96.23510406497455 l 10.227799645451993 -1.8638458013335113 a31.396240029869283,31.396240029869283 0 0,0 0.09207348439510088,0.5310553904146166 l -10.258287947339328 1.687997377998302" fill="#ff820b" stroke="none" /><path d="M 120.86939407059847 97.66154086499901 l 10.298995880022881 -1.154023970006253 a31.363449592682798,31.363449592682798 0 0,0 0.055360382853457915,0.535561485216347 l -10.317288655358004 0.9770579625069745" fill="#ff810b" stroke="none" /><path d="M 120.93736805541906 98.37931529534042 l 10.33417840355337 -0.7999307663470815 a31.365092016350722,31.365092016350722 0 0,0 0.03694514924655844,0.5371743616992825 l -10.346387513964993 0.6224129804934648" fill="#ff810b" stroke="none" /><path d="M 120.98066250479742 99.09900007780936 l 1.8374785241105234 -0.07890923400879243 a22.839172094660867,22.839172094660867 0 0,0 0.01345913825734666,0.39184812515467987 l -1.838562349364718 0.047354844289992634" fill="#ff0a01" stroke="none" /><line stroke="#e1ed5e" stroke-width="0.3" x1="184.99686870605535" x2="189.99668451229388" y1="99.2704041080226" y2="99.22748670261217" /><path d="M 185.99683186730306 99.26182062694052 a86.0,86.0 0 0,1 -10.086455211305974,41.156179273409016" fill="none" id="id124" stroke="none" /><text fill="#e1ed5e" style="font-size:6.75px; font-family:Arial;" text-anchor="middle"><textPath startOffset="21.40746469413373" xlink:href="#id124">April</textPath></text><path d="M 120.99922638620191 99.81974689727618 l 10.501891028936681 -0.09014610384300716 a31.50227791975145,31.50227791975145 0 0,0 0.0,0.5407984131336667 l -10.501891028936681 -0.09014610384300588" fill="#ff830c" stroke="none" /><path d="M 120.99303781780057 100.54070618675476 l 10.45071164092256 0.269173260643837 a31.454177540388336,31.454177540388336 0 0,0 -0.018535966300908976,0.5396544343376269 l -10.444550987624805 -0.4485339595455747" fill="#ff830c" stroke="none" /><path d="M 120.86939407059847 102.33845913500097 l 10.605441657836954 1.1883618585950433 a31.671813185431372,31.671813185431372 0 0,0 -0.06518046144038192,0.5397877239222119 l -10.583479110136908 -1.3702432594406637" fill="#ff850c" stroke="none" /><path d="M 120.77682067341334 103.0534771498775 l 10.288147473144235 1.5120033867363958 a31.39866013824216,31.39866013824216 0 0,0 -0.08295003872987304,0.5325987529885586 l -10.260675942276094 -1.688390321656405" fill="#ff820c" stroke="none" /><path d="M 120.65975698304385 103.76489593502545 l 10.508106095599212 1.914926974049473 a31.68116281274242,31.68116281274242 0 0,0 -0.10209436915956459,0.5342008804168588 l -10.473685434157488 -2.095030419499646" fill="#ff860c" stroke="none" /><path d="M 120.43855184770803 104.8234425847677 l 10.238105044797896 2.4161649136575716 a31.519346357940023,31.519346357940023 0 0,0 -0.12879776540782928,0.5255388352091719 l -10.19511975287377 -2.591559573474843" fill="#ff830c" stroke="none" /><path d="M 120.26092885502905 105.52220625578681 l 10.295872483665349 2.8061858291342627 a31.671441753930498,31.671441753930498 0 0,0 -0.14747053966054485,0.523320920341966 l -10.246183451930225 -2.982514673379237" fill="#ff850c" stroke="none" /><path d="M 119.94978838288452 106.5578916946017 l 30.126656902088108 9.903230515157585 a52.71260681073824,52.71260681073824 0 0,0 -0.28995593112210044,0.8572031885699558 l -29.952215549393642 -10.4189353782017" fill="#7bff26" stroke="none" /><path d="M 119.4528033332814 107.91128576633889 l 9.835521629800796 4.000021022226395 a31.617798920140295,31.617798920140295 0 0,0 -0.20878912204122263,0.5010178858878743 l -9.765406663223088 -4.168271417555547" fill="#ff850c" stroke="none" /><path d="M 118.8641267826498 109.22738970284198 l 9.522887619587232 4.6581215327242065 a31.60110771706979,31.60110771706979 0 0,0 -0.24254615640203353,0.48525478803300115 l -9.441521549973466 -4.820908176920954" fill="#ff850c" stroke="none" /><path d="M 118.5362547648365 109.86951160357373 l 9.46724533059687 5.040774893828943 a31.725583698800005,31.725583698800005 0 0,0 -0.2600812747579151,0.4785202519900866 l -9.379318706223614 -5.202549979293633" fill="#ff860c" stroke="none" /><line stroke="#e1ed5e" stroke-width="0.3" x1="174.33088141563837" x2="178.70328620479359" y1="141.23008692659167" y2="143.65538615756765" /><path d="M 175.20536237346943 141.71514677278685 a86.0,86.0 0 0,1 -30.301960400862466,31.631185727798858" fill="none" id="id125" stroke="none" /><text fill="#e1ed5e" style="font-size:6.75px; font-family:Arial;" text-anchor="middle"><textPath startOffset="22.145653131862474" xlink:href="#id125">May</textPath></text><path d="M 118.00360718960297 110.81064883170644 l 27.384797123742743 16.443783843677387 a52.9425287133961,52.9425287133961 0 0,0 -0.47454666412384444,0.7751363122799624 l -27.098482495163495 -16.911457272081908" fill="#79ff26" stroke="none" /><path d="M 117.423217284605 111.72311816256416 l 4.743724257293581 3.191789385994293 a26.71755536167175,26.71755536167175 0 0,0 -0.25930057094826514,0.378327282304966 l -4.688233949529996 -3.2727514033693033" fill="#ff4106" stroke="none" /><path d="M 117.21940702142032 112.02048342749411 l 2.3939011842707685 1.6711289463562353 a23.91949222218568,23.91949222218568 0 0,0 -0.23792479885926804,0.33467102573443075 l -2.3648612868815397 -1.71197719880017" fill="#ff1a02" stroke="none" /><path d="M 117.01052211995028 112.31430620078461 l 2.6971520175725776 1.9525300622900448 a24.329715100431596,24.329715100431596 0 0,0 -0.24781318686110285,0.3362061818776653 l -2.6632368111276468 -1.9985425534365875" fill="#ff1f03" stroke="none" /><path d="M 116.57777611688842 112.89097897827486 l 8.376703564139754 6.513775357513623 a31.611240832702997,31.611240832702997 0 0,0 -0.33678551158808834,0.42551749197690236 l -8.263651621910105 -6.656612793405208" fill="#ff850c" stroke="none" /><path d="M 116.35404254752997 113.17365903436017 l 8.141639211396182 6.558328232300555 a31.454566382740815,31.454566382740815 0 0,0 -0.34233529505929283,0.41759339703197285 l -8.027857097098261 -6.697123911031021" fill="#ff830c" stroke="none" /><path d="M 115.6541949942343 113.99807769240083 l 12.001378449164683 10.731706613414996 a37.099770542355245,37.099770542355245 0 0,0 -0.42859474437209905,0.4711007028132629 l -11.815386003950705 -10.936144891785931" fill="#ffcc13" stroke="none" /><path d="M 115.16444852881244 114.52719865689866 l 7.8431552563788935 7.5135653162613165 a31.861341912369248,31.861341912369248 0 0,0 -0.3817492456285279,0.3917083562878506 l -7.713019209599558 -7.647096364616904" fill="#ff880c" stroke="none" /><path d="M 113.86319453409587 115.77377054828091 l 6.997520017794161 7.961893263217218 a31.599859939371544,31.599859939371544 0 0,0 -0.4105281060990592,0.35460440038123886 l -6.859812431932246 -8.080841796063174" fill="#ff850c" stroke="none" /><path d="M 113.59037401385872 116.0094264158162 l 3.3517183343517623 3.9483157700905016 a26.179113168600885,26.179113168600885 0 0,0 -0.34509763971185914,0.287892724870509 l -3.283446360478008 -4.005270678872881" fill="#ff3a05" stroke="none" /><path d="M 113.03279911837588 116.46651593811092 l 10.048231057269414 12.695611691049162 a37.19090805329268,37.19090805329268 0 0,0 -0.5040077419977433,0.3919194686410212 l -9.828813370636441 -12.866232211310976" fill="#ffce13" stroke="none" /><path d="M 111.8722381534696 117.32195027204791 l 6.090457749475219 8.886159872019345 a31.77299925133338,31.77299925133338 0 0,0 -0.4525439054459499,0.3044917359768423 l -5.937017555932265 -8.989401282053308" fill="#ff870c" stroke="none" /><path d="M 110.96478420261333 117.91015095944535 l 5.47959668864408 8.950509383221764 a31.494646163131943,31.494646163131943 0 0,0 -0.46352207013514746,0.278331685045347 l -5.325141861951496 -9.043255068803035" fill="#ff830c" stroke="none" /><line stroke="#e1ed5e" stroke-width="0.3" x1="143.1302829299769" x2="145.66735839644613" y1="173.24464959558577" y2="177.55315839532614" /><path d="M 143.63769802327073 174.10635135553383 a86.0,86.0 0 0,1 -40.68552437913181,11.842963189579606" fill="none" id="id126" stroke="none" /><text fill="#e1ed5e" style="font-size:6.75px; font-family:Arial;" text-anchor="middle"><textPath startOffset="21.407464694133747" xlink:href="#id126">June</textPath></text><path d="M 110.34350942703117 118.27599006163325 l 14.738165914330114 26.040926986838983 a50.922289565676635,50.922289565676635 0 0,0 -0.7644546541894204,0.42403011027710097 l -14.288967071984601 -26.29009001254923" fill="#8fff24" stroke="none" /><path d="M 109.3889696526874 118.78422872680471 l 4.667926147799673 9.338979215360864 a31.440597076137653,31.440597076137653 0 0,0 -0.4848435771518156,0.23716128940643647 l -4.506922321385788 -9.417734254864524" fill="#ff820c" stroke="none" /><path d="M 109.06512990194946 118.94263497670748 l 4.628908635678667 9.672638734866183 a31.72318680489593,31.72318680489593 0 0,0 -0.49323707256004923,0.23085985495791053 l -4.462182849247111 -9.750674821394627" fill="#ff860c" stroke="none" /><path d="M 107.407793817531 119.65005319985036 l 3.747897173140514 9.941742528725793 a31.624734242695663,31.624734242695663 0 0,0 -0.5096263401801627,0.1871418511745043 l -3.576681681306224 -10.004615228909019" fill="#ff850c" stroke="none" /><path d="M 107.06938296918513 119.77432235084164 l 5.325815371917788 14.897253466734925 a36.82063431812712,36.82063431812712 0 0,0 -0.5970101645220603,0.20767112583132027 l -5.069299435350706 -14.986483025134836" fill="#ffc912" stroke="none" /><path d="M 106.72888874123015 119.89276391827305 l 3.363660543305176 9.944064712971803 a31.497553775349715,31.497553775349715 0 0,0 -0.5136759994178592,0.16885550391043913 l -3.1924618062395824 -10.000341138284261" fill="#ff830c" stroke="none" /><path d="M 106.38641147887787 120.00534299687104 l 3.2114952003602473 10.059962974277427 a31.56013998324689,31.56013998324689 0 0,0 -0.5175252300530402,0.16033063917679677 l -3.0383293374355826 -10.113610201260869" fill="#ff840c" stroke="none" /><path d="M 105.3480935250658 120.30758222061773 l 2.6791924672087983 10.173330189103767 a31.520205293285795,31.520205293285795 0 0,0 -0.5244282326629938,0.13330760598227967 l -2.504158941320407 -10.217823026921318" fill="#ff830c" stroke="none" /><path d="M 104.9986988182912 120.39639698878246 l 2.518954313887455 10.27819319592814 a31.582362033510087,31.582362033510087 0 0,0 -0.5276778736430998,0.12453054138741342 l -2.342144286504476 -10.319919880961779" fill="#ff840c" stroke="none" /><path d="M 104.64783097203109 120.47920084513623 l 2.3465423707714037 10.33929865174287 a31.602233618806814,31.602233618806814 0 0,0 -0.5300711618726672,0.11552654260158911 l -2.1687087922796007 -10.378056652478179" fill="#ff850c" stroke="none" /><path d="M 104.29559338865022 120.5559693870025 l 2.129945048161748 10.192558104240922 a31.412728106337745,31.412728106337745 0 0,0 -0.528786180221468,0.10577204556498242 l -1.9546623824093217 -10.227619546468766" fill="#ff820c" stroke="none" /><path d="M 103.94208987418118 120.62667999033965 l 1.9393066312384177 10.147271767619785 a31.330926121887565,31.330926121887565 0 0,0 -0.5291424410053046,0.09642737941329206 l -1.764829456682056 -10.179067320964439" fill="#ff810b" stroke="none" /><path d="M 103.58742460773223 120.69131181640829 l 7.0127235705157736 40.447525995966096 a62.05095188994794,62.05095188994794 0 0,0 -1.0510914068679031,0.172956691012918 l -6.317354660594798 -40.56194868547468" fill="#32ff46" stroke="none" /><path d="M 102.875027216393 120.80226474461374 l 1.445768589085934 10.460861301808716 a31.56029668091132,31.56029668091132 0 0,0 -0.5373098100539404,0.0695655122286365 l -1.2659809571412182 -10.484138410237748" fill="#ff840c" stroke="none" /><path d="M 102.15924093988457 120.88869738790638 l 1.109958710004818 10.737843645925446 a31.79505880031494,31.79505880031494 0 0,0 -0.5433933564586736,0.05145991582057928 l -0.9254657901611292 -10.75531531725121" fill="#ff870c" stroke="none" /><path d="M 101.44090949804482 120.95050786540614 l 1.0687725065214917 15.539717681500013 a36.5764277127787,36.5764277127787 0 0,0 -0.6267730519648589,0.0377051103914187 l -0.8018551024241677 -15.555774769716123" fill="#ffc612" stroke="none" /><path d="M 100.72087961077811 120.9876233191556 l 2.162638832334333 62.96286995746683 a84.0,84.0 0 0,0 -1.4415467437170246,0.03712913059981959 l -1.0814787745465644 -62.990716805416696" fill="#4dd2ff" stroke="none" /><line stroke="#e1ed5e" stroke-width="0.3" x1="101.45913802915013" x2="101.54496967792366" y1="184.9874750549273" y2="189.98673829345242" /><path d="M 101.47630435890484 185.9873277026323 a86.0,86.0 0 0,1 -42.54439059252881,-10.42667462771756" fill="none" id="id127" stroke="none" /><text fill="#e1ed5e" style="font-size:6.75px; font-family:Arial;" text-anchor="middle"><textPath startOffset="22.145653131862474" xlink:href="#id127">July</textPath></text><path d="M 99.27912038922189 120.98762331915562 l -0.3594113101839069 10.463868143866685 a31.470038826199076,31.470038826199076 0 0,0 -0.5397474903851583,-0.023179079627654843 l 0.538984561169904 -10.456156495813202" fill="#ff830c" stroke="none" /><path d="M 98.55909050195518 120.95050786540614 l -3.9936650230684396 58.06701294642317 a79.2041867294489,79.2041867294489 0 0,0 -1.3556400216274154,-0.104935111340667 l 4.989874039471092 -57.98990006808745" fill="#47ffff" stroke="none" /><path d="M 97.84075906011543 120.88869738790638 l -1.0847013590958623 10.493501687502972 a31.549414898659172,31.549414898659172 0 0,0 -0.5382391754138304,-0.060310822264605504 l 1.264676436110492 -10.473335104731396" fill="#ff840c" stroke="none" /><path d="M 97.12497278360702 120.80226474461374 l -1.480591347393972 10.712821433988086 a31.814651811986018,31.814651811986018 0 0,0 -0.5403565511984947,-0.07941380482638442 l 1.6642730042001517 -10.68582655586282" fill="#ff870c" stroke="none" /><path d="M 96.41257539226777 120.69131181640829 l -1.8624228945352177 10.741960336054616 a31.90221678831693,31.90221678831693 0 0,0 -0.538790867501922,-0.09818564412696938 l 2.0465484955881967 -10.70840651799628" fill="#ff890c" stroke="none" /><line stroke="#e1ed5e" stroke-width="0.3" x1="58.13341422392154" x2="55.67067388415222" y1="173.97424548756322" y2="178.32567169271397" /><path d="M 57.64086615596768 174.84453072859336 a86.0,86.0 0 0,1 -31.369924170532247,-30.572349798747897" fill="none" id="id128" stroke="none" /><text fill="#e1ed5e" style="font-size:6.75px; font-family:Arial;" text-anchor="middle"><textPath startOffset="22.145653131862474" xlink:href="#id128">August</textPath></text><path d="M 89.65649057296885 118.27599006163327 l -2.599000293095739 4.592184486502004 a26.27664295566617,26.27664295566617 0 0,0 -0.39065551667152126,-0.22554506771071686 l 2.67744827762766 -4.546892521515115" fill="#ff3b05" stroke="none" /><path d="M 87.83215693770417 117.11559508785305 l -6.284692137129245 8.840206544431085 a31.846502063185916,31.846502063185916 0 0,0 -0.44284682645787354,-0.32058695098207546 l 6.435519973961072 -8.731018822075944" fill="#ff880c" stroke="none" /><path d="M 87.54013794807813 116.9041958592261 l -6.49176514604415 8.807326200204708 a31.94129834654946,31.94129834654946 0 0,0 -0.43857990040652467,-0.3291185336512707 l 6.641998035361441 -8.694588639289423" fill="#ff890c" stroke="none" /><path d="M 87.2517909369889 116.68781488649013 l -6.549551109906856 8.573572646283196 a31.789011431191348,31.789011431191348 0 0,0 -0.4308017391997193,-0.3349940380827252 l 6.695762793741804 -8.459877556579677" fill="#ff870c" stroke="none" /><path d="M 86.40962598614128 116.0094264158162 l -6.810783268651646 8.023085565000708 a31.524099520427765,31.524099520427765 0 0,0 -0.4095438681509713,-0.3537542390835636 l 6.947506616565479 -7.904987193452421" fill="#ff840c" stroke="none" /><path d="M 85.86807049272751 115.53346607816431 l -6.987816880378464 7.680834836879422 a31.383872521613636,31.383872521613636 0 0,0 -0.39539230143317233,-0.3659692113422333 l 7.118638953125604 -7.559747879404811" fill="#ff820b" stroke="none" /><path d="M 85.34317274990678 115.03919595460226 l -3.744796551440961 3.8424911603485845 a26.36546731692973,26.36546731692973 0 0,0 -0.3214177458420671,-0.318670602128558 l 3.8102062174129907 -3.7776405479913673" fill="#ff3c05" stroke="none" /><line stroke="#e1ed5e" stroke-width="0.3" x1="26.387840678322732" x2="22.057713659400548" y1="142.50000000000003" y2="145.00000000000006" /><path d="M 25.521815274538298 143.00000000000003 a86.0,86.0 0 0,1 -11.493303480769221,-40.785679425670985" fill="none" id="id129" stroke="none" /><text fill="#e1ed5e" style="font-size:6.75px; font-family:Arial;" text-anchor="middle"><textPath startOffset="21.40746469413373" xlink:href="#id129">September</textPath></text><line stroke="#e1ed5e" stroke-width="0.3" x1="15.003131293944662" x2="10.003315487706104" y1="100.72959589197737" y2="100.7725132973878" /><path d="M 14.003168132696942 100.73817937305945 a86.0,86.0 0 0,1 10.791469493833604,-42.45332614584628" fill="none" id="id130" stroke="none" /><text fill="#e1ed5e" style="font-size:6.75px; font-family:Arial;" text-anchor="middle"><textPath startOffset="22.145653131862435" xlink:href="#id130">October</textPath></text><line stroke="#e1ed5e" stroke-width="0.3" x1="26.387840678322718" x2="22.05771365940052" y1="57.49999999999999" y2="54.99999999999999" /><path d="M 25.521815274538284 56.99999999999999 a86.0,86.0 0 0,1 29.574782752854787,-30.34633250058573" fill="none" id="id131" stroke="none" /><text fill="#e1ed5e" style="font-size:6.75px; font-family:Arial;" text-anchor="middle"><textPath startOffset="21.40746469413373" xlink:href="#id131">November</textPath></text><line stroke="#e1ed5e" stroke-width="0.3" x1="56.869717070023135" x2="54.33264160355391" y1="26.7553504044142" y2="22.446841604673864" /><path d="M 56.362301976729285 25.89364864446614 a86.0,86.0 0 0,1 42.16139366436587,-11.88097634709845" fill="none" id="id132" stroke="none" /><text fill="#e1ed5e" style="font-size:6.75px; font-family:Arial;" text-anchor="middle"><textPath startOffset="22.145653131862474" xlink:href="#id132">December</textPath></text></svg>