<?xml version="1.0" encoding="utf-8" ?>
<svg baseProfile="full" height="200mm" version="1.1" viewBox="0,0,200,200" width="200mm" xmlns="http://www.w3.org/2000/svg" xmlns:ev="http://www.w3.org/2001/xml-events" xmlns:xlink="http://www.w3.org/1999/xlink"><defs /><rect fill="#f5f5f5" height="200" width="200" x="0" y="0" /><text alignment-baseline="middle" fill="#006cb8" style="dominant-baseline: central; font-size:9.0px; font-family:Arial;" text-anchor="middle" x="100.0" y="100.0">2020</text><line stroke="#006cb8" stroke-width="0.3" x1="100.0" x2="100.0" y1="15.0" y2="10.0" /><path d="M 100.0 14.0 a86.0,86.0 0 0,1 42.35913384403234,11.155469271406648" fill="none" id="id73" stroke="none" /><text fill="#006cb8" style="font-size:6.75px; font-family:Arial;" text-anchor="middle"><textPath startOffset="22.145653131862478" xlink:href="#id73">January</textPath></text><path d="M 100.0 79.0 l 0.0 -13.307790217661932 a34.30779021766193,34.30779021766193 0 0,0 0.5889388400317085,0.0050553316240278465 l -0.2284459151828537 13.305829284232338" fill="#f17e00" stroke="none" /><path d="M 101.08105385017728 79.02784411241856 l 1.848435324426323 -35.859151480404066 a56.90676061750979,56.90676061750979 0 0,0 0.9751532957169934,0.058662800751086215 l -2.463732972275779 35.822136701828285" fill="#4dd300" stroke="none" /><path d="M 101.44090949804482 79.04949213459386 l 0.5720422964146983 -8.317369443843019 a29.337017863376623,29.337017863376623 0 0,0 0.5021254200443044,0.03886768317453037 l -0.7147367112342361 8.306323993673434" fill="#f84500" stroke="none" /><path d="M 102.15924093988457 79.11130261209362 l 3.0482973933337454 -29.489512088028686 a50.646642983450846,50.646642983450846 0 0,0 0.8640416135910646,0.0968176650212188 l -3.5540749085256063 29.432838662500497" fill="#93db00" stroke="none" /><path d="M 102.51750503828377 79.15144685158666 l 4.782828082700011 -39.6086776254766 a60.896400686121986,60.896400686121986 0 0,0 1.0367530386815913,0.13422843737626827 l -5.462058943272393 39.52073759189994" fill="#22ce00" stroke="none" /><path d="M 103.58742460773223 79.30868818359171 l 4.543661256550442 -26.20663069679097 a47.59760045741466,47.59760045741466 0 0,0 0.8038674118361647,0.1464914206689505 l -4.992863401937661 26.124771102190657" fill="#b8df00" stroke="none" /><path d="M 104.29559338865022 79.4440306129975 l 6.5710734189532305 -31.44496506504598 a53.12420946605902,53.12420946605902 0 0,0 0.8910639600639786,0.19420324278610696 l -7.109899795636343 31.327530364126154" fill="#77d800" stroke="none" /><path d="M 104.9986988182912 79.60360301121754 l 6.479046808547619 -26.436721959019007 a48.21907998970261,48.21907998970261 0 0,0 0.8022614911401615,0.2039317338286724 l -6.931913592913175 26.321604993355066" fill="#b0de00" stroke="none" /><path d="M 105.69591212413111 79.78721728523813 l 3.81938422296876 -13.553647198311326 a35.081514414968126,35.081514414968126 0 0,0 0.5782435697729349,0.1683182757488201 l -4.0514878051232985 13.48608522825999" fill="#f08700" stroke="none" /><path d="M 106.72888874123014 80.10723608172694 l 20.186666223690402 -59.67829175481916 a84.0,84.0 0 0,0 1.3619769118199267,0.4737662697256382 l -21.208148907555344 59.32296705252493" fill="#00afaa" stroke="none" /><path d="M 107.74402155503746 80.48000691201159 l 12.85486444491133 -32.40265582014939 a55.85942690429817,55.85942690429817 0 0,0 0.8882860197690048,0.3612581911324357 l -13.409204925870775 32.17721037243766" fill="#58d400" stroke="none" /><line stroke="#006cb8" stroke-width="0.3" x1="143.13028292997686" x2="145.6673583964461" y1="26.7553504044142" y2="22.446841604673864" /><path d="M 143.63769802327073 25.89364864446614 a86.0,86.0 0 0,1 29.32050498858742,28.57503671076993" fill="none" id="id74" stroke="none" /><text fill="#006cb8" style="font-size:6.75px; font-family:Arial;" text-anchor="middle"><textPath startOffset="20.669276256404974" xlink:href="#id74">February</textPath></text><path d="M 110.96478420261332 82.08984904055464 l 19.503248760915227 -31.85709112490827 a58.353058337582624,58.353058337582624 0 0,0 0.8498313540218718,0.5303576181648345 l -20.047244243726812 31.51759770990189" fill="#3dd100" stroke="none" /><path d="M 111.5731344415666 82.4767994020092 l 14.65798123413015 -22.194051820975652 a47.59760045741466,47.59760045741466 0 0,0 0.6779342368804099,0.4561444098168443 l -15.036811759107561 21.93915773710169" fill="#b8df00" stroke="none" /><path d="M 112.16784306229584 82.88440491214696 l 18.17924927282061 -25.5713907519807 a52.374848670771826,52.374848670771826 0 0,0 0.7283071614597676,0.5272382194501479 l -18.615537444654343 25.255551761157477" fill="#7fd900" stroke="none" /><path d="M 112.7482090630111 83.31218511350987 l 18.568216042209343 -24.306390846994532 a51.58724052602686,51.58724052602686 0 0,0 0.6991055065437094,0.5436286703902412 l -18.98273149338828 23.9840611249835" fill="#88da00" stroke="none" /><path d="M 113.31354834802062 83.75963576809568 l 26.96282833191283 -32.8902664703716 a63.529563131406036,63.529563131406036 0 0,0 0.8374577911550262,0.6986370745999942 l -27.523460457229753 32.422567211859736" fill="#08ca00" stroke="none" /><path d="M 113.86319453409587 84.22622945171908 l 17.558462346728408 -19.978306988100496 a47.59760045741466,47.59760045741466 0 0,0 0.6091018991521435,0.5446626741305375 l -17.898829272703928 19.67394878408657" fill="#b8df00" stroke="none" /><path d="M 114.39649973595853 84.71141617570332 l 21.88070559784574 -23.236551092476322 a52.917120548897586,52.917120548897586 0 0,0 0.6559896403647676,0.6284232363834465 l -22.27636772407582 22.857515725787295" fill="#79d800" stroke="none" /><path d="M 114.91283532996326 85.21462403516908 l 22.665464902490285 -22.471744144299112 a52.917120548897586,52.917120548897586 0 0,0 0.6340307607236301,0.6505714155638643 l -23.04788246436473 22.079350036667506" fill="#79d800" stroke="none" /><path d="M 115.6541949942343 86.00192230759917 l 9.913429141407251 -8.864649467483956 a34.29880022870733,34.29880022870733 0 0,0 0.38870166542509144,0.4422711422731902 l -10.064141870790932 8.693166047399469" fill="#f17e00" stroke="none" /><path d="M 116.35404254752997 86.82634096563983 l 44.53349154842563 -35.873028430950676 a78.18484098344152,78.18484098344152 0 0,0 0.832979692521308,1.0524426302010101 l -45.1427376715885 35.10326585683499" fill="#00b77d" stroke="none" /><path d="M 116.7966241395341 87.39550010848427 l 21.273804661747352 -15.964259622860089 a47.59760045741466,47.59760045741466 0 0,0 0.4848109814522365,0.6577392069848877 l -21.544717662783416 15.596714106606326" fill="#b8df00" stroke="none" /><path d="M 117.62189284568427 88.57770195909679 l 26.805179920032085 -17.37479377316868 a52.94371814935501,52.94371814935501 0 0,0 0.48779394292597494,0.7668930987000192 l -27.09949155458395 16.91208699978999" fill="#79d800" stroke="none" /><line stroke="#006cb8" stroke-width="0.3" x1="172.87174338648825" x2="177.1583165268699" y1="56.24261187166439" y2="53.66864786411523" /><path d="M 173.72905801456457 55.72781907015455 a86.0,86.0 0 0,1 12.242430191666344,42.057860355516425" fill="none" id="id75" stroke="none" /><text fill="#006cb8" style="font-size:6.75px; font-family:Arial;" text-anchor="middle"><textPath startOffset="22.145653131862474" xlink:href="#id75">March</textPath></text><path d="M 118.00360718960297 89.18935116829356 l 34.203767915807 -20.538379879367472 a60.896400686121986,60.896400686121986 0 0,0 0.5304548878077792,0.9008283680129172 l -34.551296513744546 19.948200343060996" fill="#22ce00" stroke="none" /><path d="M 118.36410011445183 89.81374322990088 l 34.888642686010904 -19.35214198055225 a60.896400686121986,60.896400686121986 0 0,0 0.49921897951444866,0.9185066941010948 l -35.215707015140694 18.750380452976554" fill="#22ce00" stroke="none" /><path d="M 118.8641267826498 90.77261029715802 l 28.67088612245341 -14.02436711891731 a52.917120548897586,52.917120548897586 0 0,0 0.3921429317354396,0.8194279061531097 l -28.90740831214876 13.530126710699097" fill="#79d800" stroke="none" /><path d="M 119.4528033332814 92.08871423366111 l 27.865572120700225 -11.332685593557501 a51.08188611733598,51.08188611733598 0 0,0 0.3233758869365799,0.8151184798443708 l -28.05600668260293 10.852666096499565" fill="#8edb00" stroke="none" /><path d="M 120.05942366710727 93.78553927170692 l 38.1094668645519 -11.80641025067381 a60.896400686121986,60.896400686121986 0 0,0 0.30078089417610504,1.0012017730280947 l -38.30652407873163 11.150470874054992" fill="#22ce00" stroke="none" /><path d="M 120.86939407059847 97.66154086499901 l 19.83111399862766 -2.2221176872916693 a40.955222109581754,40.955222109581754 0 0,0 0.07229105233257947,0.6993503541616247 l -19.866337443441907 1.881362810847113" fill="#e8c500" stroke="none" /><line stroke="#006cb8" stroke-width="0.3" x1="184.99686870605535" x2="189.99668451229388" y1="99.2704041080226" y2="99.22748670261217" /><path d="M 185.99683186730306 99.26182062694052 a86.0,86.0 0 0,1 -10.086455211305974,41.156179273409016" fill="none" id="id76" stroke="none" /><text fill="#006cb8" style="font-size:6.75px; font-family:Arial;" text-anchor="middle"><textPath startOffset="21.40746469413373" xlink:href="#id76">April</textPath></text><path d="M 119.83427380445688 106.89939002012753 l 12.567657735254237 4.371683743495945 a34.30630075203632,34.30630075203632 0 0,0 -0.19825746788992715,0.5545614229142494 l -12.490760097320367 -4.586780122791115" fill="#f17e00" stroke="none" /><path d="M 119.71291397450082 107.23885506374661 l 12.504617025720771 4.591868578838201 a34.32106242029018,34.32106242029018 0 0,0 -0.2078374304166763,0.5513134767523862 l -12.423948911489655 -4.805850335784747" fill="#f17e00" stroke="none" /><path d="M 119.16976305983485 108.57439118712176 l 17.279484089918824 7.728893447256157 a39.92924626953744,39.92924626953744 0 0,0 -0.28523844033613877,0.6232974694770193 l -17.14426118472763 -8.024379898947865" fill="#e9bb00" stroke="none" /><path d="M 118.8641267826498 109.22738970284198 l 17.919303826533383 8.765229449323316 a40.94820034306099,40.94820034306099 0 0,0 -0.31428735643418776,0.6287852456219974 l -17.76619655688746 -9.071546551109058" fill="#e8c500" stroke="none" /><line stroke="#006cb8" stroke-width="0.3" x1="174.33088141563837" x2="178.70328620479359" y1="141.23008692659167" y2="143.65538615756765" /><path d="M 175.20536237346943 141.71514677278685 a86.0,86.0 0 0,1 -30.301960400862466,31.631185727798858" fill="none" id="id77" stroke="none" /><text fill="#006cb8" style="font-size:6.75px; font-family:Arial;" text-anchor="middle"><textPath startOffset="22.145653131862474" xlink:href="#id77">May</textPath></text><path d="M 118.36410011445183 110.18625677009912 l 18.60727609920582 10.321142389627866 a42.27808036593173,42.27808036593173 0 0,0 -0.3574845935206777,0.6316410232388706 l -18.427358140663763 -10.639040182965859" fill="#e6d300" stroke="none" /><path d="M 117.21940702142032 112.02048342749411 l 10.904640668317578 7.612286083558636 a34.29880022870733,34.29880022870733 0 0,0 -0.3411667383959092,0.47989374303502313 l -10.772358831391708 -7.798357053303163" fill="#f17e00" stroke="none" /><path d="M 114.39649973595853 115.28858382429668 l 18.23392133153812 19.363792577063606 a47.59760045741466,47.59760045741466 0 0,0 -0.5996622875202197,0.5550384608905801 l -17.89882927270393 -19.673948784086562" fill="#b8df00" stroke="none" /><path d="M 113.59037401385872 116.0094264158162 l 1.846722640447034 2.1754346269285763 a23.853576760274645,23.853576760274645 0 0,0 -0.31444201282301787,0.26231871061468537 l -1.8091062934621212 -2.206815521455132" fill="#ff0200" stroke="none" /><path d="M 113.03279911837588 116.46651593811092 l 16.50672303772893 20.85570532607261 a47.59760045741466,47.59760045741466 0 0,0 -0.6450382737812289,0.5015856631714056 l -16.14627481931247 -21.135992040864807" fill="#b8df00" stroke="none" /><path d="M 112.7482090630111 116.68781488649013 l 13.15717954711243 17.22317037830767 a42.67369307513531,42.67369307513531 0 0,0 -0.5859443738264093,0.43970358180165003 l -12.859582184375252 -17.446492987373333" fill="#e6d700" stroke="none" /><path d="M 112.45986205192187 116.90419585922612 l 1.6341296141391883 2.2170106652593016 a23.754181527365287,23.754181527365287 0 0,0 -0.3303177185245032,0.23912455483566306 l -1.5958308852407173 -2.2447359914680414" fill="#ff0100" stroke="none" /><path d="M 112.16784306229584 117.11559508785304 l 18.98386859216796 26.70318858988071 a53.76350939065345,53.76350939065345 0 0,0 -0.7567979662668045,0.5283037563462545 l -18.522675534727394 -27.025137162032088" fill="#6fd700" stroke="none" /><path d="M 111.8722381534696 117.32195027204791 l 3.110018665700939 4.537610177291532 a26.5011019098057,26.5011019098057 0 0,0 -0.37745609289249904,0.2539693046282784 l -3.0316662847114366 -4.5903291559769315" fill="#fb2300" stroke="none" /><path d="M 111.5731344415666 117.5232005979908 l 3.030992017574667 4.5893082295931675 a26.49987842018466,26.49987842018466 0 0,0 -0.3817425697880132,0.24744092165370832 l -2.9517638155296444 -4.64066299295077" fill="#fb2300" stroke="none" /><path d="M 111.27062007382361 117.71928675628689 l 14.274830934803699 22.442405215908472 a47.59760045741466,47.59760045741466 0 0,0 -0.6931930287339274,0.4326037182647064 l -13.887473777280057 -22.684144731014726" fill="#b8df00" stroke="none" /><line stroke="#006cb8" stroke-width="0.3" x1="143.1302829299769" x2="145.66735839644613" y1="173.24464959558577" y2="177.55315839532614" /><path d="M 143.63769802327073 174.10635135553383 a86.0,86.0 0 0,1 -40.68552437913181,11.842963189579606" fill="none" id="id78" stroke="none" /><text fill="#006cb8" style="font-size:6.75px; font-family:Arial;" text-anchor="middle"><textPath startOffset="21.407464694133747" xlink:href="#id78">June</textPath></text><path d="M 110.65571695917076 118.09573695890943 l 8.674097012130545 14.73051306533499 a38.09467677798726,38.09467677798726 0 0,0 -0.5663545249767231,0.326984937452075 l -8.419950019293424 -14.877244900063237" fill="#eca700" stroke="none" /><path d="M 110.34350942703117 118.27599006163325 l 3.8814840972535483 6.858210483224193 a28.88041685632419,28.88041685632419 0 0,0 -0.433558060115757,0.24048734746385256 l -3.763181848981697 -6.923830746121189" fill="#f83f00" stroke="none" /><path d="M 110.02825361518725 118.45085714620011 l 1.3819658943592896 2.542661591558462 a23.893951917769,23.893951917769 0 0,0 -0.36206298739487713,0.19277814750890665 l -1.3381140911778586 -2.566010206789937" fill="#ff0300" stroke="none" /><path d="M 109.71004243097381 118.62028667847754 l 1.260499661423496 2.4171743038897833 a23.72609446128226,23.72609446128226 0 0,0 -0.36275252697951815,0.185224024989828 l -1.2188199127303956 -2.4384562805524475" fill="#ff0000" stroke="none" /><path d="M 109.3889696526874 118.78422872680471 l 1.2440777180130405 2.4889888106507314 a23.782587764653808,23.782587764653808 0 0,0 -0.36674987112421176,0.1793957400372603 l -1.2011675976267593 -2.509978300785215" fill="#ff0100" stroke="none" /><path d="M 108.4095320186766 119.2426549942271 l 2.3874682776172764 5.462994643913683 a26.961905337730414,26.961905337730414 0 0,0 -0.42569629126507313,0.1817044332748707 l -2.2933369111817723 -5.503173726847958" fill="#fb2800" stroke="none" /><path d="M 108.07796709384702 119.3841803445677 l 2.1367795687761566 5.127493097773813 a26.554908855531053,26.554908855531053 0 0,0 -0.4222806355142405,0.17173785823602591 l -2.048444472071475 -5.16341821258913" fill="#fb2300" stroke="none" /><path d="M 107.74402155503746 119.51999308798841 l 2.085293913687813 5.256302877299193 a26.654836040449556,26.654836040449556 0 0,0 -0.4267664388326803,0.16508242652776461 l -1.9947552123616035 -5.291325191964998" fill="#fb2500" stroke="none" /><path d="M 107.407793817531 119.65005319985036 l 1.993638711633637 5.2883635411358005 a26.651670925995127,26.651670925995127 0 0,0 -0.42948640799528803,0.15771335802249264 l -1.9025631519842219 -5.321807748167015" fill="#fb2500" stroke="none" /><path d="M 107.06938296918513 119.77432235084164 l 1.1487026771277051 3.213125830332023 a24.4122859554831,24.4122859554831 0 0,0 -0.39582106947754164,0.1376871149119621 l -1.0933758356051415 -3.2323713778125756" fill="#fe0900" stroke="none" /><path d="M 106.0420521117495 120.11202640906438 l 0.8600806264602786 2.8629286794226383 a23.98933091300929,23.98933091300929 0 0,0 -0.39541270024774156,0.11509887423567679 l -0.8108079138309302 -2.8772712479608336" fill="#ff0400" stroke="none" /><path d="M 105.69591212413111 120.21278271476187 l 11.320232144161238 40.17151030845628 a62.73605031935953,62.73605031935953 0 0,0 -1.0390840539509574,0.28320697950588203 l -10.628966689275586 -40.3599177821063" fill="#0fcb00" stroke="none" /><path d="M 104.9986988182912 120.39639698878246 l 0.6404048432117245 2.6130702989924344 a23.69040048146841,23.69040048146841 0 0,0 -0.3958190378082167,0.09341221516337661 l -0.5954536516636286 -2.6236786578020364" fill="#ff0000" stroke="none" /><path d="M 104.64783097203109 120.47920084513623 l 0.6492288524302694 2.860622114570282 a23.93336956164689,23.93336956164689 0 0,0 -0.40143963126455395,0.08749189919973668 l -0.6000268045465796 -2.8713454719037372" fill="#ff0300" stroke="none" /><path d="M 103.58742460773223 120.69131181640829 l 1.4294858115845936 8.244894290148107 a29.367897677507685,29.367897677507685 0 0,0 -0.49746770913928157,0.08185812223020114 l -1.2877405993922397 -8.268218410873978" fill="#f74500" stroke="none" /><path d="M 103.2317021107853 120.74984581791261 l 0.832389177473782 5.344535635087663 a26.408967821821218,26.408967821821218 0 0,0 -0.44854360994562453,0.06592046421448663 l -0.740520461920472 -5.358037172601032" fill="#fb2200" stroke="none" /><path d="M 102.51750503828377 120.84855314841334 l 0.8907060738412207 7.376324034192506 a28.429906699776495,28.429906699776495 0 0,0 -0.48501975673184866,0.05434747539620483 l -0.7639504155085728 -7.3905272700956814" fill="#f93a00" stroke="none" /><path d="M 101.44090949804482 120.95050786540614 l 1.82702224780731 26.56450250685246 a47.62725678192467,47.62725678192467 0 0,0 -0.8161398735910926,0.04909694814115266 l -1.3707380220837522 -26.591951432818302" fill="#b7df00" stroke="none" /><path d="M 101.08105385017728 120.97215588758144 l 0.3270730999948064 6.345130761618136 a27.353555004465843,27.353555004465843 0 0,0 -0.4691450413617551,0.020147106682945025 l -0.2181022980322217 -6.349810436726912" fill="#fa2d00" stroke="none" /><line stroke="#006cb8" stroke-width="0.3" x1="101.45913802915013" x2="101.54496967792366" y1="184.9874750549273" y2="189.98673829345242" /><path d="M 101.47630435890484 185.9873277026323 a86.0,86.0 0 0,1 -42.54439059252881,-10.42667462771756" fill="none" id="id79" stroke="none" /><text fill="#006cb8" style="font-size:6.75px; font-family:Arial;" text-anchor="middle"><textPath startOffset="22.145653131862474" xlink:href="#id79">July</textPath></text><path d="M 100.36049292484886 120.99690560180557 l 0.04887129385221015 2.8465078588801522 a23.846927360160294,23.846927360160294 0 0,0 -0.40936421870106204,0.003513899474576214 l -3.4864804790253276e-16 -2.8469273601602936" fill="#ff0200" stroke="none" /><path d="M 100.0 121.0 l 3.5023107948301983e-16 2.8598537939825945 a23.859853793982595,23.859853793982595 0 0,0 -0.409586118126608,-0.0035158042142657475 l 0.04909319327775547 -2.8594323879627637" fill="#ff0200" stroke="none" /><path d="M 99.63950707515114 120.99690560180557 l -0.04640300518039459 2.702742418097 a23.70314073208751,23.70314073208751 0 0,0 -0.40677601593103707,-0.010477107236516185 l 0.09279233518217556 -2.7015475935104365" fill="#ff0000" stroke="none" /><path d="M 98.55909050195518 120.95050786540614 l -1.257155336357765 18.27876268297135 a39.32194325829329,39.32194325829329 0 0,0 -0.6730250282247373,-0.05209639369235786 l 1.5707493593577386 -18.254488522283943" fill="#eab400" stroke="none" /><path d="M 98.19965949673042 120.92268563240118 l -0.23553134188393088 2.737231214798247 a23.747345944047733,23.747345944047733 0 0,0 -0.4058539441793247,-0.038434790478537074 l 0.2824848494482708 -2.732784668814526" fill="#ff0100" stroke="none" /><path d="M 97.84075906011543 120.88869738790638 l -0.2785467492555615 2.6946871218065676 a23.709045399389055,23.709045399389055 0 0,0 -0.4044809416151351,-0.04532293317448453 l 0.3247635924714959 -2.6895084281251123" fill="#ff0000" stroke="none" /><path d="M 97.48249496171623 120.84855314841334 l -3.5486990097606497 29.388318508849462 a50.60179942907965,50.60179942907965 0 0,0 -0.8614888356252253,-0.11153697737903609 l 4.052665667276669 -29.32306993527003" fill="#94db00" stroke="none" /><path d="M 97.12497278360702 120.80226474461374 l -0.5728352523620062 4.1447505285297055 a25.184148320757274,25.184148320757274 0 0,0 -0.4277406401269762,-0.06286314404075471 l 0.6439009980966672 -4.134306311190068" fill="#fd1300" stroke="none" /><path d="M 96.05791012581884 120.62667999033965 l -2.149812145016111 11.248725566867948 a32.45231501215223,32.45231501215223 0 0,0 -0.5462860671167744,-0.1092725130569601 l 2.342594697663843 -11.210163657148128" fill="#f36900" stroke="none" /><path d="M 95.70440661134978 120.55596938700252 l -1.1385313706986708 5.448284761788853 a26.565973457321334,26.565973457321334 0 0,0 -0.44559687098890627,-0.09711576407508996 l 1.2318906583067135 -5.427937539580044" fill="#fb2400" stroke="none" /><path d="M 95.35216902796893 120.47920084513623 l -1.3111730232684131 5.777270268179362 a26.9241899402818,26.9241899402818 0 0,0 -0.4498491684116596,-0.10616317886937053 l 1.4101543454199605 -5.7539109456637645" fill="#fb2800" stroke="none" /><path d="M 95.00130118170881 120.39639698878247 l -0.6902940215226637 2.816635171224918 a23.899989573072833,23.899989573072833 0 0,0 -0.3976442785142995,-0.10107962062248071 l 0.7385435932623419 -2.804370318767174" fill="#ff0300" stroke="none" /><path d="M 94.6519064749342 120.30758222061772 l -4.899313358594841 18.603490830503237 a40.2378050324439,40.2378050324439 0 0,0 -0.6664503321832149,-0.18164400160952104 l 5.2179450917127514 -18.516646334749574" fill="#e9be00" stroke="none" /><path d="M 92.25597844496254 119.51999308798841 l -4.091366922415506 10.312917323173531 a32.09484326200458,32.09484326200458 0 0,0 -0.5103776060065938,-0.20756612919383285 l 4.26779898961254 -10.241163937400408" fill="#f46500" stroke="none" /><line stroke="#006cb8" stroke-width="0.3" x1="58.13341422392154" x2="55.67067388415222" y1="173.97424548756322" y2="178.32567169271397" /><path d="M 57.64086615596768 174.84453072859336 a86.0,86.0 0 0,1 -31.369924170532247,-30.572349798747897" fill="none" id="id80" stroke="none" /><text fill="#006cb8" style="font-size:6.75px; font-family:Arial;" text-anchor="middle"><textPath startOffset="22.145653131862474" xlink:href="#id80">August</textPath></text><path d="M 89.65649057296885 118.27599006163327 l -7.174410786376302 12.676496420762911 a35.56590991449856,35.56590991449856 0 0,0 -0.5287592839383304,-0.3052793149183111 l 7.390962538175032 -12.551470208568428" fill="#ef8c00" stroke="none" /><path d="M 88.4268655584334 117.5232005979908 l -1.6115570888052044 2.4401028334053465 a23.924246584689996,23.924246584689996 0 0,0 -0.3407538551411101,-0.2292744011003175 l 1.6532072320433202 -2.412078758247908" fill="#ff0300" stroke="none" /><line stroke="#006cb8" stroke-width="0.3" x1="26.387840678322732" x2="22.057713659400548" y1="142.50000000000003" y2="145.00000000000006" /><path d="M 25.521815274538298 143.00000000000003 a86.0,86.0 0 0,1 -11.493303480769221,-40.785679425670985" fill="none" id="id81" stroke="none" /><text fill="#006cb8" style="font-size:6.75px; font-family:Arial;" text-anchor="middle"><textPath startOffset="21.40746469413373" xlink:href="#id81">September</textPath></text><path d="M 81.81346652052679 110.50000000000001 l -6.754007334258644 3.89942795254294 a28.798855905085873,28.798855905085873 0 0,0 -0.2435102825857289,-0.4302593366243632 l 6.819950981865752 -3.782911845819455" fill="#f83e00" stroke="none" /><path d="M 81.4637452351635 109.86951160357371 l -6.3008132041049745 3.3548281364708066 a28.138285428468084,28.138285428468084 0 0,0 -0.22335357780025678,-0.428309935705126 l 6.35747485088018 -3.246171957661178" fill="#f93700" stroke="none" /><path d="M 80.9802524753101 108.90220220490708 l -2.6709963490286923 1.2501611578574126 a23.949088743517223,23.949088743517223 0 0,0 -0.17108263638535662,-0.3738464360020533 l 2.692063450269105 -1.2041257396406704" fill="#ff0300" stroke="none" /><path d="M 79.83685265289637 105.86919833188381 l -14.453025997222726 4.207065227133705 a36.05288538127337,36.05288538127337 0 0,0 -0.16787169036397234,-0.5957174070350183 l 14.523116179661272 -3.9583398961956906" fill="#ef9100" stroke="none" /><path d="M 79.2786578344484 103.40968896794605 l -17.490206322885737 2.8780067946267684 a38.72541227523439,38.72541227523439 0 0,0 -0.10230609949335344,-0.6568785481912088 l 17.537033914517355 -2.5773400645041096" fill="#ebae00" stroke="none" /><path d="M 79.06263194458094 101.62068470465958 l -26.882369717032283 2.0808654320867057 a47.96278551169496,47.96278551169496 0 0,0 -0.05649568214518535,-0.8214348192931372 l 26.914129360342535 -1.6190871886392249" fill="#b3df00" stroke="none" /><path d="M 79.01933749520258 100.90099992219065 l -13.308317629068235 0.5715164211586321 a34.320583663481955,34.320583663481955 0 0,0 -0.020225141204116656,-0.5888329185931217 l 13.3161674572692 -0.34297723800139046" fill="#f17e00" stroke="none" /><path d="M 79.00696218219943 100.54070618675478 l -13.511701363691992 0.34801349782432484 a34.51618241724578,34.51618241724578 0 0,0 -0.01017170265914507,-0.59245068577481 l 13.515684497949803 -0.11601589608046249" fill="#f18000" stroke="none" /><line stroke="#006cb8" stroke-width="0.3" x1="15.003131293944662" x2="10.003315487706104" y1="100.72959589197737" y2="100.7725132973878" /><path d="M 14.003168132696942 100.73817937305945 a86.0,86.0 0 0,1 10.791469493833604,-42.45332614584628" fill="none" id="id82" stroke="none" /><text fill="#006cb8" style="font-size:6.75px; font-family:Arial;" text-anchor="middle"><textPath startOffset="22.145653131862435" xlink:href="#id82">October</textPath></text><path d="M 79.17382384314186 97.30363454192245 l -17.944574779872358 -2.323284468157353 a39.094347591179194,39.094347591179194 0 0,0 0.09188192501530446,-0.6648118384809828 l 17.902048338301846 2.6309846148384026" fill="#ebb200" stroke="none" /><path d="M 79.34024301695615 96.23510406497455 l -13.098561422328503 -2.386994227186697 a34.31428003217354,34.31428003217354 0 0,0 0.1105797408307358,-0.5785999305772003 l 13.055655389215607 2.6114967227972117" fill="#f17e00" stroke="none" /><path d="M 79.56144815229197 95.17655741523228 l -12.954534988230032 -3.0572349838523 a34.310396782506764,34.310396782506764 0 0,0 0.1402028578149595,-0.5720755042275774 l 12.900144603898774 3.279166312687995" fill="#f17e00" stroke="none" /><path d="M 79.83685265289637 94.1308016681162 l -13.403937991119863 -3.90169099812958 a34.960255954482776,34.960255954482776 0 0,0 0.17267649529590343,-0.5747838928536382 l 13.33498517582033 4.1312124945739415" fill="#f08500" stroke="none" /><path d="M 79.94057633289273 93.78553927170692 l -17.417652361019773 -5.396033224728627 a39.23435735998702,39.23435735998702 0 0,0 0.20483190097423043,-0.6416330124113143 l 17.322455744268286 5.694235270831332" fill="#eab300" stroke="none" /><path d="M 80.05021161711548 93.44210830539832 l -12.861790230645003 -4.2279259164282115 a34.538870170435956,34.538870170435956 0 0,0 0.18998776319546323,-0.5616650632742003 l 12.787317045877174 4.448092654176573" fill="#f18100" stroke="none" /><path d="M 80.16572619554312 93.10060997987247 l -16.289154715389508 -5.666213574928962 a38.24652247899864,38.24652247899864 0 0,0 0.22102816497437036,-0.6182551153148258 l 16.189486380371193 5.94500364662471" fill="#eca900" stroke="none" /><path d="M 80.41425534168474 92.42381321644754 l -24.82941707587185 -9.604551921576673 a47.6223096282396,47.6223096282396 0 0,0 0.3014749020548252,-0.7599136911601376 l 24.660883498850893 10.029366629950394" fill="#b7df00" stroke="none" /><path d="M 80.5471966667186 92.08871423366112 l -12.334691803528733 -5.0164117749795185 a34.3157429001987,34.3157429001987 0 0,0 0.22660507932325655,-0.5437696976932328 l 12.246760879668997 5.227413982114014" fill="#f17e00" stroke="none" /><path d="M 80.83023694016515 91.42560881287825 l -12.285358949889225 -5.495084794828178 a34.45830603865045,34.45830603865045 0 0,0 0.2461562485988915,-0.5378958273184923 l 12.189218236435288 5.705169604361342" fill="#f18000" stroke="none" /><path d="M 81.29705330413844 90.45014215332179 l -26.85815424205397 -13.713964927918413 a51.15681155782451,51.15681155782451 0 0,0 0.40606798588851806,-0.7786889050121156 l 26.61877818719051 14.173000076035015" fill="#8ddb00" stroke="none" /><line stroke="#006cb8" stroke-width="0.3" x1="26.387840678322718" x2="22.05771365940052" y1="57.49999999999999" y2="54.99999999999999" /><path d="M 25.521815274538284 56.99999999999999 a86.0,86.0 0 0,1 29.574782752854787,-30.34633250058573" fill="none" id="id83" stroke="none" /><text fill="#006cb8" style="font-size:6.75px; font-family:Arial;" text-anchor="middle"><textPath startOffset="21.40746469413373" xlink:href="#id83">November</textPath></text><path d="M 82.18462484594161 88.88188828441811 l -14.592433125116564 -9.106757521760352 a38.20093419181464,38.20093419181464 0 0,0 0.35196213949903643,-0.5533429426499986 l 14.433953293991637 9.355914139089021" fill="#eca900" stroke="none" /><path d="M 82.576782715395 88.27688183743585 l -46.7876259161413 -31.480802781781314 a77.39257825861651,77.39257825861651 0 0,0 0.7511143687347661,-1.0958983113088843 l 46.240321810591226 32.279335828160235" fill="#00b877" stroke="none" /><path d="M 83.64595745247003 86.82634096563983 l -10.386453024205835 -8.36659133786786 a34.337100773366004,34.337100773366004 0 0,0 0.3737073142798334,-0.45586215946206465 l 10.241298890687373 8.543655779028416" fill="#f17e00" stroke="none" /><path d="M 83.8745106332314 86.54754324733833 l -10.23202649579193 -8.535920417422485 a34.32502546275834,34.32502546275834 0 0,0 0.38134357372467825,-0.4492217709728938 l 10.083988358560136 8.710308970844936" fill="#f17e00" stroke="none" /><path d="M 84.10781606972428 86.27271002978789 l -6.821374718603388 -5.892141015266882 a30.01379380701554,30.01379380701554 0 0,0 0.34014051689037206,-0.387017469487764 l 6.719223137754423 6.008370762565946" fill="#f74d00" stroke="none" /><path d="M 84.34580500576568 86.00192230759919 l -12.67927587185988 -11.337886668911972 a38.00916549251667,38.00916549251667 0 0,0 0.4391005208365028,-0.4826483914887956 l 12.48277765018151 11.553872635958426" fill="#eca600" stroke="none" /><path d="M 84.58840730492382 85.73525988315684 l -9.768695811883095 -9.041759005318546 a34.31092873451591,34.31092873451591 0 0,0 0.4037974226583874,-0.42881886969566513 l 9.612042555488436 9.208119334958724" fill="#f17e00" stroke="none" /><path d="M 85.08716467003674 85.21462403516908 l -40.568235665020296 -40.22150069155666 a78.12749655685533,78.12749655685533 0 0,0 0.952441446598686,-0.9443009703295416 l 39.871802298291634 40.91198167211488" fill="#00b77d" stroke="none" /><path d="M 85.60350026404147 84.71141617570332 l -1.866770632001541 -1.982445720247194 a23.723035737229655,23.723035737229655 0 0,0 0.29887661857743375,-0.2766357361864398 l 1.8324642421101538 2.014199202565999" fill="#ff0000" stroke="none" /><path d="M 87.54013794807813 83.09580414077388 l -8.060874960160437 -10.936125019318785 a34.585894728044664,34.585894728044664 0 0,0 0.480939906371234,-0.3481634031847868 l 7.871954043415235 11.072889193876652" fill="#f18100" stroke="none" /><path d="M 88.12776184653039 82.6780497279521 l -7.714019763728016 -11.254985371552799 a34.64480841305784,34.64480841305784 0 0,0 0.49344718069115484,-0.3320132850169945 l 7.519676294939872 11.385748330626903" fill="#f08200" stroke="none" /><path d="M 89.03521579738668 82.08984904055464 l -9.603215891936712 -15.686131449786151 a39.39229391150315,39.39229391150315 0 0,0 0.5797556043860783,-0.34812658270233204 l 9.332527530993199 15.848672033024405" fill="#eab500" stroke="none" /><line stroke="#006cb8" stroke-width="0.3" x1="56.869717070023135" x2="54.33264160355391" y1="26.7553504044142" y2="22.446841604673864" /><path d="M 56.362301976729285 25.89364864446614 a86.0,86.0 0 0,1 42.16139366436587,-11.88097634709845" fill="none" id="id84" stroke="none" /><text fill="#006cb8" style="font-size:6.75px; font-family:Arial;" text-anchor="middle"><textPath startOffset="22.145653131862474" xlink:href="#id84">December</textPath></text><path d="M 89.65649057296885 81.72400993836675 l -10.706803282898404 -18.91789549480576 a42.73758051143402,42.73758051143402 0 0,0 0.6415843162083837,-0.3558760050226506 l 10.380474778533918 19.098904415261554" fill="#e6d800" stroke="none" /><path d="M 91.5904679813234 80.7573450057729 l -10.658206625371037 -24.388062557311674 a47.61531445931929,47.61531445931929 0 0,0 0.7517889599733564,-0.32089400287775305 l 10.237982590227249 24.56743120984883" fill="#b7df00" stroke="none" /></svg>